<?xml version="1.0" standalone="no"?>
<!DOCTYPE svg PUBLIC "-//W3C//DTD SVG 1.1//EN" "http://www.w3.org/Graphics/SVG/1.1/DTD/svg11.dtd" >
<svg xmlns="http://www.w3.org/2000/svg" xmlns:xlink="http://www.w3.org/1999/xlink" version="1.1">
<metadata>
Created by FontForge 20170731 at Tue Mar  7 18:37:51 2017
 By Aleksey,,,
Copyright (c) Milos Mitrovic, 2016. All rights reserved.
</metadata>
<defs>
<font id="NoirPro-MediumItalic" horiz-adv-x="624" >
  <font-face 
    font-family="Noir Pro Medium Italic"
    font-weight="500"
    font-style="italic"
    font-stretch="normal"
    units-per-em="1000"
    panose-1="0 0 6 0 0 0 0 0 0 0"
    ascent="800"
    descent="-200"
    x-height="496"
    cap-height="672"
    bbox="-209 -304 1112 1120"
    underline-thickness="50"
    underline-position="-150"
    unicode-range="U+0020-25CA"
  />
<missing-glyph horiz-adv-x="528" 
d="M433 -256h-335v1056h335v-1056zM177 729v-35h69v-39h-70v-35h176v35h-70v39h70v35h-175zM176 593v-110h176v36h-70v74h-106zM246 519h-35v38h35v-38zM176 455v-35h70v-39h-70v-35h106v74h70v35h-176zM317 391v-69h-141v-36h176v105h-35zM246 262v-59h36v25h35v-50h-106
v84h-35v-119h176v119h-106zM176 80v-120h176v120h-176zM317 -5h-106v50h106v-50zM176 -64v-35h74l-74 -49v-35h176v35h-108l74 49h34v35h-176z" />
    <glyph glyph-name=".notdef" horiz-adv-x="528" 
d="M433 -256h-335v1056h335v-1056zM177 729v-35h69v-39h-70v-35h176v35h-70v39h70v35h-175zM176 593v-110h176v36h-70v74h-106zM246 519h-35v38h35v-38zM176 455v-35h70v-39h-70v-35h106v74h70v35h-176zM317 391v-69h-141v-36h176v105h-35zM246 262v-59h36v25h35v-50h-106
v84h-35v-119h176v119h-106zM176 80v-120h176v120h-176zM317 -5h-106v50h106v-50zM176 -64v-35h74l-74 -49v-35h176v35h-108l74 49h34v35h-176z" />
    <glyph glyph-name=".null" horiz-adv-x="0" 
 />
    <glyph glyph-name="nonmarkingreturn" horiz-adv-x="333" 
 />
    <glyph glyph-name="space" unicode=" " horiz-adv-x="304" 
 />
    <glyph glyph-name="exclam" unicode="!" horiz-adv-x="288" 
d="M113 672h144l-91 -480h-80zM50 3.5q-20 19.5 -20 49.5q0 37 26.5 64t63.5 27q31 0 51.5 -20t20.5 -51q0 -36 -27.5 -62.5t-63.5 -26.5q-31 0 -51 19.5z" />
    <glyph glyph-name="quotedbl" unicode="&#x22;" horiz-adv-x="416" 
d="M78 448l11 224h120l-43 -224h-88zM278 448l11 224h120l-43 -224h-88z" />
    <glyph glyph-name="numbersign" unicode="#" horiz-adv-x="704" 
d="M543 416l-51 -176h104l-10 -80h-117l-46 -160h-96l46 160h-144l-46 -160h-96l46 160h-107l10 80h120l51 176h-101l10 80h115l50 176h96l-50 -176h144l50 176h96l-50 -176h109l-10 -80h-123zM396 240l51 176h-144l-51 -176h144z" />
    <glyph glyph-name="dollar" unicode="$" horiz-adv-x="608" 
d="M478 52q-70 -60 -185 -67l-8 -65h-48l8 64q-101 4 -157.5 41t-84.5 71l77 112q36 -47 91.5 -71.5t108.5 -24.5q69 0 110 24.5t41 63.5q0 31 -31.5 49t-94.5 27q-125 20 -179.5 63.5t-54.5 113.5q0 59 31.5 110.5t90.5 85t138 38.5l8 65h48l-8 -65q45 -2 97.5 -19.5
t100.5 -61.5l-67 -110q-23 21 -65.5 42.5t-104.5 21.5q-60 0 -99 -19.5t-39 -62.5q0 -28 29 -43t98 -27q114 -19 173 -57t59 -120q0 -9 -2 -31q-11 -88 -81 -148z" />
    <glyph glyph-name="percent" unicode="%" horiz-adv-x="800" 
d="M110.5 422q-38.5 38 -38.5 94q0 46 23.5 85.5t63.5 63t85 23.5q58 0 96 -38.5t38 -95.5q0 -45 -24 -84.5t-63.5 -62.5t-83.5 -23q-58 0 -96.5 38zM85 0l550 672h80l-550 -672h-80zM272 488q25 24 25 55q0 27 -18.5 46t-45.5 19q-32 0 -56.5 -24.5t-24.5 -56.5
q0 -26 18.5 -44.5t45.5 -18.5q31 0 56 24zM460.5 22.5q-38.5 38.5 -38.5 95.5q0 45 24 84t64 62.5t85 23.5q58 0 95.5 -37.5t37.5 -94.5q0 -46 -23.5 -85.5t-62.5 -63t-84 -23.5q-59 0 -97.5 38.5zM623.5 88.5q24.5 24.5 24.5 56.5q0 26 -18.5 44.5t-45.5 18.5
q-31 0 -56 -24t-25 -55q0 -27 18.5 -46t45.5 -19q32 0 56.5 24.5z" />
    <glyph glyph-name="ampersand" unicode="&#x26;" horiz-adv-x="800" 
d="M552 160l158 -160h-198l-65 68q-43 -36 -101.5 -60t-115.5 -24q-93 0 -147.5 48t-54.5 128q0 9 2 29q7 63 49 109t94 71q-31 37 -46 66t-15 60q0 10 1 15q7 53 42 93.5t91 62.5t123 22q56 0 101 -20.5t70.5 -58t25.5 -85.5q0 -58 -28 -96.5t-59.5 -57t-87.5 -43.5l80 -82
l98 75h181zM402.5 453q33.5 23 33.5 53q0 27 -26.5 44.5t-60.5 17.5q-45 0 -74.5 -20t-29.5 -46q0 -21 18.5 -44t46.5 -48q59 20 92.5 43zM366 158l-118 130q-32 -12 -59 -36.5t-30 -53.5l-1 -10q0 -33 25 -54.5t67 -21.5q57 0 116 46z" />
    <glyph glyph-name="quotesingle" unicode="'" horiz-adv-x="216" 
d="M78 448l11 224h120l-43 -224h-88z" />
    <glyph glyph-name="parenleft" unicode="(" horiz-adv-x="336" 
d="M172 304q-5 -39 -5 -90q0 -176 82 -326l-134 -48q-77 181 -77 363q0 50 6 101q29 233 185 464l122 -48q-152 -196 -179 -416z" />
    <glyph glyph-name="parenright" unicode=")" horiz-adv-x="336" 
d="M213 768q77 -181 77 -363q0 -50 -6 -101q-29 -233 -185 -464l-122 48q152 196 179 416q5 39 5 90q0 176 -82 326z" />
    <glyph glyph-name="asterisk" unicode="*" horiz-adv-x="432" 
d="M390 636l21 -77l-112 -35l62 -92l-72 -48l-55 96l-76 -96l-62 48l83 92l-104 35l41 77l96 -45l9 113h82l-20 -113z" />
    <glyph glyph-name="plus" unicode="+" horiz-adv-x="496" 
d="M439 264h-160l-19 -160h-80l19 160h-160l10 80h160l20 160h80l-20 -160h160z" />
    <glyph glyph-name="comma" unicode="," horiz-adv-x="280" 
d="M62 128h144l-149 -240h-80z" />
    <glyph glyph-name="hyphen" unicode="-" horiz-adv-x="384" 
d="M33 216l12 96h288l-12 -96h-288z" />
    <glyph glyph-name="period" unicode="." horiz-adv-x="256" 
d="M34 3.5q-20 19.5 -20 49.5q0 37 26.5 64t63.5 27q31 0 51.5 -20t20.5 -51q0 -36 -27.5 -62.5t-63.5 -26.5q-31 0 -51 19.5z" />
    <glyph glyph-name="slash" unicode="/" horiz-adv-x="512" 
d="M-3 -80l422 832h96l-422 -832h-96z" />
    <glyph glyph-name="zero" unicode="0" 
d="M474 650.5q51 -37.5 78.5 -103.5t27.5 -149q0 -34 -4 -62q-12 -97 -55.5 -177.5t-109 -127.5t-142.5 -47q-69 0 -120 37.5t-78 103.5t-27 148q0 34 4 63q12 97 55 177.5t109 127.5t143 47q68 0 119 -37.5zM356 142q35 30 60 81.5t32 112.5q3 23 3 45q0 77 -31 128t-80 51
q-37 0 -72 -30t-60 -81.5t-32 -112.5q-3 -22 -3 -45q0 -77 31 -128t80 -51q37 0 72 30z" />
    <glyph glyph-name="one" unicode="1" horiz-adv-x="400" 
d="M363 688l-84 -688h-128l65 532l-131 -28l14 120z" />
    <glyph glyph-name="two" unicode="2" 
d="M126.5 569.5q36.5 54.5 93 86.5t127.5 32q96 0 155.5 -50.5t59.5 -140.5q0 -11 -2 -33q-7 -53 -37.5 -104t-79 -102.5t-133.5 -129.5h240l-15 -128h-528l307 288q55 53 84 94t33 74q1 6 1 17q0 41 -26 64t-74 23q-51 0 -84 -35.5t-44 -92.5l-126 16q12 67 48.5 121.5z
" />
    <glyph glyph-name="three" unicode="3" horiz-adv-x="608" 
d="M522.5 306.5q22.5 -37.5 22.5 -80.5q0 -12 -1 -18q-7 -55 -38.5 -106t-93 -84.5t-151.5 -33.5q-114 0 -174 60t-55 164l130 16q2 -53 28.5 -82.5t91.5 -29.5q30 0 61 11t52 33.5t21 54.5q0 41 -43 61t-122 20l12 104q56 2 114 21.5t58 75.5q0 30 -26.5 48.5t-70.5 18.5
q-107 0 -131 -104l-126 16q13 63 51 112t94 76.5t121 27.5q74 0 123 -25.5t72 -65.5t23 -83q0 -12 -1 -18q-5 -45 -29 -81t-67 -60q32 -11 54.5 -48.5z" />
    <glyph glyph-name="four" unicode="4" horiz-adv-x="640" 
d="M582 256l-16 -128h-80l-15 -128h-128l15 128h-336l14 112l357 432h160l-51 -416h80zM407 520l-212 -264h179z" />
    <glyph glyph-name="five" unicode="5" horiz-adv-x="608" 
d="M450 425.5q46 -22.5 73 -64.5t27 -98q0 -8 -2 -28q-10 -78 -50 -134.5t-101.5 -86.5t-135.5 -30q-118 0 -176.5 59.5t-53.5 156.5l130 10q-1 -43 27.5 -70.5t87.5 -27.5t101 35.5t42 90.5q0 38 -27.5 64t-80.5 26q-87 0 -143 -56h-112l113 400h368l-15 -128h-264
l-34 -128q28 19 62.5 25.5t62.5 6.5q55 0 101 -22.5z" />
    <glyph glyph-name="six" unicode="6" 
d="M466 441q49 -27 74.5 -72.5t25.5 -100.5q0 -8 -2 -28q-9 -75 -50 -133t-105 -90.5t-140 -32.5q-70 0 -123.5 27t-82.5 77t-29 118q0 20 3 41q11 80 69.5 199t224.5 226h206q0 3 -55.5 -25t-119.5 -77.5t-112 -121.5q3 2 15.5 6.5t35 9t51.5 4.5q65 0 114 -27zM361 130
q35 18 55 47.5t20 64.5q0 44 -33 73t-90 29q-42 0 -76.5 -17.5t-54.5 -47t-20 -64.5q0 -44 33.5 -73.5t88.5 -29.5q42 0 77 18z" />
    <glyph glyph-name="seven" unicode="7" horiz-adv-x="560" 
d="M601 672l-370 -672h-144l307 544h-320l15 128h512z" />
    <glyph glyph-name="eight" unicode="8" 
d="M544 314.5q18 -36.5 18 -79.5q0 -71 -40.5 -128.5t-108 -90t-144.5 -32.5q-67 0 -121.5 25t-86 70t-31.5 103q0 60 29.5 110t80.5 85q-41 39 -41 99q0 58 35.5 107t94.5 77t126 28q59 0 106.5 -22t75 -61.5t27.5 -88.5q0 -42 -18.5 -77t-52.5 -62q33 -26 51 -62.5z
M260.5 537q-33.5 -23 -33.5 -55q0 -28 27 -47t68 -19q46 0 79.5 23t33.5 55q0 28 -27 47t-68 19q-46 0 -79.5 -23zM357.5 128q34.5 16 55.5 42t21 56q0 39 -35.5 66.5t-88.5 27.5q-39 0 -73.5 -16t-55.5 -42t-21 -56q0 -39 35.5 -66.5t88.5 -27.5q39 0 73.5 16z" />
    <glyph glyph-name="nine" unicode="9" 
d="M158 231q-49 27 -74.5 72.5t-25.5 100.5q0 8 2 28q9 75 50 133t105 90.5t140 32.5q70 0 123.5 -27t82.5 -77t29 -118q0 -20 -3 -41q-11 -80 -69.5 -199t-224.5 -226h-206q0 -3 56 27t120 80t111 117q-3 -2 -15.5 -6.5t-35 -9t-51.5 -4.5q-65 0 -114 27zM263 542
q-35 -18 -55 -47.5t-20 -64.5q0 -44 33 -73t90 -29q42 0 76.5 17.5t54.5 47t20 64.5q0 44 -33.5 73.5t-88.5 29.5q-42 0 -77 -18z" />
    <glyph glyph-name="colon" unicode=":" horiz-adv-x="256" 
d="M79 371.5q-20 19.5 -20 49.5q0 37 27 64t64 27q31 0 51 -20t20 -50q0 -37 -27.5 -63.5t-63.5 -26.5q-31 0 -51 19.5zM34 3.5q-20 19.5 -20 49.5q0 37 26.5 64t63.5 27q31 0 51.5 -20t20.5 -51q0 -36 -27.5 -62.5t-63.5 -26.5q-31 0 -51 19.5z" />
    <glyph glyph-name="semicolon" unicode=";" horiz-adv-x="288" 
d="M111 371.5q-20 19.5 -20 49.5q0 37 27 64t64 27q31 0 51 -20t20 -50q0 -37 -27.5 -63.5t-63.5 -26.5q-31 0 -51 19.5zM62 128h144l-149 -240h-80z" />
    <glyph glyph-name="less" unicode="&#x3c;" horiz-adv-x="528" 
d="M40 272l8 64l458 208l-12 -96l-330 -144l294 -144l-11 -96z" />
    <glyph glyph-name="equal" unicode="=" horiz-adv-x="512" 
d="M474 416l-10 -80h-416l10 80h416zM456 272l-10 -80h-416l10 80h416z" />
    <glyph glyph-name="greater" unicode="&#x3e;" horiz-adv-x="528" 
d="M26 160l330 144l-294 144l12 96l406 -208l-8 -64l-457 -208z" />
    <glyph glyph-name="question" unicode="?" horiz-adv-x="528" 
d="M414 663.5q45 -24.5 66 -63.5t21 -83q0 -14 -1 -21q-7 -56 -34 -98.5t-85 -83.5q-34 -24 -57.5 -52t-29.5 -70h-112q6 102 68 157q13 12 41 34q40 31 60 54.5t20 56.5q0 35 -24.5 50.5t-61.5 15.5q-44 0 -83.5 -19t-70.5 -53l-52 104q103 96 220 96q70 0 115 -24.5z
M283.5 124q20.5 -20 20.5 -51q0 -36 -27.5 -62.5t-63.5 -26.5q-31 0 -51 19.5t-20 49.5q0 37 26.5 64t63.5 27q31 0 51.5 -20z" />
    <glyph glyph-name="at" unicode="@" horiz-adv-x="1074" 
d="M981.5 197.5q-34.5 -60.5 -91.5 -97t-128 -36.5q-56 0 -90 26t-48 63q-27 -32 -71 -52.5t-89 -20.5q-79 0 -122.5 47.5t-43.5 120.5q0 22 5 50q12 60 46 109t84 77t109 28q40 0 72 -19t44 -43l10 46h108l-52 -236q-4 -22 -4 -33q0 -29 14.5 -47t47.5 -18q25 0 53 15.5
t51.5 52.5t30.5 98q2 14 2 40q0 87 -44 157t-120.5 110.5t-168.5 40.5q-105 0 -200.5 -51.5t-159 -140.5t-76.5 -196q-3 -24 -3 -47q0 -96 45.5 -174t125.5 -122.5t179 -44.5q72 0 149 29l16 -103q-87 -34 -185 -34q-124 0 -224.5 57t-157.5 156.5t-57 220.5q0 34 4 62
q17 135 97.5 249t202.5 180.5t257 66.5q117 0 215.5 -54t156 -146.5t57.5 -203.5q0 -24 -3 -50q-9 -72 -43.5 -132.5zM629 329q0 41 -21 69t-69 28t-85.5 -36.5t-49.5 -90.5q-4 -16 -4 -35q0 -41 22 -68.5t67 -27.5q53 0 89.5 37t47.5 92q3 15 3 32z" />
    <glyph glyph-name="A" unicode="A" horiz-adv-x="672" 
d="M452 128h-284l-65 -128h-144l360 672h116l196 -672h-144zM419 256l-63 240l-123 -240h186z" />
    <glyph glyph-name="B" unicode="B" 
d="M555 312.5q23 -35.5 23 -84.5q0 -8 -2 -26q-8 -58 -41 -104t-88.5 -72t-125.5 -26h-298l82 672h240q112 0 174.5 -37t62.5 -114q0 -57 -28.5 -99.5t-71.5 -60.5q50 -13 73 -48.5zM202 416h120q62 0 95.5 18t33.5 55q0 31 -28 43t-85 12h-120zM410.5 152.5
q39.5 24.5 39.5 75.5q0 38 -33.5 57t-92.5 19h-136l-22 -176h136q69 0 108.5 24.5z" />
    <glyph glyph-name="C" unicode="C" horiz-adv-x="640" 
d="M458.5 130q45.5 18 81.5 51l35 -116q-47 -38 -108.5 -59.5t-119.5 -21.5q-90 0 -162.5 41t-114 112t-41.5 157q0 21 3 42q12 95 70 176t146 128.5t185 47.5q58 0 115 -21t93 -59l-63 -116q-29 32 -69.5 50t-88.5 18q-68 0 -128.5 -34.5t-97 -92.5t-36.5 -124
q0 -55 26.5 -100t74 -71t105.5 -26q49 0 94.5 18z" />
    <glyph glyph-name="D" unicode="D" horiz-adv-x="672" 
d="M501 635q71 -37 106.5 -101.5t35.5 -147.5q0 -24 -3 -50q-12 -94 -63 -170.5t-136.5 -121t-194.5 -44.5h-223l82 672h223q102 0 173 -37zM400.5 160.5q52.5 32.5 83 87t30.5 117.5q0 51 -21.5 91.5t-62 64t-94.5 23.5h-118l-52 -416h118q64 0 116.5 32.5z" />
    <glyph glyph-name="E" unicode="E" horiz-adv-x="528" 
d="M218 544l-18 -144h240l-16 -128h-240l-18 -144h288l-15 -128h-416l82 672h416l-15 -128h-288z" />
    <glyph glyph-name="F" unicode="F" horiz-adv-x="512" 
d="M23 0l82 672h416l-15 -128h-288l-18 -144h240l-16 -128h-240l-33 -272h-128z" />
    <glyph glyph-name="G" unicode="G" horiz-adv-x="752" 
d="M720 336q-12 -96 -65.5 -177t-136 -128t-177.5 -47q-88 0 -159.5 41t-112 111.5t-40.5 156.5q0 21 3 43q12 95 69 176t144 128.5t182 47.5q101 0 174 -52t107 -140l-134 -36q-21 46 -63 73t-99 27q-66 0 -124.5 -34.5t-94 -92.5t-35.5 -125q0 -54 25.5 -99t71 -71
t101.5 -26q72 0 130.5 42t86.5 110h-246l16 128h379q1 -24 -2 -56z" />
    <glyph glyph-name="H" unicode="H" horiz-adv-x="672" 
d="M649 672l-82 -672h-128l33 272h-288l-33 -272h-128l82 672h128l-33 -272h288l33 272h128z" />
    <glyph glyph-name="I" unicode="I" horiz-adv-x="256" 
d="M23 0l82 672h128l-82 -672h-128z" />
    <glyph glyph-name="J" unicode="J" horiz-adv-x="464" 
d="M457 672l-51 -416q-17 -139 -87.5 -205.5t-177.5 -66.5q-40 0 -83 18t-62 44l83 106q12 -18 32.5 -29t44.5 -11q49 0 81 34.5t38 85.5l54 440h128z" />
    <glyph glyph-name="K" unicode="K" 
d="M567 0h-162l-218 294l-36 -294h-128l82 672h128l-34 -278l272 278h162l-327 -321z" />
    <glyph glyph-name="L" unicode="L" horiz-adv-x="496" 
d="M438 128l-15 -128h-400l82 672h128l-67 -544h272z" />
    <glyph glyph-name="M" unicode="M" horiz-adv-x="864" 
d="M791 0h-136l-2 440l-230 -440h-64l-122 440l-110 -440h-136l178 672h128l123 -432l229 432h128z" />
    <glyph glyph-name="N" unicode="N" horiz-adv-x="720" 
d="M697 672l-82 -672h-128l-279 464l-57 -464h-128l82 672h128l279 -464l57 464h128z" />
    <glyph glyph-name="O" unicode="O" horiz-adv-x="768" 
d="M586.5 647q71.5 -41 112 -111.5t40.5 -156.5q0 -20 -3 -43q-12 -95 -69 -176t-144 -128.5t-182 -47.5q-88 0 -159.5 41t-112 111.5t-40.5 156.5q0 21 3 43q12 95 69 176t144 128.5t182 47.5q88 0 159.5 -41zM480.5 146.5q58.5 34.5 94 92.5t35.5 125q0 54 -25.5 99
t-71 71t-101.5 26q-66 0 -124.5 -34.5t-94 -92.5t-35.5 -125q0 -54 25.5 -99t71 -71t101.5 -26q66 0 124.5 34.5z" />
    <glyph glyph-name="P" unicode="P" horiz-adv-x="592" 
d="M518 621q58 -51 58 -138q0 -11 -2 -35q-7 -58 -40.5 -109.5t-88.5 -83t-123 -31.5h-144l-27 -224h-128l82 672h240q115 0 173 -51zM410 383.5q37 31.5 37 77.5q0 39 -28 61t-73 22h-128l-24 -192h128q51 0 88 31.5z" />
    <glyph glyph-name="Q" unicode="Q" horiz-adv-x="768" 
d="M543 0l-21 31q-88 -47 -181 -47q-88 0 -159.5 41t-112 111.5t-40.5 156.5q0 21 3 43q12 95 69 176t144 128.5t182 47.5q88 0 159.5 -41t112 -111.5t40.5 -156.5q0 -20 -3 -43q-8 -64 -37.5 -122.5t-75.5 -106.5l88 -107h-168zM451 131l-99 141h136l58 -71q30 34 47 76
t17 87q0 54 -25.5 99t-71 71t-101.5 26q-66 0 -124.5 -34.5t-94 -92.5t-35.5 -125q0 -54 25.5 -99t71 -71t101.5 -26q48 0 95 19z" />
    <glyph glyph-name="R" unicode="R" horiz-adv-x="608" 
d="M379 0l-124 224h-77l-27 -224h-128l82 672h240q115 0 173 -51t58 -138q0 -11 -2 -35q-9 -73 -57.5 -132.5t-123.5 -81.5l142 -234h-156zM194 352h128q51 0 88 31.5t37 77.5q0 39 -28 61t-73 22h-128z" />
    <glyph glyph-name="S" unicode="S" horiz-adv-x="608" 
d="M502 351q59 -38 59 -120q0 -9 -2 -31q-7 -61 -44 -110t-101.5 -77.5t-150.5 -28.5q-109 0 -169.5 38t-90.5 74l77 112q36 -47 91.5 -71.5t108.5 -24.5q69 0 110 24.5t41 63.5q0 31 -31.5 49t-94.5 27q-125 20 -179.5 63.5t-54.5 113.5q0 62 35 116t100 86.5t151 32.5
q46 0 104.5 -15.5t115.5 -66.5l-67 -110q-23 21 -65.5 42.5t-104.5 21.5q-60 0 -99 -19.5t-39 -62.5q0 -28 29 -43t98 -27q114 -19 173 -57z" />
    <glyph glyph-name="T" unicode="T" horiz-adv-x="544" 
d="M553 672l-15 -128h-176l-67 -544h-128l67 544h-176l15 128h480z" />
    <glyph glyph-name="U" unicode="U" horiz-adv-x="640" 
d="M633 672l-47 -384q-11 -89 -52 -158t-107 -107.5t-150 -38.5q-115 0 -177 67.5t-62 181.5q0 17 4 55l47 384h128l-49 -400q-2 -18 -2 -25q0 -61 35.5 -98t90.5 -37q40 0 75.5 20t59 56.5t29.5 83.5l49 400h128z" />
    <glyph glyph-name="V" unicode="V" horiz-adv-x="640" 
d="M41 672h144l121 -448l231 448h144l-354 -672h-96z" />
    <glyph glyph-name="W" unicode="W" horiz-adv-x="992" 
d="M666 224l215 448h144l-322 -672h-128l-69 416l-171 -416h-128l-158 672h144l105 -448l183 448h112z" />
    <glyph glyph-name="X" unicode="X" horiz-adv-x="688" 
d="M631 0h-160l-137 256l-199 -256h-160l281 352l-184 320h161l123 -236l181 236h161l-262 -320z" />
    <glyph glyph-name="Y" unicode="Y" horiz-adv-x="608" 
d="M649 672l-289 -400l-33 -272h-128l33 272l-191 400h152l119 -272l185 272h152z" />
    <glyph glyph-name="Z" unicode="Z" horiz-adv-x="608" 
d="M-9 0l387 544h-304l15 128h528l-387 -544h304l-15 -128h-528z" />
    <glyph glyph-name="bracketleft" unicode="[" horiz-adv-x="336" 
d="M141 -80h80l-16 -128h-208l128 1040h208l-16 -128h-80z" />
    <glyph glyph-name="backslash" unicode="\" horiz-adv-x="512" 
d="M99 752h96l218 -832h-96z" />
    <glyph glyph-name="bracketright" unicode="]" horiz-adv-x="336" 
d="M109 704l16 128h208l-128 -1040h-208l16 128h80l96 784h-80z" />
    <glyph glyph-name="asciicircum" unicode="^" horiz-adv-x="528" 
d="M263 704h92l139 -256h-96l-98 184l-142 -184h-96z" />
    <glyph glyph-name="underscore" unicode="_" horiz-adv-x="560" 
d="M-25 -128l12 96h496l-12 -96h-496z" />
    <glyph glyph-name="grave" unicode="`" horiz-adv-x="800" 
d="M457 736l-126 144h144l62 -144h-80z" />
    <glyph glyph-name="a" unicode="a" 
d="M407 0q-9 16 -9 52q-68 -68 -161 -68q-62 0 -112 30t-78 82.5t-28 116.5q0 11 2 35q9 72 50 132.5t102.5 96t128.5 35.5q92 0 143 -69l7 53h128l-49 -400q-4 -32 -4 -52q0 -28 8 -44h-128zM343 133q36 21 57.5 56t21.5 75q0 51 -34 85.5t-86 34.5q-39 0 -75 -21
t-57.5 -56t-21.5 -75q0 -51 34 -85.5t86 -34.5q39 0 75 21z" />
    <glyph glyph-name="b" unicode="b" 
d="M477.5 482q49.5 -30 77.5 -82.5t28 -116.5q0 -11 -2 -35q-9 -72 -49.5 -132.5t-102 -96t-128.5 -35.5q-91 0 -144 69l-6 -53h-128l86 704h128l-32 -261q69 69 161 69q62 0 111.5 -30zM375 133q36 21 57.5 56t21.5 75q0 51 -34 85.5t-86 34.5q-39 0 -75 -21t-57.5 -56
t-21.5 -75q0 -51 34 -85.5t86 -34.5q39 0 75 21z" />
    <glyph glyph-name="c" unicode="c" horiz-adv-x="512" 
d="M350 124q32 12 55 33l39 -114q-33 -28 -81.5 -43.5t-97.5 -15.5q-77 0 -132.5 29.5t-84.5 81t-29 116.5q0 25 2 37q9 73 50 133.5t108 95.5t151 35q49 0 91.5 -14.5t72.5 -44.5l-67 -115q-18 21 -47 33.5t-62 12.5q-49 0 -88 -21t-60.5 -56t-21.5 -76q0 -52 36 -85.5
t100 -33.5q34 0 66 12z" />
    <glyph glyph-name="d" unicode="d" 
d="M407 0q-9 16 -9 52q-68 -68 -161 -68q-62 0 -112 30t-78 82.5t-28 116.5q0 11 2 35q9 72 50 132.5t102.5 96t128.5 35.5q92 0 143 -69l32 261h128l-74 -608q-4 -32 -4 -52q0 -28 8 -44h-128zM343 133q36 21 57.5 56t21.5 75q0 51 -34 85.5t-86 34.5q-39 0 -75 -21
t-57.5 -56t-21.5 -75q0 -51 34 -85.5t86 -34.5q39 0 75 21z" />
    <glyph glyph-name="e" unicode="e" horiz-adv-x="560" 
d="M510 208h-361q8 -51 42 -81.5t92 -30.5q39 0 79.5 12t73.5 34l24 -111q0 -1 -27 -13.5t-70 -23t-96 -10.5q-125 0 -186.5 61.5t-61.5 161.5q0 27 2 41q9 75 45 134.5t98 94.5t146 35q103 0 157 -55t54 -156q0 -15 -4 -53q-1 -16 -7 -40zM388 304q3 22 -7 44t-33.5 37
t-59.5 15q-30 0 -58 -15t-45.5 -37.5t-20.5 -43.5h224z" />
    <glyph glyph-name="f" unicode="f" horiz-adv-x="384" 
d="M116 496q12 100 54.5 162t132.5 62q26 0 42 -3.5t36 -12.5l-14 -112q-28 6 -48 6q-30 0 -45 -12.5t-20.5 -32t-9.5 -57.5h112l-14 -112h-112l-47 -384h-128l47 384h-64l14 112h64z" />
    <glyph glyph-name="g" unicode="g" 
d="M580 496l-55 -448q-19 -156 -100 -238t-212 -82q-86 0 -145 28.5t-85 51.5l74 113q25 -24 70.5 -44.5t101.5 -20.5q65 0 110 43.5t53 110.5l5 43q-67 -69 -160 -69q-62 0 -112 30t-78 82.5t-28 116.5q0 11 2 35q9 72 50 132.5t102.5 96t128.5 35.5q92 0 143 -69l7 53h128
zM343 133q36 21 57.5 56t21.5 75q0 51 -34 85.5t-86 34.5q-39 0 -75 -21t-57.5 -56t-21.5 -75q0 -51 34 -85.5t86 -34.5q39 0 75 21z" />
    <glyph glyph-name="h" unicode="h" horiz-adv-x="576" 
d="M495 44q0 -28 8 -44h-128q-8 16 -8 44q0 20 4 52l21 176q2 22 2 29q0 43 -20.5 63t-63.5 20q-48 0 -84 -32.5t-44 -95.5l-31 -256h-128l86 704h128l-31 -256q31 32 68 48t90 16q76 0 118.5 -44t42.5 -130q0 -23 -3 -50l-23 -192q-4 -32 -4 -52z" />
    <glyph glyph-name="i" unicode="i" horiz-adv-x="256" 
d="M99.5 582q-22.5 22 -22.5 55q0 40 30 69.5t70 29.5q34 0 56 -22t22 -55q0 -40 -29.5 -69.5t-69.5 -29.5q-34 0 -56.5 22zM163 96q-4 -32 -4 -52q0 -28 8 -44h-128q-8 16 -8 44q0 20 4 52l49 400h128z" />
    <glyph glyph-name="j" unicode="j" horiz-adv-x="256" 
d="M99.5 582q-22.5 22 -22.5 55q0 40 30 69.5t70 29.5q34 0 56 -22t22 -55q0 -40 -29.5 -69.5t-69.5 -29.5q-34 0 -56.5 22zM84 496h128l-61 -496q-19 -151 -88.5 -211.5t-153.5 -60.5l-18 112q51 0 86 37.5t44 106.5z" />
    <glyph glyph-name="k" unicode="k" horiz-adv-x="560" 
d="M519 0h-160l-184 196l-24 -196h-128l86 704h128l-48 -396l215 188h160l-270 -240z" />
    <glyph glyph-name="l" unicode="l" horiz-adv-x="256" 
d="M159 44q0 -28 8 -44h-128q-8 16 -8 44q0 20 4 52l74 608h128l-74 -608q-4 -32 -4 -52z" />
    <glyph glyph-name="m" unicode="m" horiz-adv-x="848" 
d="M767 44q0 -28 8 -44h-128q-8 16 -8 44q0 20 4 52l21 176q3 21 3 39q0 38 -16 55.5t-53 17.5q-45 0 -74.5 -31.5t-37.5 -96.5l-19 -160q-4 -32 -4 -52q0 -28 8 -44h-128q-8 16 -8 44q0 20 4 52l21 176q3 20 3 35q0 40 -17 58.5t-52 18.5q-45 0 -74.5 -31.5t-37.5 -96.5
l-31 -256h-128l61 496h128l-6 -48q28 30 63 47t73 17q94 0 130 -67q34 33 71.5 50t86.5 17q78 0 122.5 -45t44.5 -132q0 -21 -3 -47l-23 -192q-4 -32 -4 -52z" />
    <glyph glyph-name="n" unicode="n" horiz-adv-x="576" 
d="M495 44q0 -28 8 -44h-128q-8 16 -8 44q0 20 4 52l21 176q2 22 2 29q0 43 -20.5 63t-63.5 20q-48 0 -84 -32.5t-44 -95.5l-31 -256h-128l61 496h128l-6 -48q31 32 68 48t90 16q76 0 118.5 -44t42.5 -130q0 -23 -3 -50l-23 -192q-4 -32 -4 -52z" />
    <glyph glyph-name="o" unicode="o" horiz-adv-x="592" 
d="M437.5 481.5q53.5 -30.5 83.5 -83.5t30 -117q0 -11 -2 -33q-9 -72 -51.5 -132.5t-107.5 -96t-137 -35.5q-66 0 -119.5 30.5t-84 83.5t-30.5 117q0 11 2 33q9 72 52 132.5t108 96t137 35.5q66 0 119.5 -30.5zM343 133q36 21 57.5 56t21.5 75q0 51 -34 85.5t-86 34.5
q-39 0 -75 -21t-57.5 -56t-21.5 -75q0 -51 34 -85.5t86 -34.5q39 0 75 21z" />
    <glyph glyph-name="p" unicode="p" 
d="M477.5 482q49.5 -30 77.5 -82.5t28 -116.5q0 -11 -2 -35q-9 -72 -49.5 -132.5t-102 -96t-128.5 -35.5q-91 0 -144 69l-38 -309h-128l93 752h128l-7 -53q69 69 161 69q62 0 111.5 -30zM375 133q36 21 57.5 56t21.5 75q0 51 -34 85.5t-86 34.5q-39 0 -75 -21t-57.5 -56
t-21.5 -75q0 -51 34 -85.5t86 -34.5q39 0 75 21z" />
    <glyph glyph-name="q" unicode="q" 
d="M495 -212q0 -28 8 -44h-128q-8 16 -8 44q0 20 4 52l26 213q-67 -69 -160 -69q-62 0 -112 30t-78 82.5t-28 116.5q0 11 2 35q9 72 50 132.5t102.5 96t128.5 35.5q92 0 143 -69l7 53h128l-81 -656q-4 -32 -4 -52zM343 133q36 21 57.5 56t21.5 75q0 51 -34 85.5t-86 34.5
q-39 0 -75 -21t-57.5 -56t-21.5 -75q0 -51 34 -85.5t86 -34.5q39 0 75 21z" />
    <glyph glyph-name="r" unicode="r" horiz-adv-x="432" 
d="M289 476.5q60 30.5 133 35.5l-19 -151q-22 6 -48 6q-25 0 -48 -6q-47 -13 -85 -52.5t-46 -100.5l-25 -208h-128l61 496h128l-13 -105q30 55 90 85.5z" />
    <glyph glyph-name="s" unicode="s" horiz-adv-x="512" 
d="M419.5 264q39.5 -35 39.5 -83q0 -56 -29.5 -101t-84 -70.5t-126.5 -25.5q-78 0 -137.5 24t-83.5 48l56 120q29 -31 78.5 -50.5t95.5 -19.5t73.5 11.5t27.5 35.5q0 14 -18 21.5t-65 15.5q-112 18 -154.5 52.5t-42.5 89.5q0 8 2 28q5 40 37 75t84 56t115 21q42 0 91 -11
t96 -37l-51 -116q-19 16 -64.5 29t-93.5 13q-39 0 -62.5 -8.5t-23.5 -24.5t20 -23.5t45.5 -11.5t34.5 -6q101 -17 140.5 -52z" />
    <glyph glyph-name="t" unicode="t" horiz-adv-x="368" 
d="M102 384h-64l14 112h64l21 176h128l-21 -176h96l-14 -112h-96l-26 -208q-1 -8 -1 -22q0 -27 10.5 -38t31.5 -11q16 0 47 7l-13 -112q-42 -16 -96 -16q-57 0 -85 32.5t-28 90.5q0 10 2 34z" />
    <glyph glyph-name="u" unicode="u" horiz-adv-x="576" 
d="M359 0q-10 18 -8 48q-31 -32 -68.5 -48t-91.5 -16q-77 0 -119.5 44.5t-42.5 131.5q0 23 3 48l36 288h128l-34 -272q-2 -20 -2 -28q0 -43 20.5 -63.5t63.5 -20.5q48 0 84 32.5t44 95.5l32 256h128l-49 -400q-4 -32 -4 -52q0 -28 8 -44h-128z" />
    <glyph glyph-name="v" unicode="v" horiz-adv-x="512" 
d="M20 496h144l74 -304l150 304h144l-269 -496h-96z" />
    <glyph glyph-name="w" unicode="w" horiz-adv-x="768" 
d="M780 496l-229 -496h-116l-59 272l-125 -272h-116l-107 496h144l48 -320l136 320h96l56 -320l128 320h144z" />
    <glyph glyph-name="x" unicode="x" horiz-adv-x="560" 
d="M503 0h-160l-85 160l-123 -160h-160l216 264l-139 232h160l70 -140l106 140h160l-197 -232z" />
    <glyph glyph-name="y" unicode="y" horiz-adv-x="528" 
d="M548 496l-413 -752h-144l164 292l-135 460h144l84 -292l156 292h144z" />
    <glyph glyph-name="z" unicode="z" horiz-adv-x="496" 
d="M-9 0l261 368h-200l16 128h416l-262 -368h200l-15 -128h-416z" />
    <glyph glyph-name="braceleft" unicode="{" horiz-adv-x="400" 
d="M227 -39q0 -33 17 -57t51 -32l-76 -96q-64 22 -93.5 59.5t-29.5 92.5q0 10 2 30l28 234q3 27 -9.5 50.5t-33 40t-39.5 21.5q34 9 69.5 41t40.5 71l29 234q8 66 48 111.5t118 70.5l52 -96q-41 -9 -64.5 -38.5t-28.5 -67.5l-22 -180q-7 -56 -31 -93.5t-62 -52.5
q59 -26 59 -113q0 -9 -2 -33l-22 -180q-1 -6 -1 -17z" />
    <glyph glyph-name="bar" unicode="|" horiz-adv-x="208" 
d="M-9 -256l126 1024h80l-126 -1024h-80z" />
    <glyph glyph-name="braceright" unicode="}" horiz-adv-x="400" 
d="M106 158q7 56 31 93.5t62 52.5q-28 13 -43.5 42t-15.5 72q0 10 2 32l22 180q1 6 1 17q0 33 -17 57t-51 32l76 96q65 -22 94.5 -60.5t29.5 -93.5q0 -8 -2 -28l-29 -234q-3 -27 9.5 -50.5t33 -40t39.5 -21.5q-34 -9 -69.5 -41t-40.5 -71l-28 -234q-8 -66 -48.5 -111.5
t-118.5 -70.5l-52 96q41 9 64.5 38t28.5 68z" />
    <glyph glyph-name="asciitilde" unicode="~" horiz-adv-x="560" 
d="M509 315q-34 -51 -69.5 -68.5t-80.5 -17.5q-21 0 -48 8.5t-49.5 17t-29.5 11.5q-30 12 -54 12q-22 0 -39 -11.5t-33 -37.5l-67 34q34 51 70 68.5t81 17.5q20 0 44.5 -8t62.5 -23q6 -2 10.5 -4t8.5 -3q30 -12 53 -12q44 0 74 50z" />
    <glyph glyph-name="exclamdown" unicode="&#xa1;" horiz-adv-x="288" 
d="M217 492q20 -20 20 -50q0 -37 -27.5 -63.5t-63.5 -26.5q-31 0 -51 19.5t-20 49.5q0 37 27 64t64 27q31 0 51 -20zM180 304l-27 -480h-144l91 480h80z" />
    <glyph glyph-name="cent" unicode="&#xa2;" horiz-adv-x="512" 
d="M444 43q-29 -25 -72 -40.5t-87 -17.5l-8 -65h-48l8 65q-104 8 -161 70t-57 156q0 24 2 37q9 69 46 127t97.5 94t136.5 42l8 65h48l-8 -65q44 -2 81.5 -16.5t63.5 -41.5l-67 -115q-18 21 -47 33.5t-62 12.5q-49 0 -88 -21t-60.5 -56t-21.5 -76q0 -52 36 -85.5t100 -33.5
q34 0 66 12t55 33z" />
    <glyph glyph-name="sterling" unicode="&#xa3;" horiz-adv-x="608" 
d="M547 98q-38 -60 -91 -87t-102 -27q-33 0 -49 4.5t-49 18.5q-57 23 -90 23q-40 0 -65 -30l-97 112q15 28 56 56q50 31 59 128h-92l10 80h72q-11 50 -11 89q0 11 2 31q6 50 40.5 94t93 71t131.5 27q67 0 117 -18t95 -62l-82 -112q-28 36 -62 50t-65 14q-56 0 -96 -19.5
t-45 -67.5q-2 -22 8 -76l3 -21h167l-10 -80h-149q-2 -43 -17.5 -85t-42.5 -66q8 1 22 1q22 0 41 -4.5t48 -14.5q43 -15 66 -15q25 0 50.5 14.5t54.5 49.5z" />
    <glyph glyph-name="currency" unicode="&#xa4;" horiz-adv-x="526" 
d="M380 239l76 -85l-53 -49l-77 85q-39 -22 -83 -22q-45 0 -80 24l-96 -87l-41 48l95 87q-13 29 -13 60q0 57 34 100l-75 88l54 47l75 -87q42 24 85 24q44 0 79 -24l93 87l44 -47l-97 -87q14 -28 14 -61q0 -58 -34 -101zM309 272.5q25 24.5 25 56.5q0 26 -18.5 44.5
t-45.5 18.5q-32 0 -57 -24.5t-25 -56.5q0 -26 18.5 -44.5t45.5 -18.5q32 0 57 24.5z" />
    <glyph glyph-name="yen" unicode="&#xa5;" horiz-adv-x="672" 
d="M392 272h112l-6 -48h-112l-8 -64h112l-6 -48h-112l-13 -112h-128l13 112h-112l6 48h112l8 64h-112l6 48h112l-191 400h152l119 -272l185 272h152z" />
    <glyph glyph-name="brokenbar" unicode="&#xa6;" horiz-adv-x="208" 
d="M74 416l43 352h80l-43 -352h-80zM-9 -256l44 352h80l-44 -352h-80z" />
    <glyph glyph-name="section" unicode="&#xa7;" horiz-adv-x="640" 
d="M526 166q32 -40 32 -97q0 -68 -35.5 -124t-103 -88.5t-160.5 -32.5q-109 0 -169.5 38t-90.5 74l78 112q35 -47 91 -71.5t109 -24.5q69 0 109.5 24t40.5 63q0 31 -31.5 49.5t-94.5 27.5q-123 19 -178 63t-55 112q0 45 17.5 85.5t51.5 73.5q-38 41 -38 98q0 62 34.5 116
t99.5 87t152 33q46 0 104.5 -15.5t115.5 -66.5l-68 -110q-20 20 -64 42t-106 22q-59 0 -98 -19.5t-39 -61.5q0 -29 28.5 -44t98.5 -27q114 -19 173 -57t59 -120q0 -9 -2 -31q-9 -77 -61 -130zM227 275q29 -15 98 -27q51 -8 87 -19q23 12 35 29.5t12 37.5q0 31 -31.5 49
t-95.5 27q-35 5 -77 16q-57 -21 -57 -70q0 -28 29 -43z" />
    <glyph glyph-name="dieresis" unicode="&#xa8;" horiz-adv-x="800" 
d="M312.5 752q-15.5 16 -15.5 40q0 30 21.5 51t50.5 21q25 0 40.5 -16t15.5 -40q0 -30 -21.5 -51t-50.5 -21q-25 0 -40.5 16zM504.5 752q-15.5 16 -15.5 40q0 30 21.5 51t50.5 21q25 0 40.5 -16t15.5 -40q0 -30 -21.5 -51t-50.5 -21q-25 0 -40.5 16z" />
    <glyph glyph-name="copyright" unicode="&#xa9;" horiz-adv-x="704" 
d="M188 171q-61 35 -95 95.5t-34 134.5q0 26 2 39q10 85 58.5 154.5t123 109.5t159.5 40q78 0 139.5 -34t95.5 -94.5t34 -135.5q0 -27 -2 -40q-10 -85 -59 -154.5t-123.5 -109.5t-159.5 -40q-78 0 -139 35zM463 225q61 33 101.5 90t48.5 125q2 22 2 31q0 61 -28.5 110.5
t-79 78t-112.5 28.5q-68 0 -129 -33t-101 -90t-48 -125q-2 -22 -2 -31q0 -61 28.5 -110.5t78.5 -78t112 -28.5q68 0 129 33zM447 371l16 -51q-21 -17 -48.5 -26.5t-52.5 -9.5q-39 0 -71.5 18t-51 49.5t-18.5 69.5q0 46 25 86.5t66.5 64.5t87.5 24q26 0 50.5 -9t42.5 -26
l-29 -52q-25 30 -70 30q-30 0 -57 -15t-43 -41t-16 -55q0 -37 26 -62t66 -25q44 0 77 30z" />
    <glyph glyph-name="ordfeminine" unicode="&#xaa;" horiz-adv-x="360" 
d="M353 672l-30 -248h-64l3 27q-35 -35 -80 -35q-47 0 -78 33t-31 82q0 40 20 74t52.5 54.5t68.5 20.5q47 0 72 -34l3 26h64zM252 503q23 23 23 54q0 25 -17.5 42t-43.5 17q-30 0 -53.5 -23t-23.5 -54q0 -25 17.5 -42t43.5 -17q31 0 54 23z" />
    <glyph glyph-name="guillemotleft" unicode="&#xab;" horiz-adv-x="640" 
d="M152 272l133 -224h-112l-133 224l188 224h112zM392 272l133 -224h-112l-133 224l188 224h112z" />
    <glyph glyph-name="logicalnot" unicode="&#xac;" 
d="M548 112h-80l19 152h-448l10 80h528z" />
    <glyph glyph-name="registered" unicode="&#xae;" horiz-adv-x="704" 
d="M188 171q-61 35 -95 95.5t-34 134.5q0 26 2 39q10 85 58.5 154.5t123 109.5t159.5 40q78 0 139.5 -34t95.5 -94.5t34 -135.5q0 -27 -2 -40q-10 -85 -59 -154.5t-123.5 -109.5t-159.5 -40q-78 0 -139 35zM463 225q61 33 101.5 90t48.5 125q2 22 2 31q0 61 -28.5 110.5
t-79 78t-112.5 28.5q-68 0 -129 -33t-101 -90t-48 -125q-2 -22 -2 -31q0 -61 28.5 -110.5t78.5 -78t112 -28.5q68 0 129 33zM401 290l-55 100h-34l-13 -100h-57l37 300h107q51 0 77 -23t26 -62q0 -37 -22 -68t-60 -43l63 -104h-69zM319 447h57q23 0 39 14t16 34
q0 18 -12.5 28t-32.5 10h-57z" />
    <glyph glyph-name="macron" unicode="&#xaf;" horiz-adv-x="800" 
d="M307 752l8 64h288l-8 -64h-288z" />
    <glyph glyph-name="degree" unicode="&#xb0;" horiz-adv-x="400" 
d="M110.5 422q-38.5 38 -38.5 94q0 46 23.5 85.5t63.5 63t85 23.5q58 0 96 -38.5t38 -95.5q0 -45 -24 -84.5t-63.5 -62.5t-83.5 -23q-58 0 -96.5 38zM272 488q25 24 25 55q0 27 -18.5 46t-45.5 19q-32 0 -56.5 -24.5t-24.5 -56.5q0 -26 18.5 -44.5t45.5 -18.5q31 0 56 24z
" />
    <glyph glyph-name="plusminus" unicode="&#xb1;" horiz-adv-x="496" 
d="M454 384h-160l-20 -160h-80l20 160h-160l10 80h160l19 160h80l-19 -160h160zM421 120l-9 -80h-400l9 80h400z" />
    <glyph glyph-name="uni00B2" unicode="&#xb2;" horiz-adv-x="360" 
d="M138.5 726q36.5 34 89.5 34q48 0 77.5 -25t29.5 -70q0 -11 -1 -17q-4 -38 -32.5 -73.5t-91.5 -94.5h120l-8 -64h-264l154 144q59 58 59 92q0 21 -13.5 32.5t-37.5 11.5q-26 0 -42 -17.5t-22 -46.5l-63 8q9 52 45.5 86z" />
    <glyph glyph-name="uni00B3" unicode="&#xb3;" horiz-adv-x="352" 
d="M318.5 565.5q11.5 -21.5 8.5 -45.5q-6 -45 -41 -78.5t-101 -33.5q-57 0 -87 30t-27 82l65 8q1 -27 14.5 -41.5t45.5 -14.5q24 0 45 13t21 36q0 41 -82 41l6 52q86 6 86 47q0 16 -13.5 25.5t-35.5 9.5q-52 0 -65 -52l-63 8q11 48 47.5 78t85.5 30q54 0 81.5 -26.5
t27.5 -60.5q0 -52 -48 -79q18 -7 29.5 -28.5z" />
    <glyph glyph-name="acute" unicode="&#xb4;" horiz-adv-x="800" 
d="M459 880h144l-162 -144h-80z" />
    <glyph glyph-name="paragraph" unicode="&#xb6;" horiz-adv-x="704" 
d="M589 576l-98 -804h-96l98 804h-160l-98 -804h-96l69 566q-63 0 -102 41t-39 103q0 50 24.5 93.5t66.5 70t91 26.5h448l-12 -96h-96z" />
    <glyph glyph-name="periodcentered" unicode="&#xb7;" horiz-adv-x="256" 
d="M67 275.5q-20 19.5 -20 49.5q0 37 27 64t64 27q31 0 51 -19.5t20 -49.5q0 -37 -27 -64t-64 -27q-31 0 -51 19.5z" />
    <glyph glyph-name="cedilla" unicode="&#xb8;" horiz-adv-x="800" 
d="M415 0l-53 -48q6 1 16 1q47 0 78.5 -27t31.5 -72q0 -9 -1 -14q-5 -40 -30 -73t-64 -52t-84 -19q-84 0 -120 63l62 61q6 -23 22.5 -37.5t43.5 -14.5q48 0 75.5 25t27.5 56q0 25 -20 40t-49 15q-38 0 -64 -16l-28 48l72 64h84z" />
    <glyph glyph-name="uni00B9" unicode="&#xb9;" horiz-adv-x="336" 
d="M277 768l-42 -344h-64l32 266l-65 -14l7 60z" />
    <glyph glyph-name="ordmasculine" unicode="&#xba;" horiz-adv-x="360" 
d="M305.5 647q33.5 -33 33.5 -83q0 -39 -21 -73t-55.5 -54.5t-72.5 -20.5q-50 0 -83.5 33t-33.5 83q0 39 21 73t55.5 54.5t72.5 20.5q50 0 83.5 -33zM252 503q23 23 23 54q0 25 -17.5 42t-43.5 17q-30 0 -53.5 -23t-23.5 -54q0 -25 17.5 -42t43.5 -17q31 0 54 23z" />
    <glyph glyph-name="guillemotright" unicode="&#xbb;" horiz-adv-x="640" 
d="M212 496l132 -224l-187 -224h-112l187 224l-132 224h112zM452 496l132 -224l-187 -224h-112l187 224l-132 224h112z" />
    <glyph glyph-name="onequarter" unicode="&#xbc;" horiz-adv-x="900" 
d="M266 680l-42 -344h-64l33 266l-66 -14l7 60zM127 0l550 672h80l-550 -672h-80zM826 128l-7 -64h-40l-8 -64h-64l8 64h-168l6 56l179 216h80l-26 -208h40zM739 260l-106 -132h89z" />
    <glyph glyph-name="onehalf" unicode="&#xbd;" horiz-adv-x="908" 
d="M266 680l-42 -344h-64l33 266l-66 -14l7 60zM127 0l550 672h80l-550 -672h-80zM635.5 310q36.5 34 89.5 34q48 0 77.5 -25t29.5 -70q0 -44 -28.5 -82.5t-96.5 -102.5h120l-8 -64h-264l153 144q60 57 60 92q0 21 -13.5 32.5t-37.5 11.5q-26 0 -42 -17.5t-22 -46.5l-63 8
q9 52 45.5 86z" />
    <glyph glyph-name="threequarters" unicode="&#xbe;" horiz-adv-x="916" 
d="M306.5 489.5q11.5 -18.5 11.5 -40.5q0 -28 -15.5 -56t-47.5 -46.5t-80 -18.5q-57 0 -87 30t-27 82l65 8q1 -27 14.5 -41.5t45.5 -14.5q24 0 45 13t21 36q0 41 -82 41l6 52q86 6 86 47q0 16 -13.5 25.5t-35.5 9.5q-52 0 -65 -52l-63 8q11 48 47.5 78t85.5 30q53 0 81 -26
t28 -60l-1 -10q-5 -47 -47 -70q16 -6 27.5 -24.5zM143 0l550 672h80l-550 -672h-80zM842 128l-7 -64h-40l-8 -64h-64l8 64h-168l6 56l179 216h80l-26 -208h40zM755 260l-106 -132h89z" />
    <glyph glyph-name="questiondown" unicode="&#xbf;" horiz-adv-x="528" 
d="M223 371.5q-20 19.5 -20 49.5q0 37 27 64t64 27q31 0 51 -20t20 -50q0 -37 -27.5 -63.5t-63.5 -26.5q-31 0 -51 19.5zM93 -167.5q-45 24.5 -66 63t-21 82.5q0 15 1 22q7 56 33.5 98.5t84.5 83.5q34 24 57.5 52t29.5 70h112q-6 -101 -67 -157l-40 -32q-42 -32 -62 -56
t-20 -57q0 -35 25 -50.5t62 -15.5q44 0 83.5 19t70.5 53l51 -104q-103 -96 -220 -96q-69 0 -114 24.5z" />
    <glyph glyph-name="Agrave" unicode="&#xc0;" horiz-adv-x="672" 
d="M369 736l-126 144h144l62 -144h-80zM452 128h-284l-65 -128h-144l360 672h116l196 -672h-144zM419 256l-63 240l-123 -240h186z" />
    <glyph glyph-name="Aacute" unicode="&#xc1;" horiz-adv-x="672" 
d="M419 880h144l-162 -144h-80zM452 128h-284l-65 -128h-144l360 672h116l196 -672h-144zM419 256l-63 240l-123 -240h186z" />
    <glyph glyph-name="Acircumflex" unicode="&#xc2;" horiz-adv-x="672" 
d="M394 809l-65 -73h-112l157 144h57l122 -144h-112zM452 128h-284l-65 -128h-144l360 672h116l196 -672h-144zM419 256l-63 240l-123 -240h186z" />
    <glyph glyph-name="Atilde" unicode="&#xc3;" horiz-adv-x="672" 
d="M587 816q-28 -45 -60 -62.5t-68 -17.5q-20 0 -36.5 5t-39.5 14q-41 17 -63 17q-35 0 -59 -36l-65 25q51 79 130 79q19 0 34 -4t38 -14q39 -17 64 -17q36 0 60 36zM452 128h-284l-65 -128h-144l360 672h116l196 -672h-144zM419 256l-63 240l-123 -240h186z" />
    <glyph glyph-name="Adieresis" unicode="&#xc4;" horiz-adv-x="672" 
d="M248.5 752q-15.5 16 -15.5 40q0 30 21.5 51t50.5 21q25 0 40.5 -16t15.5 -40q0 -30 -21.5 -51t-50.5 -21q-25 0 -40.5 16zM440.5 752q-15.5 16 -15.5 40q0 30 21.5 51t50.5 21q25 0 40.5 -16t15.5 -40q0 -30 -21.5 -51t-50.5 -21q-25 0 -40.5 16zM452 128h-284l-65 -128
h-144l360 672h116l196 -672h-144zM419 256l-63 240l-123 -240h186z" />
    <glyph glyph-name="Aring" unicode="&#xc5;" horiz-adv-x="672" 
d="M487 914q30 -30 30 -75q0 -36 -19 -67t-50.5 -49.5t-66.5 -18.5q-45 0 -75.5 30.5t-30.5 74.5q0 36 19 67t50.5 49.5t66.5 18.5q46 0 76 -30zM433 787q19 19 19 44q0 21 -13.5 35t-35.5 14q-25 0 -44 -19t-19 -44q0 -21 13.5 -35t35.5 -14q25 0 44 19zM452 128h-284
l-65 -128h-144l360 672h116l196 -672h-144zM419 256l-63 240l-123 -240h186z" />
    <glyph glyph-name="AE" unicode="&#xc6;" horiz-adv-x="832" 
d="M522 544l-18 -144h240l-16 -128h-240l-18 -144h288l-15 -128h-416l15 128h-166l-73 -128h-144l394 672h472l-15 -128h-288zM358 256l29 236l-136 -236h107z" />
    <glyph glyph-name="Ccedilla" unicode="&#xc7;" horiz-adv-x="640" 
d="M487 13q-49 -20 -99 -26l-38 -35q6 1 16 1q47 0 78.5 -27t31.5 -72q0 -9 -1 -14q-5 -40 -30 -73t-64 -52t-84 -19q-84 0 -120 63l62 61q6 -23 22.5 -37.5t43.5 -14.5q48 0 75.5 25t27.5 56q0 25 -20 40t-49 15q-38 0 -64 -16l-28 48l57 51q-79 9 -141.5 51.5t-98 109.5
t-35.5 146q0 21 3 42q12 95 70 176t146 128.5t185 47.5q58 0 115 -21t93 -59l-63 -116q-29 32 -69.5 50t-88.5 18q-68 0 -128.5 -34.5t-97 -92.5t-36.5 -124q0 -55 26.5 -100t74 -71t105.5 -26q49 0 94.5 18t81.5 51l35 -116q-39 -32 -88 -52z" />
    <glyph glyph-name="Egrave" unicode="&#xc8;" horiz-adv-x="528" 
d="M329 736l-126 144h144l62 -144h-80zM218 544l-18 -144h240l-16 -128h-240l-18 -144h288l-15 -128h-416l82 672h416l-15 -128h-288z" />
    <glyph glyph-name="Eacute" unicode="&#xc9;" horiz-adv-x="528" 
d="M331 880h144l-162 -144h-80zM218 544l-18 -144h240l-16 -128h-240l-18 -144h288l-15 -128h-416l82 672h416l-15 -128h-288z" />
    <glyph glyph-name="Ecircumflex" unicode="&#xca;" horiz-adv-x="528" 
d="M322 809l-65 -73h-112l157 144h57l122 -144h-112zM218 544l-18 -144h240l-16 -128h-240l-18 -144h288l-15 -128h-416l82 672h416l-15 -128h-288z" />
    <glyph glyph-name="Edieresis" unicode="&#xcb;" horiz-adv-x="528" 
d="M176.5 752q-15.5 16 -15.5 40q0 30 21.5 51t50.5 21q25 0 40.5 -16t15.5 -40q0 -30 -21.5 -51t-50.5 -21q-25 0 -40.5 16zM368.5 752q-15.5 16 -15.5 40q0 30 21.5 51t50.5 21q25 0 40.5 -16t15.5 -40q0 -30 -21.5 -51t-50.5 -21q-25 0 -40.5 16zM218 544l-18 -144h240
l-16 -128h-240l-18 -144h288l-15 -128h-416l82 672h416l-15 -128h-288z" />
    <glyph glyph-name="Igrave" unicode="&#xcc;" horiz-adv-x="256" 
d="M161 736l-126 144h144l62 -144h-80zM105 672h128l-82 -672h-128z" />
    <glyph glyph-name="Iacute" unicode="&#xcd;" horiz-adv-x="256" 
d="M211 880h144l-162 -144h-80zM23 0l82 672h128l-82 -672h-128z" />
    <glyph glyph-name="Icircumflex" unicode="&#xce;" horiz-adv-x="256" 
d="M186 809l-65 -73h-112l157 144h57l122 -144h-112zM23 0l82 672h128l-82 -672h-128z" />
    <glyph glyph-name="Idieresis" unicode="&#xcf;" horiz-adv-x="256" 
d="M40.5 752q-15.5 16 -15.5 40q0 30 21.5 51t50.5 21q25 0 40.5 -16t15.5 -40q0 -30 -21.5 -51t-50.5 -21q-25 0 -40.5 16zM232.5 752q-15.5 16 -15.5 40q0 30 21.5 51t50.5 21q25 0 40.5 -16t15.5 -40q0 -30 -21.5 -51t-50.5 -21q-25 0 -40.5 16zM23 0l82 672h128
l-82 -672h-128z" />
    <glyph glyph-name="Eth" unicode="&#xd0;" horiz-adv-x="688" 
d="M517 635q71 -37 106.5 -101.5t35.5 -147.5q0 -24 -3 -50q-12 -94 -63 -170.5t-136.5 -121t-194.5 -44.5h-223l36 296h-64l10 80h64l36 296h223q102 0 173 -37zM416.5 160.5q52.5 32.5 83 87t30.5 117.5q0 51 -21.5 91.5t-62 64t-94.5 23.5h-118l-21 -168h64l-10 -80h-64
l-21 -168h118q64 0 116.5 32.5z" />
    <glyph glyph-name="Ntilde" unicode="&#xd1;" horiz-adv-x="720" 
d="M611 816q-28 -45 -60 -62.5t-68 -17.5q-20 0 -36.5 5t-39.5 14q-41 17 -63 17q-35 0 -59 -36l-65 25q51 79 130 79q19 0 34 -4t38 -14q39 -17 64 -17q36 0 60 36zM697 672l-82 -672h-128l-279 464l-57 -464h-128l82 672h128l279 -464l57 464h128z" />
    <glyph glyph-name="Ograve" unicode="&#xd2;" horiz-adv-x="768" 
d="M417 736l-126 144h144l62 -144h-80zM586.5 647q71.5 -41 112 -111.5t40.5 -156.5q0 -20 -3 -43q-12 -95 -69 -176t-144 -128.5t-182 -47.5q-88 0 -159.5 41t-112 111.5t-40.5 156.5q0 21 3 43q12 95 69 176t144 128.5t182 47.5q88 0 159.5 -41zM480.5 146.5
q58.5 34.5 94 92.5t35.5 125q0 54 -25.5 99t-71 71t-101.5 26q-66 0 -124.5 -34.5t-94 -92.5t-35.5 -125q0 -54 25.5 -99t71 -71t101.5 -26q66 0 124.5 34.5z" />
    <glyph glyph-name="Oacute" unicode="&#xd3;" horiz-adv-x="768" 
d="M467 880h144l-162 -144h-80zM586.5 647q71.5 -41 112 -111.5t40.5 -156.5q0 -20 -3 -43q-12 -95 -69 -176t-144 -128.5t-182 -47.5q-88 0 -159.5 41t-112 111.5t-40.5 156.5q0 21 3 43q12 95 69 176t144 128.5t182 47.5q88 0 159.5 -41zM480.5 146.5q58.5 34.5 94 92.5
t35.5 125q0 54 -25.5 99t-71 71t-101.5 26q-66 0 -124.5 -34.5t-94 -92.5t-35.5 -125q0 -54 25.5 -99t71 -71t101.5 -26q66 0 124.5 34.5z" />
    <glyph glyph-name="Ocircumflex" unicode="&#xd4;" horiz-adv-x="768" 
d="M442 809l-65 -73h-112l157 144h57l122 -144h-112zM586.5 647q71.5 -41 112 -111.5t40.5 -156.5q0 -20 -3 -43q-12 -95 -69 -176t-144 -128.5t-182 -47.5q-88 0 -159.5 41t-112 111.5t-40.5 156.5q0 21 3 43q12 95 69 176t144 128.5t182 47.5q88 0 159.5 -41zM480.5 146.5
q58.5 34.5 94 92.5t35.5 125q0 54 -25.5 99t-71 71t-101.5 26q-66 0 -124.5 -34.5t-94 -92.5t-35.5 -125q0 -54 25.5 -99t71 -71t101.5 -26q66 0 124.5 34.5z" />
    <glyph glyph-name="Otilde" unicode="&#xd5;" horiz-adv-x="768" 
d="M635 816q-28 -45 -60 -62.5t-68 -17.5q-20 0 -36.5 5t-39.5 14q-41 17 -63 17q-35 0 -59 -36l-65 25q51 79 130 79q20 0 34.5 -4t37.5 -14q39 -17 64 -17q36 0 60 36zM586.5 647q71.5 -41 112 -111.5t40.5 -156.5q0 -20 -3 -43q-12 -95 -69 -176t-144 -128.5t-182 -47.5
q-88 0 -159.5 41t-112 111.5t-40.5 156.5q0 21 3 43q12 95 69 176t144 128.5t182 47.5q88 0 159.5 -41zM480.5 146.5q58.5 34.5 94 92.5t35.5 125q0 54 -25.5 99t-71 71t-101.5 26q-66 0 -124.5 -34.5t-94 -92.5t-35.5 -125q0 -54 25.5 -99t71 -71t101.5 -26
q66 0 124.5 34.5z" />
    <glyph glyph-name="Odieresis" unicode="&#xd6;" horiz-adv-x="768" 
d="M296.5 752q-15.5 16 -15.5 40q0 30 21.5 51t50.5 21q25 0 40.5 -16t15.5 -40q0 -30 -21.5 -51t-50.5 -21q-25 0 -40.5 16zM488.5 752q-15.5 16 -15.5 40q0 30 21.5 51t50.5 21q25 0 40.5 -16t15.5 -40q0 -30 -21.5 -51t-50.5 -21q-25 0 -40.5 16zM586.5 647
q71.5 -41 112 -111.5t40.5 -156.5q0 -20 -3 -43q-12 -95 -69 -176t-144 -128.5t-182 -47.5q-88 0 -159.5 41t-112 111.5t-40.5 156.5q0 21 3 43q12 95 69 176t144 128.5t182 47.5q88 0 159.5 -41zM480.5 146.5q58.5 34.5 94 92.5t35.5 125q0 54 -25.5 99t-71 71t-101.5 26
q-66 0 -124.5 -34.5t-94 -92.5t-35.5 -125q0 -54 25.5 -99t71 -71t101.5 -26q66 0 124.5 34.5z" />
    <glyph glyph-name="multiply" unicode="&#xd7;" horiz-adv-x="456" 
d="M419 427l-138 -123l108 -123l-64 -57l-108 123l-138 -123l-50 57l138 123l-108 123l64 57l108 -123l138 123z" />
    <glyph glyph-name="Oslash" unicode="&#xd8;" horiz-adv-x="768" 
d="M719 492.5q20 -53.5 20 -113.5q0 -20 -3 -43q-12 -95 -69 -176t-144 -128.5t-182 -47.5q-116 0 -202 70l-52 -54h-64l83 85q-37 41 -57 94.5t-20 113.5q0 21 3 43q12 95 69 176t144 128.5t182 47.5q116 0 202 -70l52 54h64l-83 -85q37 -41 57 -94.5zM202 183l332 338
q-51 39 -122 39q-66 0 -124.5 -34.5t-94 -92.5t-35.5 -124q0 -73 44 -126zM480.5 146.5q58.5 34.5 94 92.5t35.5 124q0 73 -44 126l-332 -338q51 -39 122 -39q66 0 124.5 34.5z" />
    <glyph glyph-name="Ugrave" unicode="&#xd9;" horiz-adv-x="640" 
d="M361 736l-126 144h144l62 -144h-80zM633 672l-47 -384q-11 -89 -52 -158t-107 -107.5t-150 -38.5q-115 0 -177 67.5t-62 181.5q0 17 4 55l47 384h128l-49 -400q-2 -18 -2 -25q0 -61 35.5 -98t90.5 -37q40 0 75.5 20t59 56.5t29.5 83.5l49 400h128z" />
    <glyph glyph-name="Uacute" unicode="&#xda;" horiz-adv-x="640" 
d="M395 880h144l-162 -144h-80zM633 672l-47 -384q-11 -89 -52 -158t-107 -107.5t-150 -38.5q-115 0 -177 67.5t-62 181.5q0 17 4 55l47 384h128l-49 -400q-2 -18 -2 -25q0 -61 35.5 -98t90.5 -37q40 0 75.5 20t59 56.5t29.5 83.5l49 400h128z" />
    <glyph glyph-name="Ucircumflex" unicode="&#xdb;" horiz-adv-x="640" 
d="M378 809l-65 -73h-112l157 144h57l122 -144h-112zM633 672l-47 -384q-11 -89 -52 -158t-107 -107.5t-150 -38.5q-115 0 -177 67.5t-62 181.5q0 17 4 55l47 384h128l-49 -400q-2 -18 -2 -25q0 -61 35.5 -98t90.5 -37q40 0 75.5 20t59 56.5t29.5 83.5l49 400h128z" />
    <glyph glyph-name="Udieresis" unicode="&#xdc;" horiz-adv-x="640" 
d="M232.5 752q-15.5 16 -15.5 40q0 30 21.5 51t50.5 21q25 0 40.5 -16t15.5 -40q0 -30 -21.5 -51t-50.5 -21q-25 0 -40.5 16zM424.5 752q-15.5 16 -15.5 40q0 30 21.5 51t50.5 21q25 0 40.5 -16t15.5 -40q0 -30 -21.5 -51t-50.5 -21q-25 0 -40.5 16zM633 672l-47 -384
q-11 -89 -52 -158t-107 -107.5t-150 -38.5q-115 0 -177 67.5t-62 181.5q0 17 4 55l47 384h128l-49 -400q-2 -18 -2 -25q0 -61 35.5 -98t90.5 -37q40 0 75.5 20t59 56.5t29.5 83.5l49 400h128z" />
    <glyph glyph-name="Yacute" unicode="&#xdd;" horiz-adv-x="608" 
d="M387 880h144l-162 -144h-80zM649 672l-289 -400l-33 -272h-128l33 272l-191 400h152l119 -272l185 272h152z" />
    <glyph glyph-name="Thorn" unicode="&#xde;" horiz-adv-x="592" 
d="M506 525q58 -51 58 -138q0 -11 -2 -35q-7 -58 -40.5 -109.5t-88.5 -83t-123 -31.5h-144l-15 -128h-128l86 704h128l-16 -128h112q115 0 173 -51zM398 287.5q37 31.5 37 78.5q0 39 -28 60.5t-73 21.5h-128l-24 -192h128q51 0 88 31.5z" />
    <glyph glyph-name="germandbls" unicode="&#xdf;" horiz-adv-x="576" 
d="M198 512q5 40 33.5 68t73.5 28q41 0 64.5 -18t23.5 -51q0 -32 -20.5 -60.5t-60 -45.5t-94.5 -17l-12 -96q92 0 143.5 -23.5t51.5 -77.5q0 -10 -1 -15q-7 -55 -47.5 -78.5t-94.5 -23.5q-50 0 -77 12l-14 -114q37 -16 94 -16q77 0 135 31t91.5 82t40.5 111q1 8 1 22
q0 59 -34.5 103.5t-88.5 50.5q39 15 73 53t41 91q2 18 2 27q0 71 -48 118t-154 47q-67 0 -151 -42t-101 -182l-61 -496h128z" />
    <glyph glyph-name="agrave" unicode="&#xe0;" 
d="M396 560l-127 144h144l63 -144h-80zM407 0q-9 16 -9 52q-68 -68 -161 -68q-62 0 -112 30t-78 82.5t-28 116.5q0 11 2 35q9 72 50 132.5t102.5 96t128.5 35.5q92 0 143 -69l7 53h128l-49 -400q-4 -32 -4 -52q0 -28 8 -44h-128zM343 133q36 21 57.5 56t21.5 75
q0 51 -34 85.5t-86 34.5q-39 0 -75 -21t-57.5 -56t-21.5 -75q0 -51 34 -85.5t86 -34.5q39 0 75 21z" />
    <glyph glyph-name="aacute" unicode="&#xe1;" 
d="M397 704h144l-161 -144h-80zM407 0q-9 16 -9 52q-68 -68 -161 -68q-62 0 -112 30t-78 82.5t-28 116.5q0 11 2 35q9 72 50 132.5t102.5 96t128.5 35.5q92 0 143 -69l7 53h128l-49 -400q-4 -32 -4 -52q0 -28 8 -44h-128zM343 133q36 21 57.5 56t21.5 75q0 51 -34 85.5
t-86 34.5q-39 0 -75 -21t-57.5 -56t-21.5 -75q0 -51 34 -85.5t86 -34.5q39 0 75 21z" />
    <glyph glyph-name="acircumflex" unicode="&#xe2;" 
d="M364 633l-64 -73h-112l156 144h57l123 -144h-112zM407 0q-9 16 -9 52q-68 -68 -161 -68q-62 0 -112 30t-78 82.5t-28 116.5q0 11 2 35q9 72 50 132.5t102.5 96t128.5 35.5q92 0 143 -69l7 53h128l-49 -400q-4 -32 -4 -52q0 -28 8 -44h-128zM343 133q36 21 57.5 56
t21.5 75q0 51 -34 85.5t-86 34.5q-39 0 -75 -21t-57.5 -56t-21.5 -75q0 -51 34 -85.5t86 -34.5q39 0 75 21z" />
    <glyph glyph-name="atilde" unicode="&#xe3;" 
d="M557 640q-28 -45 -59.5 -62.5t-67.5 -17.5q-20 0 -36.5 5t-39.5 14q-41 17 -64 17q-34 0 -58 -36l-65 25q49 79 129 79q19 0 34 -4t38 -14q39 -17 65 -17q35 0 59 36zM407 0q-9 16 -9 52q-68 -68 -161 -68q-62 0 -112 30t-78 82.5t-28 116.5q0 11 2 35q9 72 50 132.5
t102.5 96t128.5 35.5q92 0 143 -69l7 53h128l-49 -400q-4 -32 -4 -52q0 -28 8 -44h-128zM343 133q36 21 57.5 56t21.5 75q0 51 -34 85.5t-86 34.5q-39 0 -75 -21t-57.5 -56t-21.5 -75q0 -51 34 -85.5t86 -34.5q39 0 75 21z" />
    <glyph glyph-name="adieresis" unicode="&#xe4;" 
d="M219 576q-16 16 -16 41q0 29 21.5 50t50.5 21q25 0 41 -15.5t16 -39.5q0 -30 -21.5 -51.5t-50.5 -21.5q-25 0 -41 16zM411 576q-16 16 -16 41q0 29 21.5 50t50.5 21q25 0 41 -15.5t16 -39.5q0 -30 -21.5 -51.5t-50.5 -21.5q-25 0 -41 16zM407 0q-9 16 -9 52
q-68 -68 -161 -68q-62 0 -112 30t-78 82.5t-28 116.5q0 11 2 35q9 72 50 132.5t102.5 96t128.5 35.5q92 0 143 -69l7 53h128l-49 -400q-4 -32 -4 -52q0 -28 8 -44h-128zM343 133q36 21 57.5 56t21.5 75q0 51 -34 85.5t-86 34.5q-39 0 -75 -21t-57.5 -56t-21.5 -75
q0 -51 34 -85.5t86 -34.5q39 0 75 21z" />
    <glyph glyph-name="aring" unicode="&#xe5;" 
d="M465 738q30 -30 30 -75q0 -36 -19 -67t-50 -49.5t-66 -18.5q-46 0 -76.5 30.5t-30.5 75.5q0 35 19 66t50.5 49.5t66.5 18.5q46 0 76 -30zM411 611q19 19 19 44q0 21 -13.5 35t-35.5 14q-25 0 -44 -18.5t-19 -43.5q0 -21 14 -35.5t35 -14.5q25 0 44 19zM407 0q-9 16 -9 52
q-68 -68 -161 -68q-62 0 -112 30t-78 82.5t-28 116.5q0 11 2 35q9 72 50 132.5t102.5 96t128.5 35.5q92 0 143 -69l7 53h128l-49 -400q-4 -32 -4 -52q0 -28 8 -44h-128zM343 133q36 21 57.5 56t21.5 75q0 51 -34 85.5t-86 34.5q-39 0 -75 -21t-57.5 -56t-21.5 -75
q0 -51 34 -85.5t86 -34.5q39 0 75 21z" />
    <glyph glyph-name="ae" unicode="&#xe6;" horiz-adv-x="896" 
d="M846 208h-361q8 -51 42 -81.5t92 -30.5q39 0 79.5 12t73.5 34l24 -111q0 -1 -27 -13.5t-70 -23t-96 -10.5q-87 0 -146 32l-2 -16h-128l4 32q-30 -22 -72.5 -35t-87.5 -13q-75 0 -118.5 42t-43.5 106q0 15 1 23q9 94 104 140q51 24 137 24q49 0 112 -9q1 5 1 13
q0 39 -27 59.5t-72 20.5q-37 0 -72 -10t-60 -22.5t-25 -13.5l-33 93q0 2 33 18t80 30t98 14q128 0 175 -61q75 61 185 61q103 0 157 -55t54 -156q0 -15 -4 -53q-1 -16 -7 -40zM724 304q3 22 -7 44t-33.5 37t-59.5 15q-30 0 -58 -15t-45.5 -37.5t-20.5 -43.5h224zM354 224
l-39 4q-27 3 -49 3q-66 0 -97 -20t-35 -51q-3 -29 20.5 -46.5t65.5 -17.5q41 0 82 20t45 45z" />
    <glyph glyph-name="ccedilla" unicode="&#xe7;" horiz-adv-x="512" 
d="M375.5 3.5q-40.5 -14.5 -85.5 -18.5l-36 -33q6 1 16 1q47 0 78.5 -27t31.5 -72q0 -9 -1 -14q-5 -40 -30 -73t-64 -52t-84 -19q-84 0 -120 63l62 61q6 -23 22.5 -37.5t43.5 -14.5q48 0 75.5 25t27.5 56q0 25 -20 40t-49 15q-38 0 -64 -16l-28 48l58 52q-91 15 -140.5 75.5
t-49.5 147.5q0 24 2 37q9 73 50 133.5t108 95.5t151 35q49 0 91.5 -14.5t72.5 -44.5l-67 -115q-18 21 -47 33.5t-62 12.5q-49 0 -88 -21t-60.5 -56t-21.5 -76q0 -52 36 -85.5t100 -33.5q34 0 66 12t55 33l39 -114q-28 -25 -68.5 -39.5z" />
    <glyph glyph-name="egrave" unicode="&#xe8;" horiz-adv-x="560" 
d="M316 560l-127 144h144l63 -144h-80zM510 208h-361q8 -51 42 -81.5t92 -30.5q39 0 79.5 12t73.5 34l24 -111q0 -1 -27 -13.5t-70 -23t-96 -10.5q-125 0 -186.5 61.5t-61.5 161.5q0 27 2 41q9 75 45 134.5t98 94.5t146 35q103 0 157 -55t54 -156q0 -15 -4 -53
q-1 -16 -7 -40zM388 304q3 22 -7 44t-33.5 37t-59.5 15q-30 0 -58 -15t-45.5 -37.5t-20.5 -43.5h224z" />
    <glyph glyph-name="eacute" unicode="&#xe9;" horiz-adv-x="560" 
d="M349 704h144l-161 -144h-80zM510 208h-361q8 -51 42 -81.5t92 -30.5q39 0 79.5 12t73.5 34l24 -111q0 -1 -27 -13.5t-70 -23t-96 -10.5q-125 0 -186.5 61.5t-61.5 161.5q0 27 2 41q9 75 45 134.5t98 94.5t146 35q103 0 157 -55t54 -156q0 -15 -4 -53q-1 -16 -7 -40z
M388 304q3 22 -7 44t-33.5 37t-59.5 15q-30 0 -58 -15t-45.5 -37.5t-20.5 -43.5h224z" />
    <glyph glyph-name="ecircumflex" unicode="&#xea;" horiz-adv-x="560" 
d="M316 633l-64 -73h-112l156 144h57l123 -144h-112zM510 208h-361q8 -51 42 -81.5t92 -30.5q39 0 79.5 12t73.5 34l24 -111q0 -1 -27 -13.5t-70 -23t-96 -10.5q-125 0 -186.5 61.5t-61.5 161.5q0 27 2 41q9 75 45 134.5t98 94.5t146 35q103 0 157 -55t54 -156q0 -15 -4 -53
q-1 -16 -7 -40zM388 304q3 22 -7 44t-33.5 37t-59.5 15q-30 0 -58 -15t-45.5 -37.5t-20.5 -43.5h224z" />
    <glyph glyph-name="edieresis" unicode="&#xeb;" horiz-adv-x="560" 
d="M171 576q-16 16 -16 41q0 29 21.5 50t50.5 21q25 0 41 -15.5t16 -39.5q0 -30 -21.5 -51.5t-50.5 -21.5q-25 0 -41 16zM363 576q-16 16 -16 41q0 29 21.5 50t50.5 21q25 0 41 -15.5t16 -39.5q0 -30 -21.5 -51.5t-50.5 -21.5q-25 0 -41 16zM510 208h-361q8 -51 42 -81.5
t92 -30.5q39 0 79.5 12t73.5 34l24 -111q0 -1 -27 -13.5t-70 -23t-96 -10.5q-125 0 -186.5 61.5t-61.5 161.5q0 27 2 41q9 75 45 134.5t98 94.5t146 35q103 0 157 -55t54 -156q0 -15 -4 -53q-1 -16 -7 -40zM388 304q3 22 -7 44t-33.5 37t-59.5 15q-30 0 -58 -15t-45.5 -37.5
t-20.5 -43.5h224z" />
    <glyph glyph-name="igrave" unicode="&#xec;" horiz-adv-x="256" 
d="M140 560l-127 144h144l63 -144h-80zM163 96q-4 -32 -4 -52q0 -28 8 -44h-128q-8 16 -8 44q0 20 4 52l49 400h128z" />
    <glyph glyph-name="iacute" unicode="&#xed;" horiz-adv-x="256" 
d="M189 704h144l-161 -144h-80zM163 96q-4 -32 -4 -52q0 -28 8 -44h-128q-8 16 -8 44q0 20 4 52l49 400h128z" />
    <glyph glyph-name="icircumflex" unicode="&#xee;" horiz-adv-x="256" 
d="M164 633l-64 -73h-112l156 144h57l123 -144h-112zM163 96q-4 -32 -4 -52q0 -28 8 -44h-128q-8 16 -8 44q0 20 4 52l49 400h128z" />
    <glyph glyph-name="idieresis" unicode="&#xef;" horiz-adv-x="256" 
d="M19 576q-16 16 -16 41q0 29 21.5 50t50.5 21q25 0 41 -15.5t16 -39.5q0 -30 -21.5 -51.5t-50.5 -21.5q-25 0 -41 16zM211 576q-16 16 -16 41q0 29 21.5 50t50.5 21q25 0 41 -15.5t16 -39.5q0 -30 -21.5 -51.5t-50.5 -21.5q-25 0 -41 16zM163 96q-4 -32 -4 -52
q0 -28 8 -44h-128q-8 16 -8 44q0 20 4 52l49 400h128z" />
    <glyph glyph-name="eth" unicode="&#xf0;" horiz-adv-x="592" 
d="M551 283q0 -23 -2 -35q-9 -72 -51.5 -132.5t-107.5 -96t-137 -35.5q-66 0 -119.5 30.5t-84 83.5t-30.5 117q0 11 2 33q8 63 42.5 118.5t88.5 92.5t116 48l-52 49l-147 -52l9 79l81 26l-61 55l109 56l76 -66l179 59l-10 -80l-106 -34q85 -70 134.5 -133t64.5 -129
q6 -25 6 -54zM343 133q36 21 57.5 56t21.5 75q0 51 -34 85.5t-86 34.5q-39 0 -75 -21t-57.5 -56t-21.5 -75q0 -51 34 -85.5t86 -34.5q39 0 75 21z" />
    <glyph glyph-name="ntilde" unicode="&#xf1;" horiz-adv-x="576" 
d="M517 640q-28 -45 -59.5 -62.5t-67.5 -17.5q-20 0 -36.5 5t-39.5 14q-41 17 -64 17q-34 0 -58 -36l-65 25q49 79 129 79q19 0 34 -4t38 -14q39 -17 65 -17q35 0 59 36zM495 44q0 -28 8 -44h-128q-8 16 -8 44q0 20 4 52l21 176q2 22 2 29q0 43 -20.5 63t-63.5 20
q-48 0 -84 -32.5t-44 -95.5l-31 -256h-128l61 496h128l-6 -48q31 32 68 48t90 16q76 0 118.5 -44t42.5 -130q0 -23 -3 -50l-23 -192q-4 -32 -4 -52z" />
    <glyph glyph-name="ograve" unicode="&#xf2;" horiz-adv-x="592" 
d="M308 560l-127 144h144l63 -144h-80zM437.5 481.5q53.5 -30.5 83.5 -83.5t30 -117q0 -11 -2 -33q-9 -72 -51.5 -132.5t-107.5 -96t-137 -35.5q-66 0 -119.5 30.5t-84 83.5t-30.5 117q0 11 2 33q9 72 52 132.5t108 96t137 35.5q66 0 119.5 -30.5zM343 133q36 21 57.5 56
t21.5 75q0 51 -34 85.5t-86 34.5q-39 0 -75 -21t-57.5 -56t-21.5 -75q0 -51 34 -85.5t86 -34.5q39 0 75 21z" />
    <glyph glyph-name="oacute" unicode="&#xf3;" horiz-adv-x="592" 
d="M357 704h144l-161 -144h-80zM437.5 481.5q53.5 -30.5 83.5 -83.5t30 -117q0 -11 -2 -33q-9 -72 -51.5 -132.5t-107.5 -96t-137 -35.5q-66 0 -119.5 30.5t-84 83.5t-30.5 117q0 11 2 33q9 72 52 132.5t108 96t137 35.5q66 0 119.5 -30.5zM343 133q36 21 57.5 56t21.5 75
q0 51 -34 85.5t-86 34.5q-39 0 -75 -21t-57.5 -56t-21.5 -75q0 -51 34 -85.5t86 -34.5q39 0 75 21z" />
    <glyph glyph-name="ocircumflex" unicode="&#xf4;" horiz-adv-x="592" 
d="M332 633l-64 -73h-112l156 144h57l123 -144h-112zM437.5 481.5q53.5 -30.5 83.5 -83.5t30 -117q0 -11 -2 -33q-9 -72 -51.5 -132.5t-107.5 -96t-137 -35.5q-66 0 -119.5 30.5t-84 83.5t-30.5 117q0 11 2 33q9 72 52 132.5t108 96t137 35.5q66 0 119.5 -30.5zM343 133
q36 21 57.5 56t21.5 75q0 51 -34 85.5t-86 34.5q-39 0 -75 -21t-57.5 -56t-21.5 -75q0 -51 34 -85.5t86 -34.5q39 0 75 21z" />
    <glyph glyph-name="otilde" unicode="&#xf5;" horiz-adv-x="592" 
d="M525 640q-28 -45 -59.5 -62.5t-67.5 -17.5q-20 0 -36.5 5t-39.5 14q-41 17 -64 17q-34 0 -58 -36l-65 25q49 79 129 79q20 0 34.5 -4t37.5 -14q39 -17 65 -17q35 0 59 36zM437.5 481.5q53.5 -30.5 83.5 -83.5t30 -117q0 -11 -2 -33q-9 -72 -51.5 -132.5t-107.5 -96
t-137 -35.5q-66 0 -119.5 30.5t-84 83.5t-30.5 117q0 11 2 33q9 72 52 132.5t108 96t137 35.5q66 0 119.5 -30.5zM343 133q36 21 57.5 56t21.5 75q0 51 -34 85.5t-86 34.5q-39 0 -75 -21t-57.5 -56t-21.5 -75q0 -51 34 -85.5t86 -34.5q39 0 75 21z" />
    <glyph glyph-name="odieresis" unicode="&#xf6;" horiz-adv-x="592" 
d="M187 576q-16 16 -16 41q0 29 21.5 50t50.5 21q25 0 41 -15.5t16 -39.5q0 -30 -21.5 -51.5t-50.5 -21.5q-25 0 -41 16zM379 576q-16 16 -16 41q0 29 21.5 50t50.5 21q25 0 41 -15.5t16 -39.5q0 -30 -21.5 -51.5t-50.5 -21.5q-25 0 -41 16zM437.5 481.5
q53.5 -30.5 83.5 -83.5t30 -117q0 -11 -2 -33q-9 -72 -51.5 -132.5t-107.5 -96t-137 -35.5q-66 0 -119.5 30.5t-84 83.5t-30.5 117q0 11 2 33q9 72 52 132.5t108 96t137 35.5q66 0 119.5 -30.5zM343 133q36 21 57.5 56t21.5 75q0 51 -34 85.5t-86 34.5q-39 0 -75 -21
t-57.5 -56t-21.5 -75q0 -51 34 -85.5t86 -34.5q39 0 75 21z" />
    <glyph glyph-name="divide" unicode="&#xf7;" horiz-adv-x="496" 
d="M207 435.5q-20 19.5 -20 49.5q0 37 26.5 64t63.5 27q31 0 51.5 -20t20.5 -51q0 -36 -27.5 -62.5t-63.5 -26.5q-31 0 -51 19.5zM449 344l-10 -80h-400l10 80h400zM159.5 52q-20.5 20 -20.5 51q0 36 27.5 62.5t63.5 26.5q31 0 51 -19.5t20 -49.5q0 -37 -26.5 -64t-63.5 -27
q-31 0 -51.5 20z" />
    <glyph glyph-name="oslash" unicode="&#xf8;" horiz-adv-x="592" 
d="M551 281q0 -11 -2 -33q-9 -72 -51.5 -132.5t-107.5 -96t-137 -35.5q-43 0 -81 13t-68 37l-34 -34h-64l66 66q-53 64 -53 150q0 10 2 32q9 72 52 132.5t108 96t137 35.5q85 0 148 -50l35 34h64l-66 -66q52 -63 52 -149zM169 163l201 202q-30 19 -68 19q-39 0 -75 -21
t-57.5 -56t-21.5 -75q0 -38 21 -69zM343.5 133q35.5 21 57 56.5t21.5 76.5q0 38 -20 67l-201 -202q29 -19 67 -19q40 0 75.5 21z" />
    <glyph glyph-name="ugrave" unicode="&#xf9;" horiz-adv-x="576" 
d="M292 560l-127 144h144l63 -144h-80zM359 0q-10 18 -8 48q-31 -32 -68.5 -48t-91.5 -16q-77 0 -119.5 44.5t-42.5 131.5q0 23 3 48l36 288h128l-34 -272q-2 -20 -2 -28q0 -43 20.5 -63.5t63.5 -20.5q48 0 84 32.5t44 95.5l32 256h128l-49 -400q-4 -32 -4 -52q0 -28 8 -44
h-128z" />
    <glyph glyph-name="uacute" unicode="&#xfa;" horiz-adv-x="576" 
d="M341 704h144l-161 -144h-80zM359 0q-10 18 -8 48q-31 -32 -68.5 -48t-91.5 -16q-77 0 -119.5 44.5t-42.5 131.5q0 23 3 48l36 288h128l-34 -272q-2 -20 -2 -28q0 -43 20.5 -63.5t63.5 -20.5q48 0 84 32.5t44 95.5l32 256h128l-49 -400q-4 -32 -4 -52q0 -28 8 -44h-128z
" />
    <glyph glyph-name="ucircumflex" unicode="&#xfb;" horiz-adv-x="576" 
d="M316 633l-64 -73h-112l156 144h57l123 -144h-112zM359 0q-10 18 -8 48q-31 -32 -68.5 -48t-91.5 -16q-77 0 -119.5 44.5t-42.5 131.5q0 23 3 48l36 288h128l-34 -272q-2 -20 -2 -28q0 -43 20.5 -63.5t63.5 -20.5q48 0 84 32.5t44 95.5l32 256h128l-49 -400q-4 -32 -4 -52
q0 -28 8 -44h-128z" />
    <glyph glyph-name="udieresis" unicode="&#xfc;" horiz-adv-x="576" 
d="M171 576q-16 16 -16 41q0 29 21.5 50t50.5 21q25 0 41 -15.5t16 -39.5q0 -30 -21.5 -51.5t-50.5 -21.5q-25 0 -41 16zM363 576q-16 16 -16 41q0 29 21.5 50t50.5 21q25 0 41 -15.5t16 -39.5q0 -30 -21.5 -51.5t-50.5 -21.5q-25 0 -41 16zM359 0q-10 18 -8 48
q-31 -32 -68.5 -48t-91.5 -16q-77 0 -119.5 44.5t-42.5 131.5q0 23 3 48l36 288h128l-34 -272q-2 -20 -2 -28q0 -43 20.5 -63.5t63.5 -20.5q48 0 84 32.5t44 95.5l32 256h128l-49 -400q-4 -32 -4 -52q0 -28 8 -44h-128z" />
    <glyph glyph-name="yacute" unicode="&#xfd;" horiz-adv-x="528" 
d="M317 704h144l-161 -144h-80zM548 496l-413 -752h-144l164 292l-135 460h144l84 -292l156 292h144z" />
    <glyph glyph-name="thorn" unicode="&#xfe;" 
d="M477.5 482q49.5 -30 77.5 -82.5t28 -116.5q0 -11 -2 -35q-9 -72 -49.5 -132.5t-102 -96t-128.5 -35.5q-91 0 -144 69l-38 -309h-128l118 960h128l-32 -261q69 69 161 69q62 0 111.5 -30zM375 133q36 21 57.5 56t21.5 75q0 51 -34 85.5t-86 34.5q-39 0 -75 -21t-57.5 -56
t-21.5 -75q0 -51 34 -85.5t86 -34.5q39 0 75 21z" />
    <glyph glyph-name="ydieresis" unicode="&#xff;" horiz-adv-x="528" 
d="M155 576q-16 16 -16 41q0 29 21.5 50t50.5 21q25 0 41 -15.5t16 -39.5q0 -30 -21.5 -51.5t-50.5 -21.5q-25 0 -41 16zM347 576q-16 16 -16 41q0 29 21.5 50t50.5 21q25 0 41 -15.5t16 -39.5q0 -30 -21.5 -51.5t-50.5 -21.5q-25 0 -41 16zM548 496l-413 -752h-144l164 292
l-135 460h144l84 -292l156 292h144z" />
    <glyph glyph-name="Amacron" unicode="&#x100;" horiz-adv-x="672" 
d="M243 752l8 64h288l-8 -64h-288zM452 128h-284l-65 -128h-144l360 672h116l196 -672h-144zM419 256l-63 240l-123 -240h186z" />
    <glyph glyph-name="amacron" unicode="&#x101;" 
d="M213 576l8 64h288l-8 -64h-288zM407 0q-9 16 -9 52q-68 -68 -161 -68q-62 0 -112 30t-78 82.5t-28 116.5q0 11 2 35q9 72 50 132.5t102.5 96t128.5 35.5q92 0 143 -69l7 53h128l-49 -400q-4 -32 -4 -52q0 -28 8 -44h-128zM343 133q36 21 57.5 56t21.5 75q0 51 -34 85.5
t-86 34.5q-39 0 -75 -21t-57.5 -56t-21.5 -75q0 -51 34 -85.5t86 -34.5q39 0 75 21z" />
    <glyph glyph-name="Abreve" unicode="&#x102;" horiz-adv-x="672" 
d="M547 880q-5 -39 -28.5 -72t-59 -52.5t-74.5 -19.5q-55 0 -91 36t-36 90q0 12 1 18h68q-4 -32 15.5 -54t50.5 -22q32 0 57 22.5t29 53.5h68zM452 128h-284l-65 -128h-144l360 672h116l196 -672h-144zM419 256l-63 240l-123 -240h186z" />
    <glyph glyph-name="abreve" unicode="&#x103;" 
d="M517 704q-5 -39 -28 -72t-58.5 -52.5t-74.5 -19.5q-55 0 -91.5 36t-36.5 90q0 12 1 18h68q-4 -31 15.5 -53.5t51.5 -22.5q31 0 56 22t29 54h68zM407 0q-9 16 -9 52q-68 -68 -161 -68q-62 0 -112 30t-78 82.5t-28 116.5q0 11 2 35q9 72 50 132.5t102.5 96t128.5 35.5
q92 0 143 -69l7 53h128l-49 -400q-4 -32 -4 -52q0 -28 8 -44h-128zM343 133q36 21 57.5 56t21.5 75q0 51 -34 85.5t-86 34.5q-39 0 -75 -21t-57.5 -56t-21.5 -75q0 -51 34 -85.5t86 -34.5q39 0 75 21z" />
    <glyph glyph-name="Aogonek" unicode="&#x104;" horiz-adv-x="672" 
d="M513 -94q0 -14 1.5 -24.5t-1.5 -2.5q5 -12 15 -18.5t25 -6.5q21 0 45 12l9 -58q-26 -16 -60 -16q-51 0 -77.5 28.5t-26.5 75.5q0 13 1 20q3 22 15.5 47.5t27.5 36.5l-35 128h-284l-65 -128h-144l360 672h116l196 -672h-16q-10 0 -27 -8t-31 -16q-18 -11 -22 -11
q-2 0 -2 2q0 3 -13 -18q-7 -25 -7 -43zM419 256l-63 240l-123 -240h186z" />
    <glyph glyph-name="aogonek" unicode="&#x105;" 
d="M417 -94q0 -14 1.5 -24.5t-1.5 -2.5q5 -12 15 -18.5t25 -6.5q21 0 45 12l9 -58q-26 -16 -60 -16q-51 0 -77.5 28.5t-26.5 75.5q0 37 17.5 66.5t38.5 45.5q-5 16 -5 44q-68 -68 -161 -68q-62 0 -112 30t-78 82.5t-28 116.5q0 11 2 35q9 72 50 132.5t102.5 96t128.5 35.5
q92 0 143 -69l7 53h128l-49 -400q-4 -32 -4 -52q0 -28 8 -44h-16q-10 0 -27 -8t-31 -16q-18 -11 -22 -11q-2 0 -2 2q0 3 -13 -18q-7 -25 -7 -43zM343 133q36 21 57.5 56t21.5 75q0 51 -34 85.5t-86 34.5q-39 0 -75 -21t-57.5 -56t-21.5 -75q0 -51 34 -85.5t86 -34.5
q39 0 75 21z" />
    <glyph glyph-name="Cacute" unicode="&#x106;" horiz-adv-x="640" 
d="M467 880h144l-162 -144h-80zM458.5 130q45.5 18 81.5 51l35 -116q-47 -38 -108.5 -59.5t-119.5 -21.5q-90 0 -162.5 41t-114 112t-41.5 157q0 21 3 42q12 95 70 176t146 128.5t185 47.5q58 0 115 -21t93 -59l-63 -116q-29 32 -69.5 50t-88.5 18q-68 0 -128.5 -34.5
t-97 -92.5t-36.5 -124q0 -55 26.5 -100t74 -71t105.5 -26q49 0 94.5 18z" />
    <glyph glyph-name="cacute" unicode="&#x107;" horiz-adv-x="512" 
d="M365 704h144l-161 -144h-80zM350 124q32 12 55 33l39 -114q-33 -28 -81.5 -43.5t-97.5 -15.5q-77 0 -132.5 29.5t-84.5 81t-29 116.5q0 25 2 37q9 73 50 133.5t108 95.5t151 35q49 0 91.5 -14.5t72.5 -44.5l-67 -115q-18 21 -47 33.5t-62 12.5q-49 0 -88 -21t-60.5 -56
t-21.5 -76q0 -52 36 -85.5t100 -33.5q34 0 66 12z" />
    <glyph glyph-name="Cdotaccent" unicode="&#x10a;" horiz-adv-x="640" 
d="M380 740.5q-20 20.5 -20 50.5q0 36 27.5 62.5t63.5 26.5q31 0 51 -20.5t20 -50.5q0 -36 -27.5 -62.5t-63.5 -26.5q-31 0 -51 20.5zM458.5 130q45.5 18 81.5 51l35 -116q-47 -38 -108.5 -59.5t-119.5 -21.5q-90 0 -162.5 41t-114 112t-41.5 157q0 21 3 42q12 95 70 176
t146 128.5t185 47.5q58 0 115 -21t93 -59l-63 -116q-29 32 -69.5 50t-88.5 18q-68 0 -128.5 -34.5t-97 -92.5t-36.5 -124q0 -55 26.5 -100t74 -71t105.5 -26q49 0 94.5 18z" />
    <glyph glyph-name="cdotaccent" unicode="&#x10b;" horiz-adv-x="512" 
d="M278.5 564.5q-20.5 20.5 -20.5 50.5q0 36 27.5 62.5t63.5 26.5q30 0 50.5 -20t20.5 -49q0 -36 -27 -63.5t-63 -27.5q-31 0 -51.5 20.5zM350 124q32 12 55 33l39 -114q-33 -28 -81.5 -43.5t-97.5 -15.5q-77 0 -132.5 29.5t-84.5 81t-29 116.5q0 25 2 37q9 73 50 133.5
t108 95.5t151 35q49 0 91.5 -14.5t72.5 -44.5l-67 -115q-18 21 -47 33.5t-62 12.5q-49 0 -88 -21t-60.5 -56t-21.5 -76q0 -52 36 -85.5t100 -33.5q34 0 66 12z" />
    <glyph glyph-name="Ccaron" unicode="&#x10c;" horiz-adv-x="640" 
d="M611 880l-158 -144h-57l-121 144h112l47 -73l65 73h112zM458.5 130q45.5 18 81.5 51l35 -116q-47 -38 -108.5 -59.5t-119.5 -21.5q-90 0 -162.5 41t-114 112t-41.5 157q0 21 3 42q12 95 70 176t146 128.5t185 47.5q58 0 115 -21t93 -59l-63 -116q-29 32 -69.5 50
t-88.5 18q-68 0 -128.5 -34.5t-97 -92.5t-36.5 -124q0 -55 26.5 -100t74 -71t105.5 -26q49 0 94.5 18z" />
    <glyph glyph-name="ccaron" unicode="&#x10d;" horiz-adv-x="512" 
d="M509 704l-157 -144h-57l-122 144h112l47 -73l65 73h112zM350 124q32 12 55 33l39 -114q-33 -28 -81.5 -43.5t-97.5 -15.5q-77 0 -132.5 29.5t-84.5 81t-29 116.5q0 25 2 37q9 73 50 133.5t108 95.5t151 35q49 0 91.5 -14.5t72.5 -44.5l-67 -115q-18 21 -47 33.5t-62 12.5
q-49 0 -88 -21t-60.5 -56t-21.5 -76q0 -52 36 -85.5t100 -33.5q34 0 66 12z" />
    <glyph glyph-name="Dcaron" unicode="&#x10e;" horiz-adv-x="672" 
d="M539 880l-158 -144h-57l-121 144h112l47 -73l65 73h112zM501 635q71 -37 106.5 -101.5t35.5 -147.5q0 -24 -3 -50q-12 -94 -63 -170.5t-136.5 -121t-194.5 -44.5h-223l82 672h223q102 0 173 -37zM400.5 160.5q52.5 32.5 83 87t30.5 117.5q0 51 -21.5 91.5t-62 64
t-94.5 23.5h-118l-52 -416h118q64 0 116.5 32.5z" />
    <glyph glyph-name="dcaron" unicode="&#x10f;" horiz-adv-x="768" 
d="M407 0q-9 16 -9 52q-68 -68 -161 -68q-62 0 -112 30t-78 82.5t-28 116.5q0 11 2 35q9 72 50 132.5t102.5 96t128.5 35.5q92 0 143 -69l32 261h128l-74 -608q-4 -32 -4 -52q0 -28 8 -44h-128zM665 672h112l-95 -128h-64zM343 133q36 21 57.5 56t21.5 75q0 51 -34 85.5
t-86 34.5q-39 0 -75 -21t-57.5 -56t-21.5 -75q0 -51 34 -85.5t86 -34.5q39 0 75 21z" />
    <glyph glyph-name="Dcroat" unicode="&#x110;" horiz-adv-x="688" 
d="M517 635q71 -37 106.5 -101.5t35.5 -147.5q0 -24 -3 -50q-12 -94 -63 -170.5t-136.5 -121t-194.5 -44.5h-223l36 296h-64l10 80h64l36 296h223q102 0 173 -37zM416.5 160.5q52.5 32.5 83 87t30.5 117.5q0 51 -21.5 91.5t-62 64t-94.5 23.5h-118l-21 -168h64l-10 -80h-64
l-21 -168h118q64 0 116.5 32.5z" />
    <glyph glyph-name="dcroat" unicode="&#x111;" horiz-adv-x="640" 
d="M587 552l-56 -456q-4 -32 -4 -52q0 -28 8 -44h-128q-9 16 -9 52q-68 -68 -161 -68q-62 0 -112 30t-78 82.5t-28 116.5q0 11 2 35q9 72 50 132.5t102.5 96t128.5 35.5q92 0 143 -69l14 109h-64l7 64h64l11 88h128l-11 -88h64l-7 -64h-64zM343 133q36 21 57.5 56t21.5 75
q0 51 -34 85.5t-86 34.5q-39 0 -75 -21t-57.5 -56t-21.5 -75q0 -51 34 -85.5t86 -34.5q39 0 75 21z" />
    <glyph glyph-name="Emacron" unicode="&#x112;" horiz-adv-x="528" 
d="M171 752l8 64h288l-8 -64h-288zM218 544l-18 -144h240l-16 -128h-240l-18 -144h288l-15 -128h-416l82 672h416l-15 -128h-288z" />
    <glyph glyph-name="emacron" unicode="&#x113;" horiz-adv-x="560" 
d="M165 576l8 64h288l-8 -64h-288zM510 208h-361q8 -51 42 -81.5t92 -30.5q39 0 79.5 12t73.5 34l24 -111q0 -1 -27 -13.5t-70 -23t-96 -10.5q-125 0 -186.5 61.5t-61.5 161.5q0 27 2 41q9 75 45 134.5t98 94.5t146 35q103 0 157 -55t54 -156q0 -15 -4 -53q-1 -16 -7 -40z
M388 304q3 22 -7 44t-33.5 37t-59.5 15q-30 0 -58 -15t-45.5 -37.5t-20.5 -43.5h224z" />
    <glyph glyph-name="Edotaccent" unicode="&#x116;" horiz-adv-x="528" 
d="M260 740.5q-20 20.5 -20 50.5q0 36 27.5 62.5t63.5 26.5q31 0 51 -20.5t20 -50.5q0 -36 -27.5 -62.5t-63.5 -26.5q-31 0 -51 20.5zM218 544l-18 -144h240l-16 -128h-240l-18 -144h288l-15 -128h-416l82 672h416l-15 -128h-288z" />
    <glyph glyph-name="edotaccent" unicode="&#x117;" horiz-adv-x="560" 
d="M262.5 564.5q-20.5 20.5 -20.5 50.5q0 36 27.5 62.5t63.5 26.5q30 0 50.5 -20t20.5 -49q0 -36 -27 -63.5t-63 -27.5q-31 0 -51.5 20.5zM510 208h-361q8 -51 42 -81.5t92 -30.5q39 0 79.5 12t73.5 34l24 -111q0 -1 -27 -13.5t-70 -23t-96 -10.5q-125 0 -186.5 61.5
t-61.5 161.5q0 27 2 41q9 75 45 134.5t98 94.5t146 35q103 0 157 -55t54 -156q0 -15 -4 -53q-1 -16 -7 -40zM388 304q3 22 -7 44t-33.5 37t-59.5 15q-30 0 -58 -15t-45.5 -37.5t-20.5 -43.5h224z" />
    <glyph glyph-name="Eogonek" unicode="&#x118;" horiz-adv-x="528" 
d="M431 -192q-26 -16 -60 -16q-51 0 -77.5 28.5t-26.5 75.5q0 13 1 20q3 22 15.5 47.5t27.5 36.5h-288l82 672h416l-15 -128h-288l-18 -144h240l-16 -128h-240l-18 -144h288l-15 -128q-27 0 -54 -14t-41 -37q-12 -18 -12 -40q0 -25 14.5 -39t36.5 -14q19 0 39 10z" />
    <glyph glyph-name="eogonek" unicode="&#x119;" horiz-adv-x="560" 
d="M510 208h-361q8 -51 42 -81.5t92 -30.5q39 0 79.5 12t73.5 34l24 -111q-4 -3 -20.5 -11t-46.5 -17.5t-67 -14.5q-18 -4 -32 -18.5t-19 -33.5q-5 -15 -5 -27q0 -25 14.5 -39t36.5 -14q19 0 39 10l9 -58q-26 -16 -60 -16q-51 0 -77.5 28.5t-26.5 75.5q0 13 1 20
q2 16 10 35.5t19 33.5q-109 9 -163 68.5t-54 151.5q0 21 3 43q9 75 45 134.5t98 94.5t146 35q103 0 157 -55t54 -156q0 -15 -4 -53q-1 -16 -7 -40zM388 304q3 22 -7 44t-33.5 37t-59.5 15q-30 0 -58 -15t-45.5 -37.5t-20.5 -43.5h224z" />
    <glyph glyph-name="Ecaron" unicode="&#x11a;" horiz-adv-x="528" 
d="M499 880l-158 -144h-57l-121 144h112l47 -73l65 73h112zM218 544l-18 -144h240l-16 -128h-240l-18 -144h288l-15 -128h-416l82 672h416l-15 -128h-288z" />
    <glyph glyph-name="ecaron" unicode="&#x11b;" horiz-adv-x="560" 
d="M493 704l-157 -144h-57l-122 144h112l47 -73l65 73h112zM510 208h-361q8 -51 42 -81.5t92 -30.5q39 0 79.5 12t73.5 34l24 -111q0 -1 -27 -13.5t-70 -23t-96 -10.5q-125 0 -186.5 61.5t-61.5 161.5q0 27 2 41q9 75 45 134.5t98 94.5t146 35q103 0 157 -55t54 -156
q0 -15 -4 -53q-1 -16 -7 -40zM388 304q3 22 -7 44t-33.5 37t-59.5 15q-30 0 -58 -15t-45.5 -37.5t-20.5 -43.5h224z" />
    <glyph glyph-name="Gbreve" unicode="&#x11e;" horiz-adv-x="752" 
d="M587 880q-5 -39 -28.5 -72t-59 -52.5t-74.5 -19.5q-55 0 -91 36t-36 90q0 12 1 18h68q-4 -32 15.5 -54t50.5 -22q32 0 57 22.5t29 53.5h68zM720 336q-12 -96 -65.5 -177t-136 -128t-177.5 -47q-88 0 -159.5 41t-112 111.5t-40.5 156.5q0 21 3 43q12 95 69 176t144 128.5
t182 47.5q101 0 174 -52t107 -140l-134 -36q-21 46 -63 73t-99 27q-66 0 -124.5 -34.5t-94 -92.5t-35.5 -125q0 -54 25.5 -99t71 -71t101.5 -26q72 0 130.5 42t86.5 110h-246l16 128h379q1 -24 -2 -56z" />
    <glyph glyph-name="gbreve" unicode="&#x11f;" 
d="M517 704q-5 -39 -28 -72t-58.5 -52.5t-74.5 -19.5q-55 0 -91.5 36t-36.5 90q0 12 1 18h68q-4 -31 15.5 -53.5t51.5 -22.5q31 0 56 22t29 54h68zM580 496l-55 -448q-19 -156 -100 -238t-212 -82q-86 0 -145 28.5t-85 51.5l74 113q25 -24 70.5 -44.5t101.5 -20.5
q65 0 110 43.5t53 110.5l5 43q-67 -69 -160 -69q-62 0 -112 30t-78 82.5t-28 116.5q0 11 2 35q9 72 50 132.5t102.5 96t128.5 35.5q92 0 143 -69l7 53h128zM343 133q36 21 57.5 56t21.5 75q0 51 -34 85.5t-86 34.5q-39 0 -75 -21t-57.5 -56t-21.5 -75q0 -51 34 -85.5
t86 -34.5q39 0 75 21z" />
    <glyph glyph-name="Gdotaccent" unicode="&#x120;" horiz-adv-x="752" 
d="M372 740.5q-20 20.5 -20 50.5q0 36 27.5 62.5t63.5 26.5q31 0 51 -20.5t20 -50.5q0 -36 -27.5 -62.5t-63.5 -26.5q-31 0 -51 20.5zM720 336q-12 -96 -65.5 -177t-136 -128t-177.5 -47q-88 0 -159.5 41t-112 111.5t-40.5 156.5q0 21 3 43q12 95 69 176t144 128.5t182 47.5
q101 0 174 -52t107 -140l-134 -36q-21 46 -63 73t-99 27q-66 0 -124.5 -34.5t-94 -92.5t-35.5 -125q0 -54 25.5 -99t71 -71t101.5 -26q72 0 130.5 42t86.5 110h-246l16 128h379q1 -24 -2 -56z" />
    <glyph glyph-name="gdotaccent" unicode="&#x121;" 
d="M286.5 564.5q-20.5 20.5 -20.5 50.5q0 36 27.5 62.5t63.5 26.5q30 0 50.5 -20t20.5 -49q0 -36 -27 -63.5t-63 -27.5q-31 0 -51.5 20.5zM580 496l-55 -448q-19 -156 -100 -238t-212 -82q-86 0 -145 28.5t-85 51.5l74 113q25 -24 70.5 -44.5t101.5 -20.5q65 0 110 43.5
t53 110.5l5 43q-67 -69 -160 -69q-62 0 -112 30t-78 82.5t-28 116.5q0 11 2 35q9 72 50 132.5t102.5 96t128.5 35.5q92 0 143 -69l7 53h128zM343 133q36 21 57.5 56t21.5 75q0 51 -34 85.5t-86 34.5q-39 0 -75 -21t-57.5 -56t-21.5 -75q0 -51 34 -85.5t86 -34.5q39 0 75 21z
" />
    <glyph glyph-name="Gcommaaccent" unicode="&#x122;" horiz-adv-x="752" 
d="M720 336q-12 -96 -65.5 -177t-136 -128t-177.5 -47q-88 0 -159.5 41t-112 111.5t-40.5 156.5q0 21 3 43q12 95 69 176t144 128.5t182 47.5q101 0 174 -52t107 -140l-134 -36q-21 46 -63 73t-99 27q-66 0 -124.5 -34.5t-94 -92.5t-35.5 -125q0 -54 25.5 -99t71 -71
t101.5 -26q72 0 130.5 42t86.5 110h-246l16 128h379q1 -24 -2 -56zM279 -64h112l-96 -128h-64z" />
    <glyph glyph-name="gcommaaccent" unicode="&#x123;" 
d="M412 560h-112l95 128h64zM580 496l-55 -448q-19 -156 -100 -238t-212 -82q-86 0 -145 28.5t-85 51.5l74 113q25 -24 70.5 -44.5t101.5 -20.5q65 0 110 43.5t53 110.5l5 43q-67 -69 -160 -69q-62 0 -112 30t-78 82.5t-28 116.5q0 11 2 35q9 72 50 132.5t102.5 96
t128.5 35.5q92 0 143 -69l7 53h128zM343 133q36 21 57.5 56t21.5 75q0 51 -34 85.5t-86 34.5q-39 0 -75 -21t-57.5 -56t-21.5 -75q0 -51 34 -85.5t86 -34.5q39 0 75 21z" />
    <glyph glyph-name="Hbar" unicode="&#x126;" horiz-adv-x="672" 
d="M679 520h-48l-64 -520h-128l33 272h-288l-33 -272h-128l64 520h-48l7 64h48l11 88h128l-11 -88h288l11 88h128l-11 -88h48zM503 520h-288l-15 -120h288z" />
    <glyph glyph-name="hbar" unicode="&#x127;" horiz-adv-x="592" 
d="M511 44q0 -28 8 -44h-128q-8 16 -8 44q0 20 4 52l21 176q2 22 2 29q0 43 -20.5 63t-63.5 20q-48 0 -84 -32.5t-44 -95.5l-31 -256h-128l68 552h-64l7 64h64l11 88h128l-11 -88h64l-7 -64h-64l-13 -104q31 32 68 48t90 16q76 0 118.5 -44t42.5 -130q0 -23 -3 -50l-23 -192
q-4 -32 -4 -52z" />
    <glyph glyph-name="Imacron" unicode="&#x12a;" horiz-adv-x="256" 
d="M35 752l8 64h288l-8 -64h-288zM23 0l82 672h128l-82 -672h-128z" />
    <glyph glyph-name="imacron" unicode="&#x12b;" horiz-adv-x="256" 
d="M13 576l8 64h288l-8 -64h-288zM163 96q-4 -32 -4 -52q0 -28 8 -44h-128q-8 16 -8 44q0 20 4 52l49 400h128z" />
    <glyph glyph-name="Iogonek" unicode="&#x12e;" horiz-adv-x="256" 
d="M143 -192q-26 -16 -60 -16q-51 0 -77.5 28.5t-26.5 75.5q0 13 1 20q3 22 15.5 47.5t27.5 36.5l82 672h128l-82 -672q-27 0 -54 -14t-41 -37q-12 -18 -12 -40q0 -25 14.5 -39t36.5 -14q19 0 39 10z" />
    <glyph glyph-name="iogonek" unicode="&#x12f;" horiz-adv-x="256" 
d="M99.5 582q-22.5 22 -22.5 55q0 40 30 69.5t70 29.5q34 0 56 -22t22 -55q0 -40 -29.5 -69.5t-69.5 -29.5q-34 0 -56.5 22zM97 -14q-27 -14 -41 -37q-12 -18 -12 -40q0 -25 14.5 -39t36.5 -14q19 0 39 10l9 -58q-26 -16 -60 -16q-51 0 -77.5 28.5t-26.5 75.5q0 37 17.5 66
t39.5 46q-5 14 -5 37q0 19 4 51l49 400h128l-49 -400q-4 -32 -4 -52q0 -28 8 -44h-16q-27 0 -54 -14z" />
    <glyph glyph-name="Idotaccent" unicode="&#x130;" horiz-adv-x="256" 
d="M124 740.5q-20 20.5 -20 50.5q0 36 27.5 62.5t63.5 26.5q31 0 51 -20.5t20 -50.5q0 -36 -27.5 -62.5t-63.5 -26.5q-31 0 -51 20.5zM23 0l82 672h128l-82 -672h-128z" />
    <glyph glyph-name="dotlessi" unicode="&#x131;" horiz-adv-x="256" 
d="M163 96q-4 -32 -4 -52q0 -28 8 -44h-128q-8 16 -8 44q0 20 4 52l49 400h128z" />
    <glyph glyph-name="IJ" unicode="&#x132;" horiz-adv-x="720" 
d="M23 0l82 672h128l-82 -672h-128zM713 672l-51 -416q-17 -139 -87.5 -205.5t-177.5 -66.5q-40 0 -83 18t-62 44l83 106q12 -18 32.5 -29t44.5 -11q49 0 81 34.5t38 85.5l54 440h128z" />
    <glyph glyph-name="ij" unicode="&#x133;" horiz-adv-x="512" 
d="M99.5 582q-22.5 22 -22.5 55q0 40 30 69.5t70 29.5q34 0 56 -22t22 -55q0 -40 -29.5 -69.5t-69.5 -29.5q-34 0 -56.5 22zM355.5 582q-22.5 22 -22.5 55q0 40 30 69.5t70 29.5q34 0 56 -22t22 -55q0 -40 -29.5 -69.5t-69.5 -29.5q-34 0 -56.5 22zM163 96q-4 -32 -4 -52
q0 -28 8 -44h-128q-8 16 -8 44q0 20 4 52l49 400h128zM340 496h128l-61 -496q-19 -151 -88.5 -211.5t-153.5 -60.5l-18 112q51 0 86 37.5t44 106.5z" />
    <glyph glyph-name="Kcommaaccent" unicode="&#x136;" 
d="M567 0h-162l-218 294l-36 -294h-128l82 672h128l-34 -278l272 278h162l-327 -321zM193 -64h112l-96 -128h-64z" />
    <glyph glyph-name="kcommaaccent" unicode="&#x137;" horiz-adv-x="560" 
d="M519 0h-160l-184 196l-24 -196h-128l86 704h128l-48 -396l215 188h160l-270 -240zM169 -64h112l-96 -128h-64z" />
    <glyph glyph-name="Lacute" unicode="&#x139;" horiz-adv-x="496" 
d="M211 880h144l-162 -144h-80zM438 128l-15 -128h-400l82 672h128l-67 -544h272z" />
    <glyph glyph-name="lacute" unicode="&#x13a;" horiz-adv-x="256" 
d="M215 912h144l-162 -144h-80zM159 44q0 -28 8 -44h-128q-8 16 -8 44q0 20 4 52l74 608h128l-74 -608q-4 -32 -4 -52z" />
    <glyph glyph-name="Lcommaaccent" unicode="&#x13b;" horiz-adv-x="496" 
d="M438 128l-15 -128h-400l82 672h128l-67 -544h272zM151 -64h112l-96 -128h-64z" />
    <glyph glyph-name="lcommaaccent" unicode="&#x13c;" horiz-adv-x="256" 
d="M159 44q0 -28 8 -44h-128q-8 16 -8 44q0 20 4 52l74 608h128l-74 -608q-4 -32 -4 -52zM23 -64h112l-96 -128h-64z" />
    <glyph glyph-name="Lcaron" unicode="&#x13d;" horiz-adv-x="512" 
d="M438 128l-15 -128h-400l82 672h128l-67 -544h272zM393 672h112l-95 -128h-64z" />
    <glyph glyph-name="lcaron" unicode="&#x13e;" horiz-adv-x="384" 
d="M159 44q0 -28 8 -44h-128q-8 16 -8 44q0 20 4 52l74 608h128l-74 -608q-4 -32 -4 -52zM297 672h112l-95 -128h-64z" />
    <glyph glyph-name="Ldot" unicode="&#x13f;" horiz-adv-x="512" 
d="M438 128l-15 -128h-400l82 672h128l-67 -544h272zM344 315.5q-20 19.5 -20 49.5q0 37 27 64t64 27q31 0 51 -20t20 -50q0 -37 -27.5 -63.5t-63.5 -26.5q-31 0 -51 19.5z" />
    <glyph glyph-name="ldot" unicode="&#x140;" horiz-adv-x="416" 
d="M159 44q0 -28 8 -44h-128q-8 16 -8 44q0 20 4 52l74 608h128l-74 -608q-4 -32 -4 -52zM264 315.5q-20 19.5 -20 49.5q0 37 27 64t64 27q31 0 51 -20t20 -50q0 -37 -27.5 -63.5t-63.5 -26.5q-31 0 -51 19.5z" />
    <glyph glyph-name="Lslash" unicode="&#x141;" horiz-adv-x="512" 
d="M454 128l-15 -128h-400l36 298l-66 -18l8 64l66 18l38 310h128l-34 -275l67 18l-8 -64l-66 -18l-26 -205h272z" />
    <glyph glyph-name="lslash" unicode="&#x142;" horiz-adv-x="288" 
d="M208 333l-29 -237q-4 -32 -4 -52q0 -28 8 -44h-128q-8 16 -8 44q0 20 4 52l24 202l-66 -18l8 64l66 18l42 342h128l-38 -307l67 18l-8 -64z" />
    <glyph glyph-name="Nacute" unicode="&#x143;" horiz-adv-x="720" 
d="M435 880h144l-162 -144h-80zM697 672l-82 -672h-128l-279 464l-57 -464h-128l82 672h128l279 -464l57 464h128z" />
    <glyph glyph-name="nacute" unicode="&#x144;" horiz-adv-x="576" 
d="M333 704h144l-161 -144h-80zM495 44q0 -28 8 -44h-128q-8 16 -8 44q0 20 4 52l21 176q2 22 2 29q0 43 -20.5 63t-63.5 20q-48 0 -84 -32.5t-44 -95.5l-31 -256h-128l61 496h128l-6 -48q31 32 68 48t90 16q76 0 118.5 -44t42.5 -130q0 -23 -3 -50l-23 -192q-4 -32 -4 -52z
" />
    <glyph glyph-name="Ncommaaccent" unicode="&#x145;" horiz-adv-x="720" 
d="M697 672l-82 -672h-128l-279 464l-57 -464h-128l82 672h128l279 -464l57 464h128zM255 -64h112l-96 -128h-64z" />
    <glyph glyph-name="ncommaaccent" unicode="&#x146;" horiz-adv-x="576" 
d="M495 44q0 -28 8 -44h-128q-8 16 -8 44q0 20 4 52l21 176q2 22 2 29q0 43 -20.5 63t-63.5 20q-48 0 -84 -32.5t-44 -95.5l-31 -256h-128l61 496h128l-6 -48q31 32 68 48t90 16q76 0 118.5 -44t42.5 -130q0 -23 -3 -50l-23 -192q-4 -32 -4 -52zM185 -64h112l-96 -128h-64z
" />
    <glyph glyph-name="Ncaron" unicode="&#x147;" horiz-adv-x="720" 
d="M595 880l-158 -144h-57l-121 144h112l47 -73l65 73h112zM697 672l-82 -672h-128l-279 464l-57 -464h-128l82 672h128l279 -464l57 464h128z" />
    <glyph glyph-name="ncaron" unicode="&#x148;" horiz-adv-x="576" 
d="M485 704l-157 -144h-57l-122 144h112l47 -73l65 73h112zM495 44q0 -28 8 -44h-128q-8 16 -8 44q0 20 4 52l21 176q2 22 2 29q0 43 -20.5 63t-63.5 20q-48 0 -84 -32.5t-44 -95.5l-31 -256h-128l61 496h128l-6 -48q31 32 68 48t90 16q76 0 118.5 -44t42.5 -130
q0 -23 -3 -50l-23 -192q-4 -32 -4 -52z" />
    <glyph glyph-name="Eng" unicode="&#x14a;" horiz-adv-x="720" 
d="M697 672l-82 -672q-19 -151 -88.5 -211.5t-153.5 -60.5l-18 112q51 0 86 37.5t44 106.5l2 16l-279 464l-57 -464h-128l82 672h128l279 -464l57 464h128z" />
    <glyph glyph-name="eng" unicode="&#x14b;" horiz-adv-x="576" 
d="M482.5 468q42.5 -44 42.5 -130q0 -23 -3 -50l-35 -288q-19 -151 -88.5 -211.5t-153.5 -60.5l-18 112q51 0 86 37.5t44 106.5l35 288q2 22 2 29q0 43 -20.5 63t-63.5 20q-48 0 -84 -32.5t-44 -95.5l-31 -256h-128l61 496h128l-6 -48q31 32 68 48t90 16q76 0 118.5 -44z
" />
    <glyph glyph-name="Omacron" unicode="&#x14c;" horiz-adv-x="768" 
d="M291 752l8 64h288l-8 -64h-288zM586.5 647q71.5 -41 112 -111.5t40.5 -156.5q0 -20 -3 -43q-12 -95 -69 -176t-144 -128.5t-182 -47.5q-88 0 -159.5 41t-112 111.5t-40.5 156.5q0 21 3 43q12 95 69 176t144 128.5t182 47.5q88 0 159.5 -41zM480.5 146.5
q58.5 34.5 94 92.5t35.5 125q0 54 -25.5 99t-71 71t-101.5 26q-66 0 -124.5 -34.5t-94 -92.5t-35.5 -125q0 -54 25.5 -99t71 -71t101.5 -26q66 0 124.5 34.5z" />
    <glyph glyph-name="omacron" unicode="&#x14d;" horiz-adv-x="592" 
d="M181 576l8 64h288l-8 -64h-288zM437.5 481.5q53.5 -30.5 83.5 -83.5t30 -117q0 -11 -2 -33q-9 -72 -51.5 -132.5t-107.5 -96t-137 -35.5q-66 0 -119.5 30.5t-84 83.5t-30.5 117q0 11 2 33q9 72 52 132.5t108 96t137 35.5q66 0 119.5 -30.5zM343 133q36 21 57.5 56
t21.5 75q0 51 -34 85.5t-86 34.5q-39 0 -75 -21t-57.5 -56t-21.5 -75q0 -51 34 -85.5t86 -34.5q39 0 75 21z" />
    <glyph glyph-name="Ohungarumlaut" unicode="&#x150;" horiz-adv-x="768" 
d="M329 864h120l-96 -128h-72zM553 864h120l-96 -128h-72zM586.5 647q71.5 -41 112 -111.5t40.5 -156.5q0 -20 -3 -43q-12 -95 -69 -176t-144 -128.5t-182 -47.5q-88 0 -159.5 41t-112 111.5t-40.5 156.5q0 21 3 43q12 95 69 176t144 128.5t182 47.5q88 0 159.5 -41z
M480.5 146.5q58.5 34.5 94 92.5t35.5 125q0 54 -25.5 99t-71 71t-101.5 26q-66 0 -124.5 -34.5t-94 -92.5t-35.5 -125q0 -54 25.5 -99t71 -71t101.5 -26q66 0 124.5 34.5z" />
    <glyph glyph-name="ohungarumlaut" unicode="&#x151;" horiz-adv-x="592" 
d="M219 688h120l-95 -128h-72zM443 688h120l-95 -128h-72zM437.5 481.5q53.5 -30.5 83.5 -83.5t30 -117q0 -11 -2 -33q-9 -72 -51.5 -132.5t-107.5 -96t-137 -35.5q-66 0 -119.5 30.5t-84 83.5t-30.5 117q0 11 2 33q9 72 52 132.5t108 96t137 35.5q66 0 119.5 -30.5z
M343 133q36 21 57.5 56t21.5 75q0 51 -34 85.5t-86 34.5q-39 0 -75 -21t-57.5 -56t-21.5 -75q0 -51 34 -85.5t86 -34.5q39 0 75 21z" />
    <glyph glyph-name="OE" unicode="&#x152;" horiz-adv-x="1072" 
d="M762 544l-18 -144h240l-16 -128h-240l-18 -144h288l-15 -128h-416l8 65q-52 -39 -111.5 -60t-122.5 -21q-88 0 -159.5 41t-112 111.5t-40.5 156.5q0 21 3 43q12 95 69 176t144 128.5t182 47.5q63 0 118 -21t96 -60l8 65h416l-15 -128h-288zM480.5 146.5
q58.5 34.5 94 92.5t35.5 125q0 54 -25.5 99t-71 71t-101.5 26q-66 0 -124.5 -34.5t-94 -92.5t-35.5 -125q0 -54 25.5 -99t71 -71t101.5 -26q66 0 124.5 34.5z" />
    <glyph glyph-name="oe" unicode="&#x153;" horiz-adv-x="960" 
d="M910 208h-361q8 -51 42 -81.5t92 -30.5q39 0 79.5 12t73.5 34l24 -111q0 -1 -27 -13.5t-70 -23t-96 -10.5q-146 0 -209 86q-41 -40 -94.5 -63t-110.5 -23q-66 0 -119.5 30.5t-84 83.5t-30.5 117q0 11 2 33q9 72 52 132.5t108 96t137 35.5q56 0 103.5 -22t78.5 -62
q81 84 210 84q103 0 157 -55t54 -156q0 -15 -4 -53q-1 -16 -7 -40zM788 304q3 22 -7 44t-33.5 37t-59.5 15q-30 0 -58 -15t-45.5 -37.5t-20.5 -43.5h224zM343 133q36 21 57.5 56t21.5 75q0 51 -34 85.5t-86 34.5q-39 0 -75 -21t-57.5 -56t-21.5 -75q0 -51 34 -85.5t86 -34.5
q39 0 75 21z" />
    <glyph glyph-name="Racute" unicode="&#x154;" horiz-adv-x="608" 
d="M347 880h144l-162 -144h-80zM379 0l-124 224h-77l-27 -224h-128l82 672h240q115 0 173 -51t58 -138q0 -11 -2 -35q-9 -73 -57.5 -132.5t-123.5 -81.5l142 -234h-156zM194 352h128q51 0 88 31.5t37 77.5q0 39 -28 61t-73 22h-128z" />
    <glyph glyph-name="racute" unicode="&#x155;" horiz-adv-x="432" 
d="M245 704h144l-161 -144h-80zM289 476.5q60 30.5 133 35.5l-19 -151q-22 6 -48 6q-25 0 -48 -6q-47 -13 -85 -52.5t-46 -100.5l-25 -208h-128l61 496h128l-13 -105q30 55 90 85.5z" />
    <glyph glyph-name="Rcommaaccent" unicode="&#x156;" horiz-adv-x="608" 
d="M379 0l-124 224h-77l-27 -224h-128l82 672h240q115 0 173 -51t58 -138q0 -11 -2 -35q-9 -73 -57.5 -132.5t-123.5 -81.5l142 -234h-156zM194 352h128q51 0 88 31.5t37 77.5q0 39 -28 61t-73 22h-128zM183 -64h112l-96 -128h-64z" />
    <glyph glyph-name="rcommaaccent" unicode="&#x157;" horiz-adv-x="432" 
d="M289 476.5q60 30.5 133 35.5l-19 -151q-22 6 -48 6q-25 0 -48 -6q-47 -13 -85 -52.5t-46 -100.5l-25 -208h-128l61 496h128l-13 -105q30 55 90 85.5zM31 -64h112l-96 -128h-64z" />
    <glyph glyph-name="Rcaron" unicode="&#x158;" horiz-adv-x="608" 
d="M507 880l-158 -144h-57l-121 144h112l47 -73l65 73h112zM379 0l-124 224h-77l-27 -224h-128l82 672h240q115 0 173 -51t58 -138q0 -11 -2 -35q-9 -73 -57.5 -132.5t-123.5 -81.5l142 -234h-156zM194 352h128q51 0 88 31.5t37 77.5q0 39 -28 61t-73 22h-128z" />
    <glyph glyph-name="rcaron" unicode="&#x159;" horiz-adv-x="432" 
d="M429 704l-157 -144h-57l-122 144h112l47 -73l65 73h112zM289 476.5q60 30.5 133 35.5l-19 -151q-22 6 -48 6q-25 0 -48 -6q-47 -13 -85 -52.5t-46 -100.5l-25 -208h-128l61 496h128l-13 -105q30 55 90 85.5z" />
    <glyph glyph-name="Sacute" unicode="&#x15a;" horiz-adv-x="608" 
d="M387 880h144l-162 -144h-80zM502 351q59 -38 59 -120q0 -9 -2 -31q-7 -61 -44 -110t-101.5 -77.5t-150.5 -28.5q-109 0 -169.5 38t-90.5 74l77 112q36 -47 91.5 -71.5t108.5 -24.5q69 0 110 24.5t41 63.5q0 31 -31.5 49t-94.5 27q-125 20 -179.5 63.5t-54.5 113.5
q0 62 35 116t100 86.5t151 32.5q46 0 104.5 -15.5t115.5 -66.5l-67 -110q-23 21 -65.5 42.5t-104.5 21.5q-60 0 -99 -19.5t-39 -62.5q0 -28 29 -43t98 -27q114 -19 173 -57z" />
    <glyph glyph-name="sacute" unicode="&#x15b;" horiz-adv-x="512" 
d="M317 704h144l-161 -144h-80zM419.5 264q39.5 -35 39.5 -83q0 -56 -29.5 -101t-84 -70.5t-126.5 -25.5q-78 0 -137.5 24t-83.5 48l56 120q29 -31 78.5 -50.5t95.5 -19.5t73.5 11.5t27.5 35.5q0 14 -18 21.5t-65 15.5q-112 18 -154.5 52.5t-42.5 89.5q0 8 2 28q5 40 37 75
t84 56t115 21q42 0 91 -11t96 -37l-51 -116q-19 16 -64.5 29t-93.5 13q-39 0 -62.5 -8.5t-23.5 -24.5t20 -23.5t45.5 -11.5t34.5 -6q101 -17 140.5 -52z" />
    <glyph glyph-name="Scedilla" unicode="&#x15e;" horiz-adv-x="608" 
d="M481 53.5q-68 -59.5 -182 -68.5l-37 -33q6 1 16 1q47 0 78.5 -27t31.5 -72q0 -9 -1 -14q-5 -40 -30 -73t-64 -52t-84 -19q-84 0 -120 63l62 61q6 -23 22.5 -37.5t43.5 -14.5q48 0 75.5 25t27.5 56q0 25 -20 40t-49 15q-38 0 -64 -16l-28 48l57 51q-89 9 -138.5 43.5
t-74.5 65.5l77 112q36 -47 91.5 -71.5t108.5 -24.5q69 0 110 24.5t41 63.5q0 31 -31.5 49t-94.5 27q-125 20 -179.5 63.5t-54.5 113.5q0 62 35 116t100 86.5t151 32.5q46 0 104.5 -15.5t115.5 -66.5l-67 -110q-23 21 -65.5 42.5t-104.5 21.5q-60 0 -99 -19.5t-39 -62.5
q0 -28 29 -43t98 -27q114 -19 173 -57t59 -120q0 -9 -2 -31q-10 -87 -78 -146.5z" />
    <glyph glyph-name="scedilla" unicode="&#x15f;" horiz-adv-x="512" 
d="M397.5 43.5q-52.5 -47.5 -137.5 -57.5l-38 -34q6 1 16 1q47 0 78.5 -27t31.5 -72q0 -9 -1 -14q-5 -40 -30 -73t-64 -52t-84 -19q-84 0 -120 63l62 61q6 -23 22.5 -37.5t43.5 -14.5q48 0 75.5 25t27.5 56q0 25 -20 40t-49 15q-38 0 -64 -16l-28 48l56 50
q-62 7 -109.5 28.5t-67.5 41.5l56 120q29 -31 78.5 -50.5t95.5 -19.5t73.5 11.5t27.5 35.5q0 14 -18 21.5t-65 15.5q-112 18 -154.5 52.5t-42.5 89.5q0 8 2 28q5 40 37 75t84 56t115 21q42 0 91 -11t96 -37l-51 -116q-19 16 -64.5 29t-93.5 13q-39 0 -62.5 -8.5t-23.5 -24.5
t20 -23.5t45.5 -11.5t34.5 -6q101 -17 140.5 -52t39.5 -83q0 -14 -1 -21q-8 -69 -60.5 -116.5z" />
    <glyph glyph-name="Scaron" unicode="&#x160;" horiz-adv-x="608" 
d="M539 880l-158 -144h-57l-121 144h112l47 -73l65 73h112zM502 351q59 -38 59 -120q0 -9 -2 -31q-7 -61 -44 -110t-101.5 -77.5t-150.5 -28.5q-109 0 -169.5 38t-90.5 74l77 112q36 -47 91.5 -71.5t108.5 -24.5q69 0 110 24.5t41 63.5q0 31 -31.5 49t-94.5 27
q-125 20 -179.5 63.5t-54.5 113.5q0 62 35 116t100 86.5t151 32.5q46 0 104.5 -15.5t115.5 -66.5l-67 -110q-23 21 -65.5 42.5t-104.5 21.5q-60 0 -99 -19.5t-39 -62.5q0 -28 29 -43t98 -27q114 -19 173 -57z" />
    <glyph glyph-name="scaron" unicode="&#x161;" horiz-adv-x="512" 
d="M469 704l-157 -144h-57l-122 144h112l47 -73l65 73h112zM419.5 264q39.5 -35 39.5 -83q0 -56 -29.5 -101t-84 -70.5t-126.5 -25.5q-78 0 -137.5 24t-83.5 48l56 120q29 -31 78.5 -50.5t95.5 -19.5t73.5 11.5t27.5 35.5q0 14 -18 21.5t-65 15.5q-112 18 -154.5 52.5
t-42.5 89.5q0 8 2 28q5 40 37 75t84 56t115 21q42 0 91 -11t96 -37l-51 -116q-19 16 -64.5 29t-93.5 13q-39 0 -62.5 -8.5t-23.5 -24.5t20 -23.5t45.5 -11.5t34.5 -6q101 -17 140.5 -52z" />
    <glyph glyph-name="uni0162" unicode="&#x162;" horiz-adv-x="544" 
d="M276 0l-54 -48q6 1 16 1q47 0 78.5 -27t31.5 -72q0 -9 -1 -14q-5 -40 -30 -73t-64 -52t-84 -19q-84 0 -120 63l62 61q6 -23 22.5 -37.5t43.5 -14.5q48 0 75.5 25t27.5 56q0 25 -20 40t-49 15q-38 0 -64 -16l-28 48l72 64h-24l67 544h-176l15 128h480l-15 -128h-176
l-67 -544h-19z" />
    <glyph glyph-name="uni0163" unicode="&#x163;" horiz-adv-x="368" 
d="M166 -47q47 0 78.5 -27t31.5 -72q0 -9 -1 -14q-5 -40 -30 -73t-64 -52t-84 -19q-84 0 -120 63l62 61q6 -23 22.5 -37.5t43.5 -14.5q48 0 75.5 25t27.5 56q0 25 -20 40t-49 15q-38 0 -64 -16l-28 48l72 64q-49 29 -49 108q0 9 2 33l30 243h-64l14 112h64l21 176h128
l-21 -176h96l-14 -112h-96l-26 -208q-1 -8 -1 -22q0 -27 10.5 -38t31.5 -11q16 0 47 7l-13 -112q-40 -16 -93 -16l-36 -32q6 1 16 1z" />
    <glyph glyph-name="Tcaron" unicode="&#x164;" horiz-adv-x="544" 
d="M507 880l-158 -144h-57l-121 144h112l47 -73l65 73h112zM553 672l-15 -128h-176l-67 -544h-128l67 544h-176l15 128h480z" />
    <glyph glyph-name="tcaron" unicode="&#x165;" horiz-adv-x="528" 
d="M102 384h-64l14 112h64l21 176h128l-21 -176h96l-14 -112h-96l-26 -208q-1 -8 -1 -22q0 -27 10.5 -38t31.5 -11q16 0 47 7l-13 -112q-42 -16 -96 -16q-57 0 -85 32.5t-28 90.5q0 10 2 34zM425 672h112l-95 -128h-64z" />
    <glyph glyph-name="Tbar" unicode="&#x166;" horiz-adv-x="544" 
d="M362 544l-25 -200h64l-8 -64h-64l-34 -280h-128l34 280h-64l8 64h64l25 200h-176l15 128h480l-15 -128h-176z" />
    <glyph glyph-name="tbar" unicode="&#x167;" horiz-adv-x="368" 
d="M230 384l-10 -80h96l-8 -64h-96l-8 -64q-1 -8 -1 -22q0 -27 10.5 -38t31.5 -11q16 0 47 7l-13 -112q-42 -16 -96 -16q-57 0 -85 32.5t-28 90.5q0 10 2 34l12 99h-64l8 64h64l10 80h-64l14 112h64l21 176h128l-21 -176h96l-14 -112h-96z" />
    <glyph glyph-name="Umacron" unicode="&#x16a;" horiz-adv-x="640" 
d="M227 752l8 64h288l-8 -64h-288zM633 672l-47 -384q-11 -89 -52 -158t-107 -107.5t-150 -38.5q-115 0 -177 67.5t-62 181.5q0 17 4 55l47 384h128l-49 -400q-2 -18 -2 -25q0 -61 35.5 -98t90.5 -37q40 0 75.5 20t59 56.5t29.5 83.5l49 400h128z" />
    <glyph glyph-name="umacron" unicode="&#x16b;" horiz-adv-x="576" 
d="M173 576l8 64h288l-8 -64h-288zM359 0q-10 18 -8 48q-31 -32 -68.5 -48t-91.5 -16q-77 0 -119.5 44.5t-42.5 131.5q0 23 3 48l36 288h128l-34 -272q-2 -20 -2 -28q0 -43 20.5 -63.5t63.5 -20.5q48 0 84 32.5t44 95.5l32 256h128l-49 -400q-4 -32 -4 -52q0 -28 8 -44h-128
z" />
    <glyph glyph-name="Uring" unicode="&#x16e;" horiz-adv-x="640" 
d="M471 914q30 -30 30 -75q0 -36 -19 -67t-50.5 -49.5t-66.5 -18.5q-45 0 -75.5 30.5t-30.5 74.5q0 36 19 67t50.5 49.5t66.5 18.5q46 0 76 -30zM417 787q19 19 19 44q0 21 -13.5 35t-35.5 14q-25 0 -44 -19t-19 -44q0 -21 13.5 -35t35.5 -14q25 0 44 19zM633 672l-47 -384
q-11 -89 -52 -158t-107 -107.5t-150 -38.5q-115 0 -177 67.5t-62 181.5q0 17 4 55l47 384h128l-49 -400q-2 -18 -2 -25q0 -61 35.5 -98t90.5 -37q40 0 75.5 20t59 56.5t29.5 83.5l49 400h128z" />
    <glyph glyph-name="uring" unicode="&#x16f;" horiz-adv-x="576" 
d="M417 738q30 -30 30 -75q0 -36 -19 -67t-50 -49.5t-66 -18.5q-46 0 -76.5 30.5t-30.5 75.5q0 35 19 66t50.5 49.5t66.5 18.5q46 0 76 -30zM363 611q19 19 19 44q0 21 -13.5 35t-35.5 14q-25 0 -44 -18.5t-19 -43.5q0 -21 14 -35.5t35 -14.5q25 0 44 19zM359 0
q-10 18 -8 48q-31 -32 -68.5 -48t-91.5 -16q-77 0 -119.5 44.5t-42.5 131.5q0 23 3 48l36 288h128l-34 -272q-2 -20 -2 -28q0 -43 20.5 -63.5t63.5 -20.5q48 0 84 32.5t44 95.5l32 256h128l-49 -400q-4 -32 -4 -52q0 -28 8 -44h-128z" />
    <glyph glyph-name="Uhungarumlaut" unicode="&#x170;" horiz-adv-x="640" 
d="M257 864h120l-96 -128h-72zM481 864h120l-96 -128h-72zM633 672l-47 -384q-11 -89 -52 -158t-107 -107.5t-150 -38.5q-115 0 -177 67.5t-62 181.5q0 17 4 55l47 384h128l-49 -400q-2 -18 -2 -25q0 -61 35.5 -98t90.5 -37q40 0 75.5 20t59 56.5t29.5 83.5l49 400h128z" />
    <glyph glyph-name="uhungarumlaut" unicode="&#x171;" horiz-adv-x="576" 
d="M195 688h120l-95 -128h-72zM419 688h120l-95 -128h-72zM359 0q-10 18 -8 48q-31 -32 -68.5 -48t-91.5 -16q-77 0 -119.5 44.5t-42.5 131.5q0 23 3 48l36 288h128l-34 -272q-2 -20 -2 -28q0 -43 20.5 -63.5t63.5 -20.5q48 0 84 32.5t44 95.5l32 256h128l-49 -400
q-4 -32 -4 -52q0 -28 8 -44h-128z" />
    <glyph glyph-name="Uogonek" unicode="&#x172;" horiz-adv-x="640" 
d="M633 672l-47 -384q-15 -123 -85 -204t-179 -97q-15 -1 -28.5 -16t-20.5 -34q-5 -17 -5 -28q0 -25 14.5 -39t36.5 -14q19 0 39 10l9 -58q-26 -16 -60 -16q-51 0 -77.5 28.5t-26.5 75.5q0 13 1 20q2 17 10.5 37t19.5 34q-96 12 -146 77.5t-50 168.5q0 17 4 55l47 384h128
l-49 -400q-2 -18 -2 -25q0 -61 35.5 -98t90.5 -37q40 0 75.5 20t59 56.5t29.5 83.5l49 400h128z" />
    <glyph glyph-name="uogonek" unicode="&#x173;" horiz-adv-x="576" 
d="M369 -94q0 -14 1.5 -24.5t-1.5 -2.5q5 -12 15 -18.5t25 -6.5q21 0 45 12l9 -58q-26 -16 -60 -16q-51 0 -77.5 28.5t-26.5 75.5q0 36 17.5 66t38.5 47q-4 11 -4 39q-31 -32 -68.5 -48t-91.5 -16q-77 0 -119.5 44.5t-42.5 131.5q0 23 3 48l36 288h128l-34 -272
q-2 -20 -2 -28q0 -43 20.5 -63.5t63.5 -20.5q48 0 84 32.5t44 95.5l32 256h128l-49 -400q-4 -32 -4 -52q0 -28 8 -44h-16q-10 0 -27 -8t-31 -16q-18 -11 -22 -11q-2 0 -2 2q0 3 -13 -18q-7 -25 -7 -43z" />
    <glyph glyph-name="Wcircumflex" unicode="&#x174;" horiz-adv-x="992" 
d="M554 809l-65 -73h-112l157 144h57l122 -144h-112zM666 224l215 448h144l-322 -672h-128l-69 416l-171 -416h-128l-158 672h144l105 -448l183 448h112z" />
    <glyph glyph-name="wcircumflex" unicode="&#x175;" horiz-adv-x="768" 
d="M420 633l-64 -73h-112l156 144h57l123 -144h-112zM780 496l-229 -496h-116l-59 272l-125 -272h-116l-107 496h144l48 -320l136 320h96l56 -320l128 320h144z" />
    <glyph glyph-name="Ycircumflex" unicode="&#x176;" horiz-adv-x="608" 
d="M362 809l-65 -73h-112l157 144h57l122 -144h-112zM649 672l-289 -400l-33 -272h-128l33 272l-191 400h152l119 -272l185 272h152z" />
    <glyph glyph-name="ycircumflex" unicode="&#x177;" horiz-adv-x="528" 
d="M300 633l-64 -73h-112l156 144h57l123 -144h-112zM548 496l-413 -752h-144l164 292l-135 460h144l84 -292l156 292h144z" />
    <glyph glyph-name="Ydieresis" unicode="&#x178;" horiz-adv-x="608" 
d="M216.5 752q-15.5 16 -15.5 40q0 30 21.5 51t50.5 21q25 0 40.5 -16t15.5 -40q0 -30 -21.5 -51t-50.5 -21q-25 0 -40.5 16zM408.5 752q-15.5 16 -15.5 40q0 30 21.5 51t50.5 21q25 0 40.5 -16t15.5 -40q0 -30 -21.5 -51t-50.5 -21q-25 0 -40.5 16zM649 672l-289 -400
l-33 -272h-128l33 272l-191 400h152l119 -272l185 272h152z" />
    <glyph glyph-name="Zacute" unicode="&#x179;" horiz-adv-x="608" 
d="M379 880h144l-162 -144h-80zM-9 0l387 544h-304l15 128h528l-387 -544h304l-15 -128h-528z" />
    <glyph glyph-name="zacute" unicode="&#x17a;" horiz-adv-x="496" 
d="M309 704h144l-161 -144h-80zM-9 0l261 368h-200l16 128h416l-262 -368h200l-15 -128h-416z" />
    <glyph glyph-name="Zdotaccent" unicode="&#x17b;" horiz-adv-x="608" 
d="M300 740.5q-20 20.5 -20 50.5q0 36 27.5 62.5t63.5 26.5q31 0 51 -20.5t20 -50.5q0 -36 -27.5 -62.5t-63.5 -26.5q-31 0 -51 20.5zM-9 0l387 544h-304l15 128h528l-387 -544h304l-15 -128h-528z" />
    <glyph glyph-name="zdotaccent" unicode="&#x17c;" horiz-adv-x="496" 
d="M222.5 564.5q-20.5 20.5 -20.5 50.5q0 36 27.5 62.5t63.5 26.5q30 0 50.5 -20t20.5 -49q0 -36 -27 -63.5t-63 -27.5q-31 0 -51.5 20.5zM-9 0l261 368h-200l16 128h416l-262 -368h200l-15 -128h-416z" />
    <glyph glyph-name="Zcaron" unicode="&#x17d;" horiz-adv-x="608" 
d="M539 880l-158 -144h-57l-121 144h112l47 -73l65 73h112zM-9 0l387 544h-304l15 128h528l-387 -544h304l-15 -128h-528z" />
    <glyph glyph-name="zcaron" unicode="&#x17e;" horiz-adv-x="496" 
d="M461 704l-157 -144h-57l-122 144h112l47 -73l65 73h112zM-9 0l261 368h-200l16 128h416l-262 -368h200l-15 -128h-416z" />
    <glyph glyph-name="Aringacute" unicode="&#x1fa;" horiz-adv-x="672" 
d="M448 1120h144l-161 -144h-80zM487 914q30 -30 30 -75q0 -36 -19 -67t-50.5 -49.5t-66.5 -18.5q-45 0 -75.5 30.5t-30.5 74.5q0 36 19 67t50.5 49.5t66.5 18.5q46 0 76 -30zM433 787q19 19 19 44q0 21 -13.5 35t-35.5 14q-25 0 -44 -19t-19 -44q0 -21 13.5 -35t35.5 -14
q25 0 44 19zM452 128h-284l-65 -128h-144l360 672h116l196 -672h-144zM419 256l-63 240l-123 -240h186z" />
    <glyph glyph-name="aringacute" unicode="&#x1fb;" 
d="M427 944h144l-162 -144h-80zM465 738q30 -30 30 -75q0 -36 -19 -67t-50 -49.5t-66 -18.5q-46 0 -76.5 30.5t-30.5 75.5q0 35 19 66t50.5 49.5t66.5 18.5q46 0 76 -30zM411 611q19 19 19 44q0 21 -13.5 35t-35.5 14q-25 0 -44 -18.5t-19 -43.5q0 -21 14 -35.5t35 -14.5
q25 0 44 19zM407 0q-9 16 -9 52q-68 -68 -161 -68q-62 0 -112 30t-78 82.5t-28 116.5q0 11 2 35q9 72 50 132.5t102.5 96t128.5 35.5q92 0 143 -69l7 53h128l-49 -400q-4 -32 -4 -52q0 -28 8 -44h-128zM343 133q36 21 57.5 56t21.5 75q0 51 -34 85.5t-86 34.5q-39 0 -75 -21
t-57.5 -56t-21.5 -75q0 -51 34 -85.5t86 -34.5q39 0 75 21z" />
    <glyph glyph-name="AEacute" unicode="&#x1fc;" horiz-adv-x="832" 
d="M523 880h144l-162 -144h-80zM522 544l-18 -144h240l-16 -128h-240l-18 -144h288l-15 -128h-416l15 128h-166l-73 -128h-144l394 672h472l-15 -128h-288zM358 256l29 236l-136 -236h107z" />
    <glyph glyph-name="aeacute" unicode="&#x1fd;" horiz-adv-x="896" 
d="M501 704h144l-161 -144h-80zM846 208h-361q8 -51 42 -81.5t92 -30.5q39 0 79.5 12t73.5 34l24 -111q0 -1 -27 -13.5t-70 -23t-96 -10.5q-87 0 -146 32l-2 -16h-128l4 32q-30 -22 -72.5 -35t-87.5 -13q-75 0 -118.5 42t-43.5 106q0 15 1 23q9 94 104 140q51 24 137 24
q49 0 112 -9q1 5 1 13q0 39 -27 59.5t-72 20.5q-37 0 -72 -10t-60 -22.5t-25 -13.5l-33 93q0 2 33 18t80 30t98 14q128 0 175 -61q75 61 185 61q103 0 157 -55t54 -156q0 -15 -4 -53q-1 -16 -7 -40zM724 304q3 22 -7 44t-33.5 37t-59.5 15q-30 0 -58 -15t-45.5 -37.5
t-20.5 -43.5h224zM354 224l-39 4q-27 3 -49 3q-66 0 -97 -20t-35 -51q-3 -29 20.5 -46.5t65.5 -17.5q41 0 82 20t45 45z" />
    <glyph glyph-name="Scommaaccent" unicode="&#x218;" horiz-adv-x="608" 
d="M502 351q59 -38 59 -120q0 -9 -2 -31q-7 -61 -44 -110t-101.5 -77.5t-150.5 -28.5q-109 0 -169.5 38t-90.5 74l77 112q36 -47 91.5 -71.5t108.5 -24.5q69 0 110 24.5t41 63.5q0 31 -31.5 49t-94.5 27q-125 20 -179.5 63.5t-54.5 113.5q0 62 35 116t100 86.5t151 32.5
q46 0 104.5 -15.5t115.5 -66.5l-67 -110q-23 21 -65.5 42.5t-104.5 21.5q-60 0 -99 -19.5t-39 -62.5q0 -28 29 -43t98 -27q114 -19 173 -57zM207 -64h112l-96 -128h-64z" />
    <glyph glyph-name="scommaaccent" unicode="&#x219;" horiz-adv-x="512" 
d="M419.5 264q39.5 -35 39.5 -83q0 -56 -29.5 -101t-84 -70.5t-126.5 -25.5q-78 0 -137.5 24t-83.5 48l56 120q29 -31 78.5 -50.5t95.5 -19.5t73.5 11.5t27.5 35.5q0 14 -18 21.5t-65 15.5q-112 18 -154.5 52.5t-42.5 89.5q0 8 2 28q5 40 37 75t84 56t115 21q42 0 91 -11
t96 -37l-51 -116q-19 16 -64.5 29t-93.5 13q-39 0 -62.5 -8.5t-23.5 -24.5t20 -23.5t45.5 -11.5t34.5 -6q101 -17 140.5 -52zM151 -64h112l-96 -128h-64z" />
    <glyph glyph-name="uni021A" unicode="&#x21a;" horiz-adv-x="544" 
d="M553 672l-15 -128h-176l-67 -544h-128l67 544h-176l15 128h480zM167 -64h112l-96 -128h-64z" />
    <glyph glyph-name="uni021B" unicode="&#x21b;" horiz-adv-x="368" 
d="M102 384h-64l14 112h64l21 176h128l-21 -176h96l-14 -112h-96l-26 -208q-1 -8 -1 -22q0 -27 10.5 -38t31.5 -11q16 0 47 7l-13 -112q-42 -16 -96 -16q-57 0 -85 32.5t-28 90.5q0 10 2 34zM79 -64h112l-96 -128h-64z" />
    <glyph glyph-name="circumflex" unicode="&#x2c6;" horiz-adv-x="800" 
d="M458 809l-65 -73h-112l157 144h57l122 -144h-112z" />
    <glyph glyph-name="caron" unicode="&#x2c7;" horiz-adv-x="800" 
d="M635 880l-158 -144h-57l-121 144h112l47 -73l65 73h112z" />
    <glyph glyph-name="breve" unicode="&#x2d8;" horiz-adv-x="800" 
d="M611 880q-5 -39 -28.5 -72t-59 -52.5t-74.5 -19.5q-55 0 -91 36t-36 90q0 12 1 18h68q-4 -32 15.5 -54t50.5 -22q32 0 57 22.5t29 53.5h68z" />
    <glyph glyph-name="dotaccent" unicode="&#x2d9;" horiz-adv-x="800" 
d="M396 740.5q-20 20.5 -20 50.5q0 36 27.5 62.5t63.5 26.5q31 0 51 -20.5t20 -50.5q0 -36 -27.5 -62.5t-63.5 -26.5q-31 0 -51 20.5z" />
    <glyph glyph-name="ring" unicode="&#x2da;" horiz-adv-x="800" 
d="M551 914q30 -30 30 -75q0 -36 -19 -67t-50.5 -49.5t-66.5 -18.5q-45 0 -75.5 30.5t-30.5 74.5q0 36 19 67t50.5 49.5t66.5 18.5q46 0 76 -30zM497 787q19 19 19 44q0 21 -13.5 35t-35.5 14q-25 0 -44 -19t-19 -44q0 -21 13.5 -35t35.5 -14q25 0 44 19z" />
    <glyph glyph-name="ogonek" unicode="&#x2db;" horiz-adv-x="800" 
d="M447 0q-27 0 -54 -14t-41 -37q-12 -18 -12 -40q0 -25 14.5 -39t36.5 -14q19 0 39 10l9 -58q-26 -16 -60 -16q-51 0 -77.5 28.5t-26.5 75.5q0 13 1 20q3 22 15.5 47.5t27.5 36.5h128z" />
    <glyph glyph-name="tilde" unicode="&#x2dc;" horiz-adv-x="800" 
d="M651 816q-28 -45 -60 -62.5t-68 -17.5q-20 0 -36.5 5t-39.5 14q-41 17 -63 17q-35 0 -59 -36l-65 25q51 79 130 79q20 0 34.5 -4t37.5 -14q39 -17 64 -17q36 0 60 36z" />
    <glyph glyph-name="hungarumlaut" unicode="&#x2dd;" horiz-adv-x="800" 
d="M325 864h120l-96 -128h-72zM549 864h120l-96 -128h-72z" />
    <glyph glyph-name="Alphatonos" unicode="&#x386;" horiz-adv-x="672" 
d="M452 128h-284l-65 -128h-144l360 672h116l196 -672h-144zM105 672h112l-95 -128h-64zM419 256l-63 240l-123 -240h186z" />
    <glyph glyph-name="Epsilontonos" unicode="&#x388;" horiz-adv-x="672" 
d="M105 672h112l-95 -128h-64zM362 544l-18 -144h240l-16 -128h-240l-18 -144h288l-15 -128h-416l82 672h416l-15 -128h-288z" />
    <glyph glyph-name="Etatonos" unicode="&#x389;" horiz-adv-x="816" 
d="M105 672h112l-95 -128h-64zM793 672l-82 -672h-128l33 272h-288l-33 -272h-128l82 672h128l-33 -272h288l33 272h128z" />
    <glyph glyph-name="Iotatonos" unicode="&#x38a;" horiz-adv-x="400" 
d="M105 672h112l-95 -128h-64zM167 0l82 672h128l-82 -672h-128z" />
    <glyph glyph-name="Omicrontonos" unicode="&#x38c;" horiz-adv-x="848" 
d="M666.5 647q71.5 -41 112 -111.5t40.5 -156.5q0 -20 -3 -43q-12 -95 -69 -176t-144 -128.5t-182 -47.5q-88 0 -159.5 41t-112 111.5t-40.5 156.5q0 21 3 43q12 95 69 176t144 128.5t182 47.5q88 0 159.5 -41zM105 672h112l-95 -128h-64zM560.5 146.5q58.5 34.5 94 92.5
t35.5 125q0 54 -25.5 99t-71 71t-101.5 26q-66 0 -124.5 -34.5t-94 -92.5t-35.5 -125q0 -54 25.5 -99t71 -71t101.5 -26q66 0 124.5 34.5z" />
    <glyph glyph-name="Upsilontonos" unicode="&#x38e;" horiz-adv-x="816" 
d="M105 672h112l-95 -128h-64zM857 672l-289 -400l-33 -272h-128l33 272l-191 400h152l119 -272l185 272h152z" />
    <glyph glyph-name="Omegatonos" unicode="&#x38f;" horiz-adv-x="816" 
d="M721 251q-45 -71 -112 -123h133l-15 -128h-288l17 144q73 45 127.5 109.5t62.5 130.5q2 18 2 26q0 73 -49.5 111.5t-122.5 38.5q-51 0 -97 -19.5t-78 -59t-39 -97.5q-1 -7 -1 -22q0 -61 37.5 -118.5t93.5 -99.5l-17 -144h-288l15 128h133q-48 46 -75 107t-27 124
q0 11 2 33q10 79 55 146.5t122.5 108.5t178.5 41q93 0 157.5 -34.5t96.5 -93t32 -129.5q0 -26 -2 -39q-9 -70 -54 -141zM105 672h112l-95 -128h-64z" />
    <glyph glyph-name="iotadieresistonos" unicode="&#x390;" horiz-adv-x="288" 
d="M-29 576q-16 16 -16 41q0 29 21.5 50t50.5 21q25 0 41 -15.5t16 -39.5q0 -30 -21.5 -51.5t-50.5 -21.5q-25 0 -41 16zM155 688h112l-95 -128h-64zM291 576q-16 16 -16 41q0 29 21.5 50t50.5 21q25 0 41 -15.5t16 -39.5q0 -30 -21.5 -51.5t-50.5 -21.5q-25 0 -41 16z
M171 168q-2 -18 -2 -24q0 -19 7 -27t23 -8q13 0 29 3l-13 -112q-16 -8 -32.5 -12t-43.5 -4q-48 0 -74 31t-26 94q0 23 3 48l42 339h128z" />
    <glyph glyph-name="Alpha" unicode="&#x391;" horiz-adv-x="672" 
d="M452 128h-284l-65 -128h-144l360 672h116l196 -672h-144zM419 256l-63 240l-123 -240h186z" />
    <glyph glyph-name="Beta" unicode="&#x392;" 
d="M555 312.5q23 -35.5 23 -84.5q0 -8 -2 -26q-8 -58 -41 -104t-88.5 -72t-125.5 -26h-298l82 672h240q112 0 174.5 -37t62.5 -114q0 -57 -28.5 -99.5t-71.5 -60.5q50 -13 73 -48.5zM202 416h120q62 0 95.5 18t33.5 55q0 31 -28 43t-85 12h-120zM410.5 152.5
q39.5 24.5 39.5 75.5q0 38 -33.5 57t-92.5 19h-136l-22 -176h136q69 0 108.5 24.5z" />
    <glyph glyph-name="Gamma" unicode="&#x393;" horiz-adv-x="512" 
d="M218 544l-67 -544h-128l82 672h416l-15 -128h-288z" />
    <glyph glyph-name="uni0394" unicode="&#x394;" horiz-adv-x="672" 
d="M631 0h-672l360 672h116zM452 128l-96 368l-188 -368h284z" />
    <glyph glyph-name="Epsilon" unicode="&#x395;" horiz-adv-x="528" 
d="M218 544l-18 -144h240l-16 -128h-240l-18 -144h288l-15 -128h-416l82 672h416l-15 -128h-288z" />
    <glyph glyph-name="Zeta" unicode="&#x396;" horiz-adv-x="608" 
d="M-9 0l387 544h-304l15 128h528l-387 -544h304l-15 -128h-528z" />
    <glyph glyph-name="Eta" unicode="&#x397;" horiz-adv-x="672" 
d="M649 672l-82 -672h-128l33 272h-288l-33 -272h-128l82 672h128l-33 -272h288l33 272h128z" />
    <glyph glyph-name="Theta" unicode="&#x398;" horiz-adv-x="768" 
d="M586.5 647q71.5 -41 112 -111.5t40.5 -156.5q0 -20 -3 -43q-12 -95 -69 -176t-144 -128.5t-182 -47.5q-88 0 -159.5 41t-112 111.5t-40.5 156.5q0 21 3 43q12 95 69 176t144 128.5t182 47.5q88 0 159.5 -41zM480.5 146.5q58.5 34.5 94 92.5t35.5 125q0 54 -25.5 99
t-71 71t-101.5 26q-66 0 -124.5 -34.5t-94 -92.5t-35.5 -125q0 -54 25.5 -99t71 -71t101.5 -26q66 0 124.5 34.5zM212 368h352l-8 -64h-352z" />
    <glyph glyph-name="Iota" unicode="&#x399;" horiz-adv-x="256" 
d="M23 0l82 672h128l-82 -672h-128z" />
    <glyph glyph-name="Kappa" unicode="&#x39a;" 
d="M567 0h-162l-218 294l-36 -294h-128l82 672h128l-34 -278l272 278h162l-327 -321z" />
    <glyph glyph-name="Lambda" unicode="&#x39b;" horiz-adv-x="672" 
d="M356 496l-253 -496h-144l360 672h116l196 -672h-144z" />
    <glyph glyph-name="Mu" unicode="&#x39c;" horiz-adv-x="864" 
d="M791 0h-136l-2 440l-230 -440h-64l-122 440l-110 -440h-136l178 672h128l123 -432l229 432h128z" />
    <glyph glyph-name="Nu" unicode="&#x39d;" horiz-adv-x="720" 
d="M697 672l-82 -672h-128l-279 464l-57 -464h-128l82 672h128l279 -464l57 464h128z" />
    <glyph glyph-name="Xi" unicode="&#x39e;" horiz-adv-x="576" 
d="M89 672h480l-15 -128h-480zM104 400h384l-16 -128h-384zM22 128h480l-15 -128h-480z" />
    <glyph glyph-name="Omicron" unicode="&#x39f;" horiz-adv-x="768" 
d="M586.5 647q71.5 -41 112 -111.5t40.5 -156.5q0 -20 -3 -43q-12 -95 -69 -176t-144 -128.5t-182 -47.5q-88 0 -159.5 41t-112 111.5t-40.5 156.5q0 21 3 43q12 95 69 176t144 128.5t182 47.5q88 0 159.5 -41zM480.5 146.5q58.5 34.5 94 92.5t35.5 125q0 54 -25.5 99
t-71 71t-101.5 26q-66 0 -124.5 -34.5t-94 -92.5t-35.5 -125q0 -54 25.5 -99t71 -71t101.5 -26q66 0 124.5 34.5z" />
    <glyph glyph-name="Pi" unicode="&#x3a0;" horiz-adv-x="672" 
d="M567 0h-128l67 544h-288l-67 -544h-128l82 672h544z" />
    <glyph glyph-name="Rho" unicode="&#x3a1;" horiz-adv-x="592" 
d="M518 621q58 -51 58 -138q0 -11 -2 -35q-7 -58 -40.5 -109.5t-88.5 -83t-123 -31.5h-144l-27 -224h-128l82 672h240q115 0 173 -51zM410 383.5q37 31.5 37 77.5q0 39 -28 61t-73 22h-128l-24 -192h128q51 0 88 31.5z" />
    <glyph glyph-name="Sigma" unicode="&#x3a3;" horiz-adv-x="608" 
d="M416 336l-200 -208h302l-15 -128h-480l15 128l210 208l-158 208l15 128h480l-15 -128h-302z" />
    <glyph glyph-name="Tau" unicode="&#x3a4;" horiz-adv-x="544" 
d="M553 672l-15 -128h-176l-67 -544h-128l67 544h-176l15 128h480z" />
    <glyph glyph-name="Upsilon" unicode="&#x3a5;" horiz-adv-x="608" 
d="M649 672l-289 -400l-33 -272h-128l33 272l-191 400h152l119 -272l185 272h152z" />
    <glyph glyph-name="Phi" unicode="&#x3a6;" horiz-adv-x="736" 
d="M648 206.5q-48 -66.5 -115.5 -104.5t-133.5 -38l-8 -64h-128l8 64q-61 0 -116 33t-89 91t-34 130q0 10 2 34q10 81 58.5 147t116.5 103.5t132 37.5l8 64h128l-8 -64q59 0 114.5 -32.5t90 -90t34.5 -129.5q0 -24 -2 -36q-10 -79 -58 -145.5zM326 516q-32 0 -67 -17.5
t-62.5 -54.5t-34.5 -92q-2 -20 -2 -28q0 -46 19.5 -77t48.5 -45t58 -14zM481.5 205q35.5 17 62.5 54t34 93q2 20 2 28q0 46 -19.5 76.5t-48.5 45t-58 14.5l-40 -328q32 0 67.5 17z" />
    <glyph glyph-name="Chi" unicode="&#x3a7;" horiz-adv-x="688" 
d="M631 0h-160l-137 256l-199 -256h-160l281 352l-184 320h161l123 -236l181 236h161l-262 -320z" />
    <glyph glyph-name="Psi" unicode="&#x3a8;" horiz-adv-x="800" 
d="M777 672l-29 -238q-18 -146 -98.5 -213.5t-210.5 -84.5l-16 -136h-128l16 136q-112 15 -175.5 70t-63.5 170q0 30 4 58l29 238h128l-32 -260q-1 -8 -1 -21q0 -62 39.5 -92.5t87.5 -34.5l50 408h128l-50 -408q32 2 67 17.5t62 48t33 82.5l32 260h128z" />
    <glyph glyph-name="uni03A9" unicode="&#x3a9;" horiz-adv-x="736" 
d="M641 251q-45 -71 -112 -123h133l-15 -128h-288l17 144q73 45 127.5 109.5t62.5 130.5q2 18 2 26q0 73 -49.5 111.5t-122.5 38.5q-51 0 -97 -19.5t-78 -59t-39 -97.5q-1 -7 -1 -22q0 -61 37.5 -118.5t93.5 -99.5l-17 -144h-288l15 128h133q-48 46 -75 107t-27 124
q0 11 2 33q10 79 55 146.5t122.5 108.5t178.5 41q93 0 157.5 -34.5t96.5 -93t32 -129.5q0 -26 -2 -39q-9 -70 -54 -141z" />
    <glyph glyph-name="Iotadieresis" unicode="&#x3aa;" horiz-adv-x="256" 
d="M40.5 752q-15.5 16 -15.5 40q0 30 21.5 51t50.5 21q25 0 40.5 -16t15.5 -40q0 -30 -21.5 -51t-50.5 -21q-25 0 -40.5 16zM232.5 752q-15.5 16 -15.5 40q0 30 21.5 51t50.5 21q25 0 40.5 -16t15.5 -40q0 -30 -21.5 -51t-50.5 -21q-25 0 -40.5 16zM23 0l82 672h128
l-82 -672h-128z" />
    <glyph glyph-name="Upsilondieresis" unicode="&#x3ab;" horiz-adv-x="608" 
d="M216.5 752q-15.5 16 -15.5 40q0 30 21.5 51t50.5 21q25 0 40.5 -16t15.5 -40q0 -30 -21.5 -51t-50.5 -21q-25 0 -40.5 16zM408.5 752q-15.5 16 -15.5 40q0 30 21.5 51t50.5 21q25 0 40.5 -16t15.5 -40q0 -30 -21.5 -51t-50.5 -21q-25 0 -40.5 16zM649 672l-289 -400
l-33 -272h-128l33 272l-191 400h152l119 -272l185 272h152z" />
    <glyph glyph-name="alphatonos" unicode="&#x3ac;" horiz-adv-x="656" 
d="M363 688h112l-95 -128h-64zM537 144q0 -19 7 -27t23 -8q13 0 29 3l-13 -112q-16 -8 -32.5 -12t-43.5 -4q-76 0 -95 74q-27 -34 -73.5 -54t-101.5 -20q-62 0 -112 30t-78 82.5t-28 116.5q0 11 2 35q9 72 50 132.5t102.5 96t128.5 35.5q92 0 143 -69l7 53h128l-41 -328
q-2 -18 -2 -24zM343 133q36 21 57.5 56t21.5 75q0 51 -34 85.5t-86 34.5q-39 0 -75 -21t-57.5 -56t-21.5 -75q0 -51 34 -85.5t86 -34.5q39 0 75 21z" />
    <glyph glyph-name="epsilontonos" unicode="&#x3ad;" horiz-adv-x="512" 
d="M291 688h112l-95 -128h-64zM340.5 120.5q48.5 10.5 76.5 29.5l27 -105q-46 -31 -105 -46t-111 -15q-93 0 -148.5 37.5t-55.5 107.5q0 14 1 21q5 36 29.5 68t61.5 46q-29 12 -43.5 34t-14.5 50q0 9 1 14q9 72 73 111t164 39q49 0 102.5 -16t91.5 -46l-57 -108
q-28 22 -64 33t-89 11q-47 0 -71 -14t-24 -34q0 -22 42 -36t119 -14l-10 -80q-70 0 -120.5 -12t-59.5 -35q-2 -6 -2 -10q0 -20 26.5 -30.5t68.5 -10.5q43 0 91.5 10.5z" />
    <glyph glyph-name="etatonos" unicode="&#x3ae;" horiz-adv-x="576" 
d="M299 688h112l-95 -128h-64zM463 -212q0 -28 8 -44h-128q-8 16 -8 44q0 20 4 52l53 432q2 22 2 29q0 43 -20.5 63t-63.5 20q-48 0 -84 -32.5t-44 -95.5l-31 -256h-128l61 496h128l-6 -48q31 32 68 48t90 16q76 0 118.5 -44t42.5 -130q0 -23 -3 -50l-55 -448q-4 -32 -4 -52
z" />
    <glyph glyph-name="iotatonos" unicode="&#x3af;" horiz-adv-x="288" 
d="M155 688h112l-95 -128h-64zM171 168q-2 -18 -2 -24q0 -19 7 -27t23 -8q13 0 29 3l-13 -112q-16 -8 -32.5 -12t-43.5 -4q-48 0 -74 31t-26 94q0 23 3 48l42 339h128z" />
    <glyph glyph-name="upsilondieresistonos" unicode="&#x3b0;" horiz-adv-x="576" 
d="M99 576q-16 16 -16 41q0 29 21.5 50t50.5 21q25 0 41 -15.5t16 -39.5q0 -30 -21.5 -51.5t-50.5 -21.5q-25 0 -41 16zM283 688h112l-95 -128h-64zM419 576q-16 16 -16 41q0 29 21.5 50t50.5 21q25 0 41 -15.5t16 -39.5q0 -30 -21.5 -51.5t-50.5 -21.5q-25 0 -41 16z
M517.5 411q6.5 -39 6.5 -81q0 -25 -3 -54q-17 -136 -86.5 -214t-189.5 -78q-104 0 -157.5 57t-53.5 157q0 25 3 50l31 248h128l-32 -258q-2 -18 -2 -25q0 -49 26 -75t72 -26q52 0 87.5 41.5t43.5 108.5q4 33 4 69q0 42 -5.5 79t-17.5 86h128q11 -46 17.5 -85z" />
    <glyph glyph-name="alpha" unicode="&#x3b1;" horiz-adv-x="656" 
d="M537 144q0 -19 7 -27t23 -8q13 0 29 3l-13 -112q-16 -8 -32.5 -12t-43.5 -4q-76 0 -95 74q-27 -34 -73.5 -54t-101.5 -20q-62 0 -112 30t-78 82.5t-28 116.5q0 11 2 35q9 72 50 132.5t102.5 96t128.5 35.5q92 0 143 -69l7 53h128l-41 -328q-2 -18 -2 -24zM343 133
q36 21 57.5 56t21.5 75q0 51 -34 85.5t-86 34.5q-39 0 -75 -21t-57.5 -56t-21.5 -75q0 -51 34 -85.5t86 -34.5q39 0 75 21z" />
    <glyph glyph-name="beta" unicode="&#x3b2;" horiz-adv-x="576" 
d="M494.5 333.5q34.5 -44.5 34.5 -103.5q0 -14 -1 -22q-7 -60 -40.5 -111t-91.5 -82t-135 -31q-34 0 -71 9t-53 23l-34 -272h-128l93 752q17 140 101 182t151 42q106 0 154 -47t48 -118q0 -9 -2 -27q-7 -53 -41 -91t-73 -53q54 -6 88.5 -50.5zM197.5 105q28.5 -9 59.5 -9
q59 0 101.5 31t42.5 92q0 54 -51.5 77.5t-143.5 23.5l12 96q55 0 94.5 17t60 45.5t20.5 60.5q0 33 -23.5 51t-64.5 18q-45 0 -73.5 -28t-33.5 -68l-47 -382q18 -16 46.5 -25z" />
    <glyph glyph-name="gamma" unicode="&#x3b3;" horiz-adv-x="512" 
d="M283 38l-36 -294h-128l36 294l-135 458h144l74 -304l150 304h144z" />
    <glyph glyph-name="delta" unicode="&#x3b4;" horiz-adv-x="592" 
d="M497.5 115.5q-42.5 -60.5 -107.5 -96t-137 -35.5q-66 0 -119.5 30.5t-84 83.5t-30.5 117q0 11 2 33q9 73 53 134.5t110 95.5q-43 37 -43 84q0 17 4 33q7 31 35 60t74 47t104 18q81 0 165 -32l-31 -120q-73 27 -142 27q-23 0 -41 -3q-19 -3 -29.5 -9.5t-10.5 -16.5
q0 -19 48 -36q46 -16 80 -30.5t60 -33.5q46 -34 70 -80.5t24 -103.5q0 -12 -2 -34q-9 -72 -51.5 -132.5zM388.5 351.5q-33.5 36.5 -95.5 58.5q0 3 -36.5 -15.5t-68.5 -54.5t-39 -92q-1 -6 -1 -16q0 -51 34 -85.5t86 -34.5q40 0 75.5 21t57 56.5t21.5 76.5q0 49 -33.5 85.5z
" />
    <glyph glyph-name="epsilon" unicode="&#x3b5;" horiz-adv-x="512" 
d="M340.5 120.5q48.5 10.5 76.5 29.5l27 -105q-46 -31 -105 -46t-111 -15q-93 0 -148.5 37.5t-55.5 107.5q0 14 1 21q5 36 29.5 68t61.5 46q-29 12 -43.5 34t-14.5 50q0 9 1 14q9 72 73 111t164 39q49 0 102.5 -16t91.5 -46l-57 -108q-28 22 -64 33t-89 11q-47 0 -71 -14
t-24 -34q0 -22 42 -36t119 -14l-10 -80q-70 0 -120.5 -12t-59.5 -35q-2 -6 -2 -10q0 -20 26.5 -30.5t68.5 -10.5q43 0 91.5 10.5z" />
    <glyph glyph-name="zeta" unicode="&#x3b6;" horiz-adv-x="512" 
d="M342 444q-77 -58 -126 -119.5t-55 -112.5q-1 -8 -1 -22q0 -41 21 -61.5t51 -27t81 -9.5q47 -3 75.5 -8.5t47.5 -23t19 -53.5q0 -11 -1 -17q-3 -20 -9 -38t-10.5 -29.5t-7.5 -18.5h-112q10 32 10 46q0 18 -14.5 26t-49.5 8q-119 0 -176.5 37t-57.5 128q0 21 3 43
q12 93 97 189t206 163h-211l15 128h384l-15 -128q-87 -42 -164 -100z" />
    <glyph glyph-name="eta" unicode="&#x3b7;" horiz-adv-x="576" 
d="M463 -212q0 -28 8 -44h-128q-8 16 -8 44q0 20 4 52l53 432q2 22 2 29q0 43 -20.5 63t-63.5 20q-48 0 -84 -32.5t-44 -95.5l-31 -256h-128l61 496h128l-6 -48q31 32 68 48t90 16q76 0 118.5 -44t42.5 -130q0 -23 -3 -50l-55 -448q-4 -32 -4 -52z" />
    <glyph glyph-name="theta" unicode="&#x3b8;" horiz-adv-x="592" 
d="M453 651.5q47 -36.5 71.5 -100t24.5 -144.5q0 -31 -5 -71q-12 -98 -51.5 -178t-101.5 -127t-138 -47q-101 0 -155.5 77.5t-54.5 201.5q0 31 5 73q12 98 51.5 178t101 127t138.5 47q67 0 114 -36.5zM235 506q-39 -54 -54 -138h238l1 25q0 75 -25 121t-71 46q-50 0 -89 -54
zM357 166q39 54 54 138h-238l-1 -25q0 -75 25 -121t71 -46q50 0 89 54z" />
    <glyph glyph-name="iota" unicode="&#x3b9;" horiz-adv-x="288" 
d="M171 168q-2 -18 -2 -24q0 -19 7 -27t23 -8q13 0 29 3l-13 -112q-16 -8 -32.5 -12t-43.5 -4q-48 0 -74 31t-26 94q0 23 3 48l42 339h128z" />
    <glyph glyph-name="kappa" unicode="&#x3ba;" horiz-adv-x="560" 
d="M519 0h-160l-184 196l-24 -196h-128l61 496h128l-23 -188l215 188h160l-270 -240z" />
    <glyph glyph-name="lambda" unicode="&#x3bb;" horiz-adv-x="608" 
d="M473.5 131q20.5 -22 50.5 -22q11 0 24 3l-13 -112q-15 -8 -30.5 -12t-39.5 -4q-48 0 -77 27t-44 68t-33 113q-1 7 -8 34l-19 78l-149 -304h-144l246 454l-15 61q-12 44 -29.5 62.5t-46.5 18.5q-18 0 -35 -4l14 112q32 16 74 16q47 0 76 -26.5t45 -66t34 -108.5
q2 -10 8 -30l78 -289q13 -47 33.5 -69z" />
    <glyph glyph-name="uni03BC" unicode="&#x3bc;" horiz-adv-x="592" 
d="M495 44q0 -28 8 -44h-128q-10 18 -8 48q-31 -32 -68.5 -48t-91.5 -16q-33 0 -57 7l-31 -247h-128l93 752h128l-34 -272q-2 -20 -2 -28q0 -43 20.5 -63.5t63.5 -20.5q48 0 84 32.5t44 95.5l32 256h128l-49 -400q-4 -32 -4 -52z" />
    <glyph glyph-name="nu" unicode="&#x3bd;" horiz-adv-x="512" 
d="M20 496h144l74 -304l150 304h144l-269 -496h-96z" />
    <glyph glyph-name="xi" unicode="&#x3be;" horiz-adv-x="544" 
d="M185.5 131q28.5 -16 79.5 -19q9 -1 28 -1q58 -3 97 -9.5t68 -28.5t29 -66q0 -11 -1 -17q-6 -45 -27 -86h-112q8 26 8 40q0 21 -17.5 30.5t-60.5 9.5q-131 0 -190.5 43t-59.5 123q0 10 2 32q7 54 44.5 96.5t99.5 69.5q-89 38 -89 134q0 19 3 38q13 92 85 146t189 54
q47 0 95 -18t79 -46l-60 -104q-62 40 -132 40q-52 0 -91.5 -26.5t-39.5 -70.5q0 -51 58.5 -73t169.5 -22l-14 -112q-70 0 -131.5 -13t-99.5 -38t-38 -60q0 -30 28.5 -46z" />
    <glyph glyph-name="omicron" unicode="&#x3bf;" horiz-adv-x="592" 
d="M437.5 481.5q53.5 -30.5 83.5 -83.5t30 -117q0 -11 -2 -33q-9 -72 -51.5 -132.5t-107.5 -96t-137 -35.5q-66 0 -119.5 30.5t-84 83.5t-30.5 117q0 11 2 33q9 72 52 132.5t108 96t137 35.5q66 0 119.5 -30.5zM343 133q36 21 57.5 56t21.5 75q0 51 -34 85.5t-86 34.5
q-39 0 -75 -21t-57.5 -56t-21.5 -75q0 -51 34 -85.5t86 -34.5q39 0 75 21z" />
    <glyph glyph-name="pi" unicode="&#x3c0;" 
d="M500 368l-25 -200q-2 -18 -2 -24q0 -19 7 -27t23 -8q13 0 29 3l-13 -112q-16 -8 -32.5 -12t-43.5 -4q-48 0 -74 31t-26 94q0 23 3 48l26 211h-144l-45 -368h-128l45 368h-64l16 128h544l-16 -128h-80z" />
    <glyph glyph-name="rho" unicode="&#x3c1;" 
d="M469.5 481.5q53.5 -30.5 83.5 -83.5t30 -117q0 -11 -2 -33q-9 -72 -51.5 -132.5t-105.5 -96t-131 -35.5q-89 0 -138 50l-36 -290h-128l62 504q9 72 52 132.5t108 96t137 35.5q66 0 119.5 -30.5zM375 133q36 21 57.5 56t21.5 75q0 51 -34 85.5t-86 34.5q-39 0 -75 -21
t-57.5 -56t-21.5 -75q0 -51 34 -85.5t86 -34.5q39 0 75 21z" />
    <glyph glyph-name="uni03C2" unicode="&#x3c2;" horiz-adv-x="544" 
d="M351 109q59 -3 97.5 -29.5t38.5 -73.5q0 -10 -1 -16q-6 -45 -27 -86h-112q9 29 9 40q0 21 -20 30.5t-71 9.5q-77 0 -132.5 29.5t-84.5 81t-29 116.5q0 25 2 37q9 73 50 133.5t108 95.5t151 35q49 0 91.5 -14.5t72.5 -44.5l-67 -115q-18 21 -47 33.5t-62 12.5
q-49 0 -88 -20.5t-60.5 -56t-21.5 -76.5q0 -50 36 -82.5t100 -36.5q8 0 67 -3z" />
    <glyph glyph-name="sigma" unicode="&#x3c3;" 
d="M596 368h-83q17 -18 26.5 -48.5t9.5 -62.5q0 -71 -41.5 -134t-110 -101t-144.5 -38q-66 0 -120 29.5t-84.5 81.5t-30.5 115q0 10 2 30q9 70 51.5 128.5t107.5 93t137 34.5h296zM386.5 335.5q-34.5 32.5 -86.5 32.5q-39 0 -74.5 -19.5t-57 -52.5t-21.5 -71
q0 -48 34.5 -80.5t86.5 -32.5q39 0 74.5 19.5t57 52.5t21.5 71q0 48 -34.5 80.5z" />
    <glyph glyph-name="tau" unicode="&#x3c4;" horiz-adv-x="480" 
d="M308 368l-25 -200q-2 -18 -2 -24q0 -19 7 -27t23 -8q13 0 29 3l-13 -112q-16 -8 -32.5 -12t-43.5 -4q-48 0 -74 31t-26 94q0 23 3 48l26 211h-144l16 128h416l-16 -128h-144z" />
    <glyph glyph-name="upsilon" unicode="&#x3c5;" horiz-adv-x="576" 
d="M517.5 411q6.5 -39 6.5 -81q0 -25 -3 -54q-17 -136 -86.5 -214t-189.5 -78q-104 0 -157.5 57t-53.5 157q0 25 3 50l31 248h128l-32 -258q-2 -18 -2 -25q0 -49 26 -75t72 -26q52 0 87.5 41.5t43.5 108.5q4 33 4 69q0 42 -5.5 79t-17.5 86h128q11 -46 17.5 -85z" />
    <glyph glyph-name="phi" unicode="&#x3c6;" horiz-adv-x="704" 
d="M601.5 440.5q61.5 -59.5 61.5 -155.5q0 -24 -2 -37q-9 -74 -48.5 -131t-102 -91t-137.5 -42l-30 -240h-128l30 240q-102 12 -164 72t-62 157q0 11 2 35q9 74 49 131t102.5 91t137.5 42l23 192h128l-23 -192q102 -12 163.5 -71.5zM294 388q-62 -8 -104 -50t-42 -110
q0 -51 31 -82.5t81 -37.5zM503 350.5q-31 31.5 -81 37.5l-34 -280q62 8 104 50t42 110q0 51 -31 82.5z" />
    <glyph glyph-name="chi" unicode="&#x3c7;" horiz-adv-x="560" 
d="M503 0h-160l-85 160l-123 -160h-160l216 264l-139 232h160l70 -140l106 140h160l-197 -232z" />
    <glyph glyph-name="psi" unicode="&#x3c8;" horiz-adv-x="736" 
d="M708 496l-29 -230q-15 -125 -93 -197.5t-197 -84.5l-30 -240h-128l30 240q-105 12 -165 72t-60 164q0 22 3 46l29 230h128l-29 -234q-1 -8 -1 -23q0 -55 31 -88t79 -39l48 384h128l-48 -384q55 6 97 45.5t50 104.5l29 234h128z" />
    <glyph glyph-name="omega" unicode="&#x3c9;" horiz-adv-x="768" 
d="M704.5 407.5q8.5 -49.5 8.5 -99.5q0 -29 -3 -56q-17 -132 -79.5 -200t-153.5 -68q-84 0 -128 69q-61 -69 -144 -69q-80 0 -125.5 51.5t-45.5 152.5q0 33 4 64q7 61 31.5 127t55.5 117h122q-68 -134 -82 -250q-3 -21 -3 -38q0 -48 18.5 -72t47.5 -24t50 24.5t27 77.5
l27 218h128l-27 -218q-2 -20 -2 -29q0 -38 14.5 -55.5t38.5 -17.5q35 0 61.5 33.5t35.5 100.5q4 31 4 68q0 84 -24 182h122q13 -39 21.5 -88.5z" />
    <glyph glyph-name="iotadieresis" unicode="&#x3ca;" horiz-adv-x="288" 
d="M19 576q-16 16 -16 41q0 29 21.5 50t50.5 21q25 0 41 -15.5t16 -39.5q0 -30 -21.5 -51.5t-50.5 -21.5q-25 0 -41 16zM211 576q-16 16 -16 41q0 29 21.5 50t50.5 21q25 0 41 -15.5t16 -39.5q0 -30 -21.5 -51.5t-50.5 -21.5q-25 0 -41 16zM171 168q-2 -18 -2 -24
q0 -19 7 -27t23 -8q13 0 29 3l-13 -112q-16 -8 -32.5 -12t-43.5 -4q-48 0 -74 31t-26 94q0 23 3 48l42 339h128z" />
    <glyph glyph-name="upsilondieresis" unicode="&#x3cb;" horiz-adv-x="576" 
d="M147 576q-16 16 -16 41q0 29 21.5 50t50.5 21q25 0 41 -15.5t16 -39.5q0 -30 -21.5 -51.5t-50.5 -21.5q-25 0 -41 16zM339 576q-16 16 -16 41q0 29 21.5 50t50.5 21q25 0 41 -15.5t16 -39.5q0 -30 -21.5 -51.5t-50.5 -21.5q-25 0 -41 16zM517.5 411q6.5 -39 6.5 -81
q0 -25 -3 -54q-17 -136 -86.5 -214t-189.5 -78q-104 0 -157.5 57t-53.5 157q0 25 3 50l31 248h128l-32 -258q-2 -18 -2 -25q0 -49 26 -75t72 -26q52 0 87.5 41.5t43.5 108.5q4 33 4 69q0 42 -5.5 79t-17.5 86h128q11 -46 17.5 -85z" />
    <glyph glyph-name="omicrontonos" unicode="&#x3cc;" horiz-adv-x="592" 
d="M323 688h112l-95 -128h-64zM437.5 481.5q53.5 -30.5 83.5 -83.5t30 -117q0 -11 -2 -33q-9 -72 -51.5 -132.5t-107.5 -96t-137 -35.5q-66 0 -119.5 30.5t-84 83.5t-30.5 117q0 11 2 33q9 72 52 132.5t108 96t137 35.5q66 0 119.5 -30.5zM343 133q36 21 57.5 56t21.5 75
q0 51 -34 85.5t-86 34.5q-39 0 -75 -21t-57.5 -56t-21.5 -75q0 -51 34 -85.5t86 -34.5q39 0 75 21z" />
    <glyph glyph-name="upsilontonos" unicode="&#x3cd;" horiz-adv-x="576" 
d="M283 688h112l-95 -128h-64zM517.5 411q6.5 -39 6.5 -81q0 -25 -3 -54q-17 -136 -86.5 -214t-189.5 -78q-104 0 -157.5 57t-53.5 157q0 25 3 50l31 248h128l-32 -258q-2 -18 -2 -25q0 -49 26 -75t72 -26q52 0 87.5 41.5t43.5 108.5q4 33 4 69q0 42 -5.5 79t-17.5 86h128
q11 -46 17.5 -85z" />
    <glyph glyph-name="omegatonos" unicode="&#x3ce;" horiz-adv-x="768" 
d="M411 688h112l-95 -128h-64zM704.5 407.5q8.5 -49.5 8.5 -99.5q0 -29 -3 -56q-17 -132 -79.5 -200t-153.5 -68q-84 0 -128 69q-61 -69 -144 -69q-80 0 -125.5 51.5t-45.5 152.5q0 33 4 64q7 61 31.5 127t55.5 117h122q-68 -134 -82 -250q-3 -21 -3 -38q0 -48 18.5 -72
t47.5 -24t50 24.5t27 77.5l27 218h128l-27 -218q-2 -20 -2 -29q0 -38 14.5 -55.5t38.5 -17.5q35 0 61.5 33.5t35.5 100.5q4 31 4 68q0 84 -24 182h122q13 -39 21.5 -88.5z" />
    <glyph glyph-name="uni0401" unicode="&#x401;" horiz-adv-x="528" 
d="M176.5 752q-15.5 16 -15.5 40q0 30 21.5 51t50.5 21q25 0 40.5 -16t15.5 -40q0 -30 -21.5 -51t-50.5 -21q-25 0 -40.5 16zM368.5 752q-15.5 16 -15.5 40q0 30 21.5 51t50.5 21q25 0 40.5 -16t15.5 -40q0 -30 -21.5 -51t-50.5 -21q-25 0 -40.5 16zM218 544l-18 -144h240
l-16 -128h-240l-18 -144h288l-15 -128h-416l82 672h416l-15 -128h-288z" />
    <glyph glyph-name="uni0402" unicode="&#x402;" horiz-adv-x="688" 
d="M582 362.5q43 -45.5 43 -128.5q0 -22 -3 -46l-2 -12q-18 -151 -87 -211.5t-154 -60.5l-18 112q51 0 86 37.5t43 106.5l2 16q2 11 2 31q0 41 -20 61t-64 20q-37 0 -72 -11t-60 -25l-31 -252h-128l67 544h-128l15 128h448l-15 -128h-192l-23 -180q37 19 78.5 31.5
t79.5 12.5q90 0 133 -45.5z" />
    <glyph glyph-name="uni0403" unicode="&#x403;" horiz-adv-x="512" 
d="M307 880h144l-162 -144h-80zM218 544l-67 -544h-128l82 672h416l-15 -128h-288z" />
    <glyph glyph-name="uni0404" unicode="&#x404;" horiz-adv-x="640" 
d="M458.5 130q45.5 18 81.5 51l35 -116q-47 -38 -108.5 -59.5t-119.5 -21.5q-90 0 -162.5 41t-114 112t-41.5 157q0 21 3 42q12 95 70 176t146 128.5t185 47.5q58 0 115 -21t93 -59l-63 -116q-29 32 -69.5 50t-88.5 18q-80 0 -148.5 -47.5t-97.5 -120.5h281l-14 -112h-281
q11 -73 67.5 -120.5t136.5 -47.5q49 0 94.5 18z" />
    <glyph glyph-name="uni0405" unicode="&#x405;" horiz-adv-x="608" 
d="M502 351q59 -38 59 -120q0 -9 -2 -31q-7 -61 -44 -110t-101.5 -77.5t-150.5 -28.5q-109 0 -169.5 38t-90.5 74l77 112q36 -47 91.5 -71.5t108.5 -24.5q69 0 110 24.5t41 63.5q0 31 -31.5 49t-94.5 27q-125 20 -179.5 63.5t-54.5 113.5q0 62 35 116t100 86.5t151 32.5
q46 0 104.5 -15.5t115.5 -66.5l-67 -110q-23 21 -65.5 42.5t-104.5 21.5q-60 0 -99 -19.5t-39 -62.5q0 -28 29 -43t98 -27q114 -19 173 -57z" />
    <glyph glyph-name="uni0406" unicode="&#x406;" horiz-adv-x="256" 
d="M23 0l82 672h128l-82 -672h-128z" />
    <glyph glyph-name="uni0407" unicode="&#x407;" horiz-adv-x="256" 
d="M40.5 752q-15.5 16 -15.5 40q0 30 21.5 51t50.5 21q25 0 40.5 -16t15.5 -40q0 -30 -21.5 -51t-50.5 -21q-25 0 -40.5 16zM232.5 752q-15.5 16 -15.5 40q0 30 21.5 51t50.5 21q25 0 40.5 -16t15.5 -40q0 -30 -21.5 -51t-50.5 -21q-25 0 -40.5 16zM23 0l82 672h128
l-82 -672h-128z" />
    <glyph glyph-name="uni0408" unicode="&#x408;" horiz-adv-x="464" 
d="M457 672l-51 -416q-17 -139 -87.5 -205.5t-177.5 -66.5q-40 0 -83 18t-62 44l83 106q12 -18 32.5 -29t44.5 -11q49 0 81 34.5t38 85.5l54 440h128z" />
    <glyph glyph-name="uni0409" unicode="&#x409;" horiz-adv-x="1040" 
d="M938.5 358.5q54.5 -41.5 54.5 -122.5q0 -24 -2 -36q-11 -97 -81 -148.5t-199 -51.5h-224l67 544h-224l-35 -280q-9 -78 -24.5 -129.5t-46 -87t-83.5 -53.5q-30 -10 -66 -10q-35 0 -69 8l15 128q20 -6 41 -6q32 0 53 12q38 23 47 93l55 453h480l-33 -272h112
q108 0 162.5 -41.5zM864 210q0 62 -104 62h-112l-18 -144h112q122 0 122 82z" />
    <glyph glyph-name="uni040A" unicode="&#x40a;" horiz-adv-x="992" 
d="M890.5 358.5q54.5 -41.5 54.5 -122.5q0 -24 -2 -36q-11 -97 -81 -148.5t-199 -51.5h-224l33 272h-288l-33 -272h-128l82 672h128l-33 -272h288l33 272h128l-33 -272h112q108 0 162.5 -41.5zM816 210q0 62 -104 62h-112l-18 -144h112q122 0 122 82z" />
    <glyph glyph-name="uni040B" unicode="&#x40b;" horiz-adv-x="688" 
d="M582 362.5q43 -45.5 43 -128.5q0 -22 -3 -46l-23 -188h-128l21 176q2 11 2 31q0 41 -20 61t-64 20q-37 0 -72 -11t-60 -25l-31 -252h-128l67 544h-128l15 128h448l-15 -128h-192l-23 -180q37 19 78.5 31.5t79.5 12.5q90 0 133 -45.5z" />
    <glyph glyph-name="uni040C" unicode="&#x40c;" 
d="M347 880h144l-162 -144h-80zM567 0h-162l-218 294l-36 -294h-128l82 672h128l-34 -278l272 278h162l-327 -321z" />
    <glyph glyph-name="uni040E" unicode="&#x40e;" 
d="M531 880q-5 -39 -28.5 -72t-59 -52.5t-74.5 -19.5q-55 0 -91 36t-36 90q0 12 1 18h68q-4 -32 15.5 -54t50.5 -22q32 0 57 22.5t29 53.5h68zM665 672l-442 -672h-152l160 244l-174 428h152l117 -290l187 290h152z" />
    <glyph glyph-name="uni040F" unicode="&#x40f;" horiz-adv-x="672" 
d="M649 672l-82 -672h-208l-16 -128h-128l16 128h-208l82 672h128l-67 -544h288l67 544h128z" />
    <glyph glyph-name="uni0410" unicode="&#x410;" horiz-adv-x="672" 
d="M452 128h-284l-65 -128h-144l360 672h116l196 -672h-144zM419 256l-63 240l-123 -240h186z" />
    <glyph glyph-name="uni0411" unicode="&#x411;" horiz-adv-x="608" 
d="M508.5 384.5q54.5 -47.5 54.5 -132.5q0 -12 -2 -36q-12 -101 -83.5 -158.5t-198.5 -57.5h-256l82 672h448l-15 -128h-320l-14 -112h144q106 0 160.5 -47.5zM399 152.5q35 24.5 35 74.5q0 36 -28.5 56.5t-73.5 20.5h-144l-22 -176h144q54 0 89 24.5z" />
    <glyph glyph-name="uni0412" unicode="&#x412;" 
d="M555 312.5q23 -35.5 23 -84.5q0 -8 -2 -26q-8 -58 -41 -104t-88.5 -72t-125.5 -26h-298l82 672h240q112 0 174.5 -37t62.5 -114q0 -57 -28.5 -99.5t-71.5 -60.5q50 -13 73 -48.5zM202 416h120q62 0 95.5 18t33.5 55q0 31 -28 43t-85 12h-120zM410.5 152.5
q39.5 24.5 39.5 75.5q0 38 -33.5 57t-92.5 19h-136l-22 -176h136q69 0 108.5 24.5z" />
    <glyph glyph-name="uni0413" unicode="&#x413;" horiz-adv-x="512" 
d="M218 544l-67 -544h-128l82 672h416l-15 -128h-288z" />
    <glyph glyph-name="uni0414" unicode="&#x414;" horiz-adv-x="768" 
d="M694 128l-31 -256h-128l16 128h-432l-16 -128h-128l31 256q71 20 110 77t61.5 160.5t47.5 306.5h440l-67 -544h96zM470 128l52 416h-192q-20 -157 -49 -259.5t-78 -156.5h267z" />
    <glyph glyph-name="uni0415" unicode="&#x415;" horiz-adv-x="528" 
d="M218 544l-18 -144h240l-16 -128h-240l-18 -144h288l-15 -128h-416l82 672h416l-15 -128h-288z" />
    <glyph glyph-name="uni0416" unicode="&#x416;" horiz-adv-x="992" 
d="M935 0h-162l-219 286l-35 -286h-128l35 286l-289 -286h-162l346 343l-248 329h162l203 -286l35 286h128l-35 -286l273 286h162l-328 -329z" />
    <glyph glyph-name="uni0417" unicode="&#x417;" horiz-adv-x="576" 
d="M214 388q79 0 139 25.5t65 68.5q5 41 -29.5 59.5t-76.5 18.5q-55 0 -98 -16t-90 -48l-46 104q59 43 125 65.5t132 22.5q60 0 108.5 -21.5t77 -61.5t28.5 -93q0 -49 -26 -92.5t-78 -69.5q38 -13 60.5 -47t22.5 -80q0 -66 -38 -121t-104.5 -86.5t-147.5 -31.5
q-74 0 -134 25t-104 67l77 106q70 -70 171 -70q60 0 105.5 26t45.5 69q0 77 -197 77z" />
    <glyph glyph-name="uni0418" unicode="&#x418;" horiz-adv-x="720" 
d="M176 208l393 464h128l-82 -672h-128l57 464l-393 -464h-128l82 672h128z" />
    <glyph glyph-name="uni0419" unicode="&#x419;" horiz-adv-x="720" 
d="M571 880q-5 -39 -28.5 -72t-59 -52.5t-74.5 -19.5q-55 0 -91 36t-36 90q0 12 1 18h68q-4 -32 15.5 -54t50.5 -22q32 0 57 22.5t29 53.5h68zM176 208l393 464h128l-82 -672h-128l57 464l-393 -464h-128l82 672h128z" />
    <glyph glyph-name="uni041A" unicode="&#x41a;" 
d="M567 0h-162l-218 294l-36 -294h-128l82 672h128l-34 -278l272 278h162l-327 -321z" />
    <glyph glyph-name="uni041B" unicode="&#x41b;" horiz-adv-x="720" 
d="M615 0h-128l67 544h-224l-35 -280q-9 -78 -24.5 -129.5t-46 -87t-83.5 -53.5q-30 -10 -66 -10q-35 0 -69 8l15 128q20 -6 41 -6q32 0 53 12q38 23 47 93l55 453h480z" />
    <glyph glyph-name="uni041C" unicode="&#x41c;" horiz-adv-x="864" 
d="M791 0h-136l-2 440l-230 -440h-64l-122 440l-110 -440h-136l178 672h128l123 -432l229 432h128z" />
    <glyph glyph-name="uni041D" unicode="&#x41d;" horiz-adv-x="672" 
d="M649 672l-82 -672h-128l33 272h-288l-33 -272h-128l82 672h128l-33 -272h288l33 272h128z" />
    <glyph glyph-name="uni041E" unicode="&#x41e;" horiz-adv-x="768" 
d="M586.5 647q71.5 -41 112 -111.5t40.5 -156.5q0 -20 -3 -43q-12 -95 -69 -176t-144 -128.5t-182 -47.5q-88 0 -159.5 41t-112 111.5t-40.5 156.5q0 21 3 43q12 95 69 176t144 128.5t182 47.5q88 0 159.5 -41zM480.5 146.5q58.5 34.5 94 92.5t35.5 125q0 54 -25.5 99
t-71 71t-101.5 26q-66 0 -124.5 -34.5t-94 -92.5t-35.5 -125q0 -54 25.5 -99t71 -71t101.5 -26q66 0 124.5 34.5z" />
    <glyph glyph-name="uni041F" unicode="&#x41f;" horiz-adv-x="672" 
d="M567 0h-128l67 544h-288l-67 -544h-128l82 672h544z" />
    <glyph glyph-name="uni0420" unicode="&#x420;" horiz-adv-x="592" 
d="M518 621q58 -51 58 -138q0 -11 -2 -35q-7 -58 -40.5 -109.5t-88.5 -83t-123 -31.5h-144l-27 -224h-128l82 672h240q115 0 173 -51zM410 383.5q37 31.5 37 77.5q0 39 -28 61t-73 22h-128l-24 -192h128q51 0 88 31.5z" />
    <glyph glyph-name="uni0421" unicode="&#x421;" horiz-adv-x="640" 
d="M458.5 130q45.5 18 81.5 51l35 -116q-47 -38 -108.5 -59.5t-119.5 -21.5q-90 0 -162.5 41t-114 112t-41.5 157q0 21 3 42q12 95 70 176t146 128.5t185 47.5q58 0 115 -21t93 -59l-63 -116q-29 32 -69.5 50t-88.5 18q-68 0 -128.5 -34.5t-97 -92.5t-36.5 -124
q0 -55 26.5 -100t74 -71t105.5 -26q49 0 94.5 18z" />
    <glyph glyph-name="uni0422" unicode="&#x422;" horiz-adv-x="544" 
d="M553 672l-15 -128h-176l-67 -544h-128l67 544h-176l15 128h480z" />
    <glyph glyph-name="uni0423" unicode="&#x423;" 
d="M665 672l-442 -672h-152l160 244l-174 428h152l117 -290l187 290h152z" />
    <glyph glyph-name="uni0424" unicode="&#x424;" horiz-adv-x="800" 
d="M712 205q-48 -66 -122.5 -103.5t-158.5 -37.5l-8 -64h-128l8 64q-78 0 -140 32.5t-96.5 89.5t-34.5 130q0 12 2 36q10 83 59 148.5t123 102.5t157 37l8 64h128l-8 -64q76 0 138 -32t97.5 -89t35.5 -130q0 -24 -2 -37q-10 -81 -58 -147zM358 516q-75 0 -130 -40.5
t-66 -123.5q-2 -20 -2 -28q0 -70 44.5 -103t113.5 -33zM576.5 228q54.5 40 65.5 124q2 20 2 28q0 69 -44.5 102.5t-113.5 33.5l-40 -328q76 0 130.5 40z" />
    <glyph glyph-name="uni0425" unicode="&#x425;" horiz-adv-x="688" 
d="M631 0h-160l-137 256l-199 -256h-160l281 352l-184 320h161l123 -236l181 236h161l-262 -320z" />
    <glyph glyph-name="uni0426" unicode="&#x426;" horiz-adv-x="752" 
d="M678 128l-31 -256h-128l16 128h-512l82 672h128l-67 -544h288l67 544h128l-67 -544h96z" />
    <glyph glyph-name="uni0427" unicode="&#x427;" 
d="M113.5 267q-53.5 51 -53.5 145q0 22 3 44l26 216h128l-26 -216q-1 -7 -1 -20q0 -46 28.5 -69t78.5 -23q35 0 66 7t50 14.5t24 10.5l36 296h128l-82 -672h-128l31 252q-86 -36 -165 -36q-90 0 -143.5 51z" />
    <glyph glyph-name="uni0428" unicode="&#x428;" horiz-adv-x="896" 
d="M873 672l-82 -672h-768l82 672h128l-67 -544h192l67 544h128l-67 -544h192l67 544h128z" />
    <glyph glyph-name="uni0429" unicode="&#x429;" horiz-adv-x="976" 
d="M902 128l-31 -256h-128l16 128h-736l82 672h128l-67 -544h192l67 544h128l-67 -544h192l67 544h128l-67 -544h96z" />
    <glyph glyph-name="uni042A" unicode="&#x42a;" horiz-adv-x="688" 
d="M588.5 384.5q54.5 -47.5 54.5 -132.5q0 -12 -2 -36q-12 -101 -83.5 -158.5t-198.5 -57.5h-240l67 544h-128l15 128h256l-29 -240h128q106 0 160.5 -47.5zM479 152.5q35 24.5 35 74.5q0 36 -28.5 56.5t-73.5 20.5h-128l-22 -176h128q54 0 89 24.5z" />
    <glyph glyph-name="uni042B" unicode="&#x42b;" horiz-adv-x="832" 
d="M492.5 384.5q54.5 -47.5 54.5 -132.5q0 -12 -2 -36q-12 -101 -83.5 -158.5t-198.5 -57.5h-240l82 672h128l-29 -240h128q106 0 160.5 -47.5zM599 0l82 672h128l-82 -672h-128zM383 152.5q35 24.5 35 74.5q0 36 -28.5 56.5t-73.5 20.5h-128l-22 -176h128q54 0 89 24.5z
" />
    <glyph glyph-name="uni042C" unicode="&#x42c;" horiz-adv-x="592" 
d="M492.5 384.5q54.5 -47.5 54.5 -132.5q0 -12 -2 -36q-12 -101 -83.5 -158.5t-198.5 -57.5h-240l82 672h128l-29 -240h128q106 0 160.5 -47.5zM383 152.5q35 24.5 35 74.5q0 36 -28.5 56.5t-73.5 20.5h-128l-22 -176h128q54 0 89 24.5z" />
    <glyph glyph-name="uni042D" unicode="&#x42d;" horiz-adv-x="640" 
d="M368.5 159.5q68.5 47.5 97.5 120.5h-281l14 112h281q-11 73 -67.5 120.5t-136.5 47.5q-48 0 -93.5 -18t-82.5 -50l-35 116q47 38 108.5 59t119.5 21q90 0 162.5 -41t114 -112t41.5 -157q0 -21 -3 -42q-12 -95 -70 -176t-146 -128.5t-185 -47.5q-58 0 -114.5 21.5
t-93.5 59.5l63 116q28 -33 68.5 -51t89.5 -18q80 0 148.5 47.5z" />
    <glyph glyph-name="uni042E" unicode="&#x42e;" horiz-adv-x="1024" 
d="M842.5 647q71.5 -41 112 -111.5t40.5 -156.5q0 -20 -3 -43q-12 -95 -69 -176t-144 -128.5t-182 -47.5q-85 0 -154 37.5t-110.5 103.5t-46.5 147h-102l-33 -272h-128l82 672h128l-33 -272h102q25 81 82.5 147t135.5 103.5t163 37.5q88 0 159.5 -41zM736.5 146.5
q58.5 34.5 94 92.5t35.5 125q0 54 -25.5 99t-71 71t-101.5 26q-66 0 -124.5 -34.5t-94 -92.5t-35.5 -125q0 -54 25.5 -99t71 -71t101.5 -26q66 0 124.5 34.5z" />
    <glyph glyph-name="uni042F" unicode="&#x42f;" horiz-adv-x="608" 
d="M189 234q-62 20 -95.5 70t-33.5 114q0 10 2 30q13 102 84.5 163t198.5 61h240l-82 -672h-128l27 224h-77l-178 -224h-156zM314 544q-52 0 -88.5 -28.5t-36.5 -78.5q0 -37 28.5 -61t72.5 -24h128l24 192h-128z" />
    <glyph glyph-name="uni0430" unicode="&#x430;" 
d="M407 0q-9 16 -9 52q-68 -68 -161 -68q-62 0 -112 30t-78 82.5t-28 116.5q0 11 2 35q9 72 50 132.5t102.5 96t128.5 35.5q92 0 143 -69l7 53h128l-49 -400q-4 -32 -4 -52q0 -28 8 -44h-128zM343 133q36 21 57.5 56t21.5 75q0 51 -34 85.5t-86 34.5q-39 0 -75 -21
t-57.5 -56t-21.5 -75q0 -51 34 -85.5t86 -34.5q39 0 75 21z" />
    <glyph glyph-name="uni0431" unicode="&#x431;" horiz-adv-x="592" 
d="M318 512q72 0 124.5 -30t80.5 -82t28 -116q0 -24 -2 -36q-9 -72 -51.5 -132.5t-107.5 -96t-137 -35.5q-66 0 -119.5 30.5t-84 83.5t-30.5 117q0 11 2 33q12 98 59.5 175t135.5 141l32 23q53 37 79 60.5t46 56.5h152q-12 -44 -46 -77.5t-94 -63.5q-37 -18 -53 -27.5
t-35 -25.5q10 2 21 2zM343 133q36 21 57.5 56t21.5 75q0 51 -34 85.5t-86 34.5q-39 0 -75 -21t-57.5 -56t-21.5 -75q0 -51 34 -85.5t86 -34.5q39 0 75 21z" />
    <glyph glyph-name="uni0432" unicode="&#x432;" horiz-adv-x="544" 
d="M457.5 228q17.5 -23 17.5 -56q0 -11 -1 -16q-11 -84 -74.5 -120t-176.5 -36h-200l61 496h184q215 0 215 -120q0 -40 -20 -72t-56 -43q33 -10 50.5 -33zM187 296h102q24 0 43.5 8.5t19.5 30.5q0 18 -17 25.5t-37 7.5h-102zM326.5 140q20.5 12 20.5 33q0 17 -16.5 26
t-37.5 9h-117l-10 -80h117q23 0 43.5 12z" />
    <glyph glyph-name="uni0433" unicode="&#x433;" horiz-adv-x="416" 
d="M151 0h-128l61 496h320l-16 -128h-192z" />
    <glyph glyph-name="uni0434" unicode="&#x434;" horiz-adv-x="672" 
d="M598 128l-31 -256h-128l16 128h-336l-16 -128h-128l31 256q85 7 127 101t63 267h368l-46 -368h80zM390 128l30 240h-128q-9 -73 -32.5 -135.5t-60.5 -104.5h191z" />
    <glyph glyph-name="uni0435" unicode="&#x435;" horiz-adv-x="560" 
d="M510 208h-361q8 -51 42 -81.5t92 -30.5q39 0 79.5 12t73.5 34l24 -111q0 -1 -27 -13.5t-70 -23t-96 -10.5q-125 0 -186.5 61.5t-61.5 161.5q0 27 2 41q9 75 45 134.5t98 94.5t146 35q103 0 157 -55t54 -156q0 -15 -4 -53q-1 -16 -7 -40zM388 304q3 22 -7 44t-33.5 37
t-59.5 15q-30 0 -58 -15t-45.5 -37.5t-20.5 -43.5h224z" />
    <glyph glyph-name="uni0436" unicode="&#x436;" horiz-adv-x="832" 
d="M775 0h-160l-152 196l-24 -196h-128l24 196l-200 -196h-160l263 256l-186 240h160l137 -188l23 188h128l-23 -188l183 188h160l-246 -240z" />
    <glyph glyph-name="uni0437" unicode="&#x437;" horiz-adv-x="512" 
d="M283 122.5q31 12.5 31 34.5q0 25 -48.5 38t-121.5 13l10 80q78 0 123.5 14.5t50.5 37.5q1 1 1 5q0 17 -21 29t-63 12q-54 0 -93 -11t-71 -33l-31 108q45 29 103 45.5t107 16.5q93 0 146.5 -34t53.5 -97q0 -38 -21 -70t-61 -47q30 -12 47 -39.5t17 -59.5q0 -10 -1 -15
q-9 -79 -76.5 -122.5t-166.5 -43.5q-52 0 -107.5 15t-94.5 46l53 105q23 -19 68.5 -29.5t89.5 -10.5q45 0 76 12.5z" />
    <glyph glyph-name="uni0438" unicode="&#x438;" horiz-adv-x="608" 
d="M511 44q0 -28 8 -44h-128q-8 16 -8 44q0 20 4 52l26 212l-262 -308h-128l61 496h128l-38 -308l262 308h128l-49 -400q-4 -32 -4 -52z" />
    <glyph glyph-name="uni0439" unicode="&#x439;" horiz-adv-x="608" 
d="M493 704q-5 -39 -28 -72t-58.5 -52.5t-74.5 -19.5q-55 0 -91.5 36t-36.5 90q0 12 1 18h68q-4 -31 15.5 -53.5t51.5 -22.5q31 0 56 22t29 54h68zM511 44q0 -28 8 -44h-128q-8 16 -8 44q0 20 4 52l26 212l-262 -308h-128l61 496h128l-38 -308l262 308h128l-49 -400
q-4 -32 -4 -52z" />
    <glyph glyph-name="uni043A" unicode="&#x43a;" horiz-adv-x="560" 
d="M519 0h-160l-184 196l-24 -196h-128l61 496h128l-23 -188l215 188h160l-270 -240z" />
    <glyph glyph-name="uni043B" unicode="&#x43b;" horiz-adv-x="608" 
d="M511 44q0 -28 8 -44h-128q-8 16 -8 44q0 20 4 52l33 272h-152l-23 -187q-25 -197 -157 -197q-28 0 -45.5 4t-35.5 12l13 112q30 -8 49 -8q23 0 36.5 14.5t17.5 49.5l41 328h400l-49 -400q-4 -32 -4 -52z" />
    <glyph glyph-name="uni043C" unicode="&#x43c;" horiz-adv-x="688" 
d="M491 284l-132 -284h-112l-62 284l-86 -284h-124l152 496h124l72 -329l154 329h124l30 -496h-124z" />
    <glyph glyph-name="uni043D" unicode="&#x43d;" horiz-adv-x="592" 
d="M495 44q0 -28 8 -44h-128q-8 16 -8 44q0 20 4 52l10 88h-208l-22 -184h-128l61 496h128l-23 -184h208l23 184h128l-49 -400q-4 -32 -4 -52z" />
    <glyph glyph-name="uni043E" unicode="&#x43e;" horiz-adv-x="592" 
d="M437.5 481.5q53.5 -30.5 83.5 -83.5t30 -117q0 -11 -2 -33q-9 -72 -51.5 -132.5t-107.5 -96t-137 -35.5q-66 0 -119.5 30.5t-84 83.5t-30.5 117q0 11 2 33q9 72 52 132.5t108 96t137 35.5q66 0 119.5 -30.5zM343 133q36 21 57.5 56t21.5 75q0 51 -34 85.5t-86 34.5
q-39 0 -75 -21t-57.5 -56t-21.5 -75q0 -51 34 -85.5t86 -34.5q39 0 75 21z" />
    <glyph glyph-name="uni043F" unicode="&#x43f;" horiz-adv-x="592" 
d="M495 44q0 -28 8 -44h-128q-8 16 -8 44q0 20 4 52l33 272h-208l-45 -368h-128l61 496h464l-49 -400q-4 -32 -4 -52z" />
    <glyph glyph-name="uni0440" unicode="&#x440;" 
d="M477.5 482q49.5 -30 77.5 -82.5t28 -116.5q0 -11 -2 -35q-9 -72 -49.5 -132.5t-102 -96t-128.5 -35.5q-91 0 -144 69l-38 -309h-128l93 752h128l-7 -53q69 69 161 69q62 0 111.5 -30zM375 133q36 21 57.5 56t21.5 75q0 51 -34 85.5t-86 34.5q-39 0 -75 -21t-57.5 -56
t-21.5 -75q0 -51 34 -85.5t86 -34.5q39 0 75 21z" />
    <glyph glyph-name="uni0441" unicode="&#x441;" horiz-adv-x="512" 
d="M350 124q32 12 55 33l39 -114q-33 -28 -81.5 -43.5t-97.5 -15.5q-77 0 -132.5 29.5t-84.5 81t-29 116.5q0 25 2 37q9 73 50 133.5t108 95.5t151 35q49 0 91.5 -14.5t72.5 -44.5l-67 -115q-18 21 -47 33.5t-62 12.5q-49 0 -88 -21t-60.5 -56t-21.5 -76q0 -52 36 -85.5
t100 -33.5q34 0 66 12z" />
    <glyph glyph-name="uni0442" unicode="&#x442;" horiz-adv-x="480" 
d="M468 496l-16 -128h-144l-45 -368h-128l45 368h-144l16 128h416z" />
    <glyph glyph-name="uni0443" unicode="&#x443;" horiz-adv-x="528" 
d="M548 496l-413 -752h-144l164 292l-135 460h144l84 -292l156 292h144z" />
    <glyph glyph-name="uni0444" unicode="&#x444;" horiz-adv-x="832" 
d="M701 483q44 -29 67.5 -79.5t23.5 -113.5q0 -21 -3 -42q-9 -73 -44.5 -133.5t-91 -95.5t-120.5 -35q-37 0 -55.5 6.5t-37.5 17.5l-27 -216h-128l27 216q-21 -11 -41.5 -17.5t-57.5 -6.5q-59 0 -103 29t-68 79.5t-24 114.5q0 20 3 41q9 73 45 133.5t91.5 95.5t120.5 35
q37 0 55.5 -6.5t37.5 -17.5l26 216h128l-26 -216q21 11 41.5 17.5t57.5 6.5q59 0 103 -29zM304 127q24 15 27 41l20 157q4 29 -16 44t-50 15q-66 0 -102 -46.5t-36 -115.5q0 -50 26 -80t78 -30q29 0 53 15zM627 158.5q36 46.5 36 115.5q0 50 -26 80t-78 30q-30 0 -53 -15
t-27 -44l-20 -157q-3 -26 17 -41t49 -15q66 0 102 46.5z" />
    <glyph glyph-name="uni0445" unicode="&#x445;" horiz-adv-x="560" 
d="M503 0h-160l-85 160l-123 -160h-160l216 264l-139 232h160l70 -140l106 140h160l-197 -232z" />
    <glyph glyph-name="uni0446" unicode="&#x446;" horiz-adv-x="672" 
d="M598 128l-31 -256h-128l16 128h-432l61 496h128l-46 -368h208l46 368h128l-46 -368h96z" />
    <glyph glyph-name="uni0447" unicode="&#x447;" horiz-adv-x="560" 
d="M463 44q0 -28 8 -44h-128q-8 16 -8 44q0 20 4 52l10 88q-37 -12 -64 -18t-67 -6q-76 0 -122.5 40.5t-46.5 122.5q0 24 2 37l17 136h128l-15 -118q-1 -6 -1 -18q0 -72 82 -72q22 0 55.5 3.5t45.5 7.5l25 197h128l-49 -400q-4 -32 -4 -52z" />
    <glyph glyph-name="uni0448" unicode="&#x448;" horiz-adv-x="800" 
d="M756 496l-61 -496h-672l61 496h128l-46 -368h144l46 368h128l-46 -368h144l46 368h128z" />
    <glyph glyph-name="uni0449" unicode="&#x449;" horiz-adv-x="880" 
d="M806 128l-31 -256h-128l16 128h-640l61 496h128l-46 -368h144l46 368h128l-46 -368h144l46 368h128l-46 -368h96z" />
    <glyph glyph-name="uni044A" unicode="&#x44a;" 
d="M574 199q0 -9 -2 -27q-11 -87 -72.5 -129.5t-164.5 -42.5h-216l45 368h-128l16 128h256l-20 -160h88q198 0 198 -137zM424.5 140q18.5 12 18.5 33q0 18 -15 26.5t-39 8.5h-117l-10 -80h117q27 0 45.5 12z" />
    <glyph glyph-name="uni044B" unicode="&#x44b;" horiz-adv-x="768" 
d="M84 496h128l-20 -160h88q198 0 198 -137q0 -9 -2 -27q-11 -87 -72.5 -129.5t-164.5 -42.5h-216zM675 96q-4 -32 -4 -52q0 -28 8 -44h-128q-8 16 -8 44q0 20 4 52l49 400h128zM328.5 140q18.5 12 18.5 33q0 18 -15 26.5t-39 8.5h-117l-10 -80h117q27 0 45.5 12z" />
    <glyph glyph-name="uni044C" unicode="&#x44c;" horiz-adv-x="528" 
d="M84 496h128l-20 -160h88q198 0 198 -137q0 -9 -2 -27q-11 -87 -72.5 -129.5t-164.5 -42.5h-216zM328.5 140q18.5 12 18.5 33q0 18 -15 26.5t-39 8.5h-117l-10 -80h117q27 0 45.5 12z" />
    <glyph glyph-name="uni044D" unicode="&#x44d;" horiz-adv-x="512" 
d="M274 141q43 29 59 75h-188l8 64h188q-5 46 -41 75t-94 29q-33 0 -65 -12.5t-56 -33.5l-39 115q37 30 84 44.5t96 14.5q76 0 131.5 -29.5t84.5 -81t29 -116.5q0 -25 -2 -37q-9 -74 -49.5 -134t-107 -95t-151.5 -35q-49 0 -94.5 15.5t-70.5 43.5l67 114q19 -21 47.5 -33
t61.5 -12q59 0 102 29z" />
    <glyph glyph-name="uni044E" unicode="&#x44e;" horiz-adv-x="848" 
d="M693.5 481.5q53.5 -30.5 83.5 -83.5t30 -117q0 -11 -2 -33q-9 -72 -51.5 -132.5t-107.5 -96t-137 -35.5q-62 0 -113 27t-82.5 74.5t-37.5 106.5h-102l-23 -192h-128l61 496h128l-24 -192h102q20 59 63 106.5t101 74.5t120 27q66 0 119.5 -30.5zM599 133q36 21 57.5 56
t21.5 75q0 51 -34 85.5t-86 34.5q-39 0 -75 -21t-57.5 -56t-21.5 -75q0 -51 34 -85.5t86 -34.5q39 0 75 21z" />
    <glyph glyph-name="uni044F" unicode="&#x44f;" horiz-adv-x="544" 
d="M447 44q0 -28 8 -44h-128q-8 16 -8 44q0 20 4 52l7 64l-171 -160h-168l188 169q-59 5 -96.5 39.5t-37.5 90.5q0 14 1 21q11 88 76 132t178 44h200l-49 -400q-4 -32 -4 -52zM344 272l12 96h-109q-30 0 -51.5 -14t-21.5 -40q0 -21 17.5 -31.5t43.5 -10.5h109z" />
    <glyph glyph-name="uni0451" unicode="&#x451;" horiz-adv-x="560" 
d="M171 576q-16 16 -16 41q0 29 21.5 50t50.5 21q25 0 41 -15.5t16 -39.5q0 -30 -21.5 -51.5t-50.5 -21.5q-25 0 -41 16zM363 576q-16 16 -16 41q0 29 21.5 50t50.5 21q25 0 41 -15.5t16 -39.5q0 -30 -21.5 -51.5t-50.5 -21.5q-25 0 -41 16zM510 208h-361q8 -51 42 -81.5
t92 -30.5q39 0 79.5 12t73.5 34l24 -111q0 -1 -27 -13.5t-70 -23t-96 -10.5q-125 0 -186.5 61.5t-61.5 161.5q0 27 2 41q9 75 45 134.5t98 94.5t146 35q103 0 157 -55t54 -156q0 -15 -4 -53q-1 -16 -7 -40zM388 304q3 22 -7 44t-33.5 37t-59.5 15q-30 0 -58 -15t-45.5 -37.5
t-20.5 -43.5h224z" />
    <glyph glyph-name="uni0452" unicode="&#x452;" horiz-adv-x="592" 
d="M498.5 468q42.5 -44 42.5 -130q0 -23 -3 -50l-35 -288q-19 -151 -88.5 -211.5t-153.5 -60.5l-18 112q51 0 86 37.5t44 106.5l35 288q2 22 2 29q0 43 -20.5 63t-63.5 20q-48 0 -84 -32.5t-44 -95.5l-31 -256h-128l68 552h-64l7 64h64l11 88h128l-11 -88h64l-7 -64h-64
l-13 -104q31 32 68 48t90 16q76 0 118.5 -44z" />
    <glyph glyph-name="uni0453" unicode="&#x453;" horiz-adv-x="416" 
d="M253 704h144l-161 -144h-80zM151 0h-128l61 496h320l-16 -128h-192z" />
    <glyph glyph-name="uni0454" unicode="&#x454;" horiz-adv-x="512" 
d="M350 124q32 12 55 33l39 -114q-33 -28 -81.5 -43.5t-97.5 -15.5q-77 0 -132.5 29.5t-84.5 81t-29 116.5q0 25 2 37q9 73 50 133.5t108 95.5t151 35q49 0 91.5 -14.5t72.5 -44.5l-67 -115q-18 21 -47 33.5t-62 12.5q-59 0 -102 -29t-59 -75h188l-8 -64h-188
q5 -47 40.5 -75.5t94.5 -28.5q34 0 66 12z" />
    <glyph glyph-name="uni0455" unicode="&#x455;" horiz-adv-x="512" 
d="M419.5 264q39.5 -35 39.5 -83q0 -56 -29.5 -101t-84 -70.5t-126.5 -25.5q-78 0 -137.5 24t-83.5 48l56 120q29 -31 78.5 -50.5t95.5 -19.5t73.5 11.5t27.5 35.5q0 14 -18 21.5t-65 15.5q-112 18 -154.5 52.5t-42.5 89.5q0 8 2 28q5 40 37 75t84 56t115 21q42 0 91 -11
t96 -37l-51 -116q-19 16 -64.5 29t-93.5 13q-39 0 -62.5 -8.5t-23.5 -24.5t20 -23.5t45.5 -11.5t34.5 -6q101 -17 140.5 -52z" />
    <glyph glyph-name="uni0456" unicode="&#x456;" horiz-adv-x="256" 
d="M99.5 582q-22.5 22 -22.5 55q0 40 30 69.5t70 29.5q34 0 56 -22t22 -55q0 -40 -29.5 -69.5t-69.5 -29.5q-34 0 -56.5 22zM163 96q-4 -32 -4 -52q0 -28 8 -44h-128q-8 16 -8 44q0 20 4 52l49 400h128z" />
    <glyph glyph-name="uni0457" unicode="&#x457;" horiz-adv-x="256" 
d="M19 576q-16 16 -16 41q0 29 21.5 50t50.5 21q25 0 41 -15.5t16 -39.5q0 -30 -21.5 -51.5t-50.5 -21.5q-25 0 -41 16zM211 576q-16 16 -16 41q0 29 21.5 50t50.5 21q25 0 41 -15.5t16 -39.5q0 -30 -21.5 -51.5t-50.5 -21.5q-25 0 -41 16zM163 96q-4 -32 -4 -52
q0 -28 8 -44h-128q-8 16 -8 44q0 20 4 52l49 400h128z" />
    <glyph glyph-name="uni0458" unicode="&#x458;" horiz-adv-x="256" 
d="M99.5 582q-22.5 22 -22.5 55q0 40 30 69.5t70 29.5q34 0 56 -22t22 -55q0 -40 -29.5 -69.5t-69.5 -29.5q-34 0 -56.5 22zM84 496h128l-61 -496q-19 -151 -88.5 -211.5t-153.5 -60.5l-18 112q51 0 86 37.5t44 106.5z" />
    <glyph glyph-name="uni0459" unicode="&#x459;" horiz-adv-x="864" 
d="M762.5 297q50.5 -31 50.5 -101q0 -8 -2 -28q-10 -86 -71 -127t-165 -41h-200l45 368h-152l-23 -187q-25 -197 -157 -197q-28 0 -45.5 4t-35.5 12l13 112q30 -8 49 -8q23 0 36.5 14.5t17.5 49.5l41 328h400l-21 -168h72q97 0 147.5 -31zM664.5 137.5q18.5 9.5 18.5 30.5
q0 32 -55 32h-101l-9 -72h101q27 0 45.5 9.5z" />
    <glyph glyph-name="uni045A" unicode="&#x45a;" horiz-adv-x="848" 
d="M746.5 297q50.5 -31 50.5 -101q0 -8 -2 -28q-10 -86 -71 -127t-165 -41h-200l24 200h-208l-24 -200h-128l61 496h128l-21 -168h208l21 168h128l-21 -168h72q97 0 147.5 -31zM648.5 137.5q18.5 9.5 18.5 30.5q0 32 -55 32h-101l-9 -72h101q27 0 45.5 9.5z" />
    <glyph glyph-name="uni045B" unicode="&#x45b;" horiz-adv-x="592" 
d="M511 44q0 -28 8 -44h-128q-8 16 -8 44q0 20 4 52l21 176q2 22 2 29q0 43 -20.5 63t-63.5 20q-48 0 -84 -32.5t-44 -95.5l-31 -256h-128l68 552h-64l7 64h64l11 88h128l-11 -88h64l-7 -64h-64l-13 -104q31 32 68 48t90 16q76 0 118.5 -44t42.5 -130q0 -23 -3 -50l-23 -192
q-4 -32 -4 -52z" />
    <glyph glyph-name="uni045C" unicode="&#x45c;" horiz-adv-x="560" 
d="M317 704h144l-161 -144h-80zM519 0h-160l-184 196l-24 -196h-128l61 496h128l-23 -188l215 188h160l-270 -240z" />
    <glyph glyph-name="uni045E" unicode="&#x45e;" horiz-adv-x="528" 
d="M453 704q-5 -39 -28 -72t-58.5 -52.5t-74.5 -19.5q-55 0 -91.5 36t-36.5 90q0 12 1 18h68q-4 -31 15.5 -53.5t51.5 -22.5q31 0 56 22t29 54h68zM548 496l-413 -752h-144l164 292l-135 460h144l84 -292l156 292h144z" />
    <glyph glyph-name="uni045F" unicode="&#x45f;" horiz-adv-x="592" 
d="M548 496l-61 -496h-168l-16 -128h-128l16 128h-168l61 496h128l-46 -368h208l46 368h128z" />
    <glyph glyph-name="uni0462" unicode="&#x462;" 
d="M524.5 384.5q54.5 -47.5 54.5 -132.5q0 -12 -2 -36q-12 -101 -83.5 -158.5t-198.5 -57.5h-240l63 512h-80l11 96h80l12 96h128l-12 -96h160l-11 -96h-160l-10 -80h128q106 0 160.5 -47.5zM415 152.5q35 24.5 35 74.5q0 36 -28.5 56.5t-73.5 20.5h-128l-22 -176h128
q54 0 89 24.5z" />
    <glyph glyph-name="uni0463" unicode="&#x463;" horiz-adv-x="544" 
d="M494 199q0 -9 -2 -27q-11 -87 -72.5 -129.5t-164.5 -42.5h-216l48 392h-64l8 64h64l9 72h128l-9 -72h64l-8 -64h-64l-7 -56h88q198 0 198 -137zM344.5 140q18.5 12 18.5 33q0 18 -15 26.5t-39 8.5h-117l-10 -80h117q27 0 45.5 12z" />
    <glyph glyph-name="uni0472" unicode="&#x472;" horiz-adv-x="768" 
d="M586.5 647q71.5 -41 112 -111.5t40.5 -156.5q0 -20 -3 -43q-12 -95 -69 -176t-144 -128.5t-182 -47.5q-88 0 -159.5 41t-112 111.5t-40.5 156.5q0 21 3 43q12 95 69 176t144 128.5t182 47.5q88 0 159.5 -41zM303 533.5q-52 -26.5 -89 -72t-50 -100.5q51 26 124 26
q51 0 103 -18q57 -19 109 -19q74 0 108 37q-5 49 -32 88.5t-69.5 62t-94.5 22.5q-57 0 -109 -26.5zM464.5 138q51.5 26 88.5 70.5t50 99.5q-49 -25 -121 -25q-53 0 -108 19q-57 19 -106 19q-72 0 -108 -37q5 -49 31.5 -88.5t69.5 -61.5t95 -22q57 0 108.5 26z" />
    <glyph glyph-name="uni0473" unicode="&#x473;" horiz-adv-x="592" 
d="M437.5 481.5q53.5 -30.5 83.5 -83.5t30 -117q0 -11 -2 -33q-9 -72 -51.5 -132.5t-107.5 -96t-137 -35.5q-66 0 -119.5 30.5t-84 83.5t-30.5 117q0 11 2 33q9 72 52 132.5t108 96t137 35.5q66 0 119.5 -30.5zM217.5 357q-39.5 -27 -57.5 -69q27 12 60 12q20 0 34.5 -4.5
t36.5 -13.5q41 -18 66 -18q37 0 61 36q-11 37 -42.5 60.5t-73.5 23.5q-45 0 -84.5 -27zM352.5 139q39.5 27 57.5 69q-27 -12 -57 -12q-20 0 -36.5 5t-39.5 14q-41 17 -64 17q-36 0 -60 -36q12 -38 42.5 -61t72.5 -23q45 0 84.5 27z" />
    <glyph glyph-name="uni0474" unicode="&#x474;" horiz-adv-x="688" 
d="M668 688q26 0 47 -4l-16 -128q-6 1 -18 1q-30 0 -53 -14t-40 -48l-261 -495h-96l-190 672h144l121 -448l154 297q36 72 67 109t71 48q40 10 70 10z" />
    <glyph glyph-name="uni0475" unicode="&#x475;" horiz-adv-x="560" 
d="M536.5 508q14.5 -4 27.5 -12l-14 -112q-12 3 -24 3q-29 0 -53.5 -22t-49.5 -69l-160 -296h-96l-147 496h144l74 -304l39 78l17 34q34 71 59.5 112.5t61 68.5t83.5 27q24 0 38.5 -4z" />
    <glyph glyph-name="uni0490" unicode="&#x490;" horiz-adv-x="512" 
d="M533 768l-27 -224h-288l-67 -544h-128l82 672h304l12 96h112z" />
    <glyph glyph-name="uni0491" unicode="&#x491;" horiz-adv-x="416" 
d="M415 592l-27 -224h-192l-45 -368h-128l61 496h208l11 96h112z" />
    <glyph glyph-name="uni0492" unicode="&#x492;" horiz-adv-x="528" 
d="M234 544l-25 -200h96l-8 -64h-96l-34 -280h-128l34 280h-64l8 64h64l40 328h416l-15 -128h-288z" />
    <glyph glyph-name="uni0493" unicode="&#x493;" horiz-adv-x="432" 
d="M212 368l-15 -120h96l-8 -64h-96l-22 -184h-128l22 184h-64l8 64h64l31 248h320l-16 -128h-192z" />
    <glyph glyph-name="uni0496" unicode="&#x496;" horiz-adv-x="992" 
d="M950 128l-27 -224h-112l12 96h-50l-219 286l-35 -286h-128l35 286l-289 -286h-162l346 343l-248 329h162l203 -286l35 286h128l-35 -286l273 286h162l-328 -329l164 -215h113z" />
    <glyph glyph-name="uni0497" unicode="&#x497;" horiz-adv-x="832" 
d="M790 128l-27 -224h-112l12 96h-48l-152 196l-24 -196h-128l24 196l-200 -196h-160l263 256l-186 240h160l137 -188l23 188h128l-23 -188l183 188h160l-246 -240l100 -128h116z" />
    <glyph glyph-name="uni049A" unicode="&#x49a;" 
d="M582 128l-27 -224h-112l12 96h-50l-218 294l-36 -294h-128l82 672h128l-34 -278l272 278h162l-327 -321l165 -223h111z" />
    <glyph glyph-name="uni049B" unicode="&#x49b;" horiz-adv-x="576" 
d="M534 128l-27 -224h-112l12 96h-48l-184 196l-24 -196h-128l61 496h128l-23 -188l215 188h160l-270 -240l112 -128h128z" />
    <glyph glyph-name="uni04A2" unicode="&#x4a2;" horiz-adv-x="704" 
d="M662 128l-27 -224h-112l12 96h-96l33 272h-288l-33 -272h-128l82 672h128l-33 -272h288l33 272h128l-67 -544h80z" />
    <glyph glyph-name="uni04A3" unicode="&#x4a3;" 
d="M582 128l-27 -224h-112l12 96h-96l22 184h-208l-22 -184h-128l61 496h128l-23 -184h208l23 184h128l-46 -368h80z" />
    <glyph glyph-name="uni04AE" unicode="&#x4ae;" horiz-adv-x="608" 
d="M649 672l-289 -400l-33 -272h-128l33 272l-191 400h152l119 -272l185 272h152z" />
    <glyph glyph-name="uni04AF" unicode="&#x4af;" horiz-adv-x="512" 
d="M283 38l-36 -294h-128l36 294l-135 458h144l74 -304l150 304h144z" />
    <glyph glyph-name="uni04B0" unicode="&#x4b0;" horiz-adv-x="608" 
d="M357 248h64l-8 -64h-64l-22 -184h-128l22 184h-64l8 64h64l3 24l-191 400h152l119 -272l185 272h152l-289 -400z" />
    <glyph glyph-name="uni04B1" unicode="&#x4b1;" horiz-adv-x="512" 
d="M276 -24h80l-8 -64h-80l-21 -168h-128l21 168h-80l8 64h80l7 62l-135 458h144l74 -304l150 304h144l-249 -458z" />
    <glyph glyph-name="uni04B2" unicode="&#x4b2;" horiz-adv-x="704" 
d="M662 128l-27 -224h-112l12 96h-64l-137 256l-199 -256h-160l281 352l-184 320h161l123 -236l181 236h161l-262 -320l123 -224h103z" />
    <glyph glyph-name="uni04B3" unicode="&#x4b3;" horiz-adv-x="576" 
d="M534 128l-27 -224h-112l12 96h-64l-85 160l-123 -160h-160l216 264l-139 232h160l70 -140l106 140h160l-197 -232l78 -136h105z" />
    <glyph glyph-name="uni04B6" unicode="&#x4b6;" horiz-adv-x="656" 
d="M614 128l-27 -224h-112l12 96h-96l31 252q-86 -36 -165 -36q-90 0 -143.5 51t-53.5 145q0 22 3 44l26 216h128l-26 -216q-1 -7 -1 -20q0 -46 28.5 -69t78.5 -23q35 0 66 7t50 14.5t24 10.5l36 296h128l-67 -544h80z" />
    <glyph glyph-name="uni04B7" unicode="&#x4b7;" horiz-adv-x="592" 
d="M550 128l-27 -224h-112l12 96h-96l22 184q-37 -12 -64 -18t-67 -6q-76 0 -122.5 40.5t-46.5 122.5q0 24 2 37l17 136h128l-15 -118q-1 -6 -1 -18q0 -72 82 -72q22 0 55.5 3.5t45.5 7.5l25 197h128l-46 -368h80z" />
    <glyph glyph-name="uni04BA" unicode="&#x4ba;" 
d="M510.5 405q53.5 -51 53.5 -145q0 -21 -3 -44l-26 -216h-128l26 216q1 7 1 20q0 46 -28.5 69t-78.5 23q-35 0 -66 -7t-50 -14.5t-24 -10.5l-36 -296h-128l82 672h128l-31 -252q86 36 165 36q90 0 143.5 -51z" />
    <glyph glyph-name="uni04BB" unicode="&#x4bb;" horiz-adv-x="576" 
d="M495 44q0 -28 8 -44h-128q-8 16 -8 44q0 20 4 52l21 176q2 22 2 29q0 43 -20.5 63t-63.5 20q-48 0 -84 -32.5t-44 -95.5l-31 -256h-128l86 704h128l-31 -256q31 32 68 48t90 16q76 0 118.5 -44t42.5 -130q0 -23 -3 -50l-23 -192q-4 -32 -4 -52z" />
    <glyph glyph-name="uni04C0" unicode="&#x4c0;" horiz-adv-x="256" 
d="M23 0l82 672h128l-82 -672h-128z" />
    <glyph glyph-name="uni04CF" unicode="&#x4cf;" horiz-adv-x="256" 
d="M163 96q-4 -32 -4 -52q0 -28 8 -44h-128q-8 16 -8 44q0 20 4 52l49 400h128z" />
    <glyph glyph-name="uni04D8" unicode="&#x4d8;" horiz-adv-x="768" 
d="M43 392h565q-10 74 -64 121t-132 47q-59 0 -112.5 -28t-89.5 -76l-123 35q54 89 146 143t194 54q88 0 159.5 -41t112 -111.5t40.5 -156.5q0 -20 -3 -43q-12 -95 -69 -176t-144 -128.5t-182 -47.5q-88 0 -159.5 41t-112 111.5t-40.5 156.5q0 21 3 43q1 12 11 56zM224 159
q54 -47 132 -47t144 47t94 121h-434q10 -74 64 -121z" />
    <glyph glyph-name="uni04D9" unicode="&#x4d9;" horiz-adv-x="560" 
d="M28 288h361q-3 48 -27 80t-74 32q-36 0 -63.5 -15.5t-43.5 -38.5l-112 39q33 50 90.5 88.5t142.5 38.5q68 0 117.5 -29.5t75 -80t25.5 -114.5q0 -19 -3 -40q-9 -75 -45 -134.5t-97.5 -94.5t-145.5 -35q-103 0 -157 55.5t-54 157.5q0 24 3 51zM150 192q-3 -22 7 -44
t34 -37t60 -15q30 0 57.5 15t45 37.5t20.5 43.5h-224z" />
    <glyph glyph-name="uni04E2" unicode="&#x4e2;" horiz-adv-x="720" 
d="M267 752l8 64h288l-8 -64h-288zM176 208l393 464h128l-82 -672h-128l57 464l-393 -464h-128l82 672h128z" />
    <glyph glyph-name="uni04E3" unicode="&#x4e3;" horiz-adv-x="608" 
d="M189 576l8 64h288l-8 -64h-288zM511 44q0 -28 8 -44h-128q-8 16 -8 44q0 20 4 52l26 212l-262 -308h-128l61 496h128l-38 -308l262 308h128l-49 -400q-4 -32 -4 -52z" />
    <glyph glyph-name="uni04E8" unicode="&#x4e8;" horiz-adv-x="768" 
d="M586.5 647q71.5 -41 112 -111.5t40.5 -156.5q0 -20 -3 -43q-12 -95 -69 -176t-144 -128.5t-182 -47.5q-88 0 -159.5 41t-112 111.5t-40.5 156.5q0 21 3 43q12 95 69 176t144 128.5t182 47.5q88 0 159.5 -41zM305 535q-51 -25 -88 -69t-51 -98h444q-1 54 -27 98t-70.5 69
t-100.5 25t-107 -25zM463 137q51 25 88 69t51 98h-444q1 -54 27 -98t70.5 -69t100.5 -25t107 25z" />
    <glyph glyph-name="uni04E9" unicode="&#x4e9;" horiz-adv-x="592" 
d="M437.5 481.5q53.5 -30.5 83.5 -83.5t30 -117q0 -11 -2 -33q-9 -72 -51.5 -132.5t-107.5 -96t-137 -35.5q-66 0 -119.5 30.5t-84 83.5t-30.5 117q0 11 2 33q9 72 52 132.5t108 96t137 35.5q66 0 119.5 -30.5zM213.5 354.5q-40.5 -29.5 -56.5 -74.5h264q-5 45 -38 74.5
t-81 29.5t-88.5 -29.5zM356.5 141.5q40.5 29.5 56.5 74.5h-264q5 -45 38 -74.5t81 -29.5t88.5 29.5z" />
    <glyph glyph-name="uni04EE" unicode="&#x4ee;" 
d="M227 752l8 64h288l-8 -64h-288zM665 672l-442 -672h-152l160 244l-174 428h152l117 -290l187 290h152z" />
    <glyph glyph-name="uni04EF" unicode="&#x4ef;" horiz-adv-x="528" 
d="M149 576l8 64h288l-8 -64h-288zM548 496l-413 -752h-144l164 292l-135 460h144l84 -292l156 292h144z" />
    <glyph glyph-name="Wgrave" unicode="&#x1e80;" horiz-adv-x="992" 
d="M545 736l-126 144h144l62 -144h-80zM666 224l215 448h144l-322 -672h-128l-69 416l-171 -416h-128l-158 672h144l105 -448l183 448h112z" />
    <glyph glyph-name="wgrave" unicode="&#x1e81;" horiz-adv-x="768" 
d="M404 560l-127 144h144l63 -144h-80zM780 496l-229 -496h-116l-59 272l-125 -272h-116l-107 496h144l48 -320l136 320h96l56 -320l128 320h144z" />
    <glyph glyph-name="Wacute" unicode="&#x1e82;" horiz-adv-x="992" 
d="M563 880h144l-162 -144h-80zM666 224l215 448h144l-322 -672h-128l-69 416l-171 -416h-128l-158 672h144l105 -448l183 448h112z" />
    <glyph glyph-name="wacute" unicode="&#x1e83;" horiz-adv-x="768" 
d="M437 704h144l-161 -144h-80zM780 496l-229 -496h-116l-59 272l-125 -272h-116l-107 496h144l48 -320l136 320h96l56 -320l128 320h144z" />
    <glyph glyph-name="Wdieresis" unicode="&#x1e84;" horiz-adv-x="992" 
d="M408.5 752q-15.5 16 -15.5 40q0 30 21.5 51t50.5 21q25 0 40.5 -16t15.5 -40q0 -30 -21.5 -51t-50.5 -21q-25 0 -40.5 16zM600.5 752q-15.5 16 -15.5 40q0 30 21.5 51t50.5 21q25 0 40.5 -16t15.5 -40q0 -30 -21.5 -51t-50.5 -21q-25 0 -40.5 16zM666 224l215 448h144
l-322 -672h-128l-69 416l-171 -416h-128l-158 672h144l105 -448l183 448h112z" />
    <glyph glyph-name="wdieresis" unicode="&#x1e85;" horiz-adv-x="768" 
d="M275 576q-16 16 -16 41q0 29 21.5 50t50.5 21q25 0 41 -15.5t16 -39.5q0 -30 -21.5 -51.5t-50.5 -21.5q-25 0 -41 16zM467 576q-16 16 -16 41q0 29 21.5 50t50.5 21q25 0 41 -15.5t16 -39.5q0 -30 -21.5 -51.5t-50.5 -21.5q-25 0 -41 16zM780 496l-229 -496h-116l-59 272
l-125 -272h-116l-107 496h144l48 -320l136 320h96l56 -320l128 320h144z" />
    <glyph glyph-name="Ygrave" unicode="&#x1ef2;" horiz-adv-x="608" 
d="M337 736l-126 144h144l62 -144h-80zM649 672l-289 -400l-33 -272h-128l33 272l-191 400h152l119 -272l185 272h152z" />
    <glyph glyph-name="ygrave" unicode="&#x1ef3;" horiz-adv-x="528" 
d="M284 560l-127 144h144l63 -144h-80zM548 496l-413 -752h-144l164 292l-135 460h144l84 -292l156 292h144z" />
    <glyph glyph-name="endash" unicode="&#x2013;" horiz-adv-x="512" 
d="M33 216l12 96h416l-12 -96h-416z" />
    <glyph glyph-name="emdash" unicode="&#x2014;" horiz-adv-x="608" 
d="M33 216l12 96h512l-12 -96h-512z" />
    <glyph glyph-name="quoteleft" unicode="&#x2018;" horiz-adv-x="256" 
d="M192 464h-144l137 208h80z" />
    <glyph glyph-name="quoteright" unicode="&#x2019;" horiz-adv-x="256" 
d="M121 672h144l-137 -208h-80z" />
    <glyph glyph-name="quotesinglbase" unicode="&#x201a;" horiz-adv-x="256" 
d="M54 128h144l-137 -208h-80z" />
    <glyph glyph-name="quotedblleft" unicode="&#x201c;" horiz-adv-x="496" 
d="M192 464h-144l137 208h80zM432 464h-144l137 208h80z" />
    <glyph glyph-name="quotedblright" unicode="&#x201d;" horiz-adv-x="496" 
d="M121 672h144l-137 -208h-80zM361 672h144l-137 -208h-80z" />
    <glyph glyph-name="quotedblbase" unicode="&#x201e;" horiz-adv-x="496" 
d="M54 128h144l-137 -208h-80zM294 128h144l-137 -208h-80z" />
    <glyph glyph-name="dagger" unicode="&#x2020;" horiz-adv-x="656" 
d="M392 400l-139 -672l27 672h-224l12 96h224l33 272h112l-33 -272h224l-12 -96h-224z" />
    <glyph glyph-name="daggerdbl" unicode="&#x2021;" horiz-adv-x="656" 
d="M392 400l-16 -128h224l-12 -96h-232l-103 -448l7 448h-232l12 96h224l16 128h-224l12 96h224l33 272h112l-33 -272h224l-12 -96h-224z" />
    <glyph glyph-name="bullet" unicode="&#x2022;" horiz-adv-x="784" 
d="M483.5 426.5q29.5 -29.5 29.5 -75.5q0 -36 -18.5 -67t-50 -49.5t-67.5 -18.5q-46 0 -76 30t-30 75q0 37 19 68t50 49t67 18q47 0 76.5 -29.5z" />
    <glyph glyph-name="ellipsis" unicode="&#x2026;" horiz-adv-x="800" 
d="M34 3.5q-20 19.5 -20 49.5q0 37 26.5 64t63.5 27q31 0 51.5 -20t20.5 -51q0 -36 -27.5 -62.5t-63.5 -26.5q-31 0 -51 19.5zM306 3.5q-20 19.5 -20 49.5q0 37 26.5 64t63.5 27q31 0 51.5 -20t20.5 -51q0 -36 -27.5 -62.5t-63.5 -26.5q-31 0 -51 19.5zM578 3.5
q-20 19.5 -20 49.5q0 37 26.5 64t63.5 27q31 0 51.5 -20t20.5 -51q0 -36 -27.5 -62.5t-63.5 -26.5q-31 0 -51 19.5z" />
    <glyph glyph-name="perthousand" unicode="&#x2030;" horiz-adv-x="1184" 
d="M110.5 422q-38.5 38 -38.5 94q0 46 23.5 85.5t63.5 63t85 23.5q58 0 96 -38.5t38 -95.5q0 -45 -24 -84.5t-63.5 -62.5t-83.5 -23q-58 0 -96.5 38zM85 0l550 672h80l-550 -672h-80zM272 488q25 24 25 55q0 27 -18.5 46t-45.5 19q-32 0 -56.5 -24.5t-24.5 -56.5
q0 -26 18.5 -44.5t45.5 -18.5q31 0 56 24zM460.5 22.5q-38.5 38.5 -38.5 95.5q0 45 24 84t64 62.5t85 23.5q58 0 95.5 -37.5t37.5 -94.5q0 -46 -23.5 -85.5t-62.5 -63t-84 -23.5q-59 0 -97.5 38.5zM844.5 22.5q-38.5 38.5 -38.5 95.5q0 45 24 84t64 62.5t85 23.5
q58 0 95.5 -37.5t37.5 -94.5q0 -46 -23.5 -85.5t-62.5 -63t-84 -23.5q-59 0 -97.5 38.5zM623.5 88.5q24.5 24.5 24.5 56.5q0 26 -18.5 44.5t-45.5 18.5q-31 0 -56 -24t-25 -55q0 -27 18.5 -46t45.5 -19q32 0 56.5 24.5zM1007.5 88.5q24.5 24.5 24.5 56.5q0 26 -18.5 44.5
t-45.5 18.5q-31 0 -56 -24t-25 -55q0 -27 18.5 -46t45.5 -19q32 0 56.5 24.5z" />
    <glyph glyph-name="guilsinglleft" unicode="&#x2039;" horiz-adv-x="400" 
d="M152 272l133 -224h-112l-133 224l188 224h112z" />
    <glyph glyph-name="guilsinglright" unicode="&#x203a;" horiz-adv-x="400" 
d="M212 496l132 -224l-187 -224h-112l187 224l-132 224h112z" />
    <glyph glyph-name="fraction" unicode="&#x2044;" horiz-adv-x="212" 
d="M-209 0l550 672h80l-550 -672h-80z" />
    <glyph glyph-name="uni2070" unicode="&#x2070;" horiz-adv-x="360" 
d="M313.5 719.5q30.5 -40.5 30.5 -103.5q0 -10 -2 -32q-5 -48 -26.5 -88.5t-54.5 -64t-72 -23.5q-52 0 -82.5 41t-30.5 105q0 55 21 102.5t56.5 75.5t78.5 28q51 0 81.5 -40.5zM237.5 490.5q19.5 18.5 31 50t11.5 66.5q0 39 -15.5 64t-40.5 25q-20 0 -39.5 -18.5t-31.5 -49
t-12 -65.5q0 -39 15.5 -65t40.5 -26q21 0 40.5 18.5z" />
    <glyph glyph-name="uni2074" unicode="&#x2074;" horiz-adv-x="352" 
d="M330 544l-8 -64h-40l-8 -64h-64l8 64h-168l7 56l178 216h80l-25 -208h40zM242 676l-105 -132h89z" />
    <glyph glyph-name="uni2075" unicode="&#x2075;" horiz-adv-x="352" 
d="M300 615q29 -25 29 -67q0 -9 -1 -14q-7 -59 -46.5 -92.5t-96.5 -33.5q-59 0 -88.5 30t-26.5 78l65 5q0 -21 14 -35t44 -14q29 0 50 17.5t21 44.5q0 20 -13.5 33t-40.5 13q-44 0 -71 -28h-56l56 200h184l-8 -64h-132l-17 -64q23 16 63 16q42 0 71 -25z" />
    <glyph glyph-name="uni2076" unicode="&#x2076;" horiz-adv-x="360" 
d="M309 621q29 -29 29 -71q0 -9 -1 -14q-7 -57 -48.5 -92.5t-99.5 -35.5q-53 0 -85 30.5t-32 81.5q0 13 1 20q5 40 34.5 99.5t112.5 112.5h103q0 2 -28 -12t-60 -39t-56 -61q0 1 16 5.5t36 4.5q49 0 78 -29zM250.5 491q21.5 19 21.5 46q0 22 -16.5 36.5t-44.5 14.5
q-32 0 -53.5 -19t-21.5 -46q0 -22 17 -36.5t44 -14.5q32 0 53.5 19z" />
    <glyph glyph-name="uni2077" unicode="&#x2077;" horiz-adv-x="336" 
d="M371 752l-185 -336h-72l153 272h-160l8 64h256z" />
    <glyph glyph-name="uni2078" unicode="&#x2078;" horiz-adv-x="360" 
d="M336 533q0 -36 -20 -64.5t-54 -44.5t-73 -16q-51 0 -85 27.5t-34 70.5q0 31 14.5 56t40.5 43q-22 20 -22 50q0 44 39 74.5t90 30.5q45 0 75 -24t30 -61q0 -42 -36 -70q35 -29 35 -72zM185.5 685.5q-16.5 -10.5 -17.5 -25.5q-2 -15 11.5 -25.5t35.5 -10.5t38.5 10.5
t18.5 25.5t-12 25.5t-36 10.5t-38.5 -10.5zM249 489q22 17 22 40q0 20 -17.5 33.5t-44.5 13.5q-30 0 -52 -16.5t-22 -39.5q0 -20 18 -34t44 -14q30 0 52 17z" />
    <glyph glyph-name="uni2079" unicode="&#x2079;" horiz-adv-x="360" 
d="M112 547q-29 29 -29 72q0 8 1 13q7 57 49 92.5t99 35.5q53 0 85 -30t32 -81q0 -13 -1 -20q-5 -40 -34.5 -99.5t-112.5 -113.5h-103q0 -1 28 14t60 40t56 58q0 -1 -15.5 -5.5t-36.5 -4.5q-49 0 -78 29zM170.5 677q-21.5 -19 -21.5 -46q0 -22 16.5 -36.5t44.5 -14.5
q32 0 53.5 19t21.5 46q0 22 -17 36.5t-44 14.5q-32 0 -53.5 -19z" />
    <glyph glyph-name="Euro" unicode="&#x20ac;" horiz-adv-x="704" 
d="M522.5 130q45.5 18 81.5 51l35 -116q-47 -38 -108.5 -59.5t-119.5 -21.5q-83 0 -152 35.5t-112 97.5t-52 139h-73l6 48h65q0 11 1 18.5t2 13.5q1 9 5 32h-65l6 48h73q28 77 86 139t135.5 97.5t160.5 35.5q58 0 115 -21t93 -59l-63 -116q-29 32 -69.5 50t-88.5 18
q-73 0 -137 -40t-98 -104h209l-21 -48h-207q-6 -28 -6 -32q-2 -22 -2 -32h191l-20 -48h-164q18 -64 72 -104t127 -40q49 0 94.5 18z" />
    <glyph glyph-name="trademark" unicode="&#x2122;" horiz-adv-x="688" 
d="M303 672l-7 -57h-78l-30 -243h-58l30 243h-78l7 57h214zM644 372h-61l-1 196l-103 -196h-28l-55 196l-49 -196h-61l80 300h57l56 -193l102 193h57z" />
    <glyph glyph-name="oneeighth" unicode="&#x215b;" horiz-adv-x="908" 
d="M266 680l-42 -344h-64l33 266l-66 -14l7 60zM127 0l550 672h80l-550 -672h-80zM833 116l-1 -12q-7 -49 -49 -80.5t-97 -31.5q-51 0 -85 27.5t-34 70.5q0 31 14.5 56t40.5 43q-22 20 -22 50q0 44 39 74.5t90 30.5q45 0 75 -24t30 -61q0 -42 -36 -70q35 -30 35 -73z
M682.5 269.5q-16.5 -10.5 -17.5 -25.5q-2 -15 11.5 -25.5t35.5 -10.5t38.5 10.5t18.5 25.5t-12 25.5t-36 10.5t-38.5 -10.5zM746 73q22 17 22 40q0 20 -17.5 33.5t-44.5 13.5q-30 0 -52 -16.5t-22 -39.5q0 -20 18 -34t44 -14q30 0 52 17z" />
    <glyph glyph-name="threeeighths" unicode="&#x215c;" horiz-adv-x="924" 
d="M306.5 489.5q11.5 -18.5 11.5 -40.5q0 -28 -15.5 -56t-47.5 -46.5t-80 -18.5q-57 0 -87 30t-27 82l65 8q1 -27 14.5 -41.5t45.5 -14.5q24 0 45 13t21 36q0 41 -82 41l6 52q86 6 86 47q0 16 -13.5 25.5t-35.5 9.5q-52 0 -65 -52l-63 8q11 48 47.5 78t85.5 30q53 0 81 -26
t28 -60l-1 -10q-5 -47 -47 -70q16 -6 27.5 -24.5zM143 0l550 672h80l-550 -672h-80zM849 116l-1 -12q-7 -49 -49 -80.5t-97 -31.5q-51 0 -85 27.5t-34 70.5q0 31 14.5 56t40.5 43q-22 20 -22 50q0 44 39 74.5t90 30.5q45 0 75 -24t30 -61q0 -42 -36 -70q35 -30 35 -73z
M698.5 269.5q-16.5 -10.5 -17.5 -25.5q-2 -15 11.5 -25.5t35.5 -10.5t38.5 10.5t18.5 25.5t-12 25.5t-36 10.5t-38.5 -10.5zM762 73q22 17 22 40q0 20 -17.5 33.5t-44.5 13.5q-30 0 -52 -16.5t-22 -39.5q0 -20 18 -34t44 -14q30 0 52 17z" />
    <glyph glyph-name="fiveeighths" unicode="&#x215d;" horiz-adv-x="924" 
d="M290 535q29 -25 29 -66q0 -10 -1 -15q-7 -59 -46.5 -92.5t-96.5 -33.5q-59 0 -88 29.5t-27 78.5l65 5q0 -21 14 -35t44 -14q29 0 50 17.5t21 44.5q0 20 -13.5 33t-40.5 13q-44 0 -71 -28h-56l56 200h184l-8 -64h-132l-16 -64q22 16 63 16t70 -25zM143 0l550 672h80
l-550 -672h-80zM849 116l-1 -12q-7 -49 -49 -80.5t-97 -31.5q-51 0 -85 27.5t-34 70.5q0 31 14.5 56t40.5 43q-22 20 -22 50q0 44 39 74.5t90 30.5q45 0 75 -24t30 -61q0 -42 -36 -70q35 -30 35 -73zM698.5 269.5q-16.5 -10.5 -17.5 -25.5q-2 -15 11.5 -25.5t35.5 -10.5
t38.5 10.5t18.5 25.5t-12 25.5t-36 10.5t-38.5 -10.5zM762 73q22 17 22 40q0 20 -17.5 33.5t-44.5 13.5q-30 0 -52 -16.5t-22 -39.5q0 -20 18 -34t44 -14q30 0 52 17z" />
    <glyph glyph-name="seveneighths" unicode="&#x215e;" horiz-adv-x="908" 
d="M361 672l-185 -336h-72l153 272h-160l8 64h256zM127 0l550 672h80l-550 -672h-80zM833 116l-1 -12q-7 -49 -49 -80.5t-97 -31.5q-51 0 -85 27.5t-34 70.5q0 31 14.5 56t40.5 43q-22 20 -22 50q0 44 39 74.5t90 30.5q45 0 75 -24t30 -61q0 -42 -36 -70q35 -30 35 -73z
M682.5 269.5q-16.5 -10.5 -17.5 -25.5q-2 -15 11.5 -25.5t35.5 -10.5t38.5 10.5t18.5 25.5t-12 25.5t-36 10.5t-38.5 -10.5zM746 73q22 17 22 40q0 20 -17.5 33.5t-44.5 13.5q-30 0 -52 -16.5t-22 -39.5q0 -20 18 -34t44 -14q30 0 52 17z" />
    <glyph glyph-name="partialdiff" unicode="&#x2202;" 
d="M516 117.5q-41 -62.5 -105.5 -98t-141.5 -35.5q-73 0 -126 29.5t-80.5 80.5t-27.5 116q0 25 2 38q9 74 48.5 134t103.5 95t145 35q50 0 82 -17q-11 49 -48.5 92t-88.5 69.5t-100 31.5l70 112q102 -21 175 -88t110 -164.5t37 -208.5q0 -36 -5 -81q-9 -78 -50 -140.5z
M359 133q36 21 57.5 56t21.5 75q0 51 -34 85.5t-86 34.5q-39 0 -75 -21t-57.5 -56t-21.5 -75q0 -51 34 -85.5t86 -34.5q39 0 75 21z" />
    <glyph glyph-name="emptyset" unicode="&#x2205;" horiz-adv-x="632" 
 />
    <glyph glyph-name="product" unicode="&#x220f;" horiz-adv-x="656" 
d="M519 -256h-128l102 832h-272l-102 -832h-128l118 960h528z" />
    <glyph glyph-name="summation" unicode="&#x2211;" horiz-adv-x="688" 
d="M516 240l-331 -368h382l-16 -128h-560l16 128l333 368l-243 368l16 128h560l-16 -128h-382z" />
    <glyph glyph-name="minus" unicode="&#x2212;" horiz-adv-x="496" 
d="M449 344l-10 -80h-400l10 80h400z" />
    <glyph glyph-name="radical" unicode="&#x221a;" horiz-adv-x="928" 
d="M922 544h-339l-288 -544h-96l-147 496h144l74 -304l236 480h431z" />
    <glyph glyph-name="infinity" unicode="&#x221e;" 
d="M533.5 402q37.5 -38 37.5 -95q0 -46 -24 -85.5t-63.5 -62.5t-83.5 -23q-33 0 -60.5 13t-46.5 36q-23 -23 -53.5 -36t-63.5 -13q-59 0 -97 38t-38 95q0 45 24 84.5t64 63t85 23.5q32 0 59.5 -13t45.5 -36q24 23 55 36t64 13q58 0 95.5 -38zM242 240.5q25 24.5 25 56.5
q0 26 -18.5 44.5t-45.5 18.5q-32 0 -57 -24.5t-25 -56.5q0 -26 18.5 -44.5t45.5 -18.5q32 0 57 24.5zM466 240.5q25 24.5 25 56.5q0 26 -18.5 44.5t-45.5 18.5q-32 0 -57 -24.5t-25 -56.5q0 -26 18.5 -44.5t45.5 -18.5q32 0 57 24.5z" />
    <glyph glyph-name="integral" unicode="&#x222b;" horiz-adv-x="352" 
d="M193 630.5q52 57.5 154 57.5l-15 -128q-29 0 -49.5 -21.5t-24.5 -57.5l-65 -525q-13 -112 -65.5 -170t-154.5 -58l16 128q29 0 49.5 21.5t24.5 57.5l64 525q14 113 66 170.5z" />
    <glyph glyph-name="approxequal" unicode="&#x2248;" horiz-adv-x="528" 
d="M492 436q-32 -52 -68 -72t-77 -20q-18 0 -33.5 5t-43.5 17l-19 9q-41 16 -63 16q-42 0 -70 -47l-66 28q32 52 68.5 72t77.5 20q27 0 73 -22l23 -10q39 -16 61 -16q42 0 72 48zM470 252q-32 -52 -68.5 -72t-77.5 -20q-18 0 -35 5.5t-39 16.5l-22 9q-39 16 -62 16
q-41 0 -71 -47l-65 28q32 52 68 72t77 20q17 0 34.5 -6t40.5 -17l21 -9q39 -16 61 -16q21 0 38.5 11t33.5 37z" />
    <glyph glyph-name="notequal" unicode="&#x2260;" horiz-adv-x="512" 
d="M296 336l-24 -64h184l-10 -80h-203l-68 -192h-64l68 192h-149l10 80h168l24 64h-184l10 80h203l68 192h64l-68 -192h149l-10 -80h-168z" />
    <glyph glyph-name="lessequal" unicode="&#x2264;" horiz-adv-x="528" 
d="M50 352l8 64l457 208l-11 -96l-330 -144l294 -144l-12 -96zM439 0h-432l10 80h432z" />
    <glyph glyph-name="greaterequal" unicode="&#x2265;" horiz-adv-x="528" 
d="M36 240l330 144l-294 144l11 96l407 -208l-8 -64l-458 -208zM449 80l-10 -80h-432l10 80h432z" />
    <glyph glyph-name="lozenge" unicode="&#x25ca;" horiz-adv-x="640" 
d="M277 -16l-229 352l315 352l229 -352zM345 538l-183 -202l133 -202l185 202z" />
    <glyph glyph-name="M.ss01" horiz-adv-x="800" 
d="M777 672l-82 -672h-128l55 454l-247 -321l-169 321l-55 -454h-128l82 672h128l168 -330l248 330h128z" />
    <glyph glyph-name="j.ss01" horiz-adv-x="256" 
d="M99.5 582q-22.5 22 -22.5 55q0 40 30 69.5t70 29.5q34 0 56 -22t22 -55q0 -40 -29.5 -69.5t-69.5 -29.5q-34 0 -56.5 22zM84 496h128l-93 -752h-128z" />
    <glyph glyph-name="t.ss01" horiz-adv-x="368" 
d="M230 384l-35 -288q-4 -32 -4 -52q0 -28 8 -44h-128q-8 16 -8 44q0 20 4 52l35 288h-64l14 112h64l21 176h128l-21 -176h96l-14 -112h-96z" />
    <glyph glyph-name="tbar.ss01" horiz-adv-x="368" 
d="M230 384l-10 -80h96l-8 -64h-96l-17 -144q-4 -32 -4 -52q0 -28 8 -44h-128q-8 16 -8 44q0 20 4 52l17 144h-64l8 64h64l10 80h-64l14 112h64l21 176h128l-21 -176h96l-14 -112h-96z" />
    <glyph glyph-name="tcaron.ss01" horiz-adv-x="528" 
d="M230 384l-35 -288q-4 -32 -4 -52q0 -28 8 -44h-128q-8 16 -8 44q0 20 4 52l35 288h-64l14 112h64l21 176h128l-21 -176h96l-14 -112h-96zM425 672h112l-95 -128h-64z" />
    <glyph glyph-name="uni0163.ss01" horiz-adv-x="368" 
d="M230 384l-35 -288q-4 -32 -4 -52q0 -28 8 -44h-16l-49 -48q6 1 16 1q47 0 78.5 -27t31.5 -72q0 -9 -1 -14q-5 -40 -30 -73t-64 -52t-84 -19q-84 0 -120 63l62 61q6 -23 22.5 -37.5t43.5 -14.5q48 0 75.5 25t27.5 56q0 25 -20 40t-49 15q-38 0 -64 -16l-28 48l68 64h-28
q-8 16 -8 44q0 20 4 52l35 288h-64l14 112h64l21 176h128l-21 -176h96l-14 -112h-96z" />
    <glyph glyph-name="uni021B.ss01" horiz-adv-x="368" 
d="M230 384l-35 -288q-4 -32 -4 -52q0 -28 8 -44h-128q-8 16 -8 44q0 20 4 52l35 288h-64l14 112h64l21 176h128l-21 -176h96l-14 -112h-96zM55 -64h112l-96 -128h-64z" />
    <glyph glyph-name="f_f.dlig" horiz-adv-x="768" 
d="M703 598q-30 0 -45 -12.5t-20.5 -32t-9.5 -57.5h112l-14 -112h-112l-47 -384h-128l47 384h-256l-47 -384h-128l47 384h-64l14 112h64q12 100 54.5 162t132.5 62q26 0 42 -3.5t36 -12.5l-14 -112q-28 6 -48 6q-30 0 -45 -12.5t-20.5 -32t-9.5 -57.5h256q12 100 54.5 162
t132.5 62q26 0 42 -3.5t36 -12.5l-14 -112q-28 6 -48 6z" />
    <glyph glyph-name="f_f_i.dlig" horiz-adv-x="1024" 
d="M927 44q0 -28 8 -44h-128q-8 16 -8 44q0 20 4 52l35 288h-224l-47 -384h-128l47 384h-256l-47 -384h-128l47 384h-64l14 112h64q12 100 54.5 162t132.5 62q26 0 42 -3.5t36 -12.5l-14 -112q-28 6 -48 6q-30 0 -45 -12.5t-20.5 -32t-9.5 -57.5h256q12 100 54.5 162
t132.5 62q26 0 42 -3.5t36 -12.5l-14 -112q-28 6 -48 6q-30 0 -45 -12.5t-20.5 -32t-9.5 -57.5h352l-49 -400q-4 -32 -4 -52z" />
    <glyph glyph-name="f_f_j.dlig" horiz-adv-x="1024" 
d="M919 0q-19 -151 -88.5 -211.5t-153.5 -60.5l-18 112q51 0 86 37.5t44 106.5l49 400h-224l-47 -384h-128l47 384h-256l-47 -384h-128l47 384h-64l14 112h64q12 100 54.5 162t132.5 62q26 0 42 -3.5t36 -12.5l-14 -112q-28 6 -48 6q-30 0 -45 -12.5t-20.5 -32t-9.5 -57.5
h256q12 100 54.5 162t132.5 62q26 0 42 -3.5t36 -12.5l-14 -112q-28 6 -48 6q-30 0 -45 -12.5t-20.5 -32t-9.5 -57.5h352z" />
    <glyph glyph-name="uni041C.ss01" horiz-adv-x="800" 
d="M777 672l-82 -672h-128l55 454l-247 -321l-169 321l-55 -454h-128l82 672h128l168 -330l248 330h128z" />
    <glyph glyph-name="uni043C.ss01" horiz-adv-x="656" 
d="M559 44q0 -28 8 -44h-128q-8 16 -8 44q0 20 4 52l22 180l-161 -204l-111 204l-34 -276h-128l61 496h128l109 -216l163 216h128l-49 -400q-4 -32 -4 -52z" />
    <glyph glyph-name="uni0458.ss01" horiz-adv-x="256" 
d="M99.5 582q-22.5 22 -22.5 55q0 40 30 69.5t70 29.5q34 0 56 -22t22 -55q0 -40 -29.5 -69.5t-69.5 -29.5q-34 0 -56.5 22zM84 496h128l-93 -752h-128z" />
    <glyph glyph-name="zero.subs" horiz-adv-x="360" 
d="M189 39q31 -41 31 -104q0 -9 -2 -31q-9 -74 -52.5 -125t-101.5 -51q-51 0 -81.5 40.5t-30.5 103.5q0 10 2 32q9 74 52 125t101 51q51 0 82 -41zM112 -189.5q19 18.5 31 49t12 65.5q0 40 -15.5 65.5t-40.5 25.5q-21 0 -40 -19t-30.5 -50t-11.5 -66q0 -38 15.5 -63.5
t39.5 -25.5q21 0 40 18.5z" />
    <glyph glyph-name="one.subs" horiz-adv-x="336" 
d="M151 80l-42 -344h-64l33 266l-66 -14l7 60z" />
    <glyph glyph-name="two.subs" horiz-adv-x="360" 
d="M14 46q36 34 89 34q48 0 77.5 -25t29.5 -70q0 -11 -1 -17q-4 -38 -32.5 -73.5t-91.5 -94.5h120l-8 -64h-264l154 144q59 58 59 92q0 21 -13.5 32.5t-37.5 11.5q-26 0 -41.5 -17.5t-21.5 -46.5l-63 8q9 52 45 86z" />
    <glyph glyph-name="three.subs" horiz-adv-x="352" 
d="M191.5 -110.5q11.5 -18.5 11.5 -40.5q0 -28 -15.5 -56t-47.5 -46.5t-80 -18.5q-57 0 -87 30t-27 82l65 8q1 -27 14.5 -41.5t45.5 -14.5q24 0 45 13t21 36q0 41 -82 41l6 52q86 6 86 47q0 16 -13.5 25.5t-35.5 9.5q-52 0 -65 -52l-63 8q11 48 47.5 78t85.5 30q53 0 81 -26
t28 -60l-1 -10q-5 -47 -47 -70q16 -6 27.5 -24.5z" />
    <glyph glyph-name="four.subs" horiz-adv-x="352" 
d="M205 -136l-8 -64h-40l-8 -64h-64l8 64h-168l7 56l178 216h80l-25 -208h40zM117 -4l-105 -132h89z" />
    <glyph glyph-name="five.subs" horiz-adv-x="352" 
d="M175 -65q29 -25 29 -66q0 -10 -1 -15q-7 -59 -46.5 -92.5t-96.5 -33.5q-59 0 -88 29.5t-27 78.5l65 5q0 -21 14 -35t44 -14q29 0 50 17.5t21 44.5q0 20 -13.5 33t-40.5 13q-44 0 -71 -28h-56l56 200h184l-8 -64h-132l-16 -64q22 16 63 16t70 -25z" />
    <glyph glyph-name="six.subs" horiz-adv-x="360" 
d="M184 -59q29 -29 29 -71q0 -9 -1 -14q-7 -57 -48.5 -92.5t-99.5 -35.5q-53 0 -85 30.5t-32 81.5q0 13 1 20q5 40 34.5 99.5t112.5 112.5h103q0 2 -28 -12t-59.5 -39t-55.5 -61q0 1 15.5 5.5t35.5 4.5q49 0 78 -29zM125.5 -189q21.5 19 21.5 46q0 22 -16.5 36.5t-44.5 14.5
q-32 0 -53.5 -19t-21.5 -46q0 -22 17 -36.5t44 -14.5q32 0 53.5 19z" />
    <glyph glyph-name="seven.subs" horiz-adv-x="336" 
d="M246 72l-185 -336h-72l153 272h-160l8 64h256z" />
    <glyph glyph-name="eight.subs" horiz-adv-x="360" 
d="M211 -147q0 -36 -20 -64.5t-54 -44.5t-73 -16q-51 0 -85 27.5t-34 71.5q0 30 15 55.5t40 42.5q-24 22 -21 59q5 41 42.5 68.5t85.5 27.5q45 0 75 -24t30 -61l-1 -11q-3 -34 -35 -59q35 -29 35 -72zM59.5 4.5q-16.5 -11.5 -16.5 -27.5q0 -14 13.5 -23.5t34.5 -9.5
q23 0 39.5 11.5t16.5 27.5q0 14 -13.5 23.5t-34.5 9.5q-23 0 -39.5 -11.5zM124.5 -190.5q21.5 17.5 21.5 40.5q0 20 -17.5 33t-43.5 13q-30 0 -52.5 -16.5t-22.5 -39.5q0 -20 18 -34t44 -14q31 0 52.5 17.5z" />
    <glyph glyph-name="nine.subs" horiz-adv-x="360" 
d="M-12 -133.5q-29 28.5 -29 70.5q0 10 1 15q7 57 48.5 92.5t98.5 35.5q53 0 85 -30t32 -81q0 -13 -1 -20q-5 -40 -34.5 -99.5t-112.5 -113.5h-103q0 -1 28 14t60 40t56 58q0 -1 -15 -5.5t-36 -4.5q-49 0 -78 28.5zM45.5 -3q-21.5 -19 -21.5 -46q0 -22 16.5 -36.5
t44.5 -14.5q32 0 53.5 19t21.5 46q0 22 -17 36.5t-44 14.5q-32 0 -53.5 -19z" />
    <glyph glyph-name="zero.tf" 
d="M474 650.5q51 -37.5 78.5 -103.5t27.5 -149q0 -34 -4 -62q-12 -97 -55.5 -177.5t-109 -127.5t-142.5 -47q-69 0 -120 37.5t-78 103.5t-27 148q0 34 4 63q12 97 55 177.5t109 127.5t143 47q68 0 119 -37.5zM356 142q35 30 60 81.5t32 112.5q3 23 3 45q0 77 -31 128t-80 51
q-37 0 -72 -30t-60 -81.5t-32 -112.5q-3 -22 -3 -45q0 -77 31 -128t80 -51q37 0 72 30z" />
    <glyph glyph-name="one.tf" 
d="M467 688l-84 -688h-128l65 532l-131 -28l14 120z" />
    <glyph glyph-name="two.tf" 
d="M126.5 569.5q36.5 54.5 93 86.5t127.5 32q96 0 155.5 -50.5t59.5 -140.5q0 -11 -2 -33q-7 -53 -37.5 -104t-79 -102.5t-133.5 -129.5h240l-15 -128h-528l307 288q55 53 84 94t33 74q1 6 1 17q0 41 -26 64t-74 23q-51 0 -84 -35.5t-44 -92.5l-126 16q12 67 48.5 121.5z
" />
    <glyph glyph-name="three.tf" 
d="M530.5 306.5q22.5 -37.5 22.5 -80.5q0 -12 -1 -18q-7 -55 -38.5 -106t-93 -84.5t-151.5 -33.5q-114 0 -174 60t-55 164l130 16q2 -53 28.5 -82.5t91.5 -29.5q30 0 61 11t52 33.5t21 54.5q0 41 -43 61t-122 20l12 104q56 2 114 21.5t58 75.5q0 30 -26.5 48.5t-70.5 18.5
q-107 0 -131 -104l-126 16q13 63 51 112t94 76.5t121 27.5q74 0 123 -25.5t72 -65.5t23 -83q0 -12 -1 -18q-5 -45 -29 -81t-67 -60q32 -11 54.5 -48.5z" />
    <glyph glyph-name="four.tf" 
d="M574 256l-16 -128h-80l-15 -128h-128l15 128h-336l14 112l357 432h160l-51 -416h80zM399 520l-212 -264h179z" />
    <glyph glyph-name="five.tf" 
d="M458 425.5q46 -22.5 73 -64.5t27 -98q0 -8 -2 -28q-10 -78 -50 -134.5t-101.5 -86.5t-135.5 -30q-118 0 -176.5 59.5t-53.5 156.5l130 10q-1 -43 27.5 -70.5t87.5 -27.5t101 35.5t42 90.5q0 38 -27.5 64t-80.5 26q-87 0 -143 -56h-112l113 400h368l-15 -128h-264
l-34 -128q28 19 62.5 25.5t62.5 6.5q55 0 101 -22.5z" />
    <glyph glyph-name="six.tf" 
d="M466 441q49 -27 74.5 -72.5t25.5 -100.5q0 -8 -2 -28q-9 -75 -50 -133t-105 -90.5t-140 -32.5q-70 0 -123.5 27t-82.5 77t-29 118q0 20 3 41q11 80 69.5 199t224.5 226h206q0 3 -55.5 -25t-119.5 -77.5t-112 -121.5q3 2 15.5 6.5t35 9t51.5 4.5q65 0 114 -27zM361 130
q35 18 55 47.5t20 64.5q0 44 -33 73t-90 29q-42 0 -76.5 -17.5t-54.5 -47t-20 -64.5q0 -44 33.5 -73.5t88.5 -29.5q42 0 77 18z" />
    <glyph glyph-name="seven.tf" 
d="M617 672l-370 -672h-144l307 544h-320l15 128h512z" />
    <glyph glyph-name="eight.tf" 
d="M544 314.5q18 -36.5 18 -79.5q0 -71 -40.5 -128.5t-108 -90t-144.5 -32.5q-67 0 -121.5 25t-86 70t-31.5 103q0 60 29.5 110t80.5 85q-41 39 -41 99q0 58 35.5 107t94.5 77t126 28q59 0 106.5 -22t75 -61.5t27.5 -88.5q0 -42 -18.5 -77t-52.5 -62q33 -26 51 -62.5z
M260.5 537q-33.5 -23 -33.5 -55q0 -28 27 -47t68 -19q46 0 79.5 23t33.5 55q0 28 -27 47t-68 19q-46 0 -79.5 -23zM357.5 128q34.5 16 55.5 42t21 56q0 39 -35.5 66.5t-88.5 27.5q-39 0 -73.5 -16t-55.5 -42t-21 -56q0 -39 35.5 -66.5t88.5 -27.5q39 0 73.5 16z" />
    <glyph glyph-name="nine.tf" 
d="M158 231q-49 27 -74.5 72.5t-25.5 100.5q0 8 2 28q9 75 50 133t105 90.5t140 32.5q70 0 123.5 -27t82.5 -77t29 -118q0 -20 -3 -41q-11 -80 -69.5 -199t-224.5 -226h-206q0 -3 56 27t120 80t111 117q-3 -2 -15.5 -6.5t-35 -9t-51.5 -4.5q-65 0 -114 27zM263 542
q-35 -18 -55 -47.5t-20 -64.5q0 -44 33 -73t90 -29q42 0 76.5 17.5t54.5 47t20 64.5q0 44 -33.5 73.5t-88.5 29.5q-42 0 -77 -18z" />
    <glyph glyph-name="zero.zero" 
d="M474 650.5q51 -37.5 78.5 -103.5t27.5 -149q0 -34 -4 -62q-12 -97 -55.5 -177.5t-109 -127.5t-142.5 -47q-69 0 -120 37.5t-78 103.5t-27 148q0 34 4 63q12 97 55 177.5t109 127.5t143 47q68 0 119 -37.5zM268 530q-35 -30 -60 -81.5t-32 -112.5q-3 -24 -3 -46
q0 -23 3 -44l249 254q-15 28 -36.5 44t-48.5 16q-37 0 -72 -30zM356 142q35 30 60 81.5t32 112.5q3 24 3 47q0 22 -3 43l-249 -254q15 -28 36.5 -44t48.5 -16q37 0 72 30z" />
    <glyph glyph-name="zero.tf.zero" 
d="M474 650.5q51 -37.5 78.5 -103.5t27.5 -149q0 -34 -4 -62q-12 -97 -55.5 -177.5t-109 -127.5t-142.5 -47q-69 0 -120 37.5t-78 103.5t-27 148q0 34 4 63q12 97 55 177.5t109 127.5t143 47q68 0 119 -37.5zM268 530q-35 -30 -60 -81.5t-32 -112.5q-3 -24 -3 -46
q0 -23 3 -44l249 254q-15 28 -36.5 44t-48.5 16q-37 0 -72 -30zM356 142q35 30 60 81.5t32 112.5q3 24 3 47q0 22 -3 43l-249 -254q15 -28 36.5 -44t48.5 -16q37 0 72 30z" />
    <glyph glyph-name="zero.dnom" horiz-adv-x="360" 
d="M262.5 303.5q30.5 -40.5 30.5 -103.5q0 -10 -2 -32q-9 -74 -52 -125t-101 -51q-51 0 -82 41t-31 104q0 9 2 31q9 74 52.5 125t101.5 51q51 0 81.5 -40.5zM186.5 74.5q19.5 18.5 31 50t11.5 66.5q0 39 -15.5 64t-40.5 25q-20 0 -39.5 -18.5t-31.5 -49t-12 -65.5
q0 -39 15.5 -65t40.5 -26q21 0 40.5 18.5z" />
    <glyph glyph-name="one.dnom" horiz-adv-x="336" 
d="M225 344l-42 -344h-64l32 266l-65 -14l7 60z" />
    <glyph glyph-name="two.dnom" horiz-adv-x="360" 
d="M87.5 310q36.5 34 89.5 34q48 0 77.5 -25t29.5 -70q0 -44 -28.5 -82.5t-96.5 -102.5h120l-8 -64h-264l153 144q60 57 60 92q0 21 -13.5 32.5t-37.5 11.5q-26 0 -42 -17.5t-22 -46.5l-63 8q9 52 45.5 86z" />
    <glyph glyph-name="three.dnom" horiz-adv-x="352" 
d="M267 149.5q12 -21.5 9 -45.5q-6 -45 -41 -78.5t-101 -33.5q-57 0 -87 30t-27 82l64 8q2 -27 15.5 -41.5t45.5 -14.5q24 0 45 13t21 36q0 41 -82 41l6 52q81 5 85 44q2 17 -11 27.5t-37 10.5q-52 0 -65 -52l-63 8q11 48 47.5 78t85.5 30q54 0 81.5 -26.5t27.5 -60.5
q0 -52 -48 -79q17 -7 29 -28.5z" />
    <glyph glyph-name="four.dnom" horiz-adv-x="352" 
d="M278 128l-7 -64h-40l-8 -64h-64l8 64h-168l6 56l179 216h80l-26 -208h40zM191 260l-106 -132h89z" />
    <glyph glyph-name="five.dnom" horiz-adv-x="352" 
d="M249 199q29 -25 29 -67q0 -9 -1 -14q-7 -59 -46.5 -92.5t-96.5 -33.5q-59 0 -88.5 30t-26.5 78l65 5q-1 -21 13.5 -35t44.5 -14t50.5 18.5t20.5 45.5q0 19 -14 31.5t-40 12.5q-44 0 -72 -28h-56l57 200h184l-8 -64h-132l-17 -64q23 16 63 16q42 0 71 -25z" />
    <glyph glyph-name="six.dnom" horiz-adv-x="360" 
d="M257 205.5q29 -28.5 29 -70.5q0 -10 -1 -15q-7 -57 -48 -92.5t-99 -35.5q-53 0 -85 30.5t-32 81.5q0 13 1 20q5 40 34.5 99.5t112.5 112.5h103q0 2 -28 -12t-60 -39t-56 -61q0 1 15.5 5.5t35.5 4.5q49 0 78 -28.5zM199.5 75q21.5 19 21.5 46q0 22 -16.5 36.5t-44.5 14.5
q-32 0 -53.5 -19t-21.5 -46q0 -22 17 -36.5t44 -14.5q32 0 53.5 19z" />
    <glyph glyph-name="seven.dnom" horiz-adv-x="336" 
d="M320 336l-185 -336h-72l153 272h-160l8 64h256z" />
    <glyph glyph-name="eight.dnom" horiz-adv-x="360" 
d="M285 116l-1 -12q-7 -49 -49 -80.5t-97 -31.5q-51 0 -85 27.5t-34 70.5q0 31 14.5 56t40.5 43q-22 20 -22 50q0 44 39 74.5t90 30.5q45 0 75 -24t30 -61q0 -42 -36 -70q35 -30 35 -73zM134.5 269.5q-16.5 -10.5 -17.5 -25.5q-2 -15 11.5 -25.5t35.5 -10.5t38.5 10.5
t18.5 25.5t-12 25.5t-36 10.5t-38.5 -10.5zM198 73q22 17 22 40q0 20 -17.5 33.5t-44.5 13.5q-30 0 -52 -16.5t-22 -39.5q0 -20 18 -34t44 -14q30 0 52 17z" />
    <glyph glyph-name="nine.dnom" horiz-adv-x="360" 
d="M61 131q-29 29 -29 72q0 8 1 13q7 57 49 92.5t99 35.5q53 0 85 -30t32 -81q0 -13 -1 -20q-5 -40 -34.5 -99.5t-112.5 -113.5h-103q0 -1 28 14t59.5 40t55.5 58q0 -1 -15 -5.5t-36 -4.5q-49 0 -78 29zM119.5 261q-21.5 -19 -21.5 -46q0 -22 16.5 -36.5t44.5 -14.5
q32 0 53.5 19t21.5 46q0 22 -17 36.5t-44 14.5q-32 0 -53.5 -19z" />
    <glyph glyph-name="zero.numr" horiz-adv-x="360" 
d="M304 639q31 -41 31 -104q0 -9 -2 -31q-9 -74 -52.5 -125t-101.5 -51q-51 0 -81.5 40.5t-30.5 103.5q0 10 2 32q9 74 52 125t101 51q51 0 82 -41zM227 410.5q19 18.5 31 49t12 65.5q0 40 -15.5 65.5t-40.5 25.5q-21 0 -40 -19t-30.5 -50t-11.5 -66q0 -38 15.5 -63.5
t39.5 -25.5q21 0 40 18.5z" />
    <glyph glyph-name="one.numr" horiz-adv-x="336" 
d="M266 680l-42 -344h-64l33 266l-66 -14l7 60z" />
    <glyph glyph-name="two.numr" horiz-adv-x="360" 
d="M129 646q36 34 89 34q48 0 77.5 -25t29.5 -70q0 -11 -1 -17q-4 -38 -32.5 -73.5t-91.5 -94.5h120l-8 -64h-264l154 144q59 58 59 92q0 21 -13.5 32.5t-37.5 11.5q-26 0 -41.5 -17.5t-21.5 -46.5l-63 8q9 52 45 86z" />
    <glyph glyph-name="three.numr" horiz-adv-x="352" 
d="M306.5 489.5q11.5 -18.5 11.5 -40.5q0 -28 -15.5 -56t-47.5 -46.5t-80 -18.5q-57 0 -87 30t-27 82l65 8q1 -27 14.5 -41.5t45.5 -14.5q24 0 45 13t21 36q0 41 -82 41l6 52q86 6 86 47q0 16 -13.5 25.5t-35.5 9.5q-52 0 -65 -52l-63 8q11 48 47.5 78t85.5 30q53 0 81 -26
t28 -60l-1 -10q-5 -47 -47 -70q16 -6 27.5 -24.5z" />
    <glyph glyph-name="four.numr" horiz-adv-x="352" 
d="M320 464l-8 -64h-40l-8 -64h-64l8 64h-168l7 56l178 216h80l-25 -208h40zM232 596l-105 -132h89z" />
    <glyph glyph-name="five.numr" horiz-adv-x="352" 
d="M290 535q29 -25 29 -66q0 -10 -1 -15q-7 -59 -46.5 -92.5t-96.5 -33.5q-59 0 -88 29.5t-27 78.5l65 5q0 -21 14 -35t44 -14q29 0 50 17.5t21 44.5q0 20 -13.5 33t-40.5 13q-44 0 -71 -28h-56l56 200h184l-8 -64h-132l-16 -64q22 16 63 16t70 -25z" />
    <glyph glyph-name="six.numr" horiz-adv-x="360" 
d="M299 541q29 -29 29 -71q0 -9 -1 -14q-7 -57 -48.5 -92.5t-99.5 -35.5q-53 0 -85 30.5t-32 81.5q0 13 1 20q5 40 34.5 99.5t112.5 112.5h103q0 2 -28 -12t-59.5 -39t-55.5 -61q0 1 15.5 5.5t35.5 4.5q49 0 78 -29zM240.5 411q21.5 19 21.5 46q0 22 -16.5 36.5t-44.5 14.5
q-32 0 -53.5 -19t-21.5 -46q0 -22 17 -36.5t44 -14.5q32 0 53.5 19z" />
    <glyph glyph-name="seven.numr" horiz-adv-x="336" 
d="M361 672l-185 -336h-72l153 272h-160l8 64h256z" />
    <glyph glyph-name="eight.numr" horiz-adv-x="360" 
d="M326 453q0 -36 -20 -64.5t-54 -44.5t-73 -16q-51 0 -85 27.5t-34 71.5q0 30 15 55.5t40 42.5q-24 22 -21 59q5 41 42.5 68.5t85.5 27.5q45 0 75 -24t30 -61l-1 -11q-3 -34 -35 -59q35 -29 35 -72zM174.5 604.5q-16.5 -11.5 -16.5 -27.5q0 -14 13.5 -23.5t34.5 -9.5
q23 0 39.5 11.5t16.5 27.5q0 14 -13.5 23.5t-34.5 9.5q-23 0 -39.5 -11.5zM239.5 409.5q21.5 17.5 21.5 40.5q0 20 -17.5 33t-43.5 13q-30 0 -52.5 -16.5t-22.5 -39.5q0 -20 18 -34t44 -14q31 0 52.5 17.5z" />
    <glyph glyph-name="nine.numr" horiz-adv-x="360" 
d="M103 466.5q-29 28.5 -29 70.5q0 10 1 15q7 57 48.5 92.5t98.5 35.5q53 0 85 -30t32 -81q0 -13 -1 -20q-5 -40 -34.5 -99.5t-112.5 -113.5h-103q0 -1 28 14t60 40t56 58q0 -1 -15 -5.5t-36 -4.5q-49 0 -78 28.5zM160.5 597q-21.5 -19 -21.5 -46q0 -22 16.5 -36.5
t44.5 -14.5q32 0 53.5 19t21.5 46q0 22 -17 36.5t-44 14.5q-32 0 -53.5 -19z" />
    <glyph glyph-name="exclam.case" horiz-adv-x="288" 
d="M113 672h144l-91 -480h-80zM50 3.5q-20 19.5 -20 49.5q0 37 26.5 64t63.5 27q31 0 51.5 -20t20.5 -51q0 -36 -27.5 -62.5t-63.5 -26.5q-31 0 -51 19.5z" />
    <glyph glyph-name="exclamdown.case" horiz-adv-x="288" 
d="M238 668.5q20 -19.5 20 -49.5q0 -37 -26.5 -64t-63.5 -27q-31 0 -51.5 20t-20.5 51q0 36 27.5 62.5t63.5 26.5q31 0 51 -19.5zM202 480l-27 -480h-144l91 480h80z" />
    <glyph glyph-name="question.case" horiz-adv-x="528" 
d="M414 663.5q45 -24.5 66 -63.5t21 -83q0 -14 -1 -21q-7 -56 -34 -98.5t-85 -83.5q-34 -24 -57.5 -52t-29.5 -70h-112q6 102 68 157q13 12 41 34q40 31 60 54.5t20 56.5q0 35 -24.5 50.5t-61.5 15.5q-44 0 -83.5 -19t-70.5 -53l-52 104q103 96 220 96q70 0 115 -24.5z
M283.5 124q20.5 -20 20.5 -51q0 -36 -27.5 -62.5t-63.5 -26.5q-31 0 -51 19.5t-20 49.5q0 37 26.5 64t63.5 27q31 0 51.5 -20z" />
    <glyph glyph-name="questiondown.case" horiz-adv-x="528" 
d="M244.5 548q-20.5 20 -20.5 51q0 36 27.5 62.5t63.5 26.5q31 0 51 -19.5t20 -49.5q0 -37 -26.5 -64t-63.5 -27q-31 0 -51.5 20zM114 8.5q-45 24.5 -66 63.5t-21 83q0 14 1 21q7 56 34 98.5t85 83.5q34 24 57.5 52t29.5 70h112q-6 -102 -68 -157q-13 -12 -41 -34
q-40 -31 -60 -54.5t-20 -56.5q0 -35 24.5 -50.5t61.5 -15.5q44 0 84 19t70 53l52 -104q-103 -96 -220 -96q-70 0 -115 24.5z" />
    <glyph glyph-name="braceleft.case" horiz-adv-x="400" 
d="M231 -7q0 -33 17 -57t51 -32l-76 -96q-64 22 -93.5 59.5t-29.5 92.5q0 10 2 30l28 234q3 27 -9.5 50.5t-33 40t-39.5 21.5q34 9 69.5 41t40.5 71l28 234q8 66 48.5 111.5t118.5 70.5l52 -96q-41 -9 -64.5 -38t-28.5 -68l-22 -180q-7 -56 -31 -93.5t-62 -52.5
q59 -26 59 -113q0 -9 -2 -33l-22 -180q-1 -6 -1 -17z" />
    <glyph glyph-name="braceright.case" horiz-adv-x="400" 
d="M110 190q7 56 31 93.5t62 52.5q-59 26 -59 113q0 9 2 33l22 180q1 6 1 17q0 33 -17 57t-51 32l76 96q64 -22 93.5 -59.5t29.5 -92.5q0 -10 -2 -30l-28 -234q-3 -27 9.5 -50.5t33 -40t39.5 -21.5q-34 -9 -69.5 -41t-40.5 -71l-28 -234q-8 -66 -48.5 -111.5t-118.5 -70.5
l-52 96q41 9 64.5 38t28.5 68z" />
    <glyph glyph-name="bracketleft.case" horiz-adv-x="336" 
d="M144 -56h80l-16 -128h-208l128 1040h208l-16 -128h-80z" />
    <glyph glyph-name="bracketright.case" horiz-adv-x="336" 
d="M112 728l16 128h208l-128 -1040h-208l16 128h80l96 784h-80z" />
    <glyph glyph-name="parenleft.case" horiz-adv-x="336" 
d="M176 336q-5 -39 -5 -90q0 -176 82 -326l-134 -48q-77 181 -77 363q0 50 6 101q29 233 185 464l122 -48q-152 -196 -179 -416z" />
    <glyph glyph-name="parenright.case" horiz-adv-x="336" 
d="M217 800q77 -181 77 -363q0 -50 -6 -101q-29 -233 -185 -464l-122 48q152 196 179 416q5 39 5 90q0 176 -82 326z" />
    <glyph glyph-name="emdash.case" horiz-adv-x="608" 
d="M42 288l12 96h512l-12 -96h-512z" />
    <glyph glyph-name="endash.case" horiz-adv-x="512" 
d="M42 288l12 96h416l-12 -96h-416z" />
    <glyph glyph-name="hyphen.case" horiz-adv-x="384" 
d="M42 288l12 96h288l-12 -96h-288z" />
    <glyph glyph-name="guillemotleft.case" horiz-adv-x="640" 
d="M160 336l132 -224h-112l-132 224l188 224h112zM400 336l132 -224h-112l-132 224l188 224h112z" />
    <glyph glyph-name="guillemotright.case" horiz-adv-x="640" 
d="M220 560l132 -224l-188 -224h-112l188 224l-132 224h112zM460 560l132 -224l-188 -224h-112l188 224l-132 224h112z" />
    <glyph glyph-name="guilsinglleft.case" horiz-adv-x="400" 
d="M160 336l132 -224h-112l-132 224l188 224h112z" />
    <glyph glyph-name="guilsinglright.case" horiz-adv-x="400" 
d="M220 560l132 -224l-188 -224h-112l188 224l-132 224h112z" />
    <glyph glyph-name="ampersand.ss01" horiz-adv-x="800" 
d="M592 180l118 -180h-172l-56 88q-126 -104 -244 -104q-61 0 -108.5 24t-74 65t-26.5 92q0 16 1 24q11 85 76 146.5t166 78.5l-167 258h528l-15 -128h-264l172 -263l43 39h181zM419 186l-80 123q-51 -1 -92.5 -18.5t-65 -45t-23.5 -57.5q0 -34 28 -55t72 -21q72 0 161 74z
" />
    <glyph glyph-name="brevecy" horiz-adv-x="632" 
 />
    </font>
</defs>
</svg>
