<?xml version="1.0" standalone="no"?>
<!DOCTYPE svg PUBLIC "-//W3C//DTD SVG 1.1//EN" "http://www.w3.org/Graphics/SVG/1.1/DTD/svg11.dtd" >
<svg xmlns="http://www.w3.org/2000/svg" xmlns:xlink="http://www.w3.org/1999/xlink" version="1.1">
<metadata>
Created by FontForge 20170731 at Tue Mar  7 18:37:51 2017
 By Aleksey,,,
Copyright (c) Milos Mitrovic, 2016. All rights reserved.
</metadata>
<defs>
<font id="NoirPro-LightItalic" horiz-adv-x="496" >
  <font-face 
    font-family="Noir Pro Light Italic"
    font-weight="300"
    font-style="italic"
    font-stretch="normal"
    units-per-em="1000"
    panose-1="0 0 4 0 0 0 0 0 0 0"
    ascent="800"
    descent="-200"
    x-height="480"
    cap-height="672"
    bbox="-185 -304 1073 1088"
    underline-thickness="50"
    underline-position="-150"
    unicode-range="U+0020-25CA"
  />
<missing-glyph horiz-adv-x="528" 
d="M433 -256h-335v1056h335v-1056zM177 729v-35h69v-39h-70v-35h176v35h-70v39h70v35h-175zM176 593v-110h176v36h-70v74h-106zM246 519h-35v38h35v-38zM176 455v-35h70v-39h-70v-35h106v74h70v35h-176zM317 391v-69h-141v-36h176v105h-35zM246 262v-59h36v25h35v-50h-106
v84h-35v-119h176v119h-106zM176 80v-120h176v120h-176zM317 -5h-106v50h106v-50zM176 -64v-35h74l-74 -49v-35h176v35h-108l74 49h34v35h-176z" />
    <glyph glyph-name=".notdef" horiz-adv-x="528" 
d="M433 -256h-335v1056h335v-1056zM177 729v-35h69v-39h-70v-35h176v35h-70v39h70v35h-175zM176 593v-110h176v36h-70v74h-106zM246 519h-35v38h35v-38zM176 455v-35h70v-39h-70v-35h106v74h70v35h-176zM317 391v-69h-141v-36h176v105h-35zM246 262v-59h36v25h35v-50h-106
v84h-35v-119h176v119h-106zM176 80v-120h176v120h-176zM317 -5h-106v50h106v-50zM176 -64v-35h74l-74 -49v-35h176v35h-108l74 49h34v35h-176z" />
    <glyph glyph-name=".null" horiz-adv-x="0" 
 />
    <glyph glyph-name="nonmarkingreturn" horiz-adv-x="333" 
 />
    <glyph glyph-name="space" unicode=" " horiz-adv-x="320" 
 />
    <glyph glyph-name="exclam" unicode="!" horiz-adv-x="272" 
d="M129 672h96l-83 -480h-48zM53 7.5q-16 15.5 -16 39.5q0 30 21.5 51.5t50.5 21.5q25 0 41 -16t16 -41q0 -29 -21.5 -50t-50.5 -21q-25 0 -41 15.5z" />
    <glyph glyph-name="quotedbl" unicode="&#x22;" horiz-adv-x="400" 
d="M92 496l5 176h88l-37 -176h-56zM292 496l5 176h88l-37 -176h-56z" />
    <glyph glyph-name="numbersign" unicode="#" horiz-adv-x="688" 
d="M524 432l-61 -208h115l-6 -48h-123l-50 -176h-56l51 176h-190l-51 -176h-56l50 176h-111l6 48h119l61 208h-114l6 48h122l55 192h56l-55 -192h190l55 192h56l-55 -192h112l-6 -48h-120zM468 432h-190l-61 -208h190z" />
    <glyph glyph-name="dollar" unicode="$" horiz-adv-x="560" 
d="M463 92.5q-32 -41.5 -83.5 -68t-113.5 -31.5l-9 -73h-40l9 72q-91 4 -143 41t-72 68l39 57q29 -45 80 -73.5t120 -28.5q46 0 88 17t68.5 47t30.5 65q1 6 1 17q0 42 -35 70t-118 44q-113 21 -158 59t-45 98q0 8 2 28q6 47 36 86.5t79 64t111 27.5l9 73h40l-9 -73
q42 -2 88 -19.5t82 -59.5l-36 -55q-24 30 -66.5 50.5t-96.5 20.5q-73 0 -123 -34t-50 -93q0 -43 36 -68t115 -41q109 -23 156.5 -61t47.5 -106q0 -10 -2 -32q-6 -47 -38 -88.5z" />
    <glyph glyph-name="percent" unicode="%" horiz-adv-x="752" 
d="M115 441.5q-34 33.5 -34 84.5q0 41 21 76.5t56.5 56.5t76.5 21q52 0 86 -34t34 -85q0 -41 -21.5 -76t-56.5 -56t-75 -21q-53 0 -87 33.5zM77 0l550 672h48l-550 -672h-48zM275.5 485.5q30.5 29.5 30.5 67.5q0 33 -22.5 56t-55.5 23q-25 0 -48 -14t-37 -36.5t-14 -47.5
q0 -32 22.5 -55t55.5 -23q38 0 68.5 29.5zM431.5 26q-34.5 34 -34.5 85q0 41 21.5 76.5t57 56t76.5 20.5q52 0 85.5 -33.5t33.5 -84.5q0 -41 -21 -76.5t-56 -56.5t-75 -21q-53 0 -87.5 34zM572 54q23 14 37 36.5t14 47.5q0 32 -22.5 55t-55.5 23q-38 0 -68.5 -29.5
t-30.5 -67.5q0 -33 22.5 -56t55.5 -23q25 0 48 14z" />
    <glyph glyph-name="ampersand" unicode="&#x26;" horiz-adv-x="721" 
d="M487 147l137 -147h-93l-92 99q-57 -52 -111 -79.5t-117 -27.5q-53 0 -93 21.5t-61.5 58t-21.5 82.5q0 76 48.5 126t117.5 77q-84 84 -84 148l1 11q9 71 65.5 117.5t145.5 46.5q77 0 121.5 -41.5t44.5 -104.5q0 -56 -31 -95t-70 -60t-87 -40l139 -149l132 130h84z
M353 420.5q29 14.5 51 37.5t26 57l1 12q0 40 -30 64.5t-80 24.5q-64 0 -101.5 -29t-37.5 -76q0 -27 19 -53.5t39 -47t26 -27.5q58 23 87 37.5zM398 144l-156 169q-55 -21 -98.5 -58t-43.5 -89q0 -44 34 -77t87 -33q84 0 177 88z" />
    <glyph glyph-name="quotesingle" unicode="'" horiz-adv-x="200" 
d="M92 496l5 176h88l-37 -176h-56z" />
    <glyph glyph-name="parenleft" unicode="(" horiz-adv-x="280" 
d="M176.5 538q-45.5 -111 -60.5 -234q-7 -52 -7 -110q0 -181 74 -326l-60 -28q-37 70 -57.5 160.5t-20.5 190.5q0 60 7 113q16 130 66 252t119 212l53 -28q-68 -91 -113.5 -202z" />
    <glyph glyph-name="parenright" unicode=")" horiz-adv-x="280" 
d="M149 768q37 -70 57.5 -160.5t20.5 -190.5q0 -60 -7 -113q-16 -130 -66 -252t-119 -212l-52 28q68 91 113 202t60 234q7 53 7 110q0 180 -73 326z" />
    <glyph glyph-name="asterisk" unicode="*" horiz-adv-x="444" 
d="M401 627l16 -58l-124 -43l66 -100l-56 -37l-62 102l-83 -102l-49 37l88 100l-112 43l30 58l108 -47l13 124h62l-17 -124z" />
    <glyph glyph-name="plus" unicode="+" horiz-adv-x="464" 
d="M401 280h-152l-19 -152h-48l19 152h-152l6 48h152l19 152h48l-19 -152h152z" />
    <glyph glyph-name="comma" unicode="," horiz-adv-x="232" 
d="M51 96h96l-112 -192h-48z" />
    <glyph glyph-name="hyphen" unicode="-" horiz-adv-x="368" 
d="M43 232l8 64h256l-8 -64h-256z" />
    <glyph glyph-name="period" unicode="." horiz-adv-x="240" 
d="M37 7.5q-16 15.5 -16 39.5q0 30 21.5 51.5t50.5 21.5q25 0 41 -16t16 -41q0 -29 -21.5 -50t-50.5 -21q-25 0 -41 15.5z" />
    <glyph glyph-name="slash" unicode="/" 
d="M5 -80l422 832h64l-422 -832h-64z" />
    <glyph glyph-name="zero" unicode="0" horiz-adv-x="592" 
d="M445.5 645.5q45.5 -34.5 70 -96.5t24.5 -143q0 -38 -4 -70q-12 -99 -52 -177.5t-100 -122.5t-130 -44q-62 0 -108 34.5t-70.5 96t-24.5 142.5q0 29 5 71q12 99 52 177.5t100 122.5t130 44q62 0 107.5 -34.5zM355 92q45 36 76 99.5t41 144.5q4 40 4 58q0 65 -18.5 115.5
t-52 78.5t-75.5 28q-48 0 -93 -36t-76 -99.5t-41 -144.5q-4 -40 -4 -58q0 -65 18.5 -115.5t52 -78.5t75.5 -28q48 0 93 36z" />
    <glyph glyph-name="one" unicode="1" horiz-adv-x="336" 
d="M291 688l-84 -688h-64l73 596l-117 -42l7 62z" />
    <glyph glyph-name="two" unicode="2" horiz-adv-x="592" 
d="M131.5 574.5q32.5 47.5 84 76.5t114.5 29q86 0 139.5 -48.5t53.5 -130.5q0 -9 -2 -29q-9 -74 -48.5 -129t-127.5 -131l-172 -148h330l-8 -64h-480l302 266q68 59 104 113t36 110q0 58 -36.5 92.5t-98.5 34.5q-69 0 -113 -43.5t-58 -112.5l-62 12q10 55 42.5 102.5z" />
    <glyph glyph-name="three" unicode="3" horiz-adv-x="576" 
d="M473.5 306.5q30.5 -37.5 30.5 -88.5q0 -54 -31.5 -106.5t-90 -86t-136.5 -33.5q-102 0 -156.5 57.5t-50.5 150.5l63 12q1 -64 35.5 -110t122.5 -46q51 0 90.5 20.5t61.5 52t26 63.5q1 5 1 15q0 56 -52.5 82.5t-140.5 26.5l7 64q46 1 93.5 13.5t81 42t33.5 75.5
q0 49 -37 77t-96 28q-88 0 -127 -42t-54 -106l-58 12q17 88 80 144t161 56q66 0 110 -23.5t65 -60.5t21 -76q0 -50 -33.5 -97.5t-98.5 -68.5q49 -10 79.5 -47.5z" />
    <glyph glyph-name="four" unicode="4" horiz-adv-x="592" 
d="M518 192l-8 -64h-80l-15 -128h-64l15 128h-368l501 560l-61 -496h80zM414 512l-284 -320h244z" />
    <glyph glyph-name="five" unicode="5" horiz-adv-x="576" 
d="M416 426q43 -22 68 -64.5t25 -101.5q0 -9 -2 -33q-8 -68 -46.5 -121.5t-95.5 -83.5t-119 -30q-63 0 -111.5 26t-74 71.5t-22.5 102.5l66 8q-2 -61 38 -102.5t112 -41.5q53 0 96 24.5t68 68t25 99.5q0 61 -36 98.5t-98 37.5q-58 0 -101 -29.5t-79 -82.5h-66l107 400h327
l-8 -64h-278l-62 -232q23 27 68 49.5t105 22.5q51 0 94 -22z" />
    <glyph glyph-name="six" unicode="6" horiz-adv-x="592" 
d="M429.5 438.5q46.5 -25.5 72 -70t25.5 -97.5q0 -8 -2 -26q-9 -74 -47 -131.5t-96.5 -89.5t-127.5 -32q-96 0 -153.5 58.5t-57.5 157.5q0 22 3 44q10 80 46 160.5t101 149.5t158 110h138q0 5 -71.5 -23.5t-146.5 -88t-119 -155.5q32 25 70.5 42t99.5 17t107.5 -25.5z
M362.5 83.5q45.5 27.5 72 74t26.5 100.5q0 64 -41.5 103t-115.5 39q-54 0 -99.5 -25t-72 -69t-26.5 -97q0 -66 42.5 -109.5t113.5 -43.5q55 0 100.5 27.5z" />
    <glyph glyph-name="seven" unicode="7" horiz-adv-x="512" 
d="M545 672l-378 -672h-72l346 608h-352l8 64h448z" />
    <glyph glyph-name="eight" unicode="8" horiz-adv-x="592" 
d="M496 310q25 -42 25 -89q0 -12 -1 -18q-8 -63 -46 -111t-96 -74t-124 -26q-61 0 -110.5 22.5t-77.5 64t-28 97.5q0 9 2 27q6 51 43 99t82 67q-28 18 -43.5 49t-15.5 65q0 11 1 17q6 53 39 94t83.5 63.5t108.5 22.5q53 0 96 -20t67.5 -56t24.5 -83q0 -14 -1 -21
q-5 -37 -29.5 -73.5t-61.5 -57.5q37 -17 62 -59zM251.5 599.5q-36.5 -16.5 -58.5 -45.5t-22 -64q0 -42 37.5 -67t95.5 -25q67 0 112 31t45 85q0 45 -37 73.5t-94 28.5q-42 0 -78.5 -16.5zM357.5 77q44.5 21 71.5 57.5t27 80.5q0 55 -45.5 89t-114.5 34q-52 0 -96.5 -19.5
t-71 -54.5t-26.5 -79q0 -56 45.5 -92.5t114.5 -36.5q51 0 95.5 21z" />
    <glyph glyph-name="nine" unicode="9" horiz-adv-x="592" 
d="M162.5 233.5q-46.5 25.5 -72 70t-25.5 97.5q0 8 2 26q9 74 47 131.5t96.5 89.5t127.5 32q96 0 153.5 -58.5t57.5 -157.5q0 -21 -3 -44q-10 -80 -46 -160.5t-101 -149.5t-158 -110h-138q0 -5 71.5 23.5t146.5 88t119 155.5q-32 -25 -70.5 -42t-99.5 -17t-107.5 25.5z
M229.5 588.5q-45.5 -27.5 -72 -74t-26.5 -100.5q0 -64 41.5 -103t115.5 -39q54 0 99.5 25t72 69t26.5 97q0 66 -42.5 109.5t-113.5 43.5q-55 0 -100.5 -27.5z" />
    <glyph glyph-name="colon" unicode=":" horiz-adv-x="240" 
d="M82 375.5q-16 15.5 -16 39.5q0 30 22 51.5t51 21.5q25 0 40.5 -16t15.5 -40q0 -30 -21.5 -51t-50.5 -21q-25 0 -41 15.5zM37 7.5q-16 15.5 -16 39.5q0 30 21.5 51.5t50.5 21.5q25 0 41 -16t16 -41q0 -29 -21.5 -50t-50.5 -21q-25 0 -41 15.5z" />
    <glyph glyph-name="semicolon" unicode=";" horiz-adv-x="248" 
d="M90 375.5q-16 15.5 -16 39.5q0 30 22 51.5t51 21.5q25 0 40.5 -16t15.5 -40q0 -30 -21.5 -51t-50.5 -21q-25 0 -41 15.5zM51 96h96l-112 -192h-48z" />
    <glyph glyph-name="less" unicode="&#x3c;" horiz-adv-x="512" 
d="M49 280l6 48l423 184l-7 -56l-355 -152l317 -152l-6 -56z" />
    <glyph glyph-name="equal" unicode="=" 
d="M448 400l-6 -48h-384l6 48h384zM430 256l-6 -48h-384l6 48h384z" />
    <glyph glyph-name="greater" unicode="&#x3e;" horiz-adv-x="512" 
d="M33 152l355 152l-317 152l7 56l377 -184l-6 -48l-422 -184z" />
    <glyph glyph-name="question" unicode="?" horiz-adv-x="512" 
d="M395.5 655.5q41.5 -24.5 61 -63t19.5 -82.5q0 -47 -22 -84t-51.5 -62.5t-73.5 -55.5q-36 -24 -48.5 -48t-19.5 -68h-61q5 42 20.5 78t53.5 64l33 23q33 23 52 38.5t33.5 38.5t18.5 54q1 5 1 15q0 48 -34.5 80.5t-94.5 32.5q-55 0 -95 -25.5t-62 -60.5l-41 46
q38 49 91.5 76.5t113.5 27.5q64 0 105.5 -24.5zM262 104q16 -16 16 -41q0 -29 -21.5 -50t-50.5 -21q-25 0 -41 15.5t-16 39.5q0 30 21.5 51.5t50.5 21.5q25 0 41 -16z" />
    <glyph glyph-name="at" unicode="@" horiz-adv-x="1088" 
d="M986 195q-36 -61 -91 -96t-119 -35q-62 0 -94 29.5t-40 69.5q-30 -36 -71 -58.5t-90 -22.5q-76 0 -119 47.5t-43 119.5q0 21 5 48q12 60 45.5 108.5t83 76.5t105.5 28q43 0 78 -20t49 -52l12 58h62l-52 -236q-6 -24 -6 -47q0 -39 20.5 -62t65.5 -23q34 0 72 19.5t69 65
t40 119.5q2 14 2 41q0 96 -51.5 176t-136.5 125.5t-182 45.5q-110 0 -217 -58t-180.5 -157.5t-88.5 -216.5q-3 -24 -3 -48q0 -106 53.5 -194.5t143.5 -139t193 -50.5q86 0 154 30l15 -60q-80 -34 -185 -34q-124 0 -224.5 57t-157.5 156.5t-57 220.5q0 34 4 62
q17 135 97.5 249t202.5 180.5t257 66.5q117 0 215 -54t155 -146.5t57 -202.5q0 -25 -3 -51q-9 -74 -45 -135zM655 330q0 47 -26 81.5t-81 34.5q-59 0 -104 -42.5t-57 -104.5q-4 -26 -4 -38q0 -51 27.5 -83t82.5 -32q60 0 103.5 44t55.5 107q3 15 3 33z" />
    <glyph glyph-name="A" unicode="A" horiz-adv-x="656" 
d="M486 144h-364l-83 -144h-72l404 688l236 -688h-72zM465 208l-111 336l-195 -336h306z" />
    <glyph glyph-name="B" unicode="B" horiz-adv-x="560" 
d="M480 311.5q25 -40.5 25 -89.5q0 -14 -1 -20q-8 -58 -39.5 -104t-83.5 -72t-118 -26h-232l82 672h177q103 0 161 -39t58 -113q0 -50 -29.5 -97.5t-68.5 -61.5q44 -9 69 -49.5zM142 384h136q151 0 166 112q1 6 1 17q0 95 -140 95h-136zM389.5 101q49.5 37 49.5 110
q0 54 -40.5 81.5t-112.5 27.5h-152l-31 -256h152q85 0 134.5 37z" />
    <glyph glyph-name="C" unicode="C" horiz-adv-x="640" 
d="M549 129l18 -58q-45 -37 -105 -58t-116 -21q-88 0 -158.5 40t-110.5 109t-40 154q0 20 3 41q11 93 67.5 172t142.5 125.5t180 46.5q56 0 111.5 -21t91.5 -58l-34 -58q-70 73 -181 73q-76 0 -145 -37.5t-114.5 -102t-54.5 -140.5q-2 -24 -2 -35q0 -68 32 -124t89 -88.5
t127 -32.5q112 0 199 73z" />
    <glyph glyph-name="D" unicode="D" horiz-adv-x="640" 
d="M465.5 635q68.5 -37 103 -101t34.5 -147q0 -25 -3 -51q-12 -94 -62 -170.5t-133 -121t-189 -44.5h-185l82 672h185q99 0 167.5 -37zM379 99q66 35 107 96.5t50 140.5q3 21 3 41q0 68 -29 120.5t-83.5 81.5t-130.5 29h-127l-66 -544h127q83 0 149 35z" />
    <glyph glyph-name="E" unicode="E" 
d="M169 608l-29 -240h256l-8 -64h-256l-29 -240h304l-8 -64h-368l82 672h368l-8 -64h-304z" />
    <glyph glyph-name="F" unicode="F" horiz-adv-x="480" 
d="M113 672h368l-8 -64h-304l-29 -240h256l-8 -64h-256l-37 -304h-64z" />
    <glyph glyph-name="G" unicode="G" horiz-adv-x="752" 
d="M712 336q-11 -94 -63.5 -173t-133 -125t-173.5 -46q-86 0 -156 40t-109.5 109t-39.5 153q0 21 3 42q11 93 67 172t141 125.5t178 46.5q99 0 170 -50.5t104 -137.5l-67 -18q-25 65 -81.5 103.5t-133.5 38.5q-76 0 -145 -37.5t-114.5 -102t-54.5 -140.5q-2 -24 -2 -35
q0 -68 32 -124t89 -88.5t127 -32.5q68 0 127 30t101 83t60 119h-284l8 64h352z" />
    <glyph glyph-name="H" unicode="H" horiz-adv-x="624" 
d="M593 672l-82 -672h-64l37 304h-352l-37 -304h-64l82 672h64l-37 -304h352l37 304h64z" />
    <glyph glyph-name="I" unicode="I" horiz-adv-x="208" 
d="M31 0l82 672h64l-82 -672h-64z" />
    <glyph glyph-name="J" unicode="J" horiz-adv-x="448" 
d="M433 672l-51 -416q-16 -134 -78 -199t-162 -65q-42 0 -81 19t-56 43l47 52q11 -22 37.5 -36t60.5 -14q76 0 115.5 49t51.5 143l52 424h64z" />
    <glyph glyph-name="K" unicode="K" horiz-adv-x="528" 
d="M463 0h-88l-243 304l-37 -304h-64l82 672h64l-37 -304l301 304h88l-337 -333z" />
    <glyph glyph-name="L" unicode="L" horiz-adv-x="464" 
d="M391 64l-8 -64h-352l82 672h64l-74 -608h288z" />
    <glyph glyph-name="M" unicode="M" horiz-adv-x="832" 
d="M199 478l-134 -478h-66l198 688l193 -564l331 564l30 -688h-66l-18 478l-294 -494z" />
    <glyph glyph-name="N" unicode="N" horiz-adv-x="672" 
d="M159 520l-64 -520h-64l84 688l398 -536l64 520h64l-84 -688z" />
    <glyph glyph-name="O" unicode="O" horiz-adv-x="768" 
d="M582 640q70 -40 109.5 -109t39.5 -153q0 -21 -3 -42q-11 -93 -67 -172t-141 -125.5t-178 -46.5q-86 0 -156 40t-109.5 109t-39.5 153q0 21 3 42q11 93 67 172t141 125.5t178 46.5q86 0 156 -40zM495.5 93.5q68.5 37.5 114 101.5t54.5 141q2 24 2 35q0 69 -32 125
t-88.5 88t-127.5 32q-77 0 -145.5 -37.5t-114 -101.5t-54.5 -141q-2 -24 -2 -35q0 -69 32 -125t88.5 -88t127.5 -32q77 0 145.5 37.5z" />
    <glyph glyph-name="P" unicode="P" horiz-adv-x="560" 
d="M479 625.5q58 -46.5 58 -130.5q0 -10 -2 -34q-8 -63 -40.5 -113.5t-87 -79t-123.5 -28.5h-160l-29 -240h-64l82 672h192q116 0 174 -46.5zM412 340.5q49 36.5 59 114.5q2 18 2 25q0 64 -42 96t-107 32h-155l-37 -304h160q71 0 120 36.5z" />
    <glyph glyph-name="Q" unicode="Q" horiz-adv-x="768" 
d="M688 208q-32 -61 -83 -108l82 -100h-88l-46 58q-100 -66 -211 -66q-86 0 -156 40t-109.5 109t-39.5 153q0 21 3 42q11 93 67 172t141 125.5t178 46.5q86 0 156 -40t109.5 -109t39.5 -153q0 -21 -3 -42q-8 -67 -40 -128zM516 106l-118 150h80l90 -110q39 38 64 87t32 103
q2 24 2 35q0 69 -32 125t-88.5 88t-127.5 32q-77 0 -145.5 -37.5t-114 -101.5t-54.5 -141q-2 -24 -2 -35q0 -69 32 -125t88.5 -88t127.5 -32q89 0 166 50z" />
    <glyph glyph-name="R" unicode="R" horiz-adv-x="576" 
d="M419 0l-152 240h-143l-29 -240h-64l82 672h192q116 0 174 -46.5t58 -130.5q0 -10 -2 -34q-10 -83 -62 -141.5t-134 -74.5l156 -245h-76zM132 304h160q71 0 120 36.5t59 114.5q2 18 2 25q0 64 -42 96t-107 32h-155z" />
    <glyph glyph-name="S" unicode="S" horiz-adv-x="560" 
d="M455.5 319q47.5 -38 47.5 -106q0 -10 -2 -32q-6 -50 -42 -93.5t-93.5 -69.5t-125.5 -26t-117.5 21.5t-75.5 46t-36 41.5l39 57q29 -45 80 -73.5t120 -28.5q46 0 88 17t68.5 47t30.5 65q1 6 1 17q0 42 -35 70t-118 44q-113 21 -158 59t-45 98q0 8 2 28q6 50 38.5 90.5
t86.5 64.5t121 24q42 0 95 -15.5t95 -64.5l-36 -55q-24 30 -66.5 50.5t-96.5 20.5q-73 0 -123 -34t-50 -93q0 -43 36 -68t115 -41q109 -23 156.5 -61z" />
    <glyph glyph-name="T" unicode="T" 
d="M497 672l-8 -64h-176l-74 -608h-64l74 608h-176l8 64h416z" />
    <glyph glyph-name="U" unicode="U" horiz-adv-x="592" 
d="M577 672l-48 -392q-17 -138 -89 -213t-186 -75q-102 0 -155.5 57.5t-53.5 166.5q0 33 4 64l48 392h64l-49 -400q-3 -25 -3 -48q0 -83 40 -125.5t113 -42.5q83 0 136 55t66 161l49 400h64z" />
    <glyph glyph-name="V" unicode="V" horiz-adv-x="624" 
d="M49 672h72l166 -536l298 536h72l-388 -688z" />
    <glyph glyph-name="W" unicode="W" horiz-adv-x="960" 
d="M985 672l-364 -688l-120 524l-248 -524l-196 688h72l143 -512l251 528l121 -528l269 512h72z" />
    <glyph glyph-name="X" unicode="X" horiz-adv-x="624" 
d="M476 0l-169 292l-241 -292h-83l290 347l-192 325h82l157 -272l223 272h82l-272 -325l206 -347h-83z" />
    <glyph glyph-name="Y" unicode="Y" horiz-adv-x="560" 
d="M593 672l-285 -368l-37 -304h-64l37 304l-195 368h72l162 -308l238 308h72z" />
    <glyph glyph-name="Z" unicode="Z" horiz-adv-x="560" 
d="M-1 0l444 608h-354l8 64h464l-444 -608h354l-8 -64h-464z" />
    <glyph glyph-name="bracketleft" unicode="[" horiz-adv-x="304" 
d="M77 -144h96l-8 -64h-160l128 1040h160l-8 -64h-96z" />
    <glyph glyph-name="backslash" unicode="\" 
d="M107 752h64l218 -832h-64z" />
    <glyph glyph-name="bracketright" unicode="]" horiz-adv-x="304" 
d="M125 768l8 64h160l-128 -1040h-160l8 64h96l112 912h-96z" />
    <glyph glyph-name="asciicircum" unicode="^" horiz-adv-x="512" 
d="M277 704h48l145 -256h-64l-112 200l-160 -200h-64z" />
    <glyph glyph-name="underscore" unicode="_" horiz-adv-x="544" 
d="M-13 -96l8 64h464l-8 -64h-464z" />
    <glyph glyph-name="grave" unicode="`" horiz-adv-x="816" 
d="M473 736l-96 128h80l64 -128h-48z" />
    <glyph glyph-name="a" unicode="a" horiz-adv-x="608" 
d="M447 0q-9 15 -9 44q0 21 3 40q-37 -43 -87.5 -67.5t-107.5 -24.5q-62 0 -112.5 28.5t-79 78.5t-28.5 110q0 11 2 31q8 67 48.5 124t102 90.5t128.5 33.5q57 0 101.5 -25t70.5 -68l11 85h64l-47 -384q-4 -32 -4 -52q0 -28 8 -44h-64zM356 84.5q48 28.5 77 76.5t29 103
q0 45 -21 81.5t-58.5 57.5t-83.5 21q-54 0 -102 -28t-77 -75.5t-29 -102.5q0 -46 21 -83t58 -58t84 -21q54 0 102 28.5z" />
    <glyph glyph-name="b" unicode="b" horiz-adv-x="608" 
d="M143 395q37 43 88 68t108 25q62 0 112 -28.5t78.5 -78.5t28.5 -110q0 -11 -2 -31q-8 -67 -48.5 -124t-101.5 -90.5t-128 -33.5q-57 0 -102 25t-71 68l-10 -85h-64l86 704h64zM388 84.5q48 28.5 77 76.5t29 103q0 45 -21 81.5t-58.5 57.5t-83.5 21q-54 0 -102 -28
t-77 -75.5t-29 -102.5q0 -46 21 -83t58 -58t84 -21q54 0 102 28.5z" />
    <glyph glyph-name="c" unicode="c" 
d="M420 46q-31 -26 -74.5 -40t-88.5 -14q-73 0 -125 28t-79 76t-27 109q0 11 2 35q9 69 47 125.5t101 89.5t142 33q95 0 151 -50l-36 -58q-44 44 -124 44q-62 0 -112 -28.5t-78 -76t-28 -103.5q0 -70 46 -115t127 -45q38 0 73 12.5t64 35.5z" />
    <glyph glyph-name="d" unicode="d" horiz-adv-x="608" 
d="M447 0q-9 15 -9 44q0 21 3 40q-37 -43 -87.5 -67.5t-107.5 -24.5q-62 0 -112.5 28.5t-79 78.5t-28.5 110q0 11 2 31q8 67 48.5 124t102 90.5t128.5 33.5q57 0 101.5 -25t70.5 -68l38 309h64l-74 -608q-4 -32 -4 -52q0 -28 8 -44h-64zM356 84.5q48 28.5 77 76.5t29 103
q0 45 -21 81.5t-58.5 57.5t-83.5 21q-54 0 -102 -28t-77 -75.5t-29 -102.5q0 -46 21 -83t58 -58t84 -21q54 0 102 28.5z" />
    <glyph glyph-name="e" unicode="e" horiz-adv-x="544" 
d="M485 208h-395q-1 -68 46 -110t124 -42q86 0 160 52l17 -58q-23 -18 -71.5 -38t-115.5 -20q-70 0 -121 28t-77 77t-26 110q0 11 2 33q9 70 45 126.5t94.5 89t130.5 32.5q88 0 142.5 -55t54.5 -150q0 -20 -3 -41q-2 -20 -7 -34zM431 272q3 36 -10.5 71t-47 58t-86.5 23
q-54 0 -94.5 -23t-64.5 -58t-30 -71h333z" />
    <glyph glyph-name="f" unicode="f" horiz-adv-x="336" 
d="M122 480l6 50q12 96 43 139t93 43q32 0 60 -14l-7 -62q-22 12 -51 12q-32 0 -48.5 -20t-22.5 -69l-9 -79h112l-8 -64h-112l-51 -416h-64l51 416h-64l8 64h64z" />
    <glyph glyph-name="g" unicode="g" horiz-adv-x="608" 
d="M554 480l-56 -450q-18 -147 -92.5 -220.5t-195.5 -73.5q-79 0 -133.5 26.5t-84.5 53.5l39 56q80 -72 187 -72q88 0 144.5 53.5t70.5 162.5l8 69q-37 -43 -87.5 -68t-107.5 -25q-62 0 -112.5 28.5t-79 78.5t-28.5 110q0 11 2 31q8 67 48.5 124t102 90.5t128.5 33.5
q57 0 101.5 -25t70.5 -68l11 85h64zM356 84.5q48 28.5 77 76.5t29 103q0 45 -21 81.5t-58.5 57.5t-83.5 21q-54 0 -102 -28t-77 -75.5t-29 -102.5q0 -46 21 -83t58 -58t84 -21q54 0 102 28.5z" />
    <glyph glyph-name="h" unicode="h" horiz-adv-x="544" 
d="M455 44q0 -28 8 -44h-64q-8 16 -8 44q0 20 4 52l23 188q2 20 2 30q0 110 -113 110q-38 0 -77.5 -17.5t-67.5 -50.5t-33 -76l-34 -280h-64l86 704h64l-36 -298q24 32 72 57t96 25q88 0 129 -42t41 -126q0 -23 -3 -52l-21 -172q-4 -32 -4 -52z" />
    <glyph glyph-name="i" unicode="i" horiz-adv-x="208" 
d="M96 574.5q-14 14.5 -14 35.5q0 25 19 43.5t44 18.5q22 0 35.5 -14t13.5 -35q0 -25 -18.5 -44t-43.5 -19q-22 0 -36 14.5zM107 96q-4 -32 -4 -52q0 -28 8 -44h-64q-8 16 -8 44q0 20 4 52l47 384h64z" />
    <glyph glyph-name="j" unicode="j" horiz-adv-x="208" 
d="M96 574.5q-14 14.5 -14 35.5q0 25 19 43.5t44 18.5q22 0 35.5 -14t13.5 -35q0 -25 -18.5 -44t-43.5 -19q-22 0 -36 14.5zM90 480h64l-63 -514q-12 -93 -40 -142t-60 -65.5t-73 -22.5l-9 58q53 11 79.5 47.5t36.5 114.5z" />
    <glyph glyph-name="k" unicode="k" horiz-adv-x="480" 
d="M431 0h-88l-221 222l-27 -222h-64l86 704h64l-53 -434l258 210h88l-285 -232z" />
    <glyph glyph-name="l" unicode="l" horiz-adv-x="208" 
d="M103 44q0 -28 8 -44h-64q-8 16 -8 44q0 20 4 52l74 608h64l-74 -608q-4 -32 -4 -52z" />
    <glyph glyph-name="m" unicode="m" horiz-adv-x="800" 
d="M711 44q0 -28 8 -44h-64q-8 16 -8 44q0 20 4 52l24 196q2 22 2 31q0 101 -94 101q-30 0 -63 -15.5t-56.5 -44.5t-28.5 -68l-24 -200q-4 -32 -4 -52q0 -28 8 -44h-64q-8 16 -8 44q0 20 4 52l25 204q1 8 1 23q0 47 -25 74t-69 27q-30 0 -63 -15.5t-56.5 -44.5t-28.5 -68
l-36 -296h-64l59 480h64l-8 -64q28 32 61 52t82 20t84.5 -20.5t50.5 -63.5q37 42 78 63t91 21q73 0 110.5 -36t37.5 -117q0 -24 -3 -51l-23 -188q-4 -32 -4 -52z" />
    <glyph glyph-name="n" unicode="n" horiz-adv-x="544" 
d="M455 44q0 -28 8 -44h-64q-8 16 -8 44q0 20 4 52l23 188q2 20 2 30q0 110 -113 110q-38 0 -77.5 -17.5t-67.5 -50.5t-33 -76l-34 -280h-64l59 480h64l-9 -74q24 32 72 57t96 25q88 0 129 -42t41 -126q0 -23 -3 -52l-21 -172q-4 -32 -4 -52z" />
    <glyph glyph-name="o" unicode="o" horiz-adv-x="576" 
d="M419 459.5q50 -28.5 78.5 -78.5t28.5 -110q0 -11 -2 -31q-8 -67 -48.5 -124t-101.5 -90.5t-128 -33.5q-62 0 -112.5 28.5t-79 78.5t-28.5 110q0 11 2 31q8 67 48.5 124t102 90.5t128.5 33.5q62 0 112 -28.5zM354.5 84.5q47.5 28.5 77 76t29.5 100.5q0 45 -21 82.5t-58 59
t-83 21.5q-53 0 -101 -28.5t-77.5 -76t-29.5 -100.5q0 -45 21.5 -82.5t58.5 -59t83 -21.5q53 0 100.5 28.5z" />
    <glyph glyph-name="p" unicode="p" horiz-adv-x="608" 
d="M143 395q37 43 88 68t108 25q62 0 112 -28.5t78.5 -78.5t28.5 -110q0 -11 -2 -31q-8 -67 -48.5 -124t-101.5 -90.5t-128 -33.5q-57 0 -102 25t-71 68l-42 -341h-64l91 736h64zM388 84.5q48 28.5 77 76.5t29 103q0 45 -21 81.5t-58.5 57.5t-83.5 21q-54 0 -102 -28
t-77 -75.5t-29 -102.5q0 -46 21 -83t58 -58t84 -21q54 0 102 28.5z" />
    <glyph glyph-name="q" unicode="q" horiz-adv-x="608" 
d="M471 -212q0 -28 8 -44h-64q-8 16 -8 44q0 20 4 52l30 245q-37 -43 -87.5 -68t-107.5 -25q-62 0 -112.5 28.5t-79 78.5t-28.5 110q0 11 2 31q8 67 48.5 124t102 90.5t128.5 33.5q57 0 101.5 -25t70.5 -68l11 85h64l-79 -640q-4 -32 -4 -52zM356 84.5q48 28.5 77 76.5
t29 103q0 45 -21 81.5t-58.5 57.5t-83.5 21q-54 0 -102 -28t-77 -75.5t-29 -102.5q0 -46 21 -83t58 -58t84 -21q54 0 102 28.5z" />
    <glyph glyph-name="r" unicode="r" horiz-adv-x="384" 
d="M233 458q61 30 130 30l-9 -73q-18 5 -44 5q-31 0 -57 -9q-50 -17 -85.5 -64.5t-44.5 -116.5l-28 -230h-64l59 480h64l-13 -103q31 51 92 81z" />
    <glyph glyph-name="s" unicode="s" horiz-adv-x="448" 
d="M352 232q32 -31 32 -77q0 -14 -1 -21q-5 -37 -29.5 -69.5t-67 -52.5t-97.5 -20q-64 0 -114 23t-69 45l35 58q23 -28 67 -45t90 -17q45 0 80.5 19t40.5 56q7 62 -100 85q-91 18 -126.5 46t-35.5 73q0 68 54 110.5t142 42.5q35 0 75.5 -11t76.5 -35l-31 -58
q-16 14 -56.5 27t-79.5 13q-107 0 -116 -70q-3 -30 30 -46t88 -28q80 -17 112 -48z" />
    <glyph glyph-name="t" unicode="t" horiz-adv-x="320" 
d="M114 416h-64l8 64h64l23 192h64l-23 -192h96l-8 -64h-96l-33 -264q-3 -22 -3 -43q0 -30 12 -40q15 -12 36 -12t41 10l-8 -65q-28 -10 -56 -10q-49 0 -69 27t-20 78q0 32 4 60z" />
    <glyph glyph-name="u" unicode="u" horiz-adv-x="544" 
d="M383 0q-9 18 -9 44q0 9 2 29q-24 -32 -72.5 -56.5t-95.5 -24.5q-88 0 -129.5 42t-41.5 124q0 16 4 54l33 268h64l-35 -284q-2 -22 -2 -31q0 -50 26.5 -79.5t86.5 -29.5q38 0 77 17.5t67 50.5t33 76l35 280h64l-47 -384q-4 -32 -4 -52q0 -28 8 -44h-64z" />
    <glyph glyph-name="v" unicode="v" horiz-adv-x="480" 
d="M26 480h72l116 -352l204 352h72l-293 -496z" />
    <glyph glyph-name="w" unicode="w" horiz-adv-x="752" 
d="M754 480l-277 -496l-101 354l-187 -354l-155 496h72l102 -338l188 354l100 -354l186 338h72z" />
    <glyph glyph-name="x" unicode="x" 
d="M431 0h-78l-121 203l-171 -203h-78l216 255l-142 225h78l109 -180l153 180h78l-198 -225z" />
    <glyph glyph-name="y" unicode="y" horiz-adv-x="480" 
d="M490 480l-416 -736h-73l163 286l-138 450h75l111 -368l203 368h75z" />
    <glyph glyph-name="z" unicode="z" horiz-adv-x="464" 
d="M-1 0l319 416h-252l8 64h368l-321 -416h254l-8 -64h-368z" />
    <glyph glyph-name="braceleft" unicode="{" horiz-adv-x="336" 
d="M166 -90q0 -29 12 -48t41 -26l-32 -60q-49 17 -68 44t-19 69q0 19 6 69l28 234q3 27 -9.5 50.5t-33 40t-39.5 21.5q34 9 69.5 41t40.5 71l29 234q6 54 15 84.5t34.5 56t76.5 41.5l17 -60q-40 -9 -56.5 -36t-20.5 -70l-27 -216q-14 -118 -85 -146q52 -23 52 -104
q0 -19 -3 -42l-26 -216q-2 -22 -2 -32z" />
    <glyph glyph-name="bar" unicode="|" horiz-adv-x="192" 
d="M-1 -256l126 1024h48l-126 -1024h-48z" />
    <glyph glyph-name="braceright" unicode="}" horiz-adv-x="336" 
d="M98 158q14 117 85 146q-52 23 -52 105q0 20 3 41l27 216q2 20 2 30q0 30 -11.5 49.5t-41.5 26.5l31 60q50 -17 68.5 -44.5t18.5 -70.5q0 -27 -5 -67l-29 -234q-3 -27 9.5 -50.5t33 -40t39.5 -21.5q-34 -9 -69.5 -41t-40.5 -71l-28 -234q-7 -54 -16 -84.5t-34.5 -56
t-76.5 -41.5l-16 60q39 9 55.5 36t21.5 70z" />
    <glyph glyph-name="asciitilde" unicode="~" horiz-adv-x="488" 
d="M429 309q-27 -41 -56 -55t-66 -14q-20 0 -42.5 7.5t-59.5 22.5q-25 9 -44 9t-33.5 -9t-27.5 -30l-52 27q27 41 55.5 55t65.5 14q24 0 59 -13.5t43 -16.5q28 -10 44 -10q37 0 61 40z" />
    <glyph glyph-name="exclamdown" unicode="&#xa1;" horiz-adv-x="272" 
d="M195.5 472q15.5 -16 15.5 -40q0 -30 -21.5 -51t-50.5 -21q-25 0 -41 15.5t-16 39.5q0 30 22 51.5t51 21.5q25 0 40.5 -16zM154 288l-35 -480h-96l83 480h48z" />
    <glyph glyph-name="cent" unicode="&#xa2;" 
d="M420 46q-29 -24 -70.5 -38t-83.5 -16l-9 -72h-40l9 73q-96 9 -148 67t-52 145q0 11 2 35q8 64 42 118t90 88t127 41l9 73h40l-9 -72q88 -3 142 -50l-36 -58q-44 44 -124 44q-62 0 -112 -28.5t-78 -76t-28 -103.5q0 -70 46 -115t127 -45q38 0 73 12.5t64 35.5z" />
    <glyph glyph-name="sterling" unicode="&#xa3;" horiz-adv-x="560" 
d="M490 88q-35 -58 -75.5 -77t-83.5 -19q-26 0 -45 5.5t-45 17.5q-41 19 -86 19q-58 0 -84 -34l-62 80q7 14 18 24.5t37 31.5q58 45 58 142l-1 34h-84l6 48h70q-8 48 -8 89q0 26 2 39q6 50 36.5 94t81 71t113.5 27q61 0 101 -18.5t81 -61.5l-40 -50q-28 33 -61 49.5
t-80 16.5q-62 0 -111 -32t-57 -95q-2 -20 -2 -30q0 -27 7 -76l3 -23h184l-6 -48h-170q1 -8 1 -27q0 -131 -97 -201q38 13 78 13q29 0 54.5 -6.5t54.5 -18.5q16 -6 32.5 -11t28.5 -5q32 0 56.5 14.5t44.5 49.5z" />
    <glyph glyph-name="currency" unicode="&#xa4;" horiz-adv-x="498" 
d="M348 241l72 -81l-35 -33l-73 81q-38 -24 -81 -24q-45 0 -77 26l-93 -83l-27 33l91 82q-15 28 -15 60q0 55 35 96l-71 84l37 31l70 -82q39 25 84 25q43 0 77 -26l89 83l29 -31l-92 -83q16 -27 16 -61q0 -56 -36 -97zM210 394q-23 -14 -37.5 -36.5t-14.5 -47.5
q0 -32 22.5 -55t55.5 -23q25 0 48 14t37.5 36.5t14.5 47.5q0 32 -22.5 55t-55.5 23q-25 0 -48 -14z" />
    <glyph glyph-name="yen" unicode="&#xa5;" horiz-adv-x="624" 
d="M340 304h112l-5 -40h-112l-9 -72h112l-5 -40h-112l-18 -152h-64l18 152h-112l5 40h112l9 72h-112l5 40h112l-195 368h72l162 -308l238 308h72z" />
    <glyph glyph-name="brokenbar" unicode="&#xa6;" horiz-adv-x="192" 
d="M82 416l43 352h48l-43 -352h-48zM-1 -256l44 352h48l-44 -352h-48z" />
    <glyph glyph-name="section" unicode="&#xa7;" horiz-adv-x="592" 
d="M499 54q0 -21 -2 -33q-6 -50 -42 -93.5t-93.5 -69.5t-125.5 -26t-117.5 21.5t-76 46.5t-34.5 41l38 57q29 -45 80 -73.5t120 -28.5q49 0 93 19.5t70 52.5t26 72q0 43 -35.5 71.5t-118.5 44.5q-113 21 -157.5 59t-44.5 98q0 46 20 86.5t59 69.5q-26 19 -37 43.5t-11 56.5
q0 8 2 28q6 50 38.5 90.5t86.5 64.5t121 24q42 0 95 -15.5t95 -64.5l-37 -55q-23 30 -65 50.5t-97 20.5q-68 0 -117 -29.5t-55 -81.5q-1 -6 -1 -16q0 -43 36 -68t115 -41q109 -23 156.5 -61t47.5 -106q0 -10 -2 -32q-4 -34 -22.5 -65.5t-48.5 -57.5q41 -38 41 -100zM180 261
q36 -25 116 -41q63 -13 106 -31q27 18 43.5 41.5t19.5 50.5q1 6 1 16q0 43 -35 71t-119 44q-52 10 -93 24q-35 -16 -55 -43t-20 -63q0 -44 36 -69z" />
    <glyph glyph-name="dieresis" unicode="&#xa8;" horiz-adv-x="816" 
d="M346.5 748q-11.5 12 -11.5 30q0 22 16 38t38 16q19 0 30.5 -12t11.5 -30q0 -22 -16 -38t-38 -16q-19 0 -30.5 12zM506.5 748q-11.5 12 -11.5 30q0 22 16 38t38 16q19 0 30.5 -12t11.5 -30q0 -22 -16 -38t-38 -16q-19 0 -30.5 12z" />
    <glyph glyph-name="copyright" unicode="&#xa9;" horiz-adv-x="664" 
d="M184.5 195.5q-55.5 31.5 -86.5 86.5t-31 123q0 11 2 35q9 77 53.5 140t112 99.5t144.5 36.5q71 0 126.5 -31t86.5 -86t31 -123q0 -12 -2 -36q-9 -77 -53.5 -140t-112 -99.5t-144.5 -36.5q-71 0 -126.5 31.5zM443 225q61 33 101.5 90t48.5 125q2 22 2 31q0 61 -28.5 110.5
t-79 78t-112.5 28.5q-68 0 -129 -33t-101 -90t-48 -125q-2 -22 -2 -31q0 -61 28.5 -110.5t78.5 -78t112 -28.5q68 0 129 33zM431 349l7 -26q-19 -17 -45.5 -26t-51.5 -9q-58 0 -97 38.5t-39 94.5q0 45 24 84.5t64 63t85 23.5q25 0 49.5 -9t39.5 -26l-14 -26q-30 33 -80 33
q-36 0 -68.5 -19.5t-52 -51.5t-19.5 -69q0 -45 31.5 -76.5t78.5 -31.5q49 0 88 33z" />
    <glyph glyph-name="ordfeminine" unicode="&#xaa;" horiz-adv-x="360" 
d="M345 672l-29 -240h-32l5 43q-18 -22 -43.5 -34.5t-54.5 -12.5q-47 0 -78 31t-31 77q0 37 19.5 69.5t52 51.5t68.5 19q29 0 51.5 -12.5t34.5 -33.5l5 42h32zM268.5 490.5q31.5 30.5 31.5 72.5q0 35 -23.5 58t-58.5 23q-41 0 -72.5 -31t-31.5 -74q0 -34 23 -56.5t58 -22.5
q42 0 73.5 30.5z" />
    <glyph glyph-name="guillemotleft" unicode="&#xab;" horiz-adv-x="592" 
d="M111 264l134 -216h-64l-134 216l187 216h64zM335 264l134 -216h-64l-134 216l187 216h64z" />
    <glyph glyph-name="logicalnot" unicode="&#xac;" horiz-adv-x="592" 
d="M508 112h-48l21 168h-432l6 48h480z" />
    <glyph glyph-name="registered" unicode="&#xae;" horiz-adv-x="696" 
d="M200.5 195.5q-55.5 31.5 -86.5 86.5t-31 123q0 11 2 35q9 77 53.5 140t112 99.5t144.5 36.5q71 0 126.5 -31t86.5 -86t31 -123q0 -12 -2 -36q-9 -77 -53.5 -140t-112 -99.5t-144.5 -36.5q-71 0 -126.5 31.5zM459 225q61 33 101.5 90t48.5 125q2 22 2 31q0 61 -28.5 110.5
t-79 78t-112.5 28.5q-68 0 -129 -33t-101 -90t-48 -125q-2 -22 -2 -31q0 -61 28.5 -110.5t78.5 -78t112 -28.5q68 0 129 33zM422 290l-68 107h-64l-13 -107h-29l37 300h86q52 0 78 -21t26 -58q0 -42 -24 -73t-64 -39l69 -109h-34zM294 426h71q35 0 58 19t23 59
q0 29 -18.5 43t-47.5 14h-69z" />
    <glyph glyph-name="macron" unicode="&#xaf;" horiz-adv-x="816" 
d="M331 752l6 48h256l-6 -48h-256z" />
    <glyph glyph-name="degree" unicode="&#xb0;" horiz-adv-x="384" 
d="M115 441.5q-34 33.5 -34 84.5q0 41 21 76.5t56.5 56.5t76.5 21q52 0 86 -34t34 -85q0 -41 -21.5 -76t-56.5 -56t-75 -21q-53 0 -87 33.5zM275.5 485.5q30.5 29.5 30.5 67.5q0 33 -22.5 56t-55.5 23q-25 0 -48 -14t-37 -36.5t-14 -47.5q0 -32 22.5 -55t55.5 -23
q38 0 68.5 29.5z" />
    <glyph glyph-name="plusminus" unicode="&#xb1;" horiz-adv-x="464" 
d="M416 400h-152l-19 -152h-48l19 152h-152l6 48h152l18 152h48l-18 -152h152zM380 104l-6 -48h-352l6 48h352z" />
    <glyph glyph-name="uni00B2" unicode="&#xb2;" horiz-adv-x="352" 
d="M144 725.5q33 30.5 80 30.5q43 0 69.5 -24t26.5 -64q0 -11 -1 -16q-5 -37 -24.5 -64.5t-63.5 -65.5l-86 -74h165l-4 -32h-240l151 133q34 31 52 58t18 54q0 29 -18 46t-49 17q-35 0 -57 -21.5t-29 -56.5l-31 6q8 43 41 73.5z" />
    <glyph glyph-name="uni00B3" unicode="&#xb3;" horiz-adv-x="344" 
d="M296 570.5q15 -18.5 15 -44.5q0 -27 -15.5 -53.5t-45.5 -43.5t-69 -17q-51 0 -78 28.5t-25 75.5l32 6q0 -32 17 -55t61 -23q28 0 48.5 12t31 29.5t10.5 33.5q0 29 -26 42t-71 13l4 32q36 1 68 15t35 43q4 28 -14.5 44t-50.5 16q-76 0 -90 -74l-30 6q9 44 40.5 72t80.5 28
t73 -24.5t24 -55.5q0 -25 -16.5 -48.5t-48.5 -34.5q25 -4 40 -22.5z" />
    <glyph glyph-name="acute" unicode="&#xb4;" horiz-adv-x="816" 
d="M489 864h80l-128 -128h-48z" />
    <glyph glyph-name="paragraph" unicode="&#xb6;" horiz-adv-x="608" 
d="M491 624l-104 -852h-48l104 852h-160l-104 -852h-48l73 599q-57 0 -91.5 37t-34.5 94q0 45 22 84t59.5 62.5t81.5 23.5h352l-6 -48h-96z" />
    <glyph glyph-name="periodcentered" unicode="&#xb7;" horiz-adv-x="240" 
d="M71.5 288q-15.5 16 -15.5 40q0 30 21.5 51t50.5 21q25 0 40.5 -16t15.5 -40q0 -30 -21.5 -51t-50.5 -21q-25 0 -40.5 16z" />
    <glyph glyph-name="cedilla" unicode="&#xb8;" horiz-adv-x="816" 
d="M399 0l-53 -51q16 4 35 4q46 0 74.5 -27.5t28.5 -70.5q0 -10 -1 -15q-8 -62 -55 -103t-114 -41q-79 0 -113 63l49 41q7 -20 26.5 -34t51.5 -14q30 0 55 14t39 36.5t14 47.5q0 27 -19.5 44.5t-52.5 17.5q-37 0 -70 -24l-26 48l67 64h64z" />
    <glyph glyph-name="uni00B9" unicode="&#xb9;" horiz-adv-x="312" 
d="M245 768l-42 -344h-32l36 298l-58 -21l4 31z" />
    <glyph glyph-name="ordmasculine" unicode="&#xba;" horiz-adv-x="360" 
d="M301 645q31 -31 31 -78q0 -37 -19.5 -69t-52.5 -51t-69 -19q-47 0 -78 31t-31 77q0 37 19.5 69.5t52 51.5t68.5 19q48 0 79 -31zM245.5 474.5q24.5 14.5 39.5 38t15 50.5q0 34 -24 57.5t-58 23.5q-41 0 -72.5 -31.5t-31.5 -72.5q0 -34 23.5 -57t57.5 -23q26 0 50.5 14.5z
" />
    <glyph glyph-name="guillemotright" unicode="&#xbb;" horiz-adv-x="592" 
d="M170 480l133 -216l-186 -216h-64l186 216l-133 216h64zM394 480l133 -216l-186 -216h-64l186 216l-133 216h64z" />
    <glyph glyph-name="onequarter" unicode="&#xbc;" horiz-adv-x="876" 
d="M234 680l-42 -344h-32l37 298l-59 -21l4 31zM127 0l550 672h48l-550 -672h-48zM791 96l-4 -32h-40l-8 -64h-32l8 64h-184l250 280l-30 -248h40zM738 256l-141 -160h122z" />
    <glyph glyph-name="onehalf" unicode="&#xbd;" horiz-adv-x="892" 
d="M234 680l-42 -344h-32l37 298l-59 -21l4 31zM127 0l550 672h48l-550 -672h-48zM632.5 309.5q32.5 30.5 79.5 30.5q43 0 70 -24t27 -65q0 -10 -1 -15q-5 -37 -24.5 -64.5t-63.5 -65.5l-86 -74h165l-4 -32h-240l151 133q34 31 52 58t18 54q0 29 -18 46t-49 17
q-35 0 -57 -21.5t-29 -56.5l-31 6q8 43 40.5 73.5z" />
    <glyph glyph-name="threequarters" unicode="&#xbe;" horiz-adv-x="908" 
d="M286 490.5q15 -18.5 15 -44.5q0 -27 -15.5 -53.5t-45 -43.5t-68.5 -17q-51 0 -78.5 29t-25.5 75l32 6q0 -32 17 -55t61 -23q28 0 48.5 12t31 29.5t10.5 33.5q0 29 -26 42t-71 13l4 32q36 1 68 15t35 43q4 28 -14.5 44t-50.5 16q-44 0 -63.5 -21t-26.5 -53l-30 6
q9 44 40.5 72t80.5 28t73.5 -23.5t24.5 -55.5q0 -25 -17 -49t-49 -35q25 -4 40 -22.5zM159 0l550 672h48l-550 -672h-48zM823 96l-4 -32h-40l-8 -64h-32l8 64h-184l250 280l-30 -248h40zM770 256l-141 -160h122z" />
    <glyph glyph-name="questiondown" unicode="&#xbf;" horiz-adv-x="512" 
d="M226 375.5q-16 15.5 -16 39.5q0 30 22 51.5t51 21.5q25 0 40.5 -16t15.5 -40q0 -30 -21.5 -51t-50.5 -21q-25 0 -41 15.5zM93 -176q-42 24 -61.5 62.5t-19.5 81.5q0 48 22 85.5t52 63t74 55.5q36 25 48.5 49t18.5 67h61q-9 -94 -73 -142q-11 -8 -33 -22q-35 -24 -56 -42
t-35 -44.5t-14 -62.5q0 -48 34 -79.5t94 -31.5q55 0 95 25.5t63 60.5l40 -46q-38 -49 -91.5 -76.5t-113.5 -27.5q-63 0 -105 24z" />
    <glyph glyph-name="Agrave" unicode="&#xc0;" horiz-adv-x="656" 
d="M377 736l-96 128h80l64 -128h-48zM486 144h-364l-83 -144h-72l404 688l236 -688h-72zM465 208l-111 336l-195 -336h306z" />
    <glyph glyph-name="Aacute" unicode="&#xc1;" horiz-adv-x="656" 
d="M425 864h80l-128 -128h-48zM486 144h-364l-83 -144h-72l404 688l236 -688h-72zM465 208l-111 336l-195 -336h306z" />
    <glyph glyph-name="Acircumflex" unicode="&#xc2;" horiz-adv-x="656" 
d="M386 808l-78 -72h-75l161 136l127 -136h-75zM486 144h-364l-83 -144h-72l404 688l236 -688h-72zM465 208l-111 336l-195 -336h306z" />
    <glyph glyph-name="Atilde" unicode="&#xc3;" horiz-adv-x="656" 
d="M545 804q-41 -68 -108 -68q-15 0 -28 4t-23.5 8.5t-14.5 5.5q-29 13 -49 13q-32 0 -54 -31l-49 17q44 66 110 66q14 0 25.5 -3.5t21.5 -7.5l15 -6q33 -15 54 -15q30 0 51 32zM486 144h-364l-83 -144h-72l404 688l236 -688h-72zM465 208l-111 336l-195 -336h306z" />
    <glyph glyph-name="Adieresis" unicode="&#xc4;" horiz-adv-x="656" 
d="M266.5 748q-11.5 12 -11.5 30q0 22 16 38t38 16q19 0 30.5 -12t11.5 -30q0 -22 -16 -38t-38 -16q-19 0 -30.5 12zM426.5 748q-11.5 12 -11.5 30q0 22 16 38t38 16q19 0 30.5 -12t11.5 -30q0 -22 -16 -38t-38 -16q-19 0 -30.5 12zM486 144h-364l-83 -144h-72l404 688
l236 -688h-72zM465 208l-111 336l-195 -336h306z" />
    <glyph glyph-name="Aring" unicode="&#xc5;" horiz-adv-x="656" 
d="M467 902q26 -26 26 -65q0 -31 -16.5 -58t-43.5 -43t-58 -16q-40 0 -66 26t-26 65q0 31 16.5 58t43.5 43t58 16q40 0 66 -26zM425 787q19 19 19 44q0 21 -13.5 35t-35.5 14q-25 0 -44 -19t-19 -44q0 -21 13.5 -35t35.5 -14q25 0 44 19zM486 144h-364l-83 -144h-72l404 688
l236 -688h-72zM465 208l-111 336l-195 -336h306z" />
    <glyph glyph-name="AE" unicode="&#xc6;" horiz-adv-x="784" 
d="M457 608l-29 -240h256l-8 -64h-256l-29 -240h304l-8 -64h-368l17 144h-206l-91 -144h-72l434 672h368l-8 -64h-304zM344 208l42 336l-215 -336h173z" />
    <glyph glyph-name="Ccedilla" unicode="&#xc7;" horiz-adv-x="640" 
d="M474.5 17.5q-53.5 -20.5 -105.5 -24.5l-47 -44q16 4 35 4q46 0 74.5 -27.5t28.5 -70.5q0 -10 -1 -15q-8 -62 -55 -103t-114 -41q-79 0 -113 63l49 41q7 -20 26.5 -34t51.5 -14q30 0 55 14t39 36.5t14 47.5q0 27 -19.5 44.5t-52.5 17.5q-37 0 -70 -24l-26 48l62 58
q-78 9 -139 50.5t-95.5 106.5t-34.5 143q0 21 3 42q11 93 67.5 172t142.5 125.5t180 46.5q56 0 111.5 -21t91.5 -58l-34 -58q-70 73 -181 73q-76 0 -145 -37.5t-114.5 -102t-54.5 -140.5q-2 -24 -2 -35q0 -68 32 -124t89 -88.5t127 -32.5q112 0 199 73l18 -58
q-39 -33 -92.5 -53.5z" />
    <glyph glyph-name="Egrave" unicode="&#xc8;" 
d="M321 736l-96 128h80l64 -128h-48zM169 608l-29 -240h256l-8 -64h-256l-29 -240h304l-8 -64h-368l82 672h368l-8 -64h-304z" />
    <glyph glyph-name="Eacute" unicode="&#xc9;" 
d="M337 864h80l-128 -128h-48zM169 608l-29 -240h256l-8 -64h-256l-29 -240h304l-8 -64h-368l82 672h368l-8 -64h-304z" />
    <glyph glyph-name="Ecircumflex" unicode="&#xca;" 
d="M306 808l-78 -72h-75l161 136l127 -136h-75zM169 608l-29 -240h256l-8 -64h-256l-29 -240h304l-8 -64h-368l82 672h368l-8 -64h-304z" />
    <glyph glyph-name="Edieresis" unicode="&#xcb;" 
d="M186.5 748q-11.5 12 -11.5 30q0 22 16 38t38 16q19 0 30.5 -12t11.5 -30q0 -22 -16 -38t-38 -16q-19 0 -30.5 12zM346.5 748q-11.5 12 -11.5 30q0 22 16 38t38 16q19 0 30.5 -12t11.5 -30q0 -22 -16 -38t-38 -16q-19 0 -30.5 12zM169 608l-29 -240h256l-8 -64h-256
l-29 -240h304l-8 -64h-368l82 672h368l-8 -64h-304z" />
    <glyph glyph-name="Igrave" unicode="&#xcc;" horiz-adv-x="208" 
d="M137 736l-96 128h80l64 -128h-48zM113 672h64l-82 -672h-64z" />
    <glyph glyph-name="Iacute" unicode="&#xcd;" horiz-adv-x="208" 
d="M217 864h80l-128 -128h-48zM31 0l82 672h64l-82 -672h-64z" />
    <glyph glyph-name="Icircumflex" unicode="&#xce;" horiz-adv-x="208" 
d="M162 808l-78 -72h-75l161 136l127 -136h-75zM31 0l82 672h64l-82 -672h-64z" />
    <glyph glyph-name="Idieresis" unicode="&#xcf;" horiz-adv-x="208" 
d="M42.5 748q-11.5 12 -11.5 30q0 22 16 38t38 16q19 0 30.5 -12t11.5 -30q0 -22 -16 -38t-38 -16q-19 0 -30.5 12zM202.5 748q-11.5 12 -11.5 30q0 22 16 38t38 16q19 0 30.5 -12t11.5 -30q0 -22 -16 -38t-38 -16q-19 0 -30.5 12zM31 0l82 672h64l-82 -672h-64z" />
    <glyph glyph-name="Eth" unicode="&#xd0;" horiz-adv-x="656" 
d="M481.5 635q68.5 -37 103 -101t34.5 -147q0 -25 -3 -51q-12 -94 -62 -170.5t-133 -121t-189 -44.5h-185l38 312h-64l6 48h64l38 312h185q99 0 167.5 -37zM395 99q66 35 107 96.5t50 140.5q3 21 3 41q0 68 -29 120.5t-83.5 81.5t-130.5 29h-127l-30 -248h64l-6 -48h-64
l-30 -248h127q83 0 149 35z" />
    <glyph glyph-name="Ntilde" unicode="&#xd1;" horiz-adv-x="672" 
d="M553 804q-41 -68 -108 -68q-15 0 -28 4t-23.5 8.5t-14.5 5.5q-29 13 -49 13q-32 0 -54 -31l-49 17q44 66 110 66q14 0 25.5 -3.5t21.5 -7.5l15 -6q33 -15 54 -15q30 0 51 32zM159 520l-64 -520h-64l84 688l398 -536l64 520h64l-84 -688z" />
    <glyph glyph-name="Ograve" unicode="&#xd2;" horiz-adv-x="768" 
d="M433 736l-96 128h80l64 -128h-48zM582 640q70 -40 109.5 -109t39.5 -153q0 -21 -3 -42q-11 -93 -67 -172t-141 -125.5t-178 -46.5q-86 0 -156 40t-109.5 109t-39.5 153q0 21 3 42q11 93 67 172t141 125.5t178 46.5q86 0 156 -40zM495.5 93.5q68.5 37.5 114 101.5
t54.5 141q2 24 2 35q0 69 -32 125t-88.5 88t-127.5 32q-77 0 -145.5 -37.5t-114 -101.5t-54.5 -141q-2 -24 -2 -35q0 -69 32 -125t88.5 -88t127.5 -32q77 0 145.5 37.5z" />
    <glyph glyph-name="Oacute" unicode="&#xd3;" horiz-adv-x="768" 
d="M481 864h80l-128 -128h-48zM582 640q70 -40 109.5 -109t39.5 -153q0 -21 -3 -42q-11 -93 -67 -172t-141 -125.5t-178 -46.5q-86 0 -156 40t-109.5 109t-39.5 153q0 21 3 42q11 93 67 172t141 125.5t178 46.5q86 0 156 -40zM495.5 93.5q68.5 37.5 114 101.5t54.5 141
q2 24 2 35q0 69 -32 125t-88.5 88t-127.5 32q-77 0 -145.5 -37.5t-114 -101.5t-54.5 -141q-2 -24 -2 -35q0 -69 32 -125t88.5 -88t127.5 -32q77 0 145.5 37.5z" />
    <glyph glyph-name="Ocircumflex" unicode="&#xd4;" horiz-adv-x="768" 
d="M442 808l-78 -72h-75l161 136l127 -136h-75zM582 640q70 -40 109.5 -109t39.5 -153q0 -21 -3 -42q-11 -93 -67 -172t-141 -125.5t-178 -46.5q-86 0 -156 40t-109.5 109t-39.5 153q0 21 3 42q11 93 67 172t141 125.5t178 46.5q86 0 156 -40zM495.5 93.5
q68.5 37.5 114 101.5t54.5 141q2 24 2 35q0 69 -32 125t-88.5 88t-127.5 32q-77 0 -145.5 -37.5t-114 -101.5t-54.5 -141q-2 -24 -2 -35q0 -69 32 -125t88.5 -88t127.5 -32q77 0 145.5 37.5z" />
    <glyph glyph-name="Otilde" unicode="&#xd5;" horiz-adv-x="768" 
d="M601 804q-41 -68 -108 -68q-15 0 -28 4t-23.5 8.5t-14.5 5.5q-29 13 -49 13q-32 0 -54 -31l-49 17q44 66 110 66q14 0 25.5 -3.5t21.5 -7.5l15 -6q33 -15 54 -15q30 0 51 32zM582 640q70 -40 109.5 -109t39.5 -153q0 -21 -3 -42q-11 -93 -67 -172t-141 -125.5t-178 -46.5
q-86 0 -156 40t-109.5 109t-39.5 153q0 21 3 42q11 93 67 172t141 125.5t178 46.5q86 0 156 -40zM495.5 93.5q68.5 37.5 114 101.5t54.5 141q2 24 2 35q0 69 -32 125t-88.5 88t-127.5 32q-77 0 -145.5 -37.5t-114 -101.5t-54.5 -141q-2 -24 -2 -35q0 -69 32 -125t88.5 -88
t127.5 -32q77 0 145.5 37.5z" />
    <glyph glyph-name="Odieresis" unicode="&#xd6;" horiz-adv-x="768" 
d="M322.5 748q-11.5 12 -11.5 30q0 22 16 38t38 16q19 0 30.5 -12t11.5 -30q0 -22 -16 -38t-38 -16q-19 0 -30.5 12zM482.5 748q-11.5 12 -11.5 30q0 22 16 38t38 16q19 0 30.5 -12t11.5 -30q0 -22 -16 -38t-38 -16q-19 0 -30.5 12zM582 640q70 -40 109.5 -109t39.5 -153
q0 -21 -3 -42q-11 -93 -67 -172t-141 -125.5t-178 -46.5q-86 0 -156 40t-109.5 109t-39.5 153q0 21 3 42q11 93 67 172t141 125.5t178 46.5q86 0 156 -40zM495.5 93.5q68.5 37.5 114 101.5t54.5 141q2 24 2 35q0 69 -32 125t-88.5 88t-127.5 32q-77 0 -145.5 -37.5
t-114 -101.5t-54.5 -141q-2 -24 -2 -35q0 -69 32 -125t88.5 -88t127.5 -32q77 0 145.5 37.5z" />
    <glyph glyph-name="multiply" unicode="&#xd7;" horiz-adv-x="426" 
d="M105 461l108 -124l138 124l30 -34l-139 -123l109 -123l-38 -34l-108 124l-138 -124l-30 34l139 123l-109 123z" />
    <glyph glyph-name="Oslash" unicode="&#xd8;" horiz-adv-x="768" 
d="M710.5 491q20.5 -53 20.5 -113q0 -21 -3 -42q-11 -93 -67 -172t-141 -125.5t-178 -46.5q-58 0 -109.5 18.5t-92.5 52.5l-61 -63h-48l85 87q-38 41 -58.5 94t-20.5 113q0 21 3 42q11 93 67 172t141 125.5t178 46.5q58 0 109.5 -18.5t92.5 -52.5l61 63h48l-85 -87
q38 -41 58.5 -94zM102 301q0 -48 16 -90.5t45 -75.5l417 426q-32 26 -73.5 40.5t-88.5 14.5q-77 0 -145.5 -37.5t-114 -101.5t-54.5 -141q-2 -12 -2 -35zM495.5 93.5q68.5 37.5 114 101.5t54.5 141q2 12 2 35q0 48 -16 90.5t-45 75.5l-417 -426q32 -26 73.5 -40.5
t88.5 -14.5q77 0 145.5 37.5z" />
    <glyph glyph-name="Ugrave" unicode="&#xd9;" horiz-adv-x="592" 
d="M353 736l-96 128h80l64 -128h-48zM577 672l-48 -392q-17 -138 -89 -213t-186 -75q-102 0 -155.5 57.5t-53.5 166.5q0 33 4 64l48 392h64l-49 -400q-3 -25 -3 -48q0 -83 40 -125.5t113 -42.5q83 0 136 55t66 161l49 400h64z" />
    <glyph glyph-name="Uacute" unicode="&#xda;" horiz-adv-x="592" 
d="M385 864h80l-128 -128h-48zM577 672l-48 -392q-17 -138 -89 -213t-186 -75q-102 0 -155.5 57.5t-53.5 166.5q0 33 4 64l48 392h64l-49 -400q-3 -25 -3 -48q0 -83 40 -125.5t113 -42.5q83 0 136 55t66 161l49 400h64z" />
    <glyph glyph-name="Ucircumflex" unicode="&#xdb;" horiz-adv-x="592" 
d="M354 808l-78 -72h-75l161 136l127 -136h-75zM577 672l-48 -392q-17 -138 -89 -213t-186 -75q-102 0 -155.5 57.5t-53.5 166.5q0 33 4 64l48 392h64l-49 -400q-3 -25 -3 -48q0 -83 40 -125.5t113 -42.5q83 0 136 55t66 161l49 400h64z" />
    <glyph glyph-name="Udieresis" unicode="&#xdc;" horiz-adv-x="592" 
d="M234.5 748q-11.5 12 -11.5 30q0 22 16 38t38 16q19 0 30.5 -12t11.5 -30q0 -22 -16 -38t-38 -16q-19 0 -30.5 12zM394.5 748q-11.5 12 -11.5 30q0 22 16 38t38 16q19 0 30.5 -12t11.5 -30q0 -22 -16 -38t-38 -16q-19 0 -30.5 12zM577 672l-48 -392q-17 -138 -89 -213
t-186 -75q-102 0 -155.5 57.5t-53.5 166.5q0 33 4 64l48 392h64l-49 -400q-3 -25 -3 -48q0 -83 40 -125.5t113 -42.5q83 0 136 55t66 161l49 400h64z" />
    <glyph glyph-name="Yacute" unicode="&#xdd;" horiz-adv-x="560" 
d="M377 864h80l-128 -128h-48zM593 672l-285 -368l-37 -304h-64l37 304l-195 368h72l162 -308l238 308h72z" />
    <glyph glyph-name="Thorn" unicode="&#xde;" horiz-adv-x="560" 
d="M467 520.5q58 -47.5 58 -131.5q0 -10 -2 -32q-8 -63 -41 -113.5t-87.5 -79t-123.5 -28.5h-160l-16 -136h-64l86 704h64l-17 -136h128q117 0 175 -47.5zM399 236.5q49 36.5 59 114.5q2 18 2 25q0 65 -41.5 96.5t-106.5 31.5h-155l-38 -304h160q71 0 120 36.5z" />
    <glyph glyph-name="germandbls" unicode="&#xdf;" horiz-adv-x="528" 
d="M141 504q8 66 46 105t102 39q54 0 83 -26.5t29 -73.5q0 -46 -22.5 -77.5t-57.5 -48.5q-25 -12 -61.5 -17t-99.5 -5l-8 -64h56q48 0 80 -3t55 -13q34 -14 50 -40t16 -59q0 -11 -1 -17q-9 -76 -63 -112.5t-138 -36.5q-41 0 -88 9l-8 -64q48 -8 96 -8q81 0 138 29.5
t88.5 77.5t38.5 105q2 16 2 25q0 57 -30 100t-84 55q39 18 72 61t33 109q0 43 -19 79t-57 57.5t-91 21.5q-59 0 -132.5 -42t-90.5 -182l-60 -488h64z" />
    <glyph glyph-name="agrave" unicode="&#xe0;" horiz-adv-x="608" 
d="M394 544l-97 128h80l65 -128h-48zM447 0q-9 15 -9 44q0 21 3 40q-37 -43 -87.5 -67.5t-107.5 -24.5q-62 0 -112.5 28.5t-79 78.5t-28.5 110q0 11 2 31q8 67 48.5 124t102 90.5t128.5 33.5q57 0 101.5 -25t70.5 -68l11 85h64l-47 -384q-4 -32 -4 -52q0 -28 8 -44h-64z
M356 84.5q48 28.5 77 76.5t29 103q0 45 -21 81.5t-58.5 57.5t-83.5 21q-54 0 -102 -28t-77 -75.5t-29 -102.5q0 -46 21 -83t58 -58t84 -21q54 0 102 28.5z" />
    <glyph glyph-name="aacute" unicode="&#xe1;" horiz-adv-x="608" 
d="M393 672h80l-127 -128h-48zM447 0q-9 15 -9 44q0 21 3 40q-37 -43 -87.5 -67.5t-107.5 -24.5q-62 0 -112.5 28.5t-79 78.5t-28.5 110q0 11 2 31q8 67 48.5 124t102 90.5t128.5 33.5q57 0 101.5 -25t70.5 -68l11 85h64l-47 -384q-4 -32 -4 -52q0 -28 8 -44h-64zM356 84.5
q48 28.5 77 76.5t29 103q0 45 -21 81.5t-58.5 57.5t-83.5 21q-54 0 -102 -28t-77 -75.5t-29 -102.5q0 -46 21 -83t58 -58t84 -21q54 0 102 28.5z" />
    <glyph glyph-name="acircumflex" unicode="&#xe2;" horiz-adv-x="608" 
d="M354 616l-77 -72h-75l160 136l128 -136h-75zM447 0q-9 15 -9 44q0 21 3 40q-37 -43 -87.5 -67.5t-107.5 -24.5q-62 0 -112.5 28.5t-79 78.5t-28.5 110q0 11 2 31q8 67 48.5 124t102 90.5t128.5 33.5q57 0 101.5 -25t70.5 -68l11 85h64l-47 -384q-4 -32 -4 -52
q0 -28 8 -44h-64zM356 84.5q48 28.5 77 76.5t29 103q0 45 -21 81.5t-58.5 57.5t-83.5 21q-54 0 -102 -28t-77 -75.5t-29 -102.5q0 -46 21 -83t58 -58t84 -21q54 0 102 28.5z" />
    <glyph glyph-name="atilde" unicode="&#xe3;" horiz-adv-x="608" 
d="M514 612q-42 -68 -108 -68q-15 0 -28 4t-23.5 8.5t-14.5 5.5q-29 13 -49 13q-32 0 -54 -31l-49 17q43 66 110 66q14 0 25.5 -3.5t21.5 -7.5l15 -6q33 -15 53 -15q31 0 52 32zM447 0q-9 15 -9 44q0 21 3 40q-37 -43 -87.5 -67.5t-107.5 -24.5q-62 0 -112.5 28.5t-79 78.5
t-28.5 110q0 11 2 31q8 67 48.5 124t102 90.5t128.5 33.5q57 0 101.5 -25t70.5 -68l11 85h64l-47 -384q-4 -32 -4 -52q0 -28 8 -44h-64zM356 84.5q48 28.5 77 76.5t29 103q0 45 -21 81.5t-58.5 57.5t-83.5 21q-54 0 -102 -28t-77 -75.5t-29 -102.5q0 -46 21 -83t58 -58
t84 -21q54 0 102 28.5z" />
    <glyph glyph-name="adieresis" unicode="&#xe4;" horiz-adv-x="608" 
d="M233.5 558q-12.5 14 -10.5 34q3 20 18.5 34t35.5 14t32.5 -14t9.5 -34q-2 -20 -17.5 -34t-35.5 -14t-32.5 14zM393.5 558q-12.5 14 -10.5 34q3 20 18.5 34t35.5 14t32.5 -14t9.5 -34q-2 -20 -17.5 -34t-35.5 -14t-32.5 14zM447 0q-9 15 -9 44q0 21 3 40
q-37 -43 -87.5 -67.5t-107.5 -24.5q-62 0 -112.5 28.5t-79 78.5t-28.5 110q0 11 2 31q8 67 48.5 124t102 90.5t128.5 33.5q57 0 101.5 -25t70.5 -68l11 85h64l-47 -384q-4 -32 -4 -52q0 -28 8 -44h-64zM356 84.5q48 28.5 77 76.5t29 103q0 45 -21 81.5t-58.5 57.5t-83.5 21
q-54 0 -102 -28t-77 -75.5t-29 -102.5q0 -46 21 -83t58 -58t84 -21q54 0 102 28.5z" />
    <glyph glyph-name="aring" unicode="&#xe5;" horiz-adv-x="608" 
d="M441 694q26 -26 26 -64q0 -31 -16 -58.5t-43 -43.5t-58 -16q-40 0 -66.5 26t-26.5 65q0 31 16.5 58t43.5 43t58 16q40 0 66 -26zM399.5 579q18.5 19 18.5 44q0 21 -13.5 35t-35.5 14q-25 0 -44 -18.5t-19 -43.5q0 -21 14 -35.5t36 -14.5q25 0 43.5 19zM447 0q-9 15 -9 44
q0 21 3 40q-37 -43 -87.5 -67.5t-107.5 -24.5q-62 0 -112.5 28.5t-79 78.5t-28.5 110q0 11 2 31q8 67 48.5 124t102 90.5t128.5 33.5q57 0 101.5 -25t70.5 -68l11 85h64l-47 -384q-4 -32 -4 -52q0 -28 8 -44h-64zM356 84.5q48 28.5 77 76.5t29 103q0 45 -21 81.5t-58.5 57.5
t-83.5 21q-54 0 -102 -28t-77 -75.5t-29 -102.5q0 -46 21 -83t58 -58t84 -21q54 0 102 28.5z" />
    <glyph glyph-name="ae" unicode="&#xe6;" horiz-adv-x="912" 
d="M853 208h-395q-1 -68 46 -110t124 -42q86 0 160 52l17 -58q-23 -18 -71.5 -38t-115.5 -20q-59 0 -105 20t-74 56l-8 -68h-64l8 65q-29 -30 -83 -51.5t-114 -21.5q-76 0 -119.5 34.5t-43.5 96.5q0 50 30.5 94t92.5 64q44 15 115 15q84 0 148 -16q1 7 1 21q0 58 -40 90.5
t-97 32.5q-46 0 -94 -16t-74 -38l-26 54q30 21 83 42.5t129 21.5q59 0 106 -30.5t63 -75.5q38 50 93 78t121 28q88 0 142.5 -55t54.5 -150q0 -20 -3 -41q-2 -20 -7 -34zM799 272q3 36 -10.5 71t-47 58t-86.5 23q-54 0 -94.5 -23t-64.5 -58t-30 -71h333zM393 216
q-67 16 -150 16q-163 0 -163 -98q0 -42 33.5 -60t74.5 -18q43 0 88.5 18.5t77 47t34.5 54.5z" />
    <glyph glyph-name="ccedilla" unicode="&#xe7;" 
d="M352 8q-39 -14 -80 -16l-46 -43q16 4 35 4q46 0 74.5 -27.5t28.5 -70.5q0 -10 -1 -15q-8 -62 -55 -103t-114 -41q-79 0 -113 63l49 41q7 -20 26.5 -34t51.5 -14q30 0 55 14t39 36.5t14 47.5q0 27 -19.5 44.5t-52.5 17.5q-37 0 -70 -24l-26 48l62 59q-88 12 -136 69.5
t-48 140.5q0 11 2 35q9 69 47 125.5t101 89.5t142 33q95 0 151 -50l-36 -58q-44 44 -124 44q-62 0 -112 -28.5t-78 -76t-28 -103.5q0 -70 46 -115t127 -45q38 0 73 12.5t64 35.5l19 -58q-29 -24 -68 -38z" />
    <glyph glyph-name="egrave" unicode="&#xe8;" horiz-adv-x="544" 
d="M314 544l-97 128h80l65 -128h-48zM485 208h-395q-1 -68 46 -110t124 -42q86 0 160 52l17 -58q-23 -18 -71.5 -38t-115.5 -20q-70 0 -121 28t-77 77t-26 110q0 11 2 33q9 70 45 126.5t94.5 89t130.5 32.5q88 0 142.5 -55t54.5 -150q0 -20 -3 -41q-2 -20 -7 -34zM431 272
q3 36 -10.5 71t-47 58t-86.5 23q-54 0 -94.5 -23t-64.5 -58t-30 -71h333z" />
    <glyph glyph-name="eacute" unicode="&#xe9;" horiz-adv-x="544" 
d="M353 672h80l-127 -128h-48zM485 208h-395q-1 -68 46 -110t124 -42q86 0 160 52l17 -58q-23 -18 -71.5 -38t-115.5 -20q-70 0 -121 28t-77 77t-26 110q0 11 2 33q9 70 45 126.5t94.5 89t130.5 32.5q88 0 142.5 -55t54.5 -150q0 -20 -3 -41q-2 -20 -7 -34zM431 272
q3 36 -10.5 71t-47 58t-86.5 23q-54 0 -94.5 -23t-64.5 -58t-30 -71h333z" />
    <glyph glyph-name="ecircumflex" unicode="&#xea;" horiz-adv-x="544" 
d="M306 616l-77 -72h-75l160 136l128 -136h-75zM485 208h-395q-1 -68 46 -110t124 -42q86 0 160 52l17 -58q-23 -18 -71.5 -38t-115.5 -20q-70 0 -121 28t-77 77t-26 110q0 11 2 33q9 70 45 126.5t94.5 89t130.5 32.5q88 0 142.5 -55t54.5 -150q0 -20 -3 -41q-2 -20 -7 -34z
M431 272q3 36 -10.5 71t-47 58t-86.5 23q-54 0 -94.5 -23t-64.5 -58t-30 -71h333z" />
    <glyph glyph-name="edieresis" unicode="&#xeb;" horiz-adv-x="544" 
d="M185.5 558q-12.5 14 -10.5 34q3 20 18.5 34t35.5 14t32.5 -14t9.5 -34q-2 -20 -17.5 -34t-35.5 -14t-32.5 14zM345.5 558q-12.5 14 -10.5 34q3 20 18.5 34t35.5 14t32.5 -14t9.5 -34q-2 -20 -17.5 -34t-35.5 -14t-32.5 14zM485 208h-395q-1 -68 46 -110t124 -42
q86 0 160 52l17 -58q-23 -18 -71.5 -38t-115.5 -20q-70 0 -121 28t-77 77t-26 110q0 11 2 33q9 70 45 126.5t94.5 89t130.5 32.5q88 0 142.5 -55t54.5 -150q0 -20 -3 -41q-2 -20 -7 -34zM431 272q3 36 -10.5 71t-47 58t-86.5 23q-54 0 -94.5 -23t-64.5 -58t-30 -71h333z" />
    <glyph glyph-name="igrave" unicode="&#xec;" horiz-adv-x="208" 
d="M114 544l-97 128h80l65 -128h-48zM107 96q-4 -32 -4 -52q0 -28 8 -44h-64q-8 16 -8 44q0 20 4 52l47 384h64z" />
    <glyph glyph-name="iacute" unicode="&#xed;" horiz-adv-x="208" 
d="M193 672h80l-127 -128h-48zM107 96q-4 -32 -4 -52q0 -28 8 -44h-64q-8 16 -8 44q0 20 4 52l47 384h64z" />
    <glyph glyph-name="icircumflex" unicode="&#xee;" horiz-adv-x="208" 
d="M138 616l-77 -72h-75l160 136l128 -136h-75zM107 96q-4 -32 -4 -52q0 -28 8 -44h-64q-8 16 -8 44q0 20 4 52l47 384h64z" />
    <glyph glyph-name="idieresis" unicode="&#xef;" horiz-adv-x="208" 
d="M17.5 558q-12.5 14 -10.5 34q3 20 18.5 34t35.5 14t32.5 -14t9.5 -34q-2 -20 -17.5 -34t-35.5 -14t-32.5 14zM177.5 558q-12.5 14 -10.5 34q3 20 18.5 34t35.5 14t32.5 -14t9.5 -34q-2 -20 -17.5 -34t-35.5 -14t-32.5 14zM107 96q-4 -32 -4 -52q0 -28 8 -44h-64
q-8 16 -8 44q0 20 4 52l47 384h64z" />
    <glyph glyph-name="eth" unicode="&#xf0;" horiz-adv-x="576" 
d="M480 431q46 -81 46 -155q0 -12 -2 -36q-8 -67 -48.5 -124t-101.5 -90.5t-128 -33.5q-62 0 -112.5 28.5t-79 78.5t-28.5 110q0 11 2 31q8 67 48.5 124t102 90.5t128.5 33.5q31 0 54 -8q-30 37 -98 90q-18 15 -16 13l-168 -56l6 48l124 41l-78 67l54 37l95 -78l189 63
l-6 -49l-145 -48q116 -96 162 -177zM354.5 84.5q47.5 28.5 77 76t29.5 100.5q0 45 -21 82.5t-58 59t-83 21.5q-53 0 -101 -28.5t-77.5 -76t-29.5 -100.5q0 -45 21.5 -82.5t58.5 -59t83 -21.5q53 0 100.5 28.5z" />
    <glyph glyph-name="ntilde" unicode="&#xf1;" horiz-adv-x="544" 
d="M466 612q-42 -68 -108 -68q-15 0 -28 4t-23.5 8.5t-14.5 5.5q-29 13 -49 13q-32 0 -54 -31l-49 17q43 66 110 66q14 0 25.5 -3.5t21.5 -7.5l15 -6q33 -15 53 -15q31 0 52 32zM455 44q0 -28 8 -44h-64q-8 16 -8 44q0 20 4 52l23 188q2 20 2 30q0 110 -113 110
q-38 0 -77.5 -17.5t-67.5 -50.5t-33 -76l-34 -280h-64l59 480h64l-9 -74q24 32 72 57t96 25q88 0 129 -42t41 -126q0 -23 -3 -52l-21 -172q-4 -32 -4 -52z" />
    <glyph glyph-name="ograve" unicode="&#xf2;" horiz-adv-x="576" 
d="M314 544l-97 128h80l65 -128h-48zM419 459.5q50 -28.5 78.5 -78.5t28.5 -110q0 -11 -2 -31q-8 -67 -48.5 -124t-101.5 -90.5t-128 -33.5q-62 0 -112.5 28.5t-79 78.5t-28.5 110q0 11 2 31q8 67 48.5 124t102 90.5t128.5 33.5q62 0 112 -28.5zM354.5 84.5q47.5 28.5 77 76
t29.5 100.5q0 45 -21 82.5t-58 59t-83 21.5q-53 0 -101 -28.5t-77.5 -76t-29.5 -100.5q0 -45 21.5 -82.5t58.5 -59t83 -21.5q53 0 100.5 28.5z" />
    <glyph glyph-name="oacute" unicode="&#xf3;" horiz-adv-x="576" 
d="M361 672h80l-127 -128h-48zM419 459.5q50 -28.5 78.5 -78.5t28.5 -110q0 -11 -2 -31q-8 -67 -48.5 -124t-101.5 -90.5t-128 -33.5q-62 0 -112.5 28.5t-79 78.5t-28.5 110q0 11 2 31q8 67 48.5 124t102 90.5t128.5 33.5q62 0 112 -28.5zM354.5 84.5q47.5 28.5 77 76
t29.5 100.5q0 45 -21 82.5t-58 59t-83 21.5q-53 0 -101 -28.5t-77.5 -76t-29.5 -100.5q0 -45 21.5 -82.5t58.5 -59t83 -21.5q53 0 100.5 28.5z" />
    <glyph glyph-name="ocircumflex" unicode="&#xf4;" horiz-adv-x="576" 
d="M322 616l-77 -72h-75l160 136l128 -136h-75zM419 459.5q50 -28.5 78.5 -78.5t28.5 -110q0 -11 -2 -31q-8 -67 -48.5 -124t-101.5 -90.5t-128 -33.5q-62 0 -112.5 28.5t-79 78.5t-28.5 110q0 11 2 31q8 67 48.5 124t102 90.5t128.5 33.5q62 0 112 -28.5zM354.5 84.5
q47.5 28.5 77 76t29.5 100.5q0 45 -21 82.5t-58 59t-83 21.5q-53 0 -101 -28.5t-77.5 -76t-29.5 -100.5q0 -45 21.5 -82.5t58.5 -59t83 -21.5q53 0 100.5 28.5z" />
    <glyph glyph-name="otilde" unicode="&#xf5;" horiz-adv-x="576" 
d="M482 612q-42 -68 -108 -68q-15 0 -28 4t-23.5 8.5t-14.5 5.5q-29 13 -49 13q-32 0 -54 -31l-49 17q43 66 110 66q14 0 25.5 -3.5t21.5 -7.5l15 -6q33 -15 53 -15q31 0 52 32zM419 459.5q50 -28.5 78.5 -78.5t28.5 -110q0 -11 -2 -31q-8 -67 -48.5 -124t-101.5 -90.5
t-128 -33.5q-62 0 -112.5 28.5t-79 78.5t-28.5 110q0 11 2 31q8 67 48.5 124t102 90.5t128.5 33.5q62 0 112 -28.5zM354.5 84.5q47.5 28.5 77 76t29.5 100.5q0 45 -21 82.5t-58 59t-83 21.5q-53 0 -101 -28.5t-77.5 -76t-29.5 -100.5q0 -45 21.5 -82.5t58.5 -59t83 -21.5
q53 0 100.5 28.5z" />
    <glyph glyph-name="odieresis" unicode="&#xf6;" horiz-adv-x="576" 
d="M201.5 558q-12.5 14 -10.5 34q3 20 18.5 34t35.5 14t32.5 -14t9.5 -34q-2 -20 -17.5 -34t-35.5 -14t-32.5 14zM361.5 558q-12.5 14 -10.5 34q3 20 18.5 34t35.5 14t32.5 -14t9.5 -34q-2 -20 -17.5 -34t-35.5 -14t-32.5 14zM419 459.5q50 -28.5 78.5 -78.5t28.5 -110
q0 -11 -2 -31q-8 -67 -48.5 -124t-101.5 -90.5t-128 -33.5q-62 0 -112.5 28.5t-79 78.5t-28.5 110q0 11 2 31q8 67 48.5 124t102 90.5t128.5 33.5q62 0 112 -28.5zM354.5 84.5q47.5 28.5 77 76t29.5 100.5q0 45 -21 82.5t-58 59t-83 21.5q-53 0 -101 -28.5t-77.5 -76
t-29.5 -100.5q0 -45 21.5 -82.5t58.5 -59t83 -21.5q53 0 100.5 28.5z" />
    <glyph glyph-name="divide" unicode="&#xf7;" horiz-adv-x="464" 
d="M201 431.5q-16 15.5 -16 39.5q0 30 22 51.5t51 21.5q25 0 40.5 -16t15.5 -40q0 -30 -21.5 -51t-50.5 -21q-25 0 -41 15.5zM407 328l-6 -48h-352l6 48h352zM158 80q-16 16 -16 41q0 29 21.5 50t50.5 21q25 0 41 -15.5t16 -39.5q0 -30 -21.5 -51.5t-50.5 -21.5
q-25 0 -41 16z" />
    <glyph glyph-name="oslash" unicode="&#xf8;" horiz-adv-x="576" 
d="M512.5 349q13.5 -37 13.5 -78q0 -9 -2 -31q-8 -67 -48.5 -124t-101.5 -90.5t-128 -33.5q-84 0 -142 49l-41 -41h-48l64 65q-25 29 -39 66.5t-14 79.5q0 73 39.5 137t104.5 102t137 38q82 0 142 -49l41 41h48l-64 -65q25 -29 38.5 -66zM128 114l273 276q-45 34 -102 34
q-53 0 -101 -28.5t-77.5 -76t-29.5 -100.5q0 -60 37 -105zM354.5 85q47.5 29 77 76.5t29.5 100.5q0 60 -36 104l-273 -276q44 -34 102 -34q53 0 100.5 29z" />
    <glyph glyph-name="ugrave" unicode="&#xf9;" horiz-adv-x="544" 
d="M290 544l-97 128h80l65 -128h-48zM383 0q-9 18 -9 44q0 9 2 29q-24 -32 -72.5 -56.5t-95.5 -24.5q-88 0 -129.5 42t-41.5 124q0 16 4 54l33 268h64l-35 -284q-2 -22 -2 -31q0 -50 26.5 -79.5t86.5 -29.5q38 0 77 17.5t67 50.5t33 76l35 280h64l-47 -384q-4 -32 -4 -52
q0 -28 8 -44h-64z" />
    <glyph glyph-name="uacute" unicode="&#xfa;" horiz-adv-x="544" 
d="M337 672h80l-127 -128h-48zM383 0q-9 18 -9 44q0 9 2 29q-24 -32 -72.5 -56.5t-95.5 -24.5q-88 0 -129.5 42t-41.5 124q0 16 4 54l33 268h64l-35 -284q-2 -22 -2 -31q0 -50 26.5 -79.5t86.5 -29.5q38 0 77 17.5t67 50.5t33 76l35 280h64l-47 -384q-4 -32 -4 -52
q0 -28 8 -44h-64z" />
    <glyph glyph-name="ucircumflex" unicode="&#xfb;" horiz-adv-x="544" 
d="M298 616l-77 -72h-75l160 136l128 -136h-75zM383 0q-9 18 -9 44q0 9 2 29q-24 -32 -72.5 -56.5t-95.5 -24.5q-88 0 -129.5 42t-41.5 124q0 16 4 54l33 268h64l-35 -284q-2 -22 -2 -31q0 -50 26.5 -79.5t86.5 -29.5q38 0 77 17.5t67 50.5t33 76l35 280h64l-47 -384
q-4 -32 -4 -52q0 -28 8 -44h-64z" />
    <glyph glyph-name="udieresis" unicode="&#xfc;" horiz-adv-x="544" 
d="M177.5 558q-12.5 14 -10.5 34q3 20 18.5 34t35.5 14t32.5 -14t9.5 -34q-2 -20 -17.5 -34t-35.5 -14t-32.5 14zM337.5 558q-12.5 14 -10.5 34q3 20 18.5 34t35.5 14t32.5 -14t9.5 -34q-2 -20 -17.5 -34t-35.5 -14t-32.5 14zM383 0q-9 18 -9 44q0 9 2 29
q-24 -32 -72.5 -56.5t-95.5 -24.5q-88 0 -129.5 42t-41.5 124q0 16 4 54l33 268h64l-35 -284q-2 -22 -2 -31q0 -50 26.5 -79.5t86.5 -29.5q38 0 77 17.5t67 50.5t33 76l35 280h64l-47 -384q-4 -32 -4 -52q0 -28 8 -44h-64z" />
    <glyph glyph-name="yacute" unicode="&#xfd;" horiz-adv-x="480" 
d="M313 672h80l-127 -128h-48zM490 480l-416 -736h-73l163 286l-138 450h75l111 -368l203 368h75z" />
    <glyph glyph-name="thorn" unicode="&#xfe;" horiz-adv-x="608" 
d="M143 395q37 43 88 68t108 25q62 0 112 -28.5t78.5 -78.5t28.5 -110q0 -11 -2 -31q-8 -67 -48.5 -124t-101.5 -90.5t-128 -33.5q-57 0 -102 25t-71 68l-42 -341h-64l118 960h64zM388 84.5q48 28.5 77 76.5t29 103q0 45 -21 81.5t-58.5 57.5t-83.5 21q-54 0 -102 -28
t-77 -75.5t-29 -102.5q0 -46 21 -83t58 -58t84 -21q54 0 102 28.5z" />
    <glyph glyph-name="ydieresis" unicode="&#xff;" horiz-adv-x="480" 
d="M153.5 558q-12.5 14 -10.5 34q3 20 18.5 34t35.5 14t32.5 -14t9.5 -34q-2 -20 -17.5 -34t-35.5 -14t-32.5 14zM313.5 558q-12.5 14 -10.5 34q3 20 18.5 34t35.5 14t32.5 -14t9.5 -34q-2 -20 -17.5 -34t-35.5 -14t-32.5 14zM490 480l-416 -736h-73l163 286l-138 450h75
l111 -368l203 368h75z" />
    <glyph glyph-name="Amacron" unicode="&#x100;" horiz-adv-x="656" 
d="M251 752l6 48h256l-6 -48h-256zM486 144h-364l-83 -144h-72l404 688l236 -688h-72zM465 208l-111 336l-195 -336h306z" />
    <glyph glyph-name="amacron" unicode="&#x101;" horiz-adv-x="608" 
d="M220 560l5 48h256l-5 -48h-256zM447 0q-9 15 -9 44q0 21 3 40q-37 -43 -87.5 -67.5t-107.5 -24.5q-62 0 -112.5 28.5t-79 78.5t-28.5 110q0 11 2 31q8 67 48.5 124t102 90.5t128.5 33.5q57 0 101.5 -25t70.5 -68l11 85h64l-47 -384q-4 -32 -4 -52q0 -28 8 -44h-64z
M356 84.5q48 28.5 77 76.5t29 103q0 45 -21 81.5t-58.5 57.5t-83.5 21q-54 0 -102 -28t-77 -75.5t-29 -102.5q0 -46 21 -83t58 -58t84 -21q54 0 102 28.5z" />
    <glyph glyph-name="Abreve" unicode="&#x102;" horiz-adv-x="656" 
d="M516 860q-6 -52 -46.5 -88t-92.5 -36q-48 0 -79 31t-31 78q0 10 1 15h48q-4 -31 15.5 -53.5t51.5 -22.5q31 0 56 22t29 54h48zM486 144h-364l-83 -144h-72l404 688l236 -688h-72zM465 208l-111 336l-195 -336h306z" />
    <glyph glyph-name="abreve" unicode="&#x103;" horiz-adv-x="608" 
d="M481 668q-7 -52 -47 -88t-92 -36q-48 0 -79 31t-31 77q0 11 1 16h48q-4 -32 15.5 -54t50.5 -22q32 0 57 22.5t29 53.5h48zM447 0q-9 15 -9 44q0 21 3 40q-37 -43 -87.5 -67.5t-107.5 -24.5q-62 0 -112.5 28.5t-79 78.5t-28.5 110q0 11 2 31q8 67 48.5 124t102 90.5
t128.5 33.5q57 0 101.5 -25t70.5 -68l11 85h64l-47 -384q-4 -32 -4 -52q0 -28 8 -44h-64zM356 84.5q48 28.5 77 76.5t29 103q0 45 -21 81.5t-58.5 57.5t-83.5 21q-54 0 -102 -28t-77 -75.5t-29 -102.5q0 -46 21 -83t58 -58t84 -21q54 0 102 28.5z" />
    <glyph glyph-name="Aogonek" unicode="&#x104;" horiz-adv-x="656" 
d="M623 -192q-11 -7 -26.5 -11.5t-29.5 -4.5q-47 0 -73.5 27t-26.5 73q0 39 19.5 72t44.5 48l-45 132h-364l-83 -144h-72l404 688l236 -688q-22 0 -46 -15t-36 -41q-10 -22 -10 -43q0 -28 17.5 -44t42.5 -16q19 0 37 9zM465 208l-111 336l-195 -336h306z" />
    <glyph glyph-name="aogonek" unicode="&#x105;" horiz-adv-x="608" 
d="M511 -192q-11 -7 -26.5 -11.5t-29.5 -4.5q-47 0 -73.5 27t-26.5 73q0 13 1 20q5 38 30 68t53 46q-1 5 -1 16q0 3 3 42q-37 -43 -87.5 -67.5t-107.5 -24.5q-62 0 -112.5 28.5t-79 78.5t-28.5 110q0 11 2 31q8 67 48.5 124t102 90.5t128.5 33.5q57 0 101.5 -25t70.5 -68
l11 85h64l-47 -384q-4 -32 -4 -52q0 -28 8 -44h-16q-22 0 -46 -15t-36 -41q-10 -22 -10 -43q0 -28 17.5 -44t42.5 -16q19 0 37 9zM356 84.5q48 28.5 77 76.5t29 103q0 45 -21 81.5t-58.5 57.5t-83.5 21q-54 0 -102 -28t-77 -75.5t-29 -102.5q0 -46 21 -83t58 -58t84 -21
q54 0 102 28.5z" />
    <glyph glyph-name="Cacute" unicode="&#x106;" horiz-adv-x="640" 
d="M473 864h80l-128 -128h-48zM549 129l18 -58q-45 -37 -105 -58t-116 -21q-88 0 -158.5 40t-110.5 109t-40 154q0 20 3 41q11 93 67.5 172t142.5 125.5t180 46.5q56 0 111.5 -21t91.5 -58l-34 -58q-70 73 -181 73q-76 0 -145 -37.5t-114.5 -102t-54.5 -140.5q-2 -24 -2 -35
q0 -68 32 -124t89 -88.5t127 -32.5q112 0 199 73z" />
    <glyph glyph-name="cacute" unicode="&#x107;" 
d="M361 672h80l-127 -128h-48zM420 46q-31 -26 -74.5 -40t-88.5 -14q-73 0 -125 28t-79 76t-27 109q0 11 2 35q9 69 47 125.5t101 89.5t142 33q95 0 151 -50l-36 -58q-44 44 -124 44q-62 0 -112 -28.5t-78 -76t-28 -103.5q0 -70 46 -115t127 -45q38 0 73 12.5t64 35.5z" />
    <glyph glyph-name="Cdotaccent" unicode="&#x10a;" horiz-adv-x="640" 
d="M390.5 736q-15.5 16 -15.5 40q0 30 21.5 51t50.5 21q25 0 40.5 -16t15.5 -40q0 -30 -21.5 -51t-50.5 -21q-25 0 -40.5 16zM549 129l18 -58q-45 -37 -105 -58t-116 -21q-88 0 -158.5 40t-110.5 109t-40 154q0 20 3 41q11 93 67.5 172t142.5 125.5t180 46.5q56 0 111.5 -21
t91.5 -58l-34 -58q-70 73 -181 73q-76 0 -145 -37.5t-114.5 -102t-54.5 -140.5q-2 -24 -2 -35q0 -68 32 -124t89 -88.5t127 -32.5q112 0 199 73z" />
    <glyph glyph-name="cdotaccent" unicode="&#x10b;" 
d="M271 544q-16 16 -16 41q0 29 21.5 50t50.5 21q25 0 41 -15.5t16 -39.5q0 -30 -21.5 -51.5t-50.5 -21.5q-25 0 -41 16zM420 46q-31 -26 -74.5 -40t-88.5 -14q-73 0 -125 28t-79 76t-27 109q0 11 2 35q9 69 47 125.5t101 89.5t142 33q95 0 151 -50l-36 -58q-44 44 -124 44
q-62 0 -112 -28.5t-78 -76t-28 -103.5q0 -70 46 -115t127 -45q38 0 73 12.5t64 35.5z" />
    <glyph glyph-name="Ccaron" unicode="&#x10c;" horiz-adv-x="640" 
d="M577 864l-161 -136l-127 136h75l60 -72l78 72h75zM549 129l18 -58q-45 -37 -105 -58t-116 -21q-88 0 -158.5 40t-110.5 109t-40 154q0 20 3 41q11 93 67.5 172t142.5 125.5t180 46.5q56 0 111.5 -21t91.5 -58l-34 -58q-70 73 -181 73q-76 0 -145 -37.5t-114.5 -102
t-54.5 -140.5q-2 -24 -2 -35q0 -68 32 -124t89 -88.5t127 -32.5q112 0 199 73z" />
    <glyph glyph-name="ccaron" unicode="&#x10d;" 
d="M473 672l-160 -136l-128 136h75l60 -72l78 72h75zM420 46q-31 -26 -74.5 -40t-88.5 -14q-73 0 -125 28t-79 76t-27 109q0 11 2 35q9 69 47 125.5t101 89.5t142 33q95 0 151 -50l-36 -58q-44 44 -124 44q-62 0 -112 -28.5t-78 -76t-28 -103.5q0 -70 46 -115t127 -45
q38 0 73 12.5t64 35.5z" />
    <glyph glyph-name="Dcaron" unicode="&#x10e;" horiz-adv-x="640" 
d="M497 864l-161 -136l-127 136h75l60 -72l78 72h75zM465.5 635q68.5 -37 103 -101t34.5 -147q0 -25 -3 -51q-12 -94 -62 -170.5t-133 -121t-189 -44.5h-185l82 672h185q99 0 167.5 -37zM379 99q66 35 107 96.5t50 140.5q3 21 3 41q0 68 -29 120.5t-83.5 81.5t-130.5 29
h-127l-66 -544h127q83 0 149 35z" />
    <glyph glyph-name="dcaron" unicode="&#x10f;" horiz-adv-x="720" 
d="M447 0q-9 15 -9 44q0 21 3 40q-37 -43 -87.5 -67.5t-107.5 -24.5q-62 0 -112.5 28.5t-79 78.5t-28.5 110q0 11 2 31q8 67 48.5 124t102 90.5t128.5 33.5q57 0 101.5 -25t70.5 -68l38 309h64l-74 -608q-4 -32 -4 -52q0 -28 8 -44h-64zM641 672h80l-85 -112h-40zM356 84.5
q48 28.5 77 76.5t29 103q0 45 -21 81.5t-58.5 57.5t-83.5 21q-54 0 -102 -28t-77 -75.5t-29 -102.5q0 -46 21 -83t58 -58t84 -21q54 0 102 28.5z" />
    <glyph glyph-name="Dcroat" unicode="&#x110;" horiz-adv-x="656" 
d="M481.5 635q68.5 -37 103 -101t34.5 -147q0 -25 -3 -51q-12 -94 -62 -170.5t-133 -121t-189 -44.5h-185l38 312h-64l6 48h64l38 312h185q99 0 167.5 -37zM395 99q66 35 107 96.5t50 140.5q3 21 3 41q0 68 -29 120.5t-83.5 81.5t-130.5 29h-127l-30 -248h64l-6 -48h-64
l-30 -248h127q83 0 149 35z" />
    <glyph glyph-name="dcroat" unicode="&#x111;" horiz-adv-x="624" 
d="M564 564l-57 -468q-4 -32 -4 -52q0 -28 8 -44h-64q-9 15 -9 44q0 21 3 40q-37 -43 -87.5 -67.5t-107.5 -24.5q-62 0 -112.5 28.5t-79 78.5t-28.5 110q0 11 2 31q8 67 48.5 124t102 90.5t128.5 33.5q57 0 101.5 -25t70.5 -68l21 169h-64l5 40h64l12 100h64l-12 -100h64
l-5 -40h-64zM356 84.5q48 28.5 77 76.5t29 103q0 45 -21 81.5t-58.5 57.5t-83.5 21q-54 0 -102 -28t-77 -75.5t-29 -102.5q0 -46 21 -83t58 -58t84 -21q54 0 102 28.5z" />
    <glyph glyph-name="Emacron" unicode="&#x112;" 
d="M171 752l6 48h256l-6 -48h-256zM169 608l-29 -240h256l-8 -64h-256l-29 -240h304l-8 -64h-368l82 672h368l-8 -64h-304z" />
    <glyph glyph-name="emacron" unicode="&#x113;" horiz-adv-x="544" 
d="M172 560l5 48h256l-5 -48h-256zM485 208h-395q-1 -68 46 -110t124 -42q86 0 160 52l17 -58q-23 -18 -71.5 -38t-115.5 -20q-70 0 -121 28t-77 77t-26 110q0 11 2 33q9 70 45 126.5t94.5 89t130.5 32.5q88 0 142.5 -55t54.5 -150q0 -20 -3 -41q-2 -20 -7 -34zM431 272
q3 36 -10.5 71t-47 58t-86.5 23q-54 0 -94.5 -23t-64.5 -58t-30 -71h333z" />
    <glyph glyph-name="Edotaccent" unicode="&#x116;" 
d="M254.5 736q-15.5 16 -15.5 40q0 30 21.5 51t50.5 21q25 0 40.5 -16t15.5 -40q0 -30 -21.5 -51t-50.5 -21q-25 0 -40.5 16zM169 608l-29 -240h256l-8 -64h-256l-29 -240h304l-8 -64h-368l82 672h368l-8 -64h-304z" />
    <glyph glyph-name="edotaccent" unicode="&#x117;" horiz-adv-x="544" 
d="M261 544q-16 16 -16 41q0 29 21.5 50t50.5 21q25 0 41 -15.5t16 -39.5q0 -30 -21.5 -51.5t-50.5 -21.5q-25 0 -41 16zM485 208h-395q-1 -68 46 -110t124 -42q86 0 160 52l17 -58q-23 -18 -71.5 -38t-115.5 -20q-70 0 -121 28t-77 77t-26 110q0 11 2 33q9 70 45 126.5
t94.5 89t130.5 32.5q88 0 142.5 -55t54.5 -150q0 -20 -3 -41q-2 -20 -7 -34zM431 272q3 36 -10.5 71t-47 58t-86.5 23q-54 0 -94.5 -23t-64.5 -58t-30 -71h333z" />
    <glyph glyph-name="Eogonek" unicode="&#x118;" 
d="M415 -192q-11 -7 -26.5 -11.5t-29.5 -4.5q-47 0 -73.5 27t-26.5 73q0 13 1 20q3 26 16 49.5t31 38.5h-276l82 672h368l-8 -64h-304l-29 -240h256l-8 -64h-256l-29 -240h304l-8 -64q-22 0 -46 -15t-36 -41q-10 -22 -10 -43q0 -28 17.5 -44t42.5 -16q19 0 37 9z" />
    <glyph glyph-name="eogonek" unicode="&#x119;" horiz-adv-x="544" 
d="M485 208h-395q-1 -68 46 -110t124 -42q86 0 160 52l17 -58q-17 -14 -56.5 -32t-93.5 -24q-19 -2 -36.5 -18t-25.5 -40q-6 -17 -6 -35q0 -28 17.5 -44t42.5 -16q19 0 37 9l11 -42q-11 -7 -26.5 -11.5t-29.5 -4.5q-47 0 -73.5 27t-26.5 73q0 13 1 20q3 23 14.5 45t26.5 37
q-88 11 -137.5 69.5t-49.5 142.5q0 10 2 34q9 70 45 126.5t94.5 89t130.5 32.5q88 0 142.5 -55t54.5 -150q0 -20 -3 -41q-2 -20 -7 -34zM431 272q3 36 -10.5 71t-47 58t-86.5 23q-54 0 -94.5 -23t-64.5 -58t-30 -71h333z" />
    <glyph glyph-name="Ecaron" unicode="&#x11a;" 
d="M457 864l-161 -136l-127 136h75l60 -72l78 72h75zM169 608l-29 -240h256l-8 -64h-256l-29 -240h304l-8 -64h-368l82 672h368l-8 -64h-304z" />
    <glyph glyph-name="ecaron" unicode="&#x11b;" horiz-adv-x="544" 
d="M457 672l-160 -136l-128 136h75l60 -72l78 72h75zM485 208h-395q-1 -68 46 -110t124 -42q86 0 160 52l17 -58q-23 -18 -71.5 -38t-115.5 -20q-70 0 -121 28t-77 77t-26 110q0 11 2 33q9 70 45 126.5t94.5 89t130.5 32.5q88 0 142.5 -55t54.5 -150q0 -20 -3 -41
q-2 -20 -7 -34zM431 272q3 36 -10.5 71t-47 58t-86.5 23q-54 0 -94.5 -23t-64.5 -58t-30 -71h333z" />
    <glyph glyph-name="Gbreve" unicode="&#x11e;" horiz-adv-x="752" 
d="M564 860q-6 -52 -46.5 -88t-92.5 -36q-48 0 -79 31t-31 78q0 10 1 15h48q-4 -31 15.5 -53.5t51.5 -22.5q31 0 56 22t29 54h48zM712 336q-11 -94 -63.5 -173t-133 -125t-173.5 -46q-86 0 -156 40t-109.5 109t-39.5 153q0 21 3 42q11 93 67 172t141 125.5t178 46.5
q99 0 170 -50.5t104 -137.5l-67 -18q-25 65 -81.5 103.5t-133.5 38.5q-76 0 -145 -37.5t-114.5 -102t-54.5 -140.5q-2 -24 -2 -35q0 -68 32 -124t89 -88.5t127 -32.5q68 0 127 30t101 83t60 119h-284l8 64h352z" />
    <glyph glyph-name="gbreve" unicode="&#x11f;" horiz-adv-x="608" 
d="M481 668q-7 -52 -47 -88t-92 -36q-48 0 -79 31t-31 77q0 11 1 16h48q-4 -32 15.5 -54t50.5 -22q32 0 57 22.5t29 53.5h48zM554 480l-56 -450q-18 -147 -92.5 -220.5t-195.5 -73.5q-79 0 -133.5 26.5t-84.5 53.5l39 56q80 -72 187 -72q88 0 144.5 53.5t70.5 162.5l8 69
q-37 -43 -87.5 -68t-107.5 -25q-62 0 -112.5 28.5t-79 78.5t-28.5 110q0 11 2 31q8 67 48.5 124t102 90.5t128.5 33.5q57 0 101.5 -25t70.5 -68l11 85h64zM356 84.5q48 28.5 77 76.5t29 103q0 45 -21 81.5t-58.5 57.5t-83.5 21q-54 0 -102 -28t-77 -75.5t-29 -102.5
q0 -46 21 -83t58 -58t84 -21q54 0 102 28.5z" />
    <glyph glyph-name="Gdotaccent" unicode="&#x120;" horiz-adv-x="752" 
d="M382.5 736q-15.5 16 -15.5 40q0 30 21.5 51t50.5 21q25 0 40.5 -16t15.5 -40q0 -30 -21.5 -51t-50.5 -21q-25 0 -40.5 16zM712 336q-11 -94 -63.5 -173t-133 -125t-173.5 -46q-86 0 -156 40t-109.5 109t-39.5 153q0 21 3 42q11 93 67 172t141 125.5t178 46.5
q99 0 170 -50.5t104 -137.5l-67 -18q-25 65 -81.5 103.5t-133.5 38.5q-76 0 -145 -37.5t-114.5 -102t-54.5 -140.5q-2 -24 -2 -35q0 -68 32 -124t89 -88.5t127 -32.5q68 0 127 30t101 83t60 119h-284l8 64h352z" />
    <glyph glyph-name="gdotaccent" unicode="&#x121;" horiz-adv-x="608" 
d="M287 544q-16 16 -16 41q0 29 21.5 50t50.5 21q25 0 41 -15.5t16 -39.5q0 -30 -21.5 -51.5t-50.5 -21.5q-25 0 -41 16zM554 480l-56 -450q-18 -147 -92.5 -220.5t-195.5 -73.5q-79 0 -133.5 26.5t-84.5 53.5l39 56q80 -72 187 -72q88 0 144.5 53.5t70.5 162.5l8 69
q-37 -43 -87.5 -68t-107.5 -25q-62 0 -112.5 28.5t-79 78.5t-28.5 110q0 11 2 31q8 67 48.5 124t102 90.5t128.5 33.5q57 0 101.5 -25t70.5 -68l11 85h64zM356 84.5q48 28.5 77 76.5t29 103q0 45 -21 81.5t-58.5 57.5t-83.5 21q-54 0 -102 -28t-77 -75.5t-29 -102.5
q0 -46 21 -83t58 -58t84 -21q54 0 102 28.5z" />
    <glyph glyph-name="Gcommaaccent" unicode="&#x122;" horiz-adv-x="752" 
d="M712 336q-11 -94 -63.5 -173t-133 -125t-173.5 -46q-86 0 -156 40t-109.5 109t-39.5 153q0 21 3 42q11 93 67 172t141 125.5t178 46.5q99 0 170 -50.5t104 -137.5l-67 -18q-25 65 -81.5 103.5t-133.5 38.5q-76 0 -145 -37.5t-114.5 -102t-54.5 -140.5q-2 -24 -2 -35
q0 -68 32 -124t89 -88.5t127 -32.5q68 0 127 30t101 83t60 119h-284l8 64h352zM295 -64h80l-86 -112h-40z" />
    <glyph glyph-name="gcommaaccent" unicode="&#x123;" horiz-adv-x="608" 
d="M386 544h-80l85 112h40zM554 480l-56 -450q-18 -147 -92.5 -220.5t-195.5 -73.5q-79 0 -133.5 26.5t-84.5 53.5l39 56q80 -72 187 -72q88 0 144.5 53.5t70.5 162.5l8 69q-37 -43 -87.5 -68t-107.5 -25q-62 0 -112.5 28.5t-79 78.5t-28.5 110q0 11 2 31q8 67 48.5 124
t102 90.5t128.5 33.5q57 0 101.5 -25t70.5 -68l11 85h64zM356 84.5q48 28.5 77 76.5t29 103q0 45 -21 81.5t-58.5 57.5t-83.5 21q-54 0 -102 -28t-77 -75.5t-29 -102.5q0 -46 21 -83t58 -58t84 -21q54 0 102 28.5z" />
    <glyph glyph-name="Hbar" unicode="&#x126;" horiz-adv-x="624" 
d="M624 532h-48l-65 -532h-64l37 304h-352l-37 -304h-64l65 532h-48l5 40h48l12 100h64l-12 -100h352l12 100h64l-12 -100h48zM512 532h-352l-20 -164h352z" />
    <glyph glyph-name="hbar" unicode="&#x127;" horiz-adv-x="560" 
d="M471 44q0 -28 8 -44h-64q-8 16 -8 44q0 20 4 52l23 188q2 20 2 30q0 110 -113 110q-38 0 -77.5 -17.5t-67.5 -50.5t-33 -76l-34 -280h-64l69 564h-64l5 40h64l12 100h64l-12 -100h64l-5 -40h-64l-19 -158q24 32 72 57t96 25q88 0 129 -42t41 -126q0 -23 -3 -52l-21 -172
q-4 -32 -4 -52z" />
    <glyph glyph-name="Imacron" unicode="&#x12a;" horiz-adv-x="208" 
d="M27 752l6 48h256l-6 -48h-256zM113 672h64l-82 -672h-64z" />
    <glyph glyph-name="imacron" unicode="&#x12b;" horiz-adv-x="208" 
d="M4 560l5 48h256l-5 -48h-256zM107 96q-4 -32 -4 -52q0 -28 8 -44h-64q-8 16 -8 44q0 20 4 52l47 384h64z" />
    <glyph glyph-name="Iogonek" unicode="&#x12e;" horiz-adv-x="208" 
d="M111 -192q-11 -7 -26.5 -11.5t-29.5 -4.5q-47 0 -73.5 27t-26.5 73t24.5 80t54.5 52l79 648h64l-82 -672q-22 0 -46 -15t-36 -41q-10 -22 -10 -43q0 -28 17.5 -44t42.5 -16q19 0 37 9z" />
    <glyph glyph-name="iogonek" unicode="&#x12f;" horiz-adv-x="208" 
d="M96 574.5q-14 14.5 -14 35.5q0 25 19 43.5t44 18.5q22 0 35.5 -14t13.5 -35q0 -25 -18.5 -44t-43.5 -19q-22 0 -36 14.5zM111 -192q-11 -7 -26.5 -11.5t-29.5 -4.5q-47 0 -73.5 27t-26.5 73q0 45 25.5 83t57.5 55q-1 23 5 66l47 384h64l-47 -384q-4 -32 -4 -52
q0 -28 8 -44h-16q-22 0 -46 -15t-36 -41q-10 -22 -10 -43q0 -28 17.5 -44t42.5 -16q19 0 37 9z" />
    <glyph glyph-name="Idotaccent" unicode="&#x130;" horiz-adv-x="208" 
d="M110.5 736q-15.5 16 -15.5 40q0 30 21.5 51t50.5 21q25 0 40.5 -16t15.5 -40q0 -30 -21.5 -51t-50.5 -21q-25 0 -40.5 16zM31 0l82 672h64l-82 -672h-64z" />
    <glyph glyph-name="dotlessi" unicode="&#x131;" horiz-adv-x="208" 
d="M107 96q-4 -32 -4 -52q0 -28 8 -44h-64q-8 16 -8 44q0 20 4 52l47 384h64z" />
    <glyph glyph-name="IJ" unicode="&#x132;" horiz-adv-x="656" 
d="M31 0l82 672h64l-82 -672h-64zM641 672l-51 -416q-16 -134 -78 -199t-162 -65q-42 0 -81 19t-56 43l47 52q11 -22 37.5 -36t60.5 -14q76 0 115.5 49t51.5 143l52 424h64z" />
    <glyph glyph-name="ij" unicode="&#x133;" horiz-adv-x="416" 
d="M96 574.5q-14 14.5 -14 35.5q0 25 19 43.5t44 18.5q22 0 35.5 -14t13.5 -35q0 -25 -18.5 -44t-43.5 -19q-22 0 -36 14.5zM304 574.5q-14 14.5 -14 35.5q0 25 19 43.5t44 18.5q22 0 35.5 -14t13.5 -35q0 -25 -18.5 -44t-43.5 -19q-22 0 -36 14.5zM107 96q-4 -32 -4 -52
q0 -28 8 -44h-64q-8 16 -8 44q0 20 4 52l47 384h64zM298 480h64l-63 -514q-12 -93 -40 -142t-60 -65.5t-73 -22.5l-9 58q53 11 79.5 47.5t36.5 114.5z" />
    <glyph glyph-name="Kcommaaccent" unicode="&#x136;" horiz-adv-x="528" 
d="M463 0h-88l-243 304l-37 -304h-64l82 672h64l-37 -304l301 304h88l-337 -333zM159 -64h80l-86 -112h-40z" />
    <glyph glyph-name="kcommaaccent" unicode="&#x137;" horiz-adv-x="480" 
d="M431 0h-88l-221 222l-27 -222h-64l86 704h64l-53 -434l258 210h88l-285 -232zM151 -64h80l-86 -112h-40z" />
    <glyph glyph-name="Lacute" unicode="&#x139;" horiz-adv-x="464" 
d="M217 864h80l-128 -128h-48zM391 64l-8 -64h-352l82 672h64l-74 -608h288z" />
    <glyph glyph-name="lacute" unicode="&#x13a;" horiz-adv-x="208" 
d="M221 896h80l-128 -128h-48zM103 44q0 -28 8 -44h-64q-8 16 -8 44q0 20 4 52l74 608h64l-74 -608q-4 -32 -4 -52z" />
    <glyph glyph-name="Lcommaaccent" unicode="&#x13b;" horiz-adv-x="464" 
d="M391 64l-8 -64h-352l82 672h64l-74 -608h288zM151 -64h80l-86 -112h-40z" />
    <glyph glyph-name="lcommaaccent" unicode="&#x13c;" horiz-adv-x="208" 
d="M103 44q0 -28 8 -44h-64q-8 16 -8 44q0 20 4 52l74 608h64l-74 -608q-4 -32 -4 -52zM15 -64h80l-86 -112h-40z" />
    <glyph glyph-name="Lcaron" unicode="&#x13d;" horiz-adv-x="480" 
d="M391 64l-8 -64h-352l82 672h64l-74 -608h288zM385 672h80l-85 -112h-40z" />
    <glyph glyph-name="lcaron" unicode="&#x13e;" horiz-adv-x="304" 
d="M103 44q0 -28 8 -44h-64q-8 16 -8 44q0 20 4 52l74 608h64l-74 -608q-4 -32 -4 -52zM241 672h80l-85 -112h-40z" />
    <glyph glyph-name="Ldot" unicode="&#x13f;" horiz-adv-x="480" 
d="M391 64l-8 -64h-352l82 672h64l-74 -608h288zM332 327.5q-16 15.5 -16 39.5q0 30 22 51.5t51 21.5q25 0 40.5 -16t15.5 -40q0 -30 -21.5 -51t-50.5 -21q-25 0 -41 15.5z" />
    <glyph glyph-name="ldot" unicode="&#x140;" horiz-adv-x="336" 
d="M103 44q0 -28 8 -44h-64q-8 16 -8 44q0 20 4 52l74 608h64l-74 -608q-4 -32 -4 -52zM204 327.5q-16 15.5 -16 39.5q0 30 22 51.5t51 21.5q25 0 40.5 -16t15.5 -40q0 -30 -21.5 -51t-50.5 -21q-25 0 -41 15.5z" />
    <glyph glyph-name="Lslash" unicode="&#x141;" horiz-adv-x="480" 
d="M407 64l-8 -64h-352l38 310l-66 -18l5 40l66 18l39 322h64l-37 -305l66 18l-5 -40l-66 -18l-32 -263h288z" />
    <glyph glyph-name="lslash" unicode="&#x142;" horiz-adv-x="240" 
d="M151 331l-28 -235q-4 -32 -4 -52q0 -28 8 -44h-64q-8 16 -8 44q0 20 4 52l26 218l-66 -18l5 40l66 18l43 350h64l-41 -333l67 18l-5 -40z" />
    <glyph glyph-name="Nacute" unicode="&#x143;" horiz-adv-x="672" 
d="M417 864h80l-128 -128h-48zM159 520l-64 -520h-64l84 688l398 -536l64 520h64l-84 -688z" />
    <glyph glyph-name="nacute" unicode="&#x144;" horiz-adv-x="544" 
d="M329 672h80l-127 -128h-48zM455 44q0 -28 8 -44h-64q-8 16 -8 44q0 20 4 52l23 188q2 20 2 30q0 110 -113 110q-38 0 -77.5 -17.5t-67.5 -50.5t-33 -76l-34 -280h-64l59 480h64l-9 -74q24 32 72 57t96 25q88 0 129 -42t41 -126q0 -23 -3 -52l-21 -172q-4 -32 -4 -52z" />
    <glyph glyph-name="Ncommaaccent" unicode="&#x145;" horiz-adv-x="672" 
d="M159 520l-64 -520h-64l84 688l398 -536l64 520h64l-84 -688zM247 -64h80l-86 -112h-40z" />
    <glyph glyph-name="ncommaaccent" unicode="&#x146;" horiz-adv-x="544" 
d="M455 44q0 -28 8 -44h-64q-8 16 -8 44q0 20 4 52l23 188q2 20 2 30q0 110 -113 110q-38 0 -77.5 -17.5t-67.5 -50.5t-33 -76l-34 -280h-64l59 480h64l-9 -74q24 32 72 57t96 25q88 0 129 -42t41 -126q0 -23 -3 -52l-21 -172q-4 -32 -4 -52zM183 -64h80l-86 -112h-40z" />
    <glyph glyph-name="Ncaron" unicode="&#x147;" horiz-adv-x="672" 
d="M545 864l-161 -136l-127 136h75l60 -72l78 72h75zM159 520l-64 -520h-64l84 688l398 -536l64 520h64l-84 -688z" />
    <glyph glyph-name="ncaron" unicode="&#x148;" horiz-adv-x="544" 
d="M449 672l-160 -136l-128 136h75l60 -72l78 72h75zM455 44q0 -28 8 -44h-64q-8 16 -8 44q0 20 4 52l23 188q2 20 2 30q0 110 -113 110q-38 0 -77.5 -17.5t-67.5 -50.5t-33 -76l-34 -280h-64l59 480h64l-9 -74q24 32 72 57t96 25q88 0 129 -42t41 -126q0 -23 -3 -52
l-21 -172q-4 -32 -4 -52z" />
    <glyph glyph-name="Eng" unicode="&#x14a;" horiz-adv-x="672" 
d="M641 672l-86 -706q-12 -93 -40 -142t-60 -65.5t-73 -22.5l-9 58q53 11 79.5 47.5t36.5 114.5l13 102l-343 462l-64 -520h-64l84 688l398 -536l64 520h64z" />
    <glyph glyph-name="eng" unicode="&#x14b;" horiz-adv-x="544" 
d="M442 446q41 -42 41 -126q0 -23 -3 -52l-37 -302q-12 -93 -40 -142t-60 -65.5t-73 -22.5l-9 58q53 11 79.5 47.5t36.5 114.5l41 328q2 20 2 30q0 110 -113 110q-38 0 -77.5 -17.5t-67.5 -50.5t-33 -76l-34 -280h-64l59 480h64l-9 -74q24 32 72 57t96 25q88 0 129 -42z" />
    <glyph glyph-name="Omacron" unicode="&#x14c;" horiz-adv-x="768" 
d="M307 752l6 48h256l-6 -48h-256zM582 640q70 -40 109.5 -109t39.5 -153q0 -21 -3 -42q-11 -93 -67 -172t-141 -125.5t-178 -46.5q-86 0 -156 40t-109.5 109t-39.5 153q0 21 3 42q11 93 67 172t141 125.5t178 46.5q86 0 156 -40zM495.5 93.5q68.5 37.5 114 101.5t54.5 141
q2 24 2 35q0 69 -32 125t-88.5 88t-127.5 32q-77 0 -145.5 -37.5t-114 -101.5t-54.5 -141q-2 -24 -2 -35q0 -69 32 -125t88.5 -88t127.5 -32q77 0 145.5 37.5z" />
    <glyph glyph-name="omacron" unicode="&#x14d;" horiz-adv-x="576" 
d="M188 560l5 48h256l-5 -48h-256zM419 459.5q50 -28.5 78.5 -78.5t28.5 -110q0 -11 -2 -31q-8 -67 -48.5 -124t-101.5 -90.5t-128 -33.5q-62 0 -112.5 28.5t-79 78.5t-28.5 110q0 11 2 31q8 67 48.5 124t102 90.5t128.5 33.5q62 0 112 -28.5zM354.5 84.5q47.5 28.5 77 76
t29.5 100.5q0 45 -21 82.5t-58 59t-83 21.5q-53 0 -101 -28.5t-77.5 -76t-29.5 -100.5q0 -45 21.5 -82.5t58.5 -59t83 -21.5q53 0 100.5 28.5z" />
    <glyph glyph-name="Ohungarumlaut" unicode="&#x150;" horiz-adv-x="768" 
d="M335 848h88l-86 -112h-48zM559 848h88l-86 -112h-48zM582 640q70 -40 109.5 -109t39.5 -153q0 -21 -3 -42q-11 -93 -67 -172t-141 -125.5t-178 -46.5q-86 0 -156 40t-109.5 109t-39.5 153q0 21 3 42q11 93 67 172t141 125.5t178 46.5q86 0 156 -40zM495.5 93.5
q68.5 37.5 114 101.5t54.5 141q2 24 2 35q0 69 -32 125t-88.5 88t-127.5 32q-77 0 -145.5 -37.5t-114 -101.5t-54.5 -141q-2 -24 -2 -35q0 -69 32 -125t88.5 -88t127.5 -32q77 0 145.5 37.5z" />
    <glyph glyph-name="ohungarumlaut" unicode="&#x151;" horiz-adv-x="576" 
d="M215 656h88l-85 -112h-48zM439 656h88l-85 -112h-48zM419 459.5q50 -28.5 78.5 -78.5t28.5 -110q0 -11 -2 -31q-8 -67 -48.5 -124t-101.5 -90.5t-128 -33.5q-62 0 -112.5 28.5t-79 78.5t-28.5 110q0 11 2 31q8 67 48.5 124t102 90.5t128.5 33.5q62 0 112 -28.5z
M354.5 84.5q47.5 28.5 77 76t29.5 100.5q0 45 -21 82.5t-58 59t-83 21.5q-53 0 -101 -28.5t-77.5 -76t-29.5 -100.5q0 -45 21.5 -82.5t58.5 -59t83 -21.5q53 0 100.5 28.5z" />
    <glyph glyph-name="OE" unicode="&#x152;" horiz-adv-x="1088" 
d="M761 608l-29 -240h256l-8 -64h-256l-29 -240h304l-8 -64h-368l16 136q-55 -66 -133.5 -105t-163.5 -39q-86 0 -156 40t-109.5 109t-39.5 153q0 21 3 42q11 93 67 172t141 125.5t178 46.5q85 0 154 -39t109 -105l16 136h368l-8 -64h-304zM495.5 93.5q68.5 37.5 114 101.5
t54.5 141q2 24 2 35q0 69 -32 125t-88.5 88t-127.5 32q-77 0 -145.5 -37.5t-114 -101.5t-54.5 -141q-2 -24 -2 -35q0 -69 32 -125t88.5 -88t127.5 -32q77 0 145.5 37.5z" />
    <glyph glyph-name="oe" unicode="&#x153;" horiz-adv-x="976" 
d="M917 208h-395q-1 -68 46 -110t124 -42q86 0 160 52l17 -58q-23 -18 -71.5 -38t-115.5 -20q-76 0 -129.5 33t-77.5 90q-40 -56 -100.5 -89.5t-128.5 -33.5q-62 0 -112.5 28.5t-79 78.5t-28.5 110q0 11 2 31q8 67 48.5 124t102 90.5t128.5 33.5t119.5 -33t78.5 -89
q37 57 95 89.5t130 32.5q88 0 142.5 -55t54.5 -150q0 -20 -3 -41q-2 -20 -7 -34zM354.5 84.5q47.5 28.5 77 76t29.5 100.5q0 45 -21 82.5t-58 59t-83 21.5q-53 0 -101 -28.5t-77.5 -76t-29.5 -100.5q0 -45 21.5 -82.5t58.5 -59t83 -21.5q53 0 100.5 28.5zM863 272
q3 36 -10.5 71t-47 58t-86.5 23q-54 0 -94.5 -23t-64.5 -58t-30 -71h333z" />
    <glyph glyph-name="Racute" unicode="&#x154;" horiz-adv-x="576" 
d="M345 864h80l-128 -128h-48zM419 0l-152 240h-143l-29 -240h-64l82 672h192q116 0 174 -46.5t58 -130.5q0 -10 -2 -34q-10 -83 -62 -141.5t-134 -74.5l156 -245h-76zM132 304h160q71 0 120 36.5t59 114.5q2 18 2 25q0 64 -42 96t-107 32h-155z" />
    <glyph glyph-name="racute" unicode="&#x155;" horiz-adv-x="384" 
d="M233 672h80l-127 -128h-48zM233 458q61 30 130 30l-9 -73q-18 5 -44 5q-31 0 -57 -9q-50 -17 -85.5 -64.5t-44.5 -116.5l-28 -230h-64l59 480h64l-13 -103q31 51 92 81z" />
    <glyph glyph-name="Rcommaaccent" unicode="&#x156;" horiz-adv-x="576" 
d="M419 0l-152 240h-143l-29 -240h-64l82 672h192q116 0 174 -46.5t58 -130.5q0 -10 -2 -34q-10 -83 -62 -141.5t-134 -74.5l156 -245h-76zM132 304h160q71 0 120 36.5t59 114.5q2 18 2 25q0 64 -42 96t-107 32h-155zM183 -64h80l-86 -112h-40z" />
    <glyph glyph-name="rcommaaccent" unicode="&#x157;" horiz-adv-x="384" 
d="M233 458q61 30 130 30l-9 -73q-18 5 -44 5q-31 0 -57 -9q-50 -17 -85.5 -64.5t-44.5 -116.5l-28 -230h-64l59 480h64l-13 -103q31 51 92 81zM23 -64h80l-86 -112h-40z" />
    <glyph glyph-name="Rcaron" unicode="&#x158;" horiz-adv-x="576" 
d="M465 864l-161 -136l-127 136h75l60 -72l78 72h75zM419 0l-152 240h-143l-29 -240h-64l82 672h192q116 0 174 -46.5t58 -130.5q0 -10 -2 -34q-10 -83 -62 -141.5t-134 -74.5l156 -245h-76zM132 304h160q71 0 120 36.5t59 114.5q2 18 2 25q0 64 -42 96t-107 32h-155z" />
    <glyph glyph-name="rcaron" unicode="&#x159;" horiz-adv-x="384" 
d="M385 672l-160 -136l-128 136h75l60 -72l78 72h75zM233 458q61 30 130 30l-9 -73q-18 5 -44 5q-31 0 -57 -9q-50 -17 -85.5 -64.5t-44.5 -116.5l-28 -230h-64l59 480h64l-13 -103q31 51 92 81z" />
    <glyph glyph-name="Sacute" unicode="&#x15a;" horiz-adv-x="560" 
d="M377 864h80l-128 -128h-48zM455.5 319q47.5 -38 47.5 -106q0 -10 -2 -32q-6 -50 -42 -93.5t-93.5 -69.5t-125.5 -26t-117.5 21.5t-75.5 46t-36 41.5l39 57q29 -45 80 -73.5t120 -28.5q46 0 88 17t68.5 47t30.5 65q1 6 1 17q0 42 -35 70t-118 44q-113 21 -158 59t-45 98
q0 8 2 28q6 50 38.5 90.5t86.5 64.5t121 24q42 0 95 -15.5t95 -64.5l-36 -55q-24 30 -66.5 50.5t-96.5 20.5q-73 0 -123 -34t-50 -93q0 -43 36 -68t115 -41q109 -23 156.5 -61z" />
    <glyph glyph-name="sacute" unicode="&#x15b;" horiz-adv-x="448" 
d="M305 672h80l-127 -128h-48zM352 232q32 -31 32 -77q0 -14 -1 -21q-5 -37 -29.5 -69.5t-67 -52.5t-97.5 -20q-64 0 -114 23t-69 45l35 58q23 -28 67 -45t90 -17q45 0 80.5 19t40.5 56q7 62 -100 85q-91 18 -126.5 46t-35.5 73q0 68 54 110.5t142 42.5q35 0 75.5 -11
t76.5 -35l-31 -58q-16 14 -56.5 27t-79.5 13q-107 0 -116 -70q-3 -30 30 -46t88 -28q80 -17 112 -48z" />
    <glyph glyph-name="Scedilla" unicode="&#x15e;" horiz-adv-x="560" 
d="M463 92.5q-32 -41.5 -84 -68t-114 -31.5l-47 -44q16 4 35 4q46 0 74.5 -27.5t28.5 -70.5q0 -10 -1 -15q-8 -62 -55 -103t-114 -41q-79 0 -113 63l49 41q7 -20 26.5 -34t51.5 -14q30 0 55 14t39 36.5t14 47.5q0 27 -19.5 44.5t-52.5 17.5q-37 0 -70 -24l-26 48l62 58
q-56 6 -97 27.5t-63.5 43.5t-30.5 36l39 57q29 -45 80 -73.5t120 -28.5q46 0 88 17t68.5 47t30.5 65q1 6 1 17q0 42 -35 70t-118 44q-113 21 -158 59t-45 98q0 8 2 28q6 50 38.5 90.5t86.5 64.5t121 24q42 0 95 -15.5t95 -64.5l-36 -55q-24 30 -66.5 50.5t-96.5 20.5
q-73 0 -123 -34t-50 -93q0 -43 36 -68t115 -41q109 -23 156.5 -61t47.5 -106q0 -10 -2 -32q-6 -47 -38 -88.5z" />
    <glyph glyph-name="scedilla" unicode="&#x15f;" horiz-adv-x="448" 
d="M332.5 41q-44.5 -40 -114.5 -48l-48 -44q16 4 35 4q46 0 74.5 -27.5t28.5 -70.5q0 -10 -1 -15q-8 -62 -55 -103t-114 -41q-79 0 -113 63l49 41q7 -20 26.5 -34t51.5 -14q30 0 55 14t39 36.5t14 47.5q0 27 -19.5 44.5t-52.5 17.5q-37 0 -70 -24l-26 48l61 58q-52 6 -92 27
t-55 39l35 58q23 -28 67 -45t90 -17q45 0 80.5 19t40.5 56q7 62 -100 85q-91 18 -126.5 46t-35.5 73q0 68 54 110.5t142 42.5q35 0 75.5 -11t76.5 -35l-31 -58q-16 14 -56.5 27t-79.5 13q-107 0 -116 -70q-3 -30 30 -46t88 -28q80 -17 112 -48t32 -77q0 -14 -1 -21
q-6 -53 -50.5 -93z" />
    <glyph glyph-name="Scaron" unicode="&#x160;" horiz-adv-x="560" 
d="M489 864l-161 -136l-127 136h75l60 -72l78 72h75zM455.5 319q47.5 -38 47.5 -106q0 -10 -2 -32q-6 -50 -42 -93.5t-93.5 -69.5t-125.5 -26t-117.5 21.5t-75.5 46t-36 41.5l39 57q29 -45 80 -73.5t120 -28.5q46 0 88 17t68.5 47t30.5 65q1 6 1 17q0 42 -35 70t-118 44
q-113 21 -158 59t-45 98q0 8 2 28q6 50 38.5 90.5t86.5 64.5t121 24q42 0 95 -15.5t95 -64.5l-36 -55q-24 30 -66.5 50.5t-96.5 20.5q-73 0 -123 -34t-50 -93q0 -43 36 -68t115 -41q109 -23 156.5 -61z" />
    <glyph glyph-name="scaron" unicode="&#x161;" horiz-adv-x="448" 
d="M417 672l-160 -136l-128 136h75l60 -72l78 72h75zM352 232q32 -31 32 -77q0 -14 -1 -21q-5 -37 -29.5 -69.5t-67 -52.5t-97.5 -20q-64 0 -114 23t-69 45l35 58q23 -28 67 -45t90 -17q45 0 80.5 19t40.5 56q7 62 -100 85q-91 18 -126.5 46t-35.5 73q0 68 54 110.5
t142 42.5q35 0 75.5 -11t76.5 -35l-31 -58q-16 14 -56.5 27t-79.5 13q-107 0 -116 -70q-3 -30 30 -46t88 -28q80 -17 112 -48z" />
    <glyph glyph-name="uni0162" unicode="&#x162;" 
d="M239 0l-53 -51q16 4 35 4q46 0 74.5 -27.5t28.5 -70.5q0 -10 -1 -15q-8 -62 -55 -103t-114 -41q-79 0 -113 63l49 41q7 -20 26.5 -34t51.5 -14q30 0 55 14t39 36.5t14 47.5q0 27 -19.5 44.5t-52.5 17.5q-37 0 -70 -24l-26 48l67 64l74 608h-176l8 64h416l-8 -64h-176z
" />
    <glyph glyph-name="uni0163" unicode="&#x163;" horiz-adv-x="320" 
d="M141 -47q46 0 74.5 -27.5t28.5 -70.5q0 -10 -1 -15q-8 -62 -55 -103t-114 -41q-79 0 -113 63l49 41q7 -20 26.5 -34t51.5 -14q30 0 55 14t39 36.5t14 47.5q0 27 -19.5 44.5t-52.5 17.5q-37 0 -70 -24l-26 48l78 74q-28 24 -28 86q0 32 4 61l32 259h-64l8 64h64l23 192h64
l-23 -192h96l-8 -64h-96l-33 -264q-3 -22 -3 -43q0 -30 12 -40q15 -12 36 -12t41 10l-8 -65q-28 -10 -56 -10q-10 0 -14 1l-47 -44q16 4 35 4z" />
    <glyph glyph-name="Tcaron" unicode="&#x164;" 
d="M457 864l-161 -136l-127 136h75l60 -72l78 72h75zM497 672l-8 -64h-176l-74 -608h-64l74 608h-176l8 64h416z" />
    <glyph glyph-name="tcaron" unicode="&#x165;" horiz-adv-x="448" 
d="M114 416h-64l8 64h64l23 192h64l-23 -192h96l-8 -64h-96l-33 -264q-3 -22 -3 -43q0 -30 12 -40q15 -12 36 -12t41 10l-8 -65q-28 -10 -56 -10q-49 0 -69 27t-20 78q0 32 4 60zM369 672h80l-85 -112h-40z" />
    <glyph glyph-name="Tbar" unicode="&#x166;" 
d="M313 608l-33 -276h64l-5 -40h-64l-36 -292h-64l36 292h-64l5 40h64l33 276h-176l8 64h416l-8 -64h-176z" />
    <glyph glyph-name="tbar" unicode="&#x167;" horiz-adv-x="320" 
d="M178 416l-15 -124h96l-5 -40h-96l-13 -100q-3 -22 -3 -43q0 -30 12 -40q15 -12 36 -12t41 10l-8 -65q-28 -10 -56 -10q-49 0 -69 27t-20 78q0 32 4 60l12 95h-64l5 40h64l15 124h-64l8 64h64l23 192h64l-23 -192h96l-8 -64h-96z" />
    <glyph glyph-name="Umacron" unicode="&#x16a;" horiz-adv-x="592" 
d="M219 752l6 48h256l-6 -48h-256zM577 672l-48 -392q-17 -138 -89 -213t-186 -75q-102 0 -155.5 57.5t-53.5 166.5q0 33 4 64l48 392h64l-49 -400q-3 -25 -3 -48q0 -83 40 -125.5t113 -42.5q83 0 136 55t66 161l49 400h64z" />
    <glyph glyph-name="umacron" unicode="&#x16b;" horiz-adv-x="544" 
d="M168 560l5 48h256l-5 -48h-256zM383 0q-9 18 -9 44q0 9 2 29q-24 -32 -72.5 -56.5t-95.5 -24.5q-88 0 -129.5 42t-41.5 124q0 16 4 54l33 268h64l-35 -284q-2 -22 -2 -31q0 -50 26.5 -79.5t86.5 -29.5q38 0 77 17.5t67 50.5t33 76l35 280h64l-47 -384q-4 -32 -4 -52
q0 -28 8 -44h-64z" />
    <glyph glyph-name="Uring" unicode="&#x16e;" horiz-adv-x="592" 
d="M435 902q26 -26 26 -65q0 -31 -16.5 -58t-43.5 -43t-58 -16q-40 0 -66 26t-26 65q0 31 16.5 58t43.5 43t58 16q40 0 66 -26zM393 787q19 19 19 44q0 21 -13.5 35t-35.5 14q-25 0 -44 -19t-19 -44q0 -21 13.5 -35t35.5 -14q25 0 44 19zM577 672l-48 -392
q-17 -138 -89 -213t-186 -75q-102 0 -155.5 57.5t-53.5 166.5q0 33 4 64l48 392h64l-49 -400q-3 -25 -3 -48q0 -83 40 -125.5t113 -42.5q83 0 136 55t66 161l49 400h64z" />
    <glyph glyph-name="uring" unicode="&#x16f;" horiz-adv-x="544" 
d="M381 694q26 -26 26 -64q0 -31 -16 -58.5t-43 -43.5t-58 -16q-40 0 -66.5 26t-26.5 65q0 31 16.5 58t43.5 43t58 16q40 0 66 -26zM339.5 579q18.5 19 18.5 44q0 21 -13.5 35t-35.5 14q-25 0 -44 -18.5t-19 -43.5q0 -21 14 -35.5t36 -14.5q25 0 43.5 19zM383 0q-9 18 -9 44
q0 9 2 29q-24 -32 -72.5 -56.5t-95.5 -24.5q-88 0 -129.5 42t-41.5 124q0 16 4 54l33 268h64l-35 -284q-2 -22 -2 -31q0 -50 26.5 -79.5t86.5 -29.5q38 0 77 17.5t67 50.5t33 76l35 280h64l-47 -384q-4 -32 -4 -52q0 -28 8 -44h-64z" />
    <glyph glyph-name="Uhungarumlaut" unicode="&#x170;" horiz-adv-x="592" 
d="M239 848h88l-86 -112h-48zM463 848h88l-86 -112h-48zM577 672l-48 -392q-17 -138 -89 -213t-186 -75q-102 0 -155.5 57.5t-53.5 166.5q0 33 4 64l48 392h64l-49 -400q-3 -25 -3 -48q0 -83 40 -125.5t113 -42.5q83 0 136 55t66 161l49 400h64z" />
    <glyph glyph-name="uhungarumlaut" unicode="&#x171;" horiz-adv-x="544" 
d="M191 656h88l-85 -112h-48zM415 656h88l-85 -112h-48zM383 0q-9 18 -9 44q0 9 2 29q-24 -32 -72.5 -56.5t-95.5 -24.5q-88 0 -129.5 42t-41.5 124q0 16 4 54l33 268h64l-35 -284q-2 -22 -2 -31q0 -50 26.5 -79.5t86.5 -29.5q38 0 77 17.5t67 50.5t33 76l35 280h64
l-47 -384q-4 -32 -4 -52q0 -28 8 -44h-64z" />
    <glyph glyph-name="Uogonek" unicode="&#x172;" horiz-adv-x="592" 
d="M577 672l-48 -392q-16 -130 -81 -204t-168 -83q-16 -1 -31.5 -18t-23.5 -40q-6 -17 -6 -34q0 -28 17.5 -44t42.5 -16q19 0 37 9l11 -42q-11 -7 -26.5 -11.5t-29.5 -4.5q-47 0 -73.5 27t-26.5 73q0 30 11.5 57t30.5 46q-83 10 -125.5 66.5t-42.5 153.5q0 34 4 65l48 392
h64l-49 -400q-3 -25 -3 -48q0 -83 40 -125.5t113 -42.5q83 0 136 55t66 161l49 400h64z" />
    <glyph glyph-name="uogonek" unicode="&#x173;" horiz-adv-x="544" 
d="M447 -192q-11 -7 -26.5 -11.5t-29.5 -4.5q-47 0 -73.5 27t-26.5 73q0 13 1 20q5 39 29.5 68.5t54.5 44.5q-1 6 -1 20q0 18 1 28q-24 -32 -72.5 -56.5t-95.5 -24.5q-88 0 -129.5 42t-41.5 124q0 16 4 54l33 268h64l-35 -284q-2 -22 -2 -31q0 -50 26.5 -79.5t86.5 -29.5
q38 0 77 17.5t67 50.5t33 76l35 280h64l-47 -384q-4 -32 -4 -52q0 -28 8 -44h-16q-22 0 -46 -15t-36 -41q-10 -22 -10 -43q0 -28 17.5 -44t42.5 -16q19 0 37 9z" />
    <glyph glyph-name="Wcircumflex" unicode="&#x174;" horiz-adv-x="960" 
d="M538 808l-78 -72h-75l161 136l127 -136h-75zM985 672l-364 -688l-120 524l-248 -524l-196 688h72l143 -512l251 528l121 -528l269 512h72z" />
    <glyph glyph-name="wcircumflex" unicode="&#x175;" horiz-adv-x="752" 
d="M410 616l-77 -72h-75l160 136l128 -136h-75zM754 480l-277 -496l-101 354l-187 -354l-155 496h72l102 -338l188 354l100 -354l186 338h72z" />
    <glyph glyph-name="Ycircumflex" unicode="&#x176;" horiz-adv-x="560" 
d="M338 808l-78 -72h-75l161 136l127 -136h-75zM593 672l-285 -368l-37 -304h-64l37 304l-195 368h72l162 -308l238 308h72z" />
    <glyph glyph-name="ycircumflex" unicode="&#x177;" horiz-adv-x="480" 
d="M274 616l-77 -72h-75l160 136l128 -136h-75zM490 480l-416 -736h-73l163 286l-138 450h75l111 -368l203 368h75z" />
    <glyph glyph-name="Ydieresis" unicode="&#x178;" horiz-adv-x="560" 
d="M218.5 748q-11.5 12 -11.5 30q0 22 16 38t38 16q19 0 30.5 -12t11.5 -30q0 -22 -16 -38t-38 -16q-19 0 -30.5 12zM378.5 748q-11.5 12 -11.5 30q0 22 16 38t38 16q19 0 30.5 -12t11.5 -30q0 -22 -16 -38t-38 -16q-19 0 -30.5 12zM593 672l-285 -368l-37 -304h-64l37 304
l-195 368h72l162 -308l238 308h72z" />
    <glyph glyph-name="Zacute" unicode="&#x179;" horiz-adv-x="560" 
d="M377 864h80l-128 -128h-48zM-1 0l444 608h-354l8 64h464l-444 -608h354l-8 -64h-464z" />
    <glyph glyph-name="zacute" unicode="&#x17a;" horiz-adv-x="464" 
d="M313 672h80l-127 -128h-48zM-1 0l319 416h-252l8 64h368l-321 -416h254l-8 -64h-368z" />
    <glyph glyph-name="Zdotaccent" unicode="&#x17b;" horiz-adv-x="560" 
d="M286.5 736q-15.5 16 -15.5 40q0 30 21.5 51t50.5 21q25 0 40.5 -16t15.5 -40q0 -30 -21.5 -51t-50.5 -21q-25 0 -40.5 16zM-1 0l444 608h-354l8 64h464l-444 -608h354l-8 -64h-464z" />
    <glyph glyph-name="zdotaccent" unicode="&#x17c;" horiz-adv-x="464" 
d="M215 544q-16 16 -16 41q0 29 21.5 50t50.5 21q25 0 41 -15.5t16 -39.5q0 -30 -21.5 -51.5t-50.5 -21.5q-25 0 -41 16zM-1 0l319 416h-252l8 64h368l-321 -416h254l-8 -64h-368z" />
    <glyph glyph-name="Zcaron" unicode="&#x17d;" horiz-adv-x="560" 
d="M489 864l-161 -136l-127 136h75l60 -72l78 72h75zM-1 0l444 608h-354l8 64h464l-444 -608h354l-8 -64h-464z" />
    <glyph glyph-name="zcaron" unicode="&#x17e;" horiz-adv-x="464" 
d="M417 672l-160 -136l-128 136h75l60 -72l78 72h75zM-1 0l319 416h-252l8 64h368l-321 -416h254l-8 -64h-368z" />
    <glyph glyph-name="Aringacute" unicode="&#x1fa;" horiz-adv-x="656" 
d="M452 1088h80l-127 -128h-48zM467 902q26 -26 26 -65q0 -31 -16.5 -58t-43.5 -43t-58 -16q-40 0 -66 26t-26 65q0 31 16.5 58t43.5 43t58 16q40 0 66 -26zM425 787q19 19 19 44q0 21 -13.5 35t-35.5 14q-25 0 -44 -19t-19 -44q0 -21 13.5 -35t35.5 -14q25 0 44 19z
M486 144h-364l-83 -144h-72l404 688l236 -688h-72zM465 208l-111 336l-195 -336h306z" />
    <glyph glyph-name="aringacute" unicode="&#x1fb;" horiz-adv-x="608" 
d="M419 880h80l-128 -128h-48zM441 694q26 -26 26 -64q0 -31 -16 -58.5t-43 -43.5t-58 -16q-40 0 -66.5 26t-26.5 65q0 31 16.5 58t43.5 43t58 16q40 0 66 -26zM399.5 579q18.5 19 18.5 44q0 21 -13.5 35t-35.5 14q-25 0 -44 -18.5t-19 -43.5q0 -21 14 -35.5t36 -14.5
q25 0 43.5 19zM447 0q-9 15 -9 44q0 21 3 40q-37 -43 -87.5 -67.5t-107.5 -24.5q-62 0 -112.5 28.5t-79 78.5t-28.5 110q0 11 2 31q8 67 48.5 124t102 90.5t128.5 33.5q57 0 101.5 -25t70.5 -68l11 85h64l-47 -384q-4 -32 -4 -52q0 -28 8 -44h-64zM356 84.5q48 28.5 77 76.5
t29 103q0 45 -21 81.5t-58.5 57.5t-83.5 21q-54 0 -102 -28t-77 -75.5t-29 -102.5q0 -46 21 -83t58 -58t84 -21q54 0 102 28.5z" />
    <glyph glyph-name="AEacute" unicode="&#x1fc;" horiz-adv-x="784" 
d="M521 864h80l-128 -128h-48zM457 608l-29 -240h256l-8 -64h-256l-29 -240h304l-8 -64h-368l17 144h-206l-91 -144h-72l434 672h368l-8 -64h-304zM344 208l42 336l-215 -336h173z" />
    <glyph glyph-name="aeacute" unicode="&#x1fd;" horiz-adv-x="912" 
d="M513 672h80l-127 -128h-48zM853 208h-395q-1 -68 46 -110t124 -42q86 0 160 52l17 -58q-23 -18 -71.5 -38t-115.5 -20q-59 0 -105 20t-74 56l-8 -68h-64l8 65q-29 -30 -83 -51.5t-114 -21.5q-76 0 -119.5 34.5t-43.5 96.5q0 50 30.5 94t92.5 64q44 15 115 15
q84 0 148 -16q1 7 1 21q0 58 -40 90.5t-97 32.5q-46 0 -94 -16t-74 -38l-26 54q30 21 83 42.5t129 21.5q59 0 106 -30.5t63 -75.5q38 50 93 78t121 28q88 0 142.5 -55t54.5 -150q0 -20 -3 -41q-2 -20 -7 -34zM799 272q3 36 -10.5 71t-47 58t-86.5 23q-54 0 -94.5 -23
t-64.5 -58t-30 -71h333zM393 216q-67 16 -150 16q-163 0 -163 -98q0 -42 33.5 -60t74.5 -18q43 0 88.5 18.5t77 47t34.5 54.5z" />
    <glyph glyph-name="Scommaaccent" unicode="&#x218;" horiz-adv-x="560" 
d="M455.5 319q47.5 -38 47.5 -106q0 -10 -2 -32q-6 -50 -42 -93.5t-93.5 -69.5t-125.5 -26t-117.5 21.5t-75.5 46t-36 41.5l39 57q29 -45 80 -73.5t120 -28.5q46 0 88 17t68.5 47t30.5 65q1 6 1 17q0 42 -35 70t-118 44q-113 21 -158 59t-45 98q0 8 2 28q6 50 38.5 90.5
t86.5 64.5t121 24q42 0 95 -15.5t95 -64.5l-36 -55q-24 30 -66.5 50.5t-96.5 20.5q-73 0 -123 -34t-50 -93q0 -43 36 -68t115 -41q109 -23 156.5 -61zM191 -64h80l-86 -112h-40z" />
    <glyph glyph-name="scommaaccent" unicode="&#x219;" horiz-adv-x="448" 
d="M352 232q32 -31 32 -77q0 -14 -1 -21q-5 -37 -29.5 -69.5t-67 -52.5t-97.5 -20q-64 0 -114 23t-69 45l35 58q23 -28 67 -45t90 -17q45 0 80.5 19t40.5 56q7 62 -100 85q-91 18 -126.5 46t-35.5 73q0 68 54 110.5t142 42.5q35 0 75.5 -11t76.5 -35l-31 -58
q-16 14 -56.5 27t-79.5 13q-107 0 -116 -70q-3 -30 30 -46t88 -28q80 -17 112 -48zM143 -64h80l-86 -112h-40z" />
    <glyph glyph-name="uni021A" unicode="&#x21a;" 
d="M497 672l-8 -64h-176l-74 -608h-64l74 608h-176l8 64h416zM159 -64h80l-86 -112h-40z" />
    <glyph glyph-name="uni021B" unicode="&#x21b;" horiz-adv-x="320" 
d="M114 416h-64l8 64h64l23 192h64l-23 -192h96l-8 -64h-96l-33 -264q-3 -22 -3 -43q0 -30 12 -40q15 -12 36 -12t41 10l-8 -65q-28 -10 -56 -10q-49 0 -69 27t-20 78q0 32 4 60zM87 -64h80l-86 -112h-40z" />
    <glyph glyph-name="circumflex" unicode="&#x2c6;" horiz-adv-x="816" 
d="M466 808l-78 -72h-75l161 136l127 -136h-75z" />
    <glyph glyph-name="caron" unicode="&#x2c7;" horiz-adv-x="816" 
d="M617 864l-161 -136l-127 136h75l60 -72l78 72h75z" />
    <glyph glyph-name="breve" unicode="&#x2d8;" horiz-adv-x="816" 
d="M596 860q-6 -52 -46.5 -88t-92.5 -36q-48 0 -79 31t-31 78q0 10 1 15h48q-4 -31 15.5 -53.5t51.5 -22.5q31 0 56 22t29 54h48z" />
    <glyph glyph-name="dotaccent" unicode="&#x2d9;" horiz-adv-x="816" 
d="M414.5 736q-15.5 16 -15.5 40q0 30 21.5 51t50.5 21q25 0 40.5 -16t15.5 -40q0 -30 -21.5 -51t-50.5 -21q-25 0 -40.5 16z" />
    <glyph glyph-name="ring" unicode="&#x2da;" horiz-adv-x="816" 
d="M547 902q26 -26 26 -65q0 -31 -16.5 -58t-43.5 -43t-58 -16q-40 0 -66 26t-26 65q0 31 16.5 58t43.5 43t58 16q40 0 66 -26zM505 787q19 19 19 44q0 21 -13.5 35t-35.5 14q-25 0 -44 -19t-19 -44q0 -21 13.5 -35t35.5 -14q25 0 44 19z" />
    <glyph glyph-name="ogonek" unicode="&#x2db;" horiz-adv-x="816" 
d="M381 -15q-24 -15 -36 -41q-10 -22 -10 -43q0 -28 17.5 -44t42.5 -16q19 0 37 9l11 -42q-11 -7 -26.5 -11.5t-29.5 -4.5q-47 0 -73.5 27t-26.5 73q0 13 1 20q3 26 16 49.5t31 38.5h92q-22 0 -46 -15z" />
    <glyph glyph-name="tilde" unicode="&#x2dc;" horiz-adv-x="816" 
d="M625 804q-41 -68 -108 -68q-15 0 -28 4t-23.5 8.5t-14.5 5.5q-29 13 -49 13q-32 0 -54 -31l-49 17q44 66 110 66q14 0 25.5 -3.5t21.5 -7.5l15 -6q33 -15 54 -15q30 0 51 32z" />
    <glyph glyph-name="hungarumlaut" unicode="&#x2dd;" horiz-adv-x="816" 
d="M343 848h88l-86 -112h-48zM567 848h88l-86 -112h-48z" />
    <glyph glyph-name="Alphatonos" unicode="&#x386;" horiz-adv-x="656" 
d="M486 144h-364l-83 -144h-72l404 688l236 -688h-72zM113 672h80l-85 -112h-40zM465 208l-111 336l-195 -336h306z" />
    <glyph glyph-name="Epsilontonos" unicode="&#x388;" horiz-adv-x="608" 
d="M113 672h80l-85 -112h-40zM281 608l-29 -240h256l-8 -64h-256l-29 -240h304l-8 -64h-368l82 672h368l-8 -64h-304z" />
    <glyph glyph-name="Etatonos" unicode="&#x389;" horiz-adv-x="736" 
d="M113 672h80l-85 -112h-40zM705 672l-82 -672h-64l37 304h-352l-37 -304h-64l82 672h64l-37 -304h352l37 304h64z" />
    <glyph glyph-name="Iotatonos" unicode="&#x38a;" horiz-adv-x="320" 
d="M113 672h80l-85 -112h-40zM143 0l82 672h64l-82 -672h-64z" />
    <glyph glyph-name="Omicrontonos" unicode="&#x38c;" horiz-adv-x="832" 
d="M646 640q70 -40 109.5 -109t39.5 -153q0 -21 -3 -42q-11 -93 -67 -172t-141 -125.5t-178 -46.5q-86 0 -156 40t-109.5 109t-39.5 153q0 21 3 42q11 93 67 172t141 125.5t178 46.5q86 0 156 -40zM113 672h80l-85 -112h-40zM559.5 93.5q68.5 37.5 114 101.5t54.5 141
q2 24 2 35q0 69 -32 125t-88.5 88t-127.5 32q-77 0 -145.5 -37.5t-114 -101.5t-54.5 -141q-2 -24 -2 -35q0 -69 32 -125t88.5 -88t127.5 -32q77 0 145.5 37.5z" />
    <glyph glyph-name="Upsilontonos" unicode="&#x38e;" horiz-adv-x="736" 
d="M113 672h80l-85 -112h-40zM769 672l-285 -368l-37 -304h-64l37 304l-195 368h72l162 -308l238 308h72z" />
    <glyph glyph-name="Omegatonos" unicode="&#x38f;" horiz-adv-x="784" 
d="M654.5 212q-68.5 -80 -172.5 -148h213l-8 -64h-272l12 96q96 60 164 128t79 160q2 24 2 35q0 92 -59 144.5t-155 52.5q-69 0 -126.5 -28t-95 -80.5t-46.5 -123.5q-2 -18 -2 -28q0 -82 50.5 -144.5t124.5 -115.5l-12 -96h-272l8 64h213q-175 135 -175 291q0 25 2 37
q9 72 52 138t116.5 108t170.5 42q89 0 150 -35.5t91 -93.5t30 -124q0 -11 -2 -35q-12 -100 -80.5 -180zM113 672h80l-85 -112h-40z" />
    <glyph glyph-name="iotadieresistonos" unicode="&#x390;" horiz-adv-x="240" 
d="M151 656h80l-85 -112h-40zM-14.5 558q-12.5 14 -10.5 34q3 20 18.5 34t35.5 14t32.5 -14t9.5 -34q-2 -20 -17.5 -34t-35.5 -14t-32.5 14zM241.5 558q-12.5 14 -10.5 34q3 20 18.5 34t35.5 14t32.5 -14t9.5 -34q-2 -20 -17.5 -34t-35.5 -14t-32.5 14zM110 125
q-2 -24 -2 -30q0 -19 6.5 -27.5t21.5 -8.5q9 0 31 5l-8 -64q-11 -3 -23 -5.5t-25 -2.5q-36 0 -52.5 20t-16.5 63q0 18 3 42l45 363h64z" />
    <glyph glyph-name="Alpha" unicode="&#x391;" horiz-adv-x="656" 
d="M486 144h-364l-83 -144h-72l404 688l236 -688h-72zM465 208l-111 336l-195 -336h306z" />
    <glyph glyph-name="Beta" unicode="&#x392;" horiz-adv-x="560" 
d="M480 311.5q25 -40.5 25 -89.5q0 -14 -1 -20q-8 -58 -39.5 -104t-83.5 -72t-118 -26h-232l82 672h177q103 0 161 -39t58 -113q0 -50 -29.5 -97.5t-68.5 -61.5q44 -9 69 -49.5zM142 384h136q151 0 166 112q1 6 1 17q0 95 -140 95h-136zM389.5 101q49.5 37 49.5 110
q0 54 -40.5 81.5t-112.5 27.5h-152l-31 -256h152q85 0 134.5 37z" />
    <glyph glyph-name="Gamma" unicode="&#x393;" horiz-adv-x="480" 
d="M169 608l-74 -608h-64l82 672h368l-8 -64h-304z" />
    <glyph glyph-name="uni0394" unicode="&#x394;" horiz-adv-x="656" 
d="M607 0h-640l404 688zM514 64l-160 480l-278 -480h438z" />
    <glyph glyph-name="Epsilon" unicode="&#x395;" 
d="M169 608l-29 -240h256l-8 -64h-256l-29 -240h304l-8 -64h-368l82 672h368l-8 -64h-304z" />
    <glyph glyph-name="Zeta" unicode="&#x396;" horiz-adv-x="560" 
d="M-1 0l444 608h-354l8 64h464l-444 -608h354l-8 -64h-464z" />
    <glyph glyph-name="Eta" unicode="&#x397;" horiz-adv-x="624" 
d="M593 672l-82 -672h-64l37 304h-352l-37 -304h-64l82 672h64l-37 -304h352l37 304h64z" />
    <glyph glyph-name="Theta" unicode="&#x398;" horiz-adv-x="768" 
d="M582 640q70 -40 109.5 -109t39.5 -153q0 -21 -3 -42q-11 -93 -67 -172t-141 -125.5t-178 -46.5q-86 0 -156 40t-109.5 109t-39.5 153q0 21 3 42q11 93 67 172t141 125.5t178 46.5q86 0 156 -40zM495.5 93.5q68.5 37.5 114 101.5t54.5 141q2 24 2 35q0 69 -32 125
t-88.5 88t-127.5 32q-77 0 -145.5 -37.5t-114 -101.5t-54.5 -141q-2 -24 -2 -35q0 -69 32 -125t88.5 -88t127.5 -32q77 0 145.5 37.5zM154 356h464l-4 -40h-464z" />
    <glyph glyph-name="Iota" unicode="&#x399;" horiz-adv-x="208" 
d="M31 0l82 672h64l-82 -672h-64z" />
    <glyph glyph-name="Kappa" unicode="&#x39a;" horiz-adv-x="528" 
d="M463 0h-88l-243 304l-37 -304h-64l82 672h64l-37 -304l301 304h88l-337 -333z" />
    <glyph glyph-name="Lambda" unicode="&#x39b;" horiz-adv-x="656" 
d="M354 544l-315 -544h-72l404 688l236 -688h-72z" />
    <glyph glyph-name="Mu" unicode="&#x39c;" horiz-adv-x="832" 
d="M199 478l-134 -478h-66l198 688l193 -564l331 564l30 -688h-66l-18 478l-294 -494z" />
    <glyph glyph-name="Nu" unicode="&#x39d;" horiz-adv-x="672" 
d="M159 520l-64 -520h-64l84 688l398 -536l64 520h64l-84 -688z" />
    <glyph glyph-name="Xi" unicode="&#x39e;" horiz-adv-x="560" 
d="M97 672h448l-8 -64h-448zM108 368h352l-8 -64h-352zM23 64h448l-8 -64h-448z" />
    <glyph glyph-name="Omicron" unicode="&#x39f;" horiz-adv-x="768" 
d="M582 640q70 -40 109.5 -109t39.5 -153q0 -21 -3 -42q-11 -93 -67 -172t-141 -125.5t-178 -46.5q-86 0 -156 40t-109.5 109t-39.5 153q0 21 3 42q11 93 67 172t141 125.5t178 46.5q86 0 156 -40zM495.5 93.5q68.5 37.5 114 101.5t54.5 141q2 24 2 35q0 69 -32 125
t-88.5 88t-127.5 32q-77 0 -145.5 -37.5t-114 -101.5t-54.5 -141q-2 -24 -2 -35q0 -69 32 -125t88.5 -88t127.5 -32q77 0 145.5 37.5z" />
    <glyph glyph-name="Pi" unicode="&#x3a0;" horiz-adv-x="624" 
d="M511 0h-64l74 608h-352l-74 -608h-64l82 672h480z" />
    <glyph glyph-name="Rho" unicode="&#x3a1;" horiz-adv-x="560" 
d="M479 625.5q58 -46.5 58 -130.5q0 -10 -2 -34q-8 -63 -40.5 -113.5t-87 -79t-123.5 -28.5h-160l-29 -240h-64l82 672h192q116 0 174 -46.5zM412 340.5q49 36.5 59 114.5q2 18 2 25q0 64 -42 96t-107 32h-155l-37 -304h160q71 0 120 36.5z" />
    <glyph glyph-name="Sigma" unicode="&#x3a3;" horiz-adv-x="560" 
d="M366 336l-237 -272h326l-8 -64h-448l291 336l-209 336h448l-8 -64h-326z" />
    <glyph glyph-name="Tau" unicode="&#x3a4;" 
d="M497 672l-8 -64h-176l-74 -608h-64l74 608h-176l8 64h416z" />
    <glyph glyph-name="Upsilon" unicode="&#x3a5;" horiz-adv-x="560" 
d="M593 672l-285 -368l-37 -304h-64l37 304l-195 368h72l162 -308l238 308h72z" />
    <glyph glyph-name="Phi" unicode="&#x3a6;" horiz-adv-x="688" 
d="M592.5 202q-47.5 -64 -114 -99t-135.5 -39l-8 -64h-64l8 64q-62 4 -117 34t-88.5 85t-33.5 129q0 26 2 40q11 88 58.5 151.5t114 98t134.5 38.5l8 64h64l-8 -64q61 -4 116 -33.5t89.5 -84t34.5 -129.5q0 -20 -3 -41q-10 -86 -57.5 -150zM342 578q-48 -2 -98.5 -25.5
t-89.5 -73.5t-48 -127q-2 -13 -2 -36q0 -64 28 -106t69.5 -62t84.5 -22zM448.5 151.5q50.5 23.5 89.5 73.5t48 127q2 13 2 36q0 64 -28 106t-69.5 62t-84.5 22l-56 -452q48 2 98.5 25.5z" />
    <glyph glyph-name="Chi" unicode="&#x3a7;" horiz-adv-x="624" 
d="M476 0l-169 292l-241 -292h-83l290 347l-192 325h82l157 -272l223 272h82l-272 -325l206 -347h-83z" />
    <glyph glyph-name="Psi" unicode="&#x3a8;" horiz-adv-x="720" 
d="M689 672l-29 -238q-18 -146 -93 -209t-198 -73l-18 -152h-64l18 152q-107 9 -166 59t-59 163q0 31 4 60l29 238h64l-30 -244q-3 -24 -3 -46q0 -85 44.5 -124t124.5 -42l56 456h64l-56 -456q91 3 148 52.5t70 159.5l30 244h64z" />
    <glyph glyph-name="uni03A9" unicode="&#x3a9;" horiz-adv-x="720" 
d="M590.5 212q-68.5 -80 -172.5 -148h213l-8 -64h-272l12 96q96 60 164 128t79 160q2 24 2 35q0 92 -59 144.5t-155 52.5q-69 0 -126.5 -28t-95 -80.5t-46.5 -123.5q-2 -18 -2 -28q0 -82 50.5 -144.5t124.5 -115.5l-12 -96h-272l8 64h213q-175 135 -175 291q0 25 2 37
q9 72 52 138t116.5 108t170.5 42q89 0 150 -35.5t91 -93.5t30 -124q0 -11 -2 -35q-12 -100 -80.5 -180z" />
    <glyph glyph-name="Iotadieresis" unicode="&#x3aa;" horiz-adv-x="208" 
d="M42.5 748q-11.5 12 -11.5 30q0 22 16 38t38 16q19 0 30.5 -12t11.5 -30q0 -22 -16 -38t-38 -16q-19 0 -30.5 12zM202.5 748q-11.5 12 -11.5 30q0 22 16 38t38 16q19 0 30.5 -12t11.5 -30q0 -22 -16 -38t-38 -16q-19 0 -30.5 12zM31 0l82 672h64l-82 -672h-64z" />
    <glyph glyph-name="Upsilondieresis" unicode="&#x3ab;" horiz-adv-x="560" 
d="M218.5 748q-11.5 12 -11.5 30q0 22 16 38t38 16q19 0 30.5 -12t11.5 -30q0 -22 -16 -38t-38 -16q-19 0 -30.5 12zM378.5 748q-11.5 12 -11.5 30q0 22 16 38t38 16q19 0 30.5 -12t11.5 -30q0 -22 -16 -38t-38 -16q-19 0 -30.5 12zM593 672l-285 -368l-37 -304h-64l37 304
l-195 368h72l162 -308l238 308h72z" />
    <glyph glyph-name="alphatonos" unicode="&#x3ac;" horiz-adv-x="640" 
d="M359 656h80l-85 -112h-40zM508 97q0 -20 7 -29t22 -9q10 0 30 5l-8 -64q-24 -8 -48 -8q-34 0 -53 24.5t-17 68.5q-37 -43 -87.5 -68t-107.5 -25q-62 0 -112.5 28.5t-79 78.5t-28.5 110q0 11 2 31q8 67 48.5 124t102 90.5t128.5 33.5q57 0 101.5 -25t70.5 -68l11 85h64
l-44 -355q-2 -22 -2 -28zM356 84.5q48 28.5 77 76.5t29 103q0 45 -21 81.5t-58.5 57.5t-83.5 21q-54 0 -102 -28t-77 -75.5t-29 -102.5q0 -46 21 -83t58 -58t84 -21q54 0 102 28.5z" />
    <glyph glyph-name="epsilontonos" unicode="&#x3ad;" horiz-adv-x="464" 
d="M271 656h80l-85 -112h-40zM295 69q40 13 69 36l25 -52q-77 -61 -186 -61q-77 0 -124.5 31.5t-47.5 95.5q0 14 1 21q4 35 29 64.5t63 43.5q-29 12 -44.5 35.5t-15.5 51.5q0 9 1 13q9 68 63.5 104t132.5 36q52 0 96 -16t74 -46l-38 -52q-29 25 -57.5 37.5t-79.5 12.5
q-57 0 -91.5 -23t-34.5 -56q0 -36 40.5 -56.5t117.5 -20.5l-7 -56q-179 0 -187 -81v-8q0 -34 33 -50.5t82 -16.5q46 0 86 13z" />
    <glyph glyph-name="etatonos" unicode="&#x3ae;" horiz-adv-x="544" 
d="M287 656h80l-85 -112h-40zM423 -212q0 -28 8 -44h-64q-8 16 -8 44q0 20 4 52l55 444q2 20 2 30q0 110 -113 110q-38 0 -77.5 -17.5t-67.5 -50.5t-33 -76l-34 -280h-64l59 480h64l-9 -74q24 32 72 57t96 25q88 0 129 -42t41 -126q0 -23 -3 -52l-53 -428q-4 -32 -4 -52z
" />
    <glyph glyph-name="iotatonos" unicode="&#x3af;" horiz-adv-x="240" 
d="M151 656h80l-85 -112h-40zM110 125q-2 -24 -2 -30q0 -19 6.5 -27.5t21.5 -8.5q9 0 31 5l-8 -64q-11 -3 -23 -5.5t-25 -2.5q-36 0 -52.5 20t-16.5 63q0 18 3 42l45 363h64z" />
    <glyph glyph-name="upsilondieresistonos" unicode="&#x3b0;" horiz-adv-x="512" 
d="M263 656h80l-85 -112h-40zM97.5 558q-12.5 14 -10.5 34q3 20 18.5 34t35.5 14t32.5 -14t9.5 -34q-2 -20 -17.5 -34t-35.5 -14t-32.5 14zM353.5 558q-12.5 14 -10.5 34q3 20 18.5 34t35.5 14t32.5 -14t9.5 -34q-2 -20 -17.5 -34t-35.5 -14t-32.5 14zM449 308q0 -27 -3 -56
q-10 -78 -43 -137t-84 -91t-113 -32q-78 0 -123 43.5t-45 132.5q0 23 3 48l33 264h64l-34 -274q-2 -12 -2 -34q0 -58 28.5 -87t82.5 -29q70 0 114 54.5t53 131.5q5 42 5 70q0 41 -5.5 77t-17.5 91h64q23 -102 23 -172z" />
    <glyph glyph-name="alpha" unicode="&#x3b1;" horiz-adv-x="640" 
d="M508 97q0 -20 7 -29t22 -9q10 0 30 5l-8 -64q-24 -8 -48 -8q-34 0 -53 24.5t-17 68.5q-37 -43 -87.5 -68t-107.5 -25q-62 0 -112.5 28.5t-79 78.5t-28.5 110q0 11 2 31q8 67 48.5 124t102 90.5t128.5 33.5q57 0 101.5 -25t70.5 -68l11 85h64l-44 -355q-2 -22 -2 -28z
M356 84.5q48 28.5 77 76.5t29 103q0 45 -21 81.5t-58.5 57.5t-83.5 21q-54 0 -102 -28t-77 -75.5t-29 -102.5q0 -46 21 -83t58 -58t84 -21q54 0 102 28.5z" />
    <glyph glyph-name="beta" unicode="&#x3b2;" horiz-adv-x="528" 
d="M444 329q30 -43 30 -100q0 -9 -2 -25q-7 -57 -38.5 -105t-88.5 -77.5t-138 -29.5q-36 0 -68.5 9.5t-56.5 22.5l-35 -280h-64l92 744q17 140 90.5 182t132.5 42q53 0 91 -21.5t57 -57.5t19 -79q0 -66 -33 -109t-72 -61q54 -12 84 -55zM222 57q72 0 124.5 39t61.5 108
q1 6 1 17q0 33 -16 59t-50 40q-23 10 -55 13t-80 3h-56l8 64q63 0 99.5 5t61.5 17q35 17 57.5 48.5t22.5 77.5q0 47 -29 73.5t-83 26.5q-64 0 -102 -39t-46 -105l-51 -412q61 -35 132 -35z" />
    <glyph glyph-name="gamma" unicode="&#x3b3;" 
d="M247 71l-40 -327h-64l40 327l-157 409h72l126 -336l210 336h72z" />
    <glyph glyph-name="delta" unicode="&#x3b4;" horiz-adv-x="576" 
d="M503.5 369.5q22.5 -45.5 22.5 -98.5q0 -11 -2 -31q-8 -67 -48.5 -124t-101.5 -90.5t-128 -33.5q-62 0 -112.5 28.5t-79 78.5t-28.5 110q0 11 2 31q10 83 67.5 148.5t137.5 88.5q-34 17 -50 42.5t-16 54.5q0 35 20.5 68.5t63.5 55.5t107 22q65 0 125 -32l-27 -60
q-57 29 -114 29q-30 0 -54 -9q-26 -10 -41 -28t-15 -38q0 -17 11 -32.5t33 -27.5q19 -9 52 -21q39 -15 65 -27t48 -29q40 -30 62.5 -75.5zM354.5 84.5q47.5 28.5 77 76t29.5 100.5q0 45 -21 82.5t-58 59t-83 21.5q-53 0 -101 -28.5t-77.5 -76t-29.5 -100.5q0 -45 21.5 -82.5
t58.5 -59t83 -21.5q53 0 100.5 28.5z" />
    <glyph glyph-name="epsilon" unicode="&#x3b5;" horiz-adv-x="464" 
d="M295 69q40 13 69 36l25 -52q-77 -61 -186 -61q-77 0 -124.5 31.5t-47.5 95.5q0 14 1 21q4 35 29 64.5t63 43.5q-29 12 -44.5 35.5t-15.5 51.5q0 9 1 13q9 68 63.5 104t132.5 36q52 0 96 -16t74 -46l-38 -52q-29 25 -57.5 37.5t-79.5 12.5q-57 0 -91.5 -23t-34.5 -56
q0 -36 40.5 -56.5t117.5 -20.5l-7 -56q-179 0 -187 -81v-8q0 -34 33 -50.5t82 -16.5q46 0 86 13z" />
    <glyph glyph-name="zeta" unicode="&#x3b6;" horiz-adv-x="480" 
d="M303 483.5q-83 -74.5 -138 -152t-62 -135.5q-2 -22 -2 -31q0 -51 25 -73.5t58 -27.5t105 -8q59 -3 91 -18t32 -54q0 -25 -6 -42t-19 -38h-64q16 31 16 51q0 37 -59 37q-83 0 -135.5 13t-81 47.5t-28.5 97.5q0 20 3 42q12 96 107.5 209.5t226.5 206.5h-235l8 64h336
l-8 -64q-87 -50 -170 -124.5z" />
    <glyph glyph-name="eta" unicode="&#x3b7;" horiz-adv-x="544" 
d="M423 -212q0 -28 8 -44h-64q-8 16 -8 44q0 20 4 52l55 444q2 20 2 30q0 110 -113 110q-38 0 -77.5 -17.5t-67.5 -50.5t-33 -76l-34 -280h-64l59 480h64l-9 -74q24 32 72 57t96 25q88 0 129 -42t41 -126q0 -23 -3 -52l-53 -428q-4 -32 -4 -52z" />
    <glyph glyph-name="theta" unicode="&#x3b8;" horiz-adv-x="560" 
d="M460.5 608.5q48.5 -71.5 48.5 -191.5q0 -46 -5 -81q-13 -101 -49 -178.5t-92 -121.5t-125 -44q-90 0 -138.5 71t-48.5 191q0 46 5 82q13 101 48.5 178.5t91.5 121.5t126 44q90 0 138.5 -71.5zM228.5 583.5q-39.5 -32.5 -67 -91.5t-39.5 -136h320q2 17 2 50
q0 96 -34.5 153t-95.5 57q-46 0 -85.5 -32.5zM331.5 88.5q39.5 32.5 67 91.5t39.5 136h-320q-2 -17 -2 -50q0 -96 34.5 -153t95.5 -57q46 0 85.5 32.5z" />
    <glyph glyph-name="iota" unicode="&#x3b9;" horiz-adv-x="240" 
d="M110 125q-2 -24 -2 -30q0 -19 6.5 -27.5t21.5 -8.5q9 0 31 5l-8 -64q-11 -3 -23 -5.5t-25 -2.5q-36 0 -52.5 20t-16.5 63q0 18 3 42l45 363h64z" />
    <glyph glyph-name="kappa" unicode="&#x3ba;" horiz-adv-x="480" 
d="M431 0h-88l-221 222l-27 -222h-64l59 480h64l-26 -210l258 210h88l-285 -232z" />
    <glyph glyph-name="lambda" unicode="&#x3bb;" horiz-adv-x="560" 
d="M411 75q15 -17 39 -17q9 0 37 6l-8 -64q-28 -8 -49 -8q-40 0 -62.5 18.5t-35 51t-29.5 100.5l-6 23l-44 176l-181 -361h-73l232 447l-33 122q-13 46 -29 66t-40 20q-17 0 -35 -7l8 64q22 8 44 8q39 0 63.5 -24t38 -60t30.5 -100q5 -21 7 -28l100 -374q11 -42 26 -59z" />
    <glyph glyph-name="uni03BC" unicode="&#x3bc;" horiz-adv-x="560" 
d="M455 44q0 -28 8 -44h-64q-9 18 -9 44q0 9 2 29q-24 -32 -72.5 -56.5t-95.5 -24.5q-83 0 -126 38l-35 -286h-64l91 736h64l-35 -284q-2 -22 -2 -31q0 -50 26.5 -79.5t86.5 -29.5q38 0 77 17.5t67 50.5t33 76l35 280h64l-47 -384q-4 -32 -4 -52z" />
    <glyph glyph-name="nu" unicode="&#x3bd;" horiz-adv-x="480" 
d="M26 480h72l116 -352l204 352h72l-293 -496z" />
    <glyph glyph-name="xi" unicode="&#x3be;" 
d="M99 155q0 -51 36.5 -72t101.5 -27l31 -2q45 -1 77.5 -6t57 -22.5t24.5 -52.5q0 -19 -7 -38t-17 -31h-64q16 32 16 50q0 20 -21.5 29t-72.5 9q-117 0 -172 38t-55 113q0 10 2 30q7 57 48.5 101.5t102.5 73.5q-94 51 -94 143q0 9 2 29q8 59 41 104.5t85 70.5t114 25
q47 0 84.5 -18.5t59.5 -45.5l-33 -56q-46 56 -119 56q-75 0 -118 -36.5t-50 -97.5q-1 -6 -1 -16q0 -61 57.5 -97.5t164.5 -36.5l-6 -56q-77 0 -137.5 -18t-96 -50.5t-40.5 -74.5q-1 -6 -1 -18z" />
    <glyph glyph-name="omicron" unicode="&#x3bf;" horiz-adv-x="576" 
d="M419 459.5q50 -28.5 78.5 -78.5t28.5 -110q0 -11 -2 -31q-8 -67 -48.5 -124t-101.5 -90.5t-128 -33.5q-62 0 -112.5 28.5t-79 78.5t-28.5 110q0 11 2 31q8 67 48.5 124t102 90.5t128.5 33.5q62 0 112 -28.5zM354.5 84.5q47.5 28.5 77 76t29.5 100.5q0 45 -21 82.5t-58 59
t-83 21.5q-53 0 -101 -28.5t-77.5 -76t-29.5 -100.5q0 -45 21.5 -82.5t58.5 -59t83 -21.5q53 0 100.5 28.5z" />
    <glyph glyph-name="pi" unicode="&#x3c0;" horiz-adv-x="576" 
d="M450 416l-36 -291q-2 -24 -2 -30q0 -19 6.5 -27.5t21.5 -8.5q9 0 31 5l-8 -64q-11 -3 -23 -5.5t-25 -2.5q-36 0 -52.5 20t-16.5 63q0 18 3 42l37 299h-208l-51 -416h-64l51 416h-64l8 64h480l-8 -64h-80z" />
    <glyph glyph-name="rho" unicode="&#x3c1;" horiz-adv-x="608" 
d="M451 459.5q50 -28.5 78.5 -78.5t28.5 -110q0 -11 -2 -31q-8 -67 -48.5 -124t-101.5 -90.5t-128 -33.5q-55 0 -100.5 24.5t-72.5 69.5l-42 -342h-64l61 496q8 67 48.5 124t102 90.5t128.5 33.5q62 0 112 -28.5zM386.5 84.5q47.5 28.5 77 76t29.5 100.5q0 45 -21 82.5
t-58 59t-83 21.5q-53 0 -101 -28.5t-77.5 -76t-29.5 -100.5q0 -45 21.5 -82.5t58.5 -59t83 -21.5q53 0 100.5 28.5z" />
    <glyph glyph-name="uni03C2" unicode="&#x3c2;" horiz-adv-x="528" 
d="M365 48q38 -5 66 -22.5t28 -52.5q0 -20 -7 -38t-17 -31h-64q15 30 15 46q0 22 -29 32t-100 10q-73 0 -125 28t-79 76t-27 109q0 11 2 35q9 69 47 125.5t101 89.5t142 33q95 0 151 -50l-36 -58q-44 44 -124 44q-63 0 -113 -28.5t-78 -77t-28 -104.5q0 -69 45 -111.5
t129 -46.5q63 -3 101 -8z" />
    <glyph glyph-name="sigma" unicode="&#x3c3;" horiz-adv-x="608" 
d="M578 416h-128q33 -22 54 -64.5t21 -90.5q0 -17 -1 -25q-8 -66 -48.5 -122t-101.5 -89t-128 -33q-62 0 -112.5 28t-79 77t-28.5 109q0 10 2 30q8 66 48 122t101.5 89t128.5 33h280zM439.5 337q-21.5 36 -58.5 57.5t-83 21.5q-53 0 -101 -28t-77 -74t-29 -99
q0 -44 21.5 -80t58.5 -57.5t83 -21.5q53 0 101 28t77 74t29 99q0 44 -21.5 80z" />
    <glyph glyph-name="tau" unicode="&#x3c4;" horiz-adv-x="432" 
d="M258 416l-36 -291q-2 -24 -2 -30q0 -19 6.5 -27.5t21.5 -8.5q9 0 31 5l-8 -64q-11 -3 -23 -5.5t-25 -2.5q-36 0 -52.5 20t-16.5 63q0 18 3 42l37 299h-144l8 64h352l-8 -64h-144z" />
    <glyph glyph-name="upsilon" unicode="&#x3c5;" horiz-adv-x="512" 
d="M449 308q0 -27 -3 -56q-10 -78 -43 -137t-84 -91t-113 -32q-78 0 -123 43.5t-45 132.5q0 23 3 48l33 264h64l-34 -274q-2 -12 -2 -34q0 -58 28.5 -87t82.5 -29q70 0 114 54.5t53 131.5q5 42 5 70q0 41 -5.5 77t-17.5 91h64q23 -102 23 -172z" />
    <glyph glyph-name="phi" unicode="&#x3c6;" horiz-adv-x="624" 
d="M518.5 440.5q57.5 -60.5 57.5 -153.5q0 -11 -2 -35q-9 -71 -46.5 -127t-96.5 -90.5t-129 -42.5l-31 -248h-64l31 248q-95 11 -152.5 71t-57.5 153q0 24 2 36q8 71 46 127t96.5 90.5t129.5 42.5l23 192h64l-23 -192q95 -11 152.5 -71.5zM294 450q-79 -10 -134.5 -61.5
t-65.5 -136.5q-2 -22 -2 -31q0 -71 42.5 -114.5t110.5 -52.5zM512 281q0 72 -42.5 116t-111.5 53l-49 -396q79 10 134.5 61.5t66.5 136.5q2 20 2 29z" />
    <glyph glyph-name="chi" unicode="&#x3c7;" 
d="M431 0h-78l-121 203l-171 -203h-78l216 255l-142 225h78l109 -180l153 180h78l-198 -225z" />
    <glyph glyph-name="psi" unicode="&#x3c8;" horiz-adv-x="656" 
d="M618 480l-28 -226q-15 -125 -84 -187.5t-188 -74.5l-31 -248h-64l31 248q-103 11 -157 61.5t-54 149.5q0 24 3 51l28 226h64l-31 -246q-2 -20 -2 -29q0 -76 47.5 -109t109.5 -40l52 424h64l-52 -424q71 8 128.5 47t68.5 131l31 246h64z" />
    <glyph glyph-name="omega" unicode="&#x3c9;" horiz-adv-x="688" 
d="M612 390.5q10 -52.5 10 -106.5q0 -29 -3 -56q-15 -122 -69 -179t-128 -57q-78 0 -113 61q-50 -61 -127 -61q-64 0 -103.5 43t-39.5 134q0 31 4 59q7 64 34.5 134.5t61.5 117.5h60q-75 -114 -93 -258q-3 -24 -3 -44q0 -58 22.5 -90t64.5 -32q33 0 63.5 27t37.5 83l31 250
h64l-31 -250q-1 -7 -1 -21q0 -46 23.5 -67.5t52.5 -21.5q50 0 82 44t42 122q5 42 5 74q0 98 -34 184h60q17 -37 27 -89.5z" />
    <glyph glyph-name="iotadieresis" unicode="&#x3ca;" horiz-adv-x="240" 
d="M17.5 558q-12.5 14 -10.5 34q3 20 18.5 34t35.5 14t32.5 -14t9.5 -34q-2 -20 -17.5 -34t-35.5 -14t-32.5 14zM177.5 558q-12.5 14 -10.5 34q3 20 18.5 34t35.5 14t32.5 -14t9.5 -34q-2 -20 -17.5 -34t-35.5 -14t-32.5 14zM110 125q-2 -24 -2 -30q0 -19 6.5 -27.5
t21.5 -8.5q9 0 31 5l-8 -64q-11 -3 -23 -5.5t-25 -2.5q-36 0 -52.5 20t-16.5 63q0 18 3 42l45 363h64z" />
    <glyph glyph-name="upsilondieresis" unicode="&#x3cb;" horiz-adv-x="512" 
d="M145.5 558q-12.5 14 -10.5 34q3 20 18.5 34t35.5 14t32.5 -14t9.5 -34q-2 -20 -17.5 -34t-35.5 -14t-32.5 14zM305.5 558q-12.5 14 -10.5 34q3 20 18.5 34t35.5 14t32.5 -14t9.5 -34q-2 -20 -17.5 -34t-35.5 -14t-32.5 14zM449 308q0 -27 -3 -56q-10 -78 -43 -137
t-84 -91t-113 -32q-78 0 -123 43.5t-45 132.5q0 23 3 48l33 264h64l-34 -274q-2 -12 -2 -34q0 -58 28.5 -87t82.5 -29q70 0 114 54.5t53 131.5q5 42 5 70q0 41 -5.5 77t-17.5 91h64q23 -102 23 -172z" />
    <glyph glyph-name="omicrontonos" unicode="&#x3cc;" horiz-adv-x="576" 
d="M327 656h80l-85 -112h-40zM419 459.5q50 -28.5 78.5 -78.5t28.5 -110q0 -11 -2 -31q-8 -67 -48.5 -124t-101.5 -90.5t-128 -33.5q-62 0 -112.5 28.5t-79 78.5t-28.5 110q0 11 2 31q8 67 48.5 124t102 90.5t128.5 33.5q62 0 112 -28.5zM354.5 84.5q47.5 28.5 77 76
t29.5 100.5q0 45 -21 82.5t-58 59t-83 21.5q-53 0 -101 -28.5t-77.5 -76t-29.5 -100.5q0 -45 21.5 -82.5t58.5 -59t83 -21.5q53 0 100.5 28.5z" />
    <glyph glyph-name="upsilontonos" unicode="&#x3cd;" horiz-adv-x="512" 
d="M263 656h80l-85 -112h-40zM449 308q0 -27 -3 -56q-10 -78 -43 -137t-84 -91t-113 -32q-78 0 -123 43.5t-45 132.5q0 23 3 48l33 264h64l-34 -274q-2 -12 -2 -34q0 -58 28.5 -87t82.5 -29q70 0 114 54.5t53 131.5q5 42 5 70q0 41 -5.5 77t-17.5 91h64q23 -102 23 -172z
" />
    <glyph glyph-name="omegatonos" unicode="&#x3ce;" horiz-adv-x="688" 
d="M383 656h80l-85 -112h-40zM612 390.5q10 -52.5 10 -106.5q0 -29 -3 -56q-15 -122 -69 -179t-128 -57q-78 0 -113 61q-50 -61 -127 -61q-64 0 -103.5 43t-39.5 134q0 31 4 59q7 64 34.5 134.5t61.5 117.5h60q-75 -114 -93 -258q-3 -24 -3 -44q0 -58 22.5 -90t64.5 -32
q33 0 63.5 27t37.5 83l31 250h64l-31 -250q-1 -7 -1 -21q0 -46 23.5 -67.5t52.5 -21.5q50 0 82 44t42 122q5 42 5 74q0 98 -34 184h60q17 -37 27 -89.5z" />
    <glyph glyph-name="uni0401" unicode="&#x401;" 
d="M186.5 748q-11.5 12 -11.5 30q0 22 16 38t38 16q19 0 30.5 -12t11.5 -30q0 -22 -16 -38t-38 -16q-19 0 -30.5 12zM346.5 748q-11.5 12 -11.5 30q0 22 16 38t38 16q19 0 30.5 -12t11.5 -30q0 -22 -16 -38t-38 -16q-19 0 -30.5 12zM169 608l-29 -240h256l-8 -64h-256
l-29 -240h304l-8 -64h-368l82 672h368l-8 -64h-304z" />
    <glyph glyph-name="uni0402" unicode="&#x402;" horiz-adv-x="656" 
d="M543.5 364.5q42.5 -35.5 42.5 -115.5q0 -22 -3 -49l-8 -66q-11 -93 -39 -142t-60 -65.5t-73 -22.5l-9 58q53 11 79.5 47.5t36.5 114.5l9 76q2 24 2 33q0 60 -32.5 81.5t-96.5 21.5q-43 0 -91.5 -13t-73.5 -27l-36 -296h-64l74 608h-128l8 64h384l-8 -64h-192l-30 -248
q30 15 82.5 27.5t90.5 12.5q93 0 135.5 -35.5z" />
    <glyph glyph-name="uni0403" unicode="&#x403;" horiz-adv-x="480" 
d="M313 864h80l-128 -128h-48zM169 608l-74 -608h-64l82 672h368l-8 -64h-304z" />
    <glyph glyph-name="uni0404" unicode="&#x404;" horiz-adv-x="640" 
d="M549 129l18 -58q-45 -37 -105 -58t-116 -21q-88 0 -158.5 40t-110.5 109t-40 154q0 20 3 41q11 93 67.5 172t142.5 125.5t180 46.5q56 0 111.5 -21t91.5 -58l-34 -58q-70 73 -181 73q-72 0 -137 -33t-111 -91t-62 -128h335l-6 -56h-335q-2 -70 29.5 -127.5t89 -91
t129.5 -33.5q112 0 199 73z" />
    <glyph glyph-name="uni0405" unicode="&#x405;" horiz-adv-x="560" 
d="M455.5 319q47.5 -38 47.5 -106q0 -10 -2 -32q-6 -50 -42 -93.5t-93.5 -69.5t-125.5 -26t-117.5 21.5t-75.5 46t-36 41.5l39 57q29 -45 80 -73.5t120 -28.5q46 0 88 17t68.5 47t30.5 65q1 6 1 17q0 42 -35 70t-118 44q-113 21 -158 59t-45 98q0 8 2 28q6 50 38.5 90.5
t86.5 64.5t121 24q42 0 95 -15.5t95 -64.5l-36 -55q-24 30 -66.5 50.5t-96.5 20.5q-73 0 -123 -34t-50 -93q0 -43 36 -68t115 -41q109 -23 156.5 -61z" />
    <glyph glyph-name="uni0406" unicode="&#x406;" horiz-adv-x="208" 
d="M31 0l82 672h64l-82 -672h-64z" />
    <glyph glyph-name="uni0407" unicode="&#x407;" horiz-adv-x="208" 
d="M42.5 748q-11.5 12 -11.5 30q0 22 16 38t38 16q19 0 30.5 -12t11.5 -30q0 -22 -16 -38t-38 -16q-19 0 -30.5 12zM202.5 748q-11.5 12 -11.5 30q0 22 16 38t38 16q19 0 30.5 -12t11.5 -30q0 -22 -16 -38t-38 -16q-19 0 -30.5 12zM31 0l82 672h64l-82 -672h-64z" />
    <glyph glyph-name="uni0408" unicode="&#x408;" horiz-adv-x="448" 
d="M433 672l-51 -416q-16 -134 -78 -199t-162 -65q-42 0 -81 19t-56 43l47 52q11 -22 37.5 -36t60.5 -14q76 0 115.5 49t51.5 143l52 424h64z" />
    <glyph glyph-name="uni0409" unicode="&#x409;" horiz-adv-x="1008" 
d="M895.5 328q55.5 -40 55.5 -115q0 -100 -71 -156.5t-189 -56.5h-196l74 608h-288l-42 -344q-11 -89 -21 -134.5t-34.5 -79t-73.5 -50.5q-23 -8 -50 -8t-45 8l8 64q23 -7 43 -7q31 0 50 13q38 26 48 103l61 499h416l-37 -304h132q104 0 159.5 -40zM832.5 96
q53.5 32 53.5 107q0 55 -44.5 78t-113.5 23h-132l-29 -240h132q80 0 133.5 32z" />
    <glyph glyph-name="uni040A" unicode="&#x40a;" horiz-adv-x="960" 
d="M847.5 328q55.5 -40 55.5 -115q0 -100 -71 -156.5t-189 -56.5h-196l37 304h-352l-37 -304h-64l82 672h64l-37 -304h352l37 304h64l-37 -304h132q104 0 159.5 -40zM784.5 96q53.5 32 53.5 107q0 55 -44.5 78t-113.5 23h-132l-29 -240h132q80 0 133.5 32z" />
    <glyph glyph-name="uni040B" unicode="&#x40b;" horiz-adv-x="656" 
d="M543.5 364.5q42.5 -35.5 42.5 -115.5q0 -22 -3 -49l-24 -200h-64l24 200q2 24 2 33q0 60 -32.5 81.5t-96.5 21.5q-43 0 -91.5 -13t-73.5 -27l-36 -296h-64l74 608h-128l8 64h384l-8 -64h-192l-30 -248q30 15 82.5 27.5t90.5 12.5q93 0 135.5 -35.5z" />
    <glyph glyph-name="uni040C" unicode="&#x40c;" horiz-adv-x="528" 
d="M321 864h80l-128 -128h-48zM463 0h-88l-243 304l-37 -304h-64l82 672h64l-37 -304l301 304h88l-337 -333z" />
    <glyph glyph-name="uni040E" unicode="&#x40e;" horiz-adv-x="576" 
d="M484 860q-6 -52 -46.5 -88t-92.5 -36q-48 0 -79 31t-31 78q0 10 1 15h48q-4 -31 15.5 -53.5t51.5 -22.5q31 0 56 22t29 54h48zM609 672l-466 -672h-72l177 252l-183 420h72l155 -361l245 361h72z" />
    <glyph glyph-name="uni040F" unicode="&#x40f;" horiz-adv-x="624" 
d="M593 672l-82 -672h-208l-16 -128h-64l16 128h-208l82 672h64l-74 -608h352l74 608h64z" />
    <glyph glyph-name="uni0410" unicode="&#x410;" horiz-adv-x="656" 
d="M486 144h-364l-83 -144h-72l404 688l236 -688h-72zM465 208l-111 336l-195 -336h306z" />
    <glyph glyph-name="uni0411" unicode="&#x411;" horiz-adv-x="576" 
d="M466 366.5q56 -49.5 56 -128.5q0 -66 -33.5 -120.5t-93.5 -86t-136 -31.5h-228l82 672h400l-8 -64h-336l-23 -192h164q100 0 156 -49.5zM404 106q54 42 54 126q0 61 -43 90.5t-113 29.5h-164l-35 -288h164q83 0 137 42z" />
    <glyph glyph-name="uni0412" unicode="&#x412;" horiz-adv-x="560" 
d="M480 311.5q25 -40.5 25 -89.5q0 -14 -1 -20q-8 -58 -39.5 -104t-83.5 -72t-118 -26h-232l82 672h177q103 0 161 -39t58 -113q0 -50 -29.5 -97.5t-68.5 -61.5q44 -9 69 -49.5zM142 384h136q151 0 166 112q1 6 1 17q0 95 -140 95h-136zM389.5 101q49.5 37 49.5 110
q0 54 -40.5 81.5t-112.5 27.5h-152l-31 -256h152q85 0 134.5 37z" />
    <glyph glyph-name="uni0413" unicode="&#x413;" horiz-adv-x="480" 
d="M169 608l-74 -608h-64l82 672h368l-8 -64h-304z" />
    <glyph glyph-name="uni0414" unicode="&#x414;" horiz-adv-x="720" 
d="M631 64l-24 -192h-64l16 128h-496l-16 -128h-64l24 192q80 57 121.5 133.5t60.5 174.5t44 300h376l-74 -608h96zM471 64l66 544h-248q-18 -150 -40 -247t-56.5 -168t-90.5 -129h369z" />
    <glyph glyph-name="uni0415" unicode="&#x415;" 
d="M169 608l-29 -240h256l-8 -64h-256l-29 -240h304l-8 -64h-368l82 672h368l-8 -64h-304z" />
    <glyph glyph-name="uni0416" unicode="&#x416;" horiz-adv-x="848" 
d="M783 0h-80l-226 301l-29 -28l-33 -273h-64l33 273l-20 28l-301 -301h-80l345 346l-247 326h80l234 -312l38 312h64l-38 -312l310 312h80l-327 -326z" />
    <glyph glyph-name="uni0417" unicode="&#x417;" horiz-adv-x="544" 
d="M220 368q89 0 152.5 34t70.5 90q1 5 1 16q0 48 -38 78t-106 30q-58 0 -101 -20t-85 -55l-29 51q52 44 107.5 66t120.5 22q87 0 141.5 -44.5t54.5 -118.5q0 -9 -2 -25q-5 -43 -41.5 -87t-85.5 -59q47 -16 77 -53t30 -84q0 -11 -1 -17q-11 -93 -85 -146.5t-181 -53.5
q-136 0 -211 92l43 54q60 -82 174 -82q54 0 98.5 17.5t71 50.5t26.5 77q0 59 -55 81t-155 22z" />
    <glyph glyph-name="uni0418" unicode="&#x418;" horiz-adv-x="672" 
d="M113 672h64l-64 -520l530 536l-84 -688h-64l64 520l-530 -536z" />
    <glyph glyph-name="uni0419" unicode="&#x419;" horiz-adv-x="672" 
d="M524 860q-6 -52 -46.5 -88t-92.5 -36q-48 0 -79 31t-31 78q0 10 1 15h48q-4 -31 15.5 -53.5t51.5 -22.5q31 0 56 22t29 54h48zM113 672h64l-64 -520l530 536l-84 -688h-64l64 520l-530 -536z" />
    <glyph glyph-name="uni041A" unicode="&#x41a;" horiz-adv-x="528" 
d="M463 0h-88l-243 304l-37 -304h-64l82 672h64l-37 -304l301 304h88l-337 -333z" />
    <glyph glyph-name="uni041B" unicode="&#x41b;" horiz-adv-x="672" 
d="M559 0h-64l74 608h-288l-42 -344q-11 -89 -21 -134.5t-34.5 -79t-73.5 -50.5q-23 -8 -50 -8t-45 8l8 64q23 -7 43 -7q31 0 50 13q38 26 48 103l61 499h416z" />
    <glyph glyph-name="uni041C" unicode="&#x41c;" horiz-adv-x="832" 
d="M199 478l-134 -478h-66l198 688l193 -564l331 564l30 -688h-66l-18 478l-294 -494z" />
    <glyph glyph-name="uni041D" unicode="&#x41d;" horiz-adv-x="624" 
d="M593 672l-82 -672h-64l37 304h-352l-37 -304h-64l82 672h64l-37 -304h352l37 304h64z" />
    <glyph glyph-name="uni041E" unicode="&#x41e;" horiz-adv-x="768" 
d="M582 640q70 -40 109.5 -109t39.5 -153q0 -21 -3 -42q-11 -93 -67 -172t-141 -125.5t-178 -46.5q-86 0 -156 40t-109.5 109t-39.5 153q0 21 3 42q11 93 67 172t141 125.5t178 46.5q86 0 156 -40zM495.5 93.5q68.5 37.5 114 101.5t54.5 141q2 24 2 35q0 69 -32 125
t-88.5 88t-127.5 32q-77 0 -145.5 -37.5t-114 -101.5t-54.5 -141q-2 -24 -2 -35q0 -69 32 -125t88.5 -88t127.5 -32q77 0 145.5 37.5z" />
    <glyph glyph-name="uni041F" unicode="&#x41f;" horiz-adv-x="624" 
d="M511 0h-64l74 608h-352l-74 -608h-64l82 672h480z" />
    <glyph glyph-name="uni0420" unicode="&#x420;" horiz-adv-x="560" 
d="M479 625.5q58 -46.5 58 -130.5q0 -10 -2 -34q-8 -63 -40.5 -113.5t-87 -79t-123.5 -28.5h-160l-29 -240h-64l82 672h192q116 0 174 -46.5zM412 340.5q49 36.5 59 114.5q2 18 2 25q0 64 -42 96t-107 32h-155l-37 -304h160q71 0 120 36.5z" />
    <glyph glyph-name="uni0421" unicode="&#x421;" horiz-adv-x="640" 
d="M549 129l18 -58q-45 -37 -105 -58t-116 -21q-88 0 -158.5 40t-110.5 109t-40 154q0 20 3 41q11 93 67.5 172t142.5 125.5t180 46.5q56 0 111.5 -21t91.5 -58l-34 -58q-70 73 -181 73q-76 0 -145 -37.5t-114.5 -102t-54.5 -140.5q-2 -24 -2 -35q0 -68 32 -124t89 -88.5
t127 -32.5q112 0 199 73z" />
    <glyph glyph-name="uni0422" unicode="&#x422;" 
d="M497 672l-8 -64h-176l-74 -608h-64l74 608h-176l8 64h416z" />
    <glyph glyph-name="uni0423" unicode="&#x423;" horiz-adv-x="576" 
d="M609 672l-466 -672h-72l177 252l-183 420h72l155 -361l245 361h72z" />
    <glyph glyph-name="uni0424" unicode="&#x424;" horiz-adv-x="752" 
d="M659 204.5q-45 -65.5 -118.5 -103t-165.5 -37.5l-8 -64h-64l8 64q-84 0 -145 31.5t-93.5 87.5t-32.5 129q0 26 2 40q10 84 56 149.5t119.5 102t163.5 36.5l8 64h64l-8 -64q83 0 144.5 -31t94.5 -87t33 -129q0 -20 -3 -41q-10 -82 -55 -147.5zM374 580q-65 0 -122 -23.5
t-96.5 -74.5t-49.5 -130q-2 -13 -2 -38q0 -97 60.5 -143.5t153.5 -46.5zM561 180q75 56 89 172q2 13 2 38q0 97 -60 143.5t-154 46.5l-56 -456q104 0 179 56z" />
    <glyph glyph-name="uni0425" unicode="&#x425;" horiz-adv-x="624" 
d="M476 0l-169 292l-241 -292h-83l290 347l-192 325h82l157 -272l223 272h82l-272 -325l206 -347h-83z" />
    <glyph glyph-name="uni0426" unicode="&#x426;" horiz-adv-x="704" 
d="M615 64l-24 -192h-64l16 128h-512l82 672h64l-74 -608h352l74 608h64l-74 -608h96z" />
    <glyph glyph-name="uni0427" unicode="&#x427;" horiz-adv-x="592" 
d="M122 293q-52 45 -52 136q0 21 3 43l24 200h64l-23 -192q-3 -22 -3 -43q0 -64 33.5 -94.5t108.5 -30.5q38 0 78 8t67.5 16.5t34.5 11.5l40 324h64l-82 -672h-64l35 284q-44 -14 -96 -25t-93 -11q-87 0 -139 45z" />
    <glyph glyph-name="uni0428" unicode="&#x428;" horiz-adv-x="880" 
d="M849 672l-82 -672h-736l82 672h64l-74 -608h272l74 608h64l-74 -608h272l74 608h64z" />
    <glyph glyph-name="uni0429" unicode="&#x429;" horiz-adv-x="960" 
d="M871 64l-24 -192h-64l16 128h-768l82 672h64l-74 -608h272l74 608h64l-74 -608h272l74 608h64l-74 -608h96z" />
    <glyph glyph-name="uni042A" unicode="&#x42a;" horiz-adv-x="656" 
d="M546 366.5q56 -49.5 56 -128.5q0 -66 -33.5 -120.5t-93.5 -86t-136 -31.5h-212l74 608h-128l8 64h192l-31 -256h148q100 0 156 -49.5zM484 106q54 42 54 126q0 61 -43 90.5t-113 29.5h-148l-35 -288h148q83 0 137 42z" />
    <glyph glyph-name="uni042B" unicode="&#x42b;" horiz-adv-x="752" 
d="M450 366.5q56 -49.5 56 -128.5q0 -66 -33.5 -120.5t-93.5 -86t-136 -31.5h-212l82 672h64l-31 -256h148q100 0 156 -49.5zM575 0l82 672h64l-82 -672h-64zM388 106q54 42 54 126q0 61 -43 90.5t-113 29.5h-148l-35 -288h148q83 0 137 42z" />
    <glyph glyph-name="uni042C" unicode="&#x42c;" horiz-adv-x="560" 
d="M450 366.5q56 -49.5 56 -128.5q0 -66 -33.5 -120.5t-93.5 -86t-136 -31.5h-212l82 672h64l-31 -256h148q100 0 156 -49.5zM388 106q54 42 54 126q0 61 -43 90.5t-113 29.5h-148l-35 -288h148q83 0 137 42z" />
    <glyph glyph-name="uni042D" unicode="&#x42d;" horiz-adv-x="640" 
d="M359 89q65 33 111 91t62 128h-335l6 56h335q2 70 -29.5 127.5t-89 91t-129.5 33.5q-110 0 -199 -73l-18 58q45 37 105 58t116 21q88 0 158.5 -40t110.5 -109t40 -154q0 -20 -3 -41q-11 -93 -67.5 -172t-142.5 -125.5t-180 -46.5q-56 0 -111.5 21t-91.5 58l34 58
q68 -73 181 -73q72 0 137 33z" />
    <glyph glyph-name="uni042E" unicode="&#x42e;" horiz-adv-x="976" 
d="M790 640q70 -40 109.5 -109t39.5 -153q0 -21 -3 -42q-11 -93 -67 -172t-141 -125.5t-178 -46.5q-88 0 -158.5 41.5t-109.5 113t-37 157.5h-113l-37 -304h-64l82 672h64l-37 -304h113q19 86 75.5 157.5t137 113t168.5 41.5q86 0 156 -40zM703.5 93.5q68.5 37.5 114 101.5
t54.5 141q2 24 2 35q0 69 -32 125t-88.5 88t-127.5 32q-77 0 -145.5 -37.5t-114 -101.5t-54.5 -141q-2 -24 -2 -35q0 -69 32 -125t88.5 -88t127.5 -32q77 0 145.5 37.5z" />
    <glyph glyph-name="uni042F" unicode="&#x42f;" horiz-adv-x="576" 
d="M215 245q-71 14 -108.5 63t-37.5 120q0 11 2 33q12 99 83.5 155t198.5 56h192l-82 -672h-64l29 240h-143l-210 -240h-76zM318 608q-71 0 -122.5 -37.5t-60.5 -115.5q-2 -20 -2 -28q0 -63 39.5 -93t103.5 -30h160l37 304h-155z" />
    <glyph glyph-name="uni0430" unicode="&#x430;" horiz-adv-x="608" 
d="M447 0q-9 15 -9 44q0 21 3 40q-37 -43 -87.5 -67.5t-107.5 -24.5q-62 0 -112.5 28.5t-79 78.5t-28.5 110q0 11 2 31q8 67 48.5 124t102 90.5t128.5 33.5q57 0 101.5 -25t70.5 -68l11 85h64l-47 -384q-4 -32 -4 -52q0 -28 8 -44h-64zM356 84.5q48 28.5 77 76.5t29 103
q0 45 -21 81.5t-58.5 57.5t-83.5 21q-54 0 -102 -28t-77 -75.5t-29 -102.5q0 -46 21 -83t58 -58t84 -21q54 0 102 28.5z" />
    <glyph glyph-name="uni0431" unicode="&#x431;" horiz-adv-x="576" 
d="M419 459.5q50 -28.5 78.5 -78.5t28.5 -110q0 -11 -2 -31q-8 -67 -48.5 -124t-101.5 -90.5t-128 -33.5q-65 0 -115 28t-77.5 77.5t-27.5 110.5q0 11 2 33q12 96 68.5 175.5t162.5 148.5q74 48 105 74t49 65h72q-21 -80 -124 -141l-22 -13q-85 -50 -120 -80q40 18 88 18
q62 0 112 -28.5zM354.5 84.5q47.5 28.5 77 76t29.5 100.5q0 45 -21 82.5t-58 59t-83 21.5q-53 0 -101 -28.5t-77.5 -76t-29.5 -100.5q0 -45 21.5 -82.5t58.5 -59t83 -21.5q53 0 100.5 28.5z" />
    <glyph glyph-name="uni0432" unicode="&#x432;" horiz-adv-x="512" 
d="M414 216.5q20 -26.5 20 -59.5l-1 -11q-9 -72 -58 -109t-144 -37h-200l59 480h184q90 0 129.5 -29t39.5 -81q0 -8 -2 -24q-3 -29 -24 -56.5t-51 -38.5q28 -8 48 -34.5zM129 276h147q38 0 70 18.5t32 60.5q0 33 -24 47t-61 14h-147zM368 140q4 35 -23 53.5t-63 18.5h-161
l-18 -148h161q95 0 104 76z" />
    <glyph glyph-name="uni0433" unicode="&#x433;" horiz-adv-x="368" 
d="M95 0h-64l59 480h256l-8 -64h-192z" />
    <glyph glyph-name="uni0434" unicode="&#x434;" horiz-adv-x="640" 
d="M551 64l-24 -192h-64l16 128h-416l-16 -128h-64l24 192q73 35 110.5 89.5t53 124t31.5 202.5h320l-51 -416h80zM407 64l43 352h-192q-17 -136 -49 -219t-99 -133h297z" />
    <glyph glyph-name="uni0435" unicode="&#x435;" horiz-adv-x="544" 
d="M485 208h-395q-1 -68 46 -110t124 -42q86 0 160 52l17 -58q-23 -18 -71.5 -38t-115.5 -20q-70 0 -121 28t-77 77t-26 110q0 11 2 33q9 70 45 126.5t94.5 89t130.5 32.5q88 0 142.5 -55t54.5 -150q0 -20 -3 -41q-2 -20 -7 -34zM431 272q3 36 -10.5 71t-47 58t-86.5 23
q-54 0 -94.5 -23t-64.5 -58t-30 -71h333z" />
    <glyph glyph-name="uni0436" unicode="&#x436;" horiz-adv-x="688" 
d="M623 0h-82l-154 211l-30 -28l-22 -183h-64l22 183l-22 28l-206 -211h-82l251 256l-176 224h84l162 -208l26 208h64l-26 -208l214 208h84l-232 -224z" />
    <glyph glyph-name="uni0437" unicode="&#x437;" horiz-adv-x="464" 
d="M280.5 76.5q39.5 20.5 39.5 62.5q0 73 -167 73l7 56q84 0 131 24.5t47 66.5q0 28 -28.5 46.5t-79.5 18.5t-83 -12.5t-66 -37.5l-26 52q38 30 86 46t100 16q72 0 116.5 -30.5t44.5 -89.5q0 -13 -1 -20q-4 -32 -26 -59.5t-57 -40.5q31 -13 49 -38t18 -57q0 -9 -1 -13
q-9 -74 -66.5 -111t-140.5 -37q-111 0 -172 61l39 52q22 -22 59 -35.5t83 -13.5q55 0 94.5 20.5z" />
    <glyph glyph-name="uni0438" unicode="&#x438;" horiz-adv-x="560" 
d="M455 44q0 -28 8 -44h-64q-8 16 -8 44q0 20 4 52l30 250l-396 -362l61 496h64l-43 -346l397 362l-49 -400q-4 -32 -4 -52z" />
    <glyph glyph-name="uni0439" unicode="&#x439;" horiz-adv-x="560" 
d="M445 668q-7 -52 -47 -88t-92 -36q-48 0 -79 31t-31 77q0 11 1 16h48q-4 -32 15.5 -54t50.5 -22q32 0 57 22.5t29 53.5h48zM455 44q0 -28 8 -44h-64q-8 16 -8 44q0 20 4 52l30 250l-396 -362l61 496h64l-43 -346l397 362l-49 -400q-4 -32 -4 -52z" />
    <glyph glyph-name="uni043A" unicode="&#x43a;" horiz-adv-x="480" 
d="M431 0h-88l-221 222l-27 -222h-64l59 480h64l-26 -210l258 210h88l-285 -232z" />
    <glyph glyph-name="uni043B" unicode="&#x43b;" horiz-adv-x="560" 
d="M455 44q0 -28 8 -44h-64q-8 16 -8 44q0 20 4 52l39 320h-208l-33 -267q-10 -83 -41.5 -120t-86.5 -37q-32 0 -50 8l8 64q21 -7 40 -7q55 0 65 83l42 340h336l-47 -384q-4 -32 -4 -52z" />
    <glyph glyph-name="uni043C" unicode="&#x43c;" horiz-adv-x="640" 
d="M478 306l-199 -306l-125 306l-103 -306h-68l168 496l144 -367l234 367l46 -496h-68z" />
    <glyph glyph-name="uni043D" unicode="&#x43d;" horiz-adv-x="544" 
d="M439 44q0 -28 8 -44h-64q-8 16 -8 44q0 20 4 52l13 112h-272l-25 -208h-64l59 480h64l-26 -208h272l26 208h64l-47 -384q-4 -32 -4 -52z" />
    <glyph glyph-name="uni043E" unicode="&#x43e;" horiz-adv-x="576" 
d="M419 459.5q50 -28.5 78.5 -78.5t28.5 -110q0 -11 -2 -31q-8 -67 -48.5 -124t-101.5 -90.5t-128 -33.5q-62 0 -112.5 28.5t-79 78.5t-28.5 110q0 11 2 31q8 67 48.5 124t102 90.5t128.5 33.5q62 0 112 -28.5zM354.5 84.5q47.5 28.5 77 76t29.5 100.5q0 45 -21 82.5t-58 59
t-83 21.5q-53 0 -101 -28.5t-77.5 -76t-29.5 -100.5q0 -45 21.5 -82.5t58.5 -59t83 -21.5q53 0 100.5 28.5z" />
    <glyph glyph-name="uni043F" unicode="&#x43f;" horiz-adv-x="544" 
d="M439 44q0 -28 8 -44h-64q-8 16 -8 44q0 20 4 52l39 320h-272l-51 -416h-64l59 480h400l-47 -384q-4 -32 -4 -52z" />
    <glyph glyph-name="uni0440" unicode="&#x440;" horiz-adv-x="608" 
d="M143 395q37 43 88 68t108 25q62 0 112 -28.5t78.5 -78.5t28.5 -110q0 -11 -2 -31q-8 -67 -48.5 -124t-101.5 -90.5t-128 -33.5q-57 0 -102 25t-71 68l-42 -341h-64l91 736h64zM388 84.5q48 28.5 77 76.5t29 103q0 45 -21 81.5t-58.5 57.5t-83.5 21q-54 0 -102 -28
t-77 -75.5t-29 -102.5q0 -46 21 -83t58 -58t84 -21q54 0 102 28.5z" />
    <glyph glyph-name="uni0441" unicode="&#x441;" 
d="M420 46q-31 -26 -74.5 -40t-88.5 -14q-73 0 -125 28t-79 76t-27 109q0 11 2 35q9 69 47 125.5t101 89.5t142 33q95 0 151 -50l-36 -58q-44 44 -124 44q-62 0 -112 -28.5t-78 -76t-28 -103.5q0 -70 46 -115t127 -45q38 0 73 12.5t64 35.5z" />
    <glyph glyph-name="uni0442" unicode="&#x442;" horiz-adv-x="432" 
d="M410 480l-8 -64h-144l-51 -416h-64l51 416h-144l8 64h352z" />
    <glyph glyph-name="uni0443" unicode="&#x443;" horiz-adv-x="480" 
d="M490 480l-416 -736h-73l163 286l-138 450h75l111 -368l203 368h75z" />
    <glyph glyph-name="uni0444" unicode="&#x444;" horiz-adv-x="768" 
d="M630.5 462q41.5 -26 65 -72.5t23.5 -105.5q0 -24 -2 -36q-9 -72 -44 -130.5t-87 -92t-110 -33.5q-64 0 -98 32l-31 -248h-64l31 248q-44 -32 -106 -32q-52 0 -93.5 27.5t-65 77t-23.5 111.5q0 19 3 40q8 68 43 122.5t87 86t110 31.5q37 0 58 -9t40 -23l30 248h64
l-30 -248q21 14 45 23t61 9q52 0 93.5 -26zM291 77.5q32 21.5 38 73.5l24 193q5 40 -23 60t-69 20q-64 0 -111 -48.5t-57 -125.5q-2 -24 -2 -34q0 -72 34 -116t91 -44q43 0 75 21.5zM562.5 81q36.5 25 60.5 69t30 100q2 22 2 31q0 65 -34.5 104t-91.5 39q-41 0 -74 -20
t-38 -60l-24 -193q-1 -6 -1 -17q0 -43 26.5 -60.5t65.5 -17.5q42 0 78.5 25z" />
    <glyph glyph-name="uni0445" unicode="&#x445;" 
d="M431 0h-78l-121 203l-171 -203h-78l216 255l-142 225h78l109 -180l153 180h78l-198 -225z" />
    <glyph glyph-name="uni0446" unicode="&#x446;" horiz-adv-x="624" 
d="M535 64l-24 -192h-64l16 128h-432l59 480h64l-51 -416h272l51 416h64l-51 -416h96z" />
    <glyph glyph-name="uni0447" unicode="&#x447;" horiz-adv-x="512" 
d="M407 44q0 -28 8 -44h-64q-8 16 -8 44q0 20 4 52l12 104q-25 -9 -66.5 -16.5t-76.5 -7.5q-70 0 -115.5 36.5t-45.5 107.5q0 9 2 27l17 133h64l-15 -118q-2 -20 -2 -28q0 -53 30 -73.5t87 -20.5q32 0 70 5.5t59 13.5l27 221h64l-47 -384q-4 -32 -4 -52z" />
    <glyph glyph-name="uni0448" unicode="&#x448;" horiz-adv-x="752" 
d="M698 480l-59 -480h-608l59 480h64l-51 -416h208l51 416h64l-51 -416h208l51 416h64z" />
    <glyph glyph-name="uni0449" unicode="&#x449;" horiz-adv-x="832" 
d="M743 64l-24 -192h-64l16 128h-640l59 480h64l-51 -416h208l51 416h64l-51 -416h208l51 416h64l-51 -416h96z" />
    <glyph glyph-name="uni044A" unicode="&#x44a;" horiz-adv-x="592" 
d="M485.5 271.5q45.5 -32.5 45.5 -94.5q0 -14 -1 -21q-9 -73 -65 -114.5t-154 -41.5h-184l51 416h-128l8 64h192l-22 -176h120q92 0 137.5 -32.5zM428 89q34 25 34 79q0 72 -104 72h-138l-21 -176h138q57 0 91 25z" />
    <glyph glyph-name="uni044B" unicode="&#x44b;" horiz-adv-x="688" 
d="M90 480h64l-22 -176h120q92 0 137.5 -32.5t45.5 -94.5q0 -14 -1 -21q-9 -73 -65 -114.5t-154 -41.5h-184zM587 96q-4 -32 -4 -52q0 -28 8 -44h-64q-8 16 -8 44q0 20 4 52l47 384h64zM332 89q34 25 34 79q0 72 -104 72h-138l-21 -176h138q57 0 91 25z" />
    <glyph glyph-name="uni044C" unicode="&#x44c;" 
d="M90 480h64l-22 -176h120q92 0 137.5 -32.5t45.5 -94.5q0 -14 -1 -21q-9 -73 -65 -114.5t-154 -41.5h-184zM332 89q34 25 34 79q0 72 -104 72h-138l-21 -176h138q57 0 91 25z" />
    <glyph glyph-name="uni044D" unicode="&#x44d;" 
d="M302 101q57 45 74 115h-239l6 48h239q0 69 -46.5 114.5t-126.5 45.5q-79 0 -136 -44l-20 58q68 50 163 50q72 0 124 -28t79 -76t27 -109q0 -11 -2 -35q-9 -69 -46.5 -125.5t-100 -89.5t-142.5 -33q-45 0 -85.5 14t-65.5 40l35 58q23 -23 55 -35.5t70 -12.5q81 0 138 45z
" />
    <glyph glyph-name="uni044E" unicode="&#x44e;" horiz-adv-x="784" 
d="M627 459.5q50 -28.5 78.5 -78.5t28.5 -110q0 -11 -2 -31q-8 -67 -48.5 -124t-101.5 -90.5t-128 -33.5q-63 0 -114 29.5t-79 81t-27 113.5h-113l-26 -216h-64l59 480h64l-27 -216h113q14 62 54.5 113.5t99 81t121.5 29.5q62 0 112 -28.5zM562.5 84.5q47.5 28.5 77 76
t29.5 100.5q0 45 -21 82.5t-58 59t-83 21.5q-53 0 -101 -28.5t-77.5 -76t-29.5 -100.5q0 -45 21.5 -82.5t58.5 -59t83 -21.5q53 0 100.5 28.5z" />
    <glyph glyph-name="uni044F" unicode="&#x44f;" horiz-adv-x="512" 
d="M407 44q0 -28 8 -44h-64q-8 16 -8 44q0 20 4 52l7 57h-99l-166 -153h-90l178 157q-49 5 -87 40.5t-38 91.5q0 13 1 19q10 85 70 128.5t167 43.5h168l-47 -384q-4 -32 -4 -52zM361 217l25 199h-129q-60 0 -97 -27t-43 -75q-1 -4 -1 -13q0 -41 31.5 -62.5t92.5 -21.5h121z
" />
    <glyph glyph-name="uni0451" unicode="&#x451;" horiz-adv-x="544" 
d="M185.5 558q-12.5 14 -10.5 34q3 20 18.5 34t35.5 14t32.5 -14t9.5 -34q-2 -20 -17.5 -34t-35.5 -14t-32.5 14zM345.5 558q-12.5 14 -10.5 34q3 20 18.5 34t35.5 14t32.5 -14t9.5 -34q-2 -20 -17.5 -34t-35.5 -14t-32.5 14zM485 208h-395q-1 -68 46 -110t124 -42
q86 0 160 52l17 -58q-23 -18 -71.5 -38t-115.5 -20q-70 0 -121 28t-77 77t-26 110q0 11 2 33q9 70 45 126.5t94.5 89t130.5 32.5q88 0 142.5 -55t54.5 -150q0 -20 -3 -41q-2 -20 -7 -34zM431 272q3 36 -10.5 71t-47 58t-86.5 23q-54 0 -94.5 -23t-64.5 -58t-30 -71h333z" />
    <glyph glyph-name="uni0452" unicode="&#x452;" horiz-adv-x="560" 
d="M458 446q41 -42 41 -126q0 -23 -3 -52l-37 -302q-12 -93 -40 -142t-60 -65.5t-73 -22.5l-9 58q53 11 79.5 47.5t36.5 114.5l41 328q2 20 2 30q0 110 -113 110q-38 0 -77.5 -17.5t-67.5 -50.5t-33 -76l-34 -280h-64l69 564h-64l5 40h64l12 100h64l-12 -100h64l-5 -40h-64
l-19 -158q24 32 72 57t96 25q88 0 129 -42z" />
    <glyph glyph-name="uni0453" unicode="&#x453;" horiz-adv-x="368" 
d="M249 672h80l-127 -128h-48zM95 0h-64l59 480h256l-8 -64h-192z" />
    <glyph glyph-name="uni0454" unicode="&#x454;" 
d="M337 68.5q35 12.5 64 35.5l19 -58q-31 -26 -74.5 -40t-88.5 -14q-73 0 -125 28t-79 76t-27 109q0 11 2 35q9 69 47 125.5t101 89.5t142 33q95 0 151 -50l-36 -58q-44 44 -124 44t-138 -45.5t-75 -114.5h239l-6 -48h-239q0 -70 46.5 -115t127.5 -45q38 0 73 12.5z" />
    <glyph glyph-name="uni0455" unicode="&#x455;" horiz-adv-x="448" 
d="M352 232q32 -31 32 -77q0 -14 -1 -21q-5 -37 -29.5 -69.5t-67 -52.5t-97.5 -20q-64 0 -114 23t-69 45l35 58q23 -28 67 -45t90 -17q45 0 80.5 19t40.5 56q7 62 -100 85q-91 18 -126.5 46t-35.5 73q0 68 54 110.5t142 42.5q35 0 75.5 -11t76.5 -35l-31 -58
q-16 14 -56.5 27t-79.5 13q-107 0 -116 -70q-3 -30 30 -46t88 -28q80 -17 112 -48z" />
    <glyph glyph-name="uni0456" unicode="&#x456;" horiz-adv-x="208" 
d="M96 574.5q-14 14.5 -14 35.5q0 25 19 43.5t44 18.5q22 0 35.5 -14t13.5 -35q0 -25 -18.5 -44t-43.5 -19q-22 0 -36 14.5zM107 96q-4 -32 -4 -52q0 -28 8 -44h-64q-8 16 -8 44q0 20 4 52l47 384h64z" />
    <glyph glyph-name="uni0457" unicode="&#x457;" horiz-adv-x="208" 
d="M17.5 558q-12.5 14 -10.5 34q3 20 18.5 34t35.5 14t32.5 -14t9.5 -34q-2 -20 -17.5 -34t-35.5 -14t-32.5 14zM177.5 558q-12.5 14 -10.5 34q3 20 18.5 34t35.5 14t32.5 -14t9.5 -34q-2 -20 -17.5 -34t-35.5 -14t-32.5 14zM107 96q-4 -32 -4 -52q0 -28 8 -44h-64
q-8 16 -8 44q0 20 4 52l47 384h64z" />
    <glyph glyph-name="uni0458" unicode="&#x458;" horiz-adv-x="208" 
d="M96 574.5q-14 14.5 -14 35.5q0 25 19 43.5t44 18.5q22 0 35.5 -14t13.5 -35q0 -25 -18.5 -44t-43.5 -19q-22 0 -36 14.5zM90 480h64l-63 -514q-12 -93 -40 -142t-60 -65.5t-73 -22.5l-9 58q53 11 79.5 47.5t36.5 114.5z" />
    <glyph glyph-name="uni0459" unicode="&#x459;" horiz-adv-x="816" 
d="M708 257q46 -31 46 -89q0 -78 -56.5 -123t-162.5 -45h-152l51 416h-208l-33 -267q-10 -83 -41.5 -120t-86.5 -37q-32 0 -50 8l8 64q21 -7 40 -7q55 0 65 83l42 340h336l-24 -192h88q92 0 138 -31zM685 157q0 37 -28 52t-77 15h-106l-19 -160h106q124 0 124 93z" />
    <glyph glyph-name="uni045A" unicode="&#x45a;" horiz-adv-x="800" 
d="M692 257q46 -31 46 -89q0 -78 -56.5 -123t-162.5 -45h-152l27 224h-272l-27 -224h-64l59 480h64l-24 -192h272l24 192h64l-24 -192h88q92 0 138 -31zM669 157q0 37 -28 52t-77 15h-106l-19 -160h106q124 0 124 93z" />
    <glyph glyph-name="uni045B" unicode="&#x45b;" horiz-adv-x="560" 
d="M471 44q0 -28 8 -44h-64q-8 16 -8 44q0 20 4 52l23 188q2 20 2 30q0 110 -113 110q-38 0 -77.5 -17.5t-67.5 -50.5t-33 -76l-34 -280h-64l69 564h-64l5 40h64l12 100h64l-12 -100h64l-5 -40h-64l-19 -158q24 32 72 57t96 25q88 0 129 -42t41 -126q0 -23 -3 -52l-21 -172
q-4 -32 -4 -52z" />
    <glyph glyph-name="uni045C" unicode="&#x45c;" horiz-adv-x="480" 
d="M289 672h80l-127 -128h-48zM431 0h-88l-221 222l-27 -222h-64l59 480h64l-26 -210l258 210h88l-285 -232z" />
    <glyph glyph-name="uni045E" unicode="&#x45e;" horiz-adv-x="480" 
d="M405 668q-7 -52 -47 -88t-92 -36q-48 0 -79 31t-31 77q0 11 1 16h48q-4 -32 15.5 -54t50.5 -22q32 0 57 22.5t29 53.5h48zM490 480l-416 -736h-73l163 286l-138 450h75l111 -368l203 368h75z" />
    <glyph glyph-name="uni045F" unicode="&#x45f;" horiz-adv-x="544" 
d="M490 480l-59 -480h-168l-16 -128h-64l16 128h-168l59 480h64l-51 -416h272l51 416h64z" />
    <glyph glyph-name="uni0462" unicode="&#x462;" horiz-adv-x="592" 
d="M482 366.5q56 -49.5 56 -128.5q0 -66 -33.5 -120.5t-93.5 -86t-136 -31.5h-212l65 532h-80l7 56h80l14 116h64l-14 -116h160l-7 -56h-160l-14 -116h148q100 0 156 -49.5zM420 106q54 42 54 126q0 61 -43 90.5t-113 29.5h-148l-35 -288h148q83 0 137 42z" />
    <glyph glyph-name="uni0463" unicode="&#x463;" horiz-adv-x="512" 
d="M405.5 271.5q45.5 -32.5 45.5 -94.5q0 -14 -1 -21q-9 -73 -65 -114.5t-154 -41.5h-184l49 404h-64l5 40h64l9 68h64l-9 -68h64l-5 -40h-64l-12 -100h120q92 0 137.5 -32.5zM348 89q34 25 34 79q0 72 -104 72h-138l-21 -176h138q57 0 91 25z" />
    <glyph glyph-name="uni0472" unicode="&#x472;" horiz-adv-x="768" 
d="M582 640q70 -40 109.5 -109t39.5 -153q0 -21 -3 -42q-11 -93 -67 -172t-141 -125.5t-178 -46.5q-86 0 -156 40t-109.5 109t-39.5 153q0 21 3 42q11 93 67 172t141 125.5t178 46.5q86 0 156 -40zM276 580.5q-67 -35.5 -112.5 -97t-58.5 -135.5q36 17 72 22.5t80 5.5
q29 0 67 -5t66 -13q74 -19 142 -19q87 0 134 32q0 69 -32 125t-88.5 88t-127.5 32q-75 0 -142 -35.5zM492.5 91.5q67.5 35.5 113 97.5t57.5 136q-60 -29 -148 -29q-29 0 -71 5.5t-71 13.5q-73 19 -138 19q-88 0 -133 -32q0 -69 32 -125.5t88.5 -88.5t127.5 -32
q75 0 142.5 35.5z" />
    <glyph glyph-name="uni0473" unicode="&#x473;" horiz-adv-x="576" 
d="M419 459.5q50 -28.5 78.5 -78.5t28.5 -110q0 -11 -2 -31q-8 -67 -48.5 -124t-101.5 -90.5t-128 -33.5q-62 0 -112.5 28.5t-79 78.5t-28.5 110q0 11 2 31q8 67 48.5 124t102 90.5t128.5 33.5q62 0 112 -28.5zM211.5 402.5q-42.5 -21.5 -73 -58t-41.5 -80.5q19 10 36.5 13
t39.5 3q29 0 52 -4.5t57 -13.5q62 -18 101 -18q47 0 79 26q-2 43 -24 78t-58.5 55.5t-80.5 20.5q-45 0 -87.5 -21.5zM341 77.5q42 21.5 72.5 58t41.5 80.5q-29 -16 -72 -16q-30 0 -55.5 4.5t-59.5 14.5q-65 17 -100 17q-48 0 -77 -25q2 -43 24 -78.5t58.5 -56t80.5 -20.5
q45 0 87 21.5z" />
    <glyph glyph-name="uni0474" unicode="&#x474;" horiz-adv-x="672" 
d="M656 680q20 0 33 -8l-8 -64q-14 3 -23 3q-22 0 -39.5 -18.5t-48.5 -73.5l-301 -535l-220 688h72l166 -536l210 377q42 76 67 111t57 49q15 7 35 7z" />
    <glyph glyph-name="uni0475" unicode="&#x475;" horiz-adv-x="528" 
d="M522 480l-8 -64q-17 5 -26 5q-18 0 -36.5 -18.5t-47.5 -68.5l-207 -350l-171 496h72l116 -352l83 142l21 37q35 61 58.5 96.5t51 60t57.5 24.5q21 0 37 -8z" />
    <glyph glyph-name="uni0490" unicode="&#x490;" horiz-adv-x="480" 
d="M493 768l-20 -160h-304l-74 -608h-64l82 672h304l12 96h64z" />
    <glyph glyph-name="uni0491" unicode="&#x491;" horiz-adv-x="368" 
d="M357 576l-19 -160h-192l-51 -416h-64l59 480h192l11 96h64z" />
    <glyph glyph-name="uni0492" unicode="&#x492;" 
d="M185 608l-33 -276h96l-5 -40h-96l-36 -292h-64l36 292h-64l5 40h64l41 340h368l-8 -64h-304z" />
    <glyph glyph-name="uni0493" unicode="&#x493;" horiz-adv-x="384" 
d="M162 416l-22 -180h96l-5 -40h-96l-24 -196h-64l24 196h-64l5 40h64l30 244h256l-8 -64h-192z" />
    <glyph glyph-name="uni0496" unicode="&#x496;" horiz-adv-x="848" 
d="M791 64l-20 -160h-64l12 96h-16l-226 301l-29 -28l-33 -273h-64l33 273l-20 28l-301 -301h-80l345 346l-247 326h80l234 -312l38 312h64l-38 -312l310 312h80l-327 -326l213 -282h56z" />
    <glyph glyph-name="uni0497" unicode="&#x497;" horiz-adv-x="688" 
d="M631 64l-20 -160h-64l12 96h-18l-154 211l-30 -28l-22 -183h-64l22 183l-22 28l-206 -211h-82l251 256l-176 224h84l162 -208l26 208h64l-26 -208l214 208h84l-232 -224l142 -192h55z" />
    <glyph glyph-name="uni049A" unicode="&#x49a;" horiz-adv-x="528" 
d="M471 64l-20 -160h-64l12 96h-24l-243 304l-37 -304h-64l82 672h64l-37 -304l301 304h88l-337 -333l220 -275h59z" />
    <glyph glyph-name="uni049B" unicode="&#x49b;" 
d="M439 64l-20 -160h-64l12 96h-24l-221 222l-27 -222h-64l59 480h64l-26 -210l258 210h88l-285 -232l180 -184h70z" />
    <glyph glyph-name="uni04A2" unicode="&#x4a2;" horiz-adv-x="640" 
d="M583 64l-20 -160h-64l12 96h-64l37 304h-352l-37 -304h-64l82 672h64l-37 -304h352l37 304h64l-74 -608h64z" />
    <glyph glyph-name="uni04A3" unicode="&#x4a3;" horiz-adv-x="560" 
d="M503 64l-20 -160h-64l12 96h-64l25 208h-272l-25 -208h-64l59 480h64l-26 -208h272l26 208h64l-51 -416h64z" />
    <glyph glyph-name="uni04AE" unicode="&#x4ae;" horiz-adv-x="560" 
d="M593 672l-285 -368l-37 -304h-64l37 304l-195 368h72l162 -308l238 308h72z" />
    <glyph glyph-name="uni04AF" unicode="&#x4af;" 
d="M247 71l-40 -327h-64l40 327l-157 409h72l126 -336l210 336h72z" />
    <glyph glyph-name="uni04B0" unicode="&#x4b0;" horiz-adv-x="560" 
d="M300 236h64l-5 -40h-64l-24 -196h-64l24 196h-64l5 40h64l8 68l-195 368h72l162 -308l238 308h72l-285 -368z" />
    <glyph glyph-name="uni04B1" unicode="&#x4b1;" 
d="M234 -36h80l-5 -40h-80l-22 -180h-64l22 180h-80l5 40h80l13 107l-157 409h72l126 -336l210 336h72l-259 -409z" />
    <glyph glyph-name="uni04B2" unicode="&#x4b2;" horiz-adv-x="624" 
d="M583 64l-20 -160h-64l12 96h-35l-169 292l-241 -292h-83l290 347l-192 325h82l157 -272l223 272h82l-272 -325l168 -283h62z" />
    <glyph glyph-name="uni04B3" unicode="&#x4b3;" horiz-adv-x="512" 
d="M455 64l-20 -160h-64l12 96h-30l-121 203l-171 -203h-78l216 255l-142 225h78l109 -180l153 180h78l-198 -225l116 -191h62z" />
    <glyph glyph-name="uni04B6" unicode="&#x4b6;" horiz-adv-x="608" 
d="M551 64l-20 -160h-64l12 96h-64l35 284q-44 -14 -96 -25t-93 -11q-87 0 -139 45t-52 136q0 21 3 43l24 200h64l-23 -192q-3 -22 -3 -43q0 -64 33.5 -94.5t108.5 -30.5q38 0 78 8t67.5 16.5t34.5 11.5l40 324h64l-74 -608h64z" />
    <glyph glyph-name="uni04B7" unicode="&#x4b7;" horiz-adv-x="528" 
d="M471 64l-20 -160h-64l12 96h-64l24 200q-25 -9 -66.5 -16.5t-76.5 -7.5q-70 0 -115.5 36.5t-45.5 107.5q0 9 2 27l17 133h64l-15 -118q-2 -20 -2 -28q0 -53 30 -73.5t87 -20.5q32 0 70 5.5t59 13.5l27 221h64l-51 -416h64z" />
    <glyph glyph-name="uni04BA" unicode="&#x4ba;" horiz-adv-x="592" 
d="M470 379q52 -45 52 -136q0 -20 -3 -43l-24 -200h-64l23 192q3 23 3 43q0 64 -33.5 94.5t-108.5 30.5q-38 0 -78 -8t-67.5 -16.5t-34.5 -11.5l-40 -324h-64l82 672h64l-35 -284q44 14 96 25t93 11q87 0 139 -45z" />
    <glyph glyph-name="uni04BB" unicode="&#x4bb;" horiz-adv-x="544" 
d="M455 44q0 -28 8 -44h-64q-8 16 -8 44q0 20 4 52l23 188q2 20 2 30q0 110 -113 110q-38 0 -77.5 -17.5t-67.5 -50.5t-33 -76l-34 -280h-64l86 704h64l-36 -298q24 32 72 57t96 25q88 0 129 -42t41 -126q0 -23 -3 -52l-21 -172q-4 -32 -4 -52z" />
    <glyph glyph-name="uni04C0" unicode="&#x4c0;" horiz-adv-x="208" 
d="M31 0l82 672h64l-82 -672h-64z" />
    <glyph glyph-name="uni04CF" unicode="&#x4cf;" horiz-adv-x="208" 
d="M107 96q-4 -32 -4 -52q0 -28 8 -44h-64q-8 16 -8 44q0 20 4 52l47 384h64z" />
    <glyph glyph-name="uni04D8" unicode="&#x4d8;" horiz-adv-x="768" 
d="M44 364h621q2 70 -29 127.5t-88.5 91t-129.5 33.5q-84 0 -157.5 -44.5t-115.5 -116.5l-59 20q53 92 144.5 148.5t195.5 56.5q86 0 156 -40t109.5 -109t39.5 -153q0 -21 -3 -42q-11 -93 -67 -172t-141 -125.5t-178 -46.5q-86 0 -156 40t-109.5 109t-39.5 153q0 21 3 42
q2 20 4 28zM132 180.5q31 -57.5 88.5 -91t129.5 -33.5t137 33.5t111 91t61 127.5h-556q-2 -70 29 -127.5z" />
    <glyph glyph-name="uni04D9" unicode="&#x4d9;" horiz-adv-x="544" 
d="M35 272h395q1 69 -38 110.5t-116 41.5q-46 0 -82.5 -19t-61.5 -49l-52 26q10 17 37 41.5t71 44.5t100 20q63 0 109.5 -27t71.5 -75t25 -109q0 -24 -2 -37q-9 -70 -45 -126.5t-94 -89t-130 -32.5q-58 0 -102.5 24.5t-70 71t-25.5 109.5q0 20 3 41q1 13 7 34zM89 208
q-3 -36 11 -71t47.5 -58t86.5 -23q54 0 94.5 23t64 58t29.5 71h-333z" />
    <glyph glyph-name="uni04E2" unicode="&#x4e2;" horiz-adv-x="672" 
d="M259 752l6 48h256l-6 -48h-256zM113 672h64l-64 -520l530 536l-84 -688h-64l64 520l-530 -536z" />
    <glyph glyph-name="uni04E3" unicode="&#x4e3;" horiz-adv-x="560" 
d="M180 560l5 48h256l-5 -48h-256zM455 44q0 -28 8 -44h-64q-8 16 -8 44q0 20 4 52l30 250l-396 -362l61 496h64l-43 -346l397 362l-49 -400q-4 -32 -4 -52z" />
    <glyph glyph-name="uni04E8" unicode="&#x4e8;" horiz-adv-x="768" 
d="M582 640q70 -40 109.5 -109t39.5 -153q0 -21 -3 -42q-11 -93 -67 -172t-141 -125.5t-178 -46.5q-86 0 -156 40t-109.5 109t-39.5 153q0 21 3 42q11 93 67 172t141 125.5t178 46.5q86 0 156 -40zM278.5 581.5q-66.5 -34.5 -112 -94t-59.5 -131.5h558q4 72 -27 131.5
t-89 94t-131 34.5t-139.5 -34.5zM489.5 90.5q66.5 34.5 112 94t59.5 131.5h-558q-4 -72 27 -131.5t89 -94t131 -34.5t139.5 34.5z" />
    <glyph glyph-name="uni04E9" unicode="&#x4e9;" horiz-adv-x="576" 
d="M419 459.5q50 -28.5 78.5 -78.5t28.5 -110q0 -11 -2 -31q-8 -67 -48.5 -124t-101.5 -90.5t-128 -33.5q-62 0 -112.5 28.5t-79 78.5t-28.5 110q0 11 2 31q8 67 48.5 124t102 90.5t128.5 33.5q62 0 112 -28.5zM211.5 402.5q-42.5 -21.5 -73 -58t-41.5 -80.5h364
q0 44 -21.5 80.5t-58.5 58t-82 21.5t-87.5 -21.5zM341 77.5q42 21.5 72.5 58t41.5 80.5h-364q0 -44 22 -80.5t59 -58t82 -21.5t87 21.5z" />
    <glyph glyph-name="uni04EE" unicode="&#x4ee;" horiz-adv-x="576" 
d="M219 752l6 48h256l-6 -48h-256zM609 672l-466 -672h-72l177 252l-183 420h72l155 -361l245 361h72z" />
    <glyph glyph-name="uni04EF" unicode="&#x4ef;" horiz-adv-x="480" 
d="M140 560l5 48h256l-5 -48h-256zM490 480l-416 -736h-73l163 286l-138 450h75l111 -368l203 368h75z" />
    <glyph glyph-name="Wgrave" unicode="&#x1e80;" horiz-adv-x="960" 
d="M537 736l-96 128h80l64 -128h-48zM985 672l-364 -688l-120 524l-248 -524l-196 688h72l143 -512l251 528l121 -528l269 512h72z" />
    <glyph glyph-name="wgrave" unicode="&#x1e81;" horiz-adv-x="752" 
d="M402 544l-97 128h80l65 -128h-48zM754 480l-277 -496l-101 354l-187 -354l-155 496h72l102 -338l188 354l100 -354l186 338h72z" />
    <glyph glyph-name="Wacute" unicode="&#x1e82;" horiz-adv-x="960" 
d="M569 864h80l-128 -128h-48zM985 672l-364 -688l-120 524l-248 -524l-196 688h72l143 -512l251 528l121 -528l269 512h72z" />
    <glyph glyph-name="wacute" unicode="&#x1e83;" horiz-adv-x="752" 
d="M449 672h80l-127 -128h-48zM754 480l-277 -496l-101 354l-187 -354l-155 496h72l102 -338l188 354l100 -354l186 338h72z" />
    <glyph glyph-name="Wdieresis" unicode="&#x1e84;" horiz-adv-x="960" 
d="M418.5 748q-11.5 12 -11.5 30q0 22 16 38t38 16q19 0 30.5 -12t11.5 -30q0 -22 -16 -38t-38 -16q-19 0 -30.5 12zM578.5 748q-11.5 12 -11.5 30q0 22 16 38t38 16q19 0 30.5 -12t11.5 -30q0 -22 -16 -38t-38 -16q-19 0 -30.5 12zM985 672l-364 -688l-120 524l-248 -524
l-196 688h72l143 -512l251 528l121 -528l269 512h72z" />
    <glyph glyph-name="wdieresis" unicode="&#x1e85;" horiz-adv-x="752" 
d="M289.5 558q-12.5 14 -10.5 34q3 20 18.5 34t35.5 14t32.5 -14t9.5 -34q-2 -20 -17.5 -34t-35.5 -14t-32.5 14zM449.5 558q-12.5 14 -10.5 34q3 20 18.5 34t35.5 14t32.5 -14t9.5 -34q-2 -20 -17.5 -34t-35.5 -14t-32.5 14zM754 480l-277 -496l-101 354l-187 -354
l-155 496h72l102 -338l188 354l100 -354l186 338h72z" />
    <glyph glyph-name="Ygrave" unicode="&#x1ef2;" horiz-adv-x="560" 
d="M329 736l-96 128h80l64 -128h-48zM593 672l-285 -368l-37 -304h-64l37 304l-195 368h72l162 -308l238 308h72z" />
    <glyph glyph-name="ygrave" unicode="&#x1ef3;" horiz-adv-x="480" 
d="M266 544l-97 128h80l65 -128h-48zM490 480l-416 -736h-73l163 286l-138 450h75l111 -368l203 368h75z" />
    <glyph glyph-name="endash" unicode="&#x2013;" 
d="M43 232l8 64h384l-8 -64h-384z" />
    <glyph glyph-name="emdash" unicode="&#x2014;" horiz-adv-x="592" 
d="M43 232l8 64h480l-8 -64h-480z" />
    <glyph glyph-name="quoteleft" unicode="&#x2018;" horiz-adv-x="216" 
d="M158 512h-96l107 160h48z" />
    <glyph glyph-name="quoteright" unicode="&#x2019;" horiz-adv-x="216" 
d="M121 672h96l-107 -160h-48z" />
    <glyph glyph-name="quotesinglbase" unicode="&#x201a;" horiz-adv-x="216" 
d="M54 128h96l-107 -160h-48z" />
    <glyph glyph-name="quotedblleft" unicode="&#x201c;" horiz-adv-x="440" 
d="M158 512h-96l107 160h48zM382 512h-96l107 160h48z" />
    <glyph glyph-name="quotedblright" unicode="&#x201d;" horiz-adv-x="440" 
d="M121 672h96l-107 -160h-48zM345 672h96l-107 -160h-48z" />
    <glyph glyph-name="quotedblbase" unicode="&#x201e;" horiz-adv-x="440" 
d="M54 128h96l-107 -160h-48zM278 128h96l-107 -160h-48z" />
    <glyph glyph-name="dagger" unicode="&#x2020;" horiz-adv-x="656" 
d="M372 432l-119 -704l55 704h-240l6 48h240l35 288h64l-35 -288h240l-6 -48h-240z" />
    <glyph glyph-name="daggerdbl" unicode="&#x2021;" horiz-adv-x="656" 
d="M372 432l-24 -192h240l-6 -48h-242l-87 -464l27 464h-242l6 48h240l24 192h-240l6 48h240l35 288h64l-35 -288h240l-6 -48h-240z" />
    <glyph glyph-name="bullet" unicode="&#x2022;" horiz-adv-x="752" 
d="M449 408.5q24 -23.5 24 -59.5q0 -45 -32.5 -77t-76.5 -32q-37 0 -61 23.5t-24 59.5q0 45 32.5 77t76.5 32q37 0 61 -23.5z" />
    <glyph glyph-name="ellipsis" unicode="&#x2026;" horiz-adv-x="784" 
d="M37 7.5q-16 15.5 -16 39.5q0 30 21.5 51.5t50.5 21.5q25 0 41 -16t16 -41q0 -29 -21.5 -50t-50.5 -21q-25 0 -41 15.5zM309 7.5q-16 15.5 -16 39.5q0 30 21.5 51.5t50.5 21.5q25 0 41 -16t16 -41q0 -29 -21.5 -50t-50.5 -21q-25 0 -41 15.5zM581 7.5q-16 15.5 -16 39.5
q0 30 21.5 51.5t50.5 21.5q25 0 41 -16t16 -41q0 -29 -21.5 -50t-50.5 -21q-25 0 -41 15.5z" />
    <glyph glyph-name="perthousand" unicode="&#x2030;" horiz-adv-x="1104" 
d="M115 441.5q-34 33.5 -34 84.5q0 41 21 76.5t56.5 56.5t76.5 21q52 0 86 -34t34 -85q0 -41 -21.5 -76t-56.5 -56t-75 -21q-53 0 -87 33.5zM77 0l550 672h48l-550 -672h-48zM275.5 485.5q30.5 29.5 30.5 67.5q0 33 -22.5 56t-55.5 23q-25 0 -48 -14t-37 -36.5t-14 -47.5
q0 -32 22.5 -55t55.5 -23q38 0 68.5 29.5zM431.5 26q-34.5 34 -34.5 85q0 41 21.5 76.5t57 56t76.5 20.5q52 0 85.5 -33.5t33.5 -84.5q0 -41 -21 -76.5t-56 -56.5t-75 -21q-53 0 -87.5 34zM783.5 26q-34.5 34 -34.5 85q0 41 21.5 76.5t57 56t76.5 20.5q52 0 85.5 -33.5
t33.5 -84.5q0 -41 -21 -76.5t-56 -56.5t-75 -21q-53 0 -87.5 34zM572 54q23 14 37 36.5t14 47.5q0 32 -22.5 55t-55.5 23q-38 0 -68.5 -29.5t-30.5 -67.5q0 -33 22.5 -56t55.5 -23q25 0 48 14zM924 54q23 14 37 36.5t14 47.5q0 32 -22.5 55t-55.5 23q-38 0 -68.5 -29.5
t-30.5 -67.5q0 -33 22.5 -56t55.5 -23q25 0 48 14z" />
    <glyph glyph-name="guilsinglleft" unicode="&#x2039;" horiz-adv-x="368" 
d="M111 264l134 -216h-64l-134 216l187 216h64z" />
    <glyph glyph-name="guilsinglright" unicode="&#x203a;" horiz-adv-x="368" 
d="M170 480l133 -216l-186 -216h-64l186 216l-133 216h64z" />
    <glyph glyph-name="fraction" unicode="&#x2044;" horiz-adv-x="228" 
d="M-185 0l550 672h48l-550 -672h-48z" />
    <glyph glyph-name="uni2070" unicode="&#x2070;" horiz-adv-x="352" 
d="M301 718.5q27 -37.5 27 -98.5q0 -23 -2 -36q-9 -75 -48.5 -123.5t-92.5 -48.5q-47 0 -74 37.5t-27 99.5q0 11 2 35q10 75 49.5 123.5t92.5 48.5q46 0 73 -37.5zM256.5 483.5q30.5 39.5 37.5 100.5q2 22 2 32q0 48 -20 78t-52 30q-37 0 -67.5 -39.5t-38.5 -100.5
q-2 -20 -2 -29q0 -49 20.5 -80t52.5 -31q37 0 67.5 39.5z" />
    <glyph glyph-name="uni2074" unicode="&#x2074;" horiz-adv-x="336" 
d="M302 512l-4 -32h-40l-8 -64h-32l8 64h-184l250 280l-30 -248h40zM249 672l-141 -160h122z" />
    <glyph glyph-name="uni2075" unicode="&#x2075;" horiz-adv-x="344" 
d="M285.5 615q27.5 -25 27.5 -68q0 -38 -18.5 -69t-49 -48.5t-64.5 -17.5q-48 0 -76.5 28.5t-26.5 71.5l33 4q-2 -31 18 -51.5t56 -20.5q37 0 63.5 23.5t31.5 60.5q4 35 -14.5 57.5t-52.5 22.5q-54 0 -89 -56h-33l53 200h163l-4 -32h-139l-31 -116q13 14 35 25t51 11
q39 0 66.5 -25z" />
    <glyph glyph-name="uni2076" unicode="&#x2076;" horiz-adv-x="352" 
d="M293.5 620.5q28.5 -27.5 28.5 -68.5q0 -9 -1 -13q-7 -56 -45 -91.5t-91 -35.5q-48 0 -76.5 29.5t-28.5 80.5q0 13 1 20q8 63 46.5 121.5t106.5 88.5h69q0 2 -36 -12t-73 -43.5t-59 -77.5q16 12 35 20.5t49 8.5q46 0 74.5 -27.5zM260 474q29 30 29 71q0 33 -21 52t-58 19
q-41 0 -70 -27.5t-29 -67.5q0 -33 21.5 -55t56.5 -22q42 0 71 30z" />
    <glyph glyph-name="uni2077" unicode="&#x2077;" horiz-adv-x="320" 
d="M347 752l-189 -336h-36l173 304h-176l4 32h224z" />
    <glyph glyph-name="uni2078" unicode="&#x2078;" horiz-adv-x="352" 
d="M306.5 572q12.5 -21 12.5 -43q0 -7 -1 -11q-6 -48 -44 -77t-89 -29q-47 0 -77.5 25t-30.5 67q0 9 1 14q4 25 22.5 49t41.5 34q-14 9 -22 24t-8 32q0 43 34.5 71t81.5 28q41 0 68 -22t27 -58q0 -20 -13 -41.5t-34 -33.5q18 -8 30.5 -29zM168.5 706q-23.5 -18 -23.5 -45
q0 -21 18 -33.5t47 -12.5q33 0 56 15.5t23 42.5q0 22 -18 36.5t-47 14.5q-32 0 -55.5 -18zM257 467.5q29 23.5 29 56.5q0 27 -22 44t-57 17q-40 0 -68.5 -21.5t-28.5 -55.5q0 -28 22.5 -46t56.5 -18q39 0 68 23.5z" />
    <glyph glyph-name="uni2079" unicode="&#x2079;" horiz-adv-x="352" 
d="M119.5 548q-28.5 28 -28.5 69q0 9 1 13q7 56 45.5 91t90.5 35q48 0 76.5 -29.5t28.5 -79.5q0 -14 -1 -21q-8 -63 -46.5 -121t-106.5 -89h-69q0 -2 36 12t73 44t59 78q-36 -30 -84 -30q-46 0 -74.5 28zM153 694.5q-29 -29.5 -29 -70.5q0 -33 21.5 -52.5t57.5 -19.5
q41 0 70 28t29 68q0 33 -21.5 54.5t-56.5 21.5q-42 0 -71 -29.5z" />
    <glyph glyph-name="Euro" unicode="&#x20ac;" horiz-adv-x="704" 
d="M613 129l18 -58q-45 -37 -105 -58t-116 -21q-81 0 -148 35t-108.5 96t-49.5 137h-73l5 40h66q0 12 2 36q1 12 3 21t3 15h-66l5 40h73q27 76 83.5 137t132 96t156.5 35q56 0 111.5 -21t91.5 -58l-34 -58q-70 73 -181 73q-96 0 -177.5 -57t-117.5 -147h254l-20 -40h-247
q-1 -6 -3 -15t-3 -21q-2 -24 -2 -36h223l-19 -40h-201q9 -59 42.5 -105.5t86.5 -72.5t116 -26q112 0 199 73z" />
    <glyph glyph-name="trademark" unicode="&#x2122;" horiz-adv-x="648" 
d="M352 584l-60 -212h-29l89 305l85 -250l147 250l12 -305h-29l-8 212l-129 -219zM283 672l-3 -29h-79l-34 -271h-28l34 271h-79l3 29h186z" />
    <glyph glyph-name="oneeighth" unicode="&#x215b;" horiz-adv-x="892" 
d="M234 680l-42 -344h-32l37 298l-59 -21l4 31zM127 0l550 672h48l-550 -672h-48zM797.5 152q12.5 -24 9.5 -50q-6 -48 -44 -77t-89 -29q-47 0 -77.5 25t-30.5 67q0 9 1 14q3 25 22 49t41 34q-16 10 -23.5 28t-5.5 37q5 40 38 65t77 25q41 0 68 -22t27 -57q0 -21 -13 -43
t-34 -33q21 -9 33.5 -33zM657.5 290q-23.5 -18 -23.5 -45q0 -21 18 -33.5t47 -12.5q33 0 56 15.5t23 42.5q0 22 -18 36.5t-47 14.5q-32 0 -55.5 -18zM746 51.5q29 23.5 29 56.5q0 27 -22.5 44t-57.5 17q-40 0 -68 -21.5t-28 -55.5q0 -28 22.5 -46t56.5 -18q39 0 68 23.5z
" />
    <glyph glyph-name="threeeighths" unicode="&#x215c;" horiz-adv-x="924" 
d="M286 490.5q15 -18.5 15 -44.5q0 -27 -15.5 -53.5t-45 -43.5t-68.5 -17q-51 0 -78.5 29t-25.5 75l32 6q0 -32 17 -55t61 -23q28 0 48.5 12t31 29.5t10.5 33.5q0 29 -26 42t-71 13l4 32q36 1 68 15t35 43q4 28 -14.5 44t-50.5 16q-44 0 -63.5 -21t-26.5 -53l-30 6
q9 44 40.5 72t80.5 28t73.5 -23.5t24.5 -55.5q0 -25 -17 -49t-49 -35q25 -4 40 -22.5zM159 0l550 672h48l-550 -672h-48zM829.5 152q12.5 -24 9.5 -50q-6 -48 -44 -77t-89 -29q-47 0 -77.5 25t-30.5 67q0 9 1 14q3 25 22 49t41 34q-16 10 -23.5 28t-5.5 37q5 40 38 65t77 25
q41 0 68 -22t27 -57q0 -21 -13 -43t-34 -33q21 -9 33.5 -33zM689.5 290q-23.5 -18 -23.5 -45q0 -21 18 -33.5t47 -12.5q33 0 56 15.5t23 42.5q0 22 -18 36.5t-47 14.5q-32 0 -55.5 -18zM778 51.5q29 23.5 29 56.5q0 27 -22.5 44t-57.5 17q-40 0 -68 -21.5t-28 -55.5
q0 -28 22.5 -46t56.5 -18q39 0 68 23.5z" />
    <glyph glyph-name="fiveeighths" unicode="&#x215d;" horiz-adv-x="924" 
d="M276 535q27 -25 27 -68q0 -38 -18.5 -69t-48.5 -48.5t-64 -17.5q-48 0 -77 28.5t-27 71.5l33 4q-2 -31 18 -51.5t56 -20.5q40 0 68 27t28 68q0 31 -18 50t-49 19q-29 0 -51 -14.5t-39 -41.5h-33l53 200h163l-4 -32h-139l-31 -116q13 14 35.5 25t51.5 11q39 0 66 -25z
M159 0l550 672h48l-550 -672h-48zM829.5 152q12.5 -24 9.5 -50q-6 -48 -44 -77t-89 -29q-47 0 -77.5 25t-30.5 67q0 9 1 14q3 25 22 49t41 34q-16 10 -23.5 28t-5.5 37q5 40 38 65t77 25q41 0 68 -22t27 -57q0 -21 -13 -43t-34 -33q21 -9 33.5 -33zM689.5 290
q-23.5 -18 -23.5 -45q0 -21 18 -33.5t47 -12.5q33 0 56 15.5t23 42.5q0 22 -18 36.5t-47 14.5q-32 0 -55.5 -18zM778 51.5q29 23.5 29 56.5q0 27 -22.5 44t-57.5 17q-40 0 -68 -21.5t-28 -55.5q0 -28 22.5 -46t56.5 -18q39 0 68 23.5z" />
    <glyph glyph-name="seveneighths" unicode="&#x215e;" horiz-adv-x="900" 
d="M337 672l-189 -336h-36l173 304h-176l4 32h224zM135 0l550 672h48l-550 -672h-48zM805.5 152q12.5 -24 9.5 -50q-6 -48 -44 -77t-89 -29q-47 0 -77.5 25t-30.5 67q0 9 1 14q3 25 22 49t41 34q-16 10 -23.5 28t-5.5 37q5 40 38 65t77 25q41 0 68 -22t27 -57q0 -21 -13 -43
t-34 -33q21 -9 33.5 -33zM665.5 290q-23.5 -18 -23.5 -45q0 -21 18 -33.5t47 -12.5q33 0 56 15.5t23 42.5q0 22 -18 36.5t-47 14.5q-32 0 -55.5 -18zM754 51.5q29 23.5 29 56.5q0 27 -22.5 44t-57.5 17q-40 0 -68 -21.5t-28 -55.5q0 -28 22.5 -46t56.5 -18q39 0 68 23.5z
" />
    <glyph glyph-name="partialdiff" unicode="&#x2202;" horiz-adv-x="608" 
d="M463.5 638q82.5 -125 82.5 -302q0 -46 -6 -96q-8 -67 -48.5 -124t-101.5 -90.5t-128 -33.5q-62 0 -112.5 28.5t-79 78.5t-28.5 110q0 11 2 31q8 67 48.5 124t102 90.5t128.5 33.5q49 0 89.5 -16.5t65.5 -48.5q-15 88 -57.5 155t-104 107t-131.5 51l39 64
q157 -37 239.5 -162zM370.5 84.5q47.5 28.5 77 76t29.5 100.5q0 45 -21 82.5t-58 59t-83 21.5q-53 0 -101 -28.5t-77.5 -76t-29.5 -100.5q0 -45 21.5 -82.5t58.5 -59t83 -21.5q53 0 100.5 28.5z" />
    <glyph glyph-name="emptyset" unicode="&#x2205;" horiz-adv-x="648" 
 />
    <glyph glyph-name="product" unicode="&#x220f;" horiz-adv-x="576" 
d="M431 -256h-64l110 896h-304l-110 -896h-64l118 960h432z" />
    <glyph glyph-name="summation" unicode="&#x2211;" horiz-adv-x="656" 
d="M444 240l-357 -432h432l-8 -64h-512l8 64l357 432l-251 432l8 64h512l-8 -64h-432z" />
    <glyph glyph-name="minus" unicode="&#x2212;" horiz-adv-x="464" 
d="M407 328l-6 -48h-352l6 48h352z" />
    <glyph glyph-name="radical" unicode="&#x221a;" horiz-adv-x="928" 
d="M921 608h-325l-367 -624l-171 496h72l116 -352l316 544h367z" />
    <glyph glyph-name="infinity" unicode="&#x221e;" horiz-adv-x="608" 
d="M513.5 390q33.5 -34 33.5 -85q0 -41 -21.5 -76t-56.5 -56t-75 -21q-35 0 -62.5 15.5t-42.5 42.5q-22 -27 -53.5 -42.5t-65.5 -15.5q-53 0 -87 34t-34 85q0 41 21.5 76.5t57 56t76.5 20.5q34 0 61.5 -15.5t42.5 -42.5q22 27 53.5 42.5t66.5 15.5q52 0 85.5 -34zM223 214
q23 14 37.5 36.5t14.5 47.5q0 32 -22.5 55t-55.5 23q-25 0 -48 -14t-37.5 -36.5t-14.5 -47.5q0 -32 22.5 -55t55.5 -23q25 0 48 14zM447 214q23 14 37.5 36.5t14.5 47.5q0 32 -22.5 55t-55.5 23q-25 0 -48 -14t-37.5 -36.5t-14.5 -47.5q0 -32 22.5 -55t55.5 -23q25 0 48 14z
" />
    <glyph glyph-name="integral" unicode="&#x222b;" horiz-adv-x="304" 
d="M187.5 640q35.5 40 102.5 40l-8 -64q-33 0 -51 -24t-23 -63l-76 -613q-12 -99 -47.5 -139.5t-102.5 -40.5l8 64q33 0 51.5 24t23.5 63l75 613q12 100 47.5 140z" />
    <glyph glyph-name="approxequal" unicode="&#x2248;" horiz-adv-x="480" 
d="M434 420q-28 -44 -57.5 -60t-65.5 -16q-16 0 -31 5t-29 11.5t-22 9.5q-31 13 -54 13q-36 0 -60 -39l-55 24q28 43 58 59.5t65 16.5q15 0 28 -4.5t35 -14.5l19 -8q35 -13 53 -13q36 0 61 40zM414 252q-28 -44 -58 -60t-66 -16q-16 0 -31.5 5t-29 11.5t-20.5 9.5
q-31 13 -54 13q-37 0 -61 -39l-55 24q28 43 58.5 59.5t65.5 16.5q15 0 29.5 -5t29 -11.5t22.5 -10.5q35 -13 53 -13q36 0 62 40z" />
    <glyph glyph-name="notequal" unicode="&#x2260;" 
d="M285 352l-34 -96h179l-6 -48h-191l-74 -208h-48l74 208h-145l6 48h157l34 96h-179l6 48h191l74 208h48l-74 -208h145l-6 -48h-157z" />
    <glyph glyph-name="lessequal" unicode="&#x2264;" horiz-adv-x="512" 
d="M51 296l6 48l423 184l-7 -56l-355 -152l317 -152l-7 -56zM415 0h-400l6 48h400z" />
    <glyph glyph-name="greaterequal" unicode="&#x2265;" horiz-adv-x="512" 
d="M35 168l355 152l-317 152l7 56l377 -184l-6 -48l-423 -184zM421 48l-6 -48h-400l6 48h400z" />
    <glyph glyph-name="lozenge" unicode="&#x25ca;" horiz-adv-x="656" 
d="M285 -16l-229 352l315 352l229 -352zM360 599l-238 -263l174 -263l240 263z" />
    <glyph glyph-name="M.ss01" horiz-adv-x="752" 
d="M723 688l-84 -688h-64l62 506l-278 -308l-202 308l-62 -506h-64l84 688l256 -392z" />
    <glyph glyph-name="j.ss01" horiz-adv-x="208" 
d="M96 574.5q-14 14.5 -14 35.5q0 25 19 43.5t44 18.5q22 0 35.5 -14t13.5 -35q0 -25 -18.5 -44t-43.5 -19q-22 0 -36 14.5zM90 480h64l-91 -736h-64z" />
    <glyph glyph-name="t.ss01" horiz-adv-x="320" 
d="M139 96q-4 -32 -4 -52q0 -28 8 -44h-64q-8 16 -8 44q0 20 4 52l39 320h-64l8 64h64l23 192h64l-23 -192h96l-8 -64h-96z" />
    <glyph glyph-name="tbar.ss01" horiz-adv-x="320" 
d="M178 416l-15 -124h96l-5 -40h-96l-19 -156q-4 -32 -4 -52q0 -28 8 -44h-64q-8 16 -8 44q0 20 4 52l19 156h-64l5 40h64l15 124h-64l8 64h64l23 192h64l-23 -192h96l-8 -64h-96z" />
    <glyph glyph-name="tcaron.ss01" horiz-adv-x="448" 
d="M139 96q-4 -32 -4 -52q0 -28 8 -44h-64q-8 16 -8 44q0 20 4 52l39 320h-64l8 64h64l23 192h64l-23 -192h96l-8 -64h-96zM369 672h80l-85 -112h-40z" />
    <glyph glyph-name="uni0163.ss01" horiz-adv-x="320" 
d="M109 -47q46 0 74.5 -27.5t28.5 -70.5q0 -10 -1 -15q-8 -62 -55 -103t-114 -41q-79 0 -113 63l49 41q7 -20 26.5 -34t51.5 -14q30 0 55 14t39 36.5t14 47.5q0 27 -19.5 44.5t-52.5 17.5q-37 0 -70 -24l-26 48l78 76q-4 13 -4 32q0 12 5 52l39 320h-64l8 64h64l23 192h64
l-23 -192h96l-8 -64h-96l-39 -320q-4 -32 -4 -52q0 -28 8 -44h-16l-53 -51q16 4 35 4z" />
    <glyph glyph-name="uni021B.ss01" horiz-adv-x="320" 
d="M139 96q-4 -32 -4 -52q0 -28 8 -44h-64q-8 16 -8 44q0 20 4 52l39 320h-64l8 64h64l23 192h64l-23 -192h96l-8 -64h-96zM47 -64h80l-86 -112h-40z" />
    <glyph glyph-name="f_f.dlig" horiz-adv-x="672" 
d="M553.5 628q-16.5 -20 -22.5 -69l-9 -79h112l-8 -64h-112l-51 -416h-64l51 416h-272l-51 -416h-64l51 416h-64l8 64h64l6 50q12 96 43 139t93 43q32 0 60 -14l-7 -62q-22 12 -51 12q-32 0 -48.5 -20t-22.5 -69l-9 -79h272l6 50q12 96 43 139t93 43q32 0 60 -14l-7 -62
q-22 12 -51 12q-32 0 -48.5 -20z" />
    <glyph glyph-name="f_f_i.dlig" horiz-adv-x="880" 
d="M775 44q0 -28 8 -44h-64q-8 16 -8 44q0 20 4 52l39 320h-240l-51 -416h-64l51 416h-272l-51 -416h-64l51 416h-64l8 64h64l6 50q12 96 43 139t93 43q32 0 60 -14l-7 -62q-22 12 -51 12q-32 0 -48.5 -20t-22.5 -69l-9 -79h272l6 50q12 96 43 139t93 43q32 0 60 -14l-7 -62
q-22 12 -51 12q-32 0 -48.5 -20t-22.5 -69l-9 -79h304l-47 -384q-4 -32 -4 -52z" />
    <glyph glyph-name="f_f_j.dlig" horiz-adv-x="880" 
d="M763 -34q-12 -93 -40 -142t-60 -65.5t-73 -22.5l-9 58q53 11 79.5 47.5t36.5 114.5l57 460h-240l-51 -416h-64l51 416h-272l-51 -416h-64l51 416h-64l8 64h64l6 50q12 96 43 139t93 43q32 0 60 -14l-7 -62q-22 12 -51 12q-32 0 -48.5 -20t-22.5 -69l-9 -79h272l6 50
q12 96 43 139t93 43q32 0 60 -14l-7 -62q-22 12 -51 12q-32 0 -48.5 -20t-22.5 -69l-9 -79h304z" />
    <glyph glyph-name="uni041C.ss01" horiz-adv-x="752" 
d="M723 688l-84 -688h-64l62 506l-278 -308l-202 308l-62 -506h-64l84 688l256 -392z" />
    <glyph glyph-name="uni043C.ss01" horiz-adv-x="624" 
d="M519 44q0 -28 8 -44h-64q-8 16 -8 44q0 20 4 52l26 214l-205 -238l-147 238l-38 -310h-64l61 496l200 -324l280 324l-49 -400q-4 -32 -4 -52z" />
    <glyph glyph-name="uni0458.ss01" horiz-adv-x="208" 
d="M96 574.5q-14 14.5 -14 35.5q0 25 19 43.5t44 18.5q22 0 35.5 -14t13.5 -35q0 -25 -18.5 -44t-43.5 -19q-22 0 -36 14.5zM90 480h64l-91 -736h-64z" />
    <glyph glyph-name="zero.subs" horiz-adv-x="352" 
d="M177 38q27 -38 27 -100q0 -10 -2 -34q-10 -76 -49 -124t-92 -48q-47 0 -74 37.5t-27 98.5q0 23 2 36q9 75 48.5 123.5t92.5 48.5q47 0 74 -38zM116 -213.5q25 22.5 40.5 61.5t15.5 86q0 49 -20.5 79.5t-52.5 30.5q-27 0 -51.5 -22t-40 -61t-15.5 -86q0 -49 20 -80t52 -31
q27 0 52 22.5z" />
    <glyph glyph-name="one.subs" horiz-adv-x="312" 
d="M119 80l-42 -344h-32l37 298l-59 -21l4 31z" />
    <glyph glyph-name="two.subs" horiz-adv-x="352" 
d="M19.5 45.5q32.5 30.5 79.5 30.5q43 0 69.5 -24t26.5 -64q0 -11 -1 -16q-5 -38 -24.5 -65.5t-63.5 -64.5l-86 -74h165l-4 -32h-240l151 133q34 30 52.5 57t18.5 54q0 29 -18.5 46.5t-49.5 17.5q-34 0 -56 -21.5t-30 -56.5l-31 6q9 43 41.5 73.5z" />
    <glyph glyph-name="three.subs" horiz-adv-x="344" 
d="M171 -109.5q15 -18.5 15 -44.5q0 -27 -15.5 -53.5t-45 -43.5t-68.5 -17q-51 0 -78.5 29t-25.5 75l32 6q0 -32 17 -55t61 -23q28 0 48.5 12t31 29.5t10.5 33.5q0 29 -26 42t-71 13l4 32q36 1 68 15t35 43q4 28 -14.5 44t-50.5 16q-44 0 -63.5 -21t-26.5 -53l-30 6
q9 44 40.5 72t80.5 28t73.5 -23.5t24.5 -55.5q0 -25 -17 -49t-49 -35q25 -4 40 -22.5z" />
    <glyph glyph-name="four.subs" horiz-adv-x="336" 
d="M177 -168l-4 -32h-40l-8 -64h-32l8 64h-184l250 280l-30 -248h40zM124 -8l-141 -160h122z" />
    <glyph glyph-name="five.subs" horiz-adv-x="344" 
d="M161 -65q27 -25 27 -68q0 -38 -18.5 -69t-48.5 -48.5t-64 -17.5q-48 0 -77 28.5t-27 71.5l33 4q-2 -31 18 -51.5t56 -20.5q40 0 68 27t28 68q0 31 -18 50t-49 19q-29 0 -51 -14.5t-39 -41.5h-33l53 200h163l-4 -32h-139l-31 -116q13 14 35.5 25t51.5 11q39 0 66 -25z" />
    <glyph glyph-name="six.subs" horiz-adv-x="352" 
d="M168.5 -59.5q28.5 -27.5 28.5 -68.5q0 -9 -1 -13q-7 -56 -44.5 -91.5t-90.5 -35.5q-48 0 -77 30t-29 80q0 13 1 20q8 63 46.5 121.5t106.5 88.5h69q0 2 -36 -12t-73 -43.5t-59 -77.5q16 12 35 20.5t49 8.5q46 0 74.5 -27.5zM135 -206q29 30 29 72q0 32 -20.5 51t-57.5 19
q-42 0 -71 -27.5t-29 -67.5q0 -33 21.5 -55t56.5 -22q42 0 71 30z" />
    <glyph glyph-name="seven.subs" horiz-adv-x="320" 
d="M222 72l-189 -336h-36l173 304h-176l4 32h224z" />
    <glyph glyph-name="eight.subs" horiz-adv-x="352" 
d="M184 -112.5q13 -24.5 10 -49.5q-6 -48 -44 -77t-89 -29q-47 0 -77.5 25t-30.5 67q0 9 1 14q3 25 21.5 49t41.5 34q-14 9 -22 24t-8 32q0 43 34.5 71t81.5 28q41 0 68 -22t27 -58q0 -20 -13 -41.5t-34 -33.5q20 -9 33 -33.5zM43.5 26q-23.5 -18 -23.5 -45q0 -21 18 -33.5
t47 -12.5q33 0 56 15.5t23 42.5q0 22 -18 36.5t-47 14.5q-32 0 -55.5 -18zM132 -212.5q29 23.5 29 56.5q0 27 -22 44t-57 17q-40 0 -68.5 -21.5t-28.5 -55.5q0 -28 22.5 -46t56.5 -18q39 0 68 23.5z" />
    <glyph glyph-name="nine.subs" horiz-adv-x="352" 
d="M-5.5 -132q-28.5 28 -28.5 69q0 9 1 13q7 56 45.5 91t90.5 35q48 0 76.5 -29t28.5 -79q0 -66 -39.5 -132t-114.5 -100h-69q0 -2 36 12t73 44t59 78q-36 -30 -84 -30q-46 0 -74.5 28zM28 14.5q-29 -29.5 -29 -70.5q0 -33 21.5 -52.5t57.5 -19.5q41 0 70 28t29 68
q0 33 -21.5 54.5t-56.5 21.5q-42 0 -71 -29.5z" />
    <glyph glyph-name="zero.tf" horiz-adv-x="592" 
d="M445.5 645.5q45.5 -34.5 70 -96.5t24.5 -143q0 -38 -4 -70q-12 -99 -52 -177.5t-100 -122.5t-130 -44q-62 0 -108 34.5t-70.5 96t-24.5 142.5q0 29 5 71q12 99 52 177.5t100 122.5t130 44q62 0 107.5 -34.5zM355 92q45 36 76 99.5t41 144.5q4 40 4 58q0 65 -18.5 115.5
t-52 78.5t-75.5 28q-48 0 -93 -36t-76 -99.5t-41 -144.5q-4 -40 -4 -58q0 -65 18.5 -115.5t52 -78.5t75.5 -28q48 0 93 36z" />
    <glyph glyph-name="one.tf" horiz-adv-x="592" 
d="M411 688l-84 -688h-64l73 596l-117 -42l7 62z" />
    <glyph glyph-name="two.tf" horiz-adv-x="592" 
d="M131.5 574.5q32.5 47.5 84 76.5t114.5 29q86 0 139.5 -48.5t53.5 -130.5q0 -9 -2 -29q-9 -74 -48.5 -129t-127.5 -131l-172 -148h330l-8 -64h-480l302 266q68 59 104 113t36 110q0 58 -36.5 92.5t-98.5 34.5q-69 0 -113 -43.5t-58 -112.5l-62 12q10 55 42.5 102.5z" />
    <glyph glyph-name="three.tf" horiz-adv-x="592" 
d="M481.5 306.5q30.5 -37.5 30.5 -88.5q0 -54 -31.5 -106.5t-90 -86t-136.5 -33.5q-102 0 -156.5 57.5t-50.5 150.5l63 12q1 -64 35.5 -110t122.5 -46q51 0 90.5 20.5t61.5 52t26 63.5q1 5 1 15q0 56 -52.5 82.5t-140.5 26.5l7 64q46 1 93.5 13.5t81 42t33.5 75.5
q0 49 -37 77t-96 28q-88 0 -127 -42t-54 -106l-58 12q17 88 80 144t161 56q66 0 110 -23.5t65 -60.5t21 -76q0 -50 -33.5 -97.5t-98.5 -68.5q49 -10 79.5 -47.5z" />
    <glyph glyph-name="four.tf" horiz-adv-x="592" 
d="M518 192l-8 -64h-80l-15 -128h-64l15 128h-368l501 560l-61 -496h80zM414 512l-284 -320h244z" />
    <glyph glyph-name="five.tf" horiz-adv-x="592" 
d="M424 426q43 -22 68 -64.5t25 -101.5q0 -9 -2 -33q-8 -68 -46.5 -121.5t-95.5 -83.5t-119 -30q-63 0 -111.5 26t-74 71.5t-22.5 102.5l66 8q-2 -61 38 -102.5t112 -41.5q53 0 96 24.5t68 68t25 99.5q0 61 -36 98.5t-98 37.5q-58 0 -101 -29.5t-79 -82.5h-66l107 400h327
l-8 -64h-278l-62 -232q23 27 68 49.5t105 22.5q51 0 94 -22z" />
    <glyph glyph-name="six.tf" horiz-adv-x="592" 
d="M429.5 438.5q46.5 -25.5 72 -70t25.5 -97.5q0 -8 -2 -26q-9 -74 -47 -131.5t-96.5 -89.5t-127.5 -32q-96 0 -153.5 58.5t-57.5 157.5q0 22 3 44q10 80 46 160.5t101 149.5t158 110h138q0 5 -71.5 -23.5t-146.5 -88t-119 -155.5q32 25 70.5 42t99.5 17t107.5 -25.5z
M362.5 83.5q45.5 27.5 72 74t26.5 100.5q0 64 -41.5 103t-115.5 39q-54 0 -99.5 -25t-72 -69t-26.5 -97q0 -66 42.5 -109.5t113.5 -43.5q55 0 100.5 27.5z" />
    <glyph glyph-name="seven.tf" horiz-adv-x="592" 
d="M569 672l-378 -672h-72l346 608h-352l8 64h448z" />
    <glyph glyph-name="eight.tf" horiz-adv-x="592" 
d="M496 310q25 -42 25 -89q0 -12 -1 -18q-8 -63 -46 -111t-96 -74t-124 -26q-61 0 -110.5 22.5t-77.5 64t-28 97.5q0 9 2 27q6 51 43 99t82 67q-28 18 -43.5 49t-15.5 65q0 11 1 17q6 53 39 94t83.5 63.5t108.5 22.5q53 0 96 -20t67.5 -56t24.5 -83q0 -14 -1 -21
q-5 -37 -29.5 -73.5t-61.5 -57.5q37 -17 62 -59zM251.5 599.5q-36.5 -16.5 -58.5 -45.5t-22 -64q0 -42 37.5 -67t95.5 -25q67 0 112 31t45 85q0 45 -37 73.5t-94 28.5q-42 0 -78.5 -16.5zM357.5 77q44.5 21 71.5 57.5t27 80.5q0 55 -45.5 89t-114.5 34q-52 0 -96.5 -19.5
t-71 -54.5t-26.5 -79q0 -56 45.5 -92.5t114.5 -36.5q51 0 95.5 21z" />
    <glyph glyph-name="nine.tf" horiz-adv-x="592" 
d="M162.5 233.5q-46.5 25.5 -72 70t-25.5 97.5q0 8 2 26q9 74 47 131.5t96.5 89.5t127.5 32q96 0 153.5 -58.5t57.5 -157.5q0 -21 -3 -44q-10 -80 -46 -160.5t-101 -149.5t-158 -110h-138q0 -5 71.5 23.5t146.5 88t119 155.5q-32 -25 -70.5 -42t-99.5 -17t-107.5 25.5z
M229.5 588.5q-45.5 -27.5 -72 -74t-26.5 -100.5q0 -64 41.5 -103t115.5 -39q54 0 99.5 25t72 69t26.5 97q0 66 -42.5 109.5t-113.5 43.5q-55 0 -100.5 -27.5z" />
    <glyph glyph-name="zero.zero" horiz-adv-x="592" 
d="M445.5 645.5q45.5 -34.5 70 -96.5t24.5 -143q0 -38 -4 -70q-12 -99 -52 -177.5t-100 -122.5t-130 -44q-62 0 -108 34.5t-70.5 96t-24.5 142.5q0 29 5 71q12 99 52 177.5t100 122.5t130 44q62 0 107.5 -34.5zM237 580q-45 -36 -76 -99.5t-41 -144.5q-4 -27 -4 -58
q0 -45 9 -83l326 333q-21 42 -52 65t-69 23q-48 0 -93 -36zM355 92q45 36 76 99.5t41 144.5q3 30 3 58q0 49 -8 82l-325 -333q20 -41 51 -64t69 -23q48 0 93 36z" />
    <glyph glyph-name="zero.tf.zero" horiz-adv-x="592" 
d="M445.5 645.5q45.5 -34.5 70 -96.5t24.5 -143q0 -38 -4 -70q-12 -99 -52 -177.5t-100 -122.5t-130 -44q-62 0 -108 34.5t-70.5 96t-24.5 142.5q0 29 5 71q12 99 52 177.5t100 122.5t130 44q62 0 107.5 -34.5zM237 580q-45 -36 -76 -99.5t-41 -144.5q-4 -27 -4 -58
q0 -45 9 -83l326 333q-21 42 -52 65t-69 23q-48 0 -93 -36zM355 92q45 36 76 99.5t41 144.5q3 30 3 58q0 49 -8 82l-325 -333q20 -41 51 -64t69 -23q48 0 93 36z" />
    <glyph glyph-name="zero.dnom" horiz-adv-x="352" 
d="M249.5 302.5q27.5 -37.5 27.5 -98.5q0 -24 -2 -36q-9 -75 -48.5 -123.5t-92.5 -48.5q-47 0 -74 37.5t-27 99.5q0 11 2 35q10 76 49 124t92 48q46 0 73.5 -37.5zM205.5 67.5q30.5 39.5 37.5 100.5q2 22 2 32q0 48 -20 78t-52 30q-37 0 -67.5 -39.5t-38.5 -100.5
q-2 -20 -2 -29q0 -49 20.5 -80t52.5 -31q37 0 67.5 39.5z" />
    <glyph glyph-name="one.dnom" horiz-adv-x="312" 
d="M193 344l-42 -344h-32l36 298l-58 -21l4 31z" />
    <glyph glyph-name="two.dnom" horiz-adv-x="352" 
d="M92.5 309.5q32.5 30.5 79.5 30.5q43 0 70 -24t27 -65q0 -10 -1 -15q-5 -37 -24.5 -64.5t-63.5 -65.5l-86 -74h165l-4 -32h-240l151 133q34 31 52 58t18 54q0 29 -18 46t-49 17q-35 0 -57 -21.5t-29 -56.5l-31 6q8 43 40.5 73.5z" />
    <glyph glyph-name="three.dnom" horiz-adv-x="344" 
d="M244.5 154.5q15.5 -18.5 15.5 -44.5q0 -27 -15.5 -53.5t-45.5 -43.5t-69 -17q-51 0 -78 28.5t-25 75.5l32 6q0 -32 17 -55t61 -23q28 0 48.5 12t31 29.5t10.5 33.5q0 29 -26 42t-71 13l4 32q36 1 68 15t35 43q4 28 -14.5 44t-50.5 16q-75 0 -91 -74l-29 6q9 44 40 72
t80 28t73.5 -24.5t24.5 -55.5q0 -26 -17 -49t-49 -34q25 -4 40.5 -22.5z" />
    <glyph glyph-name="four.dnom" horiz-adv-x="336" 
d="M251 96l-4 -32h-40l-8 -64h-32l8 64h-184l250 280l-30 -248h40zM198 256l-141 -160h122z" />
    <glyph glyph-name="five.dnom" horiz-adv-x="344" 
d="M235 199q27 -25 27 -69q0 -38 -19 -68.5t-49.5 -48t-63.5 -17.5q-48 0 -76.5 28.5t-26.5 71.5l33 4q-2 -31 18 -51.5t56 -20.5q40 0 67.5 27.5t27.5 69.5q0 30 -18 48.5t-49 18.5q-29 0 -51 -14.5t-39 -41.5h-33l54 200h163l-4 -32h-139l-31 -116q13 14 35 25t51 11
q40 0 67 -25z" />
    <glyph glyph-name="six.dnom" horiz-adv-x="352" 
d="M242.5 204.5q28.5 -27.5 28.5 -68.5q0 -9 -1 -13q-7 -56 -45 -91.5t-91 -35.5q-48 0 -76.5 29.5t-28.5 80.5q0 41 17 85.5t52 83.5t85 61h69q0 2 -36 -12t-73 -43.5t-59 -77.5q16 12 35 20.5t49 8.5q46 0 74.5 -27.5zM209 58q29 30 29 71q0 33 -21 52t-58 19
q-41 0 -70 -27.5t-29 -67.5q0 -33 21.5 -55t56.5 -22q42 0 71 30z" />
    <glyph glyph-name="seven.dnom" horiz-adv-x="320" 
d="M296 336l-189 -336h-36l173 304h-176l4 32h224z" />
    <glyph glyph-name="eight.dnom" horiz-adv-x="352" 
d="M257.5 152q12.5 -24 9.5 -50q-6 -48 -44 -77t-89 -29q-47 0 -77.5 25t-30.5 67q0 9 1 14q3 25 22 49t41 34q-16 10 -23.5 28t-5.5 37q5 40 38 65t77 25q41 0 68 -22t27 -57q0 -21 -13 -43t-34 -33q21 -9 33.5 -33zM117.5 290q-23.5 -18 -23.5 -45q0 -21 18 -33.5
t47 -12.5q33 0 56 15.5t23 42.5q0 22 -18 36.5t-47 14.5q-32 0 -55.5 -18zM206 51.5q29 23.5 29 56.5q0 27 -22.5 44t-57.5 17q-40 0 -68 -21.5t-28 -55.5q0 -28 22.5 -46t56.5 -18q39 0 68 23.5z" />
    <glyph glyph-name="nine.dnom" horiz-adv-x="352" 
d="M68.5 132q-28.5 28 -28.5 69q0 9 1 13q7 56 45 91t90 35q48 0 77 -29.5t29 -80.5q0 -13 -1 -20q-8 -63 -46.5 -121t-106.5 -89h-69q0 -2 36 12t73 44t59 78q-36 -30 -84 -30q-46 0 -74.5 28zM102 278.5q-29 -29.5 -29 -70.5q0 -33 21 -52.5t57 -19.5q41 0 70.5 28
t29.5 68q0 33 -21.5 54.5t-56.5 21.5q-42 0 -71 -29.5z" />
    <glyph glyph-name="zero.numr" horiz-adv-x="352" 
d="M292 638q27 -38 27 -100q0 -10 -2 -34q-10 -76 -49 -124t-92 -48q-47 0 -74 37.5t-27 98.5q0 23 2 36q9 75 48.5 123.5t92.5 48.5q47 0 74 -38zM231 386.5q25 22.5 40.5 61.5t15.5 86q0 49 -20.5 79.5t-52.5 30.5q-27 0 -51.5 -22t-40 -61t-15.5 -86q0 -49 20 -80t52 -31
q27 0 52 22.5z" />
    <glyph glyph-name="one.numr" horiz-adv-x="312" 
d="M234 680l-42 -344h-32l37 298l-59 -21l4 31z" />
    <glyph glyph-name="two.numr" horiz-adv-x="352" 
d="M134.5 645.5q32.5 30.5 79.5 30.5q43 0 69.5 -24t26.5 -64q0 -11 -1 -16q-5 -38 -24.5 -65.5t-63.5 -64.5l-86 -74h165l-4 -32h-240l151 133q34 30 52.5 57t18.5 54q0 29 -18.5 46.5t-49.5 17.5q-34 0 -56 -21.5t-30 -56.5l-31 6q9 43 41.5 73.5z" />
    <glyph glyph-name="three.numr" horiz-adv-x="344" 
d="M286 490.5q15 -18.5 15 -44.5q0 -27 -15.5 -53.5t-45 -43.5t-68.5 -17q-51 0 -78.5 29t-25.5 75l32 6q0 -32 17 -55t61 -23q28 0 48.5 12t31 29.5t10.5 33.5q0 29 -26 42t-71 13l4 32q36 1 68 15t35 43q4 28 -14.5 44t-50.5 16q-44 0 -63.5 -21t-26.5 -53l-30 6
q9 44 40.5 72t80.5 28t73.5 -23.5t24.5 -55.5q0 -25 -17 -49t-49 -35q25 -4 40 -22.5z" />
    <glyph glyph-name="four.numr" horiz-adv-x="336" 
d="M292 432l-4 -32h-40l-8 -64h-32l8 64h-184l250 280l-30 -248h40zM239 592l-141 -160h122z" />
    <glyph glyph-name="five.numr" horiz-adv-x="344" 
d="M276 535q27 -25 27 -68q0 -38 -18.5 -69t-48.5 -48.5t-64 -17.5q-48 0 -77 28.5t-27 71.5l33 4q-2 -31 18 -51.5t56 -20.5q40 0 68 27t28 68q0 31 -18 50t-49 19q-29 0 -51 -14.5t-39 -41.5h-33l53 200h163l-4 -32h-139l-31 -116q13 14 35.5 25t51.5 11q39 0 66 -25z" />
    <glyph glyph-name="six.numr" horiz-adv-x="352" 
d="M283.5 540.5q28.5 -27.5 28.5 -68.5q0 -9 -1 -13q-7 -56 -44.5 -91.5t-90.5 -35.5q-48 0 -77 30t-29 80q0 13 1 20q8 63 46.5 121.5t106.5 88.5h69q0 2 -36 -12t-73 -43.5t-59 -77.5q16 12 35 20.5t49 8.5q46 0 74.5 -27.5zM250 394q29 30 29 72q0 32 -20.5 51t-57.5 19
q-42 0 -71 -27.5t-29 -67.5q0 -33 21.5 -55t56.5 -22q42 0 71 30z" />
    <glyph glyph-name="seven.numr" horiz-adv-x="320" 
d="M337 672l-189 -336h-36l173 304h-176l4 32h224z" />
    <glyph glyph-name="eight.numr" horiz-adv-x="352" 
d="M299 487.5q13 -24.5 10 -49.5q-6 -48 -44 -77t-89 -29q-47 0 -77.5 25t-30.5 67q0 9 1 14q3 25 21.5 49t41.5 34q-14 9 -22 24t-8 32q0 43 34.5 71t81.5 28q41 0 68 -22t27 -58q0 -20 -13 -41.5t-34 -33.5q20 -9 33 -33.5zM158.5 626q-23.5 -18 -23.5 -45q0 -21 18 -33.5
t47 -12.5q33 0 56 15.5t23 42.5q0 22 -18 36.5t-47 14.5q-32 0 -55.5 -18zM247 387.5q29 23.5 29 56.5q0 27 -22 44t-57 17q-40 0 -68.5 -21.5t-28.5 -55.5q0 -28 22.5 -46t56.5 -18q39 0 68 23.5z" />
    <glyph glyph-name="nine.numr" horiz-adv-x="352" 
d="M109.5 468q-28.5 28 -28.5 69q0 9 1 13q7 56 45.5 91t90.5 35q48 0 76.5 -29t28.5 -79q0 -66 -39.5 -132t-114.5 -100h-69q0 -2 36 12t73 44t59 78q-36 -30 -84 -30q-46 0 -74.5 28zM143 614.5q-29 -29.5 -29 -70.5q0 -33 21.5 -52.5t57.5 -19.5q41 0 70 28t29 68
q0 33 -21.5 54.5t-56.5 21.5q-42 0 -71 -29.5z" />
    <glyph glyph-name="exclam.case" horiz-adv-x="272" 
d="M129 672h96l-83 -480h-48zM53 7.5q-16 15.5 -16 39.5q0 30 21.5 51.5t50.5 21.5q25 0 41 -16t16 -41q0 -29 -21.5 -50t-50.5 -21q-25 0 -41 15.5z" />
    <glyph glyph-name="exclamdown.case" horiz-adv-x="272" 
d="M219 664.5q16 -15.5 16 -39.5q0 -30 -21.5 -51.5t-50.5 -21.5q-25 0 -41 16t-16 41q0 29 21.5 50t50.5 21q25 0 41 -15.5zM178 480l-35 -480h-96l83 480h48z" />
    <glyph glyph-name="question.case" horiz-adv-x="512" 
d="M395.5 655.5q41.5 -24.5 61 -63t19.5 -82.5q0 -47 -22 -84t-51.5 -62.5t-73.5 -55.5q-36 -24 -48.5 -48t-19.5 -68h-61q5 42 20.5 78t53.5 64l33 23q33 23 52 38.5t33.5 38.5t18.5 54q1 5 1 15q0 48 -34.5 80.5t-94.5 32.5q-55 0 -95 -25.5t-62 -60.5l-41 46
q38 49 91.5 76.5t113.5 27.5q64 0 105.5 -24.5zM262 104q16 -16 16 -41q0 -29 -21.5 -50t-50.5 -21q-25 0 -41 15.5t-16 39.5q0 30 21.5 51.5t50.5 21.5q25 0 41 -16z" />
    <glyph glyph-name="questiondown.case" horiz-adv-x="512" 
d="M250 568q-16 16 -16 41q0 29 21.5 50t50.5 21q25 0 41 -15.5t16 -39.5q0 -30 -21.5 -51.5t-50.5 -21.5q-25 0 -41 16zM116.5 16.5q-41.5 24.5 -61 63t-19.5 82.5q0 47 22 84t51.5 62.5t73.5 55.5q36 24 48.5 48t19.5 68h61q-5 -42 -20.5 -78t-53.5 -64l-33 -23
q-33 -23 -52 -38.5t-33.5 -38.5t-18.5 -54q-1 -5 -1 -15q0 -48 34.5 -80.5t94.5 -32.5q55 0 95 25.5t62 60.5l41 -46q-38 -49 -91.5 -76.5t-113.5 -27.5q-64 0 -105.5 24.5z" />
    <glyph glyph-name="braceleft.case" horiz-adv-x="336" 
d="M170 -58q0 -29 12 -48t41 -26l-32 -60q-49 17 -68 44t-19 69q0 19 6 69l28 234q3 27 -9.5 50.5t-33 40t-39.5 21.5q34 9 69.5 41t40.5 71l28 234q7 54 16 84.5t34.5 56t76.5 41.5l16 -60q-39 -9 -55.5 -36t-21.5 -70l-26 -216q-14 -117 -85 -146q52 -23 52 -104
q0 -19 -3 -42l-26 -216q-2 -22 -2 -32z" />
    <glyph glyph-name="braceright.case" horiz-adv-x="336" 
d="M102 190q14 117 85 146q-52 23 -52 104q0 20 3 42l26 216q2 22 2 32q0 29 -12 48t-41 26l32 60q49 -17 68 -44t19 -69q0 -19 -6 -69l-28 -234q-3 -27 9.5 -50.5t33 -40t39.5 -21.5q-34 -9 -69.5 -41t-40.5 -71l-28 -234q-7 -54 -16 -84.5t-34.5 -56t-76.5 -41.5l-16 60
q39 9 55.5 36t21.5 70z" />
    <glyph glyph-name="bracketleft.case" horiz-adv-x="304" 
d="M80 -120h96l-8 -64h-160l128 1040h160l-8 -64h-96z" />
    <glyph glyph-name="bracketright.case" horiz-adv-x="304" 
d="M128 792l8 64h160l-128 -1040h-160l8 64h96l112 912h-96z" />
    <glyph glyph-name="parenleft.case" horiz-adv-x="280" 
d="M180.5 570q-45.5 -111 -60.5 -234q-7 -53 -7 -110q0 -180 73 -326l-59 -28q-37 70 -57.5 160.5t-20.5 190.5q0 60 7 113q16 130 66 252t119 212l53 -28q-68 -91 -113.5 -202z" />
    <glyph glyph-name="parenright.case" horiz-adv-x="280" 
d="M153 800q37 -70 57.5 -160.5t20.5 -190.5q0 -60 -7 -113q-16 -130 -66 -252t-119 -212l-53 28q68 91 113.5 202t60.5 234q7 53 7 110q0 180 -73 326z" />
    <glyph glyph-name="emdash.case" horiz-adv-x="592" 
d="M52 304l8 64h480l-8 -64h-480z" />
    <glyph glyph-name="endash.case" 
d="M52 304l8 64h384l-8 -64h-384z" />
    <glyph glyph-name="hyphen.case" horiz-adv-x="368" 
d="M52 304l8 64h256l-8 -64h-256z" />
    <glyph glyph-name="guillemotleft.case" horiz-adv-x="592" 
d="M120 336l133 -216h-64l-133 216l187 216h64zM344 336l133 -216h-64l-133 216l187 216h64z" />
    <glyph glyph-name="guillemotright.case" horiz-adv-x="592" 
d="M179 552l133 -216l-187 -216h-64l187 216l-133 216h64zM403 552l133 -216l-187 -216h-64l187 216l-133 216h64z" />
    <glyph glyph-name="guilsinglleft.case" horiz-adv-x="368" 
d="M120 336l133 -216h-64l-133 216l187 216h64z" />
    <glyph glyph-name="guilsinglright.case" horiz-adv-x="368" 
d="M179 552l133 -216l-187 -216h-64l187 216l-133 216h64z" />
    <glyph glyph-name="ampersand.ss01" horiz-adv-x="721" 
d="M624 0h-79l-72 111q-67 -64 -126 -91.5t-128 -27.5q-53 0 -95 22.5t-65 62t-23 86.5q0 14 1 21q9 68 52.5 115t97 72t98.5 33l-172 268h464l-8 -64h-336l253 -394l94 106h82l-141 -159zM339 83.5q50 27.5 101 80.5l-119 186q-39 -4 -90 -23t-90.5 -58.5t-39.5 -98.5
q0 -51 36 -82.5t92 -31.5q60 0 110 27.5z" />
    <glyph glyph-name="brevecy" horiz-adv-x="648" 
 />
    </font>
</defs>
</svg>
