<?xml version="1.0" standalone="no"?>
<!DOCTYPE svg PUBLIC "-//W3C//DTD SVG 1.1//EN" "http://www.w3.org/Graphics/SVG/1.1/DTD/svg11.dtd" >
<svg xmlns="http://www.w3.org/2000/svg" xmlns:xlink="http://www.w3.org/1999/xlink" version="1.1">
<metadata>
Created by FontForge 20170731 at Tue Mar  7 18:35:54 2017
 By Aleksey,,,
Copyright (c) Milos Mitrovic, 2016. All rights reserved.
</metadata>
<defs>
<font id="NoirPro-Bold" horiz-adv-x="656" >
  <font-face 
    font-family="Noir Pro Bold"
    font-weight="700"
    font-stretch="normal"
    units-per-em="1000"
    panose-1="0 0 8 0 0 0 0 0 0 0"
    ascent="800"
    descent="-200"
    x-height="512"
    cap-height="672"
    bbox="-192 -304 1192 1152"
    underline-thickness="50"
    underline-position="-150"
    unicode-range="U+0020-25CA"
  />
<missing-glyph horiz-adv-x="528" 
d="M433 -256h-335v1056h335v-1056zM177 729v-35h69v-39h-70v-35h176v35h-70v39h70v35h-175zM176 593v-110h176v36h-70v74h-106zM246 519h-35v38h35v-38zM176 455v-35h70v-39h-70v-35h106v74h70v35h-176zM317 391v-69h-141v-36h176v105h-35zM246 262v-59h36v25h35v-50h-106
v84h-35v-119h176v119h-106zM176 80v-120h176v120h-176zM317 -5h-106v50h106v-50zM176 -64v-35h74l-74 -49v-35h176v35h-108l74 49h34v35h-176z" />
    <glyph glyph-name=".notdef" horiz-adv-x="528" 
d="M433 -256h-335v1056h335v-1056zM177 729v-35h69v-39h-70v-35h176v35h-70v39h70v35h-175zM176 593v-110h176v36h-70v74h-106zM246 519h-35v38h35v-38zM176 455v-35h70v-39h-70v-35h106v74h70v35h-176zM317 391v-69h-141v-36h176v105h-35zM246 262v-59h36v25h35v-50h-106
v84h-35v-119h176v119h-106zM176 80v-120h176v120h-176zM317 -5h-106v50h106v-50zM176 -64v-35h74l-74 -49v-35h176v35h-108l74 49h34v35h-176z" />
    <glyph glyph-name=".null" horiz-adv-x="0" 
 />
    <glyph glyph-name="nonmarkingreturn" horiz-adv-x="333" 
 />
    <glyph glyph-name="space" unicode=" " horiz-adv-x="288" 
 />
    <glyph glyph-name="exclam" unicode="!" horiz-adv-x="304" 
d="M56 672h192l-32 -448h-128zM84 12q-28 28 -28 68t28 68t68 28t68 -28t28 -68t-28 -68t-68 -28t-68 28z" />
    <glyph glyph-name="quotedbl" unicode="&#x22;" horiz-adv-x="448" 
d="M56 416l-16 256h160l-16 -256h-128zM264 416l-16 256h160l-16 -256h-128z" />
    <glyph glyph-name="numbersign" unicode="#" horiz-adv-x="720" 
d="M553 392l-18 -112h97v-112h-116l-28 -168h-128l28 168h-112l-28 -168h-128l28 168h-108v112h127l18 112h-97v112h116l28 168h128l-28 -168h112l28 168h128l-28 -168h108v-112h-127zM407 280l18 112h-112l-18 -112h112z" />
    <glyph glyph-name="dollar" unicode="$" horiz-adv-x="640" 
d="M552.5 59.5q-63.5 -63.5 -192.5 -73.5v-66h-64v64q-75 3 -135.5 25t-98.5 47t-38 28l71 153q44 -34 92.5 -51t86.5 -22.5t38 -3.5q112 -4 112 41q0 14 -12 22t-35.5 13.5t-75.5 13.5q-135 21 -198 76t-63 144q0 57 28 104.5t86 77.5t142 35v65h64v-65q151 -15 224 -79
l-76 -144q0 2 -24.5 14.5t-68 23t-103.5 10.5q-80 0 -80 -32q0 -17 18 -25.5t70 -15.5q84 -11 146.5 -30.5t106 -65t43.5 -124.5q0 -96 -63.5 -159.5z" />
    <glyph glyph-name="percent" unicode="%" horiz-adv-x="848" 
d="M124.5 374.5q-38.5 22.5 -61.5 61t-23 84.5q0 45 23 83.5t61.5 61.5t84.5 23q45 0 83.5 -22.5t61 -61.5t22.5 -84q0 -46 -22.5 -84.5t-61 -61t-83.5 -22.5q-46 0 -84.5 22.5zM134 0l468 672h112l-468 -672h-112zM247.5 481q16.5 17 16.5 39q0 23 -16.5 39.5t-39.5 16.5
q-22 0 -39 -16.5t-17 -39.5q0 -22 17 -39t39 -17q23 0 39.5 17zM556.5 6.5q-38.5 22.5 -61.5 61t-23 84.5q0 45 23 83.5t61.5 61.5t84.5 23q45 0 83.5 -22.5t61 -61.5t22.5 -84q0 -46 -22.5 -84.5t-61 -61t-83.5 -22.5q-46 0 -84.5 22.5zM679.5 113q16.5 17 16.5 39
q0 23 -16.5 39.5t-39.5 16.5q-22 0 -39 -16.5t-17 -39.5q0 -22 17 -39t39 -17q23 0 39.5 17z" />
    <glyph glyph-name="ampersand" unicode="&#x26;" horiz-adv-x="832" 
d="M622 154l169 -154h-239l-49 46q-50 -32 -95 -47t-104 -15q-72 0 -132 26t-96 77t-36 121q0 60 35 102.5t82 59.5q-40 34 -55.5 67.5t-13.5 73.5q2 46 35.5 86.5t91.5 65.5t129 25q74 0 132 -23.5t91 -66t33 -96.5q0 -51 -22.5 -83.5t-53 -50t-89.5 -44.5l78 -71l71 67
h208zM390.5 450.5q18.5 16.5 18.5 39.5q0 24 -18.5 39t-49.5 15q-30 0 -46.5 -13.5t-16.5 -34.5q0 -19 12 -35.5t41 -42.5q41 16 59.5 32.5zM392 150l-128 120q-16 -9 -24 -27.5t-8 -38.5q0 -30 24.5 -53t61.5 -23q42 0 74 22z" />
    <glyph glyph-name="quotesingle" unicode="'" horiz-adv-x="240" 
d="M56 416l-16 256h160l-16 -256h-128z" />
    <glyph glyph-name="parenleft" unicode="(" horiz-adv-x="368" 
d="M216 304q0 -222 128 -416l-176 -48q-128 232 -128 464t128 464l176 -48q-128 -194 -128 -416z" />
    <glyph glyph-name="parenright" unicode=")" horiz-adv-x="368" 
d="M200 768q128 -232 128 -464t-128 -464l-176 48q128 194 128 416t-128 416z" />
    <glyph glyph-name="asterisk" unicode="*" horiz-adv-x="416" 
d="M342 644l34 -97l-94 -26l60 -74l-79 -59l-55 78l-54 -78l-79 59l60 74l-95 26l34 97l90 -39l-4 99h98l-5 -99z" />
    <glyph glyph-name="plus" unicode="+" horiz-adv-x="512" 
d="M472 248h-160v-160h-112v160h-160v112h160v160h112v-160h160v-112z" />
    <glyph glyph-name="comma" unicode="," horiz-adv-x="320" 
d="M88 160h192l-128 -288h-128z" />
    <glyph glyph-name="hyphen" unicode="-" horiz-adv-x="400" 
d="M40 200v128h320v-128h-320z" />
    <glyph glyph-name="period" unicode="." horiz-adv-x="272" 
d="M68 12q-28 28 -28 68t28 68t68 28t68 -28t28 -68t-28 -68t-68 -28t-68 28z" />
    <glyph glyph-name="slash" unicode="/" horiz-adv-x="528" 
d="M40 -80l320 832h128l-320 -832h-128z" />
    <glyph glyph-name="zero" unicode="0" horiz-adv-x="688" 
d="M501.5 641q69.5 -47 108 -127.5t38.5 -177.5t-38.5 -177.5t-108 -127.5t-157.5 -47q-89 0 -158.5 47t-107.5 127.5t-38 177.5t38.5 177.5t107.5 127.5t158 47q88 0 157.5 -47zM400 183.5q26 23.5 41 64t15 88.5t-15 88.5t-41 64t-56 23.5t-56 -23.5t-41 -64t-15 -88.5
t15 -88.5t41 -64t56 -23.5t56 23.5z" />
    <glyph glyph-name="one" unicode="1" horiz-adv-x="464" 
d="M392 688v-688h-192v473l-144 -28v163z" />
    <glyph glyph-name="two" unicode="2" 
d="M71.5 554.5q31.5 58.5 93.5 96t148 37.5t151 -31.5t100.5 -87.5t35.5 -128q0 -67 -49 -137t-141 -128h206v-176h-576l288 304q46 49 62 77t16 51q0 37 -24 58.5t-62 21.5q-39 0 -66 -26t-27 -70l-187 16q0 64 31.5 122.5z" />
    <glyph glyph-name="three" unicode="3" 
d="M589.5 295q26.5 -39 26.5 -87q0 -54 -31 -105.5t-96 -85t-161 -33.5q-81 0 -146 26t-103.5 80t-38.5 134l192 16q0 -48 27.5 -70t75.5 -22q36 0 59 18t23 45q0 37 -36 53t-107 16v128q0 -2 37 1.5t67 17.5t30 44q0 22 -23 38.5t-57 16.5q-40 0 -67 -21.5t-29 -64.5
l-176 16q12 112 85 172t187 60q85 0 146.5 -29t93.5 -76.5t32 -102.5q0 -42 -21.5 -73.5t-58.5 -51.5q43 -21 69.5 -60z" />
    <glyph glyph-name="four" unicode="4" horiz-adv-x="688" 
d="M648 272v-160h-80v-112h-192v112h-336v144l288 416h240v-400h80zM376 480l-128 -208h128v208z" />
    <glyph glyph-name="five" unicode="5" 
d="M549 396q67 -52 67 -156q0 -79 -37 -136.5t-104 -88.5t-155 -31q-80 0 -143.5 26.5t-100 77t-36.5 120.5l199 12q5 -33 30 -54.5t59 -21.5q38 0 64.5 25.5t26.5 62.5q0 35 -25.5 53.5t-65.5 18.5q-26 0 -47 -8.5t-33 -23.5h-193l51 400h446v-176h-288l-6 -64
q15 7 37.5 10.5t41 4.5t23.5 1q122 0 189 -52z" />
    <glyph glyph-name="six" unicode="6" 
d="M509 447.5q53 -32.5 80 -84t27 -107.5q0 -81 -36 -143t-101.5 -95.5t-150.5 -33.5q-135 0 -211.5 72.5t-76.5 205.5q0 76 47 186t196 224h285q0 2 -49 -26t-105.5 -72.5t-98.5 -103.5q0 1 19 5.5t46 4.5q76 0 129 -32.5zM396 183.5q28 23.5 28 56.5t-28 56.5t-68 23.5
t-68 -23.5t-28 -56.5t28 -56.5t68 -23.5t68 23.5z" />
    <glyph glyph-name="seven" unicode="7" horiz-adv-x="624" 
d="M632 672l-304 -672h-224l240 496h-304v176h592z" />
    <glyph glyph-name="eight" unicode="8" 
d="M592.5 296.5q23.5 -39.5 23.5 -88.5q0 -63 -33.5 -113.5t-98.5 -80.5t-156 -30t-156 30t-98.5 80.5t-33.5 113.5q0 49 23.5 88.5t62.5 58.5q-37 22 -54.5 55t-17.5 70q0 58 35 105.5t97.5 75t141.5 27.5t141.5 -27.5t97.5 -75t35 -105.5q0 -37 -17.5 -70t-54.5 -55
q39 -19 62.5 -58.5zM266 509.5q-26 -18.5 -26 -45.5t26 -45.5t62 -18.5t62 18.5t26 45.5t-26 45.5t-62 18.5t-62 -18.5zM396 165q28 21 28 51t-28 51t-68 21t-68 -21t-28 -51t28 -51t68 -21t68 21z" />
    <glyph glyph-name="nine" unicode="9" 
d="M147 224.5q-53 32.5 -80 84t-27 107.5q0 81 36 143t101.5 95.5t150.5 33.5q135 0 211.5 -72.5t76.5 -205.5q0 -76 -47 -186t-196 -224h-285q0 -2 49 26t105.5 72.5t98.5 103.5q0 -1 -18.5 -5.5t-46.5 -4.5q-76 0 -129 32.5zM260 488.5q-28 -23.5 -28 -56.5t28 -56.5
t68 -23.5t68 23.5t28 56.5t-28 56.5t-68 23.5t-68 -23.5z" />
    <glyph glyph-name="colon" unicode=":" horiz-adv-x="272" 
d="M68 364q-28 28 -28 68t28 68t68 28t68 -28t28 -68t-28 -68t-68 -28t-68 28zM68 12q-28 28 -28 68t28 68t68 28t68 -28t28 -68t-28 -68t-68 -28t-68 28z" />
    <glyph glyph-name="semicolon" unicode=";" horiz-adv-x="320" 
d="M116 364q-28 28 -28 68t28 68t68 28t68 -28t28 -68t-28 -68t-68 -28t-68 28zM88 160h192l-128 -288h-128z" />
    <glyph glyph-name="less" unicode="&#x3c;" horiz-adv-x="544" 
d="M40 256v96l464 224v-128l-320 -144l320 -144v-128z" />
    <glyph glyph-name="equal" unicode="=" horiz-adv-x="512" 
d="M472 448v-112h-432v112h432zM472 272v-112h-432v112h432z" />
    <glyph glyph-name="greater" unicode="&#x3e;" horiz-adv-x="544" 
d="M40 160l320 144l-320 144v128l464 -224v-96l-464 -224v128z" />
    <glyph glyph-name="question" unicode="?" horiz-adv-x="568" 
d="M469.5 633.5q58.5 -54.5 58.5 -137.5q0 -35 -10.5 -60t-29 -45.5t-56.5 -54.5q-32 -28 -51.5 -57.5t-20.5 -70.5h-160q0 98 52 152q21 21 30 29q26 25 36 38t10 29q0 32 -24 46.5t-65 14.5q-33 0 -69 -11.5t-61 -37.5l-69 140q93 80 240 80q131 0 189.5 -54.5zM348 148
q28 -28 28 -68t-28 -68t-68 -28t-68 28t-28 68t28 68t68 28t68 -28z" />
    <glyph glyph-name="at" unicode="@" horiz-adv-x="1064" 
d="M993.5 195q-30.5 -61 -82.5 -96t-114 -35q-68 0 -114 24.5t-63 64.5q-23 -32 -60.5 -52.5t-82.5 -20.5q-59 0 -102 28t-65.5 74t-22.5 97q0 13 1 19q5 61 32.5 109.5t74.5 76.5t108 28q40 0 73 -19t48 -43l4 46h132l-23 -236q-3 -35 11 -53.5t52 -19.5q16 0 38 10.5
t40 41.5t18 87q0 90 -50 166t-133 120t-177 44q-100 0 -184.5 -49.5t-134 -134t-49.5 -184.5t49.5 -184.5t134 -134t184.5 -49.5q73 0 144 29l37 -123q-87 -34 -181 -34q-135 0 -249 66.5t-180.5 180.5t-66.5 249t66.5 249t180.5 180.5t249 66.5q126 0 238.5 -62t181 -166.5
t68.5 -225.5q0 -74 -30.5 -135zM598 344.5q-12 24.5 -33.5 40t-45.5 15.5q-43 0 -73.5 -31t-30.5 -85q0 -46 28 -69t70 -23q38 0 64.5 28t30.5 76q2 24 -10 48.5z" />
    <glyph glyph-name="A" unicode="A" horiz-adv-x="720" 
d="M728 0h-195l-43 112h-260l-43 -112h-195l278 672h180zM434 256l-74 192l-74 -192h148z" />
    <glyph glyph-name="B" unicode="B" 
d="M605 303.5q27 -44.5 27 -101.5q0 -58 -27.5 -104t-80 -72t-122.5 -26h-346v672h288q118 0 187 -45.5t69 -130.5q0 -49 -22.5 -85.5t-58.5 -49.5q59 -13 86 -57.5zM248 416h80q80 0 80 56t-80 56h-80v-112zM414.5 160q25.5 16 25.5 48t-25.5 48t-70.5 16h-96v-128h96
q45 0 70.5 16z" />
    <glyph glyph-name="C" unicode="C" 
d="M491.5 178.5q39.5 18.5 67.5 49.5l73 -163q-44 -38 -106.5 -59.5t-123.5 -21.5q-102 0 -189 47.5t-138 128.5t-51 176t51 176t138 128.5t189 47.5q61 0 123.5 -21t106.5 -59l-73 -164q-28 31 -67.5 49.5t-84.5 18.5q-52 0 -95.5 -23.5t-69.5 -64t-26 -88.5t26 -88.5
t69.5 -64t95.5 -23.5q45 0 84.5 18.5z" />
    <glyph glyph-name="D" unicode="D" horiz-adv-x="704" 
d="M518.5 627.5q79.5 -44.5 120.5 -120.5t41 -171q0 -94 -42 -170.5t-122 -121t-189 -44.5h-271v672h271q112 0 191.5 -44.5zM410.5 198q33.5 22 55.5 59t22 79t-22 79t-55.5 59t-66.5 22h-96v-320h96q33 0 66.5 22z" />
    <glyph glyph-name="E" unicode="E" horiz-adv-x="544" 
d="M248 496v-80h208v-160h-208v-80h256v-176h-448v672h448v-176h-256z" />
    <glyph glyph-name="F" unicode="F" horiz-adv-x="528" 
d="M56 0v672h448v-176h-256v-80h208v-160h-208v-256h-192z" />
    <glyph glyph-name="G" unicode="G" horiz-adv-x="752" 
d="M728 336q0 -96 -44.5 -177t-123.5 -128t-176 -47q-98 0 -180.5 47.5t-131 128.5t-48.5 176t48.5 176t131 128.5t180.5 47.5q104 0 184 -51.5t127 -140.5l-181 -49q-24 31 -57.5 48t-72.5 17q-46 0 -84.5 -23.5t-61 -64t-22.5 -88.5t22.5 -88.5t61 -64t84.5 -23.5
q49 0 87.5 26t58.5 70h-186v144h378q6 -33 6 -64z" />
    <glyph glyph-name="H" unicode="H" horiz-adv-x="720" 
d="M664 672v-672h-192v248h-224v-248h-192v672h192v-248h224v248h192z" />
    <glyph glyph-name="I" unicode="I" horiz-adv-x="304" 
d="M56 0v672h192v-672h-192z" />
    <glyph glyph-name="J" unicode="J" horiz-adv-x="512" 
d="M472 672v-416q0 -134 -75.5 -203t-208.5 -69q-46 0 -92.5 18t-71.5 46l83 151q13 -18 33 -28.5t44 -10.5q42 0 69 24.5t27 71.5v416h192z" />
    <glyph glyph-name="K" unicode="K" horiz-adv-x="704" 
d="M696 0h-240l-208 288v-288h-192v672h192v-256l192 256h240l-256 -320z" />
    <glyph glyph-name="L" unicode="L" horiz-adv-x="528" 
d="M504 176v-176h-448v672h192v-496h256z" />
    <glyph glyph-name="M" unicode="M" horiz-adv-x="880" 
d="M856 0h-192l-32 352l-112 -352h-160l-112 352l-32 -352h-192l64 672h192l160 -400l160 400h192z" />
    <glyph glyph-name="N" unicode="N" horiz-adv-x="752" 
d="M696 672v-672h-192l-256 368v-368h-192v672h192l256 -368v368h192z" />
    <glyph glyph-name="O" unicode="O" horiz-adv-x="784" 
d="M576.5 640.5q84.5 -47.5 134 -128.5t49.5 -176t-49.5 -176t-134 -128.5t-184.5 -47.5t-184.5 47.5t-134 128.5t-49.5 176t49.5 176t134 128.5t184.5 47.5t184.5 -47.5zM480.5 183.5q40.5 23.5 64 64t23.5 88.5t-23.5 88.5t-64 64t-88.5 23.5t-88.5 -23.5t-64 -64
t-23.5 -88.5t23.5 -88.5t64 -64t88.5 -23.5t88.5 23.5z" />
    <glyph glyph-name="P" unicode="P" horiz-adv-x="640" 
d="M551.5 611q64.5 -61 64.5 -163q0 -66 -27 -120.5t-77.5 -87t-119.5 -32.5h-144v-208h-192v672h304q127 0 191.5 -61zM401 386q23 18 23 54q0 35 -23 53.5t-59 18.5h-94v-144h94q36 0 59 18z" />
    <glyph glyph-name="Q" unicode="Q" horiz-adv-x="784" 
d="M776 0h-192l-19 25q-82 -41 -173 -41q-100 0 -184.5 47.5t-134 128.5t-49.5 176t49.5 176t134 128.5t184.5 47.5t184.5 -47.5t134 -128.5t49.5 -176q0 -63 -23 -121.5t-64 -105.5zM568 336q0 48 -23.5 88.5t-64 64t-88.5 23.5t-88.5 -23.5t-64 -64t-23.5 -88.5
t23.5 -88.5t64 -64t88.5 -23.5q31 0 61 11l-77 101h144l24 -25q24 42 24 89z" />
    <glyph glyph-name="R" unicode="R" horiz-adv-x="672" 
d="M648 0h-224l-139 208h-37v-208h-192v672h304q127 0 191.5 -61t64.5 -163q0 -76 -35 -135.5t-98 -86.5zM401 386q23 18 23 54q0 35 -23 53.5t-59 18.5h-94v-144h94q36 0 59 18z" />
    <glyph glyph-name="S" unicode="S" horiz-adv-x="640" 
d="M466.5 408.5q62.5 -19.5 106 -65t43.5 -124.5q0 -105 -75 -170t-229 -65q-80 0 -144 22t-104 48.5t-40 29.5l71 153q44 -34 92.5 -51t86.5 -22.5t38 -3.5q112 -4 112 41q0 14 -12 22t-35.5 13.5t-75.5 13.5q-135 21 -198 76t-63 144q0 61 32 110.5t97 78.5t161 29
q0 2 50.5 -3.5t107 -23t96.5 -53.5l-76 -144q0 2 -24.5 14.5t-68 23t-103.5 10.5q-80 0 -80 -32q0 -17 18 -25.5t70 -15.5q84 -11 146.5 -30.5z" />
    <glyph glyph-name="T" unicode="T" horiz-adv-x="592" 
d="M568 672v-176h-176v-496h-192v496h-176v176h544z" />
    <glyph glyph-name="U" unicode="U" horiz-adv-x="720" 
d="M680 672v-384q0 -89 -38.5 -158t-111 -107.5t-170.5 -38.5t-170.5 38.5t-111 107.5t-38.5 158v384h208v-386q0 -59 33.5 -92.5t78.5 -33.5q46 0 79 33.5t33 92.5v386h208z" />
    <glyph glyph-name="V" unicode="V" horiz-adv-x="720" 
d="M-8 672h224l144 -402l144 402h224l-272 -672h-192z" />
    <glyph glyph-name="W" unicode="W" horiz-adv-x="1024" 
d="M696 272l112 400h216l-224 -672h-200l-88 320l-88 -320h-200l-224 672h216l112 -400l96 400h176z" />
    <glyph glyph-name="X" unicode="X" horiz-adv-x="736" 
d="M728 0h-226l-134 212l-134 -212h-226l228 352l-211 320h226l117 -188l117 188h226l-211 -320z" />
    <glyph glyph-name="Y" unicode="Y" horiz-adv-x="688" 
d="M696 672l-256 -400v-272h-192v272l-256 400h224l128 -208l128 208h224z" />
    <glyph glyph-name="Z" unicode="Z" horiz-adv-x="640" 
d="M24 0l280 496h-264v176h576l-280 -496h264v-176h-576z" />
    <glyph glyph-name="bracketleft" unicode="[" horiz-adv-x="368" 
d="M232 -48h80v-160h-256v1040h256v-160h-80v-720z" />
    <glyph glyph-name="backslash" unicode="\" horiz-adv-x="528" 
d="M40 752h128l320 -832h-128z" />
    <glyph glyph-name="bracketright" unicode="]" horiz-adv-x="368" 
d="M56 672v160h256v-1040h-256v160h80v720h-80z" />
    <glyph glyph-name="asciicircum" unicode="^" horiz-adv-x="560" 
d="M216 704h128l176 -272h-128l-112 176l-112 -176h-128z" />
    <glyph glyph-name="underscore" unicode="_" horiz-adv-x="576" 
d="M24 -160v128h528v-128h-528z" />
    <glyph glyph-name="grave" unicode="`" horiz-adv-x="784" 
d="M376 736l-160 160h192l96 -160h-128z" />
    <glyph glyph-name="a" unicode="a" 
d="M600 512v-512h-192v52q-57 -68 -144 -68q-65 0 -120.5 36.5t-87.5 99t-32 136.5t32 136.5t87.5 99t120.5 36.5q87 0 144 -68v52h192zM380 177q28 33 28 79t-28 79t-68 33t-68 -33t-28 -79t28 -79t68 -33t68 33z" />
    <glyph glyph-name="b" unicode="b" 
d="M512.5 491.5q55.5 -36.5 87.5 -99t32 -136.5t-32 -136.5t-87.5 -99t-120.5 -36.5q-87 0 -144 68v-52h-192v704h192v-244q57 68 144 68q65 0 120.5 -36.5zM412 177q28 33 28 79t-28 79t-68 33t-68 -33t-28 -79t28 -79t68 -33t68 33z" />
    <glyph glyph-name="c" unicode="c" horiz-adv-x="528" 
d="M504 47q-33 -33 -86 -48t-109 -15q-87 0 -152 36t-99 98t-34 138t34.5 138t99 98t151.5 36q55 0 108 -15t87 -48l-74 -145q-39 48 -102 48q-46 0 -79 -32.5t-33 -79.5q0 -46 33 -79t79 -33q65 0 102 48z" />
    <glyph glyph-name="d" unicode="d" 
d="M600 704v-704h-192v52q-57 -68 -144 -68q-65 0 -120.5 36.5t-87.5 99t-32 136.5t32 136.5t87.5 99t120.5 36.5q87 0 144 -68v244h192zM380 177q28 33 28 79t-28 79t-68 33t-68 -33t-28 -79t28 -79t68 -33t68 33z" />
    <glyph glyph-name="e" unicode="e" horiz-adv-x="576" 
d="M548 208h-326q6 -30 38 -47t78 -17q36 0 65.5 7t46 14.5t20.5 10.5l49 -144q0 -2 -27 -14.5t-71.5 -23t-100.5 -10.5q-99 0 -165.5 36t-98.5 97.5t-32 138.5t30.5 138.5t91.5 97.5t150 36q123 0 189.5 -71.5t66.5 -200.5q0 -16 -4 -48zM356 304q0 34 -17.5 57t-50.5 23
q-29 0 -47.5 -24t-18.5 -56h134z" />
    <glyph glyph-name="f" unicode="f" horiz-adv-x="432" 
d="M88 512q1 96 40 152t136 56q77 0 128 -16v-144q-44 7 -60 7q-29 0 -40.5 -12.5t-11.5 -42.5h112v-160h-112v-352h-192v352h-64v160h64z" />
    <glyph glyph-name="g" unicode="g" 
d="M600 512v-464q0 -157 -78.5 -238.5t-225.5 -81.5q-60 0 -117 18t-98 39t-41 23l64 144q0 -2 26 -15.5t65 -25.5t86 -12q127 0 127 133v20q-57 -68 -144 -68q-65 0 -120.5 36.5t-87.5 99t-32 136.5t32 136.5t87.5 99t120.5 36.5q87 0 144 -68v52h192zM380 177q28 33 28 79
t-28 79t-68 33t-68 -33t-28 -79t28 -79t68 -33t68 33z" />
    <glyph glyph-name="h" unicode="h" horiz-adv-x="624" 
d="M488 502.5q44 -25.5 70 -76t26 -122.5v-304h-192v272q0 42 -21 61t-51 19q-29 0 -50.5 -20t-21.5 -60v-272h-192v704h192v-256q21 39 60 59.5t84 20.5q52 0 96 -25.5z" />
    <glyph glyph-name="i" unicode="i" horiz-adv-x="304" 
d="M78.5 590.5q-30.5 30.5 -30.5 73.5t30.5 73.5t73.5 30.5t73.5 -30.5t30.5 -73.5t-30.5 -73.5t-73.5 -30.5t-73.5 30.5zM56 512h192v-512h-192v512z" />
    <glyph glyph-name="j" unicode="j" horiz-adv-x="304" 
d="M78.5 590.5q-30.5 30.5 -30.5 73.5t30.5 73.5t73.5 30.5t73.5 -30.5t30.5 -73.5t-30.5 -73.5t-73.5 -30.5t-73.5 30.5zM56 512h192v-496q0 -150 -63.5 -219t-192.5 -69l-32 160q39 0 67.5 27.5t28.5 84.5v512z" />
    <glyph glyph-name="k" unicode="k" horiz-adv-x="608" 
d="M616 0h-224l-144 208v-208h-192v704h192v-384l128 192h224l-192 -244z" />
    <glyph glyph-name="l" unicode="l" horiz-adv-x="304" 
d="M248 704v-704h-192v704h192z" />
    <glyph glyph-name="m" unicode="m" horiz-adv-x="928" 
d="M839.5 470.5q48.5 -57.5 48.5 -166.5v-304h-192v272q0 43 -14 61.5t-42 18.5q-29 0 -50.5 -20t-21.5 -60v-272h-192v272q0 43 -14 61.5t-42 18.5q-29 0 -50.5 -20t-21.5 -60v-272h-192v512h192v-64q21 39 60 59.5t84 20.5q46 0 82.5 -20t59.5 -59q64 79 178 79
q79 0 127.5 -57.5z" />
    <glyph glyph-name="n" unicode="n" horiz-adv-x="624" 
d="M488 502.5q44 -25.5 70 -76t26 -122.5v-304h-192v272q0 42 -21 61t-51 19q-29 0 -50.5 -20t-21.5 -60v-272h-192v512h192v-64q21 39 60 59.5t84 20.5q52 0 96 -25.5z" />
    <glyph glyph-name="o" unicode="o" horiz-adv-x="624" 
d="M461 491.5q66 -36.5 102.5 -98.5t36.5 -137t-36.5 -137t-102 -98.5t-149.5 -36.5q-87 0 -152.5 36t-100.5 98.5t-35 137.5q0 76 34.5 138t100 98t153.5 36q83 0 149 -36.5zM380 177q28 33 28 79t-28 79t-68 33t-68 -33t-28 -79t28 -79t68 -33t68 33z" />
    <glyph glyph-name="p" unicode="p" 
d="M512.5 491.5q55.5 -36.5 87.5 -99t32 -136.5t-32 -136.5t-87.5 -99t-120.5 -36.5q-87 0 -144 68v-308h-192v768h192v-52q57 68 144 68q65 0 120.5 -36.5zM412 177q28 33 28 79t-28 79t-68 33t-68 -33t-28 -79t28 -79t68 -33t68 33z" />
    <glyph glyph-name="q" unicode="q" 
d="M408 460v52h192v-768h-192v308q-57 -68 -144 -68q-65 0 -120.5 36.5t-87.5 99t-32 136.5t32 136.5t87.5 99t120.5 36.5q87 0 144 -68zM380 177q28 33 28 79t-28 79t-68 33t-68 -33t-28 -79t28 -79t68 -33t68 33z" />
    <glyph glyph-name="r" unicode="r" horiz-adv-x="464" 
d="M321.5 493q49.5 30 118.5 35v-217q-34 21 -74 21q-26 0 -53.5 -14.5t-46 -42.5t-18.5 -66v-209h-192v512h192v-105q24 56 73.5 86z" />
    <glyph glyph-name="s" unicode="s" horiz-adv-x="560" 
d="M429.5 314.5q49.5 -15.5 78 -50.5t28.5 -98q0 -84 -64 -133t-199 -49q-71 0 -126 16t-89 35t-34 21l48 136q31 -21 69.5 -34t67 -18t36.5 -6q21 -3 44 -3q24 0 39.5 4t15.5 13q0 8 -5.5 12t-23.5 8t-62 10q-213 30 -213 158q0 86 67.5 139t200.5 53q9 0 41 -2.5t75.5 -12
t79.5 -28.5l-48 -137q0 1 -23.5 10t-61.5 16.5t-87 7.5q-28 0 -40 -3.5t-12 -13.5q0 -12 14 -16t53 -9q81 -10 130.5 -25.5z" />
    <glyph glyph-name="t" unicode="t" horiz-adv-x="416" 
d="M280 352v-128q0 -47 10.5 -65.5t44.5 -18.5q20 0 41 4v-144q-52 -16 -128 -16q-87 0 -123 42.5t-37 130.5v195h-64v160h64v160h192v-160h96v-160h-96z" />
    <glyph glyph-name="u" unicode="u" horiz-adv-x="624" 
d="M136 9.5q-44 25.5 -70 76t-26 122.5v304h192v-272q0 -42 21 -61t51 -19q29 0 50.5 20t21.5 60v272h192v-512h-192v64q-21 -39 -60 -59.5t-84 -20.5q-52 0 -96 25.5z" />
    <glyph glyph-name="v" unicode="v" horiz-adv-x="560" 
d="M-8 512h192l96 -272l91 272h197l-208 -512h-160z" />
    <glyph glyph-name="w" unicode="w" horiz-adv-x="832" 
d="M832 512l-176 -512h-160l-80 248l-80 -248h-160l-176 512h192l68 -264l80 264h152l80 -264l68 264h192z" />
    <glyph glyph-name="x" unicode="x" horiz-adv-x="608" 
d="M600 0h-200l-96 144l-96 -144h-200l176 272l-160 240h200l80 -128l80 128h200l-160 -240z" />
    <glyph glyph-name="y" unicode="y" horiz-adv-x="560" 
d="M72 -256l112 272l-192 496h192l96 -272l96 272h192l-304 -768h-192z" />
    <glyph glyph-name="z" unicode="z" horiz-adv-x="560" 
d="M24 0l224 352h-208v160h496l-224 -352h208v-160h-496z" />
    <glyph glyph-name="braceleft" unicode="{" horiz-adv-x="432" 
d="M332 -90q20 -29 60 -38l-112 -96q-70 26 -107 72t-37 110v234q0 27 -15.5 50.5t-38 40t-42.5 21.5q20 5 42.5 21.5t38 40t15.5 50.5v234q0 64 37 110t107 72l112 -96q-40 -9 -60 -38t-20 -68v-180q0 -56 -19.5 -93.5t-55.5 -52.5q36 -15 55.5 -52.5t19.5 -93.5v-180
q0 -39 20 -68z" />
    <glyph glyph-name="bar" unicode="|" horiz-adv-x="224" 
d="M56 -256v1024h112v-1024h-112z" />
    <glyph glyph-name="braceright" unicode="}" horiz-adv-x="432" 
d="M120 158q0 56 19.5 93.5t55.5 52.5q-36 15 -55.5 52.5t-19.5 93.5v180q0 39 -20 68t-60 38l112 96q70 -26 107 -72t37 -110v-234q0 -27 15.5 -50.5t38 -40t42.5 -21.5q-20 -5 -42.5 -21.5t-38 -40t-15.5 -50.5v-234q0 -64 -37 -110t-107 -72l-112 96q40 9 60 38t20 68
v180z" />
    <glyph glyph-name="asciitilde" unicode="~" horiz-adv-x="576" 
d="M536 334q-29 -59 -68.5 -85.5t-82.5 -26.5q-25 0 -46.5 6.5t-60.5 22.5q-38 15 -56.5 21t-33.5 6q-19 0 -33 -12.5t-26 -41.5l-89 30q29 59 68.5 85.5t82.5 26.5q21 0 43 -6.5t40.5 -14t23.5 -9.5q34 -13 52.5 -19t33.5 -6q21 0 36 13t27 44z" />
    <glyph glyph-name="exclamdown" unicode="&#xa1;" horiz-adv-x="304" 
d="M220 500q28 -28 28 -68t-28 -68t-68 -28t-68 28t-28 68t28 68t68 28t68 -28zM216 288l32 -448h-192l32 448h128z" />
    <glyph glyph-name="cent" unicode="&#xa2;" horiz-adv-x="528" 
d="M504 47q-27 -27 -69.5 -42.5t-90.5 -19.5v-65h-64v65q-79 6 -137 43t-88.5 96.5t-30.5 131.5q0 71 30.5 130.5t88.5 97t137 43.5v65h64v-66q46 -3 88.5 -18t71.5 -43l-74 -145q-39 48 -102 48q-46 0 -79 -32.5t-33 -79.5q0 -46 33 -79t79 -33q65 0 102 48z" />
    <glyph glyph-name="sterling" unicode="&#xa3;" horiz-adv-x="608" 
d="M584 98q-31 -61 -73.5 -87.5t-89.5 -26.5q-59 0 -117 23q-59 23 -101 23q-49 0 -69 -30l-110 112q12 30 49 56q45 32 43 112h-92v112h65q-17 51 -17 104t32.5 97t90.5 69.5t133 25.5q67 0 120 -18t104 -62l-69 -144q-22 34 -59.5 49t-65.5 15q-44 0 -70 -15t-26 -56
q0 -20 7.5 -40t9.5 -25h113v-112h-100q1 -29 -7 -59t-21 -44q66 -33 122 -33q37 0 63.5 15.5t38.5 48.5z" />
    <glyph glyph-name="currency" unicode="&#xa4;" horiz-adv-x="510" 
d="M398 233l72 -71l-55 -57l-73 71q-40 -24 -87 -24q-50 0 -89 24l-71 -71l-55 56l70 72q-24 39 -24 87q0 50 24 87l-70 73l57 55l72 -75q24 14 43.5 21t42.5 7q41 0 87 -28l71 75l57 -55l-72 -73q24 -39 24 -87q0 -45 -24 -87zM293.5 281q16.5 17 16.5 39q0 23 -16.5 39.5
t-39.5 16.5q-22 0 -39 -16.5t-17 -39.5q0 -22 17 -39t39 -17q23 0 39.5 17z" />
    <glyph glyph-name="yen" unicode="&#xa5;" horiz-adv-x="752" 
d="M477 280h75v-64h-80v-48h80v-64h-80v-104h-192v104h-80v64h80v48h-80v64h75l-251 392h224l128 -208l128 208h224z" />
    <glyph glyph-name="brokenbar" unicode="&#xa6;" horiz-adv-x="224" 
d="M56 416v352h112v-352h-112zM56 -256v352h112v-352h-112z" />
    <glyph glyph-name="section" unicode="&#xa7;" horiz-adv-x="672" 
d="M589 183q43 -48 43 -124q0 -105 -75 -170t-229 -65q-80 0 -144 22t-104 48.5t-40 29.5l71 153q44 -34 92.5 -51t86.5 -22.5t38 -3.5q112 -4 112 41q0 14 -12 22t-35.5 13.5t-75.5 13.5q-135 21 -198 76t-63 144q0 76 46 129q-46 50 -46 127q0 61 32 110.5t97 78.5t161 29
q0 2 50.5 -3.5t107 -23t96.5 -53.5l-76 -144q0 2 -24.5 14.5t-68 23t-103.5 10.5q-80 0 -80 -32q0 -17 18 -25.5t70 -15.5q84 -11 146.5 -30.5t106 -65t43.5 -124.5q0 -82 -43 -132zM416 266q24 11 24 31q0 18 -23 27t-77 19q-28 5 -38 7q-12 2 -18 2q-17 0 -26.5 -8.5
t-9.5 -23.5q0 -17 18 -25.5t70 -15.5q45 -5 80 -13z" />
    <glyph glyph-name="dieresis" unicode="&#xa8;" horiz-adv-x="784" 
d="M223.5 759.5q-23.5 23.5 -23.5 56.5t23.5 56.5t56.5 23.5t56.5 -23.5t23.5 -56.5t-23.5 -56.5t-56.5 -23.5t-56.5 23.5zM447.5 759.5q-23.5 23.5 -23.5 56.5t23.5 56.5t56.5 23.5t56.5 -23.5t23.5 -56.5t-23.5 -56.5t-56.5 -23.5t-56.5 23.5z" />
    <glyph glyph-name="copyright" unicode="&#xa9;" horiz-adv-x="752" 
d="M206 149q-77 45 -121.5 122t-44.5 169q0 94 44.5 170.5t121 121t170.5 44.5t170.5 -44.5t121 -121t44.5 -170.5t-44.5 -170.5t-121 -121t-170.5 -44.5q-93 0 -170 45zM501 225q57 33 90 90t33 125t-33 125t-90 90t-125 33t-125 -33t-90 -90t-33 -125t33 -125t90 -90
t125 -33t125 33zM432.5 370q17.5 8 29.5 22l33 -72q-20 -17 -47.5 -26.5t-54.5 -9.5q-45 0 -84 21t-61.5 57t-22.5 78t22.5 78t61.5 57t84 21q27 0 54.5 -9t47.5 -26l-33 -73q-12 14 -29.5 22t-37.5 8q-35 0 -60 -23t-25 -55t25 -55t60 -23q20 0 37.5 8z" />
    <glyph glyph-name="ordfeminine" unicode="&#xaa;" horiz-adv-x="368" 
d="M328 672v-256h-96v26q-28 -34 -72 -34q-32 0 -60 18.5t-44 49.5t-16 68t16 68t44 49.5t60 18.5q44 0 72 -34v26h96zM218 504.5q14 16.5 14 39.5t-14 39.5t-34 16.5t-34 -16.5t-14 -39.5t14 -39.5t34 -16.5t34 16.5z" />
    <glyph glyph-name="guillemotleft" unicode="&#xab;" horiz-adv-x="672" 
d="M184 272l160 -240h-144l-160 240l160 240h144zM440 272l160 -240h-144l-160 240l160 240h144z" />
    <glyph glyph-name="logicalnot" unicode="&#xac;" horiz-adv-x="640" 
d="M600 112h-112v136h-448v112h560v-248z" />
    <glyph glyph-name="registered" unicode="&#xae;" horiz-adv-x="752" 
d="M206 149q-77 45 -121.5 122t-44.5 169q0 94 44.5 170.5t121 121t170.5 44.5t170.5 -44.5t121 -121t44.5 -170.5t-44.5 -170.5t-121 -121t-170.5 -44.5q-93 0 -170 45zM501 225q57 33 90 90t33 125t-33 125t-90 90t-125 33t-125 -33t-90 -90t-33 -125t33 -125t90 -90
t125 -33t125 33zM520 290h-100l-62 93h-16v-93h-86v300h136q56 0 85 -27.5t29 -72.5q0 -33 -16 -60t-44 -39zM410 462q10 8 10 24t-10 24.5t-26 8.5h-42v-65h42q16 0 26 8z" />
    <glyph glyph-name="macron" unicode="&#xaf;" horiz-adv-x="784" 
d="M232 752v96h320v-96h-320z" />
    <glyph glyph-name="degree" unicode="&#xb0;" horiz-adv-x="416" 
d="M124.5 374.5q-38.5 22.5 -61.5 61t-23 84.5q0 45 23 83.5t61.5 61.5t84.5 23q45 0 83.5 -22.5t61 -61.5t22.5 -84q0 -46 -22.5 -84.5t-61 -61t-83.5 -22.5q-46 0 -84.5 22.5zM247.5 481q16.5 17 16.5 39q0 23 -16.5 39.5t-39.5 16.5q-22 0 -39 -16.5t-17 -39.5
q0 -22 17 -39t39 -17q23 0 39.5 17z" />
    <glyph glyph-name="plusminus" unicode="&#xb1;" horiz-adv-x="512" 
d="M472 368h-160v-160h-112v160h-160v112h160v160h112v-160h160v-112zM472 136v-112h-432v112h432z" />
    <glyph glyph-name="uni00B2" unicode="&#xb2;" horiz-adv-x="368" 
d="M56 693.5q16 29.5 47 48t74 18.5q65 0 104 -34t39 -89q0 -34 -24.5 -68.5t-70.5 -64.5h103v-88h-288l144 152q23 24 31 38.5t8 25.5q0 18 -12 29t-31 11t-32.5 -13t-13.5 -35l-94 8q0 32 16 61.5z" />
    <glyph glyph-name="uni00B3" unicode="&#xb3;" horiz-adv-x="368" 
d="M315 563.5q13 -19.5 13 -43.5q0 -27 -15.5 -52.5t-48 -42.5t-80.5 -17q-63 0 -103.5 30.5t-40.5 89.5l96 8q0 -24 14 -35t38 -11q18 0 29.5 9t11.5 23q0 19 -18 26.5t-54 7.5v64q5 0 21 1.5t31 8.5t15 22q0 11 -11.5 19t-28.5 8q-20 0 -33.5 -10.5t-14.5 -32.5l-88 8
q6 56 42.5 86t93.5 30q63 0 99.5 -30.5t36.5 -73.5q0 -42 -40 -62q22 -11 35 -30.5z" />
    <glyph glyph-name="acute" unicode="&#xb4;" horiz-adv-x="784" 
d="M376 896h192l-160 -160h-128z" />
    <glyph glyph-name="paragraph" unicode="&#xb6;" horiz-adv-x="736" 
d="M616 544v-772h-128v772h-128v-772h-128v500q-54 0 -98 26.5t-69 72.5t-25 101t25 101t69 72.5t98 26.5h464v-128h-80z" />
    <glyph glyph-name="periodcentered" unicode="&#xb7;" horiz-adv-x="272" 
d="M68 268q-28 28 -28 68t28 68t68 28t68 -28t28 -68t-28 -68t-68 -28t-68 28z" />
    <glyph glyph-name="cedilla" unicode="&#xb8;" horiz-adv-x="784" 
d="M459 0l-45 -48q5 1 15 1q47 0 79 -31t32 -82q0 -40 -21 -73t-57.5 -52t-81.5 -19q-47 0 -79 17t-49 46l62 77q11 -24 27.5 -38t45.5 -14t48 18t19 38q0 26 -15.5 41t-39.5 15q-18 0 -31 -4.5t-25 -14.5l-43 59l62 64h97z" />
    <glyph glyph-name="uni00B9" unicode="&#xb9;" horiz-adv-x="360" 
d="M256 768v-344h-96v237l-72 -14v81z" />
    <glyph glyph-name="ordmasculine" unicode="&#xba;" horiz-adv-x="368" 
d="M258.5 662q32.5 -18 51 -49.5t18.5 -68.5t-18 -68.5t-51 -49.5t-75 -18q-65 0 -104.5 39t-39.5 97t39 97t105 39q42 0 74.5 -18zM218 504.5q14 16.5 14 39.5t-14 39.5t-34 16.5t-34 -16.5t-14 -39.5t14 -39.5t34 -16.5t34 16.5z" />
    <glyph glyph-name="guillemotright" unicode="&#xbb;" horiz-adv-x="672" 
d="M216 512l160 -240l-160 -240h-144l160 240l-160 240h144zM472 512l160 -240l-160 -240h-144l160 240l-160 240h144z" />
    <glyph glyph-name="onequarter" unicode="&#xbc;" horiz-adv-x="924" 
d="M256 680v-344h-96v237l-72 -14v81zM168 0l468 672h112l-468 -672h-112zM884 136v-80h-40v-56h-96v56h-168v72l144 208h120v-200h40zM748 240l-64 -104h64v104z" />
    <glyph glyph-name="onehalf" unicode="&#xbd;" horiz-adv-x="924" 
d="M256 680v-344h-96v237l-72 -14v81zM168 0l468 672h112l-468 -672h-112zM612 277.5q16 29.5 47 48t74 18.5q65 0 104 -34t39 -89q0 -34 -24.5 -68.5t-70.5 -64.5h103v-88h-288l144 152q23 24 31 38.5t8 25.5q0 18 -12 29t-31 11t-32.5 -13t-13.5 -35l-94 8q0 32 16 61.5z
" />
    <glyph glyph-name="threequarters" unicode="&#xbe;" horiz-adv-x="932" 
d="M315 483.5q13 -19.5 13 -43.5q0 -27 -15.5 -52.5t-48 -42.5t-80.5 -17q-63 0 -103.5 30.5t-40.5 89.5l96 8q0 -24 14 -35t38 -11q18 0 29.5 9t11.5 23q0 19 -18 26.5t-54 7.5v64q5 0 21 1.5t31 8.5t15 22q0 11 -11.5 19t-28.5 8q-20 0 -33.5 -10.5t-14.5 -32.5l-88 8
q6 56 42.5 86t93.5 30q63 0 99.5 -30.5t36.5 -73.5q0 -42 -40 -62q22 -11 35 -30.5zM176 0l468 672h112l-468 -672h-112zM892 136v-80h-40v-56h-96v56h-168v72l144 208h120v-200h40zM756 240l-64 -104h64v104z" />
    <glyph glyph-name="questiondown" unicode="&#xbf;" horiz-adv-x="568" 
d="M220 364q-28 28 -28 68t28 68t68 28t68 -28t28 -68t-28 -68t-68 -28t-68 28zM98.5 -121.5q-58.5 54.5 -58.5 137.5q0 35 10.5 60t29 45.5t56.5 54.5q32 28 51.5 57.5t20.5 70.5h160q0 -98 -52 -152q-21 -21 -30 -29q-26 -25 -36 -38t-10 -29q0 -32 24 -46.5t65 -14.5
q33 0 69 11.5t61 37.5l69 -140q-93 -80 -240 -80q-131 0 -189.5 54.5z" />
    <glyph glyph-name="Agrave" unicode="&#xc0;" horiz-adv-x="720" 
d="M328 736l-160 160h192l96 -160h-128zM728 0h-195l-43 112h-260l-43 -112h-195l278 672h180zM434 256l-74 192l-74 -192h148z" />
    <glyph glyph-name="Aacute" unicode="&#xc1;" horiz-adv-x="720" 
d="M360 896h192l-160 -160h-128zM728 0h-195l-43 112h-260l-43 -112h-195l278 672h180zM434 256l-74 192l-74 -192h148z" />
    <glyph glyph-name="Acircumflex" unicode="&#xc2;" horiz-adv-x="720" 
d="M360 816l-48 -80h-160l160 160h96l160 -160h-160zM728 0h-195l-43 112h-260l-43 -112h-195l278 672h180zM434 256l-74 192l-74 -192h148z" />
    <glyph glyph-name="Atilde" unicode="&#xc3;" horiz-adv-x="720" 
d="M576 834q-25 -54 -57 -76t-71 -22q-40 0 -88 20q-48 21 -73 21q-18 0 -31 -9.5t-24 -31.5l-88 30q25 54 57 76t71 22q23 0 43 -5.5t45 -15.5q47 -21 72 -21q18 0 31.5 10t24.5 32zM728 0h-195l-43 112h-260l-43 -112h-195l278 672h180zM434 256l-74 192l-74 -192h148z
" />
    <glyph glyph-name="Adieresis" unicode="&#xc4;" horiz-adv-x="720" 
d="M191.5 759.5q-23.5 23.5 -23.5 56.5t23.5 56.5t56.5 23.5t56.5 -23.5t23.5 -56.5t-23.5 -56.5t-56.5 -23.5t-56.5 23.5zM415.5 759.5q-23.5 23.5 -23.5 56.5t23.5 56.5t56.5 23.5t56.5 -23.5t23.5 -56.5t-23.5 -56.5t-56.5 -23.5t-56.5 23.5zM728 0h-195l-43 112h-260
l-43 -112h-195l278 672h180zM434 256l-74 192l-74 -192h148z" />
    <glyph glyph-name="Aring" unicode="&#xc5;" horiz-adv-x="720" 
d="M450.5 922.5q37.5 -37.5 37.5 -90.5t-37.5 -90.5t-90.5 -37.5t-90.5 37.5t-37.5 90.5t37.5 90.5t90.5 37.5t90.5 -37.5zM394 798.5q14 14.5 14 33.5q0 20 -14 34t-34 14q-19 0 -33.5 -14t-14.5 -34q0 -19 14.5 -33.5t33.5 -14.5q20 0 34 14.5zM728 0h-195l-43 112h-260
l-43 -112h-195l278 672h180zM434 256l-74 192l-74 -192h148z" />
    <glyph glyph-name="AE" unicode="&#xc6;" horiz-adv-x="864" 
d="M568 496v-80h208v-160h-208v-80h256v-176h-448v112h-143l-46 -112h-195l294 672h538v-176h-256zM376 256v208l-85 -208h85z" />
    <glyph glyph-name="Ccedilla" unicode="&#xc7;" 
d="M545 12.5q-50 -20.5 -102 -26.5l-33 -34q5 1 15 1q47 0 79 -31t32 -82q0 -40 -21 -73t-57.5 -52t-81.5 -19q-47 0 -79 17t-49 46l62 77q11 -24 27.5 -38t45.5 -14t48 18t19 38q0 26 -15.5 41t-39.5 15q-18 0 -31 -4.5t-25 -14.5l-43 59l52 52q-91 12 -165 61
t-116.5 124.5t-42.5 162.5q0 95 51 176t138 128.5t189 47.5q61 0 123.5 -21t106.5 -59l-73 -164q-28 31 -67.5 49.5t-84.5 18.5q-52 0 -95.5 -23.5t-69.5 -64t-26 -88.5t26 -88.5t69.5 -64t95.5 -23.5q45 0 84.5 18.5t67.5 49.5l73 -163q-37 -32 -87 -52.5z" />
    <glyph glyph-name="Egrave" unicode="&#xc8;" horiz-adv-x="544" 
d="M264 736l-160 160h192l96 -160h-128zM248 496v-80h208v-160h-208v-80h256v-176h-448v672h448v-176h-256z" />
    <glyph glyph-name="Eacute" unicode="&#xc9;" horiz-adv-x="544" 
d="M256 896h192l-160 -160h-128zM248 496v-80h208v-160h-208v-80h256v-176h-448v672h448v-176h-256z" />
    <glyph glyph-name="Ecircumflex" unicode="&#xca;" horiz-adv-x="544" 
d="M272 816l-48 -80h-160l160 160h96l160 -160h-160zM248 496v-80h208v-160h-208v-80h256v-176h-448v672h448v-176h-256z" />
    <glyph glyph-name="Edieresis" unicode="&#xcb;" horiz-adv-x="544" 
d="M103.5 759.5q-23.5 23.5 -23.5 56.5t23.5 56.5t56.5 23.5t56.5 -23.5t23.5 -56.5t-23.5 -56.5t-56.5 -23.5t-56.5 23.5zM327.5 759.5q-23.5 23.5 -23.5 56.5t23.5 56.5t56.5 23.5t56.5 -23.5t23.5 -56.5t-23.5 -56.5t-56.5 -23.5t-56.5 23.5zM248 496v-80h208v-160h-208
v-80h256v-176h-448v672h448v-176h-256z" />
    <glyph glyph-name="Igrave" unicode="&#xcc;" horiz-adv-x="304" 
d="M120 736l-160 160h192l96 -160h-128zM56 0v672h192v-672h-192z" />
    <glyph glyph-name="Iacute" unicode="&#xcd;" horiz-adv-x="304" 
d="M152 896h192l-160 -160h-128zM56 0v672h192v-672h-192z" />
    <glyph glyph-name="Icircumflex" unicode="&#xce;" horiz-adv-x="304" 
d="M152 816l-48 -80h-160l160 160h96l160 -160h-160zM56 0v672h192v-672h-192z" />
    <glyph glyph-name="Idieresis" unicode="&#xcf;" horiz-adv-x="304" 
d="M-16.5 759.5q-23.5 23.5 -23.5 56.5t23.5 56.5t56.5 23.5t56.5 -23.5t23.5 -56.5t-23.5 -56.5t-56.5 -23.5t-56.5 23.5zM207.5 759.5q-23.5 23.5 -23.5 56.5t23.5 56.5t56.5 23.5t56.5 -23.5t23.5 -56.5t-23.5 -56.5t-56.5 -23.5t-56.5 23.5zM56 0v672h192v-672h-192z
" />
    <glyph glyph-name="Eth" unicode="&#xd0;" horiz-adv-x="720" 
d="M534.5 627.5q79.5 -44.5 120.5 -120.5t41 -171q0 -94 -42 -170.5t-122 -121t-189 -44.5h-271v280h-64v112h64v280h271q112 0 191.5 -44.5zM426.5 198q33.5 22 55.5 59t22 79t-22 79t-55.5 59t-66.5 22h-96v-104h64v-112h-64v-104h96q33 0 66.5 22z" />
    <glyph glyph-name="Ntilde" unicode="&#xd1;" horiz-adv-x="752" 
d="M592 834q-25 -54 -57 -76t-71 -22q-40 0 -88 20q-48 21 -73 21q-18 0 -31 -9.5t-24 -31.5l-88 30q25 54 57 76t71 22q23 0 43 -5.5t45 -15.5q47 -21 72 -21q18 0 31.5 10t24.5 32zM696 672v-672h-192l-256 368v-368h-192v672h192l256 -368v368h192z" />
    <glyph glyph-name="Ograve" unicode="&#xd2;" horiz-adv-x="784" 
d="M352 736l-160 160h192l96 -160h-128zM576.5 640.5q84.5 -47.5 134 -128.5t49.5 -176t-49.5 -176t-134 -128.5t-184.5 -47.5t-184.5 47.5t-134 128.5t-49.5 176t49.5 176t134 128.5t184.5 47.5t184.5 -47.5zM480.5 183.5q40.5 23.5 64 64t23.5 88.5t-23.5 88.5t-64 64
t-88.5 23.5t-88.5 -23.5t-64 -64t-23.5 -88.5t23.5 -88.5t64 -64t88.5 -23.5t88.5 23.5z" />
    <glyph glyph-name="Oacute" unicode="&#xd3;" horiz-adv-x="784" 
d="M400 896h192l-160 -160h-128zM576.5 640.5q84.5 -47.5 134 -128.5t49.5 -176t-49.5 -176t-134 -128.5t-184.5 -47.5t-184.5 47.5t-134 128.5t-49.5 176t49.5 176t134 128.5t184.5 47.5t184.5 -47.5zM480.5 183.5q40.5 23.5 64 64t23.5 88.5t-23.5 88.5t-64 64t-88.5 23.5
t-88.5 -23.5t-64 -64t-23.5 -88.5t23.5 -88.5t64 -64t88.5 -23.5t88.5 23.5z" />
    <glyph glyph-name="Ocircumflex" unicode="&#xd4;" horiz-adv-x="784" 
d="M392 816l-48 -80h-160l160 160h96l160 -160h-160zM576.5 640.5q84.5 -47.5 134 -128.5t49.5 -176t-49.5 -176t-134 -128.5t-184.5 -47.5t-184.5 47.5t-134 128.5t-49.5 176t49.5 176t134 128.5t184.5 47.5t184.5 -47.5zM480.5 183.5q40.5 23.5 64 64t23.5 88.5
t-23.5 88.5t-64 64t-88.5 23.5t-88.5 -23.5t-64 -64t-23.5 -88.5t23.5 -88.5t64 -64t88.5 -23.5t88.5 23.5z" />
    <glyph glyph-name="Otilde" unicode="&#xd5;" horiz-adv-x="784" 
d="M608 834q-25 -54 -57 -76t-71 -22q-40 0 -88 20q-48 21 -73 21q-18 0 -31 -9.5t-24 -31.5l-88 30q25 54 57 76t71 22q23 0 43 -5.5t45 -15.5q47 -21 72 -21q18 0 31.5 10t24.5 32zM576.5 640.5q84.5 -47.5 134 -128.5t49.5 -176t-49.5 -176t-134 -128.5t-184.5 -47.5
t-184.5 47.5t-134 128.5t-49.5 176t49.5 176t134 128.5t184.5 47.5t184.5 -47.5zM480.5 183.5q40.5 23.5 64 64t23.5 88.5t-23.5 88.5t-64 64t-88.5 23.5t-88.5 -23.5t-64 -64t-23.5 -88.5t23.5 -88.5t64 -64t88.5 -23.5t88.5 23.5z" />
    <glyph glyph-name="Odieresis" unicode="&#xd6;" horiz-adv-x="784" 
d="M223.5 759.5q-23.5 23.5 -23.5 56.5t23.5 56.5t56.5 23.5t56.5 -23.5t23.5 -56.5t-23.5 -56.5t-56.5 -23.5t-56.5 23.5zM447.5 759.5q-23.5 23.5 -23.5 56.5t23.5 56.5t56.5 23.5t56.5 -23.5t23.5 -56.5t-23.5 -56.5t-56.5 -23.5t-56.5 23.5zM576.5 640.5
q84.5 -47.5 134 -128.5t49.5 -176t-49.5 -176t-134 -128.5t-184.5 -47.5t-184.5 47.5t-134 128.5t-49.5 176t49.5 176t134 128.5t184.5 47.5t184.5 -47.5zM480.5 183.5q40.5 23.5 64 64t23.5 88.5t-23.5 88.5t-64 64t-88.5 23.5t-88.5 -23.5t-64 -64t-23.5 -88.5t23.5 -88.5
t64 -64t88.5 -23.5t88.5 23.5z" />
    <glyph glyph-name="multiply" unicode="&#xd7;" horiz-adv-x="484" 
d="M444 427l-123 -123l123 -123l-79 -79l-123 123l-123 -123l-79 79l123 123l-123 123l79 79l123 -123l123 123z" />
    <glyph glyph-name="Oslash" unicode="&#xd8;" horiz-adv-x="784" 
d="M732 471q28 -64 28 -135q0 -95 -49.5 -176t-134 -128.5t-184.5 -47.5q-111 0 -203 59l-37 -43h-96l75 88q-51 49 -79 113t-28 135q0 95 49.5 176t134 128.5t184.5 47.5q111 0 203 -59l37 43h96l-75 -88q51 -49 79 -113zM252 229l224 261q-39 22 -84 22q-48 0 -88.5 -23.5
t-64 -64t-23.5 -88.5q0 -58 36 -107zM480.5 183.5q40.5 23.5 64 64t23.5 88.5q0 58 -36 107l-224 -261q39 -22 84 -22q48 0 88.5 23.5z" />
    <glyph glyph-name="Ugrave" unicode="&#xd9;" horiz-adv-x="720" 
d="M328 736l-160 160h192l96 -160h-128zM680 672v-384q0 -89 -38.5 -158t-111 -107.5t-170.5 -38.5t-170.5 38.5t-111 107.5t-38.5 158v384h208v-386q0 -59 33.5 -92.5t78.5 -33.5q46 0 79 33.5t33 92.5v386h208z" />
    <glyph glyph-name="Uacute" unicode="&#xda;" horiz-adv-x="720" 
d="M360 896h192l-160 -160h-128zM680 672v-384q0 -89 -38.5 -158t-111 -107.5t-170.5 -38.5t-170.5 38.5t-111 107.5t-38.5 158v384h208v-386q0 -59 33.5 -92.5t78.5 -33.5q46 0 79 33.5t33 92.5v386h208z" />
    <glyph glyph-name="Ucircumflex" unicode="&#xdb;" horiz-adv-x="720" 
d="M360 816l-48 -80h-160l160 160h96l160 -160h-160zM680 672v-384q0 -89 -38.5 -158t-111 -107.5t-170.5 -38.5t-170.5 38.5t-111 107.5t-38.5 158v384h208v-386q0 -59 33.5 -92.5t78.5 -33.5q46 0 79 33.5t33 92.5v386h208z" />
    <glyph glyph-name="Udieresis" unicode="&#xdc;" horiz-adv-x="720" 
d="M191.5 759.5q-23.5 23.5 -23.5 56.5t23.5 56.5t56.5 23.5t56.5 -23.5t23.5 -56.5t-23.5 -56.5t-56.5 -23.5t-56.5 23.5zM415.5 759.5q-23.5 23.5 -23.5 56.5t23.5 56.5t56.5 23.5t56.5 -23.5t23.5 -56.5t-23.5 -56.5t-56.5 -23.5t-56.5 23.5zM680 672v-384
q0 -89 -38.5 -158t-111 -107.5t-170.5 -38.5t-170.5 38.5t-111 107.5t-38.5 158v384h208v-386q0 -59 33.5 -92.5t78.5 -33.5q46 0 79 33.5t33 92.5v386h208z" />
    <glyph glyph-name="Yacute" unicode="&#xdd;" horiz-adv-x="688" 
d="M344 896h192l-160 -160h-128zM696 672l-256 -400v-272h-192v272l-256 400h224l128 -208l128 208h224z" />
    <glyph glyph-name="Thorn" unicode="&#xde;" horiz-adv-x="640" 
d="M551 519.5q65 -64.5 65 -167.5t-65 -167.5t-191 -64.5h-112v-120h-192v704h192v-120h112q126 0 191 -64.5zM401 298q23 18 23 54q0 35 -23 53.5t-59 18.5h-94v-144h94q36 0 59 18z" />
    <glyph glyph-name="germandbls" unicode="&#xdf;" horiz-adv-x="624" 
d="M539.5 351q29.5 -27 45 -65t15.5 -73q0 -59 -26.5 -112t-77.5 -85t-120 -32q-30 0 -61.5 5t-50.5 11v136q22 -4 43 -4q42 0 71.5 20.5t29.5 71.5q0 52 -33 74t-111 22v96q47 0 71.5 22.5t24.5 57.5q0 36 -15.5 58t-48.5 22q-27 0 -45.5 -21t-18.5 -59v-496h-192v496
q0 73 35.5 123.5t92 75.5t120.5 25q127 0 195.5 -56t68.5 -149q0 -40 -24 -80.5t-56 -50.5q38 -6 67.5 -33z" />
    <glyph glyph-name="agrave" unicode="&#xe0;" 
d="M360 576l-160 160h192l96 -160h-128zM600 512v-512h-192v52q-57 -68 -144 -68q-65 0 -120.5 36.5t-87.5 99t-32 136.5t32 136.5t87.5 99t120.5 36.5q87 0 144 -68v52h192zM380 177q28 33 28 79t-28 79t-68 33t-68 -33t-28 -79t28 -79t68 -33t68 33z" />
    <glyph glyph-name="aacute" unicode="&#xe1;" 
d="M360 736h192l-160 -160h-128zM600 512v-512h-192v52q-57 -68 -144 -68q-65 0 -120.5 36.5t-87.5 99t-32 136.5t32 136.5t87.5 99t120.5 36.5q87 0 144 -68v52h192zM380 177q28 33 28 79t-28 79t-68 33t-68 -33t-28 -79t28 -79t68 -33t68 33z" />
    <glyph glyph-name="acircumflex" unicode="&#xe2;" 
d="M344 656l-48 -80h-160l160 160h96l160 -160h-160zM600 512v-512h-192v52q-57 -68 -144 -68q-65 0 -120.5 36.5t-87.5 99t-32 136.5t32 136.5t87.5 99t120.5 36.5q87 0 144 -68v52h192zM380 177q28 33 28 79t-28 79t-68 33t-68 -33t-28 -79t28 -79t68 -33t68 33z" />
    <glyph glyph-name="atilde" unicode="&#xe3;" 
d="M552 674q-25 -54 -57 -76t-71 -22q-40 0 -88 20q-48 21 -73 21q-18 0 -31 -9.5t-24 -31.5l-88 30q25 54 57 76t71 22q23 0 43 -5.5t45 -15.5q47 -21 72 -21q18 0 31.5 10t24.5 32zM600 512v-512h-192v52q-57 -68 -144 -68q-65 0 -120.5 36.5t-87.5 99t-32 136.5t32 136.5
t87.5 99t120.5 36.5q87 0 144 -68v52h192zM380 177q28 33 28 79t-28 79t-68 33t-68 -33t-28 -79t28 -79t68 -33t68 33z" />
    <glyph glyph-name="adieresis" unicode="&#xe4;" 
d="M175.5 599.5q-23.5 23.5 -23.5 56.5t23.5 56.5t56.5 23.5t56.5 -23.5t23.5 -56.5t-23.5 -56.5t-56.5 -23.5t-56.5 23.5zM399.5 599.5q-23.5 23.5 -23.5 56.5t23.5 56.5t56.5 23.5t56.5 -23.5t23.5 -56.5t-23.5 -56.5t-56.5 -23.5t-56.5 23.5zM600 512v-512h-192v52
q-57 -68 -144 -68q-65 0 -120.5 36.5t-87.5 99t-32 136.5t32 136.5t87.5 99t120.5 36.5q87 0 144 -68v52h192zM380 177q28 33 28 79t-28 79t-68 33t-68 -33t-28 -79t28 -79t68 -33t68 33z" />
    <glyph glyph-name="aring" unicode="&#xe5;" 
d="M434.5 762.5q37.5 -37.5 37.5 -90.5t-37.5 -90.5t-90.5 -37.5t-90.5 37.5t-37.5 90.5t37.5 90.5t90.5 37.5t90.5 -37.5zM378 638.5q14 14.5 14 33.5q0 20 -14 34t-34 14q-19 0 -33.5 -14t-14.5 -34q0 -19 14.5 -33.5t33.5 -14.5q20 0 34 14.5zM600 512v-512h-192v52
q-57 -68 -144 -68q-65 0 -120.5 36.5t-87.5 99t-32 136.5t32 136.5t87.5 99t120.5 36.5q87 0 144 -68v52h192zM380 177q28 33 28 79t-28 79t-68 33t-68 -33t-28 -79t28 -79t68 -33t68 33z" />
    <glyph glyph-name="ae" unicode="&#xe6;" horiz-adv-x="912" 
d="M884 208h-326q6 -30 38 -47t78 -17q36 0 65.5 7t46 14.5t20.5 10.5l49 -144q0 -2 -27 -14.5t-71.5 -23t-100.5 -10.5q-63 0 -117 16h-195v33q-12 -22 -48.5 -35.5t-79.5 -13.5q-56 0 -100 23.5t-68 64t-24 88.5q0 32 19 74.5t77 69.5q59 27 130 27q47 0 94 -11
q-1 36 -24.5 51.5t-61.5 15.5q-31 0 -65 -8t-58 -16t-31 -11l-48 112q0 2 33 19t90 31t133 14q110 0 158 -43q67 43 162 43q123 0 189.5 -71.5t66.5 -200.5q0 -16 -4 -48zM692 304q0 34 -17.5 57t-50.5 23q-29 0 -47.5 -24t-18.5 -56h134zM344 240h-16q-56 0 -84 -21
t-28 -53q0 -33 18 -51.5t49 -18.5q28 0 44.5 17.5t16.5 46.5v80z" />
    <glyph glyph-name="ccedilla" unicode="&#xe7;" horiz-adv-x="528" 
d="M365 -12l-35 -36q5 1 15 1q47 0 79 -31t32 -82q0 -40 -21 -73t-57.5 -52t-81.5 -19q-47 0 -79 17t-49 46l62 77q11 -24 27.5 -38t45.5 -14t48 18t19 38q0 26 -15.5 41t-39.5 15q-18 0 -31 -4.5t-25 -14.5l-43 59l50 50q-75 9 -129.5 46.5t-83.5 96t-29 127.5
q0 76 34.5 138t99 98t151.5 36q55 0 108 -15t87 -48l-74 -145q-39 48 -102 48q-46 0 -79 -32.5t-33 -79.5q0 -46 33 -79t79 -33q65 0 102 48l74 -145q-47 -47 -139 -59z" />
    <glyph glyph-name="egrave" unicode="&#xe8;" horiz-adv-x="576" 
d="M280 576l-160 160h192l96 -160h-128zM548 208h-326q6 -30 38 -47t78 -17q36 0 65.5 7t46 14.5t20.5 10.5l49 -144q0 -2 -27 -14.5t-71.5 -23t-100.5 -10.5q-99 0 -165.5 36t-98.5 97.5t-32 138.5t30.5 138.5t91.5 97.5t150 36q123 0 189.5 -71.5t66.5 -200.5
q0 -16 -4 -48zM356 304q0 34 -17.5 57t-50.5 23q-29 0 -47.5 -24t-18.5 -56h134z" />
    <glyph glyph-name="eacute" unicode="&#xe9;" horiz-adv-x="576" 
d="M304 736h192l-160 -160h-128zM548 208h-326q6 -30 38 -47t78 -17q36 0 65.5 7t46 14.5t20.5 10.5l49 -144q0 -2 -27 -14.5t-71.5 -23t-100.5 -10.5q-99 0 -165.5 36t-98.5 97.5t-32 138.5t30.5 138.5t91.5 97.5t150 36q123 0 189.5 -71.5t66.5 -200.5q0 -16 -4 -48z
M356 304q0 34 -17.5 57t-50.5 23q-29 0 -47.5 -24t-18.5 -56h134z" />
    <glyph glyph-name="ecircumflex" unicode="&#xea;" horiz-adv-x="576" 
d="M296 656l-48 -80h-160l160 160h96l160 -160h-160zM548 208h-326q6 -30 38 -47t78 -17q36 0 65.5 7t46 14.5t20.5 10.5l49 -144q0 -2 -27 -14.5t-71.5 -23t-100.5 -10.5q-99 0 -165.5 36t-98.5 97.5t-32 138.5t30.5 138.5t91.5 97.5t150 36q123 0 189.5 -71.5t66.5 -200.5
q0 -16 -4 -48zM356 304q0 34 -17.5 57t-50.5 23q-29 0 -47.5 -24t-18.5 -56h134z" />
    <glyph glyph-name="edieresis" unicode="&#xeb;" horiz-adv-x="576" 
d="M119.5 599.5q-23.5 23.5 -23.5 56.5t23.5 56.5t56.5 23.5t56.5 -23.5t23.5 -56.5t-23.5 -56.5t-56.5 -23.5t-56.5 23.5zM343.5 599.5q-23.5 23.5 -23.5 56.5t23.5 56.5t56.5 23.5t56.5 -23.5t23.5 -56.5t-23.5 -56.5t-56.5 -23.5t-56.5 23.5zM548 208h-326q6 -30 38 -47
t78 -17q36 0 65.5 7t46 14.5t20.5 10.5l49 -144q0 -2 -27 -14.5t-71.5 -23t-100.5 -10.5q-99 0 -165.5 36t-98.5 97.5t-32 138.5t30.5 138.5t91.5 97.5t150 36q123 0 189.5 -71.5t66.5 -200.5q0 -16 -4 -48zM356 304q0 34 -17.5 57t-50.5 23q-29 0 -47.5 -24t-18.5 -56h134z
" />
    <glyph glyph-name="igrave" unicode="&#xec;" horiz-adv-x="304" 
d="M120 576l-160 160h192l96 -160h-128zM56 512h192v-512h-192v512z" />
    <glyph glyph-name="iacute" unicode="&#xed;" horiz-adv-x="304" 
d="M152 736h192l-160 -160h-128zM56 512h192v-512h-192v512z" />
    <glyph glyph-name="icircumflex" unicode="&#xee;" horiz-adv-x="304" 
d="M152 656l-48 -80h-160l160 160h96l160 -160h-160zM56 512h192v-512h-192v512z" />
    <glyph glyph-name="idieresis" unicode="&#xef;" horiz-adv-x="304" 
d="M-16.5 599.5q-23.5 23.5 -23.5 56.5t23.5 56.5t56.5 23.5t56.5 -23.5t23.5 -56.5t-23.5 -56.5t-56.5 -23.5t-56.5 23.5zM207.5 599.5q-23.5 23.5 -23.5 56.5t23.5 56.5t56.5 23.5t56.5 -23.5t23.5 -56.5t-23.5 -56.5t-56.5 -23.5t-56.5 23.5zM56 512h192v-512h-192v512z
" />
    <glyph glyph-name="eth" unicode="&#xf0;" horiz-adv-x="624" 
d="M571.5 369.5q28.5 -57.5 28.5 -113.5q0 -75 -36.5 -137t-102 -98.5t-149.5 -36.5q-87 0 -152.5 36t-100.5 98.5t-35 137.5q0 94 53 165.5t146 95.5h-1l-41 29l-141 -50v95l49 18l-65 47l128 64l84 -58l172 59v-96l-79 -26q79 -54 112 -79.5t60 -51.5q42 -41 70.5 -98.5z
M380 177q28 33 28 79t-28 79t-68 33t-68 -33t-28 -79t28 -79t68 -33t68 33z" />
    <glyph glyph-name="ntilde" unicode="&#xf1;" horiz-adv-x="624" 
d="M528 674q-25 -54 -57 -76t-71 -22q-40 0 -88 20q-48 21 -73 21q-18 0 -31 -9.5t-24 -31.5l-88 30q25 54 57 76t71 22q23 0 43 -5.5t45 -15.5q47 -21 72 -21q18 0 31.5 10t24.5 32zM488 502.5q44 -25.5 70 -76t26 -122.5v-304h-192v272q0 42 -21 61t-51 19
q-29 0 -50.5 -20t-21.5 -60v-272h-192v512h192v-64q21 39 60 59.5t84 20.5q52 0 96 -25.5z" />
    <glyph glyph-name="ograve" unicode="&#xf2;" horiz-adv-x="624" 
d="M272 576l-160 160h192l96 -160h-128zM461 491.5q66 -36.5 102.5 -98.5t36.5 -137t-36.5 -137t-102 -98.5t-149.5 -36.5q-87 0 -152.5 36t-100.5 98.5t-35 137.5q0 76 34.5 138t100 98t153.5 36q83 0 149 -36.5zM380 177q28 33 28 79t-28 79t-68 33t-68 -33t-28 -79
t28 -79t68 -33t68 33z" />
    <glyph glyph-name="oacute" unicode="&#xf3;" horiz-adv-x="624" 
d="M320 736h192l-160 -160h-128zM461 491.5q66 -36.5 102.5 -98.5t36.5 -137t-36.5 -137t-102 -98.5t-149.5 -36.5q-87 0 -152.5 36t-100.5 98.5t-35 137.5q0 76 34.5 138t100 98t153.5 36q83 0 149 -36.5zM380 177q28 33 28 79t-28 79t-68 33t-68 -33t-28 -79t28 -79
t68 -33t68 33z" />
    <glyph glyph-name="ocircumflex" unicode="&#xf4;" horiz-adv-x="624" 
d="M312 656l-48 -80h-160l160 160h96l160 -160h-160zM461 491.5q66 -36.5 102.5 -98.5t36.5 -137t-36.5 -137t-102 -98.5t-149.5 -36.5q-87 0 -152.5 36t-100.5 98.5t-35 137.5q0 76 34.5 138t100 98t153.5 36q83 0 149 -36.5zM380 177q28 33 28 79t-28 79t-68 33t-68 -33
t-28 -79t28 -79t68 -33t68 33z" />
    <glyph glyph-name="otilde" unicode="&#xf5;" horiz-adv-x="624" 
d="M528 674q-25 -54 -57 -76t-71 -22q-40 0 -88 20q-48 21 -73 21q-18 0 -31 -9.5t-24 -31.5l-88 30q25 54 57 76t71 22q23 0 43 -5.5t45 -15.5q47 -21 72 -21q18 0 31.5 10t24.5 32zM461 491.5q66 -36.5 102.5 -98.5t36.5 -137t-36.5 -137t-102 -98.5t-149.5 -36.5
q-87 0 -152.5 36t-100.5 98.5t-35 137.5q0 76 34.5 138t100 98t153.5 36q83 0 149 -36.5zM380 177q28 33 28 79t-28 79t-68 33t-68 -33t-28 -79t28 -79t68 -33t68 33z" />
    <glyph glyph-name="odieresis" unicode="&#xf6;" horiz-adv-x="624" 
d="M143.5 599.5q-23.5 23.5 -23.5 56.5t23.5 56.5t56.5 23.5t56.5 -23.5t23.5 -56.5t-23.5 -56.5t-56.5 -23.5t-56.5 23.5zM367.5 599.5q-23.5 23.5 -23.5 56.5t23.5 56.5t56.5 23.5t56.5 -23.5t23.5 -56.5t-23.5 -56.5t-56.5 -23.5t-56.5 23.5zM461 491.5
q66 -36.5 102.5 -98.5t36.5 -137t-36.5 -137t-102 -98.5t-149.5 -36.5q-87 0 -152.5 36t-100.5 98.5t-35 137.5q0 76 34.5 138t100 98t153.5 36q83 0 149 -36.5zM380 177q28 33 28 79t-28 79t-68 33t-68 -33t-28 -79t28 -79t68 -33t68 33z" />
    <glyph glyph-name="divide" unicode="&#xf7;" horiz-adv-x="512" 
d="M188 444q-28 28 -28 68t28 68t68 28t68 -28t28 -68t-28 -68t-68 -28t-68 28zM472 360v-112h-432v112h432zM188 28q-28 28 -28 68t28 68t68 28t68 -28t28 -68t-28 -68t-68 -28t-68 28z" />
    <glyph glyph-name="oslash" unicode="&#xf8;" horiz-adv-x="624" 
d="M580 358.5q20 -48.5 20 -102.5q0 -75 -36.5 -137t-102 -98.5t-149.5 -36.5q-88 0 -156 38l-20 -22h-96l58 66q-36 37 -55 85.5t-19 104.5q0 76 34.5 138t100 98t153.5 36q85 0 155 -40l21 24h96l-60 -68q36 -37 56 -85.5zM224 211l129 146q-20 11 -41 11q-40 0 -68 -33
t-28 -79q0 -24 8 -45zM380 177q28 33 28 79q0 24 -8 45l-129 -146q20 -11 41 -11q40 0 68 33z" />
    <glyph glyph-name="ugrave" unicode="&#xf9;" horiz-adv-x="624" 
d="M256 576l-160 160h192l96 -160h-128zM136 9.5q-44 25.5 -70 76t-26 122.5v304h192v-272q0 -42 21 -61t51 -19q29 0 50.5 20t21.5 60v272h192v-512h-192v64q-21 -39 -60 -59.5t-84 -20.5q-52 0 -96 25.5z" />
    <glyph glyph-name="uacute" unicode="&#xfa;" horiz-adv-x="624" 
d="M320 736h192l-160 -160h-128zM136 9.5q-44 25.5 -70 76t-26 122.5v304h192v-272q0 -42 21 -61t51 -19q29 0 50.5 20t21.5 60v272h192v-512h-192v64q-21 -39 -60 -59.5t-84 -20.5q-52 0 -96 25.5z" />
    <glyph glyph-name="ucircumflex" unicode="&#xfb;" horiz-adv-x="624" 
d="M308 656l-48 -80h-160l160 160h96l160 -160h-160zM136 9.5q-44 25.5 -70 76t-26 122.5v304h192v-272q0 -42 21 -61t51 -19q29 0 50.5 20t21.5 60v272h192v-512h-192v64q-21 -39 -60 -59.5t-84 -20.5q-52 0 -96 25.5z" />
    <glyph glyph-name="udieresis" unicode="&#xfc;" horiz-adv-x="624" 
d="M139.5 599.5q-23.5 23.5 -23.5 56.5t23.5 56.5t56.5 23.5t56.5 -23.5t23.5 -56.5t-23.5 -56.5t-56.5 -23.5t-56.5 23.5zM363.5 599.5q-23.5 23.5 -23.5 56.5t23.5 56.5t56.5 23.5t56.5 -23.5t23.5 -56.5t-23.5 -56.5t-56.5 -23.5t-56.5 23.5zM136 9.5q-44 25.5 -70 76
t-26 122.5v304h192v-272q0 -42 21 -61t51 -19q29 0 50.5 20t21.5 60v272h192v-512h-192v64q-21 -39 -60 -59.5t-84 -20.5q-52 0 -96 25.5z" />
    <glyph glyph-name="yacute" unicode="&#xfd;" horiz-adv-x="560" 
d="M280 736h192l-160 -160h-128zM72 -256l112 272l-192 496h192l96 -272l96 272h192l-304 -768h-192z" />
    <glyph glyph-name="thorn" unicode="&#xfe;" 
d="M512.5 491.5q55.5 -36.5 87.5 -99t32 -136.5t-32 -136.5t-87.5 -99t-120.5 -36.5q-87 0 -144 68v-308h-192v960h192v-244q57 68 144 68q65 0 120.5 -36.5zM412 177q28 33 28 79t-28 79t-68 33t-68 -33t-28 -79t28 -79t68 -33t68 33z" />
    <glyph glyph-name="ydieresis" unicode="&#xff;" horiz-adv-x="560" 
d="M111.5 599.5q-23.5 23.5 -23.5 56.5t23.5 56.5t56.5 23.5t56.5 -23.5t23.5 -56.5t-23.5 -56.5t-56.5 -23.5t-56.5 23.5zM335.5 599.5q-23.5 23.5 -23.5 56.5t23.5 56.5t56.5 23.5t56.5 -23.5t23.5 -56.5t-23.5 -56.5t-56.5 -23.5t-56.5 23.5zM72 -256l112 272l-192 496
h192l96 -272l96 272h192l-304 -768h-192z" />
    <glyph glyph-name="Amacron" unicode="&#x100;" horiz-adv-x="720" 
d="M200 752v96h320v-96h-320zM728 0h-195l-43 112h-260l-43 -112h-195l278 672h180zM434 256l-74 192l-74 -192h148z" />
    <glyph glyph-name="amacron" unicode="&#x101;" 
d="M184 592v96h320v-96h-320zM600 512v-512h-192v52q-57 -68 -144 -68q-65 0 -120.5 36.5t-87.5 99t-32 136.5t32 136.5t87.5 99t120.5 36.5q87 0 144 -68v52h192zM380 177q28 33 28 79t-28 79t-68 33t-68 -33t-28 -79t28 -79t68 -33t68 33z" />
    <glyph glyph-name="Abreve" unicode="&#x102;" horiz-adv-x="720" 
d="M520 896q0 -43 -21.5 -80t-58.5 -58.5t-80 -21.5t-80 21.5t-58.5 58.5t-21.5 80h96q0 -26 19 -45t45 -19t45 19t19 45h96zM728 0h-195l-43 112h-260l-43 -112h-195l278 672h180zM434 256l-74 192l-74 -192h148z" />
    <glyph glyph-name="abreve" unicode="&#x103;" 
d="M504 736q0 -43 -21.5 -80t-58.5 -58.5t-80 -21.5t-80 21.5t-58.5 58.5t-21.5 80h96q0 -26 19 -45t45 -19t45 19t19 45h96zM600 512v-512h-192v52q-57 -68 -144 -68q-65 0 -120.5 36.5t-87.5 99t-32 136.5t32 136.5t87.5 99t120.5 36.5q87 0 144 -68v52h192zM380 177
q28 33 28 79t-28 79t-68 33t-68 -33t-28 -79t28 -79t68 -33t68 33z" />
    <glyph glyph-name="Aogonek" unicode="&#x104;" horiz-adv-x="720" 
d="M601 -110.5q17 -12.5 43 -12.5q24 0 49 11l16 -80q-46 -16 -80 -16q-60 0 -94 35.5t-34 92.5q0 21 9.5 45t22.5 35l-43 112h-260l-43 -112h-195l278 672h180l278 -672h-51q-34 0 -63.5 -17.5t-29.5 -56.5q0 -24 17 -36.5zM434 256l-74 192l-74 -192h148z" />
    <glyph glyph-name="aogonek" unicode="&#x105;" 
d="M488.5 -17.5q-29.5 -17.5 -29.5 -56.5q0 -24 17 -36.5t43 -12.5q24 0 49 11l16 -80q-46 -16 -80 -16q-60 0 -94 35.5t-34 92.5q0 21 9.5 45t22.5 35v52q-57 -68 -144 -68q-65 0 -120.5 36.5t-87.5 99t-32 136.5t32 136.5t87.5 99t120.5 36.5q87 0 144 -68v52h192v-512
h-48q-34 0 -63.5 -17.5zM380 177q28 33 28 79t-28 79t-68 33t-68 -33t-28 -79t28 -79t68 -33t68 33z" />
    <glyph glyph-name="Cacute" unicode="&#x106;" 
d="M392 896h192l-160 -160h-128zM491.5 178.5q39.5 18.5 67.5 49.5l73 -163q-44 -38 -106.5 -59.5t-123.5 -21.5q-102 0 -189 47.5t-138 128.5t-51 176t51 176t138 128.5t189 47.5q61 0 123.5 -21t106.5 -59l-73 -164q-28 31 -67.5 49.5t-84.5 18.5q-52 0 -95.5 -23.5
t-69.5 -64t-26 -88.5t26 -88.5t69.5 -64t95.5 -23.5q45 0 84.5 18.5z" />
    <glyph glyph-name="cacute" unicode="&#x107;" horiz-adv-x="528" 
d="M312 736h192l-160 -160h-128zM504 47q-33 -33 -86 -48t-109 -15q-87 0 -152 36t-99 98t-34 138t34.5 138t99 98t151.5 36q55 0 108 -15t87 -48l-74 -145q-39 48 -102 48q-46 0 -79 -32.5t-33 -79.5q0 -46 33 -79t79 -33q65 0 102 48z" />
    <glyph glyph-name="Cdotaccent" unicode="&#x10a;" 
d="M324 748q-28 28 -28 68t28 68t68 28t68 -28t28 -68t-28 -68t-68 -28t-68 28zM491.5 178.5q39.5 18.5 67.5 49.5l73 -163q-44 -38 -106.5 -59.5t-123.5 -21.5q-102 0 -189 47.5t-138 128.5t-51 176t51 176t138 128.5t189 47.5q61 0 123.5 -21t106.5 -59l-73 -164
q-28 31 -67.5 49.5t-84.5 18.5q-52 0 -95.5 -23.5t-69.5 -64t-26 -88.5t26 -88.5t69.5 -64t95.5 -23.5q45 0 84.5 18.5z" />
    <glyph glyph-name="cdotaccent" unicode="&#x10b;" horiz-adv-x="528" 
d="M244 588q-28 28 -28 68t28 68t68 28t68 -28t28 -68t-28 -68t-68 -28t-68 28zM504 47q-33 -33 -86 -48t-109 -15q-87 0 -152 36t-99 98t-34 138t34.5 138t99 98t151.5 36q55 0 108 -15t87 -48l-74 -145q-39 48 -102 48q-46 0 -79 -32.5t-33 -79.5q0 -46 33 -79t79 -33
q65 0 102 48z" />
    <glyph glyph-name="Ccaron" unicode="&#x10c;" 
d="M592 896l-160 -160h-96l-160 160h160l48 -80l48 80h160zM491.5 178.5q39.5 18.5 67.5 49.5l73 -163q-44 -38 -106.5 -59.5t-123.5 -21.5q-102 0 -189 47.5t-138 128.5t-51 176t51 176t138 128.5t189 47.5q61 0 123.5 -21t106.5 -59l-73 -164q-28 31 -67.5 49.5
t-84.5 18.5q-52 0 -95.5 -23.5t-69.5 -64t-26 -88.5t26 -88.5t69.5 -64t95.5 -23.5q45 0 84.5 18.5z" />
    <glyph glyph-name="ccaron" unicode="&#x10d;" horiz-adv-x="528" 
d="M504 736l-160 -160h-96l-160 160h160l48 -80l48 80h160zM504 47q-33 -33 -86 -48t-109 -15q-87 0 -152 36t-99 98t-34 138t34.5 138t99 98t151.5 36q55 0 108 -15t87 -48l-74 -145q-39 48 -102 48q-46 0 -79 -32.5t-33 -79.5q0 -46 33 -79t79 -33q65 0 102 48z" />
    <glyph glyph-name="Dcaron" unicode="&#x10e;" horiz-adv-x="704" 
d="M528 896l-160 -160h-96l-160 160h160l48 -80l48 80h160zM518.5 627.5q79.5 -44.5 120.5 -120.5t41 -171q0 -94 -42 -170.5t-122 -121t-189 -44.5h-271v672h271q112 0 191.5 -44.5zM410.5 198q33.5 22 55.5 59t22 79t-22 79t-55.5 59t-66.5 22h-96v-320h96q33 0 66.5 22z
" />
    <glyph glyph-name="dcaron" unicode="&#x10f;" horiz-adv-x="832" 
d="M600 704v-704h-192v52q-57 -68 -144 -68q-65 0 -120.5 36.5t-87.5 99t-32 136.5t32 136.5t87.5 99t120.5 36.5q87 0 144 -68v244h192zM664 672h144l-80 -160h-96zM380 177q28 33 28 79t-28 79t-68 33t-68 -33t-28 -79t28 -79t68 -33t68 33z" />
    <glyph glyph-name="Dcroat" unicode="&#x110;" horiz-adv-x="720" 
d="M534.5 627.5q79.5 -44.5 120.5 -120.5t41 -171q0 -94 -42 -170.5t-122 -121t-189 -44.5h-271v280h-64v112h64v280h271q112 0 191.5 -44.5zM426.5 198q33.5 22 55.5 59t22 79t-22 79t-55.5 59t-66.5 22h-96v-104h64v-112h-64v-104h96q33 0 66.5 22z" />
    <glyph glyph-name="dcroat" unicode="&#x111;" horiz-adv-x="672" 
d="M664 536h-64v-536h-192v52q-57 -68 -144 -68q-65 0 -120.5 36.5t-87.5 99t-32 136.5t32 136.5t87.5 99t120.5 36.5q87 0 144 -68v76h-64v96h64v72h192v-72h64v-96zM380 177q28 33 28 79t-28 79t-68 33t-68 -33t-28 -79t28 -79t68 -33t68 33z" />
    <glyph glyph-name="Emacron" unicode="&#x112;" horiz-adv-x="544" 
d="M112 752v96h320v-96h-320zM248 496v-80h208v-160h-208v-80h256v-176h-448v672h448v-176h-256z" />
    <glyph glyph-name="emacron" unicode="&#x113;" horiz-adv-x="576" 
d="M128 592v96h320v-96h-320zM548 208h-326q6 -30 38 -47t78 -17q36 0 65.5 7t46 14.5t20.5 10.5l49 -144q0 -2 -27 -14.5t-71.5 -23t-100.5 -10.5q-99 0 -165.5 36t-98.5 97.5t-32 138.5t30.5 138.5t91.5 97.5t150 36q123 0 189.5 -71.5t66.5 -200.5q0 -16 -4 -48zM356 304
q0 34 -17.5 57t-50.5 23q-29 0 -47.5 -24t-18.5 -56h134z" />
    <glyph glyph-name="Edotaccent" unicode="&#x116;" horiz-adv-x="544" 
d="M204 748q-28 28 -28 68t28 68t68 28t68 -28t28 -68t-28 -68t-68 -28t-68 28zM248 496v-80h208v-160h-208v-80h256v-176h-448v672h448v-176h-256z" />
    <glyph glyph-name="edotaccent" unicode="&#x117;" horiz-adv-x="576" 
d="M224 588q-28 28 -28 68t28 68t68 28t68 -28t28 -68t-28 -68t-68 -28t-68 28zM548 208h-326q6 -30 38 -47t78 -17q36 0 65.5 7t46 14.5t20.5 10.5l49 -144q0 -2 -27 -14.5t-71.5 -23t-100.5 -10.5q-99 0 -165.5 36t-98.5 97.5t-32 138.5t30.5 138.5t91.5 97.5t150 36
q123 0 189.5 -71.5t66.5 -200.5q0 -16 -4 -48zM356 304q0 34 -17.5 57t-50.5 23q-29 0 -47.5 -24t-18.5 -56h134z" />
    <glyph glyph-name="Eogonek" unicode="&#x118;" horiz-adv-x="544" 
d="M536 -192q-46 -16 -80 -16q-60 0 -94 35.5t-34 92.5q0 21 9.5 45t22.5 35h-304v672h448v-176h-256v-80h208v-160h-208v-80h256v-176q-34 0 -63.5 -17.5t-29.5 -56.5q0 -24 17 -36.5t43 -12.5q24 0 49 11z" />
    <glyph glyph-name="eogonek" unicode="&#x119;" horiz-adv-x="576" 
d="M548 208h-326q6 -30 38 -47t78 -17q36 0 65.5 7t46 14.5t20.5 10.5l49 -144q-4 -2 -19 -10t-43.5 -17.5t-65.5 -15.5q-19 -6 -31.5 -22t-12.5 -41q0 -24 17 -36.5t43 -12.5q24 0 49 11l16 -80q-46 -16 -80 -16q-60 0 -94 35.5t-34 92.5q0 15 5.5 33.5t14.5 31.5
q-130 10 -195 84.5t-65 186.5q0 77 30.5 138.5t91.5 97.5t150 36q123 0 189.5 -71.5t66.5 -200.5q0 -16 -4 -48zM356 304q0 34 -17.5 57t-50.5 23q-29 0 -47.5 -24t-18.5 -56h134z" />
    <glyph glyph-name="Ecaron" unicode="&#x11a;" horiz-adv-x="544" 
d="M480 896l-160 -160h-96l-160 160h160l48 -80l48 80h160zM248 496v-80h208v-160h-208v-80h256v-176h-448v672h448v-176h-256z" />
    <glyph glyph-name="ecaron" unicode="&#x11b;" horiz-adv-x="576" 
d="M504 736l-160 -160h-96l-160 160h160l48 -80l48 80h160zM548 208h-326q6 -30 38 -47t78 -17q36 0 65.5 7t46 14.5t20.5 10.5l49 -144q0 -2 -27 -14.5t-71.5 -23t-100.5 -10.5q-99 0 -165.5 36t-98.5 97.5t-32 138.5t30.5 138.5t91.5 97.5t150 36q123 0 189.5 -71.5
t66.5 -200.5q0 -16 -4 -48zM356 304q0 34 -17.5 57t-50.5 23q-29 0 -47.5 -24t-18.5 -56h134z" />
    <glyph glyph-name="Gbreve" unicode="&#x11e;" horiz-adv-x="752" 
d="M536 896q0 -43 -21.5 -80t-58.5 -58.5t-80 -21.5t-80 21.5t-58.5 58.5t-21.5 80h96q0 -26 19 -45t45 -19t45 19t19 45h96zM728 336q0 -96 -44.5 -177t-123.5 -128t-176 -47q-98 0 -180.5 47.5t-131 128.5t-48.5 176t48.5 176t131 128.5t180.5 47.5q104 0 184 -51.5
t127 -140.5l-181 -49q-24 31 -57.5 48t-72.5 17q-46 0 -84.5 -23.5t-61 -64t-22.5 -88.5t22.5 -88.5t61 -64t84.5 -23.5q49 0 87.5 26t58.5 70h-186v144h378q6 -33 6 -64z" />
    <glyph glyph-name="gbreve" unicode="&#x11f;" 
d="M504 736q0 -43 -21.5 -80t-58.5 -58.5t-80 -21.5t-80 21.5t-58.5 58.5t-21.5 80h96q0 -26 19 -45t45 -19t45 19t19 45h96zM600 512v-464q0 -157 -78.5 -238.5t-225.5 -81.5q-60 0 -117 18t-98 39t-41 23l64 144q0 -2 26 -15.5t65 -25.5t86 -12q127 0 127 133v20
q-57 -68 -144 -68q-65 0 -120.5 36.5t-87.5 99t-32 136.5t32 136.5t87.5 99t120.5 36.5q87 0 144 -68v52h192zM380 177q28 33 28 79t-28 79t-68 33t-68 -33t-28 -79t28 -79t68 -33t68 33z" />
    <glyph glyph-name="Gdotaccent" unicode="&#x120;" horiz-adv-x="752" 
d="M308 748q-28 28 -28 68t28 68t68 28t68 -28t28 -68t-28 -68t-68 -28t-68 28zM728 336q0 -96 -44.5 -177t-123.5 -128t-176 -47q-98 0 -180.5 47.5t-131 128.5t-48.5 176t48.5 176t131 128.5t180.5 47.5q104 0 184 -51.5t127 -140.5l-181 -49q-24 31 -57.5 48t-72.5 17
q-46 0 -84.5 -23.5t-61 -64t-22.5 -88.5t22.5 -88.5t61 -64t84.5 -23.5q49 0 87.5 26t58.5 70h-186v144h378q6 -33 6 -64z" />
    <glyph glyph-name="gdotaccent" unicode="&#x121;" 
d="M260 588q-28 28 -28 68t28 68t68 28t68 -28t28 -68t-28 -68t-68 -28t-68 28zM600 512v-464q0 -157 -78.5 -238.5t-225.5 -81.5q-60 0 -117 18t-98 39t-41 23l64 144q0 -2 26 -15.5t65 -25.5t86 -12q127 0 127 133v20q-57 -68 -144 -68q-65 0 -120.5 36.5t-87.5 99
t-32 136.5t32 136.5t87.5 99t120.5 36.5q87 0 144 -68v52h192zM380 177q28 33 28 79t-28 79t-68 33t-68 -33t-28 -79t28 -79t68 -33t68 33z" />
    <glyph glyph-name="Gcommaaccent" unicode="&#x122;" horiz-adv-x="752" 
d="M728 336q0 -96 -44.5 -177t-123.5 -128t-176 -47q-98 0 -180.5 47.5t-131 128.5t-48.5 176t48.5 176t131 128.5t180.5 47.5q104 0 184 -51.5t127 -140.5l-181 -49q-24 31 -57.5 48t-72.5 17q-46 0 -84.5 -23.5t-61 -64t-22.5 -88.5t22.5 -88.5t61 -64t84.5 -23.5
q49 0 87.5 26t58.5 70h-186v144h378q6 -33 6 -64zM312 -64h144l-80 -160h-96z" />
    <glyph glyph-name="gcommaaccent" unicode="&#x123;" 
d="M416 576h-144l80 160h96zM600 512v-464q0 -157 -78.5 -238.5t-225.5 -81.5q-60 0 -117 18t-98 39t-41 23l64 144q0 -2 26 -15.5t65 -25.5t86 -12q127 0 127 133v20q-57 -68 -144 -68q-65 0 -120.5 36.5t-87.5 99t-32 136.5t32 136.5t87.5 99t120.5 36.5q87 0 144 -68v52
h192zM380 177q28 33 28 79t-28 79t-68 33t-68 -33t-28 -79t28 -79t68 -33t68 33z" />
    <glyph glyph-name="Hbar" unicode="&#x126;" horiz-adv-x="720" 
d="M712 504h-48v-504h-192v248h-224v-248h-192v504h-48v96h48v72h192v-72h224v72h192v-72h48v-96zM472 504h-224v-80h224v80z" />
    <glyph glyph-name="hbar" unicode="&#x127;" horiz-adv-x="640" 
d="M504 502.5q44 -25.5 70 -76t26 -122.5v-304h-192v272q0 42 -21 61t-51 19q-29 0 -50.5 -20t-21.5 -60v-272h-192v536h-64v96h64v72h192v-72h64v-96h-64v-88q21 39 60 59.5t84 20.5q52 0 96 -25.5z" />
    <glyph glyph-name="Imacron" unicode="&#x12a;" horiz-adv-x="304" 
d="M-8 752v96h320v-96h-320zM56 0v672h192v-672h-192z" />
    <glyph glyph-name="imacron" unicode="&#x12b;" horiz-adv-x="304" 
d="M-8 592v96h320v-96h-320zM56 512h192v-512h-192v512z" />
    <glyph glyph-name="Iogonek" unicode="&#x12e;" horiz-adv-x="304" 
d="M280 -192q-46 -16 -80 -16q-60 0 -94 35.5t-34 92.5q0 21 9.5 45t22.5 35h-48v672h192v-672q-34 0 -63.5 -17.5t-29.5 -56.5q0 -24 17 -36.5t43 -12.5q24 0 49 11z" />
    <glyph glyph-name="iogonek" unicode="&#x12f;" horiz-adv-x="304" 
d="M78.5 590.5q-30.5 30.5 -30.5 73.5t30.5 73.5t73.5 30.5t73.5 -30.5t30.5 -73.5t-30.5 -73.5t-73.5 -30.5t-73.5 30.5zM280 -192q-46 -16 -80 -16q-60 0 -94 35.5t-34 92.5q0 21 9.5 45t22.5 35h-48v512h192v-512q-34 0 -63.5 -17.5t-29.5 -56.5q0 -24 17 -36.5t43 -12.5
q24 0 49 11z" />
    <glyph glyph-name="Idotaccent" unicode="&#x130;" horiz-adv-x="304" 
d="M84 748q-28 28 -28 68t28 68t68 28t68 -28t28 -68t-28 -68t-68 -28t-68 28zM56 0v672h192v-672h-192z" />
    <glyph glyph-name="dotlessi" unicode="&#x131;" horiz-adv-x="304" 
d="M56 512h192v-512h-192v512z" />
    <glyph glyph-name="IJ" unicode="&#x132;" horiz-adv-x="816" 
d="M56 0v672h192v-672h-192zM776 672v-416q0 -134 -75.5 -203t-208.5 -69q-46 0 -92.5 18t-71.5 46l83 151q13 -18 33 -28.5t44 -10.5q42 0 69 24.5t27 71.5v416h192z" />
    <glyph glyph-name="ij" unicode="&#x133;" horiz-adv-x="608" 
d="M78.5 590.5q-30.5 30.5 -30.5 73.5t30.5 73.5t73.5 30.5t73.5 -30.5t30.5 -73.5t-30.5 -73.5t-73.5 -30.5t-73.5 30.5zM382.5 590.5q-30.5 30.5 -30.5 73.5t30.5 73.5t73.5 30.5t73.5 -30.5t30.5 -73.5t-30.5 -73.5t-73.5 -30.5t-73.5 30.5zM56 512h192v-512h-192v512z
M360 512h192v-496q0 -150 -63.5 -219t-192.5 -69l-32 160q39 0 67.5 27.5t28.5 84.5v512z" />
    <glyph glyph-name="Kcommaaccent" unicode="&#x136;" horiz-adv-x="704" 
d="M696 0h-240l-208 288v-288h-192v672h192v-256l192 256h240l-256 -320zM272 -64h144l-80 -160h-96z" />
    <glyph glyph-name="kcommaaccent" unicode="&#x137;" horiz-adv-x="608" 
d="M616 0h-224l-144 208v-208h-192v704h192v-384l128 192h224l-192 -244zM248 -64h144l-80 -160h-96z" />
    <glyph glyph-name="Lacute" unicode="&#x139;" horiz-adv-x="528" 
d="M152 896h192l-160 -160h-128zM504 176v-176h-448v672h192v-496h256z" />
    <glyph glyph-name="lacute" unicode="&#x13a;" horiz-adv-x="304" 
d="M152 928h192l-160 -160h-128zM248 704v-704h-192v704h192z" />
    <glyph glyph-name="Lcommaaccent" unicode="&#x13b;" horiz-adv-x="528" 
d="M504 176v-176h-448v672h192v-496h256zM200 -64h144l-80 -160h-96z" />
    <glyph glyph-name="lcommaaccent" unicode="&#x13c;" horiz-adv-x="304" 
d="M248 704v-704h-192v704h192zM88 -64h144l-80 -160h-96z" />
    <glyph glyph-name="Lcaron" unicode="&#x13d;" horiz-adv-x="544" 
d="M504 176v-176h-448v672h192v-496h256zM376 672h144l-80 -160h-96z" />
    <glyph glyph-name="lcaron" unicode="&#x13e;" horiz-adv-x="464" 
d="M248 704v-704h-192v704h192zM312 672h144l-80 -160h-96z" />
    <glyph glyph-name="Ldot" unicode="&#x13f;" horiz-adv-x="544" 
d="M504 176v-176h-448v672h192v-496h256zM356 308q-28 28 -28 68t28 68t68 28t68 -28t28 -68t-28 -68t-68 -28t-68 28z" />
    <glyph glyph-name="ldot" unicode="&#x140;" horiz-adv-x="496" 
d="M248 704v-704h-192v704h192zM324 308q-28 28 -28 68t28 68t68 28t68 -28t28 -68t-28 -68t-68 -28t-68 28z" />
    <glyph glyph-name="Lslash" unicode="&#x141;" horiz-adv-x="528" 
d="M504 176v-176h-448v277l-48 -13v96l48 13v299h192v-245l48 13v-96l-48 -13v-155h256z" />
    <glyph glyph-name="lslash" unicode="&#x142;" horiz-adv-x="304" 
d="M296 343l-48 -13v-330h-192v277l-48 -13v96l48 13v331h192v-278l48 13v-96z" />
    <glyph glyph-name="Nacute" unicode="&#x143;" horiz-adv-x="752" 
d="M376 896h192l-160 -160h-128zM696 672v-672h-192l-256 368v-368h-192v672h192l256 -368v368h192z" />
    <glyph glyph-name="nacute" unicode="&#x144;" horiz-adv-x="624" 
d="M312 736h192l-160 -160h-128zM488 502.5q44 -25.5 70 -76t26 -122.5v-304h-192v272q0 42 -21 61t-51 19q-29 0 -50.5 -20t-21.5 -60v-272h-192v512h192v-64q21 39 60 59.5t84 20.5q52 0 96 -25.5z" />
    <glyph glyph-name="Ncommaaccent" unicode="&#x145;" horiz-adv-x="752" 
d="M696 672v-672h-192l-256 368v-368h-192v672h192l256 -368v368h192zM312 -64h144l-80 -160h-96z" />
    <glyph glyph-name="ncommaaccent" unicode="&#x146;" horiz-adv-x="624" 
d="M488 502.5q44 -25.5 70 -76t26 -122.5v-304h-192v272q0 42 -21 61t-51 19q-29 0 -50.5 -20t-21.5 -60v-272h-192v512h192v-64q21 39 60 59.5t84 20.5q52 0 96 -25.5zM248 -64h144l-80 -160h-96z" />
    <glyph glyph-name="Ncaron" unicode="&#x147;" horiz-adv-x="752" 
d="M584 896l-160 -160h-96l-160 160h160l48 -80l48 80h160zM696 672v-672h-192l-256 368v-368h-192v672h192l256 -368v368h192z" />
    <glyph glyph-name="ncaron" unicode="&#x148;" horiz-adv-x="624" 
d="M512 736l-160 -160h-96l-160 160h160l48 -80l48 80h160zM488 502.5q44 -25.5 70 -76t26 -122.5v-304h-192v272q0 42 -21 61t-51 19q-29 0 -50.5 -20t-21.5 -60v-272h-192v512h192v-64q21 39 60 59.5t84 20.5q52 0 96 -25.5z" />
    <glyph glyph-name="Eng" unicode="&#x14a;" horiz-adv-x="752" 
d="M696 672v-656q0 -150 -63.5 -219t-192.5 -69l-32 160q39 0 67.5 27.5t28.5 84.5l-256 368v-368h-192v672h192l256 -368v368h192z" />
    <glyph glyph-name="eng" unicode="&#x14b;" horiz-adv-x="624" 
d="M488 502.5q44 -25.5 70 -76t26 -122.5v-288q0 -150 -63.5 -219t-192.5 -69l-32 160q39 0 67.5 27.5t28.5 84.5v272q0 42 -21 61t-51 19q-29 0 -50.5 -20t-21.5 -60v-272h-192v512h192v-64q21 39 60 59.5t84 20.5q52 0 96 -25.5z" />
    <glyph glyph-name="Omacron" unicode="&#x14c;" horiz-adv-x="784" 
d="M232 752v96h320v-96h-320zM576.5 640.5q84.5 -47.5 134 -128.5t49.5 -176t-49.5 -176t-134 -128.5t-184.5 -47.5t-184.5 47.5t-134 128.5t-49.5 176t49.5 176t134 128.5t184.5 47.5t184.5 -47.5zM480.5 183.5q40.5 23.5 64 64t23.5 88.5t-23.5 88.5t-64 64t-88.5 23.5
t-88.5 -23.5t-64 -64t-23.5 -88.5t23.5 -88.5t64 -64t88.5 -23.5t88.5 23.5z" />
    <glyph glyph-name="omacron" unicode="&#x14d;" horiz-adv-x="624" 
d="M152 592v96h320v-96h-320zM461 491.5q66 -36.5 102.5 -98.5t36.5 -137t-36.5 -137t-102 -98.5t-149.5 -36.5q-87 0 -152.5 36t-100.5 98.5t-35 137.5q0 76 34.5 138t100 98t153.5 36q83 0 149 -36.5zM380 177q28 33 28 79t-28 79t-68 33t-68 -33t-28 -79t28 -79t68 -33
t68 33z" />
    <glyph glyph-name="Ohungarumlaut" unicode="&#x150;" horiz-adv-x="784" 
d="M248 896h144l-80 -160h-96zM488 896h144l-80 -160h-96zM576.5 640.5q84.5 -47.5 134 -128.5t49.5 -176t-49.5 -176t-134 -128.5t-184.5 -47.5t-184.5 47.5t-134 128.5t-49.5 176t49.5 176t134 128.5t184.5 47.5t184.5 -47.5zM480.5 183.5q40.5 23.5 64 64t23.5 88.5
t-23.5 88.5t-64 64t-88.5 23.5t-88.5 -23.5t-64 -64t-23.5 -88.5t23.5 -88.5t64 -64t88.5 -23.5t88.5 23.5z" />
    <glyph glyph-name="ohungarumlaut" unicode="&#x151;" horiz-adv-x="624" 
d="M168 736h144l-80 -160h-96zM408 736h144l-80 -160h-96zM461 491.5q66 -36.5 102.5 -98.5t36.5 -137t-36.5 -137t-102 -98.5t-149.5 -36.5q-87 0 -152.5 36t-100.5 98.5t-35 137.5q0 76 34.5 138t100 98t153.5 36q83 0 149 -36.5zM380 177q28 33 28 79t-28 79t-68 33
t-68 -33t-28 -79t28 -79t68 -33t68 33z" />
    <glyph glyph-name="OE" unicode="&#x152;" horiz-adv-x="1120" 
d="M824 496v-80h208v-160h-208v-80h256v-176h-448v69q-49 -40 -110.5 -62.5t-129.5 -22.5q-100 0 -184.5 47.5t-134 128.5t-49.5 176t49.5 176t134 128.5t184.5 47.5q68 0 129.5 -22.5t110.5 -62.5v69h448v-176h-256zM480.5 183.5q40.5 23.5 64 64t23.5 88.5t-23.5 88.5
t-64 64t-88.5 23.5t-88.5 -23.5t-64 -64t-23.5 -88.5t23.5 -88.5t64 -64t88.5 -23.5t88.5 23.5z" />
    <glyph glyph-name="oe" unicode="&#x153;" horiz-adv-x="960" 
d="M932 208h-326q6 -30 38 -47t78 -17q36 0 65.5 7t46 14.5t20.5 10.5l49 -144q0 -2 -27 -14.5t-71.5 -23t-100.5 -10.5q-129 0 -205 62q-37 -30 -84.5 -46t-102.5 -16q-87 0 -152.5 36t-100.5 98.5t-35 137.5q0 76 34.5 138t100 98t153.5 36q107 0 184 -59q70 59 184 59
q123 0 189.5 -71.5t66.5 -200.5q0 -16 -4 -48zM740 304q0 34 -17.5 57t-50.5 23q-29 0 -47.5 -24t-18.5 -56h134zM380 177q28 33 28 79t-28 79t-68 33t-68 -33t-28 -79t28 -79t68 -33t68 33z" />
    <glyph glyph-name="Racute" unicode="&#x154;" horiz-adv-x="672" 
d="M304 896h192l-160 -160h-128zM648 0h-224l-139 208h-37v-208h-192v672h304q127 0 191.5 -61t64.5 -163q0 -76 -35 -135.5t-98 -86.5zM401 386q23 18 23 54q0 35 -23 53.5t-59 18.5h-94v-144h94q36 0 59 18z" />
    <glyph glyph-name="racute" unicode="&#x155;" horiz-adv-x="464" 
d="M208 736h192l-160 -160h-128zM321.5 493q49.5 30 118.5 35v-217q-34 21 -74 21q-26 0 -53.5 -14.5t-46 -42.5t-18.5 -66v-209h-192v512h192v-105q24 56 73.5 86z" />
    <glyph glyph-name="Rcommaaccent" unicode="&#x156;" horiz-adv-x="672" 
d="M648 0h-224l-139 208h-37v-208h-192v672h304q127 0 191.5 -61t64.5 -163q0 -76 -35 -135.5t-98 -86.5zM401 386q23 18 23 54q0 35 -23 53.5t-59 18.5h-94v-144h94q36 0 59 18zM248 -64h144l-80 -160h-96z" />
    <glyph glyph-name="rcommaaccent" unicode="&#x157;" horiz-adv-x="464" 
d="M321.5 493q49.5 30 118.5 35v-217q-34 21 -74 21q-26 0 -53.5 -14.5t-46 -42.5t-18.5 -66v-209h-192v512h192v-105q24 56 73.5 86zM88 -64h144l-80 -160h-96z" />
    <glyph glyph-name="Rcaron" unicode="&#x158;" horiz-adv-x="672" 
d="M504 896l-160 -160h-96l-160 160h160l48 -80l48 80h160zM648 0h-224l-139 208h-37v-208h-192v672h304q127 0 191.5 -61t64.5 -163q0 -76 -35 -135.5t-98 -86.5zM401 386q23 18 23 54q0 35 -23 53.5t-59 18.5h-94v-144h94q36 0 59 18z" />
    <glyph glyph-name="rcaron" unicode="&#x159;" horiz-adv-x="464" 
d="M432 736l-160 -160h-96l-160 160h160l48 -80l48 80h160zM321.5 493q49.5 30 118.5 35v-217q-34 21 -74 21q-26 0 -53.5 -14.5t-46 -42.5t-18.5 -66v-209h-192v512h192v-105q24 56 73.5 86z" />
    <glyph glyph-name="Sacute" unicode="&#x15a;" horiz-adv-x="640" 
d="M328 896h192l-160 -160h-128zM466.5 408.5q62.5 -19.5 106 -65t43.5 -124.5q0 -105 -75 -170t-229 -65q-80 0 -144 22t-104 48.5t-40 29.5l71 153q44 -34 92.5 -51t86.5 -22.5t38 -3.5q112 -4 112 41q0 14 -12 22t-35.5 13.5t-75.5 13.5q-135 21 -198 76t-63 144
q0 61 32 110.5t97 78.5t161 29q0 2 50.5 -3.5t107 -23t96.5 -53.5l-76 -144q0 2 -24.5 14.5t-68 23t-103.5 10.5q-80 0 -80 -32q0 -17 18 -25.5t70 -15.5q84 -11 146.5 -30.5z" />
    <glyph glyph-name="sacute" unicode="&#x15b;" horiz-adv-x="560" 
d="M288 736h192l-160 -160h-128zM429.5 314.5q49.5 -15.5 78 -50.5t28.5 -98q0 -84 -64 -133t-199 -49q-71 0 -126 16t-89 35t-34 21l48 136q31 -21 69.5 -34t67 -18t36.5 -6q21 -3 44 -3q24 0 39.5 4t15.5 13q0 8 -5.5 12t-23.5 8t-62 10q-213 30 -213 158q0 86 67.5 139
t200.5 53q9 0 41 -2.5t75.5 -12t79.5 -28.5l-48 -137q0 1 -23.5 10t-61.5 16.5t-87 7.5q-28 0 -40 -3.5t-12 -13.5q0 -12 14 -16t53 -9q81 -10 130.5 -25.5z" />
    <glyph glyph-name="Scedilla" unicode="&#x15e;" horiz-adv-x="640" 
d="M555.5 62q-60.5 -63 -184.5 -75l-33 -35q5 1 15 1q47 0 79 -31t32 -82q0 -40 -21 -73t-57.5 -52t-81.5 -19q-47 0 -79 17t-49 46l62 77q11 -24 27.5 -38t45.5 -14t48 18t19 38q0 26 -15.5 41t-39.5 15q-18 0 -31 -4.5t-25 -14.5l-43 59l50 50q-69 5 -124.5 27t-90.5 45
t-35 26l71 153q44 -34 92.5 -51t86.5 -22.5t38 -3.5q112 -4 112 41q0 14 -12 22t-35.5 13.5t-75.5 13.5q-135 21 -198 76t-63 144q0 61 32 110.5t97 78.5t161 29q0 2 50.5 -3.5t107 -23t96.5 -53.5l-76 -144q0 2 -24.5 14.5t-68 23t-103.5 10.5q-80 0 -80 -32
q0 -17 18 -25.5t70 -15.5q84 -11 146.5 -30.5t106 -65t43.5 -124.5q0 -94 -60.5 -157z" />
    <glyph glyph-name="scedilla" unicode="&#x15f;" horiz-adv-x="560" 
d="M488.5 46.5q-47.5 -47.5 -147.5 -58.5l-35 -36q5 1 15 1q47 0 79 -31t32 -82q0 -40 -21 -73t-57.5 -52t-81.5 -19q-47 0 -79 17t-49 46l62 77q11 -24 27.5 -38t45.5 -14t48 18t19 38q0 26 -15.5 41t-39.5 15q-18 0 -31 -4.5t-25 -14.5l-43 59l49 49q-62 4 -110 20
t-77.5 32.5t-29.5 18.5l48 136q31 -21 69.5 -34t67 -18t36.5 -6q21 -3 44 -3q24 0 39.5 4t15.5 13q0 8 -5.5 12t-23.5 8t-62 10q-213 30 -213 158q0 86 67.5 139t200.5 53q9 0 41 -2.5t75.5 -12t79.5 -28.5l-48 -137q0 1 -23.5 10t-61.5 16.5t-87 7.5q-28 0 -40 -3.5
t-12 -13.5q0 -12 14 -16t53 -9q81 -10 130.5 -25.5t78 -50.5t28.5 -98q0 -72 -47.5 -119.5z" />
    <glyph glyph-name="Scaron" unicode="&#x160;" horiz-adv-x="640" 
d="M526 896l-160 -160h-96l-160 160h160l48 -80l48 80h160zM466.5 408.5q62.5 -19.5 106 -65t43.5 -124.5q0 -105 -75 -170t-229 -65q-80 0 -144 22t-104 48.5t-40 29.5l71 153q44 -34 92.5 -51t86.5 -22.5t38 -3.5q112 -4 112 41q0 14 -12 22t-35.5 13.5t-75.5 13.5
q-135 21 -198 76t-63 144q0 61 32 110.5t97 78.5t161 29q0 2 50.5 -3.5t107 -23t96.5 -53.5l-76 -144q0 2 -24.5 14.5t-68 23t-103.5 10.5q-80 0 -80 -32q0 -17 18 -25.5t70 -15.5q84 -11 146.5 -30.5z" />
    <glyph glyph-name="scaron" unicode="&#x161;" horiz-adv-x="560" 
d="M488 736l-160 -160h-96l-160 160h160l48 -80l48 80h160zM429.5 314.5q49.5 -15.5 78 -50.5t28.5 -98q0 -84 -64 -133t-199 -49q-71 0 -126 16t-89 35t-34 21l48 136q31 -21 69.5 -34t67 -18t36.5 -6q21 -3 44 -3q24 0 39.5 4t15.5 13q0 8 -5.5 12t-23.5 8t-62 10
q-213 30 -213 158q0 86 67.5 139t200.5 53q9 0 41 -2.5t75.5 -12t79.5 -28.5l-48 -137q0 1 -23.5 10t-61.5 16.5t-87 7.5q-28 0 -40 -3.5t-12 -13.5q0 -12 14 -16t53 -9q81 -10 130.5 -25.5z" />
    <glyph glyph-name="uni0162" unicode="&#x162;" horiz-adv-x="592" 
d="M353 0l-45 -48q5 1 15 1q47 0 79 -31t32 -82q0 -40 -21 -73t-57.5 -52t-81.5 -19q-47 0 -79 17t-49 46l62 77q11 -24 27.5 -38t45.5 -14t48 18t19 38q0 26 -15.5 41t-39.5 15q-18 0 -31 -4.5t-25 -14.5l-43 59l62 64h-56v496h-176v176h544v-176h-176v-496h-39z" />
    <glyph glyph-name="uni0163" unicode="&#x163;" horiz-adv-x="416" 
d="M280 352v-128q0 -47 10.5 -65.5t44.5 -18.5q20 0 41 4v-144q-47 -15 -111 -16l-31 -32q5 1 15 1q47 0 79 -31t32 -82q0 -40 -21 -73t-57.5 -52t-81.5 -19q-47 0 -79 17t-49 46l62 77q11 -24 27.5 -38t45.5 -14t48 18t19 38q0 26 -15.5 41t-39.5 15q-18 0 -31 -4.5
t-25 -14.5l-43 59l57 57q-47 16 -67.5 56.5t-21.5 107.5v195h-64v160h64v160h192v-160h96v-160h-96z" />
    <glyph glyph-name="Tcaron" unicode="&#x164;" horiz-adv-x="592" 
d="M504 896l-160 -160h-96l-160 160h160l48 -80l48 80h160zM568 672v-176h-176v-496h-192v496h-176v176h544z" />
    <glyph glyph-name="tcaron" unicode="&#x165;" horiz-adv-x="608" 
d="M280 352v-128q0 -47 10.5 -65.5t44.5 -18.5q20 0 41 4v-144q-52 -16 -128 -16q-87 0 -123 42.5t-37 130.5v195h-64v160h64v160h192v-160h96v-160h-96zM440 672h144l-80 -160h-96z" />
    <glyph glyph-name="Tbar" unicode="&#x166;" horiz-adv-x="592" 
d="M392 496v-136h64v-96h-64v-264h-192v264h-64v96h64v136h-176v176h544v-176h-176z" />
    <glyph glyph-name="tbar" unicode="&#x167;" horiz-adv-x="416" 
d="M280 352v-32h96v-96h-96q0 -47 10.5 -65.5t44.5 -18.5q20 0 41 4v-144q-52 -16 -128 -16q-87 0 -123 42.5t-37 130.5v67h-64v96h64v32h-64v160h64v160h192v-160h96v-160h-96z" />
    <glyph glyph-name="Umacron" unicode="&#x16a;" horiz-adv-x="720" 
d="M200 752v96h320v-96h-320zM680 672v-384q0 -89 -38.5 -158t-111 -107.5t-170.5 -38.5t-170.5 38.5t-111 107.5t-38.5 158v384h208v-386q0 -59 33.5 -92.5t78.5 -33.5q46 0 79 33.5t33 92.5v386h208z" />
    <glyph glyph-name="umacron" unicode="&#x16b;" horiz-adv-x="624" 
d="M150 592v96h320v-96h-320zM136 9.5q-44 25.5 -70 76t-26 122.5v304h192v-272q0 -42 21 -61t51 -19q29 0 50.5 20t21.5 60v272h192v-512h-192v64q-21 -39 -60 -59.5t-84 -20.5q-52 0 -96 25.5z" />
    <glyph glyph-name="Uring" unicode="&#x16e;" horiz-adv-x="720" 
d="M450.5 922.5q37.5 -37.5 37.5 -90.5t-37.5 -90.5t-90.5 -37.5t-90.5 37.5t-37.5 90.5t37.5 90.5t90.5 37.5t90.5 -37.5zM394 798.5q14 14.5 14 33.5q0 20 -14 34t-34 14q-19 0 -33.5 -14t-14.5 -34q0 -19 14.5 -33.5t33.5 -14.5q20 0 34 14.5zM680 672v-384
q0 -89 -38.5 -158t-111 -107.5t-170.5 -38.5t-170.5 38.5t-111 107.5t-38.5 158v384h208v-386q0 -59 33.5 -92.5t78.5 -33.5q46 0 79 33.5t33 92.5v386h208z" />
    <glyph glyph-name="uring" unicode="&#x16f;" horiz-adv-x="624" 
d="M402.5 762.5q37.5 -37.5 37.5 -90.5t-37.5 -90.5t-90.5 -37.5t-90.5 37.5t-37.5 90.5t37.5 90.5t90.5 37.5t90.5 -37.5zM346 638.5q14 14.5 14 33.5q0 20 -14 34t-34 14q-19 0 -33.5 -14t-14.5 -34q0 -19 14.5 -33.5t33.5 -14.5q20 0 34 14.5zM136 9.5q-44 25.5 -70 76
t-26 122.5v304h192v-272q0 -42 21 -61t51 -19q29 0 50.5 20t21.5 60v272h192v-512h-192v64q-21 -39 -60 -59.5t-84 -20.5q-52 0 -96 25.5z" />
    <glyph glyph-name="Uhungarumlaut" unicode="&#x170;" horiz-adv-x="720" 
d="M216 896h144l-80 -160h-96zM456 896h144l-80 -160h-96zM680 672v-384q0 -89 -38.5 -158t-111 -107.5t-170.5 -38.5t-170.5 38.5t-111 107.5t-38.5 158v384h208v-386q0 -59 33.5 -92.5t78.5 -33.5q46 0 79 33.5t33 92.5v386h208z" />
    <glyph glyph-name="uhungarumlaut" unicode="&#x171;" horiz-adv-x="624" 
d="M152 736h144l-80 -160h-96zM392 736h144l-80 -160h-96zM136 9.5q-44 25.5 -70 76t-26 122.5v304h192v-272q0 -42 21 -61t51 -19q29 0 50.5 20t21.5 60v272h192v-512h-192v64q-21 -39 -60 -59.5t-84 -20.5q-52 0 -96 25.5z" />
    <glyph glyph-name="Uogonek" unicode="&#x172;" horiz-adv-x="720" 
d="M680 672v-384q0 -117 -67 -198t-184 -101q-49 -12 -49 -63q0 -24 17 -36.5t43 -12.5q24 0 49 11l16 -80q-46 -16 -80 -16q-60 0 -94 35.5t-34 92.5q0 16 5.5 34.5t14.5 31.5q-86 8 -148.5 48.5t-95.5 106t-33 147.5v384h208v-386q0 -59 33.5 -92.5t78.5 -33.5
q46 0 79 33.5t33 92.5v386h208z" />
    <glyph glyph-name="uogonek" unicode="&#x173;" horiz-adv-x="624" 
d="M456.5 -17.5q-29.5 -17.5 -29.5 -56.5q0 -24 17 -36.5t43 -12.5q24 0 49 11l16 -80q-46 -16 -80 -16q-60 0 -94 35.5t-34 92.5q0 21 9.5 45t22.5 35v64q-21 -39 -60 -59.5t-84 -20.5q-52 0 -96 25.5t-70 76t-26 122.5v304h192v-272q0 -42 21 -61t51 -19q29 0 50.5 20
t21.5 60v272h192v-512h-48q-34 0 -63.5 -17.5z" />
    <glyph glyph-name="Wcircumflex" unicode="&#x174;" horiz-adv-x="1024" 
d="M512 816l-48 -80h-160l160 160h96l160 -160h-160zM696 272l112 400h216l-224 -672h-200l-88 320l-88 -320h-200l-224 672h216l112 -400l96 400h176z" />
    <glyph glyph-name="wcircumflex" unicode="&#x175;" horiz-adv-x="832" 
d="M416 656l-48 -80h-160l160 160h96l160 -160h-160zM832 512l-176 -512h-160l-80 248l-80 -248h-160l-176 512h192l68 -264l80 264h152l80 -264l68 264h192z" />
    <glyph glyph-name="Ycircumflex" unicode="&#x176;" horiz-adv-x="688" 
d="M344 816l-48 -80h-160l160 160h96l160 -160h-160zM696 672l-256 -400v-272h-192v272l-256 400h224l128 -208l128 208h224z" />
    <glyph glyph-name="ycircumflex" unicode="&#x177;" horiz-adv-x="560" 
d="M280 656l-48 -80h-160l160 160h96l160 -160h-160zM72 -256l112 272l-192 496h192l96 -272l96 272h192l-304 -768h-192z" />
    <glyph glyph-name="Ydieresis" unicode="&#x178;" horiz-adv-x="688" 
d="M175.5 759.5q-23.5 23.5 -23.5 56.5t23.5 56.5t56.5 23.5t56.5 -23.5t23.5 -56.5t-23.5 -56.5t-56.5 -23.5t-56.5 23.5zM399.5 759.5q-23.5 23.5 -23.5 56.5t23.5 56.5t56.5 23.5t56.5 -23.5t23.5 -56.5t-23.5 -56.5t-56.5 -23.5t-56.5 23.5zM696 672l-256 -400v-272
h-192v272l-256 400h224l128 -208l128 208h224z" />
    <glyph glyph-name="Zacute" unicode="&#x179;" horiz-adv-x="640" 
d="M320 896h192l-160 -160h-128zM24 0l280 496h-264v176h576l-280 -496h264v-176h-576z" />
    <glyph glyph-name="zacute" unicode="&#x17a;" horiz-adv-x="560" 
d="M280 736h192l-160 -160h-128zM24 0l224 352h-208v160h496l-224 -352h208v-160h-496z" />
    <glyph glyph-name="Zdotaccent" unicode="&#x17b;" horiz-adv-x="640" 
d="M252 748q-28 28 -28 68t28 68t68 28t68 -28t28 -68t-28 -68t-68 -28t-68 28zM24 0l280 496h-264v176h576l-280 -496h264v-176h-576z" />
    <glyph glyph-name="zdotaccent" unicode="&#x17c;" horiz-adv-x="560" 
d="M212 588q-28 28 -28 68t28 68t68 28t68 -28t28 -68t-28 -68t-68 -28t-68 28zM24 0l224 352h-208v160h496l-224 -352h208v-160h-496z" />
    <glyph glyph-name="Zcaron" unicode="&#x17d;" horiz-adv-x="640" 
d="M528 896l-160 -160h-96l-160 160h160l48 -80l48 80h160zM24 0l280 496h-264v176h576l-280 -496h264v-176h-576z" />
    <glyph glyph-name="zcaron" unicode="&#x17e;" horiz-adv-x="560" 
d="M488 736l-160 -160h-96l-160 160h160l48 -80l48 80h160zM24 0l224 352h-208v160h496l-224 -352h208v-160h-496z" />
    <glyph glyph-name="Aringacute" unicode="&#x1fa;" horiz-adv-x="720" 
d="M360 1152h192l-160 -160h-128zM450.5 922.5q37.5 -37.5 37.5 -90.5t-37.5 -90.5t-90.5 -37.5t-90.5 37.5t-37.5 90.5t37.5 90.5t90.5 37.5t90.5 -37.5zM394 798.5q14 14.5 14 33.5q0 20 -14 34t-34 14q-19 0 -33.5 -14t-14.5 -34q0 -19 14.5 -33.5t33.5 -14.5
q20 0 34 14.5zM728 0h-195l-43 112h-260l-43 -112h-195l278 672h180zM434 256l-74 192l-74 -192h148z" />
    <glyph glyph-name="aringacute" unicode="&#x1fb;" 
d="M360 992h192l-160 -160h-128zM434.5 762.5q37.5 -37.5 37.5 -90.5t-37.5 -90.5t-90.5 -37.5t-90.5 37.5t-37.5 90.5t37.5 90.5t90.5 37.5t90.5 -37.5zM378 638.5q14 14.5 14 33.5q0 20 -14 34t-34 14q-19 0 -33.5 -14t-14.5 -34q0 -19 14.5 -33.5t33.5 -14.5
q20 0 34 14.5zM600 512v-512h-192v52q-57 -68 -144 -68q-65 0 -120.5 36.5t-87.5 99t-32 136.5t32 136.5t87.5 99t120.5 36.5q87 0 144 -68v52h192zM380 177q28 33 28 79t-28 79t-68 33t-68 -33t-28 -79t28 -79t68 -33t68 33z" />
    <glyph glyph-name="AEacute" unicode="&#x1fc;" horiz-adv-x="864" 
d="M456 896h192l-160 -160h-128zM568 496v-80h208v-160h-208v-80h256v-176h-448v112h-143l-46 -112h-195l294 672h538v-176h-256zM376 256v208l-85 -208h85z" />
    <glyph glyph-name="aeacute" unicode="&#x1fd;" horiz-adv-x="912" 
d="M456 736h192l-160 -160h-128zM884 208h-326q6 -30 38 -47t78 -17q36 0 65.5 7t46 14.5t20.5 10.5l49 -144q0 -2 -27 -14.5t-71.5 -23t-100.5 -10.5q-63 0 -117 16h-195v33q-12 -22 -48.5 -35.5t-79.5 -13.5q-56 0 -100 23.5t-68 64t-24 88.5q0 32 19 74.5t77 69.5
q59 27 130 27q47 0 94 -11q-1 36 -24.5 51.5t-61.5 15.5q-31 0 -65 -8t-58 -16t-31 -11l-48 112q0 2 33 19t90 31t133 14q110 0 158 -43q67 43 162 43q123 0 189.5 -71.5t66.5 -200.5q0 -16 -4 -48zM692 304q0 34 -17.5 57t-50.5 23q-29 0 -47.5 -24t-18.5 -56h134zM344 240
h-16q-56 0 -84 -21t-28 -53q0 -33 18 -51.5t49 -18.5q28 0 44.5 17.5t16.5 46.5v80z" />
    <glyph glyph-name="Scommaaccent" unicode="&#x218;" horiz-adv-x="640" 
d="M466.5 408.5q62.5 -19.5 106 -65t43.5 -124.5q0 -105 -75 -170t-229 -65q-80 0 -144 22t-104 48.5t-40 29.5l71 153q44 -34 92.5 -51t86.5 -22.5t38 -3.5q112 -4 112 41q0 14 -12 22t-35.5 13.5t-75.5 13.5q-135 21 -198 76t-63 144q0 61 32 110.5t97 78.5t161 29
q0 2 50.5 -3.5t107 -23t96.5 -53.5l-76 -144q0 2 -24.5 14.5t-68 23t-103.5 10.5q-80 0 -80 -32q0 -17 18 -25.5t70 -15.5q84 -11 146.5 -30.5zM248 -64h144l-80 -160h-96z" />
    <glyph glyph-name="scommaaccent" unicode="&#x219;" horiz-adv-x="560" 
d="M429.5 314.5q49.5 -15.5 78 -50.5t28.5 -98q0 -84 -64 -133t-199 -49q-71 0 -126 16t-89 35t-34 21l48 136q31 -21 69.5 -34t67 -18t36.5 -6q21 -3 44 -3q24 0 39.5 4t15.5 13q0 8 -5.5 12t-23.5 8t-62 10q-213 30 -213 158q0 86 67.5 139t200.5 53q9 0 41 -2.5t75.5 -12
t79.5 -28.5l-48 -137q0 1 -23.5 10t-61.5 16.5t-87 7.5q-28 0 -40 -3.5t-12 -13.5q0 -12 14 -16t53 -9q81 -10 130.5 -25.5zM216 -64h144l-80 -160h-96z" />
    <glyph glyph-name="uni021A" unicode="&#x21a;" horiz-adv-x="592" 
d="M568 672v-176h-176v-496h-192v496h-176v176h544zM232 -64h144l-80 -160h-96z" />
    <glyph glyph-name="uni021B" unicode="&#x21b;" horiz-adv-x="416" 
d="M280 352v-128q0 -47 10.5 -65.5t44.5 -18.5q20 0 41 4v-144q-52 -16 -128 -16q-87 0 -123 42.5t-37 130.5v195h-64v160h64v160h192v-160h96v-160h-96zM136 -64h144l-80 -160h-96z" />
    <glyph glyph-name="circumflex" unicode="&#x2c6;" horiz-adv-x="784" 
d="M392 816l-48 -80h-160l160 160h96l160 -160h-160z" />
    <glyph glyph-name="caron" unicode="&#x2c7;" horiz-adv-x="784" 
d="M600 896l-160 -160h-96l-160 160h160l48 -80l48 80h160z" />
    <glyph glyph-name="breve" unicode="&#x2d8;" horiz-adv-x="784" 
d="M552 896q0 -43 -21.5 -80t-58.5 -58.5t-80 -21.5t-80 21.5t-58.5 58.5t-21.5 80h96q0 -26 19 -45t45 -19t45 19t19 45h96z" />
    <glyph glyph-name="dotaccent" unicode="&#x2d9;" horiz-adv-x="784" 
d="M324 748q-28 28 -28 68t28 68t68 28t68 -28t28 -68t-28 -68t-68 -28t-68 28z" />
    <glyph glyph-name="ring" unicode="&#x2da;" horiz-adv-x="784" 
d="M482.5 922.5q37.5 -37.5 37.5 -90.5t-37.5 -90.5t-90.5 -37.5t-90.5 37.5t-37.5 90.5t37.5 90.5t90.5 37.5t90.5 -37.5zM426 798.5q14 14.5 14 33.5q0 20 -14 34t-34 14q-19 0 -33.5 -14t-14.5 -34q0 -19 14.5 -33.5t33.5 -14.5q20 0 34 14.5z" />
    <glyph glyph-name="ogonek" unicode="&#x2db;" horiz-adv-x="784" 
d="M478 0q-34 0 -63.5 -17.5t-29.5 -56.5q0 -24 17 -36.5t43 -12.5q24 0 49 11l16 -80q-46 -16 -80 -16q-60 0 -94 35.5t-34 92.5q0 21 9.5 45t22.5 35h144z" />
    <glyph glyph-name="tilde" unicode="&#x2dc;" horiz-adv-x="784" 
d="M608 834q-25 -54 -57 -76t-71 -22q-40 0 -88 20q-48 21 -73 21q-18 0 -31 -9.5t-24 -31.5l-88 30q25 54 57 76t71 22q23 0 43 -5.5t45 -15.5q47 -21 72 -21q18 0 31.5 10t24.5 32z" />
    <glyph glyph-name="hungarumlaut" unicode="&#x2dd;" horiz-adv-x="784" 
d="M232 896h144l-80 -160h-96zM472 896h144l-80 -160h-96z" />
    <glyph glyph-name="Alphatonos" unicode="&#x386;" horiz-adv-x="736" 
d="M744 0h-195l-43 112h-260l-43 -112h-195l278 672h180zM56 672h144l-80 -160h-96zM450 256l-74 192l-74 -192h148z" />
    <glyph glyph-name="Epsilontonos" unicode="&#x388;" horiz-adv-x="720" 
d="M56 672h144l-80 -160h-96zM424 496v-80h208v-160h-208v-80h256v-176h-448v672h448v-176h-256z" />
    <glyph glyph-name="Etatonos" unicode="&#x389;" horiz-adv-x="896" 
d="M56 672h144l-80 -160h-96zM840 672v-672h-192v248h-224v-248h-192v672h192v-248h224v248h192z" />
    <glyph glyph-name="Iotatonos" unicode="&#x38a;" horiz-adv-x="480" 
d="M56 672h144l-80 -160h-96zM232 0v672h192v-672h-192z" />
    <glyph glyph-name="Omicrontonos" unicode="&#x38c;" horiz-adv-x="896" 
d="M688.5 640.5q84.5 -47.5 134 -128.5t49.5 -176t-49.5 -176t-134 -128.5t-184.5 -47.5t-184.5 47.5t-134 128.5t-49.5 176t49.5 176t134 128.5t184.5 47.5t184.5 -47.5zM56 672h144l-80 -160h-96zM592.5 183.5q40.5 23.5 64 64t23.5 88.5t-23.5 88.5t-64 64t-88.5 23.5
t-88.5 -23.5t-64 -64t-23.5 -88.5t23.5 -88.5t64 -64t88.5 -23.5t88.5 23.5z" />
    <glyph glyph-name="Upsilontonos" unicode="&#x38e;" horiz-adv-x="928" 
d="M56 672h144l-80 -160h-96zM936 672l-256 -400v-272h-192v272l-256 400h224l128 -208l128 208h224z" />
    <glyph glyph-name="Omegatonos" unicode="&#x38f;" horiz-adv-x="928" 
d="M861.5 264.5q-26.5 -55.5 -74.5 -88.5h101v-176h-336v192q66 18 105 58.5t39 101.5q0 44 -23.5 80.5t-64 58t-88.5 21.5t-88.5 -21.5t-64 -58t-23.5 -80.5q0 -61 39 -101.5t105 -58.5v-192h-336v176h101q-48 33 -74.5 88.5t-26.5 119.5q0 88 48 157t132 108t188 39
t188 -39t132 -108t48 -157q0 -64 -26.5 -119.5zM56 672h144l-80 -160h-96z" />
    <glyph glyph-name="iotadieresistonos" unicode="&#x390;" horiz-adv-x="336" 
d="M-80.5 599.5q-23.5 23.5 -23.5 56.5t23.5 56.5t56.5 23.5t56.5 -23.5t23.5 -56.5t-23.5 -56.5t-56.5 -23.5t-56.5 23.5zM112 736h144l-80 -160h-96zM287.5 599.5q-23.5 23.5 -23.5 56.5t23.5 56.5t56.5 23.5t56.5 -23.5t23.5 -56.5t-23.5 -56.5t-56.5 -23.5t-56.5 23.5z
M248 208q0 -36 9 -51.5t31 -15.5q11 0 24 3v-144q-46 -16 -106 -16q-78 0 -114 48t-36 141v339h192v-304z" />
    <glyph glyph-name="Alpha" unicode="&#x391;" horiz-adv-x="720" 
d="M728 0h-195l-43 112h-260l-43 -112h-195l278 672h180zM434 256l-74 192l-74 -192h148z" />
    <glyph glyph-name="Beta" unicode="&#x392;" 
d="M605 303.5q27 -44.5 27 -101.5q0 -58 -27.5 -104t-80 -72t-122.5 -26h-346v672h288q118 0 187 -45.5t69 -130.5q0 -49 -22.5 -85.5t-58.5 -49.5q59 -13 86 -57.5zM248 416h80q80 0 80 56t-80 56h-80v-112zM414.5 160q25.5 16 25.5 48t-25.5 48t-70.5 16h-96v-128h96
q45 0 70.5 16z" />
    <glyph glyph-name="Gamma" unicode="&#x393;" horiz-adv-x="528" 
d="M248 0h-192v672h448v-176h-256v-496z" />
    <glyph glyph-name="uni0394" unicode="&#x394;" horiz-adv-x="720" 
d="M728 0h-736l278 672h180zM465 176l-105 272l-105 -272h210z" />
    <glyph glyph-name="Epsilon" unicode="&#x395;" horiz-adv-x="544" 
d="M248 496v-80h208v-160h-208v-80h256v-176h-448v672h448v-176h-256z" />
    <glyph glyph-name="Zeta" unicode="&#x396;" horiz-adv-x="640" 
d="M24 0l280 496h-264v176h576l-280 -496h264v-176h-576z" />
    <glyph glyph-name="Eta" unicode="&#x397;" horiz-adv-x="720" 
d="M664 672v-672h-192v248h-224v-248h-192v672h192v-248h224v248h192z" />
    <glyph glyph-name="Theta" unicode="&#x398;" horiz-adv-x="784" 
d="M576.5 640.5q84.5 -47.5 134 -128.5t49.5 -176t-49.5 -176t-134 -128.5t-184.5 -47.5t-184.5 47.5t-134 128.5t-49.5 176t49.5 176t134 128.5t184.5 47.5t184.5 -47.5zM480.5 183.5q40.5 23.5 64 64t23.5 88.5t-23.5 88.5t-64 64t-88.5 23.5t-88.5 -23.5t-64 -64
t-23.5 -88.5t23.5 -88.5t64 -64t88.5 -23.5t88.5 23.5zM264 384h256v-96h-256v96z" />
    <glyph glyph-name="Iota" unicode="&#x399;" horiz-adv-x="304" 
d="M56 0v672h192v-672h-192z" />
    <glyph glyph-name="Kappa" unicode="&#x39a;" horiz-adv-x="704" 
d="M696 0h-240l-208 288v-288h-192v672h192v-256l192 256h240l-256 -320z" />
    <glyph glyph-name="Lambda" unicode="&#x39b;" horiz-adv-x="720" 
d="M728 0h-195l-173 448l-173 -448h-195l278 672h180z" />
    <glyph glyph-name="Mu" unicode="&#x39c;" horiz-adv-x="880" 
d="M856 0h-192l-32 352l-112 -352h-160l-112 352l-32 -352h-192l64 672h192l160 -400l160 400h192z" />
    <glyph glyph-name="Nu" unicode="&#x39d;" horiz-adv-x="752" 
d="M696 672v-672h-192l-256 368v-368h-192v672h192l256 -368v368h192z" />
    <glyph glyph-name="Xi" unicode="&#x39e;" horiz-adv-x="592" 
d="M40 672h512v-176h-512v176zM88 416h416v-160h-416v160zM40 176h512v-176h-512v176z" />
    <glyph glyph-name="Omicron" unicode="&#x39f;" horiz-adv-x="784" 
d="M576.5 640.5q84.5 -47.5 134 -128.5t49.5 -176t-49.5 -176t-134 -128.5t-184.5 -47.5t-184.5 47.5t-134 128.5t-49.5 176t49.5 176t134 128.5t184.5 47.5t184.5 -47.5zM480.5 183.5q40.5 23.5 64 64t23.5 88.5t-23.5 88.5t-64 64t-88.5 23.5t-88.5 -23.5t-64 -64
t-23.5 -88.5t23.5 -88.5t64 -64t88.5 -23.5t88.5 23.5z" />
    <glyph glyph-name="Pi" unicode="&#x3a0;" horiz-adv-x="720" 
d="M664 0h-192v496h-224v-496h-192v672h608v-672z" />
    <glyph glyph-name="Rho" unicode="&#x3a1;" horiz-adv-x="640" 
d="M551.5 611q64.5 -61 64.5 -163q0 -66 -27 -120.5t-77.5 -87t-119.5 -32.5h-144v-208h-192v672h304q127 0 191.5 -61zM401 386q23 18 23 54q0 35 -23 53.5t-59 18.5h-94v-144h94q36 0 59 18z" />
    <glyph glyph-name="Sigma" unicode="&#x3a3;" horiz-adv-x="640" 
d="M456 336l-150 -160h278v-176h-528v176l160 160l-160 160v176h528v-176h-278z" />
    <glyph glyph-name="Tau" unicode="&#x3a4;" horiz-adv-x="592" 
d="M568 672v-176h-176v-496h-192v496h-176v176h544z" />
    <glyph glyph-name="Upsilon" unicode="&#x3a5;" horiz-adv-x="688" 
d="M696 672l-256 -400v-272h-192v272l-256 400h224l128 -208l128 208h224z" />
    <glyph glyph-name="Phi" unicode="&#x3a6;" horiz-adv-x="816" 
d="M755.5 204.5q-36.5 -65.5 -102 -103t-149.5 -37.5v-64h-192v64q-84 0 -149.5 37.5t-102 103t-36.5 147.5q0 83 36.5 149t102.5 102.5t149 36.5v64h192v-64q83 0 149 -36.5t102.5 -102.5t36.5 -149q0 -82 -36.5 -147.5zM312 464q-38 0 -67 -28t-29 -84q0 -57 29 -84.5
t67 -27.5v224zM571 267.5q29 27.5 29 84.5q0 56 -29 84t-67 28v-224q38 0 67 27.5z" />
    <glyph glyph-name="Chi" unicode="&#x3a7;" horiz-adv-x="736" 
d="M728 0h-226l-134 212l-134 -212h-226l228 352l-211 320h226l117 -188l117 188h226l-211 -320z" />
    <glyph glyph-name="Psi" unicode="&#x3a8;" horiz-adv-x="880" 
d="M824 672v-254q0 -149 -77.5 -215t-210.5 -83v-120h-192v120q-133 17 -210.5 83t-77.5 215v254h192v-268q0 -101 96 -108v376h192v-376q96 7 96 108v268h192z" />
    <glyph glyph-name="uni03A9" unicode="&#x3a9;" horiz-adv-x="816" 
d="M749.5 264.5q-26.5 -55.5 -74.5 -88.5h101v-176h-336v192q66 18 105 58.5t39 101.5q0 44 -23.5 80.5t-64 58t-88.5 21.5t-88.5 -21.5t-64 -58t-23.5 -80.5q0 -61 39 -101.5t105 -58.5v-192h-336v176h101q-48 33 -74.5 88.5t-26.5 119.5q0 88 48 157t132 108t188 39
t188 -39t132 -108t48 -157q0 -64 -26.5 -119.5z" />
    <glyph glyph-name="Iotadieresis" unicode="&#x3aa;" horiz-adv-x="304" 
d="M-16.5 759.5q-23.5 23.5 -23.5 56.5t23.5 56.5t56.5 23.5t56.5 -23.5t23.5 -56.5t-23.5 -56.5t-56.5 -23.5t-56.5 23.5zM207.5 759.5q-23.5 23.5 -23.5 56.5t23.5 56.5t56.5 23.5t56.5 -23.5t23.5 -56.5t-23.5 -56.5t-56.5 -23.5t-56.5 23.5zM56 0v672h192v-672h-192z
" />
    <glyph glyph-name="Upsilondieresis" unicode="&#x3ab;" horiz-adv-x="688" 
d="M175.5 759.5q-23.5 23.5 -23.5 56.5t23.5 56.5t56.5 23.5t56.5 -23.5t23.5 -56.5t-23.5 -56.5t-56.5 -23.5t-56.5 23.5zM399.5 759.5q-23.5 23.5 -23.5 56.5t23.5 56.5t56.5 23.5t56.5 -23.5t23.5 -56.5t-23.5 -56.5t-56.5 -23.5t-56.5 23.5zM696 672l-256 -400v-272
h-192v272l-256 400h224l128 -208l128 208h224z" />
    <glyph glyph-name="alphatonos" unicode="&#x3ac;" horiz-adv-x="688" 
d="M320 736h144l-80 -160h-96zM609 157q9 -15 33 -15q6 0 22 2v-144q-28 -8 -49 -12t-49 -4q-53 0 -87.5 21.5t-48.5 59.5q-26 -37 -65 -59t-101 -22q-65 0 -120.5 36.5t-87.5 99t-32 136.5t32 136.5t87.5 99t120.5 36.5q87 0 144 -68v52h192v-304q0 -36 9 -51zM380 177
q28 33 28 79t-28 79t-68 33t-68 -33t-28 -79t28 -79t68 -33t68 33z" />
    <glyph glyph-name="epsilontonos" unicode="&#x3ad;" horiz-adv-x="528" 
d="M232 736h144l-80 -160h-96zM379 160q34 8 61 20l64 -135q-45 -31 -106.5 -46t-117.5 -15q-118 0 -187 43t-69 123q0 35 23.5 67.5t59.5 46.5q-34 13 -54.5 43.5t-20.5 62.5q0 158 243 158q55 0 116 -15.5t106 -46.5l-57 -134q-29 11 -65 19.5t-62 8.5q-48 0 -72.5 -7
t-24.5 -23t43 -25t101 -9l-1 -80q-58 0 -100.5 -9t-42.5 -25q0 -17 27 -23.5t75 -6.5q27 0 61 8z" />
    <glyph glyph-name="etatonos" unicode="&#x3ae;" horiz-adv-x="624" 
d="M272 736h144l-80 -160h-96zM488 502.5q44 -25.5 70 -76t26 -122.5v-560h-192v528q0 42 -21 61t-51 19q-29 0 -50.5 -20t-21.5 -60v-272h-192v512h192v-64q21 39 60 59.5t84 20.5q52 0 96 -25.5z" />
    <glyph glyph-name="iotatonos" unicode="&#x3af;" horiz-adv-x="336" 
d="M112 736h144l-80 -160h-96zM248 208q0 -36 9 -51.5t31 -15.5q11 0 24 3v-144q-46 -16 -106 -16q-78 0 -114 48t-36 141v339h192v-304z" />
    <glyph glyph-name="upsilondieresistonos" unicode="&#x3b0;" horiz-adv-x="624" 
d="M63.5 599.5q-23.5 23.5 -23.5 56.5t23.5 56.5t56.5 23.5t56.5 -23.5t23.5 -56.5t-23.5 -56.5t-56.5 -23.5t-56.5 23.5zM256 736h144l-80 -160h-96zM431.5 599.5q-23.5 23.5 -23.5 56.5t23.5 56.5t56.5 23.5t56.5 -23.5t23.5 -56.5t-23.5 -56.5t-56.5 -23.5t-56.5 23.5z
M584 276q0 -134 -70 -213t-202 -79q-85 0 -146.5 33t-93.5 92.5t-32 138.5v264h192v-250q0 -53 22.5 -77.5t57.5 -24.5q33 0 56.5 27.5t23.5 82.5q0 56 -11 115t-29 127h184q48 -129 48 -236z" />
    <glyph glyph-name="alpha" unicode="&#x3b1;" horiz-adv-x="688" 
d="M609 157q9 -15 33 -15q6 0 22 2v-144q-28 -8 -49 -12t-49 -4q-53 0 -87.5 21.5t-48.5 59.5q-26 -37 -65 -59t-101 -22q-65 0 -120.5 36.5t-87.5 99t-32 136.5t32 136.5t87.5 99t120.5 36.5q87 0 144 -68v52h192v-304q0 -36 9 -51zM380 177q28 33 28 79t-28 79t-68 33
t-68 -33t-28 -79t28 -79t68 -33t68 33z" />
    <glyph glyph-name="beta" unicode="&#x3b2;" horiz-adv-x="624" 
d="M539.5 351q29.5 -27 45 -65t15.5 -73q0 -61 -26.5 -113t-82 -84t-139.5 -32q-37 0 -68 9t-52 23v-272h-192v752q0 73 35.5 123.5t92 75.5t120.5 25q127 0 195.5 -56t68.5 -149q0 -40 -24 -80.5t-56 -50.5q38 -6 67.5 -33zM304 137q44 0 74 21.5t30 65.5q0 52 -33 74
t-111 22v96q47 0 71.5 22.5t24.5 57.5q0 36 -15.5 58t-48.5 22q-27 0 -45.5 -21t-18.5 -59v-344q35 -15 72 -15z" />
    <glyph glyph-name="gamma" unicode="&#x3b3;" horiz-adv-x="560" 
d="M376 20v-276h-192v276l-192 492h192l96 -272l96 272h192z" />
    <glyph glyph-name="delta" unicode="&#x3b4;" horiz-adv-x="624" 
d="M562.5 117q-35.5 -61 -100.5 -97t-150 -36q-87 0 -152.5 36t-100.5 98.5t-35 137.5q0 77 35 139t100 97q-27 23 -41 49.5t-14 54.5q0 27 14 51t40 40t68 24.5t85 8.5q98 0 193 -24l-16 -136q-67 17 -138 17q-22 0 -32 -1q-16 -1 -24.5 -4.5t-8.5 -9.5q0 -5 9 -10.5
t24 -9.5q130 -28 206 -93.5t76 -196.5q-2 -74 -37.5 -135zM380 177q28 33 28 79q0 47 -36 85t-76 53q-4 0 -24.5 -19t-38 -50t-17.5 -69q0 -46 28 -79t68 -33t68 33z" />
    <glyph glyph-name="epsilon" unicode="&#x3b5;" horiz-adv-x="544" 
d="M395 160q34 8 61 20l64 -135q-45 -31 -106.5 -46t-117.5 -15q-118 0 -187 43t-69 123q0 35 23.5 67.5t59.5 46.5q-34 13 -54.5 43.5t-20.5 62.5q0 158 243 158q55 0 116 -15.5t106 -46.5l-57 -134q-29 11 -65 19.5t-62 8.5q-48 0 -72.5 -7t-24.5 -23t43 -25t101 -9
l-1 -80q-58 0 -100.5 -9t-42.5 -25q0 -17 27 -23.5t75 -6.5q27 0 61 8z" />
    <glyph glyph-name="zeta" unicode="&#x3b6;" horiz-adv-x="544" 
d="M310.5 363.5q-78.5 -64.5 -78.5 -115.5q0 -39 18.5 -59.5t46.5 -28t74 -12.5q54 -7 86.5 -16.5t55.5 -38t23 -83.5q0 -42 -16 -106h-144q5 23 5 37q0 23 -16.5 33t-60.5 10q-126 0 -195 49.5t-69 158.5q0 64 31.5 126.5t87.5 109.5t126 68h-197v176h432v-176
q-131 -68 -209.5 -132.5z" />
    <glyph glyph-name="eta" unicode="&#x3b7;" horiz-adv-x="624" 
d="M488 502.5q44 -25.5 70 -76t26 -122.5v-560h-192v528q0 42 -21 61t-51 19q-29 0 -50.5 -20t-21.5 -60v-272h-192v512h192v-64q21 39 60 59.5t84 20.5q52 0 96 -25.5z" />
    <glyph glyph-name="theta" unicode="&#x3b8;" 
d="M484 641.5q65 -46.5 98.5 -126.5t33.5 -179q0 -100 -31.5 -179.5t-96.5 -126t-160 -46.5q-96 0 -160.5 46.5t-96 126t-31.5 179.5q0 99 33.5 179t98.5 126.5t156 46.5t156 -46.5zM267.5 476.5q-24.5 -35.5 -32.5 -92.5h186q-8 57 -32.5 92.5t-60.5 35.5t-60.5 -35.5z
M388.5 195.5q24.5 35.5 32.5 92.5h-186q8 -57 32.5 -92.5t60.5 -35.5t60.5 35.5z" />
    <glyph glyph-name="iota" unicode="&#x3b9;" horiz-adv-x="336" 
d="M248 208q0 -36 9 -51.5t31 -15.5q11 0 24 3v-144q-46 -16 -106 -16q-78 0 -114 48t-36 141v339h192v-304z" />
    <glyph glyph-name="kappa" unicode="&#x3ba;" horiz-adv-x="608" 
d="M616 0h-224l-144 208v-208h-192v512h192v-192l128 192h224l-192 -244z" />
    <glyph glyph-name="lambda" unicode="&#x3bb;" horiz-adv-x="640" 
d="M542.5 157.5q18.5 -17.5 44.5 -17.5q14 0 29 4v-144q-39 -16 -86 -16q-54 0 -90 30t-59.5 79t-52.5 133l-16 46l-96 -272h-192l200 491q-16 40 -33 56.5t-42 16.5q-14 0 -29 -4v144q20 8 38 12t45 4q53 0 87 -28.5t56 -72.5t57 -135l105 -268q16 -41 34.5 -58.5z" />
    <glyph glyph-name="uni03BC" unicode="&#x3bc;" horiz-adv-x="640" 
d="M584 512v-512h-192v64q-21 -39 -60 -59.5t-84 -20.5v-240h-192v768h192v-272q0 -42 21 -61t51 -19q29 0 50.5 20t21.5 60v272h192z" />
    <glyph glyph-name="nu" unicode="&#x3bd;" horiz-adv-x="560" 
d="M-8 512h192l96 -272l91 272h197l-208 -512h-160z" />
    <glyph glyph-name="xi" unicode="&#x3be;" horiz-adv-x="560" 
d="M325 144l36 -2q61 -3 99 -10.5t65 -35.5t27 -86q0 -42 -16 -106h-144q5 25 5 38q0 22 -15 32t-54 10q-151 0 -219.5 45.5t-68.5 146.5q0 114 132 172q-116 46 -116 166q0 98 68.5 152t189.5 54q53 0 111.5 -18t94.5 -46l-64 -144q-25 17 -62 24.5t-71 7.5
q-38 0 -64.5 -10.5t-26.5 -36.5q0 -22 26 -40.5t77 -29.5t121 -11v-136q-104 0 -164 -17.5t-60 -54.5q0 -57 93 -64z" />
    <glyph glyph-name="omicron" unicode="&#x3bf;" horiz-adv-x="624" 
d="M461 491.5q66 -36.5 102.5 -98.5t36.5 -137t-36.5 -137t-102 -98.5t-149.5 -36.5q-87 0 -152.5 36t-100.5 98.5t-35 137.5q0 76 34.5 138t100 98t153.5 36q83 0 149 -36.5zM380 177q28 33 28 79t-28 79t-68 33t-68 -33t-28 -79t28 -79t68 -33t68 33z" />
    <glyph glyph-name="pi" unicode="&#x3c0;" horiz-adv-x="688" 
d="M568 208q0 -36 9 -51.5t31 -15.5q11 0 24 3v-144q-46 -16 -102 -16q-77 0 -111.5 48t-34.5 141v163h-104v-336h-192v336h-64v176h624v-176h-80v-128z" />
    <glyph glyph-name="rho" unicode="&#x3c1;" 
d="M493 491.5q66 -36.5 102.5 -98.5t36.5 -137t-32.5 -137t-91 -98.5t-132.5 -36.5q-39 0 -72.5 10t-55.5 26v-276h-192v512q0 76 34.5 138t100 98t153.5 36q83 0 149 -36.5zM412 177q28 33 28 79t-28 79t-68 33t-68 -33t-28 -79t28 -79t68 -33t68 33z" />
    <glyph glyph-name="uni03C2" unicode="&#x3c2;" horiz-adv-x="560" 
d="M536 -96h-144q5 22 5 34q0 25 -19 35.5t-69 10.5q-87 0 -152 36t-99 98t-34 138t34.5 138t99 98t151.5 36q55 0 108 -15t87 -48l-74 -145q-39 48 -102 48q-46 0 -79 -32.5t-33 -79.5t22 -71.5t55 -33t87 -13.5q56 -5 90.5 -14t58 -35.5t23.5 -78.5q0 -42 -16 -106z" />
    <glyph glyph-name="sigma" unicode="&#x3c3;" 
d="M632 336h-68q14 -16 25 -47t11 -65q0 -67 -36.5 -121.5t-102 -86.5t-149.5 -32q-87 0 -152.5 34.5t-100.5 94.5t-35 135t34.5 135t100 94.5t153.5 34.5h320v-176zM380 171q28 27 28 69t-28 69t-68 27t-68 -27t-28 -69t28 -69t68 -27t68 27z" />
    <glyph glyph-name="tau" unicode="&#x3c4;" horiz-adv-x="528" 
d="M360 208q0 -36 9 -51.5t31 -15.5q11 0 24 3v-144q-46 -16 -106 -16q-78 0 -114 48t-36 141v163h-144v176h480v-176h-144v-128z" />
    <glyph glyph-name="upsilon" unicode="&#x3c5;" horiz-adv-x="624" 
d="M584 276q0 -134 -70 -213t-202 -79q-85 0 -146.5 33t-93.5 92.5t-32 138.5v264h192v-250q0 -53 22.5 -77.5t57.5 -24.5q33 0 56.5 27.5t23.5 82.5q0 56 -11 115t-29 127h184q48 -129 48 -236z" />
    <glyph glyph-name="phi" unicode="&#x3c6;" horiz-adv-x="816" 
d="M715.5 444.5q76.5 -71.5 76.5 -188.5t-76.5 -188.5t-211.5 -83.5v-240h-192v240q-135 12 -211.5 83.5t-76.5 188.5t76.5 188.5t211.5 83.5v176h192v-176q135 -12 211.5 -83.5zM312 360q-43 -7 -69.5 -33t-26.5 -71t26.5 -71t69.5 -33v208zM573.5 327q-26.5 26 -69.5 33
v-208q43 7 69.5 33t26.5 71t-26.5 71z" />
    <glyph glyph-name="chi" unicode="&#x3c7;" horiz-adv-x="608" 
d="M600 0h-200l-96 144l-96 -144h-200l176 272l-160 240h200l80 -128l80 128h200l-160 -240z" />
    <glyph glyph-name="psi" unicode="&#x3c8;" horiz-adv-x="848" 
d="M808 512v-246q0 -127 -74.5 -198.5t-213.5 -83.5v-240h-192v240q-139 12 -213.5 83.5t-74.5 198.5v246h192v-242q0 -61 27 -85.5t69 -32.5v360h192v-360q42 8 69 32.5t27 85.5v242h192z" />
    <glyph glyph-name="omega" unicode="&#x3c9;" horiz-adv-x="880" 
d="M823 392q17 -70 17 -132q0 -134 -62 -205t-170 -71q-115 0 -168 69q-53 -69 -168 -69q-114 0 -173 70t-59 206q0 62 17 132t40 120h184q-21 -59 -35 -124.5t-14 -117.5q0 -55 19 -82.5t45 -27.5t37 23t11 79v170h192v-170q0 -56 11 -79t37 -23t45 27.5t19 82.5
q0 52 -14 117.5t-35 124.5h184q23 -50 40 -120z" />
    <glyph glyph-name="iotadieresis" unicode="&#x3ca;" horiz-adv-x="336" 
d="M-16.5 599.5q-23.5 23.5 -23.5 56.5t23.5 56.5t56.5 23.5t56.5 -23.5t23.5 -56.5t-23.5 -56.5t-56.5 -23.5t-56.5 23.5zM207.5 599.5q-23.5 23.5 -23.5 56.5t23.5 56.5t56.5 23.5t56.5 -23.5t23.5 -56.5t-23.5 -56.5t-56.5 -23.5t-56.5 23.5zM248 208q0 -36 9 -51.5
t31 -15.5q11 0 24 3v-144q-46 -16 -106 -16q-78 0 -114 48t-36 141v339h192v-304z" />
    <glyph glyph-name="upsilondieresis" unicode="&#x3cb;" horiz-adv-x="624" 
d="M119.5 599.5q-23.5 23.5 -23.5 56.5t23.5 56.5t56.5 23.5t56.5 -23.5t23.5 -56.5t-23.5 -56.5t-56.5 -23.5t-56.5 23.5zM343.5 599.5q-23.5 23.5 -23.5 56.5t23.5 56.5t56.5 23.5t56.5 -23.5t23.5 -56.5t-23.5 -56.5t-56.5 -23.5t-56.5 23.5zM584 276q0 -134 -70 -213
t-202 -79q-85 0 -146.5 33t-93.5 92.5t-32 138.5v264h192v-250q0 -53 22.5 -77.5t57.5 -24.5q33 0 56.5 27.5t23.5 82.5q0 56 -11 115t-29 127h184q48 -129 48 -236z" />
    <glyph glyph-name="omicrontonos" unicode="&#x3cc;" horiz-adv-x="624" 
d="M280 736h144l-80 -160h-96zM461 491.5q66 -36.5 102.5 -98.5t36.5 -137t-36.5 -137t-102 -98.5t-149.5 -36.5q-87 0 -152.5 36t-100.5 98.5t-35 137.5q0 76 34.5 138t100 98t153.5 36q83 0 149 -36.5zM380 177q28 33 28 79t-28 79t-68 33t-68 -33t-28 -79t28 -79t68 -33
t68 33z" />
    <glyph glyph-name="upsilontonos" unicode="&#x3cd;" horiz-adv-x="624" 
d="M248 736h144l-80 -160h-96zM584 276q0 -134 -70 -213t-202 -79q-85 0 -146.5 33t-93.5 92.5t-32 138.5v264h192v-250q0 -53 22.5 -77.5t57.5 -24.5q33 0 56.5 27.5t23.5 82.5q0 56 -11 115t-29 127h184q48 -129 48 -236z" />
    <glyph glyph-name="omegatonos" unicode="&#x3ce;" horiz-adv-x="880" 
d="M408 736h144l-80 -160h-96zM823 392q17 -70 17 -132q0 -134 -62 -205t-170 -71q-115 0 -168 69q-53 -69 -168 -69q-114 0 -173 70t-59 206q0 62 17 132t40 120h184q-21 -59 -35 -124.5t-14 -117.5q0 -55 19 -82.5t45 -27.5t37 23t11 79v170h192v-170q0 -56 11 -79t37 -23
t45 27.5t19 82.5q0 52 -14 117.5t-35 124.5h184q23 -50 40 -120z" />
    <glyph glyph-name="uni0401" unicode="&#x401;" horiz-adv-x="544" 
d="M103.5 759.5q-23.5 23.5 -23.5 56.5t23.5 56.5t56.5 23.5t56.5 -23.5t23.5 -56.5t-23.5 -56.5t-56.5 -23.5t-56.5 23.5zM327.5 759.5q-23.5 23.5 -23.5 56.5t23.5 56.5t56.5 23.5t56.5 -23.5t23.5 -56.5t-23.5 -56.5t-56.5 -23.5t-56.5 23.5zM248 496v-80h208v-160h-208
v-80h256v-176h-448v672h448v-176h-256z" />
    <glyph glyph-name="uni0402" unicode="&#x402;" horiz-adv-x="736" 
d="M643.5 357.5q52.5 -58.5 52.5 -161.5q0 -147 -66.5 -219.5t-189.5 -72.5l-32 160q47 0 71.5 25.5t24.5 82.5q0 46 -19.5 65t-60.5 19q-17 0 -34.5 -5.5t-30 -11t-15.5 -7.5v-232h-192v496h-128v176h512v-176h-192v-124q28 20 66.5 32t77.5 12q103 0 155.5 -58.5z" />
    <glyph glyph-name="uni0403" unicode="&#x403;" horiz-adv-x="528" 
d="M248 896h192l-160 -160h-128zM248 0h-192v672h448v-176h-256v-496z" />
    <glyph glyph-name="uni0404" unicode="&#x404;" 
d="M491.5 178.5q39.5 18.5 67.5 49.5l73 -163q-44 -38 -106.5 -59.5t-123.5 -21.5q-102 0 -189 47.5t-138 128.5t-51 176t51 176t138 128.5t189 47.5q61 0 123.5 -21t106.5 -59l-73 -164q-28 31 -67.5 49.5t-84.5 18.5q-60 0 -108.5 -31t-69.5 -81h243v-128h-243
q21 -50 69.5 -81t108.5 -31q45 0 84.5 18.5z" />
    <glyph glyph-name="uni0405" unicode="&#x405;" horiz-adv-x="640" 
d="M466.5 408.5q62.5 -19.5 106 -65t43.5 -124.5q0 -105 -75 -170t-229 -65q-80 0 -144 22t-104 48.5t-40 29.5l71 153q44 -34 92.5 -51t86.5 -22.5t38 -3.5q112 -4 112 41q0 14 -12 22t-35.5 13.5t-75.5 13.5q-135 21 -198 76t-63 144q0 61 32 110.5t97 78.5t161 29
q0 2 50.5 -3.5t107 -23t96.5 -53.5l-76 -144q0 2 -24.5 14.5t-68 23t-103.5 10.5q-80 0 -80 -32q0 -17 18 -25.5t70 -15.5q84 -11 146.5 -30.5z" />
    <glyph glyph-name="uni0406" unicode="&#x406;" horiz-adv-x="304" 
d="M56 0v672h192v-672h-192z" />
    <glyph glyph-name="uni0407" unicode="&#x407;" horiz-adv-x="304" 
d="M-16.5 759.5q-23.5 23.5 -23.5 56.5t23.5 56.5t56.5 23.5t56.5 -23.5t23.5 -56.5t-23.5 -56.5t-56.5 -23.5t-56.5 23.5zM207.5 759.5q-23.5 23.5 -23.5 56.5t23.5 56.5t56.5 23.5t56.5 -23.5t23.5 -56.5t-23.5 -56.5t-56.5 -23.5t-56.5 23.5zM56 0v672h192v-672h-192z
" />
    <glyph glyph-name="uni0408" unicode="&#x408;" horiz-adv-x="512" 
d="M472 672v-416q0 -134 -75.5 -203t-208.5 -69q-46 0 -92.5 18t-71.5 46l83 151q13 -18 33 -28.5t44 -10.5q42 0 69 24.5t27 71.5v416h192z" />
    <glyph glyph-name="uni0409" unicode="&#x409;" horiz-adv-x="1088" 
d="M1005 362q59 -54 59 -146q0 -96 -65 -156t-191 -60h-288v496h-152v-224q0 -110 -40.5 -179.5t-129.5 -94.5q-42 -11 -88 -11q-32 0 -70 5v176q9 -1 28 -1q45 0 66 13q20 13 27 34t7 53v405h544v-256h128q106 0 165 -54zM852.5 172q19.5 12 19.5 36t-19.5 36t-54.5 12h-86
v-96h86q35 0 54.5 12z" />
    <glyph glyph-name="uni040A" unicode="&#x40a;" horiz-adv-x="1040" 
d="M957 362q59 -54 59 -146q0 -96 -65 -156t-191 -60h-288v256h-224v-256h-192v672h192v-256h224v256h192v-256h128q106 0 165 -54zM804.5 172q19.5 12 19.5 36t-19.5 36t-54.5 12h-86v-96h86q35 0 54.5 12z" />
    <glyph glyph-name="uni040B" unicode="&#x40b;" horiz-adv-x="736" 
d="M643.5 357.5q52.5 -58.5 52.5 -161.5v-196h-192v168q0 49 -19 68.5t-61 19.5q-17 0 -34.5 -5.5t-30 -11t-15.5 -7.5v-232h-192v496h-128v176h512v-176h-192v-124q28 20 66.5 32t77.5 12q103 0 155.5 -58.5z" />
    <glyph glyph-name="uni040C" unicode="&#x40c;" horiz-adv-x="704" 
d="M312 896h192l-160 -160h-128zM696 0h-240l-208 288v-288h-192v672h192v-256l192 256h240l-256 -320z" />
    <glyph glyph-name="uni040E" unicode="&#x40e;" 
d="M496 896q0 -43 -21.5 -80t-58.5 -58.5t-80 -21.5t-80 21.5t-58.5 58.5t-21.5 80h96q0 -26 19 -45t45 -19t45 19t19 45h96zM664 672l-328 -672h-208l104 214l-224 458h216l112 -254l112 254h216z" />
    <glyph glyph-name="uni040F" unicode="&#x40f;" horiz-adv-x="720" 
d="M664 0h-208v-128h-192v128h-208v672h192v-496h224v496h192v-672z" />
    <glyph glyph-name="uni0410" unicode="&#x410;" horiz-adv-x="720" 
d="M728 0h-195l-43 112h-260l-43 -112h-195l278 672h180zM434 256l-74 192l-74 -192h148z" />
    <glyph glyph-name="uni0411" unicode="&#x411;" 
d="M528 404q51 -28 77.5 -77.5t26.5 -110.5q0 -96 -65 -156t-191 -60h-320v672h512v-160h-320v-80h160q69 0 120 -28zM417 176.5q23 16.5 23 47.5t-23 47.5t-59 16.5h-110v-128h110q36 0 59 16.5z" />
    <glyph glyph-name="uni0412" unicode="&#x412;" 
d="M605 303.5q27 -44.5 27 -101.5q0 -58 -27.5 -104t-80 -72t-122.5 -26h-346v672h288q118 0 187 -45.5t69 -130.5q0 -49 -22.5 -85.5t-58.5 -49.5q59 -13 86 -57.5zM248 416h80q80 0 80 56t-80 56h-80v-112zM414.5 160q25.5 16 25.5 48t-25.5 48t-70.5 16h-96v-128h96
q45 0 70.5 16z" />
    <glyph glyph-name="uni0413" unicode="&#x413;" horiz-adv-x="528" 
d="M248 0h-192v672h448v-176h-256v-496z" />
    <glyph glyph-name="uni0414" unicode="&#x414;" horiz-adv-x="816" 
d="M792 176v-304h-192v128h-384v-128h-192v304q62 0 94 43t45 148t13 305h520v-496h96zM504 176v320h-144q0 -129 -19 -208.5t-48 -111.5h211z" />
    <glyph glyph-name="uni0415" unicode="&#x415;" horiz-adv-x="544" 
d="M248 496v-80h208v-160h-208v-80h256v-176h-448v672h448v-176h-256z" />
    <glyph glyph-name="uni0416" unicode="&#x416;" horiz-adv-x="1072" 
d="M1064 0h-232l-200 264v-264h-192v264l-200 -264h-232l272 344l-256 328h232l184 -256v256h192v-256l184 256h232l-256 -328z" />
    <glyph glyph-name="uni0417" unicode="&#x417;" horiz-adv-x="624" 
d="M200 400q78 0 135 14t57 44q0 54 -101 54q-54 0 -98 -11.5t-85 -36.5l-69 136q53 39 131.5 63.5t149.5 24.5q77 0 136.5 -24t93.5 -69.5t34 -106.5q0 -39 -19.5 -75.5t-63.5 -57.5q45 -11 72 -57t27 -98q0 -63 -32.5 -111.5t-97.5 -76.5t-157 -28q-79 0 -159 25t-130 63
l76 144q30 -25 80.5 -40.5t110.5 -15.5q46 0 81.5 11t35.5 40q0 33 -58.5 47t-149.5 14v128z" />
    <glyph glyph-name="uni0418" unicode="&#x418;" horiz-adv-x="752" 
d="M248 304l256 368h192v-672h-192v368l-256 -368h-192v672h192v-368z" />
    <glyph glyph-name="uni0419" unicode="&#x419;" horiz-adv-x="752" 
d="M536 896q0 -43 -21.5 -80t-58.5 -58.5t-80 -21.5t-80 21.5t-58.5 58.5t-21.5 80h96q0 -26 19 -45t45 -19t45 19t19 45h96zM248 304l256 368h192v-672h-192v368l-256 -368h-192v672h192v-368z" />
    <glyph glyph-name="uni041A" unicode="&#x41a;" horiz-adv-x="704" 
d="M696 0h-240l-208 288v-288h-192v672h192v-256l192 256h240l-256 -320z" />
    <glyph glyph-name="uni041B" unicode="&#x41b;" horiz-adv-x="768" 
d="M712 0h-192v496h-160v-224q0 -111 -38.5 -180.5t-127.5 -93.5q-42 -11 -86 -11q-30 0 -68 5v176q9 -1 28 -1q45 0 66 13q20 13 27 34t7 53v405h544v-672z" />
    <glyph glyph-name="uni041C" unicode="&#x41c;" horiz-adv-x="880" 
d="M856 0h-192l-32 352l-112 -352h-160l-112 352l-32 -352h-192l64 672h192l160 -400l160 400h192z" />
    <glyph glyph-name="uni041D" unicode="&#x41d;" horiz-adv-x="720" 
d="M664 672v-672h-192v248h-224v-248h-192v672h192v-248h224v248h192z" />
    <glyph glyph-name="uni041E" unicode="&#x41e;" horiz-adv-x="784" 
d="M576.5 640.5q84.5 -47.5 134 -128.5t49.5 -176t-49.5 -176t-134 -128.5t-184.5 -47.5t-184.5 47.5t-134 128.5t-49.5 176t49.5 176t134 128.5t184.5 47.5t184.5 -47.5zM480.5 183.5q40.5 23.5 64 64t23.5 88.5t-23.5 88.5t-64 64t-88.5 23.5t-88.5 -23.5t-64 -64
t-23.5 -88.5t23.5 -88.5t64 -64t88.5 -23.5t88.5 23.5z" />
    <glyph glyph-name="uni041F" unicode="&#x41f;" horiz-adv-x="720" 
d="M664 0h-192v496h-224v-496h-192v672h608v-672z" />
    <glyph glyph-name="uni0420" unicode="&#x420;" horiz-adv-x="640" 
d="M551.5 611q64.5 -61 64.5 -163q0 -66 -27 -120.5t-77.5 -87t-119.5 -32.5h-144v-208h-192v672h304q127 0 191.5 -61zM401 386q23 18 23 54q0 35 -23 53.5t-59 18.5h-94v-144h94q36 0 59 18z" />
    <glyph glyph-name="uni0421" unicode="&#x421;" 
d="M491.5 178.5q39.5 18.5 67.5 49.5l73 -163q-44 -38 -106.5 -59.5t-123.5 -21.5q-102 0 -189 47.5t-138 128.5t-51 176t51 176t138 128.5t189 47.5q61 0 123.5 -21t106.5 -59l-73 -164q-28 31 -67.5 49.5t-84.5 18.5q-52 0 -95.5 -23.5t-69.5 -64t-26 -88.5t26 -88.5
t69.5 -64t95.5 -23.5q45 0 84.5 18.5z" />
    <glyph glyph-name="uni0422" unicode="&#x422;" horiz-adv-x="592" 
d="M568 672v-176h-176v-496h-192v496h-176v176h544z" />
    <glyph glyph-name="uni0423" unicode="&#x423;" 
d="M664 672l-328 -672h-208l104 214l-224 458h216l112 -254l112 254h216z" />
    <glyph glyph-name="uni0424" unicode="&#x424;" horiz-adv-x="880" 
d="M816.5 204.5q-39.5 -65.5 -112 -103t-168.5 -37.5v-64h-192v64q-96 0 -168.5 37.5t-112 103t-39.5 147.5q0 84 40 149.5t113 102t167 36.5v64h192v-64q94 0 167 -36.5t113 -102t40 -149.5q0 -82 -39.5 -147.5zM344 464q-51 0 -89.5 -28t-38.5 -84q0 -57 38 -84.5
t90 -27.5v224zM626 267.5q38 27.5 38 84.5q0 56 -38.5 84t-89.5 28v-224q52 0 90 27.5z" />
    <glyph glyph-name="uni0425" unicode="&#x425;" horiz-adv-x="736" 
d="M728 0h-226l-134 212l-134 -212h-226l228 352l-211 320h226l117 -188l117 188h226l-211 -320z" />
    <glyph glyph-name="uni0426" unicode="&#x426;" horiz-adv-x="832" 
d="M792 176v-304h-192v128h-544v672h192v-496h224v496h192v-496h128z" />
    <glyph glyph-name="uni0427" unicode="&#x427;" horiz-adv-x="672" 
d="M98.5 254q-58.5 62 -58.5 178v240h192v-192q0 -58 21 -85t67 -27q20 0 43.5 5.5t40 11t20.5 7.5v280h192v-672h-192v236q-35 -20 -79 -32t-89 -12q-99 0 -157.5 62z" />
    <glyph glyph-name="uni0428" unicode="&#x428;" horiz-adv-x="976" 
d="M920 672v-672h-864v672h192v-496h144v496h192v-496h144v496h192z" />
    <glyph glyph-name="uni0429" unicode="&#x429;" horiz-adv-x="1088" 
d="M1048 176v-304h-192v128h-800v672h192v-496h144v496h192v-496h144v496h192v-496h128z" />
    <glyph glyph-name="uni042A" unicode="&#x42a;" horiz-adv-x="736" 
d="M608.5 405.5q50.5 -26.5 77 -73.5t26.5 -108q0 -63 -28 -113.5t-86 -80.5t-142 -30h-304v496h-128v176h320v-240h144q70 0 120.5 -26.5zM497 176.5q23 16.5 23 47.5t-23 47.5t-59 16.5h-94v-128h94q36 0 59 16.5z" />
    <glyph glyph-name="uni042B" unicode="&#x42b;" horiz-adv-x="928" 
d="M512.5 405.5q50.5 -26.5 77 -73.5t26.5 -108q0 -63 -28 -113.5t-86 -80.5t-142 -30h-304v672h192v-240h144q70 0 120.5 -26.5zM680 0v672h192v-672h-192zM401 176.5q23 16.5 23 47.5t-23 47.5t-59 16.5h-94v-128h94q36 0 59 16.5z" />
    <glyph glyph-name="uni042C" unicode="&#x42c;" horiz-adv-x="640" 
d="M512.5 405.5q50.5 -26.5 77 -73.5t26.5 -108q0 -63 -28 -113.5t-86 -80.5t-142 -30h-304v672h192v-240h144q70 0 120.5 -26.5zM401 176.5q23 16.5 23 47.5t-23 47.5t-59 16.5h-94v-128h94q36 0 59 16.5z" />
    <glyph glyph-name="uni042D" unicode="&#x42d;" 
d="M357.5 191q48.5 31 69.5 81h-243v128h243q-21 50 -69.5 81t-108.5 31q-45 0 -84.5 -18.5t-67.5 -49.5l-73 164q44 38 106.5 59t123.5 21q102 0 189 -47.5t138 -128.5t51 -176t-51 -176t-138 -128.5t-189 -47.5q-61 0 -123.5 21.5t-106.5 59.5l73 163q28 -31 67.5 -49.5
t84.5 -18.5q60 0 108.5 31z" />
    <glyph glyph-name="uni042E" unicode="&#x42e;" horiz-adv-x="1088" 
d="M880.5 640.5q84.5 -47.5 134 -128.5t49.5 -176t-49.5 -176t-134 -128.5t-184.5 -47.5q-85 0 -160 35.5t-127 97.5t-71 139h-90v-256h-192v672h192v-256h90q19 77 71 139t127 97.5t160 35.5q100 0 184.5 -47.5zM784.5 183.5q40.5 23.5 64 64t23.5 88.5t-23.5 88.5t-64 64
t-88.5 23.5t-88.5 -23.5t-64 -64t-23.5 -88.5t23.5 -88.5t64 -64t88.5 -23.5t88.5 23.5z" />
    <glyph glyph-name="uni042F" unicode="&#x42f;" horiz-adv-x="672" 
d="M91 312.5q-35 59.5 -35 135.5q0 102 64.5 163t191.5 61h304v-672h-192v208h-37l-139 -208h-224l165 226q-63 27 -98 86.5zM424 368v144h-94q-36 0 -59 -18.5t-23 -53.5q0 -36 23 -54t59 -18h94z" />
    <glyph glyph-name="uni0430" unicode="&#x430;" 
d="M600 512v-512h-192v52q-57 -68 -144 -68q-65 0 -120.5 36.5t-87.5 99t-32 136.5t32 136.5t87.5 99t120.5 36.5q87 0 144 -68v52h192zM380 177q28 33 28 79t-28 79t-68 33t-68 -33t-28 -79t28 -79t68 -33t68 33z" />
    <glyph glyph-name="uni0431" unicode="&#x431;" horiz-adv-x="624" 
d="M461 491.5q66 -36.5 102.5 -98.5t36.5 -137t-36.5 -137t-102 -98.5t-149.5 -36.5q-87 0 -152.5 36t-100.5 98.5t-35 137.5q0 84 29 157t106 147q28 27 73 59q34 25 51 41.5t29 43.5h192q-7 -44 -37.5 -77.5t-85.5 -63.5q-16 -9 -29.5 -14.5t-17.5 -7.5q-16 -6 -27 -13h5
q83 0 149 -36.5zM380 177q28 33 28 79t-28 79t-68 33t-68 -33t-28 -79t28 -79t68 -33t68 33z" />
    <glyph glyph-name="uni0432" unicode="&#x432;" horiz-adv-x="592" 
d="M529 222.5q23 -29.5 23 -66.5q0 -85 -60.5 -120.5t-179.5 -35.5h-256v512h240q119 0 179.5 -35.5t60.5 -120.5q0 -32 -19 -59t-45 -36q34 -9 57 -38.5zM248 304h54q17 0 29.5 10t12.5 30q0 19 -12.5 29.5t-29.5 10.5h-54v-80zM347 138.5q13 10.5 13 29.5q0 20 -13 30
t-34 10h-65v-80h65q21 0 34 10.5z" />
    <glyph glyph-name="uni0433" unicode="&#x433;" horiz-adv-x="464" 
d="M248 0h-192v512h384v-176h-192v-336z" />
    <glyph glyph-name="uni0434" unicode="&#x434;" horiz-adv-x="752" 
d="M712 176v-304h-192v128h-304v-128h-192v304q86 0 119 85t33 251h456v-336h80zM440 176v160h-104q0 -43 -13.5 -95t-33.5 -65h151z" />
    <glyph glyph-name="uni0435" unicode="&#x435;" horiz-adv-x="576" 
d="M548 208h-326q6 -30 38 -47t78 -17q36 0 65.5 7t46 14.5t20.5 10.5l49 -144q0 -2 -27 -14.5t-71.5 -23t-100.5 -10.5q-99 0 -165.5 36t-98.5 97.5t-32 138.5t30.5 138.5t91.5 97.5t150 36q123 0 189.5 -71.5t66.5 -200.5q0 -16 -4 -48zM356 304q0 34 -17.5 57t-50.5 23
q-29 0 -47.5 -24t-18.5 -56h134z" />
    <glyph glyph-name="uni0436" unicode="&#x436;" horiz-adv-x="944" 
d="M936 0h-224l-144 200v-200h-192v200l-144 -200h-224l208 260l-192 252h224l128 -200v200h192v-200l128 200h224l-192 -252z" />
    <glyph glyph-name="uni0437" unicode="&#x437;" horiz-adv-x="544" 
d="M285 158.5q27 6.5 27 23.5q0 16 -42.5 25t-100.5 9l-1 80q58 0 99 9t41 25q0 17 -22.5 23.5t-70.5 6.5q-26 0 -62 -8.5t-65 -19.5l-57 134q45 31 106 46.5t116 15.5q243 0 243 -158q0 -32 -20.5 -62.5t-54.5 -43.5q36 -14 59.5 -46.5t23.5 -67.5q0 -80 -69 -123t-187 -43
q-56 0 -117.5 15t-106.5 46l64 135q27 -12 61 -20t61 -8q48 0 75 6.5z" />
    <glyph glyph-name="uni0438" unicode="&#x438;" 
d="M248 256l160 256h192v-512h-192v256l-160 -256h-192v512h192v-256z" />
    <glyph glyph-name="uni0439" unicode="&#x439;" 
d="M488 736q0 -43 -21.5 -80t-58.5 -58.5t-80 -21.5t-80 21.5t-58.5 58.5t-21.5 80h96q0 -26 19 -45t45 -19t45 19t19 45h96zM248 256l160 256h192v-512h-192v256l-160 -256h-192v512h192v-256z" />
    <glyph glyph-name="uni043A" unicode="&#x43a;" horiz-adv-x="608" 
d="M616 0h-224l-144 208v-208h-192v512h192v-192l128 192h224l-192 -244z" />
    <glyph glyph-name="uni043B" unicode="&#x43b;" 
d="M600 512v-512h-192v336h-88v-147q0 -92 -44 -148.5t-122 -56.5q-55 0 -114 16v144q22 -5 35 -5q30 0 45.5 17.5t15.5 51.5v304h464z" />
    <glyph glyph-name="uni043C" unicode="&#x43c;" horiz-adv-x="768" 
d="M535 232l-78 -232h-146l-78 232l-37 -232h-188l91 512h196l89 -269l89 269h196l91 -512h-188z" />
    <glyph glyph-name="uni043D" unicode="&#x43d;" horiz-adv-x="640" 
d="M584 512v-512h-192v168h-144v-168h-192v512h192v-168h144v168h192z" />
    <glyph glyph-name="uni043E" unicode="&#x43e;" horiz-adv-x="624" 
d="M461 491.5q66 -36.5 102.5 -98.5t36.5 -137t-36.5 -137t-102 -98.5t-149.5 -36.5q-87 0 -152.5 36t-100.5 98.5t-35 137.5q0 76 34.5 138t100 98t153.5 36q83 0 149 -36.5zM380 177q28 33 28 79t-28 79t-68 33t-68 -33t-28 -79t28 -79t68 -33t68 33z" />
    <glyph glyph-name="uni043F" unicode="&#x43f;" horiz-adv-x="640" 
d="M584 0h-192v336h-144v-336h-192v512h528v-512z" />
    <glyph glyph-name="uni0440" unicode="&#x440;" 
d="M512.5 491.5q55.5 -36.5 87.5 -99t32 -136.5t-32 -136.5t-87.5 -99t-120.5 -36.5q-87 0 -144 68v-308h-192v768h192v-52q57 68 144 68q65 0 120.5 -36.5zM412 177q28 33 28 79t-28 79t-68 33t-68 -33t-28 -79t28 -79t68 -33t68 33z" />
    <glyph glyph-name="uni0441" unicode="&#x441;" horiz-adv-x="528" 
d="M504 47q-33 -33 -86 -48t-109 -15q-87 0 -152 36t-99 98t-34 138t34.5 138t99 98t151.5 36q55 0 108 -15t87 -48l-74 -145q-39 48 -102 48q-46 0 -79 -32.5t-33 -79.5q0 -46 33 -79t79 -33q65 0 102 48z" />
    <glyph glyph-name="uni0442" unicode="&#x442;" horiz-adv-x="528" 
d="M504 512v-176h-144v-336h-192v336h-144v176h480z" />
    <glyph glyph-name="uni0443" unicode="&#x443;" horiz-adv-x="560" 
d="M72 -256l112 272l-192 496h192l96 -272l96 272h192l-304 -768h-192z" />
    <glyph glyph-name="uni0444" unicode="&#x444;" horiz-adv-x="1008" 
d="M864.5 491.5q55.5 -36.5 87.5 -99t32 -136.5t-32 -136.5t-87.5 -99t-120.5 -36.5q-93 0 -144 44v-220h-192v220q-51 -44 -144 -44q-65 0 -120.5 36.5t-87.5 99t-32 136.5t32 136.5t87.5 99t120.5 36.5q93 0 144 -44v220h192v-220q51 44 144 44q65 0 120.5 -36.5zM381 172
q27 28 27 84t-27 84t-69 28q-40 0 -68 -33t-28 -79t28 -79t68 -33q42 0 69 28zM764 177q28 33 28 79t-28 79t-68 33q-42 0 -69 -28t-27 -84t27 -84t69 -28q40 0 68 33z" />
    <glyph glyph-name="uni0445" unicode="&#x445;" horiz-adv-x="608" 
d="M600 0h-200l-96 144l-96 -144h-200l176 272l-160 240h200l80 -128l80 128h200l-160 -240z" />
    <glyph glyph-name="uni0446" unicode="&#x446;" horiz-adv-x="752" 
d="M712 176v-304h-192v128h-464v512h192v-336h144v336h192v-336h128z" />
    <glyph glyph-name="uni0447" unicode="&#x447;" horiz-adv-x="608" 
d="M85.5 200.5q-45.5 56.5 -45.5 167.5v144h192v-142q0 -30 13.5 -47t50.5 -17q19 0 38.5 5t25.5 11v190h192v-512h-192v182q-34 -20 -67 -29t-77 -9q-85 0 -130.5 56.5z" />
    <glyph glyph-name="uni0448" unicode="&#x448;" horiz-adv-x="912" 
d="M856 512v-512h-800v512h192v-336h112v336h192v-336h112v336h192z" />
    <glyph glyph-name="uni0449" unicode="&#x449;" horiz-adv-x="1024" 
d="M984 176v-304h-192v128h-736v512h192v-336h112v336h192v-336h112v336h192v-336h128z" />
    <glyph glyph-name="uni044A" unicode="&#x44a;" horiz-adv-x="672" 
d="M586.5 297q61.5 -39 61.5 -125q0 -87 -62.5 -129.5t-177.5 -42.5h-256v336h-128v176h320v-176h64q117 0 178.5 -39zM440.5 138.5q15.5 10.5 15.5 29.5q0 20 -15 30t-40 10h-57v-80h57q24 0 39.5 10.5z" />
    <glyph glyph-name="uni044B" unicode="&#x44b;" horiz-adv-x="864" 
d="M56 512h192v-176h64q117 0 178.5 -39t61.5 -125q0 -87 -62.5 -129.5t-177.5 -42.5h-256v512zM616 512h192v-512h-192v512zM344.5 138.5q15.5 10.5 15.5 29.5q0 20 -15 30t-40 10h-57v-80h57q24 0 39.5 10.5z" />
    <glyph glyph-name="uni044C" unicode="&#x44c;" horiz-adv-x="576" 
d="M56 512h192v-176h64q117 0 178.5 -39t61.5 -125q0 -87 -62.5 -129.5t-177.5 -42.5h-256v512zM344.5 138.5q15.5 10.5 15.5 29.5q0 20 -15 30t-40 10h-57v-80h57q24 0 39.5 10.5z" />
    <glyph glyph-name="uni044D" unicode="&#x44d;" horiz-adv-x="528" 
d="M267.5 166.5q29.5 22.5 39.5 57.5h-155v64h155q-10 35 -39.5 57.5t-67.5 22.5q-63 0 -102 -48l-74 145q34 33 87 48t108 15q87 0 151.5 -36t99 -98t34.5 -138t-34 -138t-99 -98t-152 -36q-56 0 -109 15t-86 48l74 145q38 -48 102 -48q38 0 67.5 22.5z" />
    <glyph glyph-name="uni044E" unicode="&#x44e;" horiz-adv-x="928" 
d="M765 491.5q66 -36.5 102.5 -98.5t36.5 -137t-36.5 -137t-102 -98.5t-149.5 -36.5q-106 0 -179 53t-98 139h-91v-176h-192v512h192v-176h91q24 86 97 139t180 53q83 0 149 -36.5zM684 177q28 33 28 79t-28 79t-68 33t-68 -33t-28 -79t28 -79t68 -33t68 33z" />
    <glyph glyph-name="uni044F" unicode="&#x44f;" horiz-adv-x="608" 
d="M552 512v-512h-192v152l-112 -152h-224l146 181q-51 14 -82.5 55t-31.5 96q0 88 63 134t177 46h256zM264.5 355.5q-16.5 -12.5 -16.5 -35.5t16.5 -35.5t38.5 -12.5h57v96h-57q-22 0 -38.5 -12.5z" />
    <glyph glyph-name="uni0451" unicode="&#x451;" horiz-adv-x="576" 
d="M119.5 599.5q-23.5 23.5 -23.5 56.5t23.5 56.5t56.5 23.5t56.5 -23.5t23.5 -56.5t-23.5 -56.5t-56.5 -23.5t-56.5 23.5zM343.5 599.5q-23.5 23.5 -23.5 56.5t23.5 56.5t56.5 23.5t56.5 -23.5t23.5 -56.5t-23.5 -56.5t-56.5 -23.5t-56.5 23.5zM548 208h-326q6 -30 38 -47
t78 -17q36 0 65.5 7t46 14.5t20.5 10.5l49 -144q0 -2 -27 -14.5t-71.5 -23t-100.5 -10.5q-99 0 -165.5 36t-98.5 97.5t-32 138.5t30.5 138.5t91.5 97.5t150 36q123 0 189.5 -71.5t66.5 -200.5q0 -16 -4 -48zM356 304q0 34 -17.5 57t-50.5 23q-29 0 -47.5 -24t-18.5 -56h134z
" />
    <glyph glyph-name="uni0452" unicode="&#x452;" horiz-adv-x="640" 
d="M504 502.5q44 -25.5 70 -76t26 -122.5v-304q-4 -142 -67.5 -207t-188.5 -65l-32 160q39 0 67.5 27.5t28.5 84.5v272q0 42 -21 61t-51 19q-29 0 -50.5 -20t-21.5 -60v-272h-192v536h-64v96h64v72h192v-72h64v-96h-64v-88q21 39 60 59.5t84 20.5q52 0 96 -25.5z" />
    <glyph glyph-name="uni0453" unicode="&#x453;" horiz-adv-x="464" 
d="M216 736h192l-160 -160h-128zM248 0h-192v512h384v-176h-192v-336z" />
    <glyph glyph-name="uni0454" unicode="&#x454;" horiz-adv-x="528" 
d="M430 192l74 -145q-33 -33 -86 -48t-109 -15q-87 0 -152 36t-99 98t-34 138t34.5 138t99 98t151.5 36q55 0 108 -15t87 -48l-74 -145q-39 48 -102 48q-38 0 -67.5 -22.5t-39.5 -57.5h155v-64h-155q10 -35 39.5 -57.5t67.5 -22.5q65 0 102 48z" />
    <glyph glyph-name="uni0455" unicode="&#x455;" horiz-adv-x="560" 
d="M429.5 314.5q49.5 -15.5 78 -50.5t28.5 -98q0 -84 -64 -133t-199 -49q-71 0 -126 16t-89 35t-34 21l48 136q31 -21 69.5 -34t67 -18t36.5 -6q21 -3 44 -3q24 0 39.5 4t15.5 13q0 8 -5.5 12t-23.5 8t-62 10q-213 30 -213 158q0 86 67.5 139t200.5 53q9 0 41 -2.5t75.5 -12
t79.5 -28.5l-48 -137q0 1 -23.5 10t-61.5 16.5t-87 7.5q-28 0 -40 -3.5t-12 -13.5q0 -12 14 -16t53 -9q81 -10 130.5 -25.5z" />
    <glyph glyph-name="uni0456" unicode="&#x456;" horiz-adv-x="304" 
d="M78.5 590.5q-30.5 30.5 -30.5 73.5t30.5 73.5t73.5 30.5t73.5 -30.5t30.5 -73.5t-30.5 -73.5t-73.5 -30.5t-73.5 30.5zM56 512h192v-512h-192v512z" />
    <glyph glyph-name="uni0457" unicode="&#x457;" horiz-adv-x="304" 
d="M-16.5 599.5q-23.5 23.5 -23.5 56.5t23.5 56.5t56.5 23.5t56.5 -23.5t23.5 -56.5t-23.5 -56.5t-56.5 -23.5t-56.5 23.5zM207.5 599.5q-23.5 23.5 -23.5 56.5t23.5 56.5t56.5 23.5t56.5 -23.5t23.5 -56.5t-23.5 -56.5t-56.5 -23.5t-56.5 23.5zM56 512h192v-512h-192v512z
" />
    <glyph glyph-name="uni0458" unicode="&#x458;" horiz-adv-x="304" 
d="M78.5 590.5q-30.5 30.5 -30.5 73.5t30.5 73.5t73.5 30.5t73.5 -30.5t30.5 -73.5t-30.5 -73.5t-73.5 -30.5t-73.5 30.5zM56 512h192v-496q0 -150 -63.5 -219t-192.5 -69l-32 160q39 0 67.5 27.5t28.5 84.5v512z" />
    <glyph glyph-name="uni0459" unicode="&#x459;" horiz-adv-x="912" 
d="M826.5 297q61.5 -39 61.5 -125q0 -87 -62.5 -129.5t-177.5 -42.5h-240v336h-88v-147q0 -92 -44 -148.5t-122 -56.5q-55 0 -114 16v144q22 -5 35 -5q30 0 45.5 17.5t15.5 51.5v304h464v-176h48q117 0 178.5 -39zM680.5 138.5q15.5 10.5 15.5 29.5q0 20 -15 30t-40 10h-41
v-80h41q24 0 39.5 10.5z" />
    <glyph glyph-name="uni045A" unicode="&#x45a;" horiz-adv-x="896" 
d="M810.5 297q61.5 -39 61.5 -125q0 -87 -62.5 -129.5t-177.5 -42.5h-240v208h-144v-208h-192v512h192v-176h144v176h192v-176h48q117 0 178.5 -39zM664.5 138.5q15.5 10.5 15.5 29.5q0 20 -15 30t-40 10h-41v-80h41q24 0 39.5 10.5z" />
    <glyph glyph-name="uni045B" unicode="&#x45b;" horiz-adv-x="640" 
d="M504 502.5q44 -25.5 70 -76t26 -122.5v-304h-192v272q0 42 -21 61t-51 19q-29 0 -50.5 -20t-21.5 -60v-272h-192v536h-64v96h64v72h192v-72h64v-96h-64v-88q21 39 60 59.5t84 20.5q52 0 96 -25.5z" />
    <glyph glyph-name="uni045C" unicode="&#x45c;" horiz-adv-x="608" 
d="M296 736h192l-160 -160h-128zM616 0h-224l-144 208v-208h-192v512h192v-192l128 192h224l-192 -244z" />
    <glyph glyph-name="uni045E" unicode="&#x45e;" horiz-adv-x="560" 
d="M440 736q0 -43 -21.5 -80t-58.5 -58.5t-80 -21.5t-80 21.5t-58.5 58.5t-21.5 80h96q0 -26 19 -45t45 -19t45 19t19 45h96zM72 -256l112 272l-192 496h192l96 -272l96 272h192l-304 -768h-192z" />
    <glyph glyph-name="uni045F" unicode="&#x45f;" horiz-adv-x="640" 
d="M584 512v-512h-168v-128h-192v128h-168v512h192v-336h144v336h192z" />
    <glyph glyph-name="uni0462" unicode="&#x462;" horiz-adv-x="672" 
d="M544.5 405.5q50.5 -26.5 77 -73.5t26.5 -108q0 -63 -28 -113.5t-86 -80.5t-142 -30h-304v496h-80v128h80v80h192v-80h160v-128h-160v-64h144q70 0 120.5 -26.5zM433 176.5q23 16.5 23 47.5t-23 47.5t-59 16.5h-94v-128h94q36 0 59 16.5z" />
    <glyph glyph-name="uni0463" unicode="&#x463;" horiz-adv-x="592" 
d="M506.5 297q61.5 -39 61.5 -125q0 -87 -62.5 -129.5t-177.5 -42.5h-256v392h-64v96h64v56h192v-56h64v-96h-64v-56h64q117 0 178.5 -39zM360.5 138.5q15.5 10.5 15.5 29.5q0 20 -15 30t-40 10h-57v-80h57q24 0 39.5 10.5z" />
    <glyph glyph-name="uni0472" unicode="&#x472;" horiz-adv-x="784" 
d="M576.5 640.5q84.5 -47.5 134 -128.5t49.5 -176t-49.5 -176t-134 -128.5t-184.5 -47.5t-184.5 47.5t-134 128.5t-49.5 176t49.5 176t134 128.5t184.5 47.5t184.5 -47.5zM283.5 475q-47.5 -37 -61.5 -95q28 20 74 20q23 0 41 -4.5t55 -16.5q61 -21 93 -21q44 0 71 42
q-20 50 -64.5 81t-99.5 31q-61 0 -108.5 -37zM500.5 197q47.5 37 61.5 95q-28 -20 -74 -20q-23 0 -42.5 4.5t-53.5 15.5q-61 21 -94 21q-22 0 -39 -9.5t-31 -31.5q20 -50 64.5 -81t99.5 -31q61 0 108.5 37z" />
    <glyph glyph-name="uni0473" unicode="&#x473;" horiz-adv-x="624" 
d="M461 491.5q66 -36.5 102.5 -98.5t36.5 -137t-36.5 -137t-102 -98.5t-149.5 -36.5q-87 0 -152.5 36t-100.5 98.5t-35 137.5q0 76 34.5 138t100 98t153.5 36q83 0 149 -36.5zM263.5 352.5q-22.5 -15.5 -34.5 -40.5h3q22 0 36 -4.5t44 -16.5q47 -21 72 -21q11 0 23 5
q-6 40 -32.5 66.5t-62.5 26.5q-26 0 -48.5 -15.5zM360.5 159.5q22.5 15.5 34.5 40.5h-3q-22 0 -37.5 4.5t-42.5 15.5q-48 21 -74 21q-12 0 -21 -4q6 -40 33 -66.5t62 -26.5q26 0 48.5 15.5z" />
    <glyph glyph-name="uni0474" unicode="&#x474;" horiz-adv-x="752" 
d="M487 594q27 47 69 70.5t113 23.5q28 0 75 -5v-176q-7 1 -21 1q-33 0 -55 -18t-41 -65l-171 -425h-192l-272 672h224l144 -402l67 186q33 91 60 138z" />
    <glyph glyph-name="uni0475" unicode="&#x475;" horiz-adv-x="592" 
d="M584 512v-144q-15 4 -29 4q-26 0 -44.5 -17.5t-34.5 -58.5l-116 -296h-160l-208 512h192l96 -272l16 46q29 84 52.5 133t59.5 79t90 30q47 0 86 -16z" />
    <glyph glyph-name="uni0490" unicode="&#x490;" horiz-adv-x="528" 
d="M504 768v-272h-256v-496h-192v672h304v96h144z" />
    <glyph glyph-name="uni0491" unicode="&#x491;" horiz-adv-x="464" 
d="M440 608v-272h-192v-336h-192v512h240v96h144z" />
    <glyph glyph-name="uni0492" unicode="&#x492;" horiz-adv-x="544" 
d="M264 496v-136h96v-96h-96v-264h-192v264h-64v96h64v312h448v-176h-256z" />
    <glyph glyph-name="uni0493" unicode="&#x493;" horiz-adv-x="480" 
d="M264 336v-76h96v-96h-96v-164h-192v164h-64v96h64v252h384v-176h-192z" />
    <glyph glyph-name="uni0496" unicode="&#x496;" horiz-adv-x="1072" 
d="M1064 176v-272h-144v96h-88l-200 264v-264h-192v264l-200 -264h-232l272 344l-256 328h232l184 -256v256h192v-256l184 256h232l-256 -328l133 -168h139z" />
    <glyph glyph-name="uni0497" unicode="&#x497;" horiz-adv-x="944" 
d="M936 176v-272h-144v96h-80l-144 200v-200h-192v200l-144 -200h-224l208 260l-192 252h224l128 -200v200h192v-200l128 200h224l-192 -252l67 -84h141z" />
    <glyph glyph-name="uni049A" unicode="&#x49a;" horiz-adv-x="704" 
d="M696 176v-272h-144v96h-96l-208 288v-288h-192v672h192v-256l192 256h240l-256 -320l136 -176h136z" />
    <glyph glyph-name="uni049B" unicode="&#x49b;" horiz-adv-x="624" 
d="M616 176v-272h-144v96h-80l-144 208v-208h-192v512h192v-192l128 192h224l-192 -244l71 -92h137z" />
    <glyph glyph-name="uni04A2" unicode="&#x4a2;" horiz-adv-x="752" 
d="M744 176v-272h-144v96h-128v248h-224v-248h-192v672h192v-248h224v248h192v-496h80z" />
    <glyph glyph-name="uni04A3" unicode="&#x4a3;" horiz-adv-x="672" 
d="M664 176v-272h-144v96h-128v168h-144v-168h-192v512h192v-168h144v168h192v-336h80z" />
    <glyph glyph-name="uni04AE" unicode="&#x4ae;" horiz-adv-x="688" 
d="M696 672l-256 -400v-272h-192v272l-256 400h224l128 -208l128 208h224z" />
    <glyph glyph-name="uni04AF" unicode="&#x4af;" horiz-adv-x="560" 
d="M376 20v-276h-192v276l-192 492h192l96 -272l96 272h192z" />
    <glyph glyph-name="uni04B0" unicode="&#x4b0;" horiz-adv-x="688" 
d="M440 264h64v-96h-64v-168h-192v168h-64v96h64v8l-256 400h224l128 -208l128 208h224l-256 -400v-8z" />
    <glyph glyph-name="uni04B1" unicode="&#x4b1;" horiz-adv-x="560" 
d="M376 -8h80v-96h-80v-152h-192v152h-80v96h80v28l-192 492h192l96 -272l96 272h192l-192 -492v-28z" />
    <glyph glyph-name="uni04B2" unicode="&#x4b2;" horiz-adv-x="752" 
d="M744 176v-272h-144v96h-98l-134 212l-134 -212h-226l228 352l-211 320h226l117 -188l117 188h226l-211 -320l114 -176h130z" />
    <glyph glyph-name="uni04B3" unicode="&#x4b3;" horiz-adv-x="624" 
d="M616 176v-272h-144v96h-72l-96 144l-96 -144h-200l176 272l-160 240h200l80 -128l80 128h200l-160 -240l62 -96h130z" />
    <glyph glyph-name="uni04B6" unicode="&#x4b6;" horiz-adv-x="704" 
d="M696 176v-272h-144v96h-128v236q-35 -20 -79 -32t-89 -12q-99 0 -157.5 62t-58.5 178v240h192v-192q0 -58 21 -85t67 -27q20 0 43.5 5.5t40 11t20.5 7.5v280h192v-496h80z" />
    <glyph glyph-name="uni04B7" unicode="&#x4b7;" horiz-adv-x="640" 
d="M632 176v-272h-144v96h-128v182q-34 -20 -67 -29t-77 -9q-85 0 -130.5 56.5t-45.5 167.5v144h192v-142q0 -30 13.5 -47t50.5 -17q19 0 38.5 5t25.5 11v190h192v-336h80z" />
    <glyph glyph-name="uni04BA" unicode="&#x4ba;" horiz-adv-x="672" 
d="M573.5 418q58.5 -62 58.5 -178v-240h-192v192q0 58 -21 85t-67 27q-20 0 -43.5 -5.5t-40 -11t-20.5 -7.5v-280h-192v672h192v-236q35 20 79 32t89 12q99 0 157.5 -62z" />
    <glyph glyph-name="uni04BB" unicode="&#x4bb;" horiz-adv-x="624" 
d="M488 502.5q44 -25.5 70 -76t26 -122.5v-304h-192v272q0 42 -21 61t-51 19q-29 0 -50.5 -20t-21.5 -60v-272h-192v704h192v-256q21 39 60 59.5t84 20.5q52 0 96 -25.5z" />
    <glyph glyph-name="uni04C0" unicode="&#x4c0;" horiz-adv-x="304" 
d="M56 0v672h192v-672h-192z" />
    <glyph glyph-name="uni04CF" unicode="&#x4cf;" horiz-adv-x="304" 
d="M56 512h192v-512h-192v512z" />
    <glyph glyph-name="uni04D8" unicode="&#x4d8;" horiz-adv-x="784" 
d="M30 400h526q-20 50 -64.5 81t-99.5 31q-44 0 -83 -18.5t-63 -49.5l-182 50q47 88 134.5 141t193.5 53q100 0 184.5 -47.5t134 -128.5t49.5 -176t-49.5 -176t-134 -128.5t-184.5 -47.5t-184.5 47.5t-134 128.5t-49.5 176q0 33 6 64zM292.5 191q44.5 -31 99.5 -31t99.5 31
t64.5 81h-328q20 -50 64.5 -81z" />
    <glyph glyph-name="uni04D9" unicode="&#x4d9;" horiz-adv-x="576" 
d="M28 304h326q-11 64 -72 64q-35 0 -60 -32l-172 48q26 64 84 104t146 40t149.5 -36t92 -98t30.5 -138q0 -77 -30.5 -138.5t-91.5 -97.5t-150 -36q-123 0 -189.5 71.5t-66.5 200.5q0 16 4 48zM220 208q0 -34 17.5 -57t50.5 -23q29 0 47.5 24t18.5 56h-134z" />
    <glyph glyph-name="uni04E2" unicode="&#x4e2;" horiz-adv-x="752" 
d="M216 752v96h320v-96h-320zM248 304l256 368h192v-672h-192v368l-256 -368h-192v672h192v-368z" />
    <glyph glyph-name="uni04E3" unicode="&#x4e3;" 
d="M168 592v96h320v-96h-320zM248 256l160 256h192v-512h-192v256l-160 -256h-192v512h192v-256z" />
    <glyph glyph-name="uni04E8" unicode="&#x4e8;" horiz-adv-x="784" 
d="M576.5 640.5q84.5 -47.5 134 -128.5t49.5 -176t-49.5 -176t-134 -128.5t-184.5 -47.5t-184.5 47.5t-134 128.5t-49.5 176t49.5 176t134 128.5t184.5 47.5t184.5 -47.5zM286 476q-47 -36 -63 -92h338q-16 56 -63 92t-106 36t-106 -36zM498 196q47 36 63 92h-338
q16 -56 63 -92t106 -36t106 36z" />
    <glyph glyph-name="uni04E9" unicode="&#x4e9;" horiz-adv-x="624" 
d="M461 491.5q66 -36.5 102.5 -98.5t36.5 -137t-36.5 -137t-102 -98.5t-149.5 -36.5q-87 0 -152.5 36t-100.5 98.5t-35 137.5q0 76 34.5 138t100 98t153.5 36q83 0 149 -36.5zM254.5 345.5q-25.5 -22.5 -34.5 -57.5h184q-9 35 -34.5 57.5t-57.5 22.5t-57.5 -22.5z
M369.5 166.5q25.5 22.5 34.5 57.5h-184q9 -35 34.5 -57.5t57.5 -22.5t57.5 22.5z" />
    <glyph glyph-name="uni04EE" unicode="&#x4ee;" 
d="M176 752v96h320v-96h-320zM664 672l-328 -672h-208l104 214l-224 458h216l112 -254l112 254h216z" />
    <glyph glyph-name="uni04EF" unicode="&#x4ef;" horiz-adv-x="560" 
d="M120 592v96h320v-96h-320zM72 -256l112 272l-192 496h192l96 -272l96 272h192l-304 -768h-192z" />
    <glyph glyph-name="Wgrave" unicode="&#x1e80;" horiz-adv-x="1024" 
d="M480 736l-160 160h192l96 -160h-128zM696 272l112 400h216l-224 -672h-200l-88 320l-88 -320h-200l-224 672h216l112 -400l96 400h176z" />
    <glyph glyph-name="wgrave" unicode="&#x1e81;" horiz-adv-x="832" 
d="M384 576l-160 160h192l96 -160h-128zM832 512l-176 -512h-160l-80 248l-80 -248h-160l-176 512h192l68 -264l80 264h152l80 -264l68 264h192z" />
    <glyph glyph-name="Wacute" unicode="&#x1e82;" horiz-adv-x="1024" 
d="M512 896h192l-160 -160h-128zM696 272l112 400h216l-224 -672h-200l-88 320l-88 -320h-200l-224 672h216l112 -400l96 400h176z" />
    <glyph glyph-name="wacute" unicode="&#x1e83;" horiz-adv-x="832" 
d="M416 736h192l-160 -160h-128zM832 512l-176 -512h-160l-80 248l-80 -248h-160l-176 512h192l68 -264l80 264h152l80 -264l68 264h192z" />
    <glyph glyph-name="Wdieresis" unicode="&#x1e84;" horiz-adv-x="1024" 
d="M343.5 759.5q-23.5 23.5 -23.5 56.5t23.5 56.5t56.5 23.5t56.5 -23.5t23.5 -56.5t-23.5 -56.5t-56.5 -23.5t-56.5 23.5zM567.5 759.5q-23.5 23.5 -23.5 56.5t23.5 56.5t56.5 23.5t56.5 -23.5t23.5 -56.5t-23.5 -56.5t-56.5 -23.5t-56.5 23.5zM696 272l112 400h216
l-224 -672h-200l-88 320l-88 -320h-200l-224 672h216l112 -400l96 400h176z" />
    <glyph glyph-name="wdieresis" unicode="&#x1e85;" horiz-adv-x="832" 
d="M247.5 599.5q-23.5 23.5 -23.5 56.5t23.5 56.5t56.5 23.5t56.5 -23.5t23.5 -56.5t-23.5 -56.5t-56.5 -23.5t-56.5 23.5zM471.5 599.5q-23.5 23.5 -23.5 56.5t23.5 56.5t56.5 23.5t56.5 -23.5t23.5 -56.5t-23.5 -56.5t-56.5 -23.5t-56.5 23.5zM832 512l-176 -512h-160
l-80 248l-80 -248h-160l-176 512h192l68 -264l80 264h152l80 -264l68 264h192z" />
    <glyph glyph-name="Ygrave" unicode="&#x1ef2;" horiz-adv-x="688" 
d="M312 736l-160 160h192l96 -160h-128zM696 672l-256 -400v-272h-192v272l-256 400h224l128 -208l128 208h224z" />
    <glyph glyph-name="ygrave" unicode="&#x1ef3;" horiz-adv-x="560" 
d="M248 576l-160 160h192l96 -160h-128zM72 -256l112 272l-192 496h192l96 -272l96 272h192l-304 -768h-192z" />
    <glyph glyph-name="endash" unicode="&#x2013;" horiz-adv-x="528" 
d="M40 200v128h448v-128h-448z" />
    <glyph glyph-name="emdash" unicode="&#x2014;" horiz-adv-x="624" 
d="M40 200v128h544v-128h-544z" />
    <glyph glyph-name="quoteleft" unicode="&#x2018;" horiz-adv-x="272" 
d="M200 432h-176l112 240h112z" />
    <glyph glyph-name="quoteright" unicode="&#x2019;" horiz-adv-x="272" 
d="M72 672h176l-112 -240h-112z" />
    <glyph glyph-name="quotesinglbase" unicode="&#x201a;" horiz-adv-x="272" 
d="M72 128h176l-112 -240h-112z" />
    <glyph glyph-name="quotedblleft" unicode="&#x201c;" horiz-adv-x="512" 
d="M200 432h-176l112 240h112zM440 432h-176l112 240h112z" />
    <glyph glyph-name="quotedblright" unicode="&#x201d;" horiz-adv-x="512" 
d="M72 672h176l-112 -240h-112zM312 672h176l-112 -240h-112z" />
    <glyph glyph-name="quotedblbase" unicode="&#x201e;" horiz-adv-x="512" 
d="M72 128h176l-112 -240h-112zM312 128h176l-112 -240h-112z" />
    <glyph glyph-name="dagger" unicode="&#x2020;" 
d="M400 384l-72 -656l-72 656h-216v128h216v256h144v-256h216v-128h-216z" />
    <glyph glyph-name="daggerdbl" unicode="&#x2021;" 
d="M400 384v-96h216v-128h-225l-63 -432l-63 432h-225v128h216v96h-216v128h216v256h144v-256h216v-128h-216z" />
    <glyph glyph-name="bullet" unicode="&#x2022;" horiz-adv-x="800" 
d="M468.5 454q31.5 -18 49.5 -49.5t18 -68.5t-18 -68.5t-49.5 -49.5t-68.5 -18t-68.5 18t-49.5 49.5t-18 68.5t18 68.5t49.5 49.5t68.5 18t68.5 -18z" />
    <glyph glyph-name="ellipsis" unicode="&#x2026;" horiz-adv-x="816" 
d="M68 12q-28 28 -28 68t28 68t68 28t68 -28t28 -68t-28 -68t-68 -28t-68 28zM340 12q-28 28 -28 68t28 68t68 28t68 -28t28 -68t-28 -68t-68 -28t-68 28zM612 12q-28 28 -28 68t28 68t68 28t68 -28t28 -68t-28 -68t-68 -28t-68 28z" />
    <glyph glyph-name="perthousand" unicode="&#x2030;" horiz-adv-x="1232" 
d="M124.5 374.5q-38.5 22.5 -61.5 61t-23 84.5q0 45 23 83.5t61.5 61.5t84.5 23q45 0 83.5 -22.5t61 -61.5t22.5 -84q0 -46 -22.5 -84.5t-61 -61t-83.5 -22.5q-46 0 -84.5 22.5zM134 0l468 672h112l-468 -672h-112zM247.5 481q16.5 17 16.5 39q0 23 -16.5 39.5t-39.5 16.5
q-22 0 -39 -16.5t-17 -39.5q0 -22 17 -39t39 -17q23 0 39.5 17zM556.5 6.5q-38.5 22.5 -61.5 61t-23 84.5q0 45 23 83.5t61.5 61.5t84.5 23q45 0 83.5 -22.5t61 -61.5t22.5 -84q0 -46 -22.5 -84.5t-61 -61t-83.5 -22.5q-46 0 -84.5 22.5zM940.5 6.5q-38.5 22.5 -61.5 61
t-23 84.5q0 45 23 83.5t61.5 61.5t84.5 23q45 0 83.5 -22.5t61 -61.5t22.5 -84q0 -46 -22.5 -84.5t-61 -61t-83.5 -22.5q-46 0 -84.5 22.5zM679.5 113q16.5 17 16.5 39q0 23 -16.5 39.5t-39.5 16.5q-22 0 -39 -16.5t-17 -39.5q0 -22 17 -39t39 -17q23 0 39.5 17zM1063.5 113
q16.5 17 16.5 39q0 23 -16.5 39.5t-39.5 16.5q-22 0 -39 -16.5t-17 -39.5q0 -22 17 -39t39 -17q23 0 39.5 17z" />
    <glyph glyph-name="guilsinglleft" unicode="&#x2039;" horiz-adv-x="416" 
d="M344 512l-160 -240l160 -240h-144l-160 240l160 240h144z" />
    <glyph glyph-name="guilsinglright" unicode="&#x203a;" horiz-adv-x="416" 
d="M376 272l-160 -240h-144l160 240l-160 240h144z" />
    <glyph glyph-name="fraction" unicode="&#x2044;" horiz-adv-x="196" 
d="M-192 0l468 672h112l-468 -672h-112z" />
    <glyph glyph-name="uni2070" unicode="&#x2070;" horiz-adv-x="384" 
d="M271 736.5q35 -23.5 54 -64t19 -88.5t-19 -88.5t-54 -64t-79 -23.5t-79 23.5t-54 64t-19 88.5t19 88.5t54 64t79 23.5t79 -23.5zM231.5 522q16.5 26 16.5 62q0 37 -16.5 62.5t-39.5 25.5t-39.5 -26t-16.5 -62t16.5 -62t39.5 -26t39.5 26z" />
    <glyph glyph-name="uni2074" unicode="&#x2074;" horiz-adv-x="368" 
d="M328 552v-80h-40v-56h-96v56h-168v72l144 208h120v-200h40zM192 656l-64 -104h64v104z" />
    <glyph glyph-name="uni2075" unicode="&#x2075;" horiz-adv-x="368" 
d="M294.5 614q33.5 -26 33.5 -78q0 -59 -40.5 -93.5t-107.5 -34.5q-61 0 -100.5 30t-39.5 82l100 6q2 -16 14.5 -27t29.5 -11q19 0 32.5 13t13.5 31t-13 27t-33 9q-27 0 -40 -16h-96l25 200h223v-88h-144l-3 -32q11 5 28 6.5t23 1.5q61 0 94.5 -26z" />
    <glyph glyph-name="uni2076" unicode="&#x2076;" horiz-adv-x="368" 
d="M297 622.5q31 -33.5 31 -78.5q0 -61 -39.5 -98.5t-104.5 -37.5q-67 0 -105.5 36.5t-38.5 102.5q0 38 23.5 93t98.5 112h142q-6 -3 -27.5 -15t-49.5 -34.5t-49 -51.5q2 1 10 3t22 2q56 0 87 -33.5zM218 507.5q14 11.5 14 28.5t-14 28.5t-34 11.5t-34 -12t-14 -28t14 -28
t34 -12t34 11.5z" />
    <glyph glyph-name="uni2077" unicode="&#x2077;" horiz-adv-x="360" 
d="M352 752l-152 -336h-112l120 248h-152v88h296z" />
    <glyph glyph-name="uni2078" unicode="&#x2078;" horiz-adv-x="368" 
d="M316.5 564.5q11.5 -19.5 11.5 -44.5q0 -48 -38 -80t-106 -32q-67 0 -105.5 32t-38.5 80q0 25 11.5 44.5t31.5 29.5q-18 11 -27 27t-9 35q0 44 38.5 74t98.5 30q61 0 99 -30t38 -74q0 -19 -9 -35t-27 -27q20 -10 31.5 -29.5zM153 670.5q-13 -9.5 -13 -22.5t13 -22.5
t31 -9.5t31 9.5t13 22.5t-13 22.5t-31 9.5t-31 -9.5zM218 498.5q14 10.5 14 25.5t-14 25.5t-34 10.5t-34 -10.5t-14 -25.5t14 -25.5t34 -10.5t34 10.5z" />
    <glyph glyph-name="uni2079" unicode="&#x2079;" horiz-adv-x="368" 
d="M71 546q-31 34 -31 78q0 62 40 99t104 37q68 0 106 -36t38 -103q0 -38 -23.5 -93t-97.5 -112h-143q6 3 27.5 15t50 34.5t49.5 51.5q-2 -1 -10.5 -3t-22.5 -2q-56 0 -87 34zM150 660q-14 -12 -14 -28t14 -28t34 -12t34 11.5t14 28.5t-14 28.5t-34 11.5t-34 -12z" />
    <glyph glyph-name="Euro" unicode="&#x20ac;" horiz-adv-x="704" 
d="M539.5 178.5q39.5 18.5 67.5 49.5l73 -163q-44 -38 -106.5 -59.5t-123.5 -21.5q-86 0 -162 34t-129.5 94.5t-74.5 135.5h-60v64h49q-1 8 -1 24t1 24h-49v64h60q21 75 74.5 135.5t129.5 94.5t162 34q61 0 123.5 -21t106.5 -59l-73 -164q-28 31 -67.5 49.5t-84.5 18.5
q-52 0 -96 -24t-69 -64h166l-15 -64h-175q-2 -16 -2 -24t2 -24h165l-14 -64h-127q25 -40 69 -64t96 -24q45 0 84.5 18.5z" />
    <glyph glyph-name="trademark" unicode="&#x2122;" horiz-adv-x="704" 
d="M282 672v-79h-78v-221h-86v221h-78v79h242zM664 372h-86l-14 157l-50 -157h-72l-50 157l-14 -157h-86l29 300h86l71 -179l71 179h86z" />
    <glyph glyph-name="oneeighth" unicode="&#x215b;" horiz-adv-x="924" 
d="M256 680v-344h-96v237l-72 -14v81zM168 0l468 672h112l-468 -672h-112zM872.5 148.5q11.5 -19.5 11.5 -44.5q0 -48 -38 -80t-106 -32q-67 0 -105.5 32t-38.5 80q0 25 11.5 44.5t31.5 29.5q-18 11 -27 27t-9 35q0 44 38.5 74t98.5 30q61 0 99 -30t38 -74q0 -19 -9 -35
t-27 -27q20 -10 31.5 -29.5zM709 254.5q-13 -9.5 -13 -22.5t13 -22.5t31 -9.5t31 9.5t13 22.5t-13 22.5t-31 9.5t-31 -9.5zM774 82.5q14 10.5 14 25.5t-14 25.5t-34 10.5t-34 -10.5t-14 -25.5t14 -25.5t34 -10.5t34 10.5z" />
    <glyph glyph-name="threeeighths" unicode="&#x215c;" horiz-adv-x="932" 
d="M315 483.5q13 -19.5 13 -43.5q0 -27 -15.5 -52.5t-48 -42.5t-80.5 -17q-63 0 -103.5 30.5t-40.5 89.5l96 8q0 -24 14 -35t38 -11q18 0 29.5 9t11.5 23q0 19 -18 26.5t-54 7.5v64q5 0 21 1.5t31 8.5t15 22q0 11 -11.5 19t-28.5 8q-20 0 -33.5 -10.5t-14.5 -32.5l-88 8
q6 56 42.5 86t93.5 30q63 0 99.5 -30.5t36.5 -73.5q0 -42 -40 -62q22 -11 35 -30.5zM176 0l468 672h112l-468 -672h-112zM880.5 148.5q11.5 -19.5 11.5 -44.5q0 -48 -38 -80t-106 -32q-67 0 -105.5 32t-38.5 80q0 25 11.5 44.5t31.5 29.5q-18 11 -27 27t-9 35q0 44 38.5 74
t98.5 30q61 0 99 -30t38 -74q0 -19 -9 -35t-27 -27q20 -10 31.5 -29.5zM717 254.5q-13 -9.5 -13 -22.5t13 -22.5t31 -9.5t31 9.5t13 22.5t-13 22.5t-31 9.5t-31 -9.5zM782 82.5q14 10.5 14 25.5t-14 25.5t-34 10.5t-34 -10.5t-14 -25.5t14 -25.5t34 -10.5t34 10.5z" />
    <glyph glyph-name="fiveeighths" unicode="&#x215d;" horiz-adv-x="932" 
d="M294.5 534q33.5 -26 33.5 -78q0 -59 -40.5 -93.5t-107.5 -34.5q-61 0 -100.5 30t-39.5 82l100 6q2 -16 14.5 -27t29.5 -11q19 0 32.5 13t13.5 31t-13 27t-33 9q-27 0 -40 -16h-96l25 200h223v-88h-144l-3 -32q11 5 28 6.5t23 1.5q61 0 94.5 -26zM176 0l468 672h112
l-468 -672h-112zM880.5 148.5q11.5 -19.5 11.5 -44.5q0 -48 -38 -80t-106 -32q-67 0 -105.5 32t-38.5 80q0 25 11.5 44.5t31.5 29.5q-18 11 -27 27t-9 35q0 44 38.5 74t98.5 30q61 0 99 -30t38 -74q0 -19 -9 -35t-27 -27q20 -10 31.5 -29.5zM717 254.5q-13 -9.5 -13 -22.5
t13 -22.5t31 -9.5t31 9.5t13 22.5t-13 22.5t-31 9.5t-31 -9.5zM782 82.5q14 10.5 14 25.5t-14 25.5t-34 10.5t-34 -10.5t-14 -25.5t14 -25.5t34 -10.5t34 10.5z" />
    <glyph glyph-name="seveneighths" unicode="&#x215e;" horiz-adv-x="924" 
d="M352 672l-152 -336h-112l120 248h-152v88h296zM168 0l468 672h112l-468 -672h-112zM872.5 148.5q11.5 -19.5 11.5 -44.5q0 -48 -38 -80t-106 -32q-67 0 -105.5 32t-38.5 80q0 25 11.5 44.5t31.5 29.5q-18 11 -27 27t-9 35q0 44 38.5 74t98.5 30q61 0 99 -30t38 -74
q0 -19 -9 -35t-27 -27q20 -10 31.5 -29.5zM709 254.5q-13 -9.5 -13 -22.5t13 -22.5t31 -9.5t31 9.5t13 22.5t-13 22.5t-31 9.5t-31 -9.5zM774 82.5q14 10.5 14 25.5t-14 25.5t-34 10.5t-34 -10.5t-14 -25.5t14 -25.5t34 -10.5t34 10.5z" />
    <glyph glyph-name="partialdiff" unicode="&#x2202;" 
d="M435.5 697q89.5 -79 135 -192t45.5 -239q0 -79 -36.5 -143.5t-102 -101.5t-149.5 -37q-87 0 -152.5 36t-100.5 98.5t-35 137.5q0 76 34.5 138t100 98t153.5 36q21 0 31 -1q-23 50 -84.5 85.5t-134.5 43.5l80 144q126 -24 215.5 -103zM396 177q28 33 28 79t-28 79t-68 33
t-68 -33t-28 -79t28 -79t68 -33t68 33z" />
    <glyph glyph-name="emptyset" unicode="&#x2205;" horiz-adv-x="616" 
 />
    <glyph glyph-name="product" unicode="&#x220f;" horiz-adv-x="720" 
d="M664 -256h-176v800h-256v-800h-176v960h608v-960z" />
    <glyph glyph-name="summation" unicode="&#x2211;" horiz-adv-x="688" 
d="M536 240l-262 -336h358v-160h-576v160l272 336l-272 336v160h576v-160h-358z" />
    <glyph glyph-name="minus" unicode="&#x2212;" horiz-adv-x="512" 
d="M472 360v-112h-432v112h432z" />
    <glyph glyph-name="radical" unicode="&#x221a;" horiz-adv-x="944" 
d="M920 512h-328l-200 -512h-160l-208 512h192l96 -272l145 432h463v-160z" />
    <glyph glyph-name="infinity" unicode="&#x221e;" horiz-adv-x="640" 
d="M516.5 433.5q38.5 -22.5 61 -61.5t22.5 -84q0 -46 -22.5 -84.5t-61 -61t-83.5 -22.5q-32 0 -61 11t-52 32q-22 -21 -50.5 -32t-60.5 -11q-46 0 -84.5 22.5t-61.5 61t-23 84.5q0 45 23 83.5t61.5 61.5t84.5 23q32 0 60.5 -11t50.5 -32q23 21 52 32t61 11q45 0 83.5 -22.5z
M247.5 249q16.5 17 16.5 39q0 23 -16.5 39.5t-39.5 16.5q-22 0 -39 -16.5t-17 -39.5q0 -22 17 -39t39 -17q23 0 39.5 17zM471.5 249q16.5 17 16.5 39q0 23 -16.5 39.5t-39.5 16.5q-22 0 -39 -16.5t-17 -39.5q0 -22 17 -39t39 -17q23 0 39.5 17z" />
    <glyph glyph-name="integral" unicode="&#x222b;" horiz-adv-x="384" 
d="M165.5 618.5q61.5 69.5 178.5 69.5v-160q-29 0 -46.5 -21.5t-17.5 -57.5v-469q0 -113 -61.5 -182.5t-178.5 -69.5v160q29 0 46.5 21.5t17.5 57.5v469q0 113 61.5 182.5z" />
    <glyph glyph-name="approxequal" unicode="&#x2248;" horiz-adv-x="544" 
d="M504 448q-53 -112 -144 -112q-20 0 -37 6t-50 20l-20 9q-41 18 -66 18q-40 0 -64 -53l-83 32q53 112 144 112q18 0 37 -6.5t48 -19.5l22 -10q23 -9 37.5 -13.5t27.5 -4.5q20 0 35.5 12.5t29.5 41.5zM504 272q-53 -112 -144 -112q-20 0 -37 6t-50 20l-20 9q-41 18 -66 18
q-40 0 -64 -53l-83 32q53 112 144 112q18 0 37 -6.5t48 -19.5l22 -10q23 -9 37.5 -13.5t27.5 -4.5q20 0 35.5 12.5t29.5 41.5z" />
    <glyph glyph-name="notequal" unicode="&#x2260;" horiz-adv-x="512" 
d="M312 336l-16 -64h176v-112h-202l-38 -160h-96l38 160h-134v112h160l16 64h-176v112h202l38 160h96l-38 -160h134v-112h-160z" />
    <glyph glyph-name="lessequal" unicode="&#x2264;" horiz-adv-x="544" 
d="M40 400v96l464 224v-128l-320 -144l320 -144v-128zM504 0h-464v112h464v-112z" />
    <glyph glyph-name="greaterequal" unicode="&#x2265;" horiz-adv-x="544" 
d="M40 304l320 144l-320 144v128l464 -224v-96l-464 -224v128zM504 112v-112h-464v112h464z" />
    <glyph glyph-name="lozenge" unicode="&#x25ca;" horiz-adv-x="624" 
d="M312 -16l-272 352l272 352l272 -352zM312 498l-126 -162l126 -162l128 162z" />
    <glyph glyph-name="M.ss01" horiz-adv-x="848" 
d="M792 672v-672h-192v372l-176 -260l-176 260v-372h-192v672h192l176 -260l176 260h192z" />
    <glyph glyph-name="j.ss01" horiz-adv-x="304" 
d="M78.5 590.5q-30.5 30.5 -30.5 73.5t30.5 73.5t73.5 30.5t73.5 -30.5t30.5 -73.5t-30.5 -73.5t-73.5 -30.5t-73.5 30.5zM56 512h192v-768h-192v768z" />
    <glyph glyph-name="t.ss01" horiz-adv-x="416" 
d="M280 352v-352h-192v352h-64v160h64v160h192v-160h96v-160h-96z" />
    <glyph glyph-name="tbar.ss01" horiz-adv-x="416" 
d="M280 352v-32h96v-96h-96v-224h-192v224h-64v96h64v32h-64v160h64v160h192v-160h96v-160h-96z" />
    <glyph glyph-name="tcaron.ss01" horiz-adv-x="608" 
d="M280 352v-352h-192v352h-64v160h64v160h192v-160h96v-160h-96zM440 672h144l-80 -160h-96z" />
    <glyph glyph-name="uni0163.ss01" horiz-adv-x="416" 
d="M255 0l-45 -48q5 1 15 1q47 0 79 -31t32 -82q0 -40 -21 -73t-57.5 -52t-81.5 -19q-47 0 -79 17t-49 46l62 77q11 -24 27.5 -38t45.5 -14t48 18t19 38q0 26 -15.5 41t-39.5 15q-18 0 -31 -4.5t-25 -14.5l-43 59l62 64h-70v352h-64v160h64v160h192v-160h96v-160h-96v-352
h-25z" />
    <glyph glyph-name="uni021B.ss01" horiz-adv-x="416" 
d="M280 352v-352h-192v352h-64v160h64v160h192v-160h96v-160h-96zM112 -64h144l-80 -160h-96z" />
    <glyph glyph-name="f_f.dlig" horiz-adv-x="864" 
d="M764 567q-29 0 -40.5 -12.5t-11.5 -42.5h112v-160h-112v-352h-192v352h-240v-352h-192v352h-64v160h64q1 96 40 152t136 56q77 0 128 -16v-144q-44 7 -60 7q-29 0 -40.5 -12.5t-11.5 -42.5h240q1 96 40 152t136 56q77 0 128 -16v-144q-44 7 -60 7z" />
    <glyph glyph-name="f_f_i.dlig" horiz-adv-x="1168" 
d="M1112 0h-192v352h-208v-352h-192v352h-240v-352h-192v352h-64v160h64q1 96 40 152t136 56q77 0 128 -16v-144q-44 7 -60 7q-29 0 -40.5 -12.5t-11.5 -42.5h240q1 96 40 152t136 56q77 0 128 -16v-144q-44 7 -60 7q-29 0 -40.5 -12.5t-11.5 -42.5h400v-512z" />
    <glyph glyph-name="f_f_j.dlig" horiz-adv-x="1168" 
d="M1112 16q0 -150 -63.5 -219t-192.5 -69l-32 160q39 0 67.5 27.5t28.5 84.5v352h-208v-352h-192v352h-240v-352h-192v352h-64v160h64q1 96 40 152t136 56q77 0 128 -16v-144q-44 7 -60 7q-29 0 -40.5 -12.5t-11.5 -42.5h240q1 96 40 152t136 56q77 0 128 -16v-144
q-44 7 -60 7q-29 0 -40.5 -12.5t-11.5 -42.5h400v-496z" />
    <glyph glyph-name="uni041C.ss01" horiz-adv-x="848" 
d="M792 672v-672h-192v372l-176 -260l-176 260v-372h-192v672h192l176 -260l176 260h192z" />
    <glyph glyph-name="uni043C.ss01" horiz-adv-x="736" 
d="M680 512v-512h-192v248l-120 -192l-120 192v-248h-192v512h192l120 -200l120 200h192z" />
    <glyph glyph-name="uni0458.ss01" horiz-adv-x="304" 
d="M78.5 590.5q-30.5 30.5 -30.5 73.5t30.5 73.5t73.5 30.5t73.5 -30.5t30.5 -73.5t-30.5 -73.5t-73.5 -30.5t-73.5 30.5zM56 512h192v-768h-192v768z" />
    <glyph glyph-name="zero.subs" horiz-adv-x="384" 
d="M271 56.5q35 -23.5 54 -64t19 -88.5t-19 -88.5t-54 -64t-79 -23.5t-79 23.5t-54 64t-19 88.5t19 88.5t54 64t79 23.5t79 -23.5zM231.5 -158q16.5 26 16.5 62q0 37 -16.5 62.5t-39.5 25.5t-39.5 -26t-16.5 -62t16.5 -62t39.5 -26t39.5 26z" />
    <glyph glyph-name="one.subs" horiz-adv-x="360" 
d="M256 80v-344h-96v237l-72 -14v81z" />
    <glyph glyph-name="two.subs" horiz-adv-x="368" 
d="M56 13.5q16 29.5 47 48t74 18.5q65 0 104 -34t39 -89q0 -34 -24.5 -68.5t-70.5 -64.5h103v-88h-288l144 152q23 24 31 38.5t8 25.5q0 18 -12 29t-31 11t-32.5 -13t-13.5 -35l-94 8q0 32 16 61.5z" />
    <glyph glyph-name="three.subs" horiz-adv-x="368" 
d="M315 -116.5q13 -19.5 13 -43.5q0 -27 -15.5 -52.5t-48 -42.5t-80.5 -17q-63 0 -103.5 30.5t-40.5 89.5l96 8q0 -24 14 -35t38 -11q18 0 29.5 9t11.5 23q0 19 -18 26.5t-54 7.5v64q5 0 21 1.5t31 8.5t15 22q0 11 -11.5 19t-28.5 8q-20 0 -33.5 -10.5t-14.5 -32.5l-88 8
q6 56 42.5 86t93.5 30q63 0 99.5 -30.5t36.5 -73.5q0 -42 -40 -62q22 -11 35 -30.5z" />
    <glyph glyph-name="four.subs" horiz-adv-x="368" 
d="M328 -128v-80h-40v-56h-96v56h-168v72l144 208h120v-200h40zM192 -24l-64 -104h64v104z" />
    <glyph glyph-name="five.subs" horiz-adv-x="368" 
d="M294.5 -66q33.5 -26 33.5 -78q0 -59 -40.5 -93.5t-107.5 -34.5q-61 0 -100.5 30t-39.5 82l100 6q2 -16 14.5 -27t29.5 -11q19 0 32.5 13t13.5 31t-13 27t-33 9q-27 0 -40 -16h-96l25 200h223v-88h-144l-3 -32q11 5 28 6.5t23 1.5q61 0 94.5 -26z" />
    <glyph glyph-name="six.subs" horiz-adv-x="368" 
d="M297 -57.5q31 -33.5 31 -78.5q0 -61 -39.5 -98.5t-104.5 -37.5q-67 0 -105.5 36.5t-38.5 102.5q0 38 23.5 93t98.5 112h142q-6 -3 -27.5 -15t-49.5 -34.5t-49 -51.5q2 1 10 3t22 2q56 0 87 -33.5zM218 -172.5q14 11.5 14 28.5t-14 28.5t-34 11.5t-34 -12t-14 -28t14 -28
t34 -12t34 11.5z" />
    <glyph glyph-name="seven.subs" horiz-adv-x="360" 
d="M352 72l-152 -336h-112l120 248h-152v88h296z" />
    <glyph glyph-name="eight.subs" horiz-adv-x="368" 
d="M316.5 -115.5q11.5 -19.5 11.5 -44.5q0 -48 -38 -80t-106 -32q-67 0 -105.5 32t-38.5 80q0 25 11.5 44.5t31.5 29.5q-18 11 -27 27t-9 35q0 44 38.5 74t98.5 30q61 0 99 -30t38 -74q0 -19 -9 -35t-27 -27q20 -10 31.5 -29.5zM153 -9.5q-13 -9.5 -13 -22.5t13 -22.5
t31 -9.5t31 9.5t13 22.5t-13 22.5t-31 9.5t-31 -9.5zM218 -181.5q14 10.5 14 25.5t-14 25.5t-34 10.5t-34 -10.5t-14 -25.5t14 -25.5t34 -10.5t34 10.5z" />
    <glyph glyph-name="nine.subs" horiz-adv-x="368" 
d="M71 -134q-31 34 -31 78q0 62 40 99t104 37q68 0 106 -36t38 -103q0 -38 -23.5 -93t-97.5 -112h-143q6 3 27.5 15t50 34.5t49.5 51.5q-2 -1 -10.5 -3t-22.5 -2q-56 0 -87 34zM150 -20q-14 -12 -14 -28t14 -28t34 -12t34 11.5t14 28.5t-14 28.5t-34 11.5t-34 -12z" />
    <glyph glyph-name="zero.tf" horiz-adv-x="688" 
d="M501.5 641q69.5 -47 108 -127.5t38.5 -177.5t-38.5 -177.5t-108 -127.5t-157.5 -47q-89 0 -158.5 47t-107.5 127.5t-38 177.5t38.5 177.5t107.5 127.5t158 47q88 0 157.5 -47zM400 183.5q26 23.5 41 64t15 88.5t-15 88.5t-41 64t-56 23.5t-56 -23.5t-41 -64t-15 -88.5
t15 -88.5t41 -64t56 -23.5t56 23.5z" />
    <glyph glyph-name="one.tf" horiz-adv-x="688" 
d="M496 688v-688h-192v473l-144 -28v163z" />
    <glyph glyph-name="two.tf" horiz-adv-x="688" 
d="M87.5 554.5q31.5 58.5 93.5 96t148 37.5t151 -31.5t100.5 -87.5t35.5 -128q0 -67 -49 -137t-141 -128h206v-176h-576l288 304q46 49 62 77t16 51q0 37 -24 58.5t-62 21.5q-39 0 -66 -26t-27 -70l-187 16q0 64 31.5 122.5z" />
    <glyph glyph-name="three.tf" horiz-adv-x="688" 
d="M605.5 295q26.5 -39 26.5 -87q0 -54 -31 -105.5t-96 -85t-161 -33.5q-81 0 -146 26t-103.5 80t-38.5 134l192 16q0 -48 27.5 -70t75.5 -22q36 0 59 18t23 45q0 37 -36 53t-107 16v128q0 -2 37 1.5t67 17.5t30 44q0 22 -23 38.5t-57 16.5q-40 0 -67 -21.5t-29 -64.5
l-176 16q12 112 85 172t187 60q85 0 146.5 -29t93.5 -76.5t32 -102.5q0 -42 -21.5 -73.5t-58.5 -51.5q43 -21 69.5 -60z" />
    <glyph glyph-name="four.tf" horiz-adv-x="688" 
d="M648 272v-160h-80v-112h-192v112h-336v144l288 416h240v-400h80zM376 480l-128 -208h128v208z" />
    <glyph glyph-name="five.tf" horiz-adv-x="688" 
d="M565 396q67 -52 67 -156q0 -79 -37 -136.5t-104 -88.5t-155 -31q-80 0 -143.5 26.5t-100 77t-36.5 120.5l199 12q5 -33 30 -54.5t59 -21.5q38 0 64.5 25.5t26.5 62.5q0 35 -25.5 53.5t-65.5 18.5q-26 0 -47 -8.5t-33 -23.5h-193l51 400h446v-176h-288l-6 -64
q15 7 37.5 10.5t41 4.5t23.5 1q122 0 189 -52z" />
    <glyph glyph-name="six.tf" horiz-adv-x="688" 
d="M525 447.5q53 -32.5 80 -84t27 -107.5q0 -81 -36 -143t-101.5 -95.5t-150.5 -33.5q-135 0 -211.5 72.5t-76.5 205.5q0 76 47 186t196 224h285q0 2 -49 -26t-105.5 -72.5t-98.5 -103.5q0 1 19 5.5t46 4.5q76 0 129 -32.5zM412 183.5q28 23.5 28 56.5t-28 56.5t-68 23.5
t-68 -23.5t-28 -56.5t28 -56.5t68 -23.5t68 23.5z" />
    <glyph glyph-name="seven.tf" horiz-adv-x="688" 
d="M648 672l-304 -672h-224l240 496h-304v176h592z" />
    <glyph glyph-name="eight.tf" horiz-adv-x="688" 
d="M608.5 296.5q23.5 -39.5 23.5 -88.5q0 -63 -33.5 -113.5t-98.5 -80.5t-156 -30t-156 30t-98.5 80.5t-33.5 113.5q0 49 23.5 88.5t62.5 58.5q-37 22 -54.5 55t-17.5 70q0 58 35 105.5t97.5 75t141.5 27.5t141.5 -27.5t97.5 -75t35 -105.5q0 -37 -17.5 -70t-54.5 -55
q39 -19 62.5 -58.5zM282 509.5q-26 -18.5 -26 -45.5t26 -45.5t62 -18.5t62 18.5t26 45.5t-26 45.5t-62 18.5t-62 -18.5zM412 165q28 21 28 51t-28 51t-68 21t-68 -21t-28 -51t28 -51t68 -21t68 21z" />
    <glyph glyph-name="nine.tf" horiz-adv-x="688" 
d="M163 224.5q-53 32.5 -80 84t-27 107.5q0 81 36 143t101.5 95.5t150.5 33.5q135 0 211.5 -72.5t76.5 -205.5q0 -76 -47 -186t-196 -224h-285q0 -2 49 26t105.5 72.5t98.5 103.5q0 -1 -18.5 -5.5t-46.5 -4.5q-76 0 -129 32.5zM276 488.5q-28 -23.5 -28 -56.5t28 -56.5
t68 -23.5t68 23.5t28 56.5t-28 56.5t-68 23.5t-68 -23.5z" />
    <glyph glyph-name="zero.zero" horiz-adv-x="688" 
d="M501.5 641q69.5 -47 108 -127.5t38.5 -177.5t-38.5 -177.5t-108 -127.5t-157.5 -47q-89 0 -158.5 47t-107.5 127.5t-38 177.5t38.5 177.5t107.5 127.5t158 47q88 0 157.5 -47zM288 488.5q-26 -23.5 -41 -64t-15 -88.5q0 -32 8 -64l175 200q-32 40 -71 40q-30 0 -56 -23.5
zM400 183.5q26 23.5 41 64t15 88.5q0 32 -8 64l-175 -200q32 -40 71 -40q30 0 56 23.5z" />
    <glyph glyph-name="zero.tf.zero" horiz-adv-x="688" 
d="M501.5 641q69.5 -47 108 -127.5t38.5 -177.5t-38.5 -177.5t-108 -127.5t-157.5 -47q-89 0 -158.5 47t-107.5 127.5t-38 177.5t38.5 177.5t107.5 127.5t158 47q88 0 157.5 -47zM288 488.5q-26 -23.5 -41 -64t-15 -88.5q0 -32 8 -64l175 200q-32 40 -71 40q-30 0 -56 -23.5
zM400 183.5q26 23.5 41 64t15 88.5q0 32 -8 64l-175 -200q32 -40 71 -40q30 0 56 23.5z" />
    <glyph glyph-name="zero.dnom" horiz-adv-x="384" 
d="M271 320.5q35 -23.5 54 -64t19 -88.5t-19 -88.5t-54 -64t-79 -23.5t-79 23.5t-54 64t-19 88.5t19 88.5t54 64t79 23.5t79 -23.5zM231.5 106q16.5 26 16.5 62q0 37 -16.5 62.5t-39.5 25.5t-39.5 -26t-16.5 -62t16.5 -62t39.5 -26t39.5 26z" />
    <glyph glyph-name="one.dnom" horiz-adv-x="360" 
d="M256 344v-344h-96v237l-72 -14v81z" />
    <glyph glyph-name="two.dnom" horiz-adv-x="368" 
d="M56 277.5q16 29.5 47 48t74 18.5q65 0 104 -34t39 -89q0 -34 -24.5 -68.5t-70.5 -64.5h103v-88h-288l144 152q23 24 31 38.5t8 25.5q0 18 -12 29t-31 11t-32.5 -13t-13.5 -35l-94 8q0 32 16 61.5z" />
    <glyph glyph-name="three.dnom" horiz-adv-x="368" 
d="M315 147.5q13 -19.5 13 -43.5q0 -27 -15.5 -52.5t-48 -42.5t-80.5 -17q-63 0 -103.5 30.5t-40.5 89.5l96 8q0 -24 14 -35t38 -11q18 0 29.5 9t11.5 23q0 19 -18 26.5t-54 7.5v64q5 0 21 1.5t31 8.5t15 22q0 11 -11.5 19t-28.5 8q-20 0 -33.5 -10.5t-14.5 -32.5l-88 8
q6 56 42.5 86t93.5 30q63 0 99.5 -30.5t36.5 -73.5q0 -42 -40 -62q22 -11 35 -30.5z" />
    <glyph glyph-name="four.dnom" horiz-adv-x="368" 
d="M328 136v-80h-40v-56h-96v56h-168v72l144 208h120v-200h40zM192 240l-64 -104h64v104z" />
    <glyph glyph-name="five.dnom" horiz-adv-x="368" 
d="M294.5 198q33.5 -26 33.5 -78q0 -59 -40.5 -93.5t-107.5 -34.5q-61 0 -100.5 30t-39.5 82l100 6q2 -16 14.5 -27t29.5 -11q19 0 32.5 13t13.5 31t-13 27t-33 9q-27 0 -40 -16h-96l25 200h223v-88h-144l-3 -32q11 5 28 6.5t23 1.5q61 0 94.5 -26z" />
    <glyph glyph-name="six.dnom" horiz-adv-x="368" 
d="M297 206.5q31 -33.5 31 -78.5q0 -61 -39.5 -98.5t-104.5 -37.5q-67 0 -105.5 36.5t-38.5 102.5q0 38 23.5 93t98.5 112h142q-6 -3 -27.5 -15t-49.5 -34.5t-49 -51.5q2 1 10 3t22 2q56 0 87 -33.5zM218 91.5q14 11.5 14 28.5t-14 28.5t-34 11.5t-34 -12t-14 -28t14 -28
t34 -12t34 11.5z" />
    <glyph glyph-name="seven.dnom" horiz-adv-x="360" 
d="M352 336l-152 -336h-112l120 248h-152v88h296z" />
    <glyph glyph-name="eight.dnom" horiz-adv-x="368" 
d="M316.5 148.5q11.5 -19.5 11.5 -44.5q0 -48 -38 -80t-106 -32q-67 0 -105.5 32t-38.5 80q0 25 11.5 44.5t31.5 29.5q-18 11 -27 27t-9 35q0 44 38.5 74t98.5 30q61 0 99 -30t38 -74q0 -19 -9 -35t-27 -27q20 -10 31.5 -29.5zM153 254.5q-13 -9.5 -13 -22.5t13 -22.5
t31 -9.5t31 9.5t13 22.5t-13 22.5t-31 9.5t-31 -9.5zM218 82.5q14 10.5 14 25.5t-14 25.5t-34 10.5t-34 -10.5t-14 -25.5t14 -25.5t34 -10.5t34 10.5z" />
    <glyph glyph-name="nine.dnom" horiz-adv-x="368" 
d="M71 130q-31 34 -31 78q0 62 40 99t104 37q68 0 106 -36t38 -103q0 -38 -23.5 -93t-97.5 -112h-143q6 3 27.5 15t50 34.5t49.5 51.5q-2 -1 -10.5 -3t-22.5 -2q-56 0 -87 34zM150 244q-14 -12 -14 -28t14 -28t34 -12t34 11.5t14 28.5t-14 28.5t-34 11.5t-34 -12z" />
    <glyph glyph-name="zero.numr" horiz-adv-x="384" 
d="M271 656.5q35 -23.5 54 -64t19 -88.5t-19 -88.5t-54 -64t-79 -23.5t-79 23.5t-54 64t-19 88.5t19 88.5t54 64t79 23.5t79 -23.5zM231.5 442q16.5 26 16.5 62q0 37 -16.5 62.5t-39.5 25.5t-39.5 -26t-16.5 -62t16.5 -62t39.5 -26t39.5 26z" />
    <glyph glyph-name="one.numr" horiz-adv-x="360" 
d="M256 680v-344h-96v237l-72 -14v81z" />
    <glyph glyph-name="two.numr" horiz-adv-x="368" 
d="M56 613.5q16 29.5 47 48t74 18.5q65 0 104 -34t39 -89q0 -34 -24.5 -68.5t-70.5 -64.5h103v-88h-288l144 152q23 24 31 38.5t8 25.5q0 18 -12 29t-31 11t-32.5 -13t-13.5 -35l-94 8q0 32 16 61.5z" />
    <glyph glyph-name="three.numr" horiz-adv-x="368" 
d="M315 483.5q13 -19.5 13 -43.5q0 -27 -15.5 -52.5t-48 -42.5t-80.5 -17q-63 0 -103.5 30.5t-40.5 89.5l96 8q0 -24 14 -35t38 -11q18 0 29.5 9t11.5 23q0 19 -18 26.5t-54 7.5v64q5 0 21 1.5t31 8.5t15 22q0 11 -11.5 19t-28.5 8q-20 0 -33.5 -10.5t-14.5 -32.5l-88 8
q6 56 42.5 86t93.5 30q63 0 99.5 -30.5t36.5 -73.5q0 -42 -40 -62q22 -11 35 -30.5z" />
    <glyph glyph-name="four.numr" horiz-adv-x="368" 
d="M328 472v-80h-40v-56h-96v56h-168v72l144 208h120v-200h40zM192 576l-64 -104h64v104z" />
    <glyph glyph-name="five.numr" horiz-adv-x="368" 
d="M294.5 534q33.5 -26 33.5 -78q0 -59 -40.5 -93.5t-107.5 -34.5q-61 0 -100.5 30t-39.5 82l100 6q2 -16 14.5 -27t29.5 -11q19 0 32.5 13t13.5 31t-13 27t-33 9q-27 0 -40 -16h-96l25 200h223v-88h-144l-3 -32q11 5 28 6.5t23 1.5q61 0 94.5 -26z" />
    <glyph glyph-name="six.numr" horiz-adv-x="368" 
d="M297 542.5q31 -33.5 31 -78.5q0 -61 -39.5 -98.5t-104.5 -37.5q-67 0 -105.5 36.5t-38.5 102.5q0 38 23.5 93t98.5 112h142q-6 -3 -27.5 -15t-49.5 -34.5t-49 -51.5q2 1 10 3t22 2q56 0 87 -33.5zM218 427.5q14 11.5 14 28.5t-14 28.5t-34 11.5t-34 -12t-14 -28t14 -28
t34 -12t34 11.5z" />
    <glyph glyph-name="seven.numr" horiz-adv-x="360" 
d="M352 672l-152 -336h-112l120 248h-152v88h296z" />
    <glyph glyph-name="eight.numr" horiz-adv-x="368" 
d="M316.5 484.5q11.5 -19.5 11.5 -44.5q0 -48 -38 -80t-106 -32q-67 0 -105.5 32t-38.5 80q0 25 11.5 44.5t31.5 29.5q-18 11 -27 27t-9 35q0 44 38.5 74t98.5 30q61 0 99 -30t38 -74q0 -19 -9 -35t-27 -27q20 -10 31.5 -29.5zM153 590.5q-13 -9.5 -13 -22.5t13 -22.5
t31 -9.5t31 9.5t13 22.5t-13 22.5t-31 9.5t-31 -9.5zM218 418.5q14 10.5 14 25.5t-14 25.5t-34 10.5t-34 -10.5t-14 -25.5t14 -25.5t34 -10.5t34 10.5z" />
    <glyph glyph-name="nine.numr" horiz-adv-x="368" 
d="M71 466q-31 34 -31 78q0 62 40 99t104 37q68 0 106 -36t38 -103q0 -38 -23.5 -93t-97.5 -112h-143q6 3 27.5 15t50 34.5t49.5 51.5q-2 -1 -10.5 -3t-22.5 -2q-56 0 -87 34zM150 580q-14 -12 -14 -28t14 -28t34 -12t34 11.5t14 28.5t-14 28.5t-34 11.5t-34 -12z" />
    <glyph glyph-name="exclam.case" horiz-adv-x="304" 
d="M56 672h192l-32 -448h-128zM84 12q-28 28 -28 68t28 68t68 28t68 -28t28 -68t-28 -68t-68 -28t-68 28z" />
    <glyph glyph-name="exclamdown.case" horiz-adv-x="304" 
d="M220 660q28 -28 28 -68t-28 -68t-68 -28t-68 28t-28 68t28 68t68 28t68 -28zM216 448l32 -448h-192l32 448h128z" />
    <glyph glyph-name="question.case" horiz-adv-x="568" 
d="M469.5 633.5q58.5 -54.5 58.5 -137.5q0 -35 -10.5 -60t-29 -45.5t-56.5 -54.5q-32 -28 -51.5 -57.5t-20.5 -70.5h-160q0 98 52 152q21 21 30 29q26 25 36 38t10 29q0 32 -24 46.5t-65 14.5q-33 0 -69 -11.5t-61 -37.5l-69 140q93 80 240 80q131 0 189.5 -54.5zM348 148
q28 -28 28 -68t-28 -68t-68 -28t-68 28t-28 68t28 68t68 28t68 -28z" />
    <glyph glyph-name="questiondown.case" horiz-adv-x="568" 
d="M220 524q-28 28 -28 68t28 68t68 28t68 -28t28 -68t-28 -68t-68 -28t-68 28zM98.5 38.5q-58.5 54.5 -58.5 137.5q0 35 10.5 60t29 45.5t56.5 54.5q32 28 51.5 57.5t20.5 70.5h160q0 -98 -52 -152q-21 -21 -30 -29q-26 -25 -36 -38t-10 -29q0 -32 24 -46.5t65 -14.5
q33 0 69 11.5t61 37.5l69 -140q-93 -80 -240 -80q-131 0 -189.5 54.5z" />
    <glyph glyph-name="braceleft.case" horiz-adv-x="432" 
d="M332 -58q20 -29 60 -38l-112 -96q-70 26 -107 72t-37 110v234q0 27 -15.5 50.5t-38 40t-42.5 21.5q20 5 42.5 21.5t38 40t15.5 50.5v234q0 64 37 110t107 72l112 -96q-40 -9 -60 -38t-20 -68v-180q0 -56 -19.5 -93.5t-55.5 -52.5q36 -15 55.5 -52.5t19.5 -93.5v-180
q0 -39 20 -68z" />
    <glyph glyph-name="braceright.case" horiz-adv-x="432" 
d="M120 190q0 56 19.5 93.5t55.5 52.5q-36 15 -55.5 52.5t-19.5 93.5v180q0 39 -20 68t-60 38l112 96q70 -26 107 -72t37 -110v-234q0 -27 15.5 -50.5t38 -40t42.5 -21.5q-20 -5 -42.5 -21.5t-38 -40t-15.5 -50.5v-234q0 -64 -37 -110t-107 -72l-112 96q40 9 60 38t20 68
v180z" />
    <glyph glyph-name="bracketleft.case" horiz-adv-x="368" 
d="M232 -24h80v-160h-256v1040h256v-160h-80v-720z" />
    <glyph glyph-name="bracketright.case" horiz-adv-x="368" 
d="M56 696v160h256v-1040h-256v160h80v720h-80z" />
    <glyph glyph-name="parenleft.case" horiz-adv-x="368" 
d="M216 336q0 -222 128 -416l-176 -48q-128 232 -128 464t128 464l176 -48q-128 -194 -128 -416z" />
    <glyph glyph-name="parenright.case" horiz-adv-x="368" 
d="M200 800q128 -232 128 -464t-128 -464l-176 48q128 194 128 416t-128 416z" />
    <glyph glyph-name="emdash.case" horiz-adv-x="624" 
d="M40 272v128h544v-128h-544z" />
    <glyph glyph-name="endash.case" horiz-adv-x="528" 
d="M40 272v128h448v-128h-448z" />
    <glyph glyph-name="hyphen.case" horiz-adv-x="400" 
d="M40 272v128h320v-128h-320z" />
    <glyph glyph-name="guillemotleft.case" horiz-adv-x="672" 
d="M184 336l160 -240h-144l-160 240l160 240h144zM440 336l160 -240h-144l-160 240l160 240h144z" />
    <glyph glyph-name="guillemotright.case" horiz-adv-x="672" 
d="M216 576l160 -240l-160 -240h-144l160 240l-160 240h144zM472 576l160 -240l-160 -240h-144l160 240l-160 240h144z" />
    <glyph glyph-name="guilsinglleft.case" horiz-adv-x="416" 
d="M344 576l-160 -240l160 -240h-144l-160 240l160 240h144z" />
    <glyph glyph-name="guilsinglright.case" horiz-adv-x="416" 
d="M376 336l-160 -240h-144l160 240l-160 240h144z" />
    <glyph glyph-name="ampersand.ss01" horiz-adv-x="832" 
d="M643 175l132 -175h-223l-42 53q-98 -69 -206 -69q-72 0 -132 26t-96 77t-36 121q0 93 62 146t134 74l-180 244h544v-176h-200l151 -199l25 23h216zM374 154q27 10 47 25l-96 129q-46 -10 -69.5 -36t-23.5 -52q0 -34 24.5 -55t61.5 -21q29 0 56 10z" />
    <glyph glyph-name="brevecy" horiz-adv-x="616" 
 />
    </font>
</defs>
</svg>
