<?xml version="1.0" standalone="no"?>
<!DOCTYPE svg PUBLIC "-//W3C//DTD SVG 1.1//EN" "http://www.w3.org/Graphics/SVG/1.1/DTD/svg11.dtd" >
<svg xmlns="http://www.w3.org/2000/svg" xmlns:xlink="http://www.w3.org/1999/xlink" version="1.1">
<metadata>
Created by FontForge 20170731 at Tue Mar  7 18:35:54 2017
 By Aleksey,,,
Copyright (c) Milos Mitrovic, 2016. All rights reserved.
</metadata>
<defs>
<font id="NoirPro-SemiBold" horiz-adv-x="608" >
  <font-face 
    font-family="Noir Pro Semi Bold"
    font-weight="600"
    font-stretch="normal"
    units-per-em="1000"
    panose-1="0 0 7 0 0 0 0 0 0 0"
    ascent="800"
    descent="-200"
    x-height="496"
    cap-height="672"
    bbox="-176 -304 1152 1120"
    underline-thickness="50"
    underline-position="-150"
    unicode-range="U+0020-25CA"
  />
<missing-glyph horiz-adv-x="528" 
d="M433 -256h-335v1056h335v-1056zM177 729v-35h69v-39h-70v-35h176v35h-70v39h70v35h-175zM176 593v-110h176v36h-70v74h-106zM246 519h-35v38h35v-38zM176 455v-35h70v-39h-70v-35h106v74h70v35h-176zM317 391v-69h-141v-36h176v105h-35zM246 262v-59h36v25h35v-50h-106
v84h-35v-119h176v119h-106zM176 80v-120h176v120h-176zM317 -5h-106v50h106v-50zM176 -64v-35h74l-74 -49v-35h176v35h-108l74 49h34v35h-176z" />
    <glyph glyph-name=".notdef" horiz-adv-x="528" 
d="M433 -256h-335v1056h335v-1056zM177 729v-35h69v-39h-70v-35h176v35h-70v39h70v35h-175zM176 593v-110h176v36h-70v74h-106zM246 519h-35v38h35v-38zM176 455v-35h70v-39h-70v-35h106v74h70v35h-176zM317 391v-69h-141v-36h176v105h-35zM246 262v-59h36v25h35v-50h-106
v84h-35v-119h176v119h-106zM176 80v-120h176v120h-176zM317 -5h-106v50h106v-50zM176 -64v-35h74l-74 -49v-35h176v35h-108l74 49h34v35h-176z" />
    <glyph glyph-name=".null" horiz-adv-x="0" 
 />
    <glyph glyph-name="nonmarkingreturn" horiz-adv-x="333" 
 />
    <glyph glyph-name="space" unicode=" " horiz-adv-x="304" 
 />
    <glyph glyph-name="exclam" unicode="!" horiz-adv-x="304" 
d="M72 672h160l-32 -464h-96zM89.5 9.5q-25.5 25.5 -25.5 62.5t25.5 62.5t62.5 25.5t62.5 -25.5t25.5 -62.5t-25.5 -62.5t-62.5 -25.5t-62.5 25.5z" />
    <glyph glyph-name="quotedbl" unicode="&#x22;" horiz-adv-x="448" 
d="M64 432l-16 240h144l-16 -240h-112zM272 432l-16 240h144l-16 -240h-112z" />
    <glyph glyph-name="numbersign" unicode="#" horiz-adv-x="720" 
d="M547 400l-24 -144h101v-96h-117l-27 -160h-112l27 160h-128l-27 -160h-112l27 160h-107v96h123l24 144h-99v96h115l29 176h112l-29 -176h128l29 176h112l-29 -176h109v-96h-125zM435 400h-128l-25 -144h128z" />
    <glyph glyph-name="dollar" unicode="$" horiz-adv-x="624" 
d="M563 95.5q-29 -47.5 -84.5 -76.5t-134.5 -34v-65h-48v64q-72 3 -131 28t-96 53t-37 31l73 128q51 -51 105 -73.5t102 -22.5q120 0 120 64q0 25 -24 40.5t-88 26.5q-136 23 -200 74t-64 137q0 56 29 104t83.5 78t127.5 35v65h48v-65q52 -3 113 -22t109 -63l-70 -126
q0 2 -23.5 20t-62.5 33t-90 15q-44 0 -74 -15t-30 -42q0 -24 22 -37.5t82 -26.5q90 -19 147.5 -43t91 -66.5t33.5 -111.5q0 -59 -29 -106.5z" />
    <glyph glyph-name="percent" unicode="%" horiz-adv-x="816" 
d="M128 389.5q-37 21.5 -58.5 58t-21.5 80.5q0 43 21.5 80t58.5 58.5t81 21.5q43 0 79.5 -21.5t58 -58.5t21.5 -80q0 -44 -21.5 -80.5t-58 -58t-79.5 -21.5q-44 0 -81 21.5zM126 0l468 672h96l-468 -672h-96zM253 483q19 19 19 45t-19 45t-45 19t-45 -19t-19 -45t19 -45
t45 -19t45 19zM528 5.5q-37 21.5 -58.5 58t-21.5 80.5q0 43 21.5 80t58.5 58.5t81 21.5q43 0 79.5 -21.5t58 -58.5t21.5 -80q0 -44 -21.5 -80.5t-58 -58t-79.5 -21.5q-44 0 -81 21.5zM653 99q19 19 19 45t-19 45t-45 19t-45 -19t-19 -45t19 -45t45 -19t45 19z" />
    <glyph glyph-name="ampersand" unicode="&#x26;" horiz-adv-x="832" 
d="M610 157l173 -157h-223l-60 57q-43 -33 -95.5 -53t-104.5 -20q-66 0 -123.5 25t-93 75.5t-35.5 123.5q0 64 34.5 109.5t79.5 62.5q-38 36 -53 63.5t-15 61.5q0 50 32 92t88 66.5t125 24.5q71 0 126.5 -23.5t87 -66t31.5 -96.5q0 -51 -23.5 -84.5t-58 -51.5t-84.5 -36
l89 -80l79 70h198zM397.5 451q26.5 17 26.5 41q0 27 -25 44t-64 17q-34 0 -56.5 -16t-22.5 -37q0 -17 13 -32t51 -48q51 14 77.5 31zM357 136.5q23 7.5 38 21.5l-138 133q-23 -12 -35.5 -28.5t-12.5 -44.5q0 -35 29 -62t71 -27q25 0 48 7.5z" />
    <glyph glyph-name="quotesingle" unicode="'" horiz-adv-x="240" 
d="M64 432l-16 240h144l-16 -240h-112z" />
    <glyph glyph-name="parenleft" unicode="(" horiz-adv-x="352" 
d="M192 304q0 -222 128 -416l-144 -48q-128 232 -128 464t128 464l144 -48q-128 -194 -128 -416z" />
    <glyph glyph-name="parenright" unicode=")" horiz-adv-x="352" 
d="M176 768q128 -232 128 -464t-128 -464l-144 48q128 194 128 416t-128 416z" />
    <glyph glyph-name="asterisk" unicode="*" horiz-adv-x="432" 
d="M350 640l34 -85l-102 -32l66 -82l-73 -53l-59 86l-58 -86l-75 53l68 82l-103 32l34 85l95 -43l-5 107h90l-6 -107z" />
    <glyph glyph-name="plus" unicode="+" horiz-adv-x="512" 
d="M464 256h-160v-160h-96v160h-160v96h160v160h96v-160h160v-96z" />
    <glyph glyph-name="comma" unicode="," horiz-adv-x="320" 
d="M96 144h176l-128 -272h-112z" />
    <glyph glyph-name="hyphen" unicode="-" horiz-adv-x="400" 
d="M48 208v112h304v-112h-304z" />
    <glyph glyph-name="period" unicode="." horiz-adv-x="272" 
d="M73.5 9.5q-25.5 25.5 -25.5 62.5t25.5 62.5t62.5 25.5t62.5 -25.5t25.5 -62.5t-25.5 -62.5t-62.5 -25.5t-62.5 25.5z" />
    <glyph glyph-name="slash" unicode="/" horiz-adv-x="528" 
d="M48 -80l320 832h112l-320 -832h-112z" />
    <glyph glyph-name="zero" unicode="0" horiz-adv-x="656" 
d="M473.5 641q63.5 -47 99 -127.5t35.5 -177.5t-35.5 -177.5t-99 -127.5t-145.5 -47t-146 47t-99 127.5t-35 177.5t35.5 177.5t99 127.5t145.5 47t145.5 -47zM388.5 155q27.5 27 43.5 75t16 106t-16 106t-43.5 75t-60.5 27t-60.5 -27t-43.5 -75t-16 -106t16 -106t43.5 -75
t60.5 -27t60.5 27z" />
    <glyph glyph-name="one" unicode="1" horiz-adv-x="448" 
d="M368 688v-688h-160v496l-144 -32v144z" />
    <glyph glyph-name="two" unicode="2" horiz-adv-x="656" 
d="M98.5 569.5q30.5 54.5 85.5 86.5t129 32q121 0 192 -63t71 -177q0 -63 -47.5 -135.5t-144.5 -168.5h224v-144h-560l264 272q104 114 104 176q0 46 -27.5 71t-68.5 25t-70 -28t-31 -84l-155 16q4 67 34.5 121.5z" />
    <glyph glyph-name="three" unicode="3" horiz-adv-x="640" 
d="M565.5 295q26.5 -39 26.5 -87q0 -55 -27.5 -106t-88.5 -84.5t-156 -33.5q-78 0 -140 27t-97 77.5t-35 119.5l160 16q8 -48 37 -72t82 -24q43 0 74 20.5t31 56.5q0 38 -46.5 54.5t-113.5 16.5v128q0 -2 40 3t72 22t32 51q0 30 -25.5 47t-67.5 17q-92 0 -103 -96l-156 16
q9 103 77 163.5t179 60.5q83 0 141 -28t86.5 -72t28.5 -92q0 -44 -22 -83t-58 -58q43 -21 69.5 -60z" />
    <glyph glyph-name="four" unicode="4" horiz-adv-x="672" 
d="M624 272v-144h-80v-128h-160v128h-336v128l296 416h200v-400h80zM384 510l-155 -238h155v238z" />
    <glyph glyph-name="five" unicode="5" horiz-adv-x="640" 
d="M467.5 423.5q56.5 -24.5 90.5 -72.5t34 -116q0 -75 -32.5 -132t-94 -88t-145.5 -31q-124 0 -196 57t-76 167l160 10q3 -38 35 -64t77 -26q46 0 79 28t33 68q0 42 -29.5 69t-82.5 27q-34 0 -64 -11.5t-48 -36.5h-145l57 400h408v-144h-279l-12 -102q17 10 40.5 15t42 6
t23.5 1q68 0 124.5 -24.5z" />
    <glyph glyph-name="six" unicode="6" horiz-adv-x="656" 
d="M95 445.5q47 119.5 209 226.5h245q0 2 -59.5 -32.5t-119.5 -83t-90 -102.5q3 1 14 4.5t33 6.5t52 3q68 0 120 -31.5t80.5 -84t28.5 -112.5q0 -75 -35 -133.5t-98.5 -90.5t-146.5 -32q-86 0 -149.5 32t-97 91.5t-33.5 139.5q0 79 47 198.5zM242 305.5q-34 -30.5 -34 -73.5
t34 -73.5t86 -30.5t86 30t34 74t-34 74t-86 30t-86 -30.5z" />
    <glyph glyph-name="seven" unicode="7" 
d="M608 672l-304 -672h-176l240 528h-320v144h560z" />
    <glyph glyph-name="eight" unicode="8" horiz-adv-x="640" 
d="M570 296.5q22 -39.5 22 -88.5q0 -63 -31.5 -113.5t-93 -80.5t-147.5 -30t-147.5 30t-93 80.5t-31.5 113.5q0 49 22 88.5t60 58.5q-30 23 -48 57t-18 68q0 59 32.5 106.5t91 74.5t132.5 27q75 0 133.5 -27.5t90.5 -75t32 -105.5q0 -34 -18 -68t-48 -57q38 -19 60 -58.5z
M252 523q-28 -21 -28 -51t28 -51t68 -21t68 21t28 51t-28 51t-68 21t-68 -21zM399.5 153.5q32.5 25.5 32.5 62.5t-32.5 62.5t-79.5 25.5t-79.5 -25.5t-32.5 -62.5t32.5 -62.5t79.5 -25.5t79.5 25.5z" />
    <glyph glyph-name="nine" unicode="9" horiz-adv-x="656" 
d="M561 226.5q-47 -119.5 -209 -226.5h-245q0 -2 59.5 32.5t119.5 83t90 102.5q-3 -1 -14 -4.5t-33 -6.5t-52 -3q-68 0 -120 31.5t-80.5 84t-28.5 112.5q0 75 35 133.5t98.5 90.5t146.5 32q86 0 149.5 -32t97 -91.5t33.5 -139.5q0 -79 -47 -198.5zM414 366.5
q34 30.5 34 73.5t-34 73.5t-86 30.5t-86 -30t-34 -74t34 -74t86 -30t86 30.5z" />
    <glyph glyph-name="colon" unicode=":" horiz-adv-x="272" 
d="M73.5 361.5q-25.5 25.5 -25.5 62.5t25.5 62.5t62.5 25.5t62.5 -25.5t25.5 -62.5t-25.5 -62.5t-62.5 -25.5t-62.5 25.5zM73.5 9.5q-25.5 25.5 -25.5 62.5t25.5 62.5t62.5 25.5t62.5 -25.5t25.5 -62.5t-25.5 -62.5t-62.5 -25.5t-62.5 25.5z" />
    <glyph glyph-name="semicolon" unicode=";" horiz-adv-x="320" 
d="M121.5 361.5q-25.5 25.5 -25.5 62.5t25.5 62.5t62.5 25.5t62.5 -25.5t25.5 -62.5t-25.5 -62.5t-62.5 -25.5t-62.5 25.5zM96 144h176l-128 -272h-112z" />
    <glyph glyph-name="less" unicode="&#x3c;" horiz-adv-x="544" 
d="M48 264v80l448 216v-112l-312 -144l312 -144v-112z" />
    <glyph glyph-name="equal" unicode="=" horiz-adv-x="512" 
d="M464 432v-96h-416v96h416zM464 272v-96h-416v96h416z" />
    <glyph glyph-name="greater" unicode="&#x3e;" horiz-adv-x="544" 
d="M48 160l312 144l-312 144v112l448 -216v-80l-448 -216v112z" />
    <glyph glyph-name="question" unicode="?" horiz-adv-x="560" 
d="M402.5 661q54.5 -27 82 -71t27.5 -94q0 -54 -25 -97t-79 -85q-32 -24 -51.5 -52t-20.5 -70h-128l-1 21q0 86 49 136l31 29q34 32 49.5 53.5t15.5 50.5q0 32 -24.5 47.5t-62.5 15.5q-88 0 -153 -65l-64 112q36 39 94 67.5t130 28.5q76 0 130.5 -27zM334.5 134.5
q25.5 -25.5 25.5 -62.5t-25.5 -62.5t-62.5 -25.5t-62.5 25.5t-25.5 62.5t25.5 62.5t62.5 25.5t62.5 -25.5z" />
    <glyph glyph-name="at" unicode="@" horiz-adv-x="1080" 
d="M1003 194q-29 -61 -83 -95.5t-125 -34.5q-61 0 -96.5 21t-60.5 68q-23 -32 -60.5 -52.5t-82.5 -20.5q-94 0 -143 56t-49 140q0 65 27 119t76 85.5t114 31.5q40 0 72.5 -18.5t47.5 -43.5l4 46h116l-23 -236q-1 -7 -1 -22q0 -31 13.5 -49t50.5 -18q25 0 50.5 14t43.5 49
t18 93q0 92 -51 169.5t-136 122.5t-181 45q-102 0 -188.5 -50.5t-137 -137t-50.5 -188.5t50.5 -188.5t137 -137t188.5 -50.5q40 0 79 7.5t69 20.5l33 -114q-83 -34 -181 -34q-135 0 -249 66.5t-180.5 180.5t-66.5 249t66.5 249t180.5 180.5t249 66.5q126 0 238.5 -62
t181 -166.5t68.5 -225.5q0 -75 -29 -136zM600.5 383q-23.5 33 -73.5 33q-48 0 -80 -39.5t-32 -95.5q0 -43 24.5 -74t71.5 -31q53 0 83 38.5t30 93.5q0 42 -23.5 75z" />
    <glyph glyph-name="A" unicode="A" horiz-adv-x="704" 
d="M486 112h-268l-42 -112h-176l278 672h148l278 -672h-176zM431 256l-79 208l-79 -208h158z" />
    <glyph glyph-name="B" unicode="B" horiz-adv-x="640" 
d="M579.5 295q28.5 -40 28.5 -93q0 -58 -27.5 -104t-80 -72t-122.5 -26h-314v672h256q121 0 188.5 -42.5t67.5 -133.5q0 -43 -23 -85t-58 -58q56 -18 84.5 -58zM224 416h96q96 0 96 57q0 30 -24 42.5t-72 12.5h-96v-112zM448 209q0 32 -29.5 47.5t-82.5 15.5h-112v-128h112
q112 0 112 65z" />
    <glyph glyph-name="C" unicode="C" horiz-adv-x="656" 
d="M490.5 149q42.5 21 71.5 57l62 -141q-42 -38 -103.5 -59.5t-120.5 -21.5q-100 0 -184.5 47.5t-134 128.5t-49.5 176t49.5 176t134 128.5t184.5 47.5q60 0 121 -21t103 -59l-62 -142q-29 37 -71 57.5t-91 20.5q-57 0 -104.5 -28t-75.5 -75.5t-28 -104.5t28 -104.5
t75.5 -75.5t104.5 -28q48 0 90.5 21z" />
    <glyph glyph-name="D" unicode="D" horiz-adv-x="704" 
d="M510.5 627.5q79.5 -44.5 120.5 -120.5t41 -171q0 -94 -42 -170.5t-122 -121t-189 -44.5h-255v672h255q112 0 191.5 -44.5zM419 170q42 26 67.5 70t25.5 96t-25.5 96t-67.5 70t-89 26h-106v-384h106q47 0 89 26z" />
    <glyph glyph-name="E" unicode="E" horiz-adv-x="544" 
d="M224 528v-120h224v-144h-224v-120h272v-144h-432v672h432v-144h-272z" />
    <glyph glyph-name="F" unicode="F" horiz-adv-x="528" 
d="M64 672h432v-144h-272v-120h224v-144h-224v-264h-160v672z" />
    <glyph glyph-name="G" unicode="G" horiz-adv-x="752" 
d="M720 336q0 -96 -43.5 -177t-120.5 -128t-172 -47t-176 47.5t-128.5 128.5t-47.5 176t47.5 176t128.5 128.5t176 47.5q101 0 180 -52t124 -140l-144 -43q-26 41 -64 66t-96 25q-55 0 -99 -28t-68.5 -75.5t-24.5 -104.5t25 -104.5t69 -75.5t98 -28q65 0 111.5 34.5
t56.5 93.5h-216v144h378q6 -33 6 -64z" />
    <glyph glyph-name="H" unicode="H" horiz-adv-x="704" 
d="M640 672v-672h-160v264h-256v-264h-160v672h160v-264h256v264h160z" />
    <glyph glyph-name="I" unicode="I" horiz-adv-x="288" 
d="M64 0v672h160v-672h-160z" />
    <glyph glyph-name="J" unicode="J" horiz-adv-x="496" 
d="M448 672v-416q0 -134 -69 -203t-188 -69q-46 0 -90.5 17.5t-68.5 44.5l72 120q14 -17 36 -27.5t45 -10.5q44 0 73.5 31t29.5 91v422h160z" />
    <glyph glyph-name="K" unicode="K" horiz-adv-x="656" 
d="M640 0h-192l-224 288v-288h-160v672h160v-256l208 256h192l-256 -320z" />
    <glyph glyph-name="L" unicode="L" horiz-adv-x="512" 
d="M480 144v-144h-416v672h160v-528h256z" />
    <glyph glyph-name="M" unicode="M" horiz-adv-x="864" 
d="M832 0h-160l-48 384l-144 -384h-96l-144 384l-48 -384h-160l80 672h160l160 -400l160 400h160z" />
    <glyph glyph-name="N" unicode="N" horiz-adv-x="752" 
d="M688 672v-672h-160l-304 416v-416h-160v672h160l304 -416v416h160z" />
    <glyph glyph-name="O" unicode="O" horiz-adv-x="784" 
d="M572.5 640.5q82.5 -47.5 131 -128.5t48.5 -176t-48.5 -176t-131 -128.5t-180.5 -47.5t-180.5 47.5t-131 128.5t-48.5 176t48.5 176t131 128.5t180.5 47.5t180.5 -47.5zM492 156q46 28 73 75.5t27 104.5t-27 104.5t-73 75.5t-100 28t-100 -28t-73 -75.5t-27 -104.5
t27 -104.5t73 -75.5t100 -28t100 28z" />
    <glyph glyph-name="P" unicode="P" horiz-adv-x="624" 
d="M527.5 611q64.5 -61 64.5 -163q0 -62 -27 -115t-77.5 -85t-119.5 -32h-144v-216h-160v672h272q127 0 191.5 -61zM404 382.5q28 22.5 28 61.5q0 43 -27 63.5t-70 20.5h-111v-168h111q41 0 69 22.5z" />
    <glyph glyph-name="Q" unicode="Q" horiz-adv-x="784" 
d="M592 0l-23 30q-82 -46 -177 -46q-98 0 -180.5 47.5t-131 128.5t-48.5 176t48.5 176t131 128.5t180.5 47.5t180.5 -47.5t131 -128.5t48.5 -176q0 -63 -21.5 -120t-61.5 -104l99 -112h-176zM478 148l-94 124h144l36 -41q28 48 28 105t-27 104.5t-73 75.5t-100 28t-100 -28
t-73 -75.5t-27 -104.5t27 -104.5t73 -75.5t100 -28q46 0 86 20z" />
    <glyph glyph-name="R" unicode="R" horiz-adv-x="656" 
d="M440 0l-150 216h-66v-216h-160v672h272q127 0 191.5 -61t64.5 -163q0 -73 -36.5 -132t-101.5 -85l170 -231h-184zM224 360h111q41 0 69 22.5t28 61.5q0 43 -27 63.5t-70 20.5h-111v-168z" />
    <glyph glyph-name="S" unicode="S" horiz-adv-x="624" 
d="M467.5 380q57.5 -24 91 -66.5t33.5 -111.5q0 -63 -32.5 -112.5t-95.5 -77.5t-152 -28q-76 0 -138.5 25t-102 54t-39.5 33l73 128q51 -51 105 -73.5t102 -22.5q120 0 120 64q0 25 -24 40.5t-88 26.5q-136 23 -200 74t-64 137q0 60 32 109.5t92.5 79t141.5 29.5
q46 0 116.5 -17t127.5 -69l-70 -126q0 2 -23.5 20t-62.5 33t-90 15q-44 0 -74 -15t-30 -42q0 -24 22 -37.5t82 -26.5q90 -19 147.5 -43z" />
    <glyph glyph-name="T" unicode="T" horiz-adv-x="576" 
d="M544 672v-144h-176v-528h-160v528h-176v144h512z" />
    <glyph glyph-name="U" unicode="U" horiz-adv-x="672" 
d="M624 672v-384q0 -89 -34.5 -158t-99.5 -107.5t-154 -38.5q-91 0 -156 38.5t-98.5 107.5t-33.5 158v384h160v-400q0 -67 34 -105.5t94 -38.5q57 0 92.5 39t35.5 105v400h160z" />
    <glyph glyph-name="V" unicode="V" horiz-adv-x="672" 
d="M0 672h176l160 -416l160 416h176l-272 -672h-128z" />
    <glyph glyph-name="W" unicode="W" horiz-adv-x="1024" 
d="M704 254l136 418h176l-244 -672h-144l-116 370l-116 -370h-144l-244 672h176l136 -418l120 418h144z" />
    <glyph glyph-name="X" unicode="X" horiz-adv-x="720" 
d="M704 0h-192l-152 231l-152 -231h-192l240 352l-224 320h185l143 -212l143 212h185l-224 -320z" />
    <glyph glyph-name="Y" unicode="Y" horiz-adv-x="672" 
d="M672 672l-256 -400v-272h-160v272l-256 400h188l148 -256l148 256h188z" />
    <glyph glyph-name="Z" unicode="Z" horiz-adv-x="624" 
d="M32 0l300 528h-284v144h544l-300 -528h284v-144h-544z" />
    <glyph glyph-name="bracketleft" unicode="[" horiz-adv-x="352" 
d="M208 -64h80v-144h-224v1040h224v-144h-80v-752z" />
    <glyph glyph-name="backslash" unicode="\" horiz-adv-x="528" 
d="M48 752h112l320 -832h-112z" />
    <glyph glyph-name="bracketright" unicode="]" horiz-adv-x="352" 
d="M64 688v144h224v-1040h-224v144h80v752h-80z" />
    <glyph glyph-name="asciicircum" unicode="^" horiz-adv-x="544" 
d="M224 704h96l176 -256h-112l-112 164l-112 -164h-112z" />
    <glyph glyph-name="underscore" unicode="_" horiz-adv-x="576" 
d="M32 -144v112h512v-112h-512z" />
    <glyph glyph-name="grave" unicode="`" horiz-adv-x="800" 
d="M400 736l-144 144h160l80 -144h-96z" />
    <glyph glyph-name="a" unicode="a" horiz-adv-x="640" 
d="M576 496v-496h-160v42q-61 -58 -144 -58q-65 0 -120.5 35.5t-87.5 96t-32 132.5t32 132.5t87.5 96t120.5 35.5q83 0 144 -58v42h160zM383 163q33 35 33 85t-33 85t-79 35t-79 -35t-33 -85t33 -85t79 -35t79 35z" />
    <glyph glyph-name="b" unicode="b" horiz-adv-x="640" 
d="M488.5 476.5q55.5 -35.5 87.5 -96t32 -132.5t-32 -132.5t-87.5 -96t-120.5 -35.5q-83 0 -144 58v-42h-160v704h160v-250q61 58 144 58q65 0 120.5 -35.5zM415 163q33 35 33 85t-33 85t-79 35t-79 -35t-33 -85t33 -85t79 -35t79 35z" />
    <glyph glyph-name="c" unicode="c" horiz-adv-x="528" 
d="M496 45q-32 -31 -83.5 -46t-104.5 -15q-85 0 -147.5 35t-95.5 95t-33 134q0 73 33.5 133.5t96 95.5t146.5 35q53 0 103.5 -15t84.5 -46l-58 -129q-25 22 -56 34t-64 12q-52 0 -89 -35t-37 -85t36.5 -85t89.5 -35q33 0 64 12t56 33z" />
    <glyph glyph-name="d" unicode="d" horiz-adv-x="640" 
d="M416 454v250h160v-704h-160v42q-61 -58 -144 -58q-65 0 -120.5 35.5t-87.5 96t-32 132.5t32 132.5t87.5 96t120.5 35.5q83 0 144 -58zM383 163q33 35 33 85t-33 85t-79 35t-79 -35t-33 -85t33 -85t79 -35t79 35z" />
    <glyph glyph-name="e" unicode="e" horiz-adv-x="576" 
d="M542 208h-342q10 -36 42 -58t81 -22q31 0 71 8t74 22l44 -127q0 -2 -26.5 -14t-69 -22.5t-97.5 -10.5q-96 0 -160.5 35t-95.5 94.5t-31 134.5t30 134.5t89.5 94.5t144.5 35q118 0 183 -69.5t65 -194.5q0 -14 -2 -40zM376 304q0 29 -23.5 54.5t-64.5 25.5
q-24 0 -44.5 -12.5t-32 -31.5t-11.5 -36h176z" />
    <glyph glyph-name="f" unicode="f" horiz-adv-x="416" 
d="M96 496q1 103 33 163.5t127 60.5q38 0 62 -4t50 -12v-128q-28 6 -49 6q-30 0 -43.5 -11.5t-16.5 -28t-3 -46.5h112v-144h-112v-352h-160v352h-64v144h64z" />
    <glyph glyph-name="g" unicode="g" horiz-adv-x="640" 
d="M576 496v-448q0 -154 -77.5 -237t-210.5 -83q-62 0 -115.5 18t-89 39t-35.5 23l60 128q46 -32 84.5 -48t86.5 -16q63 0 100 41t37 108v21q-61 -58 -144 -58q-65 0 -120.5 35.5t-87.5 96t-32 132.5t32 132.5t87.5 96t120.5 35.5q83 0 144 -58v42h160zM383 163q33 35 33 85
t-33 85t-79 35t-79 -35t-33 -85t33 -85t79 -35t79 35z" />
    <glyph glyph-name="h" unicode="h" 
d="M464 486.5q44 -25.5 70 -76t26 -122.5v-288h-160v272q0 54 -23.5 75t-56.5 21q-34 0 -65 -26t-31 -86v-256h-160v704h160v-256q26 30 63.5 47t80.5 17q52 0 96 -25.5z" />
    <glyph glyph-name="i" unicode="i" horiz-adv-x="288" 
d="M76 588q-28 28 -28 68t28 68t68 28t68 -28t28 -68t-28 -68t-68 -28t-68 28zM64 496h160v-496h-160v496z" />
    <glyph glyph-name="j" unicode="j" horiz-adv-x="288" 
d="M76 588q-28 28 -28 68t28 68t68 28t68 -28t28 -68t-28 -68t-68 -28t-68 28zM64 496h160v-480q0 -163 -64 -225.5t-176 -62.5l-32 144q49 1 80.5 32t31.5 96v496z" />
    <glyph glyph-name="k" unicode="k" horiz-adv-x="592" 
d="M592 0h-192l-176 196v-196h-160v704h160v-396l160 188h192l-208 -240z" />
    <glyph glyph-name="l" unicode="l" horiz-adv-x="288" 
d="M224 704v-704h-160v704h160z" />
    <glyph glyph-name="m" unicode="m" horiz-adv-x="880" 
d="M736 486.5q44 -25.5 70 -76t26 -122.5v-288h-160v272q0 55 -17 75.5t-47 20.5q-31 0 -55.5 -25.5t-24.5 -86.5v-256h-160v272q0 55 -17 75.5t-47 20.5q-31 0 -55.5 -25.5t-24.5 -86.5v-256h-160v496h160v-48q27 32 57 48t71 16q42 0 76 -16.5t57 -48.5q30 34 71.5 49.5
t83.5 15.5q52 0 96 -25.5z" />
    <glyph glyph-name="n" unicode="n" 
d="M464 486.5q44 -25.5 70 -76t26 -122.5v-288h-160v272q0 54 -23.5 75t-56.5 21q-34 0 -65 -26t-31 -86v-256h-160v496h160v-48q26 30 63.5 47t80.5 17q52 0 96 -25.5z" />
    <glyph glyph-name="o" unicode="o" 
d="M444 476.5q62 -35.5 97 -95.5t35 -133t-34.5 -133.5t-96.5 -95.5t-141 -35q-82 0 -144 35t-95 95.5t-33 133.5q0 74 33 134t94.5 95t144.5 35q78 0 140 -35.5zM383 163q33 35 33 85t-33 85t-79 35t-79 -35t-33 -85t33 -85t79 -35t79 35z" />
    <glyph glyph-name="p" unicode="p" horiz-adv-x="640" 
d="M488.5 476.5q55.5 -35.5 87.5 -96t32 -132.5t-32 -132.5t-87.5 -96t-120.5 -35.5q-83 0 -144 58v-298h-160v752h160v-42q61 58 144 58q65 0 120.5 -35.5zM415 163q33 35 33 85t-33 85t-79 35t-79 -35t-33 -85t33 -85t79 -35t79 35z" />
    <glyph glyph-name="q" unicode="q" horiz-adv-x="640" 
d="M416 454v42h160v-752h-160v298q-61 -58 -144 -58q-65 0 -120.5 35.5t-87.5 96t-32 132.5t32 132.5t87.5 96t120.5 35.5q83 0 144 -58zM383 163q33 35 33 85t-33 85t-79 35t-79 -35t-33 -85t33 -85t79 -35t79 35z" />
    <glyph glyph-name="r" unicode="r" horiz-adv-x="448" 
d="M297.5 477q49.5 30 118.5 35v-176q-20 7 -45 7q-23 0 -51 -7q-38 -10 -67 -49t-29 -94v-193h-160v496h160v-105q24 56 73.5 86z" />
    <glyph glyph-name="s" unicode="s" horiz-adv-x="544" 
d="M461 273q51 -39 51 -113q0 -80 -63.5 -128t-190.5 -48q-63 0 -113.5 14t-81.5 30t-31 18l43 130q27 -19 62.5 -31t62.5 -17t35 -6q32 -2 46 -2q71 0 71 25q0 11 -9.5 17t-29 9.5t-66.5 8.5q-116 15 -157.5 61.5t-41.5 102.5q0 77 58 122.5t177 45.5q9 0 40.5 -2.5
t74 -11.5t75.5 -27l-37 -129q-6 3 -28 12t-55.5 17t-66.5 8q-38 0 -58 -4t-20 -17q0 -14 17 -20t37.5 -9t27.5 -4q120 -13 171 -52z" />
    <glyph glyph-name="t" unicode="t" horiz-adv-x="400" 
d="M96 352h-64v144h64v176h160v-176h96v-144h-96v-144q0 -48 10 -66.5t42 -18.5q14 0 44 5v-128q-47 -16 -112 -16q-73 0 -108.5 44.5t-35.5 112.5v211z" />
    <glyph glyph-name="u" unicode="u" 
d="M144 9.5q-44 25.5 -70 76t-26 122.5v288h160v-272q0 -54 23.5 -75t56.5 -21q34 0 65 26t31 86v256h160v-496h-160v48q-26 -30 -63.5 -47t-80.5 -17q-52 0 -96 25.5z" />
    <glyph glyph-name="v" unicode="v" horiz-adv-x="544" 
d="M0 496h176l96 -272l96 272h176l-208 -496h-128z" />
    <glyph glyph-name="w" unicode="w" horiz-adv-x="784" 
d="M776 496l-168 -496h-128l-88 266l-88 -266h-128l-168 496h168l72 -282l80 282h128l80 -282l72 282h168z" />
    <glyph glyph-name="x" unicode="x" 
d="M592 0h-192l-96 140l-96 -140h-192l192 264l-176 232h192l80 -124l80 124h192l-176 -232z" />
    <glyph glyph-name="y" unicode="y" horiz-adv-x="544" 
d="M544 496l-304 -752h-176l129 292l-193 460h176l96 -272l96 272h176z" />
    <glyph glyph-name="z" unicode="z" horiz-adv-x="528" 
d="M32 0l208 352h-192v144h448l-208 -352h192v-144h-448z" />
    <glyph glyph-name="braceleft" unicode="{" horiz-adv-x="416" 
d="M308 -90q20 -29 60 -38l-80 -96q-75 25 -109.5 70.5t-34.5 111.5v234q0 27 -15.5 50.5t-38 40t-42.5 21.5q20 5 42.5 21.5t38 40t15.5 50.5v234q0 66 34.5 111.5t109.5 70.5l80 -96q-40 -9 -60 -38t-20 -68v-180q0 -56 -19.5 -93.5t-55.5 -52.5q36 -15 55.5 -52.5
t19.5 -93.5v-180q0 -39 20 -68z" />
    <glyph glyph-name="bar" unicode="|" horiz-adv-x="224" 
d="M64 -256v1024h96v-1024h-96z" />
    <glyph glyph-name="braceright" unicode="}" horiz-adv-x="416" 
d="M128 158q0 56 19.5 93.5t55.5 52.5q-36 15 -55.5 52.5t-19.5 93.5v180q0 39 -20 68t-60 38l80 96q75 -25 109.5 -70.5t34.5 -111.5v-234q0 -27 15.5 -50.5t38 -40t42.5 -21.5q-20 -5 -42.5 -21.5t-38 -40t-15.5 -50.5v-234q0 -66 -34.5 -111.5t-109.5 -70.5l-80 96
q40 9 60 38t20 68v180z" />
    <glyph glyph-name="asciitilde" unicode="~" horiz-adv-x="560" 
d="M512 320q-29 -54 -62.5 -75t-81.5 -21q-22 0 -47 7t-45 14.5t-25 9.5q-37 14 -60 14q-20 0 -34 -10.5t-26 -34.5l-83 32q29 54 62.5 75t81.5 21q21 0 45 -7t44.5 -15t27.5 -10q36 -14 59 -14q20 0 34.5 11t26.5 35z" />
    <glyph glyph-name="exclamdown" unicode="&#xa1;" horiz-adv-x="304" 
d="M214.5 486.5q25.5 -25.5 25.5 -62.5t-25.5 -62.5t-62.5 -25.5t-62.5 25.5t-25.5 62.5t25.5 62.5t62.5 25.5t62.5 -25.5zM200 288l32 -464h-160l32 464h96z" />
    <glyph glyph-name="cent" unicode="&#xa2;" horiz-adv-x="528" 
d="M496 45q-28 -27 -70.5 -42t-89.5 -18v-65h-48v65q-79 4 -137 39.5t-88.5 94t-30.5 129.5q0 70 31 128.5t89 94.5t136 40v65h48v-65q46 -3 88.5 -18t71.5 -42l-58 -129q-25 22 -56 34t-64 12q-52 0 -89 -35t-37 -85t36.5 -85t89.5 -35q33 0 64 12t56 33z" />
    <glyph glyph-name="sterling" unicode="&#xa3;" horiz-adv-x="624" 
d="M592 98q-31 -61 -73.5 -87.5t-89.5 -26.5q-59 0 -117 23q-59 23 -101 23q-49 0 -69 -30l-110 112q12 30 49 56q24 17 34 50t9 70h-92v96h65q-17 54 -17 112q0 53 32.5 97t90.5 69.5t133 25.5q67 0 120 -18t104 -62l-69 -128q-32 36 -68.5 50t-68.5 14q-52 0 -83 -19.5
t-31 -61.5q0 -28 18 -79h142v-96h-129q2 -31 -7 -72.5t-21 -54.5q31 -15 66 -24t68 -9q43 0 75 15.5t44 48.5z" />
    <glyph glyph-name="currency" unicode="&#xa4;" horiz-adv-x="526" 
d="M127 234q-25 39 -25 86t25 86l-79 82l49 47l78 -81q42 26 88 26q48 0 88 -27l78 82l49 -47l-81 -82q25 -39 25 -86t-25 -86l81 -80l-47 -49l-82 80q-39 -25 -86 -25t-88 25l-80 -80l-47 48zM307 275q19 19 19 45t-19 45t-45 19t-45 -19t-19 -45t19 -45t45 -19t45 19z" />
    <glyph glyph-name="yen" unicode="&#xa5;" horiz-adv-x="736" 
d="M448 272h96v-48h-96v-64h96v-48h-96v-112h-160v112h-96v48h96v64h-96v48h96l-256 400h188l148 -256l148 256h188z" />
    <glyph glyph-name="brokenbar" unicode="&#xa6;" horiz-adv-x="224" 
d="M64 416v352h96v-352h-96zM64 -256v352h96v-352h-96z" />
    <glyph glyph-name="section" unicode="&#xa7;" horiz-adv-x="656" 
d="M562 168q46 -49 46 -126q0 -63 -32.5 -112.5t-95.5 -77.5t-152 -28q-76 0 -138.5 25t-102 54t-39.5 33l73 128q51 -51 105 -73.5t102 -22.5q120 0 120 64q0 25 -24 40.5t-88 26.5q-136 23 -200 74t-64 137q0 75 49 132q-49 48 -49 124q0 60 32 109.5t92.5 79t141.5 29.5
q46 0 116.5 -17t127.5 -69l-70 -126q0 2 -23.5 20t-62.5 33t-90 15q-44 0 -74 -15t-30 -42q0 -24 22 -37.5t82 -26.5q90 -19 147.5 -43t91 -66.5t33.5 -111.5q0 -75 -46 -130zM265 370q-33 -15 -33 -43q0 -24 22 -37.5t82 -26.5q48 -10 85 -21q27 16 27 46q0 25 -24 40.5
t-88 26.5q-37 6 -71 15z" />
    <glyph glyph-name="dieresis" unicode="&#xa8;" horiz-adv-x="800" 
d="M245 757q-21 21 -21 51t21 51t51 21t51 -21t21 -51t-21 -51t-51 -21t-51 21zM453 757q-21 21 -21 51t21 51t51 21t51 -21t21 -51t-21 -51t-51 -21t-51 21z" />
    <glyph glyph-name="copyright" unicode="&#xa9;" horiz-adv-x="736" 
d="M206 163q-73 43 -115.5 116.5t-42.5 160.5q0 89 42 162.5t115.5 115.5t162.5 42t162.5 -42t115.5 -115.5t42 -162.5t-42 -162.5t-115.5 -115.5t-162.5 -42t-162 43zM493 225q57 33 90 90t33 125t-33 125t-90 90t-125 33t-125 -33t-90 -90t-33 -125t33 -125t90 -90
t125 -33t125 33zM420 357q19 9 32 25l27 -62q-19 -17 -46 -26.5t-53 -9.5q-44 0 -81.5 21t-59.5 57t-22 78t22 78t59.5 57t81.5 21q26 0 53 -9t46 -26l-27 -63q-13 16 -32 25t-40 9q-38 0 -65 -27t-27 -65t27 -65t65 -27q21 0 40 9z" />
    <glyph glyph-name="ordfeminine" unicode="&#xaa;" horiz-adv-x="368" 
d="M320 672v-248h-80v21q-31 -29 -72 -29q-32 0 -60 17.5t-44 48t-16 66.5t16 66.5t44 48t60 17.5q41 0 72 -29v21h80zM223.5 505.5q16.5 17.5 16.5 42.5t-16.5 42.5t-39.5 17.5t-39.5 -17.5t-16.5 -42.5t16.5 -42.5t39.5 -17.5t39.5 17.5z" />
    <glyph glyph-name="guillemotleft" unicode="&#xab;" horiz-adv-x="656" 
d="M176 272l160 -224h-128l-160 224l160 224h128zM416 272l160 -224h-128l-160 224l160 224h128z" />
    <glyph glyph-name="logicalnot" unicode="&#xac;" horiz-adv-x="640" 
d="M592 112h-96v144h-448v96h544v-240z" />
    <glyph glyph-name="registered" unicode="&#xae;" horiz-adv-x="736" 
d="M206 163q-73 43 -115.5 116.5t-42.5 160.5q0 89 42 162.5t115.5 115.5t162.5 42t162.5 -42t115.5 -115.5t42 -162.5t-42 -162.5t-115.5 -115.5t-162.5 -42t-162 43zM493 225q57 33 90 90t33 125t-33 125t-90 90t-125 33t-125 -33t-90 -90t-33 -125t33 -125t90 -90
t125 -33t125 33zM424 290l-67 96h-30v-96h-71v300h121q57 0 86 -27t29 -73q0 -32 -16.5 -58.5t-45.5 -38.5l76 -103h-82zM327 451h50q18 0 30.5 10t12.5 27q0 19 -12 28.5t-31 9.5h-50v-75z" />
    <glyph glyph-name="macron" unicode="&#xaf;" horiz-adv-x="800" 
d="M248 752v80h304v-80h-304z" />
    <glyph glyph-name="degree" unicode="&#xb0;" horiz-adv-x="416" 
d="M128 389.5q-37 21.5 -58.5 58t-21.5 80.5q0 43 21.5 80t58.5 58.5t81 21.5q43 0 79.5 -21.5t58 -58.5t21.5 -80q0 -44 -21.5 -80.5t-58 -58t-79.5 -21.5q-44 0 -81 21.5zM253 483q19 19 19 45t-19 45t-45 19t-45 -19t-19 -45t19 -45t45 -19t45 19z" />
    <glyph glyph-name="plusminus" unicode="&#xb1;" horiz-adv-x="512" 
d="M464 376h-160v-160h-96v160h-160v96h160v160h96v-160h160v-96zM464 128v-96h-416v96h416z" />
    <glyph glyph-name="uni00B2" unicode="&#xb2;" horiz-adv-x="376" 
d="M92 726q33 34 89 34q60 0 95.5 -31.5t35.5 -88.5q0 -31 -23.5 -67t-72.5 -85h112v-72h-280l132 136q52 57 52 88q0 23 -13.5 35.5t-34.5 12.5q-20 0 -34.5 -14t-15.5 -42l-78 8q3 52 36 86z" />
    <glyph glyph-name="uni00B3" unicode="&#xb3;" horiz-adv-x="368" 
d="M307 563.5q13 -19.5 13 -43.5q0 -44 -33 -78t-103 -34q-60 0 -98 30.5t-38 81.5l80 8q5 -24 19 -36t41 -12q22 0 37 10t15 29t-23 27t-57 8v64q0 -1 20 1.5t36 11t16 25.5q0 15 -12.5 23.5t-33.5 8.5q-46 0 -52 -48l-78 8q5 51 39 81.5t89 30.5q62 0 95 -29t33 -67
q0 -22 -11 -41.5t-29 -28.5q22 -11 35 -30.5z" />
    <glyph glyph-name="acute" unicode="&#xb4;" horiz-adv-x="800" 
d="M384 880h160l-144 -144h-96z" />
    <glyph glyph-name="paragraph" unicode="&#xb6;" horiz-adv-x="736" 
d="M592 560v-788h-112v788h-144v-788h-112v533q-50 0 -90 24.5t-63 66.5t-23 93q0 50 23 92t63 66.5t90 24.5h464v-112h-96z" />
    <glyph glyph-name="periodcentered" unicode="&#xb7;" horiz-adv-x="272" 
d="M73.5 273.5q-25.5 25.5 -25.5 62.5t25.5 62.5t62.5 25.5t62.5 -25.5t25.5 -62.5t-25.5 -62.5t-62.5 -25.5t-62.5 25.5z" />
    <glyph glyph-name="cedilla" unicode="&#xb8;" horiz-adv-x="800" 
d="M465 0l-48 -48q5 1 15 1q48 0 82 -31.5t34 -81.5q0 -40 -21 -73t-57.5 -52t-81.5 -19q-47 0 -79 17t-49 46l58 65q7 -20 26 -34t44 -14q39 0 60.5 19.5t21.5 44.5q0 26 -19.5 41t-47.5 15q-37 0 -55 -14l-40 54l64 64h93z" />
    <glyph glyph-name="uni00B9" unicode="&#xb9;" horiz-adv-x="360" 
d="M248 768v-344h-80v248l-72 -16v72z" />
    <glyph glyph-name="ordmasculine" unicode="&#xba;" horiz-adv-x="368" 
d="M281.5 642q38.5 -38 38.5 -94t-38 -94t-98 -38q-61 0 -98.5 38t-37.5 94t37 94t99 38q59 0 97.5 -38zM223.5 505.5q16.5 17.5 16.5 42.5t-16.5 42.5t-39.5 17.5t-39.5 -17.5t-16.5 -42.5t16.5 -42.5t39.5 -17.5t39.5 17.5z" />
    <glyph glyph-name="guillemotright" unicode="&#xbb;" horiz-adv-x="656" 
d="M208 496l160 -224l-160 -224h-128l160 224l-160 224h128zM448 496l160 -224l-160 -224h-128l160 224l-160 224h128z" />
    <glyph glyph-name="onequarter" unicode="&#xbc;" horiz-adv-x="940" 
d="M248 680v-344h-80v248l-72 -16v72zM184 0l468 672h96l-468 -672h-96zM892 136v-72h-40v-64h-80v64h-168v64l148 208h100v-200h40zM772 255l-77 -119h77v119z" />
    <glyph glyph-name="onehalf" unicode="&#xbd;" horiz-adv-x="948" 
d="M248 680v-344h-80v248l-72 -16v72zM184 0l468 672h96l-468 -672h-96zM664 310q33 34 89 34q60 0 95.5 -31.5t35.5 -88.5q0 -31 -23.5 -67t-72.5 -85h112v-72h-280l132 136q52 57 52 88q0 23 -13.5 35.5t-34.5 12.5q-20 0 -34.5 -14t-15.5 -42l-78 8q3 52 36 86z" />
    <glyph glyph-name="threequarters" unicode="&#xbe;" horiz-adv-x="948" 
d="M307 483.5q13 -19.5 13 -43.5q0 -44 -33 -78t-103 -34q-60 0 -98 30.5t-38 81.5l80 8q5 -24 19 -36t41 -12q22 0 37 10t15 29t-23 27t-57 8v64q0 -1 20 1.5t36 11t16 25.5q0 15 -12.5 23.5t-33.5 8.5q-46 0 -52 -48l-78 8q5 51 39 81.5t89 30.5q62 0 95 -29t33 -67
q0 -22 -11 -41.5t-29 -28.5q22 -11 35 -30.5zM192 0l468 672h96l-468 -672h-96zM900 136v-72h-40v-64h-80v64h-168v64l148 208h100v-200h40zM780 255l-77 -119h77v119z" />
    <glyph glyph-name="questiondown" unicode="&#xbf;" horiz-adv-x="560" 
d="M225.5 361.5q-25.5 25.5 -25.5 62.5t25.5 62.5t62.5 25.5t62.5 -25.5t25.5 -62.5t-25.5 -62.5t-62.5 -25.5t-62.5 25.5zM157.5 -165q-54.5 27 -82 71t-27.5 94q0 54 25 97t79 85q32 24 51.5 52t20.5 70h128l1 -21q0 -86 -49 -136l-31 -29q-34 -32 -49.5 -53.5
t-15.5 -50.5q0 -32 24.5 -47.5t62.5 -15.5q88 0 153 65l64 -112q-36 -39 -94 -67.5t-130 -28.5q-76 0 -130.5 27z" />
    <glyph glyph-name="Agrave" unicode="&#xc0;" horiz-adv-x="704" 
d="M336 736l-144 144h160l80 -144h-96zM486 112h-268l-42 -112h-176l278 672h148l278 -672h-176zM431 256l-79 208l-79 -208h158z" />
    <glyph glyph-name="Aacute" unicode="&#xc1;" horiz-adv-x="704" 
d="M352 880h160l-144 -144h-96zM486 112h-268l-42 -112h-176l278 672h148l278 -672h-176zM431 256l-79 208l-79 -208h158z" />
    <glyph glyph-name="Acircumflex" unicode="&#xc2;" horiz-adv-x="704" 
d="M352 800l-48 -64h-128l144 144h64l144 -144h-128zM486 112h-268l-42 -112h-176l278 672h148l278 -672h-176zM431 256l-79 208l-79 -208h158z" />
    <glyph glyph-name="Atilde" unicode="&#xc3;" horiz-adv-x="704" 
d="M552 822q-23 -47 -53 -66.5t-66 -19.5q-38 0 -81 18q-44 18 -67 18q-17 0 -29.5 -8.5t-22.5 -27.5l-81 26q24 47 53.5 66.5t65.5 19.5q34 0 81 -18q47 -19 67 -19q17 0 29.5 9t22.5 28zM486 112h-268l-42 -112h-176l278 672h148l278 -672h-176zM431 256l-79 208l-79 -208
h158z" />
    <glyph glyph-name="Adieresis" unicode="&#xc4;" horiz-adv-x="704" 
d="M197 757q-21 21 -21 51t21 51t51 21t51 -21t21 -51t-21 -51t-51 -21t-51 21zM405 757q-21 21 -21 51t21 51t51 21t51 -21t21 -51t-21 -51t-51 -21t-51 21zM486 112h-268l-42 -112h-176l278 672h148l278 -672h-176zM431 256l-79 208l-79 -208h158z" />
    <glyph glyph-name="Aring" unicode="&#xc5;" horiz-adv-x="704" 
d="M437 909q35 -35 35 -85t-35 -85t-85 -35t-85 35t-35 85t35 85t85 35t85 -35zM387 789q15 15 15 35t-15 35t-35 15t-35 -15t-15 -35t15 -35t35 -15t35 15zM486 112h-268l-42 -112h-176l278 672h148l278 -672h-176zM431 256l-79 208l-79 -208h158z" />
    <glyph glyph-name="AE" unicode="&#xc6;" horiz-adv-x="864" 
d="M544 528v-120h224v-144h-224v-120h272v-144h-432v112h-158l-50 -112h-176l310 672h506v-144h-272zM384 256v208l-93 -208h93z" />
    <glyph glyph-name="Ccedilla" unicode="&#xc7;" horiz-adv-x="656" 
d="M543.5 14q-46.5 -20 -96.5 -27l-34 -35q5 1 15 1q48 0 82 -31.5t34 -81.5q0 -40 -21 -73t-57.5 -52t-81.5 -19q-47 0 -79 17t-49 46l58 65q7 -20 26 -34t44 -14q39 0 60.5 19.5t21.5 44.5q0 26 -19.5 41t-47.5 15q-37 0 -55 -14l-40 54l51 51q-90 10 -164 59.5
t-116.5 125.5t-42.5 164q0 95 49.5 176t134 128.5t184.5 47.5q60 0 121 -21t103 -59l-62 -142q-29 37 -71 57.5t-91 20.5q-57 0 -104.5 -28t-75.5 -75.5t-28 -104.5t28 -104.5t75.5 -75.5t104.5 -28q48 0 90.5 21t71.5 57l62 -141q-34 -31 -80.5 -51z" />
    <glyph glyph-name="Egrave" unicode="&#xc8;" horiz-adv-x="544" 
d="M280 736l-144 144h160l80 -144h-96zM224 528v-120h224v-144h-224v-120h272v-144h-432v672h432v-144h-272z" />
    <glyph glyph-name="Eacute" unicode="&#xc9;" horiz-adv-x="544" 
d="M264 880h160l-144 -144h-96zM224 528v-120h224v-144h-224v-120h272v-144h-432v672h432v-144h-272z" />
    <glyph glyph-name="Ecircumflex" unicode="&#xca;" horiz-adv-x="544" 
d="M272 800l-48 -64h-128l144 144h64l144 -144h-128zM224 528v-120h224v-144h-224v-120h272v-144h-432v672h432v-144h-272z" />
    <glyph glyph-name="Edieresis" unicode="&#xcb;" horiz-adv-x="544" 
d="M117 757q-21 21 -21 51t21 51t51 21t51 -21t21 -51t-21 -51t-51 -21t-51 21zM325 757q-21 21 -21 51t21 51t51 21t51 -21t21 -51t-21 -51t-51 -21t-51 21zM224 528v-120h224v-144h-224v-120h272v-144h-432v672h432v-144h-272z" />
    <glyph glyph-name="Igrave" unicode="&#xcc;" horiz-adv-x="288" 
d="M128 736l-144 144h160l80 -144h-96zM64 672h160v-672h-160v672z" />
    <glyph glyph-name="Iacute" unicode="&#xcd;" horiz-adv-x="288" 
d="M144 880h160l-144 -144h-96zM64 0v672h160v-672h-160z" />
    <glyph glyph-name="Icircumflex" unicode="&#xce;" horiz-adv-x="288" 
d="M144 800l-48 -64h-128l144 144h64l144 -144h-128zM64 0v672h160v-672h-160z" />
    <glyph glyph-name="Idieresis" unicode="&#xcf;" horiz-adv-x="288" 
d="M-11 757q-21 21 -21 51t21 51t51 21t51 -21t21 -51t-21 -51t-51 -21t-51 21zM197 757q-21 21 -21 51t21 51t51 21t51 -21t21 -51t-21 -51t-51 -21t-51 21zM64 0v672h160v-672h-160z" />
    <glyph glyph-name="Eth" unicode="&#xd0;" horiz-adv-x="720" 
d="M526.5 627.5q79.5 -44.5 120.5 -120.5t41 -171q0 -94 -42 -170.5t-122 -121t-189 -44.5h-255v288h-64v96h64v288h255q112 0 191.5 -44.5zM435 170q42 26 67.5 70t25.5 96t-25.5 96t-67.5 70t-89 26h-106v-144h64v-96h-64v-144h106q47 0 89 26z" />
    <glyph glyph-name="Ntilde" unicode="&#xd1;" horiz-adv-x="752" 
d="M576 822q-23 -47 -53 -66.5t-66 -19.5q-38 0 -81 18q-44 18 -67 18q-17 0 -29.5 -8.5t-22.5 -27.5l-81 26q24 47 53.5 66.5t65.5 19.5q34 0 81 -18q47 -19 67 -19q17 0 29.5 9t22.5 28zM688 672v-672h-160l-304 416v-416h-160v672h160l304 -416v416h160z" />
    <glyph glyph-name="Ograve" unicode="&#xd2;" horiz-adv-x="784" 
d="M368 736l-144 144h160l80 -144h-96zM572.5 640.5q82.5 -47.5 131 -128.5t48.5 -176t-48.5 -176t-131 -128.5t-180.5 -47.5t-180.5 47.5t-131 128.5t-48.5 176t48.5 176t131 128.5t180.5 47.5t180.5 -47.5zM492 156q46 28 73 75.5t27 104.5t-27 104.5t-73 75.5t-100 28
t-100 -28t-73 -75.5t-27 -104.5t27 -104.5t73 -75.5t100 -28t100 28z" />
    <glyph glyph-name="Oacute" unicode="&#xd3;" horiz-adv-x="784" 
d="M400 880h160l-144 -144h-96zM572.5 640.5q82.5 -47.5 131 -128.5t48.5 -176t-48.5 -176t-131 -128.5t-180.5 -47.5t-180.5 47.5t-131 128.5t-48.5 176t48.5 176t131 128.5t180.5 47.5t180.5 -47.5zM492 156q46 28 73 75.5t27 104.5t-27 104.5t-73 75.5t-100 28t-100 -28
t-73 -75.5t-27 -104.5t27 -104.5t73 -75.5t100 -28t100 28z" />
    <glyph glyph-name="Ocircumflex" unicode="&#xd4;" horiz-adv-x="784" 
d="M392 800l-48 -64h-128l144 144h64l144 -144h-128zM572.5 640.5q82.5 -47.5 131 -128.5t48.5 -176t-48.5 -176t-131 -128.5t-180.5 -47.5t-180.5 47.5t-131 128.5t-48.5 176t48.5 176t131 128.5t180.5 47.5t180.5 -47.5zM492 156q46 28 73 75.5t27 104.5t-27 104.5
t-73 75.5t-100 28t-100 -28t-73 -75.5t-27 -104.5t27 -104.5t73 -75.5t100 -28t100 28z" />
    <glyph glyph-name="Otilde" unicode="&#xd5;" horiz-adv-x="784" 
d="M592 822q-23 -47 -53 -66.5t-66 -19.5q-38 0 -81 18q-44 18 -67 18q-17 0 -29.5 -8.5t-22.5 -27.5l-81 26q24 47 53.5 66.5t65.5 19.5q34 0 81 -18q47 -19 67 -19q17 0 29.5 9t22.5 28zM572.5 640.5q82.5 -47.5 131 -128.5t48.5 -176t-48.5 -176t-131 -128.5
t-180.5 -47.5t-180.5 47.5t-131 128.5t-48.5 176t48.5 176t131 128.5t180.5 47.5t180.5 -47.5zM492 156q46 28 73 75.5t27 104.5t-27 104.5t-73 75.5t-100 28t-100 -28t-73 -75.5t-27 -104.5t27 -104.5t73 -75.5t100 -28t100 28z" />
    <glyph glyph-name="Odieresis" unicode="&#xd6;" horiz-adv-x="784" 
d="M237 757q-21 21 -21 51t21 51t51 21t51 -21t21 -51t-21 -51t-51 -21t-51 21zM445 757q-21 21 -21 51t21 51t51 21t51 -21t21 -51t-21 -51t-51 -21t-51 21zM572.5 640.5q82.5 -47.5 131 -128.5t48.5 -176t-48.5 -176t-131 -128.5t-180.5 -47.5t-180.5 47.5t-131 128.5
t-48.5 176t48.5 176t131 128.5t180.5 47.5t180.5 -47.5zM492 156q46 28 73 75.5t27 104.5t-27 104.5t-73 75.5t-100 28t-100 -28t-73 -75.5t-27 -104.5t27 -104.5t73 -75.5t100 -28t100 28z" />
    <glyph glyph-name="multiply" unicode="&#xd7;" horiz-adv-x="478" 
d="M430 427l-123 -123l123 -123l-68 -68l-123 123l-123 -123l-68 68l123 123l-123 123l68 68l123 -123l123 123z" />
    <glyph glyph-name="Oslash" unicode="&#xd8;" horiz-adv-x="784" 
d="M724 472q28 -65 28 -136q0 -95 -48.5 -176t-131 -128.5t-180.5 -47.5q-113 0 -207 64l-41 -48h-80l74 87q-50 48 -78 113t-28 136q0 95 48.5 176t131 128.5t180.5 47.5q113 0 207 -64l41 48h80l-74 -87q50 -48 78 -113zM238 203l263 307q-48 34 -109 34q-54 0 -100 -28
t-73 -75.5t-27 -104.5q0 -76 46 -133zM492 156q46 28 73 75.5t27 104.5q0 76 -46 133l-263 -307q48 -34 109 -34q54 0 100 28z" />
    <glyph glyph-name="Ugrave" unicode="&#xd9;" horiz-adv-x="672" 
d="M320 736l-144 144h160l80 -144h-96zM624 672v-384q0 -89 -34.5 -158t-99.5 -107.5t-154 -38.5q-91 0 -156 38.5t-98.5 107.5t-33.5 158v384h160v-400q0 -67 34 -105.5t94 -38.5q57 0 92.5 39t35.5 105v400h160z" />
    <glyph glyph-name="Uacute" unicode="&#xda;" horiz-adv-x="672" 
d="M336 880h160l-144 -144h-96zM624 672v-384q0 -89 -34.5 -158t-99.5 -107.5t-154 -38.5q-91 0 -156 38.5t-98.5 107.5t-33.5 158v384h160v-400q0 -67 34 -105.5t94 -38.5q57 0 92.5 39t35.5 105v400h160z" />
    <glyph glyph-name="Ucircumflex" unicode="&#xdb;" horiz-adv-x="672" 
d="M336 800l-48 -64h-128l144 144h64l144 -144h-128zM624 672v-384q0 -89 -34.5 -158t-99.5 -107.5t-154 -38.5q-91 0 -156 38.5t-98.5 107.5t-33.5 158v384h160v-400q0 -67 34 -105.5t94 -38.5q57 0 92.5 39t35.5 105v400h160z" />
    <glyph glyph-name="Udieresis" unicode="&#xdc;" horiz-adv-x="672" 
d="M181 757q-21 21 -21 51t21 51t51 21t51 -21t21 -51t-21 -51t-51 -21t-51 21zM389 757q-21 21 -21 51t21 51t51 21t51 -21t21 -51t-21 -51t-51 -21t-51 21zM624 672v-384q0 -89 -34.5 -158t-99.5 -107.5t-154 -38.5q-91 0 -156 38.5t-98.5 107.5t-33.5 158v384h160v-400
q0 -67 34 -105.5t94 -38.5q57 0 92.5 39t35.5 105v400h160z" />
    <glyph glyph-name="Yacute" unicode="&#xdd;" horiz-adv-x="672" 
d="M336 880h160l-144 -144h-96zM672 672l-256 -400v-272h-160v272l-256 400h188l148 -256l148 256h188z" />
    <glyph glyph-name="Thorn" unicode="&#xde;" horiz-adv-x="624" 
d="M527.5 519q64.5 -61 64.5 -163q0 -62 -27 -115t-77.5 -85t-119.5 -32h-144v-124h-160v704h160v-124h112q127 0 191.5 -61zM404 290.5q28 22.5 28 61.5q0 43 -27 63.5t-70 20.5h-111v-168h111q41 0 69 22.5z" />
    <glyph glyph-name="germandbls" unicode="&#xdf;" 
d="M208 496q0 34 22.5 57t57.5 23q41 0 60.5 -22t19.5 -58q0 -35 -33 -57.5t-95 -22.5v-96q176 0 176 -96q0 -55 -35.5 -76.5t-84.5 -21.5q-19 0 -35.5 2.5t-20.5 3.5v-132q15 -7 40.5 -11.5t55.5 -4.5q77 0 131 32t81.5 84.5t27.5 112.5q0 35 -15.5 73t-45 65t-67.5 33
q31 10 55.5 49t24.5 79q0 90 -59.5 149t-179.5 59q-40 0 -93.5 -14.5t-100.5 -66t-47 -151.5v-488h160v496z" />
    <glyph glyph-name="agrave" unicode="&#xe0;" horiz-adv-x="640" 
d="M368 560l-144 144h160l80 -144h-96zM576 496v-496h-160v42q-61 -58 -144 -58q-65 0 -120.5 35.5t-87.5 96t-32 132.5t32 132.5t87.5 96t120.5 35.5q83 0 144 -58v42h160zM383 163q33 35 33 85t-33 85t-79 35t-79 -35t-33 -85t33 -85t79 -35t79 35z" />
    <glyph glyph-name="aacute" unicode="&#xe1;" horiz-adv-x="640" 
d="M352 704h160l-144 -144h-96zM576 496v-496h-160v42q-61 -58 -144 -58q-65 0 -120.5 35.5t-87.5 96t-32 132.5t32 132.5t87.5 96t120.5 35.5q83 0 144 -58v42h160zM383 163q33 35 33 85t-33 85t-79 35t-79 -35t-33 -85t33 -85t79 -35t79 35z" />
    <glyph glyph-name="acircumflex" unicode="&#xe2;" horiz-adv-x="640" 
d="M336 624l-48 -64h-128l144 144h64l144 -144h-128zM576 496v-496h-160v42q-61 -58 -144 -58q-65 0 -120.5 35.5t-87.5 96t-32 132.5t32 132.5t87.5 96t120.5 35.5q83 0 144 -58v42h160zM383 163q33 35 33 85t-33 85t-79 35t-79 -35t-33 -85t33 -85t79 -35t79 35z" />
    <glyph glyph-name="atilde" unicode="&#xe3;" horiz-adv-x="640" 
d="M536 646q-23 -47 -53 -66.5t-66 -19.5q-38 0 -81 18q-44 18 -67 18q-17 0 -29.5 -8.5t-22.5 -27.5l-81 26q24 47 53.5 66.5t65.5 19.5q34 0 81 -18q47 -19 67 -19q17 0 29.5 9t22.5 28zM576 496v-496h-160v42q-61 -58 -144 -58q-65 0 -120.5 35.5t-87.5 96t-32 132.5
t32 132.5t87.5 96t120.5 35.5q83 0 144 -58v42h160zM383 163q33 35 33 85t-33 85t-79 35t-79 -35t-33 -85t33 -85t79 -35t79 35z" />
    <glyph glyph-name="adieresis" unicode="&#xe4;" horiz-adv-x="640" 
d="M181 581q-21 21 -21 51t21 51t51 21t51 -21t21 -51t-21 -51t-51 -21t-51 21zM389 581q-21 21 -21 51t21 51t51 21t51 -21t21 -51t-21 -51t-51 -21t-51 21zM576 496v-496h-160v42q-61 -58 -144 -58q-65 0 -120.5 35.5t-87.5 96t-32 132.5t32 132.5t87.5 96t120.5 35.5
q83 0 144 -58v42h160zM383 163q33 35 33 85t-33 85t-79 35t-79 -35t-33 -85t33 -85t79 -35t79 35z" />
    <glyph glyph-name="aring" unicode="&#xe5;" horiz-adv-x="640" 
d="M429 733q35 -35 35 -85t-35 -85t-85 -35t-85 35t-35 85t35 85t85 35t85 -35zM379 613q15 15 15 35t-15 35t-35 15t-35 -15t-15 -35t15 -35t35 -15t35 15zM576 496v-496h-160v42q-61 -58 -144 -58q-65 0 -120.5 35.5t-87.5 96t-32 132.5t32 132.5t87.5 96t120.5 35.5
q83 0 144 -58v42h160zM383 163q33 35 33 85t-33 85t-79 35t-79 -35t-33 -85t33 -85t79 -35t79 35z" />
    <glyph glyph-name="ae" unicode="&#xe6;" horiz-adv-x="896" 
d="M862 208h-342q10 -36 42 -58t81 -22q31 0 71 8t74 22l44 -127q0 -2 -26.5 -14t-69 -22.5t-97.5 -10.5q-30 0 -54 3.5t-60 12.5h-157v33q-24 -22 -63 -35.5t-81 -13.5q-56 0 -100 22t-68 60t-24 86q0 38 16.5 75.5t75.5 65.5q49 23 127 23q59 0 117 -12q0 72 -97 72
q-9 0 -31 -2q-31 -3 -59.5 -11.5t-46 -16.5t-22.5 -10l-48 112q0 2 34 19t83.5 31t106.5 14q113 0 171 -44q60 44 157 44q118 0 183 -69.5t65 -194.5q0 -14 -2 -40zM696 304q0 30 -23 55t-65 25q-24 0 -44.5 -12.5t-32 -31.5t-11.5 -36h176zM368 224h-44q-66 0 -99 -18
t-33 -46q0 -29 25 -46.5t63 -17.5q35 0 61.5 18t26.5 46v64z" />
    <glyph glyph-name="ccedilla" unicode="&#xe7;" horiz-adv-x="528" 
d="M360 -12l-35 -36q5 1 15 1q48 0 82 -31.5t34 -81.5q0 -40 -21 -73t-57.5 -52t-81.5 -19q-47 0 -79 17t-49 46l58 65q7 -20 26 -34t44 -14q39 0 60.5 19.5t21.5 44.5q0 26 -19.5 41t-47.5 15q-37 0 -55 -14l-40 54l50 50q-72 9 -125 45.5t-81 93t-28 123.5
q0 73 33.5 133.5t96 95.5t146.5 35q53 0 103.5 -15t84.5 -46l-58 -129q-25 22 -56 34t-64 12q-52 0 -89 -35t-37 -85t36.5 -85t89.5 -35q33 0 64 12t56 33l58 -128q-46 -44 -136 -57z" />
    <glyph glyph-name="egrave" unicode="&#xe8;" horiz-adv-x="576" 
d="M288 560l-144 144h160l80 -144h-96zM542 208h-342q10 -36 42 -58t81 -22q31 0 71 8t74 22l44 -127q0 -2 -26.5 -14t-69 -22.5t-97.5 -10.5q-96 0 -160.5 35t-95.5 94.5t-31 134.5t30 134.5t89.5 94.5t144.5 35q118 0 183 -69.5t65 -194.5q0 -14 -2 -40zM376 304
q0 29 -23.5 54.5t-64.5 25.5q-24 0 -44.5 -12.5t-32 -31.5t-11.5 -36h176z" />
    <glyph glyph-name="eacute" unicode="&#xe9;" horiz-adv-x="576" 
d="M304 704h160l-144 -144h-96zM542 208h-342q10 -36 42 -58t81 -22q31 0 71 8t74 22l44 -127q0 -2 -26.5 -14t-69 -22.5t-97.5 -10.5q-96 0 -160.5 35t-95.5 94.5t-31 134.5t30 134.5t89.5 94.5t144.5 35q118 0 183 -69.5t65 -194.5q0 -14 -2 -40zM376 304q0 29 -23.5 54.5
t-64.5 25.5q-24 0 -44.5 -12.5t-32 -31.5t-11.5 -36h176z" />
    <glyph glyph-name="ecircumflex" unicode="&#xea;" horiz-adv-x="576" 
d="M288 624l-48 -64h-128l144 144h64l144 -144h-128zM542 208h-342q10 -36 42 -58t81 -22q31 0 71 8t74 22l44 -127q0 -2 -26.5 -14t-69 -22.5t-97.5 -10.5q-96 0 -160.5 35t-95.5 94.5t-31 134.5t30 134.5t89.5 94.5t144.5 35q118 0 183 -69.5t65 -194.5q0 -14 -2 -40z
M376 304q0 29 -23.5 54.5t-64.5 25.5q-24 0 -44.5 -12.5t-32 -31.5t-11.5 -36h176z" />
    <glyph glyph-name="edieresis" unicode="&#xeb;" horiz-adv-x="576" 
d="M132 581q-21 21 -21 51t21 51t51 21t51 -21t21 -51t-21 -51t-51 -21t-51 21zM340 581q-21 21 -21 51t21 51t51 21t51 -21t21 -51t-21 -51t-51 -21t-51 21zM542 208h-342q10 -36 42 -58t81 -22q31 0 71 8t74 22l44 -127q0 -2 -26.5 -14t-69 -22.5t-97.5 -10.5
q-96 0 -160.5 35t-95.5 94.5t-31 134.5t30 134.5t89.5 94.5t144.5 35q118 0 183 -69.5t65 -194.5q0 -14 -2 -40zM376 304q0 29 -23.5 54.5t-64.5 25.5q-24 0 -44.5 -12.5t-32 -31.5t-11.5 -36h176z" />
    <glyph glyph-name="igrave" unicode="&#xec;" horiz-adv-x="288" 
d="M128 560l-144 144h160l80 -144h-96zM64 496h160v-496h-160v496z" />
    <glyph glyph-name="iacute" unicode="&#xed;" horiz-adv-x="288" 
d="M144 704h160l-144 -144h-96zM64 496h160v-496h-160v496z" />
    <glyph glyph-name="icircumflex" unicode="&#xee;" horiz-adv-x="288" 
d="M144 624l-48 -64h-128l144 144h64l144 -144h-128zM64 496h160v-496h-160v496z" />
    <glyph glyph-name="idieresis" unicode="&#xef;" horiz-adv-x="288" 
d="M-11 581q-21 21 -21 51t21 51t51 21t51 -21t21 -51t-21 -51t-51 -21t-51 21zM197 581q-21 21 -21 51t21 51t51 21t51 -21t21 -51t-21 -51t-51 -21t-51 21zM64 496h160v-496h-160v496z" />
    <glyph glyph-name="eth" unicode="&#xf0;" 
d="M576 248q0 -73 -34.5 -133.5t-96.5 -95.5t-141 -35q-82 0 -144 35t-95 95.5t-33 133.5q0 66 26.5 121.5t76.5 92t119 46.5q-38 31 -65 46l-141 -50v79l72 27l-72 53l112 57l84 -66l172 59v-80l-96 -33q74 -51 125.5 -95.5t81.5 -92.5q49 -78 49 -164zM383 163
q33 35 33 85t-33 85t-79 35t-79 -35t-33 -85t33 -85t79 -35t79 35z" />
    <glyph glyph-name="ntilde" unicode="&#xf1;" 
d="M504 646q-23 -47 -53 -66.5t-66 -19.5q-38 0 -81 18q-44 18 -67 18q-17 0 -29.5 -8.5t-22.5 -27.5l-81 26q24 47 53.5 66.5t65.5 19.5q34 0 81 -18q47 -19 67 -19q17 0 29.5 9t22.5 28zM464 486.5q44 -25.5 70 -76t26 -122.5v-288h-160v272q0 54 -23.5 75t-56.5 21
q-34 0 -65 -26t-31 -86v-256h-160v496h160v-48q26 30 63.5 47t80.5 17q52 0 96 -25.5z" />
    <glyph glyph-name="ograve" unicode="&#xf2;" 
d="M280 560l-144 144h160l80 -144h-96zM444 476.5q62 -35.5 97 -95.5t35 -133t-34.5 -133.5t-96.5 -95.5t-141 -35q-82 0 -144 35t-95 95.5t-33 133.5q0 74 33 134t94.5 95t144.5 35q78 0 140 -35.5zM383 163q33 35 33 85t-33 85t-79 35t-79 -35t-33 -85t33 -85t79 -35
t79 35z" />
    <glyph glyph-name="oacute" unicode="&#xf3;" 
d="M312 704h160l-144 -144h-96zM444 476.5q62 -35.5 97 -95.5t35 -133t-34.5 -133.5t-96.5 -95.5t-141 -35q-82 0 -144 35t-95 95.5t-33 133.5q0 74 33 134t94.5 95t144.5 35q78 0 140 -35.5zM383 163q33 35 33 85t-33 85t-79 35t-79 -35t-33 -85t33 -85t79 -35t79 35z" />
    <glyph glyph-name="ocircumflex" unicode="&#xf4;" 
d="M304 624l-48 -64h-128l144 144h64l144 -144h-128zM444 476.5q62 -35.5 97 -95.5t35 -133t-34.5 -133.5t-96.5 -95.5t-141 -35q-82 0 -144 35t-95 95.5t-33 133.5q0 74 33 134t94.5 95t144.5 35q78 0 140 -35.5zM383 163q33 35 33 85t-33 85t-79 35t-79 -35t-33 -85
t33 -85t79 -35t79 35z" />
    <glyph glyph-name="otilde" unicode="&#xf5;" 
d="M504 646q-23 -47 -53 -66.5t-66 -19.5q-38 0 -81 18q-44 18 -67 18q-17 0 -29.5 -8.5t-22.5 -27.5l-81 26q24 47 53.5 66.5t65.5 19.5q34 0 81 -18q47 -19 67 -19q17 0 29.5 9t22.5 28zM444 476.5q62 -35.5 97 -95.5t35 -133t-34.5 -133.5t-96.5 -95.5t-141 -35
q-82 0 -144 35t-95 95.5t-33 133.5q0 74 33 134t94.5 95t144.5 35q78 0 140 -35.5zM383 163q33 35 33 85t-33 85t-79 35t-79 -35t-33 -85t33 -85t79 -35t79 35z" />
    <glyph glyph-name="odieresis" unicode="&#xf6;" 
d="M149 581q-21 21 -21 51t21 51t51 21t51 -21t21 -51t-21 -51t-51 -21t-51 21zM357 581q-21 21 -21 51t21 51t51 21t51 -21t21 -51t-21 -51t-51 -21t-51 21zM444 476.5q62 -35.5 97 -95.5t35 -133t-34.5 -133.5t-96.5 -95.5t-141 -35q-82 0 -144 35t-95 95.5t-33 133.5
q0 74 33 134t94.5 95t144.5 35q78 0 140 -35.5zM383 163q33 35 33 85t-33 85t-79 35t-79 -35t-33 -85t33 -85t79 -35t79 35z" />
    <glyph glyph-name="divide" unicode="&#xf7;" horiz-adv-x="512" 
d="M193.5 441.5q-25.5 25.5 -25.5 62.5t25.5 62.5t62.5 25.5t62.5 -25.5t25.5 -62.5t-25.5 -62.5t-62.5 -25.5t-62.5 25.5zM464 352v-96h-416v96h416zM193.5 41.5q-25.5 25.5 -25.5 62.5t25.5 62.5t62.5 25.5t62.5 -25.5t25.5 -62.5t-25.5 -62.5t-62.5 -25.5t-62.5 25.5z
" />
    <glyph glyph-name="oslash" unicode="&#xf8;" 
d="M557.5 348q18.5 -47 18.5 -100q0 -73 -34.5 -133.5t-96.5 -95.5t-141 -35q-89 0 -155 41l-22 -25h-80l56 63q-35 36 -53 83.5t-18 101.5q0 74 33 134t94.5 95t144.5 35q86 0 153 -43l24 27h80l-57 -65q35 -36 53.5 -83zM209 185l148 169q-25 14 -53 14q-46 0 -79 -35
t-33 -85q0 -35 17 -63zM383 163q33 35 33 85q0 35 -17 63l-148 -169q25 -14 53 -14q46 0 79 35z" />
    <glyph glyph-name="ugrave" unicode="&#xf9;" 
d="M272 560l-144 144h160l80 -144h-96zM144 9.5q-44 25.5 -70 76t-26 122.5v288h160v-272q0 -54 23.5 -75t56.5 -21q34 0 65 26t31 86v256h160v-496h-160v48q-26 -30 -63.5 -47t-80.5 -17q-52 0 -96 25.5z" />
    <glyph glyph-name="uacute" unicode="&#xfa;" 
d="M304 704h160l-144 -144h-96zM144 9.5q-44 25.5 -70 76t-26 122.5v288h160v-272q0 -54 23.5 -75t56.5 -21q34 0 65 26t31 86v256h160v-496h-160v48q-26 -30 -63.5 -47t-80.5 -17q-52 0 -96 25.5z" />
    <glyph glyph-name="ucircumflex" unicode="&#xfb;" 
d="M296 624l-48 -64h-128l144 144h64l144 -144h-128zM144 9.5q-44 25.5 -70 76t-26 122.5v288h160v-272q0 -54 23.5 -75t56.5 -21q34 0 65 26t31 86v256h160v-496h-160v48q-26 -30 -63.5 -47t-80.5 -17q-52 0 -96 25.5z" />
    <glyph glyph-name="udieresis" unicode="&#xfc;" 
d="M149 581q-21 21 -21 51t21 51t51 21t51 -21t21 -51t-21 -51t-51 -21t-51 21zM357 581q-21 21 -21 51t21 51t51 21t51 -21t21 -51t-21 -51t-51 -21t-51 21zM144 9.5q-44 25.5 -70 76t-26 122.5v288h160v-272q0 -54 23.5 -75t56.5 -21q34 0 65 26t31 86v256h160v-496h-160
v48q-26 -30 -63.5 -47t-80.5 -17q-52 0 -96 25.5z" />
    <glyph glyph-name="yacute" unicode="&#xfd;" horiz-adv-x="544" 
d="M272 704h160l-144 -144h-96zM544 496l-304 -752h-176l129 292l-193 460h176l96 -272l96 272h176z" />
    <glyph glyph-name="thorn" unicode="&#xfe;" horiz-adv-x="640" 
d="M488.5 476.5q55.5 -35.5 87.5 -96t32 -132.5t-32 -132.5t-87.5 -96t-120.5 -35.5q-83 0 -144 58v-298h-160v960h160v-250q61 58 144 58q65 0 120.5 -35.5zM415 163q33 35 33 85t-33 85t-79 35t-79 -35t-33 -85t33 -85t79 -35t79 35z" />
    <glyph glyph-name="ydieresis" unicode="&#xff;" horiz-adv-x="544" 
d="M117 581q-21 21 -21 51t21 51t51 21t51 -21t21 -51t-21 -51t-51 -21t-51 21zM325 581q-21 21 -21 51t21 51t51 21t51 -21t21 -51t-21 -51t-51 -21t-51 21zM544 496l-304 -752h-176l129 292l-193 460h176l96 -272l96 272h176z" />
    <glyph glyph-name="Amacron" unicode="&#x100;" horiz-adv-x="704" 
d="M200 752v80h304v-80h-304zM486 112h-268l-42 -112h-176l278 672h148l278 -672h-176zM431 256l-79 208l-79 -208h158z" />
    <glyph glyph-name="amacron" unicode="&#x101;" horiz-adv-x="640" 
d="M184 576v80h304v-80h-304zM576 496v-496h-160v42q-61 -58 -144 -58q-65 0 -120.5 35.5t-87.5 96t-32 132.5t32 132.5t87.5 96t120.5 35.5q83 0 144 -58v42h160zM383 163q33 35 33 85t-33 85t-79 35t-79 -35t-33 -85t33 -85t79 -35t79 35z" />
    <glyph glyph-name="Abreve" unicode="&#x102;" horiz-adv-x="704" 
d="M496 880q0 -39 -19.5 -72t-52.5 -52.5t-72 -19.5t-72 19.5t-52.5 52.5t-19.5 72h80q0 -26 19 -45t45 -19t45 19t19 45h80zM486 112h-268l-42 -112h-176l278 672h148l278 -672h-176zM431 256l-79 208l-79 -208h158z" />
    <glyph glyph-name="abreve" unicode="&#x103;" horiz-adv-x="640" 
d="M480 704q0 -39 -19.5 -72t-52.5 -52.5t-72 -19.5t-72 19.5t-52.5 52.5t-19.5 72h80q0 -26 19 -45t45 -19t45 19t19 45h80zM576 496v-496h-160v42q-61 -58 -144 -58q-65 0 -120.5 35.5t-87.5 96t-32 132.5t32 132.5t87.5 96t120.5 35.5q83 0 144 -58v42h160zM383 163
q33 35 33 85t-33 85t-79 35t-79 -35t-33 -85t33 -85t79 -35t79 35z" />
    <glyph glyph-name="Aogonek" unicode="&#x104;" horiz-adv-x="704" 
d="M580 -124q17 -17 44 -17q24 0 48 13l16 -64q-30 -16 -64 -16q-59 0 -93.5 34.5t-34.5 89.5q0 22 9.5 47.5t22.5 36.5l-42 112h-268l-42 -112h-176l278 672h148l278 -672h-48q-34 0 -63.5 -17.5t-29.5 -56.5q0 -33 17 -50zM431 256l-79 208l-79 -208h158z" />
    <glyph glyph-name="aogonek" unicode="&#x105;" horiz-adv-x="640" 
d="M480.5 -17.5q-29.5 -17.5 -29.5 -56.5q0 -33 17 -50t44 -17q24 0 48 13l16 -64q-30 -16 -64 -16q-59 0 -93.5 34.5t-34.5 89.5q0 22 9.5 47.5t22.5 36.5v42q-61 -58 -144 -58q-65 0 -120.5 35.5t-87.5 96t-32 132.5t32 132.5t87.5 96t120.5 35.5q83 0 144 -58v42h160
v-496h-32q-34 0 -63.5 -17.5zM383 163q33 35 33 85t-33 85t-79 35t-79 -35t-33 -85t33 -85t79 -35t79 35z" />
    <glyph glyph-name="Cacute" unicode="&#x106;" horiz-adv-x="656" 
d="M400 880h160l-144 -144h-96zM490.5 149q42.5 21 71.5 57l62 -141q-42 -38 -103.5 -59.5t-120.5 -21.5q-100 0 -184.5 47.5t-134 128.5t-49.5 176t49.5 176t134 128.5t184.5 47.5q60 0 121 -21t103 -59l-62 -142q-29 37 -71 57.5t-91 20.5q-57 0 -104.5 -28t-75.5 -75.5
t-28 -104.5t28 -104.5t75.5 -75.5t104.5 -28q48 0 90.5 21z" />
    <glyph glyph-name="cacute" unicode="&#x107;" horiz-adv-x="528" 
d="M320 704h160l-144 -144h-96zM496 45q-32 -31 -83.5 -46t-104.5 -15q-85 0 -147.5 35t-95.5 95t-33 134q0 73 33.5 133.5t96 95.5t146.5 35q53 0 103.5 -15t84.5 -46l-58 -129q-25 22 -56 34t-64 12q-52 0 -89 -35t-37 -85t36.5 -85t89.5 -35q33 0 64 12t56 33z" />
    <glyph glyph-name="Cdotaccent" unicode="&#x10a;" horiz-adv-x="656" 
d="M330 746q-26 26 -26 62t26 62t62 26t62 -26t26 -62t-26 -62t-62 -26t-62 26zM490.5 149q42.5 21 71.5 57l62 -141q-42 -38 -103.5 -59.5t-120.5 -21.5q-100 0 -184.5 47.5t-134 128.5t-49.5 176t49.5 176t134 128.5t184.5 47.5q60 0 121 -21t103 -59l-62 -142
q-29 37 -71 57.5t-91 20.5q-57 0 -104.5 -28t-75.5 -75.5t-28 -104.5t28 -104.5t75.5 -75.5t104.5 -28q48 0 90.5 21z" />
    <glyph glyph-name="cdotaccent" unicode="&#x10b;" horiz-adv-x="528" 
d="M250 570q-26 26 -26 62t26 62t62 26t62 -26t26 -62t-26 -62t-62 -26t-62 26zM496 45q-32 -31 -83.5 -46t-104.5 -15q-85 0 -147.5 35t-95.5 95t-33 134q0 73 33.5 133.5t96 95.5t146.5 35q53 0 103.5 -15t84.5 -46l-58 -129q-25 22 -56 34t-64 12q-52 0 -89 -35t-37 -85
t36.5 -85t89.5 -35q33 0 64 12t56 33z" />
    <glyph glyph-name="Ccaron" unicode="&#x10c;" horiz-adv-x="656" 
d="M560 880l-144 -144h-64l-144 144h128l48 -64l48 64h128zM490.5 149q42.5 21 71.5 57l62 -141q-42 -38 -103.5 -59.5t-120.5 -21.5q-100 0 -184.5 47.5t-134 128.5t-49.5 176t49.5 176t134 128.5t184.5 47.5q60 0 121 -21t103 -59l-62 -142q-29 37 -71 57.5t-91 20.5
q-57 0 -104.5 -28t-75.5 -75.5t-28 -104.5t28 -104.5t75.5 -75.5t104.5 -28q48 0 90.5 21z" />
    <glyph glyph-name="ccaron" unicode="&#x10d;" horiz-adv-x="528" 
d="M480 704l-144 -144h-64l-144 144h128l48 -64l48 64h128zM496 45q-32 -31 -83.5 -46t-104.5 -15q-85 0 -147.5 35t-95.5 95t-33 134q0 73 33.5 133.5t96 95.5t146.5 35q53 0 103.5 -15t84.5 -46l-58 -129q-25 22 -56 34t-64 12q-52 0 -89 -35t-37 -85t36.5 -85t89.5 -35
q33 0 64 12t56 33z" />
    <glyph glyph-name="Dcaron" unicode="&#x10e;" horiz-adv-x="704" 
d="M488 880l-144 -144h-64l-144 144h128l48 -64l48 64h128zM510.5 627.5q79.5 -44.5 120.5 -120.5t41 -171q0 -94 -42 -170.5t-122 -121t-189 -44.5h-255v672h255q112 0 191.5 -44.5zM419 170q42 26 67.5 70t25.5 96t-25.5 96t-67.5 70t-89 26h-106v-384h106q47 0 89 26z
" />
    <glyph glyph-name="dcaron" unicode="&#x10f;" horiz-adv-x="800" 
d="M416 454v250h160v-704h-160v42q-61 -58 -144 -58q-65 0 -120.5 35.5t-87.5 96t-32 132.5t32 132.5t87.5 96t120.5 35.5q83 0 144 -58zM640 672h128l-80 -144h-80zM383 163q33 35 33 85t-33 85t-79 35t-79 -35t-33 -85t33 -85t79 -35t79 35z" />
    <glyph glyph-name="Dcroat" unicode="&#x110;" horiz-adv-x="720" 
d="M526.5 627.5q79.5 -44.5 120.5 -120.5t41 -171q0 -94 -42 -170.5t-122 -121t-189 -44.5h-255v288h-64v96h64v288h255q112 0 191.5 -44.5zM435 170q42 26 67.5 70t25.5 96t-25.5 96t-67.5 70t-89 26h-106v-144h64v-96h-64v-144h106q47 0 89 26z" />
    <glyph glyph-name="dcroat" unicode="&#x111;" horiz-adv-x="656" 
d="M640 544h-64v-544h-160v42q-61 -58 -144 -58q-65 0 -120.5 35.5t-87.5 96t-32 132.5t32 132.5t87.5 96t120.5 35.5q83 0 144 -58v90h-64v80h64v80h160v-80h64v-80zM383 163q33 35 33 85t-33 85t-79 35t-79 -35t-33 -85t33 -85t79 -35t79 35z" />
    <glyph glyph-name="Emacron" unicode="&#x112;" horiz-adv-x="544" 
d="M120 752v80h304v-80h-304zM224 528v-120h224v-144h-224v-120h272v-144h-432v672h432v-144h-272z" />
    <glyph glyph-name="emacron" unicode="&#x113;" horiz-adv-x="576" 
d="M136 576v80h304v-80h-304zM542 208h-342q10 -36 42 -58t81 -22q31 0 71 8t74 22l44 -127q0 -2 -26.5 -14t-69 -22.5t-97.5 -10.5q-96 0 -160.5 35t-95.5 94.5t-31 134.5t30 134.5t89.5 94.5t144.5 35q118 0 183 -69.5t65 -194.5q0 -14 -2 -40zM376 304q0 29 -23.5 54.5
t-64.5 25.5q-24 0 -44.5 -12.5t-32 -31.5t-11.5 -36h176z" />
    <glyph glyph-name="Edotaccent" unicode="&#x116;" horiz-adv-x="544" 
d="M210 746q-26 26 -26 62t26 62t62 26t62 -26t26 -62t-26 -62t-62 -26t-62 26zM224 528v-120h224v-144h-224v-120h272v-144h-432v672h432v-144h-272z" />
    <glyph glyph-name="edotaccent" unicode="&#x117;" horiz-adv-x="576" 
d="M234 570q-26 26 -26 62t26 62t62 26t62 -26t26 -62t-26 -62t-62 -26t-62 26zM542 208h-342q10 -36 42 -58t81 -22q31 0 71 8t74 22l44 -127q0 -2 -26.5 -14t-69 -22.5t-97.5 -10.5q-96 0 -160.5 35t-95.5 94.5t-31 134.5t30 134.5t89.5 94.5t144.5 35q118 0 183 -69.5
t65 -194.5q0 -14 -2 -40zM376 304q0 29 -23.5 54.5t-64.5 25.5q-24 0 -44.5 -12.5t-32 -31.5t-11.5 -36h176z" />
    <glyph glyph-name="Eogonek" unicode="&#x118;" horiz-adv-x="544" 
d="M528 -192q-30 -16 -64 -16q-59 0 -93.5 34.5t-34.5 89.5q0 22 9.5 47.5t22.5 36.5h-304v672h432v-144h-272v-120h224v-144h-224v-120h272v-144q-34 0 -63.5 -17.5t-29.5 -56.5q0 -33 17 -50t44 -17q24 0 48 13z" />
    <glyph glyph-name="eogonek" unicode="&#x119;" horiz-adv-x="576" 
d="M542 208h-342q10 -36 42 -58t81 -22q31 0 71 8t74 22l44 -127q-4 -3 -22 -12t-50.5 -19t-74.5 -14q-18 -5 -30 -21.5t-12 -38.5q0 -33 17 -50t44 -17q24 0 48 13l16 -64q-30 -16 -64 -16q-59 0 -93.5 34.5t-34.5 89.5q0 17 5.5 36.5t14.5 33.5q-122 11 -183 83.5
t-61 178.5q0 75 30 134.5t89.5 94.5t144.5 35q118 0 183 -69.5t65 -194.5q0 -14 -2 -40zM376 304q0 29 -23.5 54.5t-64.5 25.5q-24 0 -44.5 -12.5t-32 -31.5t-11.5 -36h176z" />
    <glyph glyph-name="Ecaron" unicode="&#x11a;" horiz-adv-x="544" 
d="M448 880l-144 -144h-64l-144 144h128l48 -64l48 64h128zM224 528v-120h224v-144h-224v-120h272v-144h-432v672h432v-144h-272z" />
    <glyph glyph-name="ecaron" unicode="&#x11b;" horiz-adv-x="576" 
d="M464 704l-144 -144h-64l-144 144h128l48 -64l48 64h128zM542 208h-342q10 -36 42 -58t81 -22q31 0 71 8t74 22l44 -127q0 -2 -26.5 -14t-69 -22.5t-97.5 -10.5q-96 0 -160.5 35t-95.5 94.5t-31 134.5t30 134.5t89.5 94.5t144.5 35q118 0 183 -69.5t65 -194.5
q0 -14 -2 -40zM376 304q0 29 -23.5 54.5t-64.5 25.5q-24 0 -44.5 -12.5t-32 -31.5t-11.5 -36h176z" />
    <glyph glyph-name="Gbreve" unicode="&#x11e;" horiz-adv-x="752" 
d="M520 880q0 -39 -19.5 -72t-52.5 -52.5t-72 -19.5t-72 19.5t-52.5 52.5t-19.5 72h80q0 -26 19 -45t45 -19t45 19t19 45h80zM720 336q0 -96 -43.5 -177t-120.5 -128t-172 -47t-176 47.5t-128.5 128.5t-47.5 176t47.5 176t128.5 128.5t176 47.5q101 0 180 -52t124 -140
l-144 -43q-26 41 -64 66t-96 25q-55 0 -99 -28t-68.5 -75.5t-24.5 -104.5t25 -104.5t69 -75.5t98 -28q65 0 111.5 34.5t56.5 93.5h-216v144h378q6 -33 6 -64z" />
    <glyph glyph-name="gbreve" unicode="&#x11f;" horiz-adv-x="640" 
d="M480 704q0 -39 -19.5 -72t-52.5 -52.5t-72 -19.5t-72 19.5t-52.5 52.5t-19.5 72h80q0 -26 19 -45t45 -19t45 19t19 45h80zM576 496v-448q0 -154 -77.5 -237t-210.5 -83q-62 0 -115.5 18t-89 39t-35.5 23l60 128q46 -32 84.5 -48t86.5 -16q63 0 100 41t37 108v21
q-61 -58 -144 -58q-65 0 -120.5 35.5t-87.5 96t-32 132.5t32 132.5t87.5 96t120.5 35.5q83 0 144 -58v42h160zM383 163q33 35 33 85t-33 85t-79 35t-79 -35t-33 -85t33 -85t79 -35t79 35z" />
    <glyph glyph-name="Gdotaccent" unicode="&#x120;" horiz-adv-x="752" 
d="M314 746q-26 26 -26 62t26 62t62 26t62 -26t26 -62t-26 -62t-62 -26t-62 26zM720 336q0 -96 -43.5 -177t-120.5 -128t-172 -47t-176 47.5t-128.5 128.5t-47.5 176t47.5 176t128.5 128.5t176 47.5q101 0 180 -52t124 -140l-144 -43q-26 41 -64 66t-96 25q-55 0 -99 -28
t-68.5 -75.5t-24.5 -104.5t25 -104.5t69 -75.5t98 -28q65 0 111.5 34.5t56.5 93.5h-216v144h378q6 -33 6 -64z" />
    <glyph glyph-name="gdotaccent" unicode="&#x121;" horiz-adv-x="640" 
d="M258 570q-26 26 -26 62t26 62t62 26t62 -26t26 -62t-26 -62t-62 -26t-62 26zM576 496v-448q0 -154 -77.5 -237t-210.5 -83q-62 0 -115.5 18t-89 39t-35.5 23l60 128q46 -32 84.5 -48t86.5 -16q63 0 100 41t37 108v21q-61 -58 -144 -58q-65 0 -120.5 35.5t-87.5 96
t-32 132.5t32 132.5t87.5 96t120.5 35.5q83 0 144 -58v42h160zM383 163q33 35 33 85t-33 85t-79 35t-79 -35t-33 -85t33 -85t79 -35t79 35z" />
    <glyph glyph-name="Gcommaaccent" unicode="&#x122;" horiz-adv-x="752" 
d="M720 336q0 -96 -43.5 -177t-120.5 -128t-172 -47t-176 47.5t-128.5 128.5t-47.5 176t47.5 176t128.5 128.5t176 47.5q101 0 180 -52t124 -140l-144 -43q-26 41 -64 66t-96 25q-55 0 -99 -28t-68.5 -75.5t-24.5 -104.5t25 -104.5t69 -75.5t98 -28q65 0 111.5 34.5
t56.5 93.5h-216v144h378q6 -33 6 -64zM320 -64h128l-80 -144h-80z" />
    <glyph glyph-name="gcommaaccent" unicode="&#x123;" horiz-adv-x="640" 
d="M400 560h-128l80 144h80zM576 496v-448q0 -154 -77.5 -237t-210.5 -83q-62 0 -115.5 18t-89 39t-35.5 23l60 128q46 -32 84.5 -48t86.5 -16q63 0 100 41t37 108v21q-61 -58 -144 -58q-65 0 -120.5 35.5t-87.5 96t-32 132.5t32 132.5t87.5 96t120.5 35.5q83 0 144 -58v42
h160zM383 163q33 35 33 85t-33 85t-79 35t-79 -35t-33 -85t33 -85t79 -35t79 35z" />
    <glyph glyph-name="Hbar" unicode="&#x126;" horiz-adv-x="704" 
d="M688 512h-48v-512h-160v264h-256v-264h-160v512h-48v80h48v80h160v-80h256v80h160v-80h48v-80zM480 512h-256v-104h256v104z" />
    <glyph glyph-name="hbar" unicode="&#x127;" horiz-adv-x="624" 
d="M480 486.5q44 -25.5 70 -76t26 -122.5v-288h-160v272q0 54 -23.5 75t-56.5 21q-34 0 -65 -26t-31 -86v-256h-160v544h-64v80h64v80h160v-80h64v-80h-64v-96q26 30 63.5 47t80.5 17q52 0 96 -25.5z" />
    <glyph glyph-name="Imacron" unicode="&#x12a;" horiz-adv-x="288" 
d="M-8 752v80h304v-80h-304zM64 0v672h160v-672h-160z" />
    <glyph glyph-name="imacron" unicode="&#x12b;" horiz-adv-x="288" 
d="M-8 576v80h304v-80h-304zM64 496h160v-496h-160v496z" />
    <glyph glyph-name="Iogonek" unicode="&#x12e;" horiz-adv-x="288" 
d="M256 -192q-30 -16 -64 -16q-59 0 -93.5 34.5t-34.5 89.5q0 22 9.5 47.5t22.5 36.5h-32v672h160v-672q-34 0 -63.5 -17.5t-29.5 -56.5q0 -33 17 -50t44 -17q24 0 48 13z" />
    <glyph glyph-name="iogonek" unicode="&#x12f;" horiz-adv-x="288" 
d="M76 588q-28 28 -28 68t28 68t68 28t68 -28t28 -68t-28 -68t-68 -28t-68 28zM256 -192q-30 -16 -64 -16q-59 0 -93.5 34.5t-34.5 89.5q0 22 9.5 47.5t22.5 36.5h-32v496h160v-496q-34 0 -63.5 -17.5t-29.5 -56.5q0 -33 17 -50t44 -17q24 0 48 13z" />
    <glyph glyph-name="Idotaccent" unicode="&#x130;" horiz-adv-x="288" 
d="M82 746q-26 26 -26 62t26 62t62 26t62 -26t26 -62t-26 -62t-62 -26t-62 26zM64 0v672h160v-672h-160z" />
    <glyph glyph-name="dotlessi" unicode="&#x131;" horiz-adv-x="288" 
d="M64 496h160v-496h-160v496z" />
    <glyph glyph-name="IJ" unicode="&#x132;" horiz-adv-x="784" 
d="M64 0v672h160v-672h-160zM736 672v-416q0 -134 -69 -203t-188 -69q-46 0 -90.5 17.5t-68.5 44.5l72 120q14 -17 36 -27.5t45 -10.5q44 0 73.5 31t29.5 91v422h160z" />
    <glyph glyph-name="ij" unicode="&#x133;" horiz-adv-x="576" 
d="M76 588q-28 28 -28 68t28 68t68 28t68 -28t28 -68t-28 -68t-68 -28t-68 28zM364 588q-28 28 -28 68t28 68t68 28t68 -28t28 -68t-28 -68t-68 -28t-68 28zM64 496h160v-496h-160v496zM352 496h160v-480q0 -163 -64 -225.5t-176 -62.5l-32 144q49 1 80.5 32t31.5 96v496z
" />
    <glyph glyph-name="Kcommaaccent" unicode="&#x136;" horiz-adv-x="656" 
d="M640 0h-192l-224 288v-288h-160v672h160v-256l208 256h192l-256 -320zM256 -64h128l-80 -144h-80z" />
    <glyph glyph-name="kcommaaccent" unicode="&#x137;" horiz-adv-x="592" 
d="M592 0h-192l-176 196v-196h-160v704h160v-396l160 188h192l-208 -240zM232 -64h128l-80 -144h-80z" />
    <glyph glyph-name="Lacute" unicode="&#x139;" horiz-adv-x="512" 
d="M144 880h160l-144 -144h-96zM480 144v-144h-416v672h160v-528h256z" />
    <glyph glyph-name="lacute" unicode="&#x13a;" horiz-adv-x="288" 
d="M144 912h160l-144 -144h-96zM224 704v-704h-160v704h160z" />
    <glyph glyph-name="Lcommaaccent" unicode="&#x13b;" horiz-adv-x="512" 
d="M480 144v-144h-416v672h160v-528h256zM200 -64h128l-80 -144h-80z" />
    <glyph glyph-name="lcommaaccent" unicode="&#x13c;" horiz-adv-x="288" 
d="M224 704v-704h-160v704h160zM80 -64h128l-80 -144h-80z" />
    <glyph glyph-name="Lcaron" unicode="&#x13d;" horiz-adv-x="528" 
d="M480 144v-144h-416v672h160v-528h256zM368 672h128l-80 -144h-80z" />
    <glyph glyph-name="lcaron" unicode="&#x13e;" horiz-adv-x="432" 
d="M224 704v-704h-160v704h160zM288 672h128l-80 -144h-80z" />
    <glyph glyph-name="Ldot" unicode="&#x13f;" horiz-adv-x="528" 
d="M480 144v-144h-416v672h160v-528h256zM345.5 313.5q-25.5 25.5 -25.5 62.5t25.5 62.5t62.5 25.5t62.5 -25.5t25.5 -62.5t-25.5 -62.5t-62.5 -25.5t-62.5 25.5z" />
    <glyph glyph-name="ldot" unicode="&#x140;" horiz-adv-x="464" 
d="M224 704v-704h-160v704h160zM297.5 313.5q-25.5 25.5 -25.5 62.5t25.5 62.5t62.5 25.5t62.5 -25.5t25.5 -62.5t-25.5 -62.5t-62.5 -25.5t-62.5 25.5z" />
    <glyph glyph-name="Lslash" unicode="&#x141;" horiz-adv-x="528" 
d="M496 144v-144h-416v290l-64 -18v80l64 18v302h160v-258l64 18v-80l-64 -18v-190h256z" />
    <glyph glyph-name="lslash" unicode="&#x142;" horiz-adv-x="320" 
d="M304 351l-64 -18v-333h-160v290l-64 -18v80l64 18v334h160v-291l64 18v-80z" />
    <glyph glyph-name="Nacute" unicode="&#x143;" horiz-adv-x="752" 
d="M376 880h160l-144 -144h-96zM688 672v-672h-160l-304 416v-416h-160v672h160l304 -416v416h160z" />
    <glyph glyph-name="nacute" unicode="&#x144;" 
d="M296 704h160l-144 -144h-96zM464 486.5q44 -25.5 70 -76t26 -122.5v-288h-160v272q0 54 -23.5 75t-56.5 21q-34 0 -65 -26t-31 -86v-256h-160v496h160v-48q26 30 63.5 47t80.5 17q52 0 96 -25.5z" />
    <glyph glyph-name="Ncommaaccent" unicode="&#x145;" horiz-adv-x="752" 
d="M688 672v-672h-160l-304 416v-416h-160v672h160l304 -416v416h160zM312 -64h128l-80 -144h-80z" />
    <glyph glyph-name="ncommaaccent" unicode="&#x146;" 
d="M464 486.5q44 -25.5 70 -76t26 -122.5v-288h-160v272q0 54 -23.5 75t-56.5 21q-34 0 -65 -26t-31 -86v-256h-160v496h160v-48q26 30 63.5 47t80.5 17q52 0 96 -25.5zM248 -64h128l-80 -144h-80z" />
    <glyph glyph-name="Ncaron" unicode="&#x147;" horiz-adv-x="752" 
d="M552 880l-144 -144h-64l-144 144h128l48 -64l48 64h128zM688 672v-672h-160l-304 416v-416h-160v672h160l304 -416v416h160z" />
    <glyph glyph-name="ncaron" unicode="&#x148;" 
d="M464 704l-144 -144h-64l-144 144h128l48 -64l48 64h128zM464 486.5q44 -25.5 70 -76t26 -122.5v-288h-160v272q0 54 -23.5 75t-56.5 21q-34 0 -65 -26t-31 -86v-256h-160v496h160v-48q26 30 63.5 47t80.5 17q52 0 96 -25.5z" />
    <glyph glyph-name="Eng" unicode="&#x14a;" horiz-adv-x="752" 
d="M688 672v-656q0 -163 -64 -225.5t-176 -62.5l-32 144q49 1 80.5 32t31.5 96l-304 416v-416h-160v672h160l304 -416v416h160z" />
    <glyph glyph-name="eng" unicode="&#x14b;" 
d="M464 486.5q44 -25.5 70 -76t26 -122.5v-272q0 -163 -64 -225.5t-176 -62.5l-32 144q49 1 80.5 32t31.5 96v272q0 54 -23.5 75t-56.5 21q-34 0 -65 -26t-31 -86v-256h-160v496h160v-48q26 30 63.5 47t80.5 17q52 0 96 -25.5z" />
    <glyph glyph-name="Omacron" unicode="&#x14c;" horiz-adv-x="784" 
d="M240 752v80h304v-80h-304zM572.5 640.5q82.5 -47.5 131 -128.5t48.5 -176t-48.5 -176t-131 -128.5t-180.5 -47.5t-180.5 47.5t-131 128.5t-48.5 176t48.5 176t131 128.5t180.5 47.5t180.5 -47.5zM492 156q46 28 73 75.5t27 104.5t-27 104.5t-73 75.5t-100 28t-100 -28
t-73 -75.5t-27 -104.5t27 -104.5t73 -75.5t100 -28t100 28z" />
    <glyph glyph-name="omacron" unicode="&#x14d;" 
d="M152 576v80h304v-80h-304zM444 476.5q62 -35.5 97 -95.5t35 -133t-34.5 -133.5t-96.5 -95.5t-141 -35q-82 0 -144 35t-95 95.5t-33 133.5q0 74 33 134t94.5 95t144.5 35q78 0 140 -35.5zM383 163q33 35 33 85t-33 85t-79 35t-79 -35t-33 -85t33 -85t79 -35t79 35z" />
    <glyph glyph-name="Ohungarumlaut" unicode="&#x150;" horiz-adv-x="784" 
d="M264 880h128l-80 -144h-80zM488 880h128l-80 -144h-80zM572.5 640.5q82.5 -47.5 131 -128.5t48.5 -176t-48.5 -176t-131 -128.5t-180.5 -47.5t-180.5 47.5t-131 128.5t-48.5 176t48.5 176t131 128.5t180.5 47.5t180.5 -47.5zM492 156q46 28 73 75.5t27 104.5t-27 104.5
t-73 75.5t-100 28t-100 -28t-73 -75.5t-27 -104.5t27 -104.5t73 -75.5t100 -28t100 28z" />
    <glyph glyph-name="ohungarumlaut" unicode="&#x151;" 
d="M176 704h128l-80 -144h-80zM400 704h128l-80 -144h-80zM444 476.5q62 -35.5 97 -95.5t35 -133t-34.5 -133.5t-96.5 -95.5t-141 -35q-82 0 -144 35t-95 95.5t-33 133.5q0 74 33 134t94.5 95t144.5 35q78 0 140 -35.5zM383 163q33 35 33 85t-33 85t-79 35t-79 -35t-33 -85
t33 -85t79 -35t79 35z" />
    <glyph glyph-name="OE" unicode="&#x152;" horiz-adv-x="1104" 
d="M784 528v-120h224v-144h-224v-120h272v-144h-432v67q-48 -40 -107.5 -61.5t-124.5 -21.5q-98 0 -180.5 47.5t-131 128.5t-48.5 176t48.5 176t131 128.5t180.5 47.5q65 0 124.5 -21.5t107.5 -61.5v67h432v-144h-272zM492 156q46 28 73 75.5t27 104.5t-27 104.5t-73 75.5
t-100 28t-100 -28t-73 -75.5t-27 -104.5t27 -104.5t73 -75.5t100 -28t100 28z" />
    <glyph glyph-name="oe" unicode="&#x153;" horiz-adv-x="960" 
d="M926 208h-342q10 -36 42 -58t81 -22q31 0 71 8t74 22l44 -127q0 -2 -26.5 -14t-69 -22.5t-97.5 -10.5q-133 0 -210 70q-36 -34 -84 -52t-105 -18q-82 0 -144 35t-95 95.5t-33 133.5q0 74 33 134t94.5 95t144.5 35q55 0 102.5 -18t84.5 -50q33 32 81 50t108 18
q118 0 183 -69.5t65 -194.5q0 -14 -2 -40zM760 304q0 30 -23 55t-65 25q-24 0 -44.5 -12.5t-32 -31.5t-11.5 -36h176zM383 163q33 35 33 85t-33 85t-79 35t-79 -35t-33 -85t33 -85t79 -35t79 35z" />
    <glyph glyph-name="Racute" unicode="&#x154;" horiz-adv-x="656" 
d="M288 880h160l-144 -144h-96zM440 0l-150 216h-66v-216h-160v672h272q127 0 191.5 -61t64.5 -163q0 -73 -36.5 -132t-101.5 -85l170 -231h-184zM224 360h111q41 0 69 22.5t28 61.5q0 43 -27 63.5t-70 20.5h-111v-168z" />
    <glyph glyph-name="racute" unicode="&#x155;" horiz-adv-x="448" 
d="M200 704h160l-144 -144h-96zM297.5 477q49.5 30 118.5 35v-176q-20 7 -45 7q-23 0 -51 -7q-38 -10 -67 -49t-29 -94v-193h-160v496h160v-105q24 56 73.5 86z" />
    <glyph glyph-name="Rcommaaccent" unicode="&#x156;" horiz-adv-x="656" 
d="M440 0l-150 216h-66v-216h-160v672h272q127 0 191.5 -61t64.5 -163q0 -73 -36.5 -132t-101.5 -85l170 -231h-184zM224 360h111q41 0 69 22.5t28 61.5q0 43 -27 63.5t-70 20.5h-111v-168zM248 -64h128l-80 -144h-80z" />
    <glyph glyph-name="rcommaaccent" unicode="&#x157;" horiz-adv-x="448" 
d="M297.5 477q49.5 30 118.5 35v-176q-20 7 -45 7q-23 0 -51 -7q-38 -10 -67 -49t-29 -94v-193h-160v496h160v-105q24 56 73.5 86zM80 -64h128l-80 -144h-80z" />
    <glyph glyph-name="Rcaron" unicode="&#x158;" horiz-adv-x="656" 
d="M464 880l-144 -144h-64l-144 144h128l48 -64l48 64h128zM440 0l-150 216h-66v-216h-160v672h272q127 0 191.5 -61t64.5 -163q0 -73 -36.5 -132t-101.5 -85l170 -231h-184zM224 360h111q41 0 69 22.5t28 61.5q0 43 -27 63.5t-70 20.5h-111v-168z" />
    <glyph glyph-name="rcaron" unicode="&#x159;" horiz-adv-x="448" 
d="M400 704l-144 -144h-64l-144 144h128l48 -64l48 64h128zM297.5 477q49.5 30 118.5 35v-176q-20 7 -45 7q-23 0 -51 -7q-38 -10 -67 -49t-29 -94v-193h-160v496h160v-105q24 56 73.5 86z" />
    <glyph glyph-name="Sacute" unicode="&#x15a;" horiz-adv-x="624" 
d="M320 880h160l-144 -144h-96zM467.5 380q57.5 -24 91 -66.5t33.5 -111.5q0 -63 -32.5 -112.5t-95.5 -77.5t-152 -28q-76 0 -138.5 25t-102 54t-39.5 33l73 128q51 -51 105 -73.5t102 -22.5q120 0 120 64q0 25 -24 40.5t-88 26.5q-136 23 -200 74t-64 137q0 60 32 109.5
t92.5 79t141.5 29.5q46 0 116.5 -17t127.5 -69l-70 -126q0 2 -23.5 20t-62.5 33t-90 15q-44 0 -74 -15t-30 -42q0 -24 22 -37.5t82 -26.5q90 -19 147.5 -43z" />
    <glyph glyph-name="sacute" unicode="&#x15b;" horiz-adv-x="544" 
d="M280 704h160l-144 -144h-96zM461 273q51 -39 51 -113q0 -80 -63.5 -128t-190.5 -48q-63 0 -113.5 14t-81.5 30t-31 18l43 130q27 -19 62.5 -31t62.5 -17t35 -6q32 -2 46 -2q71 0 71 25q0 11 -9.5 17t-29 9.5t-66.5 8.5q-116 15 -157.5 61.5t-41.5 102.5q0 77 58 122.5
t177 45.5q9 0 40.5 -2.5t74 -11.5t75.5 -27l-37 -129q-6 3 -28 12t-55.5 17t-66.5 8q-38 0 -58 -4t-20 -17q0 -14 17 -20t37.5 -9t27.5 -4q120 -13 171 -52z" />
    <glyph glyph-name="Scedilla" unicode="&#x15e;" horiz-adv-x="624" 
d="M531 56q-61 -59 -172 -70l-34 -34q5 1 15 1q48 0 82 -31.5t34 -81.5q0 -40 -21 -73t-57.5 -52t-81.5 -19q-47 0 -79 17t-49 46l58 65q7 -20 26 -34t44 -14q39 0 60.5 19.5t21.5 44.5q0 26 -19.5 41t-47.5 15q-37 0 -55 -14l-40 54l51 51q-65 7 -117 31.5t-85 49.5t-33 28
l73 128q51 -51 105 -73.5t102 -22.5q120 0 120 64q0 25 -24 40.5t-88 26.5q-136 23 -200 74t-64 137q0 60 32 109.5t92.5 79t141.5 29.5q46 0 116.5 -17t127.5 -69l-70 -126q0 2 -23.5 20t-62.5 33t-90 15q-44 0 -74 -15t-30 -42q0 -24 22 -37.5t82 -26.5q90 -19 147.5 -43
t91 -66.5t33.5 -111.5q0 -87 -61 -146z" />
    <glyph glyph-name="scedilla" unicode="&#x15f;" horiz-adv-x="544" 
d="M466 46.5q-46 -45.5 -138 -57.5l-35 -37q5 1 15 1q48 0 82 -31.5t34 -81.5q0 -40 -21 -73t-57.5 -52t-81.5 -19q-47 0 -79 17t-49 46l58 65q7 -20 26 -34t44 -14q39 0 60.5 19.5t21.5 44.5q0 26 -19.5 41t-47.5 15q-37 0 -55 -14l-40 54l48 49q-56 3 -100.5 16.5t-72 28
t-27.5 16.5l43 130q27 -19 62.5 -31t62.5 -17t35 -6q32 -2 46 -2q71 0 71 25q0 11 -9.5 17t-29 9.5t-66.5 8.5q-116 15 -157.5 61.5t-41.5 102.5q0 77 58 122.5t177 45.5q9 0 40.5 -2.5t74 -11.5t75.5 -27l-37 -129q-6 3 -28 12t-55.5 17t-66.5 8q-38 0 -58 -4t-20 -17
q0 -14 17 -20t37.5 -9t27.5 -4q120 -13 171 -52t51 -113q0 -68 -46 -113.5z" />
    <glyph glyph-name="Scaron" unicode="&#x160;" horiz-adv-x="624" 
d="M488 880l-144 -144h-64l-144 144h128l48 -64l48 64h128zM467.5 380q57.5 -24 91 -66.5t33.5 -111.5q0 -63 -32.5 -112.5t-95.5 -77.5t-152 -28q-76 0 -138.5 25t-102 54t-39.5 33l73 128q51 -51 105 -73.5t102 -22.5q120 0 120 64q0 25 -24 40.5t-88 26.5
q-136 23 -200 74t-64 137q0 60 32 109.5t92.5 79t141.5 29.5q46 0 116.5 -17t127.5 -69l-70 -126q0 2 -23.5 20t-62.5 33t-90 15q-44 0 -74 -15t-30 -42q0 -24 22 -37.5t82 -26.5q90 -19 147.5 -43z" />
    <glyph glyph-name="scaron" unicode="&#x161;" horiz-adv-x="544" 
d="M448 704l-144 -144h-64l-144 144h128l48 -64l48 64h128zM461 273q51 -39 51 -113q0 -80 -63.5 -128t-190.5 -48q-63 0 -113.5 14t-81.5 30t-31 18l43 130q27 -19 62.5 -31t62.5 -17t35 -6q32 -2 46 -2q71 0 71 25q0 11 -9.5 17t-29 9.5t-66.5 8.5q-116 15 -157.5 61.5
t-41.5 102.5q0 77 58 122.5t177 45.5q9 0 40.5 -2.5t74 -11.5t75.5 -27l-37 -129q-6 3 -28 12t-55.5 17t-66.5 8q-38 0 -58 -4t-20 -17q0 -14 17 -20t37.5 -9t27.5 -4q120 -13 171 -52z" />
    <glyph glyph-name="uni0162" unicode="&#x162;" horiz-adv-x="576" 
d="M341 0l-48 -48q5 1 15 1q48 0 82 -31.5t34 -81.5q0 -40 -21 -73t-57.5 -52t-81.5 -19q-47 0 -79 17t-49 46l58 65q7 -20 26 -34t44 -14q39 0 60.5 19.5t21.5 44.5q0 26 -19.5 41t-47.5 15q-37 0 -55 -14l-40 54l64 64h-40v528h-176v144h512v-144h-176v-528h-27z" />
    <glyph glyph-name="uni0163" unicode="&#x163;" horiz-adv-x="400" 
d="M256 352v-144q0 -48 10 -66.5t42 -18.5q14 0 44 5v-128q-42 -15 -99 -16l-32 -32q5 1 15 1q48 0 82 -31.5t34 -81.5q0 -40 -21 -73t-57.5 -52t-81.5 -19q-47 0 -79 17t-49 46l58 65q7 -20 26 -34t44 -14q39 0 60.5 19.5t21.5 44.5q0 26 -19.5 41t-47.5 15q-37 0 -55 -14
l-40 54l61 61q-39 18 -58 56t-19 88v211h-64v144h64v176h160v-176h96v-144h-96z" />
    <glyph glyph-name="Tcaron" unicode="&#x164;" horiz-adv-x="576" 
d="M464 880l-144 -144h-64l-144 144h128l48 -64l48 64h128zM544 672v-144h-176v-528h-160v528h-176v144h512z" />
    <glyph glyph-name="tcaron" unicode="&#x165;" horiz-adv-x="576" 
d="M96 352h-64v144h64v176h160v-176h96v-144h-96v-144q0 -48 10 -66.5t42 -18.5q14 0 44 5v-128q-47 -16 -112 -16q-73 0 -108.5 44.5t-35.5 112.5v211zM416 672h128l-80 -144h-80z" />
    <glyph glyph-name="Tbar" unicode="&#x166;" horiz-adv-x="576" 
d="M368 528v-176h64v-80h-64v-272h-160v272h-64v80h64v176h-176v144h512v-144h-176z" />
    <glyph glyph-name="tbar" unicode="&#x167;" horiz-adv-x="400" 
d="M256 352v-40h96v-80h-96v-24q0 -48 10 -66.5t42 -18.5q14 0 44 5v-128q-47 -16 -112 -16q-73 0 -108.5 44.5t-35.5 112.5v91h-64v80h64v40h-64v144h64v176h160v-176h96v-144h-96z" />
    <glyph glyph-name="Umacron" unicode="&#x16a;" horiz-adv-x="672" 
d="M184 752v80h304v-80h-304zM624 672v-384q0 -89 -34.5 -158t-99.5 -107.5t-154 -38.5q-91 0 -156 38.5t-98.5 107.5t-33.5 158v384h160v-400q0 -67 34 -105.5t94 -38.5q57 0 92.5 39t35.5 105v400h160z" />
    <glyph glyph-name="umacron" unicode="&#x16b;" 
d="M152 576v80h304v-80h-304zM144 9.5q-44 25.5 -70 76t-26 122.5v288h160v-272q0 -54 23.5 -75t56.5 -21q34 0 65 26t31 86v256h160v-496h-160v48q-26 -30 -63.5 -47t-80.5 -17q-52 0 -96 25.5z" />
    <glyph glyph-name="Uring" unicode="&#x16e;" horiz-adv-x="672" 
d="M421 909q35 -35 35 -85t-35 -85t-85 -35t-85 35t-35 85t35 85t85 35t85 -35zM371 789q15 15 15 35t-15 35t-35 15t-35 -15t-15 -35t15 -35t35 -15t35 15zM624 672v-384q0 -89 -34.5 -158t-99.5 -107.5t-154 -38.5q-91 0 -156 38.5t-98.5 107.5t-33.5 158v384h160v-400
q0 -67 34 -105.5t94 -38.5q57 0 92.5 39t35.5 105v400h160z" />
    <glyph glyph-name="uring" unicode="&#x16f;" 
d="M389 733q35 -35 35 -85t-35 -85t-85 -35t-85 35t-35 85t35 85t85 35t85 -35zM339 613q15 15 15 35t-15 35t-35 15t-35 -15t-15 -35t15 -35t35 -15t35 15zM144 9.5q-44 25.5 -70 76t-26 122.5v288h160v-272q0 -54 23.5 -75t56.5 -21q34 0 65 26t31 86v256h160v-496h-160
v48q-26 -30 -63.5 -47t-80.5 -17q-52 0 -96 25.5z" />
    <glyph glyph-name="Uhungarumlaut" unicode="&#x170;" horiz-adv-x="672" 
d="M204 880h128l-80 -144h-80zM428 880h128l-80 -144h-80zM624 672v-384q0 -89 -34.5 -158t-99.5 -107.5t-154 -38.5q-91 0 -156 38.5t-98.5 107.5t-33.5 158v384h160v-400q0 -67 34 -105.5t94 -38.5q57 0 92.5 39t35.5 105v400h160z" />
    <glyph glyph-name="uhungarumlaut" unicode="&#x171;" 
d="M160 704h128l-80 -144h-80zM384 704h128l-80 -144h-80zM144 9.5q-44 25.5 -70 76t-26 122.5v288h160v-272q0 -54 23.5 -75t56.5 -21q34 0 65 26t31 86v256h160v-496h-160v48q-26 -30 -63.5 -47t-80.5 -17q-52 0 -96 25.5z" />
    <glyph glyph-name="Uogonek" unicode="&#x172;" horiz-adv-x="672" 
d="M624 672v-384q0 -120 -60.5 -200.5t-168.5 -98.5q-25 -7 -40.5 -22.5t-15.5 -40.5q0 -33 17 -50t44 -17q24 0 48 13l16 -64q-30 -16 -64 -16q-59 0 -93.5 34.5t-34.5 89.5q0 17 6 37t15 33q-117 14 -181 95.5t-64 206.5v384h160v-400q0 -67 34 -105.5t94 -38.5
q57 0 92.5 39t35.5 105v400h160z" />
    <glyph glyph-name="uogonek" unicode="&#x173;" 
d="M448.5 -17.5q-29.5 -17.5 -29.5 -56.5q0 -33 17 -50t44 -17q24 0 48 13l16 -64q-30 -16 -64 -16q-59 0 -93.5 34.5t-34.5 89.5q0 22 9.5 47.5t22.5 36.5v48q-26 -30 -63.5 -47t-80.5 -17q-52 0 -96 25.5t-70 76t-26 122.5v288h160v-272q0 -54 23.5 -75t56.5 -21
q34 0 65 26t31 86v256h160v-496h-32q-34 0 -63.5 -17.5z" />
    <glyph glyph-name="Wcircumflex" unicode="&#x174;" horiz-adv-x="1024" 
d="M512 800l-48 -64h-128l144 144h64l144 -144h-128zM704 254l136 418h176l-244 -672h-144l-116 370l-116 -370h-144l-244 672h176l136 -418l120 418h144z" />
    <glyph glyph-name="wcircumflex" unicode="&#x175;" horiz-adv-x="784" 
d="M392 624l-48 -64h-128l144 144h64l144 -144h-128zM776 496l-168 -496h-128l-88 266l-88 -266h-128l-168 496h168l72 -282l80 282h128l80 -282l72 282h168z" />
    <glyph glyph-name="Ycircumflex" unicode="&#x176;" horiz-adv-x="672" 
d="M336 800l-48 -64h-128l144 144h64l144 -144h-128zM672 672l-256 -400v-272h-160v272l-256 400h188l148 -256l148 256h188z" />
    <glyph glyph-name="ycircumflex" unicode="&#x177;" horiz-adv-x="544" 
d="M272 624l-48 -64h-128l144 144h64l144 -144h-128zM544 496l-304 -752h-176l129 292l-193 460h176l96 -272l96 272h176z" />
    <glyph glyph-name="Ydieresis" unicode="&#x178;" horiz-adv-x="672" 
d="M181 757q-21 21 -21 51t21 51t51 21t51 -21t21 -51t-21 -51t-51 -21t-51 21zM389 757q-21 21 -21 51t21 51t51 21t51 -21t21 -51t-21 -51t-51 -21t-51 21zM672 672l-256 -400v-272h-160v272l-256 400h188l148 -256l148 256h188z" />
    <glyph glyph-name="Zacute" unicode="&#x179;" horiz-adv-x="624" 
d="M312 880h160l-144 -144h-96zM32 0l300 528h-284v144h544l-300 -528h284v-144h-544z" />
    <glyph glyph-name="zacute" unicode="&#x17a;" horiz-adv-x="528" 
d="M272 704h160l-144 -144h-96zM32 0l208 352h-192v144h448l-208 -352h192v-144h-448z" />
    <glyph glyph-name="Zdotaccent" unicode="&#x17b;" horiz-adv-x="624" 
d="M250 746q-26 26 -26 62t26 62t62 26t62 -26t26 -62t-26 -62t-62 -26t-62 26zM32 0l300 528h-284v144h544l-300 -528h284v-144h-544z" />
    <glyph glyph-name="zdotaccent" unicode="&#x17c;" horiz-adv-x="528" 
d="M202 570q-26 26 -26 62t26 62t62 26t62 -26t26 -62t-26 -62t-62 -26t-62 26zM32 0l208 352h-192v144h448l-208 -352h192v-144h-448z" />
    <glyph glyph-name="Zcaron" unicode="&#x17d;" horiz-adv-x="624" 
d="M488 880l-144 -144h-64l-144 144h128l48 -64l48 64h128zM32 0l300 528h-284v144h544l-300 -528h284v-144h-544z" />
    <glyph glyph-name="zcaron" unicode="&#x17e;" horiz-adv-x="528" 
d="M440 704l-144 -144h-64l-144 144h128l48 -64l48 64h128zM32 0l208 352h-192v144h448l-208 -352h192v-144h-448z" />
    <glyph glyph-name="Aringacute" unicode="&#x1fa;" horiz-adv-x="704" 
d="M352 1120h160l-144 -144h-96zM437 909q35 -35 35 -85t-35 -85t-85 -35t-85 35t-35 85t35 85t85 35t85 -35zM387 789q15 15 15 35t-15 35t-35 15t-35 -15t-15 -35t15 -35t35 -15t35 15zM486 112h-268l-42 -112h-176l278 672h148l278 -672h-176zM431 256l-79 208l-79 -208
h158z" />
    <glyph glyph-name="aringacute" unicode="&#x1fb;" horiz-adv-x="640" 
d="M352 944h160l-144 -144h-96zM429 733q35 -35 35 -85t-35 -85t-85 -35t-85 35t-35 85t35 85t85 35t85 -35zM379 613q15 15 15 35t-15 35t-35 15t-35 -15t-15 -35t15 -35t35 -15t35 15zM576 496v-496h-160v42q-61 -58 -144 -58q-65 0 -120.5 35.5t-87.5 96t-32 132.5
t32 132.5t87.5 96t120.5 35.5q83 0 144 -58v42h160zM383 163q33 35 33 85t-33 85t-79 35t-79 -35t-33 -85t33 -85t79 -35t79 35z" />
    <glyph glyph-name="AEacute" unicode="&#x1fc;" horiz-adv-x="864" 
d="M456 880h160l-144 -144h-96zM544 528v-120h224v-144h-224v-120h272v-144h-432v112h-158l-50 -112h-176l310 672h506v-144h-272zM384 256v208l-93 -208h93z" />
    <glyph glyph-name="aeacute" unicode="&#x1fd;" horiz-adv-x="896" 
d="M448 704h160l-144 -144h-96zM862 208h-342q10 -36 42 -58t81 -22q31 0 71 8t74 22l44 -127q0 -2 -26.5 -14t-69 -22.5t-97.5 -10.5q-30 0 -54 3.5t-60 12.5h-157v33q-24 -22 -63 -35.5t-81 -13.5q-56 0 -100 22t-68 60t-24 86q0 38 16.5 75.5t75.5 65.5q49 23 127 23
q59 0 117 -12q0 72 -97 72q-9 0 -31 -2q-31 -3 -59.5 -11.5t-46 -16.5t-22.5 -10l-48 112q0 2 34 19t83.5 31t106.5 14q113 0 171 -44q60 44 157 44q118 0 183 -69.5t65 -194.5q0 -14 -2 -40zM696 304q0 30 -23 55t-65 25q-24 0 -44.5 -12.5t-32 -31.5t-11.5 -36h176z
M368 224h-44q-66 0 -99 -18t-33 -46q0 -29 25 -46.5t63 -17.5q35 0 61.5 18t26.5 46v64z" />
    <glyph glyph-name="Scommaaccent" unicode="&#x218;" horiz-adv-x="624" 
d="M467.5 380q57.5 -24 91 -66.5t33.5 -111.5q0 -63 -32.5 -112.5t-95.5 -77.5t-152 -28q-76 0 -138.5 25t-102 54t-39.5 33l73 128q51 -51 105 -73.5t102 -22.5q120 0 120 64q0 25 -24 40.5t-88 26.5q-136 23 -200 74t-64 137q0 60 32 109.5t92.5 79t141.5 29.5
q46 0 116.5 -17t127.5 -69l-70 -126q0 2 -23.5 20t-62.5 33t-90 15q-44 0 -74 -15t-30 -42q0 -24 22 -37.5t82 -26.5q90 -19 147.5 -43zM256 -64h128l-80 -144h-80z" />
    <glyph glyph-name="scommaaccent" unicode="&#x219;" horiz-adv-x="544" 
d="M461 273q51 -39 51 -113q0 -80 -63.5 -128t-190.5 -48q-63 0 -113.5 14t-81.5 30t-31 18l43 130q27 -19 62.5 -31t62.5 -17t35 -6q32 -2 46 -2q71 0 71 25q0 11 -9.5 17t-29 9.5t-66.5 8.5q-116 15 -157.5 61.5t-41.5 102.5q0 77 58 122.5t177 45.5q9 0 40.5 -2.5
t74 -11.5t75.5 -27l-37 -129q-6 3 -28 12t-55.5 17t-66.5 8q-38 0 -58 -4t-20 -17q0 -14 17 -20t37.5 -9t27.5 -4q120 -13 171 -52zM208 -64h128l-80 -144h-80z" />
    <glyph glyph-name="uni021A" unicode="&#x21a;" horiz-adv-x="576" 
d="M544 672v-144h-176v-528h-160v528h-176v144h512zM224 -64h128l-80 -144h-80z" />
    <glyph glyph-name="uni021B" unicode="&#x21b;" horiz-adv-x="400" 
d="M96 352h-64v144h64v176h160v-176h96v-144h-96v-144q0 -48 10 -66.5t42 -18.5q14 0 44 5v-128q-47 -16 -112 -16q-73 0 -108.5 44.5t-35.5 112.5v211zM136 -64h128l-80 -144h-80z" />
    <glyph glyph-name="circumflex" unicode="&#x2c6;" horiz-adv-x="800" 
d="M400 800l-48 -64h-128l144 144h64l144 -144h-128z" />
    <glyph glyph-name="caron" unicode="&#x2c7;" horiz-adv-x="800" 
d="M576 880l-144 -144h-64l-144 144h128l48 -64l48 64h128z" />
    <glyph glyph-name="breve" unicode="&#x2d8;" horiz-adv-x="800" 
d="M544 880q0 -39 -19.5 -72t-52.5 -52.5t-72 -19.5t-72 19.5t-52.5 52.5t-19.5 72h80q0 -26 19 -45t45 -19t45 19t19 45h80z" />
    <glyph glyph-name="dotaccent" unicode="&#x2d9;" horiz-adv-x="800" 
d="M338 746q-26 26 -26 62t26 62t62 26t62 -26t26 -62t-26 -62t-62 -26t-62 26z" />
    <glyph glyph-name="ring" unicode="&#x2da;" horiz-adv-x="800" 
d="M485 909q35 -35 35 -85t-35 -85t-85 -35t-85 35t-35 85t35 85t85 35t85 -35zM435 789q15 15 15 35t-15 35t-35 15t-35 -15t-15 -35t15 -35t35 -15t35 15z" />
    <glyph glyph-name="ogonek" unicode="&#x2db;" horiz-adv-x="800" 
d="M480 0q-34 0 -63.5 -17.5t-29.5 -56.5q0 -33 17 -50t44 -17q24 0 48 13l16 -64q-30 -16 -64 -16q-59 0 -93.5 34.5t-34.5 89.5q0 22 9.5 47.5t22.5 36.5h128z" />
    <glyph glyph-name="tilde" unicode="&#x2dc;" horiz-adv-x="800" 
d="M600 822q-23 -47 -53 -66.5t-66 -19.5q-38 0 -81 18q-44 18 -67 18q-17 0 -29.5 -8.5t-22.5 -27.5l-81 26q24 47 53.5 66.5t65.5 19.5q34 0 81 -18q47 -19 67 -19q17 0 29.5 9t22.5 28z" />
    <glyph glyph-name="hungarumlaut" unicode="&#x2dd;" horiz-adv-x="800" 
d="M256 880h128l-80 -144h-80zM480 880h128l-80 -144h-80z" />
    <glyph glyph-name="Alphatonos" unicode="&#x386;" horiz-adv-x="720" 
d="M502 112h-268l-42 -112h-176l278 672h148l278 -672h-176zM64 672h128l-80 -144h-80zM447 256l-79 208l-79 -208h158z" />
    <glyph glyph-name="Epsilontonos" unicode="&#x388;" horiz-adv-x="704" 
d="M64 672h128l-80 -144h-80zM384 528v-120h224v-144h-224v-120h272v-144h-432v672h432v-144h-272z" />
    <glyph glyph-name="Etatonos" unicode="&#x389;" horiz-adv-x="864" 
d="M64 672h128l-80 -144h-80zM800 672v-672h-160v264h-256v-264h-160v672h160v-264h256v264h160z" />
    <glyph glyph-name="Iotatonos" unicode="&#x38a;" horiz-adv-x="448" 
d="M64 672h128l-80 -144h-80zM224 0v672h160v-672h-160z" />
    <glyph glyph-name="Omicrontonos" unicode="&#x38c;" horiz-adv-x="880" 
d="M668.5 640.5q82.5 -47.5 131 -128.5t48.5 -176t-48.5 -176t-131 -128.5t-180.5 -47.5t-180.5 47.5t-131 128.5t-48.5 176t48.5 176t131 128.5t180.5 47.5t180.5 -47.5zM64 672h128l-80 -144h-80zM588 156q46 28 73 75.5t27 104.5t-27 104.5t-73 75.5t-100 28t-100 -28
t-73 -75.5t-27 -104.5t27 -104.5t73 -75.5t100 -28t100 28z" />
    <glyph glyph-name="Upsilontonos" unicode="&#x38e;" horiz-adv-x="896" 
d="M64 672h128l-80 -144h-80zM896 672l-256 -400v-272h-160v272l-256 400h188l148 -256l148 256h188z" />
    <glyph glyph-name="Omegatonos" unicode="&#x38f;" horiz-adv-x="864" 
d="M779.5 251q-36.5 -68 -96.5 -107h133v-144h-304v160q68 46 106 99.5t38 124.5q0 44 -23.5 80.5t-64 58t-88.5 21.5t-88.5 -21.5t-64 -58t-23.5 -80.5q0 -71 38 -124.5t106 -99.5v-160h-304v144h133q-60 39 -96.5 107t-36.5 133q0 86 40.5 155t116.5 109t179 40t179 -40
t116.5 -109t40.5 -155q0 -65 -36.5 -133zM64 672h128l-80 -144h-80z" />
    <glyph glyph-name="iotadieresistonos" unicode="&#x390;" horiz-adv-x="320" 
d="M-75 581q-21 21 -21 51t21 51t51 21t51 -21t21 -51t-21 -51t-51 -21t-51 21zM112 704h128l-80 -144h-80zM277 581q-21 21 -21 51t21 51t51 21t51 -21t21 -51t-21 -51t-51 -21t-51 21zM224 192q0 -36 9 -51.5t31 -15.5q11 0 24 3v-128q-25 -9 -43.5 -12.5t-46.5 -3.5
q-76 0 -105 46.5t-29 142.5v323h160v-304z" />
    <glyph glyph-name="Alpha" unicode="&#x391;" horiz-adv-x="704" 
d="M486 112h-268l-42 -112h-176l278 672h148l278 -672h-176zM431 256l-79 208l-79 -208h158z" />
    <glyph glyph-name="Beta" unicode="&#x392;" horiz-adv-x="640" 
d="M579.5 295q28.5 -40 28.5 -93q0 -58 -27.5 -104t-80 -72t-122.5 -26h-314v672h256q121 0 188.5 -42.5t67.5 -133.5q0 -43 -23 -85t-58 -58q56 -18 84.5 -58zM224 416h96q96 0 96 57q0 30 -24 42.5t-72 12.5h-96v-112zM448 209q0 32 -29.5 47.5t-82.5 15.5h-112v-128h112
q112 0 112 65z" />
    <glyph glyph-name="Gamma" unicode="&#x393;" horiz-adv-x="528" 
d="M224 528v-528h-160v672h432v-144h-272z" />
    <glyph glyph-name="uni0394" unicode="&#x394;" horiz-adv-x="704" 
d="M704 0h-704l278 672h148zM473 144l-121 320l-121 -320h242z" />
    <glyph glyph-name="Epsilon" unicode="&#x395;" horiz-adv-x="544" 
d="M224 528v-120h224v-144h-224v-120h272v-144h-432v672h432v-144h-272z" />
    <glyph glyph-name="Zeta" unicode="&#x396;" horiz-adv-x="624" 
d="M32 0l300 528h-284v144h544l-300 -528h284v-144h-544z" />
    <glyph glyph-name="Eta" unicode="&#x397;" horiz-adv-x="704" 
d="M640 672v-672h-160v264h-256v-264h-160v672h160v-264h256v264h160z" />
    <glyph glyph-name="Theta" unicode="&#x398;" horiz-adv-x="784" 
d="M572.5 640.5q82.5 -47.5 131 -128.5t48.5 -176t-48.5 -176t-131 -128.5t-180.5 -47.5t-180.5 47.5t-131 128.5t-48.5 176t48.5 176t131 128.5t180.5 47.5t180.5 -47.5zM492 156q46 28 73 75.5t27 104.5t-27 104.5t-73 75.5t-100 28t-100 -28t-73 -75.5t-27 -104.5
t27 -104.5t73 -75.5t100 -28t100 28zM240 376h304v-80h-304v80z" />
    <glyph glyph-name="Iota" unicode="&#x399;" horiz-adv-x="288" 
d="M64 0v672h160v-672h-160z" />
    <glyph glyph-name="Kappa" unicode="&#x39a;" horiz-adv-x="656" 
d="M640 0h-192l-224 288v-288h-160v672h160v-256l208 256h192l-256 -320z" />
    <glyph glyph-name="Lambda" unicode="&#x39b;" horiz-adv-x="704" 
d="M352 464l-176 -464h-176l278 672h148l278 -672h-176z" />
    <glyph glyph-name="Mu" unicode="&#x39c;" horiz-adv-x="864" 
d="M832 0h-160l-48 384l-144 -384h-96l-144 384l-48 -384h-160l80 672h160l160 -400l160 400h160z" />
    <glyph glyph-name="Nu" unicode="&#x39d;" horiz-adv-x="752" 
d="M688 672v-672h-160l-304 416v-416h-160v672h160l304 -416v416h160z" />
    <glyph glyph-name="Xi" unicode="&#x39e;" horiz-adv-x="592" 
d="M48 672h496v-144h-496v144zM96 408h400v-144h-400v144zM48 144h496v-144h-496v144z" />
    <glyph glyph-name="Omicron" unicode="&#x39f;" horiz-adv-x="784" 
d="M572.5 640.5q82.5 -47.5 131 -128.5t48.5 -176t-48.5 -176t-131 -128.5t-180.5 -47.5t-180.5 47.5t-131 128.5t-48.5 176t48.5 176t131 128.5t180.5 47.5t180.5 -47.5zM492 156q46 28 73 75.5t27 104.5t-27 104.5t-73 75.5t-100 28t-100 -28t-73 -75.5t-27 -104.5
t27 -104.5t73 -75.5t100 -28t100 28z" />
    <glyph glyph-name="Pi" unicode="&#x3a0;" horiz-adv-x="704" 
d="M640 0h-160v528h-256v-528h-160v672h576v-672z" />
    <glyph glyph-name="Rho" unicode="&#x3a1;" horiz-adv-x="624" 
d="M527.5 611q64.5 -61 64.5 -163q0 -62 -27 -115t-77.5 -85t-119.5 -32h-144v-216h-160v672h272q127 0 191.5 -61zM404 382.5q28 22.5 28 61.5q0 43 -27 63.5t-70 20.5h-111v-168h111q41 0 69 22.5z" />
    <glyph glyph-name="Sigma" unicode="&#x3a3;" horiz-adv-x="624" 
d="M432 336l-166 -192h294v-144h-496v144l176 192l-176 192v144h496v-144h-294z" />
    <glyph glyph-name="Tau" unicode="&#x3a4;" horiz-adv-x="576" 
d="M544 672v-144h-176v-528h-160v528h-176v144h512z" />
    <glyph glyph-name="Upsilon" unicode="&#x3a5;" horiz-adv-x="672" 
d="M672 672l-256 -400v-272h-160v272l-256 400h188l148 -256l148 256h188z" />
    <glyph glyph-name="Phi" unicode="&#x3a6;" horiz-adv-x="768" 
d="M696 206.5q-40 -66.5 -103 -104.5t-129 -38v-64h-160v64q-66 0 -129 38t-103 104.5t-40 145.5q0 81 40.5 147t104 103.5t127.5 37.5v64h160v-64q64 0 127.5 -37.5t104 -103.5t40.5 -147q0 -79 -40 -145.5zM304 496q-24 0 -50 -15.5t-44 -48t-18 -80.5q0 -49 18 -81.5
t44 -47.5t50 -15v288zM514.5 223q25.5 15 43.5 47.5t18 81.5q0 48 -18 80.5t-44 48t-50 15.5v-288q25 0 50.5 15z" />
    <glyph glyph-name="Chi" unicode="&#x3a7;" horiz-adv-x="720" 
d="M704 0h-192l-152 231l-152 -231h-192l240 352l-224 320h185l143 -212l143 212h185l-224 -320z" />
    <glyph glyph-name="Psi" unicode="&#x3a8;" horiz-adv-x="864" 
d="M800 672v-238q0 -149 -77.5 -215t-210.5 -83v-136h-160v136q-133 17 -210.5 83t-77.5 215v238h160v-268q0 -63 38.5 -91.5t89.5 -32.5v392h160v-392q51 4 89.5 32.5t38.5 91.5v268h160z" />
    <glyph glyph-name="uni03A9" unicode="&#x3a9;" horiz-adv-x="768" 
d="M683.5 251q-36.5 -68 -96.5 -107h133v-144h-304v160q68 46 106 99.5t38 124.5q0 44 -23.5 80.5t-64 58t-88.5 21.5t-88.5 -21.5t-64 -58t-23.5 -80.5q0 -71 38 -124.5t106 -99.5v-160h-304v144h133q-60 39 -96.5 107t-36.5 133q0 86 40.5 155t116.5 109t179 40t179 -40
t116.5 -109t40.5 -155q0 -65 -36.5 -133z" />
    <glyph glyph-name="Iotadieresis" unicode="&#x3aa;" horiz-adv-x="288" 
d="M-11 757q-21 21 -21 51t21 51t51 21t51 -21t21 -51t-21 -51t-51 -21t-51 21zM197 757q-21 21 -21 51t21 51t51 21t51 -21t21 -51t-21 -51t-51 -21t-51 21zM64 0v672h160v-672h-160z" />
    <glyph glyph-name="Upsilondieresis" unicode="&#x3ab;" horiz-adv-x="672" 
d="M181 757q-21 21 -21 51t21 51t51 21t51 -21t21 -51t-21 -51t-51 -21t-51 21zM389 757q-21 21 -21 51t21 51t51 21t51 -21t21 -51t-21 -51t-51 -21t-51 21zM672 672l-256 -400v-272h-160v272l-256 400h188l148 -256l148 256h188z" />
    <glyph glyph-name="alphatonos" unicode="&#x3ac;" horiz-adv-x="672" 
d="M320 704h128l-80 -144h-80zM585 141q9 -15 33 -15q6 0 22 2v-128q-28 -9 -43.5 -12.5t-42.5 -3.5q-83 0 -115 57q-28 -26 -73.5 -41.5t-93.5 -15.5q-65 0 -120.5 35.5t-87.5 96t-32 132.5t32 132.5t87.5 96t120.5 35.5q83 0 144 -58v42h160v-304q0 -36 9 -51zM383 163
q33 35 33 85t-33 85t-79 35t-79 -35t-33 -85t33 -85t79 -35t79 35z" />
    <glyph glyph-name="epsilontonos" unicode="&#x3ad;" horiz-adv-x="528" 
d="M248 704h128l-80 -144h-80zM393 137q38 9 63 23l40 -115q-43 -31 -100 -46t-109 -15q-110 0 -174.5 43t-64.5 123q0 35 22 67.5t55 46.5q-32 13 -50.5 40t-18.5 58q0 73 61.5 111.5t172.5 38.5q49 0 104.5 -16.5t97.5 -45.5l-44 -122q-27 17 -62.5 28.5t-75.5 11.5
q-43 0 -68.5 -10.5t-25.5 -28.5q0 -41 152 -41v-80q-73 0 -116.5 -8t-43.5 -34q0 -21 35.5 -29.5t80.5 -8.5q31 0 69 9z" />
    <glyph glyph-name="etatonos" unicode="&#x3ae;" 
d="M264 704h128l-80 -144h-80zM464 486.5q44 -25.5 70 -76t26 -122.5v-544h-160v528q0 54 -23.5 75t-56.5 21q-34 0 -65 -26t-31 -86v-256h-160v496h160v-48q26 30 63.5 47t80.5 17q52 0 96 -25.5z" />
    <glyph glyph-name="iotatonos" unicode="&#x3af;" horiz-adv-x="320" 
d="M112 704h128l-80 -144h-80zM224 192q0 -36 9 -51.5t31 -15.5q11 0 24 3v-128q-25 -9 -43.5 -12.5t-46.5 -3.5q-76 0 -105 46.5t-29 142.5v323h160v-304z" />
    <glyph glyph-name="upsilondieresistonos" unicode="&#x3b0;" 
d="M61 581q-21 21 -21 51t21 51t51 21t51 -21t21 -51t-21 -51t-51 -21t-51 21zM248 704h128l-80 -144h-80zM413 581q-21 21 -21 51t21 51t51 21t51 -21t21 -51t-21 -51t-51 -21t-51 21zM547.5 384.5q12.5 -50.5 12.5 -108.5q0 -133 -67 -212.5t-189 -79.5q-126 0 -191 71
t-65 193v248h160v-266q0 -52 29 -77t67 -25q42 0 69 37.5t27 96.5q0 111 -40 234h152q23 -61 35.5 -111.5z" />
    <glyph glyph-name="alpha" unicode="&#x3b1;" horiz-adv-x="672" 
d="M585 141q9 -15 33 -15q6 0 22 2v-128q-28 -9 -43.5 -12.5t-42.5 -3.5q-83 0 -115 57q-28 -26 -73.5 -41.5t-93.5 -15.5q-65 0 -120.5 35.5t-87.5 96t-32 132.5t32 132.5t87.5 96t120.5 35.5q83 0 144 -58v42h160v-304q0 -36 9 -51zM383 163q33 35 33 85t-33 85t-79 35
t-79 -35t-33 -85t33 -85t79 -35t79 35z" />
    <glyph glyph-name="beta" unicode="&#x3b2;" 
d="M515.5 351q29.5 -27 45 -65t15.5 -73q0 -60 -27.5 -112.5t-81.5 -84.5t-131 -32q-41 0 -74 9.5t-54 22.5v-272h-160v744q0 100 47 151.5t100.5 66t93.5 14.5q120 0 179.5 -59t59.5 -149q0 -40 -24.5 -79t-55.5 -49q38 -6 67.5 -33zM252.5 131q27.5 -7 54.5 -7
q47 0 78 23.5t31 76.5q0 96 -176 96v96q62 0 95 22.5t33 57.5q0 36 -19.5 58t-60.5 22q-35 0 -57.5 -23t-22.5 -57v-348q17 -10 44.5 -17z" />
    <glyph glyph-name="gamma" unicode="&#x3b3;" horiz-adv-x="544" 
d="M352 38v-294h-160v294l-192 458h176l96 -272l96 272h176z" />
    <glyph glyph-name="delta" unicode="&#x3b4;" 
d="M541.5 114.5q-34.5 -60.5 -96.5 -95.5t-141 -35q-82 0 -144 35t-95 95.5t-33 133.5t32 133t91 94q-31 24 -45 48.5t-14 54.5q0 11 1 17q3 30 31.5 59t76.5 47.5t106 18.5q42 0 92.5 -8.5t92.5 -23.5l-16 -136q-33 12 -75.5 19t-77.5 7q-15 0 -33 -2q-16 -2 -23.5 -8
t-7.5 -13q0 -8 8 -15t22 -10q144 -32 213.5 -101t69.5 -181q0 -73 -34.5 -133.5zM383 163q33 35 33 85q0 45 -29 75t-83 60l-20 11q-35 -19 -63.5 -52t-28.5 -94q0 -50 33 -85t79 -35t79 35z" />
    <glyph glyph-name="epsilon" unicode="&#x3b5;" horiz-adv-x="528" 
d="M393 137q38 9 63 23l40 -115q-43 -31 -100 -46t-109 -15q-110 0 -174.5 43t-64.5 123q0 35 22 67.5t55 46.5q-32 13 -50.5 40t-18.5 58q0 73 61.5 111.5t172.5 38.5q49 0 104.5 -16.5t97.5 -45.5l-44 -122q-27 17 -62.5 28.5t-75.5 11.5q-43 0 -68.5 -10.5t-25.5 -28.5
q0 -41 152 -41v-80q-73 0 -116.5 -8t-43.5 -34q0 -21 35.5 -29.5t80.5 -8.5q31 0 69 9z" />
    <glyph glyph-name="zeta" unicode="&#x3b6;" horiz-adv-x="544" 
d="M363 428.5q-70 -58.5 -112.5 -115.5t-42.5 -93q0 -40 20 -59.5t50 -26t81 -9.5q57 -4 90 -11.5t56 -32.5t23 -75q0 -46 -16 -102h-128q5 23 5 37q0 23 -16.5 33t-60.5 10q-126 0 -195 49.5t-69 158.5q0 91 71.5 179t187.5 157h-211v144h416v-144q-79 -41 -149 -99.5z" />
    <glyph glyph-name="eta" unicode="&#x3b7;" 
d="M464 486.5q44 -25.5 70 -76t26 -122.5v-544h-160v528q0 54 -23.5 75t-56.5 21q-34 0 -65 -26t-31 -86v-256h-160v496h160v-48q26 30 63.5 47t80.5 17q52 0 96 -25.5z" />
    <glyph glyph-name="theta" unicode="&#x3b8;" horiz-adv-x="624" 
d="M453 641q60 -47 91.5 -127t31.5 -178t-31.5 -178t-91.5 -127t-141 -47q-82 0 -142 46.5t-91 127t-31 178.5t31.5 178t91.5 127t141 47t141 -47zM242 497.5q-27 -46.5 -32 -121.5h204q-5 75 -32 121.5t-70 46.5t-70 -46.5zM382 174.5q27 46.5 32 121.5h-204
q5 -75 32 -121.5t70 -46.5t70 46.5z" />
    <glyph glyph-name="iota" unicode="&#x3b9;" horiz-adv-x="320" 
d="M224 192q0 -36 9 -51.5t31 -15.5q11 0 24 3v-128q-25 -9 -43.5 -12.5t-46.5 -3.5q-76 0 -105 46.5t-29 142.5v323h160v-304z" />
    <glyph glyph-name="kappa" unicode="&#x3ba;" horiz-adv-x="592" 
d="M592 0h-192l-176 196v-196h-160v496h160v-188l160 188h192l-208 -240z" />
    <glyph glyph-name="lambda" unicode="&#x3bb;" horiz-adv-x="624" 
d="M522.5 146.5q18.5 -21.5 45.5 -21.5q11 0 24 3v-128q-21 -9 -36 -12.5t-42 -3.5q-47 0 -79.5 27t-57 77t-55.5 138l-16 46l-98 -272h-176l200 475q-21 59 -41.5 82t-48.5 23q-15 0 -30 -4v128q18 8 34 12t42 4q53 0 87.5 -29t57 -75t54.5 -132l99 -268q18 -48 36.5 -69.5
z" />
    <glyph glyph-name="uni03BC" unicode="&#x3bc;" horiz-adv-x="624" 
d="M560 496v-496h-160v48q-26 -30 -63.5 -47t-80.5 -17q-17 0 -32 3v-243h-160v752h160v-272q0 -54 23.5 -75t56.5 -21q34 0 65 26t31 86v256h160z" />
    <glyph glyph-name="nu" unicode="&#x3bd;" horiz-adv-x="544" 
d="M0 496h176l96 -272l96 272h176l-208 -496h-128z" />
    <glyph glyph-name="xi" unicode="&#x3be;" horiz-adv-x="560" 
d="M230 149q22 -18 63 -21l37 -2q64 -3 107 -11t75 -36t32 -85q0 -46 -16 -90h-128q4 16 4 31q0 26 -19 37.5t-65 11.5q-146 0 -209 49.5t-63 148.5q0 58 34 98t98 68q-116 46 -116 166q0 99 65 152.5t185 53.5q53 0 108 -18t90 -46l-56 -120q-32 19 -70.5 29.5t-73.5 10.5
q-45 0 -74.5 -12t-29.5 -51q0 -29 30 -53t84.5 -38t125.5 -14v-128q-113 0 -176.5 -18t-63.5 -64q0 -31 22 -49z" />
    <glyph glyph-name="omicron" unicode="&#x3bf;" 
d="M444 476.5q62 -35.5 97 -95.5t35 -133t-34.5 -133.5t-96.5 -95.5t-141 -35q-82 0 -144 35t-95 95.5t-33 133.5q0 74 33 134t94.5 95t144.5 35q78 0 140 -35.5zM383 163q33 35 33 85t-33 85t-79 35t-79 -35t-33 -85t33 -85t79 -35t79 35z" />
    <glyph glyph-name="pi" unicode="&#x3c0;" horiz-adv-x="656" 
d="M528 192q0 -36 9 -51.5t31 -15.5q11 0 24 3v-128q-39 -16 -78 -16q-76 0 -107 47t-31 142v179h-120v-352h-160v352h-64v144h576v-144h-80v-160z" />
    <glyph glyph-name="rho" unicode="&#x3c1;" horiz-adv-x="640" 
d="M476 476.5q62 -35.5 97 -95.5t35 -133t-32 -133.5t-90.5 -95.5t-133.5 -35t-128 31v-271h-160v504q0 74 33 134t94.5 95t144.5 35q78 0 140 -35.5zM415 163q33 35 33 85t-33 85t-79 35t-79 -35t-33 -85t33 -85t79 -35t79 35z" />
    <glyph glyph-name="uni03C2" unicode="&#x3c2;" horiz-adv-x="560" 
d="M366 122q59 -6 94.5 -15t59.5 -33.5t24 -71.5q0 -42 -16 -98h-128q4 20 4 28q0 28 -21.5 40t-74.5 12q-85 0 -147.5 35t-95.5 95t-33 134q0 73 33.5 133.5t96 95.5t146.5 35q53 0 103.5 -15t84.5 -46l-58 -129q-25 22 -56 34t-64 12q-52 0 -89 -35t-37 -85
q0 -57 33.5 -84t91.5 -36z" />
    <glyph glyph-name="sigma" unicode="&#x3c3;" horiz-adv-x="640" 
d="M608 352h-69q37 -59 37 -128q0 -63 -34.5 -118.5t-96.5 -88.5t-141 -33q-82 0 -144 34t-95 92.5t-33 129.5q0 72 33 130t94.5 92t144.5 34h304v-144zM383.5 161q32.5 33 32.5 79q0 47 -32.5 79.5t-79.5 32.5q-46 0 -79 -32.5t-33 -79.5q0 -46 33 -79t79 -33q47 0 79.5 33
z" />
    <glyph glyph-name="tau" unicode="&#x3c4;" horiz-adv-x="512" 
d="M336 192q0 -36 9 -51.5t31 -15.5q11 0 24 3v-128q-40 -16 -90 -16q-76 0 -105 46.5t-29 142.5v179h-144v144h448v-144h-144v-160z" />
    <glyph glyph-name="upsilon" unicode="&#x3c5;" 
d="M547.5 384.5q12.5 -50.5 12.5 -108.5q0 -133 -67 -212.5t-189 -79.5q-126 0 -191 71t-65 193v248h160v-266q0 -52 29 -77t67 -25q42 0 69 37.5t27 96.5q0 111 -40 234h152q23 -61 35.5 -111.5z" />
    <glyph glyph-name="phi" unicode="&#x3c6;" horiz-adv-x="768" 
d="M662 430q74 -70 74 -182t-74 -182t-198 -82v-240h-160v240q-124 12 -198 82t-74 182t74 182t198 82v192h160v-192q124 -12 198 -82zM304 368q-50 -8 -81 -38t-31 -82t31 -82t81 -38v240zM545 330q-31 30 -81 38v-240q50 8 81 38t31 82t-31 82z" />
    <glyph glyph-name="chi" unicode="&#x3c7;" 
d="M592 0h-192l-96 140l-96 -140h-192l192 264l-176 232h192l80 -124l80 124h192l-176 -232z" />
    <glyph glyph-name="psi" unicode="&#x3c8;" horiz-adv-x="800" 
d="M752 496v-230q0 -126 -72 -198t-200 -84v-240h-160v240q-128 12 -200 84t-72 198v230h160v-234q0 -62 33 -94.5t79 -39.5v368h160v-368q46 7 79 39.5t33 94.5v234h160z" />
    <glyph glyph-name="omega" unicode="&#x3c9;" horiz-adv-x="832" 
d="M768 381.5q16 -61.5 16 -121.5q0 -134 -57 -205t-159 -71q-53 0 -88 15.5t-64 53.5q-29 -38 -64 -53.5t-88 -15.5q-103 0 -159.5 70.5t-56.5 205.5q0 60 16 121.5t41 114.5h152q-21 -59 -35 -124.5t-14 -117.5q0 -59 19.5 -92.5t52.5 -33.5q27 0 41.5 24t14.5 78v202h160
v-202q0 -54 14.5 -78t41.5 -24q33 0 52.5 33.5t19.5 92.5q0 52 -14 117.5t-35 124.5h152q25 -53 41 -114.5z" />
    <glyph glyph-name="iotadieresis" unicode="&#x3ca;" horiz-adv-x="320" 
d="M-11 581q-21 21 -21 51t21 51t51 21t51 -21t21 -51t-21 -51t-51 -21t-51 21zM197 581q-21 21 -21 51t21 51t51 21t51 -21t21 -51t-21 -51t-51 -21t-51 21zM224 192q0 -36 9 -51.5t31 -15.5q11 0 24 3v-128q-25 -9 -43.5 -12.5t-46.5 -3.5q-76 0 -105 46.5t-29 142.5v323
h160v-304z" />
    <glyph glyph-name="upsilondieresis" unicode="&#x3cb;" 
d="M117 581q-21 21 -21 51t21 51t51 21t51 -21t21 -51t-21 -51t-51 -21t-51 21zM325 581q-21 21 -21 51t21 51t51 21t51 -21t21 -51t-21 -51t-51 -21t-51 21zM547.5 384.5q12.5 -50.5 12.5 -108.5q0 -133 -67 -212.5t-189 -79.5q-126 0 -191 71t-65 193v248h160v-266
q0 -52 29 -77t67 -25q42 0 69 37.5t27 96.5q0 111 -40 234h152q23 -61 35.5 -111.5z" />
    <glyph glyph-name="omicrontonos" unicode="&#x3cc;" 
d="M280 704h128l-80 -144h-80zM444 476.5q62 -35.5 97 -95.5t35 -133t-34.5 -133.5t-96.5 -95.5t-141 -35q-82 0 -144 35t-95 95.5t-33 133.5q0 74 33 134t94.5 95t144.5 35q78 0 140 -35.5zM383 163q33 35 33 85t-33 85t-79 35t-79 -35t-33 -85t33 -85t79 -35t79 35z" />
    <glyph glyph-name="upsilontonos" unicode="&#x3cd;" 
d="M248 704h128l-80 -144h-80zM547.5 384.5q12.5 -50.5 12.5 -108.5q0 -133 -67 -212.5t-189 -79.5q-126 0 -191 71t-65 193v248h160v-266q0 -52 29 -77t67 -25q42 0 69 37.5t27 96.5q0 111 -40 234h152q23 -61 35.5 -111.5z" />
    <glyph glyph-name="omegatonos" unicode="&#x3ce;" horiz-adv-x="832" 
d="M392 704h128l-80 -144h-80zM768 381.5q16 -61.5 16 -121.5q0 -134 -57 -205t-159 -71q-53 0 -88 15.5t-64 53.5q-29 -38 -64 -53.5t-88 -15.5q-103 0 -159.5 70.5t-56.5 205.5q0 60 16 121.5t41 114.5h152q-21 -59 -35 -124.5t-14 -117.5q0 -59 19.5 -92.5t52.5 -33.5
q27 0 41.5 24t14.5 78v202h160v-202q0 -54 14.5 -78t41.5 -24q33 0 52.5 33.5t19.5 92.5q0 52 -14 117.5t-35 124.5h152q25 -53 41 -114.5z" />
    <glyph glyph-name="uni0401" unicode="&#x401;" horiz-adv-x="544" 
d="M117 757q-21 21 -21 51t21 51t51 21t51 -21t21 -51t-21 -51t-51 -21t-51 21zM325 757q-21 21 -21 51t21 51t51 21t51 -21t21 -51t-21 -51t-51 -21t-51 21zM224 528v-120h224v-144h-224v-120h272v-144h-432v672h432v-144h-272z" />
    <glyph glyph-name="uni0402" unicode="&#x402;" horiz-adv-x="720" 
d="M672 204v-12q0 -163 -64 -225.5t-176 -62.5l-32 144q49 1 80.5 32t31.5 96v8q0 48 -23.5 68t-72.5 20q-17 0 -38.5 -5.5t-37.5 -11t-20 -7.5v-248h-160v528h-128v144h480v-144h-192v-156q27 20 69.5 32t82.5 12q200 0 200 -212z" />
    <glyph glyph-name="uni0403" unicode="&#x403;" horiz-adv-x="528" 
d="M240 880h160l-144 -144h-96zM224 528v-528h-160v672h432v-144h-272z" />
    <glyph glyph-name="uni0404" unicode="&#x404;" horiz-adv-x="656" 
d="M490.5 149q42.5 21 71.5 57l62 -141q-42 -38 -103.5 -59.5t-120.5 -21.5q-100 0 -184.5 47.5t-134 128.5t-49.5 176t49.5 176t134 128.5t184.5 47.5q60 0 121 -21t103 -59l-62 -142q-29 37 -71 57.5t-91 20.5q-69 0 -123.5 -40t-74.5 -104h262v-128h-262
q20 -64 74.5 -104t123.5 -40q48 0 90.5 21z" />
    <glyph glyph-name="uni0405" unicode="&#x405;" horiz-adv-x="624" 
d="M467.5 380q57.5 -24 91 -66.5t33.5 -111.5q0 -63 -32.5 -112.5t-95.5 -77.5t-152 -28q-76 0 -138.5 25t-102 54t-39.5 33l73 128q51 -51 105 -73.5t102 -22.5q120 0 120 64q0 25 -24 40.5t-88 26.5q-136 23 -200 74t-64 137q0 60 32 109.5t92.5 79t141.5 29.5
q46 0 116.5 -17t127.5 -69l-70 -126q0 2 -23.5 20t-62.5 33t-90 15q-44 0 -74 -15t-30 -42q0 -24 22 -37.5t82 -26.5q90 -19 147.5 -43z" />
    <glyph glyph-name="uni0406" unicode="&#x406;" horiz-adv-x="288" 
d="M64 0v672h160v-672h-160z" />
    <glyph glyph-name="uni0407" unicode="&#x407;" horiz-adv-x="288" 
d="M-11 757q-21 21 -21 51t21 51t51 21t51 -21t21 -51t-21 -51t-51 -21t-51 21zM197 757q-21 21 -21 51t21 51t51 21t51 -21t21 -51t-21 -51t-51 -21t-51 21zM64 0v672h160v-672h-160z" />
    <glyph glyph-name="uni0408" unicode="&#x408;" horiz-adv-x="496" 
d="M448 672v-416q0 -134 -69 -203t-188 -69q-46 0 -90.5 17.5t-68.5 44.5l72 120q14 -17 36 -27.5t45 -10.5q44 0 73.5 31t29.5 91v422h160z" />
    <glyph glyph-name="uni0409" unicode="&#x409;" horiz-adv-x="1072" 
d="M976 355q64 -53 64 -147q0 -100 -63.5 -154t-192.5 -54h-256v528h-192v-256q0 -79 -10.5 -131.5t-41.5 -89.5t-90 -53q-42 -11 -81 -11q-27 0 -65 5v144q9 -1 28 -1q45 0 66 13q20 13 27 34t7 53v437h512v-264h96q128 0 192 -53zM851.5 156.5q28.5 12.5 28.5 47.5
q0 36 -28 48t-77 12h-87v-120h87q48 0 76.5 12.5z" />
    <glyph glyph-name="uni040A" unicode="&#x40a;" horiz-adv-x="1024" 
d="M928 355q64 -53 64 -147q0 -100 -63.5 -154t-192.5 -54h-256v264h-256v-264h-160v672h160v-264h256v264h160v-264h96q128 0 192 -53zM803.5 156.5q28.5 12.5 28.5 47.5q0 36 -28 48t-77 12h-87v-120h87q48 0 76.5 12.5z" />
    <glyph glyph-name="uni040B" unicode="&#x40b;" horiz-adv-x="720" 
d="M672 204v-204h-160v184q0 48 -23.5 68t-72.5 20q-17 0 -38.5 -5.5t-37.5 -11t-20 -7.5v-248h-160v528h-128v144h480v-144h-192v-156q27 20 69.5 32t82.5 12q200 0 200 -212z" />
    <glyph glyph-name="uni040C" unicode="&#x40c;" horiz-adv-x="656" 
d="M296 880h160l-144 -144h-96zM640 0h-192l-224 288v-288h-160v672h160v-256l208 256h192l-256 -320z" />
    <glyph glyph-name="uni040E" unicode="&#x40e;" horiz-adv-x="640" 
d="M472 880q0 -39 -19.5 -72t-52.5 -52.5t-72 -19.5t-72 19.5t-52.5 52.5t-19.5 72h80q0 -26 19 -45t45 -19t45 19t19 45h80zM640 672l-344 -672h-180l122 234l-222 438h180l132 -267l132 267h180z" />
    <glyph glyph-name="uni040F" unicode="&#x40f;" horiz-adv-x="704" 
d="M640 672v-672h-208v-128h-160v128h-208v672h160v-528h256v528h160z" />
    <glyph glyph-name="uni0410" unicode="&#x410;" horiz-adv-x="704" 
d="M486 112h-268l-42 -112h-176l278 672h148l278 -672h-176zM431 256l-79 208l-79 -208h158z" />
    <glyph glyph-name="uni0411" unicode="&#x411;" horiz-adv-x="640" 
d="M543 380q65 -60 65 -156q0 -102 -64.5 -163t-191.5 -61h-288v672h480v-144h-320v-88h128q126 0 191 -60zM418.5 161.5q29.5 17.5 29.5 58.5q0 37 -30.5 56.5t-74.5 19.5h-119v-152h119q46 0 75.5 17.5z" />
    <glyph glyph-name="uni0412" unicode="&#x412;" horiz-adv-x="640" 
d="M579.5 295q28.5 -40 28.5 -93q0 -58 -27.5 -104t-80 -72t-122.5 -26h-314v672h256q121 0 188.5 -42.5t67.5 -133.5q0 -43 -23 -85t-58 -58q56 -18 84.5 -58zM224 416h96q96 0 96 57q0 30 -24 42.5t-72 12.5h-96v-112zM448 209q0 32 -29.5 47.5t-82.5 15.5h-112v-128h112
q112 0 112 65z" />
    <glyph glyph-name="uni0413" unicode="&#x413;" horiz-adv-x="528" 
d="M224 528v-528h-160v672h432v-144h-272z" />
    <glyph glyph-name="uni0414" unicode="&#x414;" horiz-adv-x="784" 
d="M752 144v-272h-160v128h-400v-128h-160v272q69 20 101 73t41.5 153.5t9.5 301.5h472v-528h96zM496 144v384h-160q0 -152 -16 -240.5t-59 -143.5h235z" />
    <glyph glyph-name="uni0415" unicode="&#x415;" horiz-adv-x="544" 
d="M224 528v-120h224v-144h-224v-120h272v-144h-432v672h432v-144h-272z" />
    <glyph glyph-name="uni0416" unicode="&#x416;" horiz-adv-x="1024" 
d="M1008 0h-192l-224 272v-272h-160v272l-224 -272h-192l280 340l-264 332h192l208 -272v272h160v-272l208 272h192l-264 -332z" />
    <glyph glyph-name="uni0417" unicode="&#x417;" 
d="M208 396q75 0 133.5 18.5t58.5 59.5t-35.5 55.5t-80.5 14.5q-50 0 -90 -14t-82 -42l-66 112q50 42 120 65t138 23q72 0 130.5 -24t92 -69.5t33.5 -106.5q0 -43 -21 -79.5t-64 -58.5q45 -14 73 -55t28 -95q0 -62 -33 -111t-96 -77t-150 -28q-75 0 -146.5 25.5t-118.5 66.5
l72 114q30 -26 77.5 -44t102.5 -18q49 0 90.5 14t41.5 53q0 44 -60 62.5t-148 18.5v120z" />
    <glyph glyph-name="uni0418" unicode="&#x418;" horiz-adv-x="752" 
d="M224 256l304 416h160v-672h-160v416l-304 -416h-160v672h160v-416z" />
    <glyph glyph-name="uni0419" unicode="&#x419;" horiz-adv-x="752" 
d="M520 880q0 -39 -19.5 -72t-52.5 -52.5t-72 -19.5t-72 19.5t-52.5 52.5t-19.5 72h80q0 -26 19 -45t45 -19t45 19t19 45h80zM224 256l304 416h160v-672h-160v416l-304 -416h-160v672h160v-416z" />
    <glyph glyph-name="uni041A" unicode="&#x41a;" horiz-adv-x="656" 
d="M640 0h-192l-224 288v-288h-160v672h160v-256l208 256h192l-256 -320z" />
    <glyph glyph-name="uni041B" unicode="&#x41b;" horiz-adv-x="752" 
d="M688 0h-160v528h-192v-256q0 -79 -10.5 -131.5t-41.5 -89.5t-90 -53q-42 -11 -81 -11q-27 0 -65 5v144q9 -1 28 -1q45 0 66 13q20 13 27 34t7 53v437h512v-672z" />
    <glyph glyph-name="uni041C" unicode="&#x41c;" horiz-adv-x="864" 
d="M832 0h-160l-48 384l-144 -384h-96l-144 384l-48 -384h-160l80 672h160l160 -400l160 400h160z" />
    <glyph glyph-name="uni041D" unicode="&#x41d;" horiz-adv-x="704" 
d="M640 672v-672h-160v264h-256v-264h-160v672h160v-264h256v264h160z" />
    <glyph glyph-name="uni041E" unicode="&#x41e;" horiz-adv-x="784" 
d="M572.5 640.5q82.5 -47.5 131 -128.5t48.5 -176t-48.5 -176t-131 -128.5t-180.5 -47.5t-180.5 47.5t-131 128.5t-48.5 176t48.5 176t131 128.5t180.5 47.5t180.5 -47.5zM492 156q46 28 73 75.5t27 104.5t-27 104.5t-73 75.5t-100 28t-100 -28t-73 -75.5t-27 -104.5
t27 -104.5t73 -75.5t100 -28t100 28z" />
    <glyph glyph-name="uni041F" unicode="&#x41f;" horiz-adv-x="704" 
d="M640 0h-160v528h-256v-528h-160v672h576v-672z" />
    <glyph glyph-name="uni0420" unicode="&#x420;" horiz-adv-x="624" 
d="M527.5 611q64.5 -61 64.5 -163q0 -62 -27 -115t-77.5 -85t-119.5 -32h-144v-216h-160v672h272q127 0 191.5 -61zM404 382.5q28 22.5 28 61.5q0 43 -27 63.5t-70 20.5h-111v-168h111q41 0 69 22.5z" />
    <glyph glyph-name="uni0421" unicode="&#x421;" horiz-adv-x="656" 
d="M490.5 149q42.5 21 71.5 57l62 -141q-42 -38 -103.5 -59.5t-120.5 -21.5q-100 0 -184.5 47.5t-134 128.5t-49.5 176t49.5 176t134 128.5t184.5 47.5q60 0 121 -21t103 -59l-62 -142q-29 37 -71 57.5t-91 20.5q-57 0 -104.5 -28t-75.5 -75.5t-28 -104.5t28 -104.5
t75.5 -75.5t104.5 -28q48 0 90.5 21z" />
    <glyph glyph-name="uni0422" unicode="&#x422;" horiz-adv-x="576" 
d="M544 672v-144h-176v-528h-160v528h-176v144h512z" />
    <glyph glyph-name="uni0423" unicode="&#x423;" horiz-adv-x="640" 
d="M640 672l-344 -672h-180l122 234l-222 438h180l132 -267l132 267h180z" />
    <glyph glyph-name="uni0424" unicode="&#x424;" horiz-adv-x="832" 
d="M760 205q-40 -66 -110 -103.5t-154 -37.5v-64h-160v64q-84 0 -154 37.5t-110 103.5t-40 147q0 83 41 148.5t110.5 102.5t152.5 37v64h160v-64q83 0 152.5 -37t110.5 -102.5t41 -148.5q0 -81 -40 -147zM336 496q-57 0 -100.5 -36t-43.5 -108q0 -73 43 -108.5t101 -35.5
v288zM597 243.5q43 35.5 43 108.5q0 72 -43 108t-101 36v-288q58 0 101 35.5z" />
    <glyph glyph-name="uni0425" unicode="&#x425;" horiz-adv-x="720" 
d="M704 0h-192l-152 231l-152 -231h-192l240 352l-224 320h185l143 -212l143 212h185l-224 -320z" />
    <glyph glyph-name="uni0426" unicode="&#x426;" horiz-adv-x="784" 
d="M736 144v-272h-160v128h-512v672h160v-528h256v528h160v-528h96z" />
    <glyph glyph-name="uni0427" unicode="&#x427;" horiz-adv-x="656" 
d="M108 270q-60 62 -60 178v224h160v-208q0 -57 25.5 -84.5t78.5 -27.5q20 0 47 7t47 15t26 10v288h160v-672h-160v244q-81 -36 -160 -36q-104 0 -164 62z" />
    <glyph glyph-name="uni0428" unicode="&#x428;" horiz-adv-x="928" 
d="M864 672v-672h-800v672h160v-528h160v528h160v-528h160v528h160z" />
    <glyph glyph-name="uni0429" unicode="&#x429;" horiz-adv-x="1008" 
d="M960 144v-272h-160v128h-736v672h160v-528h160v528h160v-528h160v528h160v-528h96z" />
    <glyph glyph-name="uni042A" unicode="&#x42a;" horiz-adv-x="720" 
d="M623 380q65 -60 65 -156q0 -102 -64.5 -163t-191.5 -61h-272v528h-128v144h288v-232h112q126 0 191 -60zM498.5 161.5q29.5 17.5 29.5 58.5q0 37 -30.5 56.5t-74.5 19.5h-103v-152h103q46 0 75.5 17.5z" />
    <glyph glyph-name="uni042B" unicode="&#x42b;" horiz-adv-x="896" 
d="M527 380q65 -60 65 -156q0 -102 -64.5 -163t-191.5 -61h-272v672h160v-232h112q126 0 191 -60zM672 0v672h160v-672h-160zM402.5 161.5q29.5 17.5 29.5 58.5q0 37 -30.5 56.5t-74.5 19.5h-103v-152h103q46 0 75.5 17.5z" />
    <glyph glyph-name="uni042C" unicode="&#x42c;" horiz-adv-x="624" 
d="M527 380q65 -60 65 -156q0 -102 -64.5 -163t-191.5 -61h-272v672h160v-232h112q126 0 191 -60zM402.5 161.5q29.5 17.5 29.5 58.5q0 37 -30.5 56.5t-74.5 19.5h-103v-152h103q46 0 75.5 17.5z" />
    <glyph glyph-name="uni042D" unicode="&#x42d;" horiz-adv-x="656" 
d="M379.5 168q54.5 40 74.5 104h-262v128h262q-20 64 -74.5 104t-123.5 40q-49 0 -91 -20.5t-71 -57.5l-62 142q42 38 103 59t121 21q100 0 184.5 -47.5t134 -128.5t49.5 -176t-49.5 -176t-134 -128.5t-184.5 -47.5q-59 0 -120.5 21.5t-103.5 59.5l62 141q29 -36 71.5 -57
t90.5 -21q69 0 123.5 40z" />
    <glyph glyph-name="uni042E" unicode="&#x42e;" horiz-adv-x="1072" 
d="M860.5 640.5q82.5 -47.5 131 -128.5t48.5 -176t-48.5 -176t-131 -128.5t-180.5 -47.5q-85 0 -159.5 36.5t-125 100.5t-67.5 143h-104v-264h-160v672h160v-264h104q17 79 67.5 143t125 100.5t159.5 36.5q98 0 180.5 -47.5zM780 156q46 28 73 75.5t27 104.5t-27 104.5
t-73 75.5t-100 28t-100 -28t-73 -75.5t-27 -104.5t27 -104.5t73 -75.5t100 -28t100 28z" />
    <glyph glyph-name="uni042F" unicode="&#x42f;" horiz-adv-x="656" 
d="M202 231q-65 26 -101.5 85t-36.5 132q0 102 64.5 163t191.5 61h272v-672h-160v216h-66l-150 -216h-184zM321 528q-43 0 -70 -20.5t-27 -63.5q0 -39 28 -61.5t69 -22.5h111v168h-111z" />
    <glyph glyph-name="uni0430" unicode="&#x430;" horiz-adv-x="640" 
d="M576 496v-496h-160v42q-61 -58 -144 -58q-65 0 -120.5 35.5t-87.5 96t-32 132.5t32 132.5t87.5 96t120.5 35.5q83 0 144 -58v42h160zM383 163q33 35 33 85t-33 85t-79 35t-79 -35t-33 -85t33 -85t79 -35t79 35z" />
    <glyph glyph-name="uni0431" unicode="&#x431;" 
d="M541.5 114.5q-34.5 -60.5 -96.5 -95.5t-141 -35q-82 0 -144 35t-95 95.5t-33 133.5q0 98 38 174.5t118 141.5q7 5 14.5 11t15.5 13q49 39 71.5 61.5t38.5 54.5h168q-7 -44 -37 -77.5t-86 -63.5q-29 -16 -44 -26t-30 -25q81 0 144 -34.5t98 -95t35 -134.5
q0 -73 -34.5 -133.5zM383 163q33 35 33 85t-33 85t-79 35t-79 -35t-33 -85t33 -85t79 -35t79 35z" />
    <glyph glyph-name="uni0432" unicode="&#x432;" horiz-adv-x="576" 
d="M505 222.5q23 -29.5 23 -66.5q0 -85 -60.5 -120.5t-179.5 -35.5h-224v496h208q117 0 178.5 -33t61.5 -107q0 -32 -19 -59t-45 -36q34 -9 57 -38.5zM224 296h78q50 0 50 36q0 20 -15 28t-35 8h-78v-72zM353 138.5q15 10.5 15 29.5q0 20 -15 30t-36 10h-93v-80h93
q21 0 36 10.5z" />
    <glyph glyph-name="uni0433" unicode="&#x433;" horiz-adv-x="448" 
d="M224 0h-160v496h352v-144h-192v-352z" />
    <glyph glyph-name="uni0434" unicode="&#x434;" horiz-adv-x="704" 
d="M656 144v-272h-160v128h-304v-128h-160v272q58 5 89.5 48.5t43 117.5t11.5 186h400v-352h80zM416 144v208h-104q0 -62 -10.5 -118.5t-36.5 -89.5h151z" />
    <glyph glyph-name="uni0435" unicode="&#x435;" horiz-adv-x="576" 
d="M542 208h-342q10 -36 42 -58t81 -22q31 0 71 8t74 22l44 -127q0 -2 -26.5 -14t-69 -22.5t-97.5 -10.5q-96 0 -160.5 35t-95.5 94.5t-31 134.5t30 134.5t89.5 94.5t144.5 35q118 0 183 -69.5t65 -194.5q0 -14 -2 -40zM376 304q0 29 -23.5 54.5t-64.5 25.5
q-24 0 -44.5 -12.5t-32 -31.5t-11.5 -36h176z" />
    <glyph glyph-name="uni0436" unicode="&#x436;" horiz-adv-x="896" 
d="M880 0h-192l-160 200v-200h-160v200l-160 -200h-192l208 256l-192 240h192l144 -192v192h160v-192l144 192h192l-192 -240z" />
    <glyph glyph-name="uni0437" unicode="&#x437;" horiz-adv-x="528" 
d="M284.5 136.5q35.5 8.5 35.5 29.5q0 26 -43.5 34t-116.5 8v80q152 0 152 41q0 18 -25.5 28.5t-68.5 10.5q-40 0 -75.5 -11.5t-62.5 -28.5l-44 122q42 29 97.5 45.5t104.5 16.5q111 0 172.5 -38.5t61.5 -111.5q0 -31 -18.5 -58t-50.5 -40q33 -14 55 -46.5t22 -67.5
q0 -80 -64.5 -123t-174.5 -43q-52 0 -109 15t-100 46l40 115q25 -14 63 -23t69 -9q45 0 80.5 8.5z" />
    <glyph glyph-name="uni0438" unicode="&#x438;" horiz-adv-x="640" 
d="M224 216l192 280h160v-496h-160v280l-192 -280h-160v496h160v-280z" />
    <glyph glyph-name="uni0439" unicode="&#x439;" horiz-adv-x="640" 
d="M464 704q0 -39 -19.5 -72t-52.5 -52.5t-72 -19.5t-72 19.5t-52.5 52.5t-19.5 72h80q0 -26 19 -45t45 -19t45 19t19 45h80zM224 216l192 280h160v-496h-160v280l-192 -280h-160v496h160v-280z" />
    <glyph glyph-name="uni043A" unicode="&#x43a;" horiz-adv-x="592" 
d="M592 0h-192l-176 196v-196h-160v496h160v-188l160 188h192l-208 -240z" />
    <glyph glyph-name="uni043B" unicode="&#x43b;" horiz-adv-x="640" 
d="M576 496v-496h-160v352h-120v-163q0 -104 -36 -154.5t-114 -50.5q-48 0 -98 16v128q23 -5 37 -5q59 0 59 69v304h432z" />
    <glyph glyph-name="uni043C" unicode="&#x43c;" horiz-adv-x="752" 
d="M537 252l-89 -252h-144l-89 252l-43 -252h-156l91 496h156l113 -297l113 297h156l91 -496h-156z" />
    <glyph glyph-name="uni043D" unicode="&#x43d;" horiz-adv-x="624" 
d="M560 496v-496h-160v176h-176v-176h-160v496h160v-176h176v176h160z" />
    <glyph glyph-name="uni043E" unicode="&#x43e;" 
d="M444 476.5q62 -35.5 97 -95.5t35 -133t-34.5 -133.5t-96.5 -95.5t-141 -35q-82 0 -144 35t-95 95.5t-33 133.5q0 74 33 134t94.5 95t144.5 35q78 0 140 -35.5zM383 163q33 35 33 85t-33 85t-79 35t-79 -35t-33 -85t33 -85t79 -35t79 35z" />
    <glyph glyph-name="uni043F" unicode="&#x43f;" horiz-adv-x="624" 
d="M560 0h-160v352h-176v-352h-160v496h496v-496z" />
    <glyph glyph-name="uni0440" unicode="&#x440;" horiz-adv-x="640" 
d="M488.5 476.5q55.5 -35.5 87.5 -96t32 -132.5t-32 -132.5t-87.5 -96t-120.5 -35.5q-83 0 -144 58v-298h-160v752h160v-42q61 58 144 58q65 0 120.5 -35.5zM415 163q33 35 33 85t-33 85t-79 35t-79 -35t-33 -85t33 -85t79 -35t79 35z" />
    <glyph glyph-name="uni0441" unicode="&#x441;" horiz-adv-x="528" 
d="M496 45q-32 -31 -83.5 -46t-104.5 -15q-85 0 -147.5 35t-95.5 95t-33 134q0 73 33.5 133.5t96 95.5t146.5 35q53 0 103.5 -15t84.5 -46l-58 -129q-25 22 -56 34t-64 12q-52 0 -89 -35t-37 -85t36.5 -85t89.5 -35q33 0 64 12t56 33z" />
    <glyph glyph-name="uni0442" unicode="&#x442;" horiz-adv-x="512" 
d="M480 496v-144h-144v-352h-160v352h-144v144h448z" />
    <glyph glyph-name="uni0443" unicode="&#x443;" horiz-adv-x="544" 
d="M544 496l-304 -752h-176l129 292l-193 460h176l96 -272l96 272h176z" />
    <glyph glyph-name="uni0444" unicode="&#x444;" horiz-adv-x="960" 
d="M808.5 476.5q55.5 -35.5 87.5 -96t32 -132.5t-32 -132.5t-87.5 -96t-120.5 -35.5q-39 0 -66.5 6.5t-61.5 19.5v-218h-160v218q-34 -13 -61.5 -19.5t-66.5 -6.5q-65 0 -120.5 35.5t-87.5 96t-32 132.5t32 132.5t87.5 96t120.5 35.5q39 0 66.5 -6.5t61.5 -19.5v218h160
v-218q34 13 61.5 19.5t66.5 6.5q65 0 120.5 -35.5zM371.5 160.5q28.5 32.5 28.5 87.5t-28.5 87.5t-75.5 32.5q-43 0 -73.5 -35t-30.5 -85t30.5 -85t73.5 -35q47 0 75.5 32.5zM737.5 163q30.5 35 30.5 85t-30.5 85t-73.5 35q-47 0 -75.5 -32.5t-28.5 -87.5t28.5 -87.5
t75.5 -32.5q43 0 73.5 35z" />
    <glyph glyph-name="uni0445" unicode="&#x445;" 
d="M592 0h-192l-96 140l-96 -140h-192l192 264l-176 232h192l80 -124l80 124h192l-176 -232z" />
    <glyph glyph-name="uni0446" unicode="&#x446;" horiz-adv-x="704" 
d="M656 144v-272h-160v128h-432v496h160v-352h176v352h160v-352h96z" />
    <glyph glyph-name="uni0447" unicode="&#x447;" horiz-adv-x="592" 
d="M98.5 201.5q-50.5 49.5 -50.5 150.5v144h160v-126q0 -39 18 -56.5t58 -17.5q21 0 46 3.5t38 7.5v189h160v-496h-160v176q-41 -13 -68 -18.5t-68 -5.5q-83 0 -133.5 49.5z" />
    <glyph glyph-name="uni0448" unicode="&#x448;" horiz-adv-x="864" 
d="M800 496v-496h-736v496h160v-352h128v352h160v-352h128v352h160z" />
    <glyph glyph-name="uni0449" unicode="&#x449;" horiz-adv-x="944" 
d="M896 144v-272h-160v128h-672v496h160v-352h128v352h160v-352h128v352h160v-352h96z" />
    <glyph glyph-name="uni044A" unicode="&#x44a;" horiz-adv-x="656" 
d="M624 172q0 -86 -61 -129t-171 -43h-232v352h-128v144h288v-160h72q232 0 232 -164zM447 138.5q17 10.5 17 29.5q0 20 -17 30t-42 10h-85v-80h85q25 0 42 10.5z" />
    <glyph glyph-name="uni044B" unicode="&#x44b;" horiz-adv-x="832" 
d="M64 496h160v-160h72q232 0 232 -164q0 -86 -61 -129t-171 -43h-232v496zM608 496h160v-496h-160v496zM351 138.5q17 10.5 17 29.5q0 20 -17 30t-42 10h-85v-80h85q25 0 42 10.5z" />
    <glyph glyph-name="uni044C" unicode="&#x44c;" horiz-adv-x="560" 
d="M64 496h160v-160h72q232 0 232 -164q0 -86 -61 -129t-171 -43h-232v496zM351 138.5q17 10.5 17 29.5q0 20 -17 30t-42 10h-85v-80h85q25 0 42 10.5z" />
    <glyph glyph-name="uni044D" unicode="&#x44d;" horiz-adv-x="528" 
d="M287 152.5q34 24.5 45 63.5h-172v64h171q-11 39 -44.5 63.5t-76.5 24.5q-33 0 -64 -12t-56 -34l-58 129q34 31 84.5 46t103.5 15q84 0 146.5 -35t96 -95.5t33.5 -133.5q0 -74 -33 -134t-95.5 -95t-147.5 -35q-53 0 -104.5 15t-83.5 46l58 128q25 -21 56 -33t64 -12
q43 0 77 24.5z" />
    <glyph glyph-name="uni044E" unicode="&#x44e;" horiz-adv-x="896" 
d="M732 476.5q62 -35.5 97 -95.5t35 -133t-34.5 -133.5t-96.5 -95.5t-141 -35q-102 0 -171.5 53t-91.5 139h-105v-176h-160v496h160v-176h105q22 86 91 139t172 53q78 0 140 -35.5zM671 163q33 35 33 85t-33 85t-79 35t-79 -35t-33 -85t33 -85t79 -35t79 35z" />
    <glyph glyph-name="uni044F" unicode="&#x44f;" horiz-adv-x="592" 
d="M528 496v-496h-160v160l-144 -160h-192l160 173q-34 5 -63.5 26t-47 53t-17.5 68q0 92 61.5 134t178.5 42h224zM240.5 355.5q-16.5 -12.5 -16.5 -35.5t16.5 -35.5t38.5 -12.5h89v96h-89q-22 0 -38.5 -12.5z" />
    <glyph glyph-name="uni0451" unicode="&#x451;" horiz-adv-x="576" 
d="M132 581q-21 21 -21 51t21 51t51 21t51 -21t21 -51t-21 -51t-51 -21t-51 21zM340 581q-21 21 -21 51t21 51t51 21t51 -21t21 -51t-21 -51t-51 -21t-51 21zM542 208h-342q10 -36 42 -58t81 -22q31 0 71 8t74 22l44 -127q0 -2 -26.5 -14t-69 -22.5t-97.5 -10.5
q-96 0 -160.5 35t-95.5 94.5t-31 134.5t30 134.5t89.5 94.5t144.5 35q118 0 183 -69.5t65 -194.5q0 -14 -2 -40zM376 304q0 29 -23.5 54.5t-64.5 25.5q-24 0 -44.5 -12.5t-32 -31.5t-11.5 -36h176z" />
    <glyph glyph-name="uni0452" unicode="&#x452;" horiz-adv-x="624" 
d="M480 486.5q44 -25.5 70 -76t26 -122.5v-288q-3 -153 -67 -212.5t-173 -59.5l-32 144q49 1 80.5 32t31.5 96v272q0 54 -23.5 75t-56.5 21q-34 0 -65 -26t-31 -86v-256h-160v544h-64v80h64v80h160v-80h64v-80h-64v-96q26 30 63.5 47t80.5 17q52 0 96 -25.5z" />
    <glyph glyph-name="uni0453" unicode="&#x453;" horiz-adv-x="448" 
d="M208 704h160l-144 -144h-96zM224 0h-160v496h352v-144h-192v-352z" />
    <glyph glyph-name="uni0454" unicode="&#x454;" horiz-adv-x="528" 
d="M382 140q31 12 56 33l58 -128q-32 -31 -83.5 -46t-104.5 -15q-85 0 -147.5 35t-95.5 95t-33 134q0 73 33.5 133.5t96 95.5t146.5 35q53 0 103.5 -15t84.5 -46l-58 -129q-25 22 -56 34t-64 12q-43 0 -76.5 -24.5t-44.5 -63.5h171v-64h-172q11 -39 45 -63.5t77 -24.5
q33 0 64 12z" />
    <glyph glyph-name="uni0455" unicode="&#x455;" horiz-adv-x="544" 
d="M461 273q51 -39 51 -113q0 -80 -63.5 -128t-190.5 -48q-63 0 -113.5 14t-81.5 30t-31 18l43 130q27 -19 62.5 -31t62.5 -17t35 -6q32 -2 46 -2q71 0 71 25q0 11 -9.5 17t-29 9.5t-66.5 8.5q-116 15 -157.5 61.5t-41.5 102.5q0 77 58 122.5t177 45.5q9 0 40.5 -2.5
t74 -11.5t75.5 -27l-37 -129q-6 3 -28 12t-55.5 17t-66.5 8q-38 0 -58 -4t-20 -17q0 -14 17 -20t37.5 -9t27.5 -4q120 -13 171 -52z" />
    <glyph glyph-name="uni0456" unicode="&#x456;" horiz-adv-x="288" 
d="M76 588q-28 28 -28 68t28 68t68 28t68 -28t28 -68t-28 -68t-68 -28t-68 28zM64 496h160v-496h-160v496z" />
    <glyph glyph-name="uni0457" unicode="&#x457;" horiz-adv-x="288" 
d="M-11 581q-21 21 -21 51t21 51t51 21t51 -21t21 -51t-21 -51t-51 -21t-51 21zM197 581q-21 21 -21 51t21 51t51 21t51 -21t21 -51t-21 -51t-51 -21t-51 21zM64 496h160v-496h-160v496z" />
    <glyph glyph-name="uni0458" unicode="&#x458;" horiz-adv-x="288" 
d="M76 588q-28 28 -28 68t28 68t68 28t68 -28t28 -68t-28 -68t-68 -28t-68 28zM64 496h160v-480q0 -163 -64 -225.5t-176 -62.5l-32 144q49 1 80.5 32t31.5 96v496z" />
    <glyph glyph-name="uni0459" unicode="&#x459;" horiz-adv-x="896" 
d="M864 172q0 -86 -61 -129t-171 -43h-216v352h-120v-163q0 -104 -36 -154.5t-114 -50.5q-48 0 -98 16v128q23 -5 37 -5q59 0 59 69v304h432v-160h56q232 0 232 -164zM687 138.5q17 10.5 17 29.5q0 20 -17 30t-42 10h-69v-80h69q25 0 42 10.5z" />
    <glyph glyph-name="uni045A" unicode="&#x45a;" horiz-adv-x="880" 
d="M848 172q0 -86 -61 -129t-171 -43h-216v208h-176v-208h-160v496h160v-160h176v160h160v-160h56q232 0 232 -164zM671 138.5q17 10.5 17 29.5q0 20 -17 30t-42 10h-69v-80h69q25 0 42 10.5z" />
    <glyph glyph-name="uni045B" unicode="&#x45b;" horiz-adv-x="624" 
d="M480 486.5q44 -25.5 70 -76t26 -122.5v-288h-160v272q0 54 -23.5 75t-56.5 21q-34 0 -65 -26t-31 -86v-256h-160v544h-64v80h64v80h160v-80h64v-80h-64v-96q26 30 63.5 47t80.5 17q52 0 96 -25.5z" />
    <glyph glyph-name="uni045C" unicode="&#x45c;" horiz-adv-x="592" 
d="M288 704h160l-144 -144h-96zM592 0h-192l-176 196v-196h-160v496h160v-188l160 188h192l-208 -240z" />
    <glyph glyph-name="uni045E" unicode="&#x45e;" horiz-adv-x="544" 
d="M416 704q0 -39 -19.5 -72t-52.5 -52.5t-72 -19.5t-72 19.5t-52.5 52.5t-19.5 72h80q0 -26 19 -45t45 -19t45 19t19 45h80zM544 496l-304 -752h-176l129 292l-193 460h176l96 -272l96 272h176z" />
    <glyph glyph-name="uni045F" unicode="&#x45f;" horiz-adv-x="624" 
d="M560 496v-496h-168v-128h-160v128h-168v496h160v-352h176v352h160z" />
    <glyph glyph-name="uni0462" unicode="&#x462;" horiz-adv-x="656" 
d="M559 380q65 -60 65 -156q0 -102 -64.5 -163t-191.5 -61h-272v504h-80v112h80v88h160v-88h160v-112h-160v-64h112q126 0 191 -60zM434.5 161.5q29.5 17.5 29.5 58.5q0 37 -30.5 56.5t-74.5 19.5h-103v-152h103q46 0 75.5 17.5z" />
    <glyph glyph-name="uni0463" unicode="&#x463;" horiz-adv-x="576" 
d="M544 172q0 -86 -61 -129t-171 -43h-232v384h-64v80h64v64h160v-64h64v-80h-64v-48h72q232 0 232 -164zM367 138.5q17 10.5 17 29.5q0 20 -17 30t-42 10h-85v-80h85q25 0 42 10.5z" />
    <glyph glyph-name="uni0472" unicode="&#x472;" horiz-adv-x="784" 
d="M572.5 640.5q82.5 -47.5 131 -128.5t48.5 -176t-48.5 -176t-131 -128.5t-180.5 -47.5t-180.5 47.5t-131 128.5t-48.5 176t48.5 176t131 128.5t180.5 47.5t180.5 -47.5zM266 497.5q-55 -46.5 -70 -117.5q37 20 92 20q41 0 137 -32q46 -14 76 -14q58 0 83 41
q-18 65 -71 107t-121 42q-71 0 -126 -46.5zM517.5 174.5q54.5 46.5 69.5 116.5q-35 -19 -89 -19q-44 0 -137 31q-40 14 -77 14q-59 0 -83 -42q19 -65 71.5 -106t119.5 -41q71 0 125.5 46.5z" />
    <glyph glyph-name="uni0473" unicode="&#x473;" 
d="M444 476.5q62 -35.5 97 -95.5t35 -133t-34.5 -133.5t-96.5 -95.5t-141 -35q-82 0 -144 35t-95 95.5t-33 133.5q0 74 33 134t94.5 95t144.5 35q78 0 140 -35.5zM244.5 349.5q-26.5 -18.5 -40.5 -48.5q12 3 26 3q18 0 34 -6t38 -17l20 -9q39 -17 59 -17t34 11q-7 44 -38 73
t-73 29q-33 0 -59.5 -18.5zM363.5 146.5q26.5 18.5 40.5 48.5q-12 -3 -26 -3q-20 0 -37 6t-32.5 14t-22.5 11q-34 17 -59 17q-20 0 -34 -11q7 -43 38 -72t73 -29q33 0 59.5 18.5z" />
    <glyph glyph-name="uni0474" unicode="&#x474;" horiz-adv-x="720" 
d="M649 688q31 0 55 -4v-144q-6 1 -19 1q-66 0 -91 -62l-194 -479h-128l-272 672h176l160 -416l102 265q25 66 59 106t75 51q39 10 77 10z" />
    <glyph glyph-name="uni0475" unicode="&#x475;" horiz-adv-x="576" 
d="M529 508.5q12 -3.5 31 -12.5v-128q-15 4 -29 4q-24 0 -39.5 -17t-31.5 -59l-124 -296h-128l-208 496h176l96 -272l16 46q30 85 53 133.5t59 78.5t90 30q27 0 39 -3.5z" />
    <glyph glyph-name="uni0490" unicode="&#x490;" horiz-adv-x="528" 
d="M496 768v-240h-272v-528h-160v672h304v96h128z" />
    <glyph glyph-name="uni0491" unicode="&#x491;" horiz-adv-x="448" 
d="M416 592v-240h-192v-352h-160v496h224v96h128z" />
    <glyph glyph-name="uni0492" unicode="&#x492;" horiz-adv-x="544" 
d="M240 528v-176h96v-80h-96v-272h-160v272h-64v80h64v320h432v-144h-272z" />
    <glyph glyph-name="uni0493" unicode="&#x493;" horiz-adv-x="464" 
d="M240 352v-100h96v-80h-96v-172h-160v172h-64v80h64v244h352v-144h-192z" />
    <glyph glyph-name="uni0496" unicode="&#x496;" horiz-adv-x="1024" 
d="M1008 144v-240h-128v96h-64l-224 272v-272h-160v272l-224 -272h-192l280 340l-264 332h192l208 -272v272h160v-272l208 272h192l-264 -332l161 -196h119z" />
    <glyph glyph-name="uni0497" unicode="&#x497;" horiz-adv-x="896" 
d="M880 144v-240h-128v96h-64l-160 200v-200h-160v200l-160 -200h-192l208 256l-192 240h192l144 -192v192h160v-192l144 192h192l-192 -240l91 -112h117z" />
    <glyph glyph-name="uni049A" unicode="&#x49a;" horiz-adv-x="656" 
d="M640 144v-240h-128v96h-64l-224 288v-288h-160v672h160v-256l208 256h192l-256 -320l161 -208h111z" />
    <glyph glyph-name="uni049B" unicode="&#x49b;" 
d="M592 144v-240h-128v96h-64l-176 196v-196h-160v496h160v-188l160 188h192l-208 -240l98 -112h126z" />
    <glyph glyph-name="uni04A2" unicode="&#x4a2;" horiz-adv-x="736" 
d="M720 144v-240h-128v96h-112v264h-256v-264h-160v672h160v-264h256v264h160v-528h80z" />
    <glyph glyph-name="uni04A3" unicode="&#x4a3;" horiz-adv-x="656" 
d="M640 144v-240h-128v96h-112v176h-176v-176h-160v496h160v-176h176v176h160v-352h80z" />
    <glyph glyph-name="uni04AE" unicode="&#x4ae;" horiz-adv-x="672" 
d="M672 672l-256 -400v-272h-160v272l-256 400h188l148 -256l148 256h188z" />
    <glyph glyph-name="uni04AF" unicode="&#x4af;" horiz-adv-x="544" 
d="M352 38v-294h-160v294l-192 458h176l96 -272l96 272h176z" />
    <glyph glyph-name="uni04B0" unicode="&#x4b0;" horiz-adv-x="672" 
d="M416 256h64v-80h-64v-176h-160v176h-64v80h64v16l-256 400h188l148 -256l148 256h188l-256 -400v-16z" />
    <glyph glyph-name="uni04B1" unicode="&#x4b1;" horiz-adv-x="544" 
d="M352 -16h80v-80h-80v-160h-160v160h-80v80h80v54l-192 458h176l96 -272l96 272h176l-192 -458v-54z" />
    <glyph glyph-name="uni04B2" unicode="&#x4b2;" horiz-adv-x="720" 
d="M704 144v-240h-128v96h-64l-152 231l-152 -231h-192l240 352l-224 320h185l143 -212l143 212h185l-224 -320l142 -208h98z" />
    <glyph glyph-name="uni04B3" unicode="&#x4b3;" horiz-adv-x="624" 
d="M608 144v-240h-128v96h-80l-96 140l-96 -140h-192l192 264l-176 232h192l80 -124l80 124h192l-176 -232l87 -120h121z" />
    <glyph glyph-name="uni04B6" unicode="&#x4b6;" horiz-adv-x="688" 
d="M672 144v-240h-128v96h-112v244q-81 -36 -160 -36q-104 0 -164 62t-60 178v224h160v-208q0 -57 25.5 -84.5t78.5 -27.5q20 0 47 7t47 15t26 10v288h160v-528h80z" />
    <glyph glyph-name="uni04B7" unicode="&#x4b7;" horiz-adv-x="624" 
d="M608 144v-240h-128v96h-112v176q-41 -13 -68 -18.5t-68 -5.5q-83 0 -133.5 49.5t-50.5 150.5v144h160v-126q0 -39 18 -56.5t58 -17.5q21 0 46 3.5t38 7.5v189h160v-352h80z" />
    <glyph glyph-name="uni04BA" unicode="&#x4ba;" horiz-adv-x="656" 
d="M548 402q60 -62 60 -178v-224h-160v208q0 57 -25.5 84.5t-78.5 27.5q-20 0 -47 -7t-47 -15t-26 -10v-288h-160v672h160v-244q81 36 160 36q104 0 164 -62z" />
    <glyph glyph-name="uni04BB" unicode="&#x4bb;" 
d="M464 486.5q44 -25.5 70 -76t26 -122.5v-288h-160v272q0 54 -23.5 75t-56.5 21q-34 0 -65 -26t-31 -86v-256h-160v704h160v-256q26 30 63.5 47t80.5 17q52 0 96 -25.5z" />
    <glyph glyph-name="uni04C0" unicode="&#x4c0;" horiz-adv-x="288" 
d="M64 0v672h160v-672h-160z" />
    <glyph glyph-name="uni04CF" unicode="&#x4cf;" horiz-adv-x="288" 
d="M64 496h160v-496h-160v496z" />
    <glyph glyph-name="uni04D8" unicode="&#x4d8;" horiz-adv-x="784" 
d="M38 400h544q-20 64 -72 104t-118 40q-52 0 -96.5 -26t-71.5 -70l-155 44q45 89 131.5 142.5t191.5 53.5q98 0 180.5 -47.5t131 -128.5t48.5 -176t-48.5 -176t-131 -128.5t-180.5 -47.5t-180.5 47.5t-131 128.5t-48.5 176q0 33 6 64zM274 168q52 -40 118 -40t118 40
t72 104h-380q20 -64 72 -104z" />
    <glyph glyph-name="uni04D9" unicode="&#x4d9;" horiz-adv-x="576" 
d="M34 288h342q-7 38 -30.5 59t-60.5 21q-53 0 -77 -38l-152 39q10 27 35.5 59t74.5 58t119 26q81 0 139.5 -35.5t89 -95.5t30.5 -133q0 -75 -30 -134.5t-89.5 -94.5t-144.5 -35q-118 0 -183 69.5t-65 194.5q0 14 2 40zM200 192q0 -29 23.5 -54.5t64.5 -25.5q24 0 44.5 12.5
t32 31.5t11.5 36h-176z" />
    <glyph glyph-name="uni04E2" unicode="&#x4e2;" horiz-adv-x="752" 
d="M224 752v80h304v-80h-304zM224 256l304 416h160v-672h-160v416l-304 -416h-160v672h160v-416z" />
    <glyph glyph-name="uni04E3" unicode="&#x4e3;" horiz-adv-x="640" 
d="M168 576v80h304v-80h-304zM224 216l192 280h160v-496h-160v280l-192 -280h-160v496h160v-280z" />
    <glyph glyph-name="uni04E8" unicode="&#x4e8;" horiz-adv-x="784" 
d="M572.5 640.5q82.5 -47.5 131 -128.5t48.5 -176t-48.5 -176t-131 -128.5t-180.5 -47.5t-180.5 47.5t-131 128.5t-48.5 176t48.5 176t131 128.5t180.5 47.5t180.5 -47.5zM265 496.5q-55 -47.5 -69 -120.5h392q-14 73 -69 120.5t-127 47.5t-127 -47.5zM519 175.5
q55 47.5 69 120.5h-392q14 -73 69 -120.5t127 -47.5t127 47.5z" />
    <glyph glyph-name="uni04E9" unicode="&#x4e9;" 
d="M444 476.5q62 -35.5 97 -95.5t35 -133t-34.5 -133.5t-96.5 -95.5t-141 -35q-82 0 -144 35t-95 95.5t-33 133.5q0 74 33 134t94.5 95t144.5 35q78 0 140 -35.5zM235.5 343.5q-29.5 -24.5 -39.5 -63.5h216q-10 39 -39.5 63.5t-68.5 24.5t-68.5 -24.5zM372.5 152.5
q29.5 24.5 39.5 63.5h-216q10 -39 39.5 -63.5t68.5 -24.5t68.5 24.5z" />
    <glyph glyph-name="uni04EE" unicode="&#x4ee;" horiz-adv-x="640" 
d="M176 752v80h304v-80h-304zM640 672l-344 -672h-180l122 234l-222 438h180l132 -267l132 267h180z" />
    <glyph glyph-name="uni04EF" unicode="&#x4ef;" horiz-adv-x="544" 
d="M120 576v80h304v-80h-304zM544 496l-304 -752h-176l129 292l-193 460h176l96 -272l96 272h176z" />
    <glyph glyph-name="Wgrave" unicode="&#x1e80;" horiz-adv-x="1024" 
d="M496 736l-144 144h160l80 -144h-96zM704 254l136 418h176l-244 -672h-144l-116 370l-116 -370h-144l-244 672h176l136 -418l120 418h144z" />
    <glyph glyph-name="wgrave" unicode="&#x1e81;" horiz-adv-x="784" 
d="M376 560l-144 144h160l80 -144h-96zM776 496l-168 -496h-128l-88 266l-88 -266h-128l-168 496h168l72 -282l80 282h128l80 -282l72 282h168z" />
    <glyph glyph-name="Wacute" unicode="&#x1e82;" horiz-adv-x="1024" 
d="M512 880h160l-144 -144h-96zM704 254l136 418h176l-244 -672h-144l-116 370l-116 -370h-144l-244 672h176l136 -418l120 418h144z" />
    <glyph glyph-name="wacute" unicode="&#x1e83;" horiz-adv-x="784" 
d="M392 704h160l-144 -144h-96zM776 496l-168 -496h-128l-88 266l-88 -266h-128l-168 496h168l72 -282l80 282h128l80 -282l72 282h168z" />
    <glyph glyph-name="Wdieresis" unicode="&#x1e84;" horiz-adv-x="1024" 
d="M357 757q-21 21 -21 51t21 51t51 21t51 -21t21 -51t-21 -51t-51 -21t-51 21zM565 757q-21 21 -21 51t21 51t51 21t51 -21t21 -51t-21 -51t-51 -21t-51 21zM704 254l136 418h176l-244 -672h-144l-116 370l-116 -370h-144l-244 672h176l136 -418l120 418h144z" />
    <glyph glyph-name="wdieresis" unicode="&#x1e85;" horiz-adv-x="784" 
d="M237 581q-21 21 -21 51t21 51t51 21t51 -21t21 -51t-21 -51t-51 -21t-51 21zM445 581q-21 21 -21 51t21 51t51 21t51 -21t21 -51t-21 -51t-51 -21t-51 21zM776 496l-168 -496h-128l-88 266l-88 -266h-128l-168 496h168l72 -282l80 282h128l80 -282l72 282h168z" />
    <glyph glyph-name="Ygrave" unicode="&#x1ef2;" horiz-adv-x="672" 
d="M320 736l-144 144h160l80 -144h-96zM672 672l-256 -400v-272h-160v272l-256 400h188l148 -256l148 256h188z" />
    <glyph glyph-name="ygrave" unicode="&#x1ef3;" horiz-adv-x="544" 
d="M256 560l-144 144h160l80 -144h-96zM544 496l-304 -752h-176l129 292l-193 460h176l96 -272l96 272h176z" />
    <glyph glyph-name="endash" unicode="&#x2013;" horiz-adv-x="528" 
d="M48 208v112h432v-112h-432z" />
    <glyph glyph-name="emdash" unicode="&#x2014;" horiz-adv-x="624" 
d="M48 208v112h528v-112h-528z" />
    <glyph glyph-name="quoteleft" unicode="&#x2018;" horiz-adv-x="272" 
d="M192 448h-160l112 224h96z" />
    <glyph glyph-name="quoteright" unicode="&#x2019;" horiz-adv-x="272" 
d="M80 672h160l-112 -224h-96z" />
    <glyph glyph-name="quotesinglbase" unicode="&#x201a;" horiz-adv-x="272" 
d="M80 128h160l-112 -224h-96z" />
    <glyph glyph-name="quotedblleft" unicode="&#x201c;" horiz-adv-x="512" 
d="M192 448h-160l112 224h96zM432 448h-160l112 224h96z" />
    <glyph glyph-name="quotedblright" unicode="&#x201d;" horiz-adv-x="512" 
d="M80 672h160l-112 -224h-96zM320 672h160l-112 -224h-96z" />
    <glyph glyph-name="quotedblbase" unicode="&#x201e;" horiz-adv-x="512" 
d="M80 128h160l-112 -224h-96zM320 128h160l-112 -224h-96z" />
    <glyph glyph-name="dagger" unicode="&#x2020;" horiz-adv-x="672" 
d="M400 384l-64 -656l-64 656h-224v112h224v272h128v-272h224v-112h-224z" />
    <glyph glyph-name="daggerdbl" unicode="&#x2021;" horiz-adv-x="672" 
d="M400 384v-112h224v-112h-232l-56 -432l-56 432h-232v112h224v112h-224v112h224v272h128v-272h224v-112h-224z" />
    <glyph glyph-name="bullet" unicode="&#x2022;" horiz-adv-x="800" 
d="M491 427q37 -37 37 -91t-37 -91t-91 -37t-91 37t-37 91t37 91t91 37t91 -37z" />
    <glyph glyph-name="ellipsis" unicode="&#x2026;" horiz-adv-x="816" 
d="M73.5 9.5q-25.5 25.5 -25.5 62.5t25.5 62.5t62.5 25.5t62.5 -25.5t25.5 -62.5t-25.5 -62.5t-62.5 -25.5t-62.5 25.5zM345.5 9.5q-25.5 25.5 -25.5 62.5t25.5 62.5t62.5 25.5t62.5 -25.5t25.5 -62.5t-25.5 -62.5t-62.5 -25.5t-62.5 25.5zM617.5 9.5q-25.5 25.5 -25.5 62.5
t25.5 62.5t62.5 25.5t62.5 -25.5t25.5 -62.5t-25.5 -62.5t-62.5 -25.5t-62.5 25.5z" />
    <glyph glyph-name="perthousand" unicode="&#x2030;" horiz-adv-x="1200" 
d="M128 389.5q-37 21.5 -58.5 58t-21.5 80.5q0 43 21.5 80t58.5 58.5t81 21.5q43 0 79.5 -21.5t58 -58.5t21.5 -80q0 -44 -21.5 -80.5t-58 -58t-79.5 -21.5q-44 0 -81 21.5zM126 0l468 672h96l-468 -672h-96zM253 483q19 19 19 45t-19 45t-45 19t-45 -19t-19 -45t19 -45
t45 -19t45 19zM528 5.5q-37 21.5 -58.5 58t-21.5 80.5q0 43 21.5 80t58.5 58.5t81 21.5q43 0 79.5 -21.5t58 -58.5t21.5 -80q0 -44 -21.5 -80.5t-58 -58t-79.5 -21.5q-44 0 -81 21.5zM912 5.5q-37 21.5 -58.5 58t-21.5 80.5q0 43 21.5 80t58.5 58.5t81 21.5q43 0 79.5 -21.5
t58 -58.5t21.5 -80q0 -44 -21.5 -80.5t-58 -58t-79.5 -21.5q-44 0 -81 21.5zM653 99q19 19 19 45t-19 45t-45 19t-45 -19t-19 -45t19 -45t45 -19t45 19zM1037 99q19 19 19 45t-19 45t-45 19t-45 -19t-19 -45t19 -45t45 -19t45 19z" />
    <glyph glyph-name="guilsinglleft" unicode="&#x2039;" horiz-adv-x="416" 
d="M176 272l160 -224h-128l-160 224l160 224h128z" />
    <glyph glyph-name="guilsinglright" unicode="&#x203a;" horiz-adv-x="416" 
d="M208 496l160 -224l-160 -224h-128l160 224l-160 224h128z" />
    <glyph glyph-name="fraction" unicode="&#x2044;" horiz-adv-x="212" 
d="M-176 0l468 672h96l-468 -672h-96z" />
    <glyph glyph-name="uni2070" unicode="&#x2070;" horiz-adv-x="376" 
d="M261 736.5q32 -23.5 49.5 -64t17.5 -88.5t-17.5 -88.5t-49.5 -64t-73 -23.5t-73 23.5t-49.5 64t-17.5 88.5t18 88.5t49.5 64t72.5 23.5t73 -23.5zM230.5 510q17.5 30 17.5 74q0 45 -17.5 74.5t-42.5 29.5t-42.5 -29.5t-17.5 -74.5q0 -44 17.5 -74t42.5 -30t42.5 30z" />
    <glyph glyph-name="uni2074" unicode="&#x2074;" horiz-adv-x="368" 
d="M320 552v-72h-40v-64h-80v64h-168v64l148 208h100v-200h40zM200 671l-77 -119h77v119z" />
    <glyph glyph-name="uni2075" unicode="&#x2075;" horiz-adv-x="368" 
d="M284 612q36 -28 36 -78q0 -58 -36 -92t-100 -34q-62 0 -98 28.5t-38 83.5l80 5q2 -19 18 -32t38 -13q23 0 39.5 14t16.5 34q0 21 -14.5 34.5t-41.5 13.5q-39 0 -56 -24h-72l28 200h204v-72h-139l-6 -51q12 7 32.5 9.5t20.5 1.5q52 0 88 -28z" />
    <glyph glyph-name="uni2076" unicode="&#x2076;" horiz-adv-x="376" 
d="M71.5 639.5q23.5 59.5 104.5 112.5h123q-8 -4 -34 -18.5t-56 -39t-45 -51.5q3 1 16 4t34 3q51 0 82.5 -33.5t31.5 -80.5q0 -57 -38.5 -92.5t-101.5 -35.5q-65 0 -102.5 35.5t-37.5 96.5q0 40 23.5 99.5zM145 569q-17 -15 -17 -37q0 -21 17 -36.5t43 -15.5t43 15t17 37
t-16.5 37t-43.5 15q-26 0 -43 -15z" />
    <glyph glyph-name="uni2077" unicode="&#x2077;" horiz-adv-x="360" 
d="M344 752l-152 -336h-88l120 264h-160v72h280z" />
    <glyph glyph-name="uni2078" unicode="&#x2078;" horiz-adv-x="368" 
d="M309 564.5q11 -19.5 11 -44.5q0 -48 -36 -80t-100 -32t-100 32t-36 80q0 25 11 44.5t30 29.5q-15 11 -24 28t-9 34q0 45 36 74.5t92 29.5q57 0 92.5 -29.5t35.5 -74.5q0 -17 -9 -34t-24 -28q19 -10 30 -29.5zM150 677.5q-14 -10.5 -14 -25.5t14 -25.5t34 -10.5t34 10.5
t14 25.5t-14 25.5t-34 10.5t-34 -10.5zM223.5 493q16.5 13 16.5 31q0 19 -16.5 31.5t-39.5 12.5t-39.5 -12.5t-16.5 -31.5q0 -18 16.5 -31t39.5 -13t39.5 13z" />
    <glyph glyph-name="uni2079" unicode="&#x2079;" horiz-adv-x="376" 
d="M304.5 530q-23.5 -60 -104.5 -114h-122q8 4 33.5 19t55.5 39t45 51q-3 -1 -15.5 -4t-33.5 -3q-51 0 -83 33.5t-32 80.5q0 57 39 92.5t101 35.5q65 0 102.5 -35.5t37.5 -95.5q0 -39 -23.5 -99zM231 599.5q17 15.5 17 36.5q0 22 -17 37t-43 15t-43 -15t-17 -37
q0 -21 17 -36.5t43 -15.5t43 15.5z" />
    <glyph glyph-name="Euro" unicode="&#x20ac;" horiz-adv-x="720" 
d="M554.5 149q42.5 21 71.5 57l62 -141q-42 -38 -103.5 -59.5t-120.5 -21.5q-85 0 -160 35.5t-127 97.5t-71 139h-74v48h66q-2 22 -2 32t2 32h-66v48h74q19 77 71 139t127 97.5t160 35.5q60 0 121 -21t103 -59l-62 -142q-29 37 -71 57.5t-91 20.5q-64 0 -116 -35.5
t-76 -92.5h192l-15 -48h-191q-2 -20 -2 -32t2 -32h175l-14 -48h-147q24 -57 76 -92.5t116 -35.5q48 0 90.5 21z" />
    <glyph glyph-name="trademark" unicode="&#x2122;" horiz-adv-x="704" 
d="M276 672v-64h-78v-236h-72v236h-78v64h228zM656 372h-72l-21 171l-65 -171h-42l-65 171l-21 -171h-72l36 300h72l71 -179l71 179h72z" />
    <glyph glyph-name="oneeighth" unicode="&#x215b;" horiz-adv-x="940" 
d="M248 680v-344h-80v248l-72 -16v72zM184 0l468 672h96l-468 -672h-96zM881 148.5q11 -19.5 11 -44.5q0 -48 -36 -80t-100 -32t-100 32t-36 80q0 25 11 44.5t30 29.5q-15 11 -24 28t-9 34q0 45 36 74.5t92 29.5q57 0 92.5 -29.5t35.5 -74.5q0 -17 -9 -34t-24 -28
q19 -10 30 -29.5zM722 261.5q-14 -10.5 -14 -25.5t14 -25.5t34 -10.5t34 10.5t14 25.5t-14 25.5t-34 10.5t-34 -10.5zM795.5 77q16.5 13 16.5 31q0 19 -16.5 31.5t-39.5 12.5t-39.5 -12.5t-16.5 -31.5q0 -18 16.5 -31t39.5 -13t39.5 13z" />
    <glyph glyph-name="threeeighths" unicode="&#x215c;" horiz-adv-x="948" 
d="M307 483.5q13 -19.5 13 -43.5q0 -44 -33 -78t-103 -34q-60 0 -98 30.5t-38 81.5l80 8q5 -24 19 -36t41 -12q22 0 37 10t15 29t-23 27t-57 8v64q0 -1 20 1.5t36 11t16 25.5q0 15 -12.5 23.5t-33.5 8.5q-46 0 -52 -48l-78 8q5 51 39 81.5t89 30.5q62 0 95 -29t33 -67
q0 -22 -11 -41.5t-29 -28.5q22 -11 35 -30.5zM192 0l468 672h96l-468 -672h-96zM889 148.5q11 -19.5 11 -44.5q0 -48 -36 -80t-100 -32t-100 32t-36 80q0 25 11 44.5t30 29.5q-15 11 -24 28t-9 34q0 45 36 74.5t92 29.5q57 0 92.5 -29.5t35.5 -74.5q0 -17 -9 -34t-24 -28
q19 -10 30 -29.5zM730 261.5q-14 -10.5 -14 -25.5t14 -25.5t34 -10.5t34 10.5t14 25.5t-14 25.5t-34 10.5t-34 -10.5zM803.5 77q16.5 13 16.5 31q0 19 -16.5 31.5t-39.5 12.5t-39.5 -12.5t-16.5 -31.5q0 -18 16.5 -31t39.5 -13t39.5 13z" />
    <glyph glyph-name="fiveeighths" unicode="&#x215d;" horiz-adv-x="948" 
d="M284 532q36 -28 36 -78q0 -58 -36 -92t-100 -34q-62 0 -98 28.5t-38 83.5l80 5q2 -19 18 -32t38 -13q23 0 39.5 14t16.5 34q0 21 -14.5 34.5t-41.5 13.5q-39 0 -56 -24h-72l28 200h204v-72h-139l-6 -51q12 7 32.5 9.5t20.5 1.5q52 0 88 -28zM192 0l468 672h96l-468 -672
h-96zM889 148.5q11 -19.5 11 -44.5q0 -48 -36 -80t-100 -32t-100 32t-36 80q0 25 11 44.5t30 29.5q-15 11 -24 28t-9 34q0 45 36 74.5t92 29.5q57 0 92.5 -29.5t35.5 -74.5q0 -17 -9 -34t-24 -28q19 -10 30 -29.5zM730 261.5q-14 -10.5 -14 -25.5t14 -25.5t34 -10.5t34 10.5
t14 25.5t-14 25.5t-34 10.5t-34 -10.5zM803.5 77q16.5 13 16.5 31q0 19 -16.5 31.5t-39.5 12.5t-39.5 -12.5t-16.5 -31.5q0 -18 16.5 -31t39.5 -13t39.5 13z" />
    <glyph glyph-name="seveneighths" unicode="&#x215e;" horiz-adv-x="940" 
d="M344 672l-152 -336h-88l120 264h-160v72h280zM184 0l468 672h96l-468 -672h-96zM881 148.5q11 -19.5 11 -44.5q0 -48 -36 -80t-100 -32t-100 32t-36 80q0 25 11 44.5t30 29.5q-15 11 -24 28t-9 34q0 45 36 74.5t92 29.5q57 0 92.5 -29.5t35.5 -74.5q0 -17 -9 -34t-24 -28
q19 -10 30 -29.5zM722 261.5q-14 -10.5 -14 -25.5t14 -25.5t34 -10.5t34 10.5t14 25.5t-14 25.5t-34 10.5t-34 -10.5zM795.5 77q16.5 13 16.5 31q0 19 -16.5 31.5t-39.5 12.5t-39.5 -12.5t-16.5 -31.5q0 -18 16.5 -31t39.5 -13t39.5 13z" />
    <glyph glyph-name="partialdiff" unicode="&#x2202;" horiz-adv-x="640" 
d="M557.5 117.5q-34.5 -62.5 -96 -98t-141.5 -35.5q-82 0 -144 35t-95 95.5t-33 133.5q0 74 33 134t94.5 95t144.5 35q35 0 64 -7q-17 44 -58 78t-93 55t-101 26l64 136q125 -24 214 -95.5t135.5 -185t46.5 -261.5q0 -78 -34.5 -140.5zM399 163q33 35 33 85t-33 85t-79 35
t-79 -35t-33 -85t33 -85t79 -35t79 35z" />
    <glyph glyph-name="emptyset" unicode="&#x2205;" horiz-adv-x="632" 
 />
    <glyph glyph-name="product" unicode="&#x220f;" horiz-adv-x="704" 
d="M640 -256h-160v816h-256v-816h-160v960h576v-960z" />
    <glyph glyph-name="summation" unicode="&#x2211;" horiz-adv-x="688" 
d="M528 240l-270 -352h366v-144h-560v144l272 352l-272 352v144h560v-144h-366z" />
    <glyph glyph-name="minus" unicode="&#x2212;" horiz-adv-x="512" 
d="M464 352v-96h-416v96h416z" />
    <glyph glyph-name="radical" unicode="&#x221a;" horiz-adv-x="944" 
d="M912 528h-329l-215 -528h-128l-208 496h176l96 -272l161 448h447v-144z" />
    <glyph glyph-name="infinity" unicode="&#x221e;" horiz-adv-x="640" 
d="M512.5 426.5q36.5 -21.5 58 -58.5t21.5 -80q0 -44 -21.5 -80.5t-58 -58t-79.5 -21.5q-33 0 -62 12t-51 33q-21 -21 -50 -33t-61 -12q-44 0 -81 21.5t-58.5 58t-21.5 80.5q0 43 21.5 80t58.5 58.5t81 21.5q32 0 61 -12.5t50 -33.5q22 22 51.5 34t61.5 12q43 0 79.5 -21.5z
M253 243q19 19 19 45t-19 45t-45 19t-45 -19t-19 -45t19 -45t45 -19t45 19zM477 243q19 19 19 45t-19 45t-45 19t-45 -19t-19 -45t19 -45t45 -19t45 19z" />
    <glyph glyph-name="integral" unicode="&#x222b;" horiz-adv-x="384" 
d="M166.5 621.5q54.5 66.5 169.5 66.5v-144q-29 0 -46.5 -21.5t-17.5 -57.5v-489q0 -115 -54.5 -181.5t-169.5 -66.5v144q29 0 46.5 21.5t17.5 57.5v489q0 115 54.5 181.5z" />
    <glyph glyph-name="approxequal" unicode="&#x2248;" horiz-adv-x="528" 
d="M480 436q-49 -100 -134 -100q-18 0 -36 5.5t-42 16.5l-22 9q-43 16 -61 16q-19 0 -33.5 -11t-26.5 -36l-77 28q49 100 134 100q17 0 35 -5.5t42 -16.5l23 -10q41 -16 60 -16q18 0 33 11t28 37zM480 260q-49 -100 -134 -100q-18 0 -36 5.5t-42 16.5l-22 9q-43 16 -61 16
q-19 0 -33.5 -11t-26.5 -36l-77 28q49 100 134 100q17 0 35 -5.5t42 -16.5l23 -10q41 -16 60 -16q18 0 33 11t28 37z" />
    <glyph glyph-name="notequal" unicode="&#x2260;" horiz-adv-x="512" 
d="M304 336l-16 -64h176v-96h-198l-42 -176h-80l42 176h-138v96h160l16 64h-176v96h198l42 176h80l-42 -176h138v-96h-160z" />
    <glyph glyph-name="lessequal" unicode="&#x2264;" horiz-adv-x="544" 
d="M48 376v80l448 216v-112l-312 -144l312 -144v-112zM496 0h-448v96h448v-96z" />
    <glyph glyph-name="greaterequal" unicode="&#x2265;" horiz-adv-x="544" 
d="M48 272l312 144l-312 144v112l448 -216v-80l-448 -216v112zM496 96v-96h-448v96h448z" />
    <glyph glyph-name="lozenge" unicode="&#x25ca;" horiz-adv-x="640" 
d="M320 -16l-272 352l272 352l272 -352zM320 518l-142 -182l142 -182l144 182z" />
    <glyph glyph-name="M.ss01" horiz-adv-x="816" 
d="M752 672v-672h-160v414l-184 -286l-184 286v-414h-160v672h160l184 -286l184 286h160z" />
    <glyph glyph-name="j.ss01" horiz-adv-x="288" 
d="M76 588q-28 28 -28 68t28 68t68 28t68 -28t28 -68t-28 -68t-68 -28t-68 28zM64 496h160v-752h-160v752z" />
    <glyph glyph-name="t.ss01" horiz-adv-x="400" 
d="M96 352h-64v144h64v176h160v-176h96v-144h-96v-352h-160v352z" />
    <glyph glyph-name="tbar.ss01" horiz-adv-x="400" 
d="M256 352v-40h96v-80h-96v-232h-160v232h-64v80h64v40h-64v144h64v176h160v-176h96v-144h-96z" />
    <glyph glyph-name="tcaron.ss01" horiz-adv-x="576" 
d="M96 352h-64v144h64v176h160v-176h96v-144h-96v-352h-160v352zM416 672h128l-80 -144h-80z" />
    <glyph glyph-name="uni0163.ss01" horiz-adv-x="400" 
d="M256 0l-51 -48q5 1 15 1q48 0 82 -31.5t34 -81.5q0 -40 -21 -73t-57.5 -52t-81.5 -19q-47 0 -79 17t-49 46l58 65q7 -20 26 -34t44 -14q39 0 60.5 19.5t21.5 44.5q0 26 -19.5 41t-47.5 15q-37 0 -55 -14l-40 54l66 64h-66v352h-64v144h64v176h160v-176h96v-144h-96v-352z
" />
    <glyph glyph-name="uni021B.ss01" horiz-adv-x="400" 
d="M96 352h-64v144h64v176h160v-176h96v-144h-96v-352h-160v352zM112 -64h128l-80 -144h-80z" />
    <glyph glyph-name="f_f.dlig" horiz-adv-x="832" 
d="M735 582q-30 0 -43.5 -11.5t-16.5 -28t-3 -46.5h112v-144h-112v-352h-160v352h-256v-352h-160v352h-64v144h64q1 103 33 163.5t127 60.5q38 0 62 -4t50 -12v-128q-28 6 -49 6q-30 0 -43.5 -11.5t-16.5 -28t-3 -46.5h256q1 103 33 163.5t127 60.5q38 0 62 -4t50 -12v-128
q-28 6 -49 6z" />
    <glyph glyph-name="f_f_i.dlig" horiz-adv-x="1120" 
d="M1056 0h-160v352h-224v-352h-160v352h-256v-352h-160v352h-64v144h64q1 103 33 163.5t127 60.5q38 0 62 -4t50 -12v-128q-28 6 -49 6q-30 0 -43.5 -11.5t-16.5 -28t-3 -46.5h256q1 103 33 163.5t127 60.5q38 0 62 -4t50 -12v-128q-28 6 -49 6q-30 0 -43.5 -11.5
t-16.5 -28t-3 -46.5h384v-496z" />
    <glyph glyph-name="f_f_j.dlig" horiz-adv-x="1120" 
d="M1056 16q0 -163 -64 -225.5t-176 -62.5l-32 144q49 1 80.5 32t31.5 96v352h-224v-352h-160v352h-256v-352h-160v352h-64v144h64q1 103 33 163.5t127 60.5q38 0 62 -4t50 -12v-128q-28 6 -49 6q-30 0 -43.5 -11.5t-16.5 -28t-3 -46.5h256q1 103 33 163.5t127 60.5
q38 0 62 -4t50 -12v-128q-28 6 -49 6q-30 0 -43.5 -11.5t-16.5 -28t-3 -46.5h384v-480z" />
    <glyph glyph-name="uni041C.ss01" horiz-adv-x="816" 
d="M752 672v-672h-160v414l-184 -286l-184 286v-414h-160v672h160l184 -286l184 286h160z" />
    <glyph glyph-name="uni043C.ss01" horiz-adv-x="704" 
d="M640 496v-496h-160v256l-128 -192l-128 192v-256h-160v496h160l128 -200l128 200h160z" />
    <glyph glyph-name="uni0458.ss01" horiz-adv-x="288" 
d="M76 588q-28 28 -28 68t28 68t68 28t68 -28t28 -68t-28 -68t-68 -28t-68 28zM64 496h160v-752h-160v752z" />
    <glyph glyph-name="zero.subs" horiz-adv-x="376" 
d="M261 56.5q32 -23.5 49.5 -64t17.5 -88.5t-17.5 -88.5t-49.5 -64t-73 -23.5t-73 23.5t-49.5 64t-17.5 88.5t18 88.5t49.5 64t72.5 23.5t73 -23.5zM230.5 -170q17.5 30 17.5 74q0 45 -17.5 74.5t-42.5 29.5t-42.5 -29.5t-17.5 -74.5q0 -44 17.5 -74t42.5 -30t42.5 30z" />
    <glyph glyph-name="one.subs" horiz-adv-x="360" 
d="M248 80v-344h-80v248l-72 -16v72z" />
    <glyph glyph-name="two.subs" horiz-adv-x="376" 
d="M92 46q33 34 89 34q60 0 95.5 -31.5t35.5 -88.5q0 -31 -23.5 -67t-72.5 -85h112v-72h-280l132 136q52 57 52 88q0 23 -13.5 35.5t-34.5 12.5q-20 0 -34.5 -14t-15.5 -42l-78 8q3 52 36 86z" />
    <glyph glyph-name="three.subs" horiz-adv-x="368" 
d="M307 -116.5q13 -19.5 13 -43.5q0 -44 -33 -78t-103 -34q-60 0 -98 30.5t-38 81.5l80 8q5 -24 19 -36t41 -12q22 0 37 10t15 29t-23 27t-57 8v64q0 -1 20 1.5t36 11t16 25.5q0 15 -12.5 23.5t-33.5 8.5q-46 0 -52 -48l-78 8q5 51 39 81.5t89 30.5q62 0 95 -29t33 -67
q0 -22 -11 -41.5t-29 -28.5q22 -11 35 -30.5z" />
    <glyph glyph-name="four.subs" horiz-adv-x="368" 
d="M320 -128v-72h-40v-64h-80v64h-168v64l148 208h100v-200h40zM200 -9l-77 -119h77v119z" />
    <glyph glyph-name="five.subs" horiz-adv-x="368" 
d="M284 -68q36 -28 36 -78q0 -58 -36 -92t-100 -34q-62 0 -98 28.5t-38 83.5l80 5q2 -19 18 -32t38 -13q23 0 39.5 14t16.5 34q0 21 -14.5 34.5t-41.5 13.5q-39 0 -56 -24h-72l28 200h204v-72h-139l-6 -51q12 7 32.5 9.5t20.5 1.5q52 0 88 -28z" />
    <glyph glyph-name="six.subs" horiz-adv-x="376" 
d="M71.5 -40.5q23.5 59.5 104.5 112.5h123q-8 -4 -34 -18.5t-56 -39t-45 -51.5q3 1 16 4t34 3q51 0 82.5 -33.5t31.5 -80.5q0 -57 -38.5 -92.5t-101.5 -35.5q-65 0 -102.5 35.5t-37.5 96.5q0 40 23.5 99.5zM145 -111q-17 -15 -17 -37q0 -21 17 -36.5t43 -15.5t43 15t17 37
t-16.5 37t-43.5 15q-26 0 -43 -15z" />
    <glyph glyph-name="seven.subs" horiz-adv-x="360" 
d="M344 72l-152 -336h-88l120 264h-160v72h280z" />
    <glyph glyph-name="eight.subs" horiz-adv-x="368" 
d="M309 -115.5q11 -19.5 11 -44.5q0 -48 -36 -80t-100 -32t-100 32t-36 80q0 25 11 44.5t30 29.5q-15 11 -24 28t-9 34q0 45 36 74.5t92 29.5q57 0 92.5 -29.5t35.5 -74.5q0 -17 -9 -34t-24 -28q19 -10 30 -29.5zM150 -2.5q-14 -10.5 -14 -25.5t14 -25.5t34 -10.5t34 10.5
t14 25.5t-14 25.5t-34 10.5t-34 -10.5zM223.5 -187q16.5 13 16.5 31q0 19 -16.5 31.5t-39.5 12.5t-39.5 -12.5t-16.5 -31.5q0 -18 16.5 -31t39.5 -13t39.5 13z" />
    <glyph glyph-name="nine.subs" horiz-adv-x="376" 
d="M304.5 -150q-23.5 -60 -104.5 -114h-122q8 4 33.5 19t55.5 39t45 51q-3 -1 -15.5 -4t-33.5 -3q-51 0 -83 33.5t-32 80.5q0 57 39 92.5t101 35.5q65 0 102.5 -35.5t37.5 -95.5q0 -39 -23.5 -99zM231 -80.5q17 15.5 17 36.5q0 22 -17 37t-43 15t-43 -15t-17 -37
q0 -21 17 -36.5t43 -15.5t43 15.5z" />
    <glyph glyph-name="zero.tf" horiz-adv-x="656" 
d="M473.5 641q63.5 -47 99 -127.5t35.5 -177.5t-35.5 -177.5t-99 -127.5t-145.5 -47t-146 47t-99 127.5t-35 177.5t35.5 177.5t99 127.5t145.5 47t145.5 -47zM388.5 155q27.5 27 43.5 75t16 106t-16 106t-43.5 75t-60.5 27t-60.5 -27t-43.5 -75t-16 -106t16 -106t43.5 -75
t60.5 -27t60.5 27z" />
    <glyph glyph-name="one.tf" horiz-adv-x="656" 
d="M464 688v-688h-160v496l-144 -32v144z" />
    <glyph glyph-name="two.tf" horiz-adv-x="656" 
d="M98.5 569.5q30.5 54.5 85.5 86.5t129 32q121 0 192 -63t71 -177q0 -63 -47.5 -135.5t-144.5 -168.5h224v-144h-560l264 272q104 114 104 176q0 46 -27.5 71t-68.5 25t-70 -28t-31 -84l-155 16q4 67 34.5 121.5z" />
    <glyph glyph-name="three.tf" horiz-adv-x="656" 
d="M573.5 295q26.5 -39 26.5 -87q0 -55 -27.5 -106t-88.5 -84.5t-156 -33.5q-78 0 -140 27t-97 77.5t-35 119.5l160 16q8 -48 37 -72t82 -24q43 0 74 20.5t31 56.5q0 38 -46.5 54.5t-113.5 16.5v128q0 -2 40 3t72 22t32 51q0 30 -25.5 47t-67.5 17q-92 0 -103 -96l-156 16
q9 103 77 163.5t179 60.5q83 0 141 -28t86.5 -72t28.5 -92q0 -44 -22 -83t-58 -58q43 -21 69.5 -60z" />
    <glyph glyph-name="four.tf" horiz-adv-x="656" 
d="M616 272v-144h-80v-128h-160v128h-336v128l296 416h200v-400h80zM376 510l-155 -238h155v238z" />
    <glyph glyph-name="five.tf" horiz-adv-x="656" 
d="M475.5 423.5q56.5 -24.5 90.5 -72.5t34 -116q0 -75 -32.5 -132t-94 -88t-145.5 -31q-124 0 -196 57t-76 167l160 10q3 -38 35 -64t77 -26q46 0 79 28t33 68q0 42 -29.5 69t-82.5 27q-34 0 -64 -11.5t-48 -36.5h-145l57 400h408v-144h-279l-12 -102q17 10 40.5 15t42 6
t23.5 1q68 0 124.5 -24.5z" />
    <glyph glyph-name="six.tf" horiz-adv-x="656" 
d="M95 445.5q47 119.5 209 226.5h245q0 2 -59.5 -32.5t-119.5 -83t-90 -102.5q3 1 14 4.5t33 6.5t52 3q68 0 120 -31.5t80.5 -84t28.5 -112.5q0 -75 -35 -133.5t-98.5 -90.5t-146.5 -32q-86 0 -149.5 32t-97 91.5t-33.5 139.5q0 79 47 198.5zM242 305.5q-34 -30.5 -34 -73.5
t34 -73.5t86 -30.5t86 30t34 74t-34 74t-86 30t-86 -30.5z" />
    <glyph glyph-name="seven.tf" horiz-adv-x="656" 
d="M616 672l-304 -672h-176l240 528h-320v144h560z" />
    <glyph glyph-name="eight.tf" horiz-adv-x="656" 
d="M578 296.5q22 -39.5 22 -88.5q0 -63 -31.5 -113.5t-93 -80.5t-147.5 -30t-147.5 30t-93 80.5t-31.5 113.5q0 49 22 88.5t60 58.5q-30 23 -48 57t-18 68q0 59 32.5 106.5t91 74.5t132.5 27q75 0 133.5 -27.5t90.5 -75t32 -105.5q0 -34 -18 -68t-48 -57q38 -19 60 -58.5z
M260 523q-28 -21 -28 -51t28 -51t68 -21t68 21t28 51t-28 51t-68 21t-68 -21zM407.5 153.5q32.5 25.5 32.5 62.5t-32.5 62.5t-79.5 25.5t-79.5 -25.5t-32.5 -62.5t32.5 -62.5t79.5 -25.5t79.5 25.5z" />
    <glyph glyph-name="nine.tf" horiz-adv-x="656" 
d="M561 226.5q-47 -119.5 -209 -226.5h-245q0 -2 59.5 32.5t119.5 83t90 102.5q-3 -1 -14 -4.5t-33 -6.5t-52 -3q-68 0 -120 31.5t-80.5 84t-28.5 112.5q0 75 35 133.5t98.5 90.5t146.5 32q86 0 149.5 -32t97 -91.5t33.5 -139.5q0 -79 -47 -198.5zM414 366.5
q34 30.5 34 73.5t-34 73.5t-86 30.5t-86 -30t-34 -74t34 -74t86 -30t86 30.5z" />
    <glyph glyph-name="zero.zero" horiz-adv-x="656" 
d="M473.5 641q63.5 -47 99 -127.5t35.5 -177.5t-35.5 -177.5t-99 -127.5t-145.5 -47t-146 47t-99 127.5t-35 177.5t35.5 177.5t99 127.5t145.5 47t145.5 -47zM267.5 517q-27.5 -27 -43.5 -75t-16 -106q0 -38 8 -75l195 227q-17 27 -38 41.5t-45 14.5q-33 0 -60.5 -27z
M388.5 155q27.5 27 43.5 75t16 106q0 38 -8 75l-195 -227q17 -27 38 -41.5t45 -14.5q33 0 60.5 27z" />
    <glyph glyph-name="zero.tf.zero" horiz-adv-x="656" 
d="M473.5 641q63.5 -47 99 -127.5t35.5 -177.5t-35.5 -177.5t-99 -127.5t-145.5 -47t-146 47t-99 127.5t-35 177.5t35.5 177.5t99 127.5t145.5 47t145.5 -47zM267.5 517q-27.5 -27 -43.5 -75t-16 -106q0 -38 8 -75l195 227q-17 27 -38 41.5t-45 14.5q-33 0 -60.5 -27z
M388.5 155q27.5 27 43.5 75t16 106q0 38 -8 75l-195 -227q17 -27 38 -41.5t45 -14.5q33 0 60.5 27z" />
    <glyph glyph-name="zero.dnom" horiz-adv-x="376" 
d="M261 320.5q32 -23.5 49.5 -64t17.5 -88.5t-17.5 -88.5t-49.5 -64t-73 -23.5t-73 23.5t-49.5 64t-17.5 88.5t18 88.5t49.5 64t72.5 23.5t73 -23.5zM230.5 94q17.5 30 17.5 74q0 45 -17.5 74.5t-42.5 29.5t-42.5 -29.5t-17.5 -74.5q0 -44 17.5 -74t42.5 -30t42.5 30z" />
    <glyph glyph-name="one.dnom" horiz-adv-x="360" 
d="M248 344v-344h-80v248l-72 -16v72z" />
    <glyph glyph-name="two.dnom" horiz-adv-x="376" 
d="M92 310q33 34 89 34q60 0 95.5 -31.5t35.5 -88.5q0 -31 -23.5 -67t-72.5 -85h112v-72h-280l132 136q52 57 52 88q0 23 -13.5 35.5t-34.5 12.5q-20 0 -34.5 -14t-15.5 -42l-78 8q3 52 36 86z" />
    <glyph glyph-name="three.dnom" horiz-adv-x="368" 
d="M307 147.5q13 -19.5 13 -43.5q0 -44 -33 -78t-103 -34q-60 0 -98 30.5t-38 81.5l80 8q5 -24 19 -36t41 -12q22 0 37 10t15 29t-23 27t-57 8v64q0 -1 20 1.5t36 11t16 25.5q0 15 -12.5 23.5t-33.5 8.5q-46 0 -52 -48l-78 8q5 51 39 81.5t89 30.5q62 0 95 -29t33 -67
q0 -22 -11 -41.5t-29 -28.5q22 -11 35 -30.5z" />
    <glyph glyph-name="four.dnom" horiz-adv-x="368" 
d="M320 136v-72h-40v-64h-80v64h-168v64l148 208h100v-200h40zM200 255l-77 -119h77v119z" />
    <glyph glyph-name="five.dnom" horiz-adv-x="368" 
d="M284 196q36 -28 36 -78q0 -58 -36 -92t-100 -34q-62 0 -98 28.5t-38 83.5l80 5q2 -19 18 -32t38 -13q23 0 39.5 14t16.5 34q0 21 -14.5 34.5t-41.5 13.5q-39 0 -56 -24h-72l28 200h204v-72h-139l-6 -51q12 7 32.5 9.5t20.5 1.5q52 0 88 -28z" />
    <glyph glyph-name="six.dnom" horiz-adv-x="376" 
d="M71.5 223.5q23.5 59.5 104.5 112.5h123q-8 -4 -34 -18.5t-56 -39t-45 -51.5q3 1 16 4t34 3q51 0 82.5 -33.5t31.5 -80.5q0 -57 -38.5 -92.5t-101.5 -35.5q-65 0 -102.5 35.5t-37.5 96.5q0 40 23.5 99.5zM145 153q-17 -15 -17 -37q0 -21 17 -36.5t43 -15.5t43 15t17 37
t-16.5 37t-43.5 15q-26 0 -43 -15z" />
    <glyph glyph-name="seven.dnom" horiz-adv-x="360" 
d="M344 336l-152 -336h-88l120 264h-160v72h280z" />
    <glyph glyph-name="eight.dnom" horiz-adv-x="368" 
d="M309 148.5q11 -19.5 11 -44.5q0 -48 -36 -80t-100 -32t-100 32t-36 80q0 25 11 44.5t30 29.5q-15 11 -24 28t-9 34q0 45 36 74.5t92 29.5q57 0 92.5 -29.5t35.5 -74.5q0 -17 -9 -34t-24 -28q19 -10 30 -29.5zM150 261.5q-14 -10.5 -14 -25.5t14 -25.5t34 -10.5t34 10.5
t14 25.5t-14 25.5t-34 10.5t-34 -10.5zM223.5 77q16.5 13 16.5 31q0 19 -16.5 31.5t-39.5 12.5t-39.5 -12.5t-16.5 -31.5q0 -18 16.5 -31t39.5 -13t39.5 13z" />
    <glyph glyph-name="nine.dnom" horiz-adv-x="376" 
d="M304.5 114q-23.5 -60 -104.5 -114h-122q8 4 33.5 19t55.5 39t45 51q-3 -1 -15.5 -4t-33.5 -3q-51 0 -83 33.5t-32 80.5q0 57 39 92.5t101 35.5q65 0 102.5 -35.5t37.5 -95.5q0 -39 -23.5 -99zM231 183.5q17 15.5 17 36.5q0 22 -17 37t-43 15t-43 -15t-17 -37
q0 -21 17 -36.5t43 -15.5t43 15.5z" />
    <glyph glyph-name="zero.numr" horiz-adv-x="376" 
d="M261 656.5q32 -23.5 49.5 -64t17.5 -88.5t-17.5 -88.5t-49.5 -64t-73 -23.5t-73 23.5t-49.5 64t-17.5 88.5t18 88.5t49.5 64t72.5 23.5t73 -23.5zM230.5 430q17.5 30 17.5 74q0 45 -17.5 74.5t-42.5 29.5t-42.5 -29.5t-17.5 -74.5q0 -44 17.5 -74t42.5 -30t42.5 30z" />
    <glyph glyph-name="one.numr" horiz-adv-x="360" 
d="M248 680v-344h-80v248l-72 -16v72z" />
    <glyph glyph-name="two.numr" horiz-adv-x="376" 
d="M92 646q33 34 89 34q60 0 95.5 -31.5t35.5 -88.5q0 -31 -23.5 -67t-72.5 -85h112v-72h-280l132 136q52 57 52 88q0 23 -13.5 35.5t-34.5 12.5q-20 0 -34.5 -14t-15.5 -42l-78 8q3 52 36 86z" />
    <glyph glyph-name="three.numr" horiz-adv-x="368" 
d="M307 483.5q13 -19.5 13 -43.5q0 -44 -33 -78t-103 -34q-60 0 -98 30.5t-38 81.5l80 8q5 -24 19 -36t41 -12q22 0 37 10t15 29t-23 27t-57 8v64q0 -1 20 1.5t36 11t16 25.5q0 15 -12.5 23.5t-33.5 8.5q-46 0 -52 -48l-78 8q5 51 39 81.5t89 30.5q62 0 95 -29t33 -67
q0 -22 -11 -41.5t-29 -28.5q22 -11 35 -30.5z" />
    <glyph glyph-name="four.numr" horiz-adv-x="368" 
d="M320 472v-72h-40v-64h-80v64h-168v64l148 208h100v-200h40zM200 591l-77 -119h77v119z" />
    <glyph glyph-name="five.numr" horiz-adv-x="368" 
d="M284 532q36 -28 36 -78q0 -58 -36 -92t-100 -34q-62 0 -98 28.5t-38 83.5l80 5q2 -19 18 -32t38 -13q23 0 39.5 14t16.5 34q0 21 -14.5 34.5t-41.5 13.5q-39 0 -56 -24h-72l28 200h204v-72h-139l-6 -51q12 7 32.5 9.5t20.5 1.5q52 0 88 -28z" />
    <glyph glyph-name="six.numr" horiz-adv-x="376" 
d="M71.5 559.5q23.5 59.5 104.5 112.5h123q-8 -4 -34 -18.5t-56 -39t-45 -51.5q3 1 16 4t34 3q51 0 82.5 -33.5t31.5 -80.5q0 -57 -38.5 -92.5t-101.5 -35.5q-65 0 -102.5 35.5t-37.5 96.5q0 40 23.5 99.5zM145 489q-17 -15 -17 -37q0 -21 17 -36.5t43 -15.5t43 15t17 37
t-16.5 37t-43.5 15q-26 0 -43 -15z" />
    <glyph glyph-name="seven.numr" horiz-adv-x="360" 
d="M344 672l-152 -336h-88l120 264h-160v72h280z" />
    <glyph glyph-name="eight.numr" horiz-adv-x="368" 
d="M309 484.5q11 -19.5 11 -44.5q0 -48 -36 -80t-100 -32t-100 32t-36 80q0 25 11 44.5t30 29.5q-15 11 -24 28t-9 34q0 45 36 74.5t92 29.5q57 0 92.5 -29.5t35.5 -74.5q0 -17 -9 -34t-24 -28q19 -10 30 -29.5zM150 597.5q-14 -10.5 -14 -25.5t14 -25.5t34 -10.5t34 10.5
t14 25.5t-14 25.5t-34 10.5t-34 -10.5zM223.5 413q16.5 13 16.5 31q0 19 -16.5 31.5t-39.5 12.5t-39.5 -12.5t-16.5 -31.5q0 -18 16.5 -31t39.5 -13t39.5 13z" />
    <glyph glyph-name="nine.numr" horiz-adv-x="376" 
d="M304.5 450q-23.5 -60 -104.5 -114h-122q8 4 33.5 19t55.5 39t45 51q-3 -1 -15.5 -4t-33.5 -3q-51 0 -83 33.5t-32 80.5q0 57 39 92.5t101 35.5q65 0 102.5 -35.5t37.5 -95.5q0 -39 -23.5 -99zM231 519.5q17 15.5 17 36.5q0 22 -17 37t-43 15t-43 -15t-17 -37
q0 -21 17 -36.5t43 -15.5t43 15.5z" />
    <glyph glyph-name="exclam.case" horiz-adv-x="304" 
d="M72 672h160l-32 -464h-96zM89.5 9.5q-25.5 25.5 -25.5 62.5t25.5 62.5t62.5 25.5t62.5 -25.5t25.5 -62.5t-25.5 -62.5t-62.5 -25.5t-62.5 25.5z" />
    <glyph glyph-name="exclamdown.case" horiz-adv-x="304" 
d="M214.5 662.5q25.5 -25.5 25.5 -62.5t-25.5 -62.5t-62.5 -25.5t-62.5 25.5t-25.5 62.5t25.5 62.5t62.5 25.5t62.5 -25.5zM200 464l32 -464h-160l32 464h96z" />
    <glyph glyph-name="question.case" horiz-adv-x="560" 
d="M402.5 661q54.5 -27 82 -71t27.5 -94q0 -54 -25 -97t-79 -85q-32 -24 -51.5 -52t-20.5 -70h-128l-1 21q0 86 49 136l31 29q34 32 49.5 53.5t15.5 50.5q0 32 -24.5 47.5t-62.5 15.5q-88 0 -153 -65l-64 112q36 39 94 67.5t130 28.5q76 0 130.5 -27zM334.5 134.5
q25.5 -25.5 25.5 -62.5t-25.5 -62.5t-62.5 -25.5t-62.5 25.5t-25.5 62.5t25.5 62.5t62.5 25.5t62.5 -25.5z" />
    <glyph glyph-name="questiondown.case" horiz-adv-x="560" 
d="M225.5 537.5q-25.5 25.5 -25.5 62.5t25.5 62.5t62.5 25.5t62.5 -25.5t25.5 -62.5t-25.5 -62.5t-62.5 -25.5t-62.5 25.5zM157.5 11q-54.5 27 -82 71t-27.5 94q0 54 25 97t79 85q32 24 51.5 52t20.5 70h128l1 -21q0 -86 -49 -136l-31 -29q-34 -32 -49.5 -53.5t-15.5 -50.5
q0 -32 24.5 -47.5t62.5 -15.5q88 0 153 65l64 -112q-36 -39 -94 -67.5t-130 -28.5q-76 0 -130.5 27z" />
    <glyph glyph-name="braceleft.case" horiz-adv-x="416" 
d="M308 -58q20 -29 60 -38l-80 -96q-75 25 -109.5 70.5t-34.5 111.5v234q0 27 -15.5 50.5t-38 40t-42.5 21.5q20 5 42.5 21.5t38 40t15.5 50.5v234q0 66 34.5 111.5t109.5 70.5l80 -96q-40 -9 -60 -38t-20 -68v-180q0 -56 -19.5 -93.5t-55.5 -52.5q36 -15 55.5 -52.5
t19.5 -93.5v-180q0 -39 20 -68z" />
    <glyph glyph-name="braceright.case" horiz-adv-x="416" 
d="M128 190q0 56 19.5 93.5t55.5 52.5q-36 15 -55.5 52.5t-19.5 93.5v180q0 39 -20 68t-60 38l80 96q75 -25 109.5 -70.5t34.5 -111.5v-234q0 -27 15.5 -50.5t38 -40t42.5 -21.5q-20 -5 -42.5 -21.5t-38 -40t-15.5 -50.5v-234q0 -66 -34.5 -111.5t-109.5 -70.5l-80 96
q40 9 60 38t20 68v180z" />
    <glyph glyph-name="bracketleft.case" horiz-adv-x="352" 
d="M208 -40h80v-144h-224v1040h224v-144h-80v-752z" />
    <glyph glyph-name="bracketright.case" horiz-adv-x="352" 
d="M64 712v144h224v-1040h-224v144h80v752h-80z" />
    <glyph glyph-name="parenleft.case" horiz-adv-x="352" 
d="M192 336q0 -222 128 -416l-144 -48q-128 232 -128 464t128 464l144 -48q-128 -194 -128 -416z" />
    <glyph glyph-name="parenright.case" horiz-adv-x="352" 
d="M176 800q128 -232 128 -464t-128 -464l-144 48q128 194 128 416t-128 416z" />
    <glyph glyph-name="emdash.case" horiz-adv-x="624" 
d="M48 280v112h528v-112h-528z" />
    <glyph glyph-name="endash.case" horiz-adv-x="528" 
d="M48 280v112h432v-112h-432z" />
    <glyph glyph-name="hyphen.case" horiz-adv-x="400" 
d="M48 280v112h304v-112h-304z" />
    <glyph glyph-name="guillemotleft.case" horiz-adv-x="656" 
d="M176 336l160 -224h-128l-160 224l160 224h128zM416 336l160 -224h-128l-160 224l160 224h128z" />
    <glyph glyph-name="guillemotright.case" horiz-adv-x="656" 
d="M208 560l160 -224l-160 -224h-128l160 224l-160 224h128zM448 560l160 -224l-160 -224h-128l160 224l-160 224h128z" />
    <glyph glyph-name="guilsinglleft.case" horiz-adv-x="416" 
d="M176 336l160 -224h-128l-160 224l160 224h128z" />
    <glyph glyph-name="guilsinglright.case" horiz-adv-x="416" 
d="M208 560l160 -224l-160 -224h-128l160 224l-160 224h128z" />
    <glyph glyph-name="ampersand.ss01" horiz-adv-x="832" 
d="M639 184l144 -184h-191l-63 80q-53 -48 -113 -72t-116 -24q-66 0 -123.5 25t-93 75.5t-35.5 123.5q0 56 29 100.5t79 72t111 33.5l-203 258h544v-144h-240l186 -236l32 28h198zM372.5 142.5q31.5 13.5 69.5 47.5l-87 111q-61 3 -103.5 -21.5t-42.5 -69.5q0 -35 28.5 -58
t71.5 -23q32 0 63.5 13.5z" />
    <glyph glyph-name="brevecy" horiz-adv-x="632" 
 />
    </font>
</defs>
</svg>
