<?xml version="1.0" standalone="no"?>
<!DOCTYPE svg PUBLIC "-//W3C//DTD SVG 1.1//EN" "http://www.w3.org/Graphics/SVG/1.1/DTD/svg11.dtd" >
<svg xmlns="http://www.w3.org/2000/svg" xmlns:xlink="http://www.w3.org/1999/xlink" version="1.1">
<metadata>
Created by FontForge 20170731 at Tue Mar  7 18:37:51 2017
 By Aleksey,,,
Copyright (c) Milos Mitrovic, 2016. All rights reserved.
</metadata>
<defs>
<font id="NoirPro-Italic" horiz-adv-x="608" >
  <font-face 
    font-family="Noir Pro Italic"
    font-weight="400"
    font-style="italic"
    font-stretch="normal"
    units-per-em="1000"
    panose-1="0 0 5 0 0 0 0 0 0 0"
    ascent="800"
    descent="-200"
    x-height="480"
    cap-height="672"
    bbox="-193 -304 1072 1104"
    underline-thickness="50"
    underline-position="-150"
    unicode-range="U+0020-25CA"
  />
<missing-glyph horiz-adv-x="528" 
d="M433 -256h-335v1056h335v-1056zM177 729v-35h69v-39h-70v-35h176v35h-70v39h70v35h-175zM176 593v-110h176v36h-70v74h-106zM246 519h-35v38h35v-38zM176 455v-35h70v-39h-70v-35h106v74h70v35h-176zM317 391v-69h-141v-36h176v105h-35zM246 262v-59h36v25h35v-50h-106
v84h-35v-119h176v119h-106zM176 80v-120h176v120h-176zM317 -5h-106v50h106v-50zM176 -64v-35h74l-74 -49v-35h176v35h-108l74 49h34v35h-176z" />
    <glyph glyph-name=".notdef" horiz-adv-x="528" 
d="M433 -256h-335v1056h335v-1056zM177 729v-35h69v-39h-70v-35h176v35h-70v39h70v35h-175zM176 593v-110h176v36h-70v74h-106zM246 519h-35v38h35v-38zM176 455v-35h70v-39h-70v-35h106v74h70v35h-176zM317 391v-69h-141v-36h176v105h-35zM246 262v-59h36v25h35v-50h-106
v84h-35v-119h176v119h-106zM176 80v-120h176v120h-176zM317 -5h-106v50h106v-50zM176 -64v-35h74l-74 -49v-35h176v35h-108l74 49h34v35h-176z" />
    <glyph glyph-name=".null" horiz-adv-x="0" 
 />
    <glyph glyph-name="nonmarkingreturn" horiz-adv-x="333" 
 />
    <glyph glyph-name="space" unicode=" " horiz-adv-x="320" 
 />
    <glyph glyph-name="exclam" unicode="!" horiz-adv-x="288" 
d="M121 672h128l-91 -480h-64zM56 10q-18 18 -18 45q0 33 24.5 57t56.5 24q28 0 46.5 -18t18.5 -45q0 -33 -24.5 -57t-57.5 -24q-28 0 -46 18z" />
    <glyph glyph-name="quotedbl" unicode="&#x22;" horiz-adv-x="416" 
d="M88 464l9 208h104l-41 -208h-72zM288 464l9 208h104l-41 -208h-72z" />
    <glyph glyph-name="numbersign" unicode="#" horiz-adv-x="688" 
d="M519 416l-51 -176h112l-8 -64h-123l-50 -176h-72l51 176h-157l-50 -176h-75l52 176h-112l8 64h123l51 176h-112l8 64h123l55 192h72l-55 -192h157l55 192h72l-55 -192h112l-8 -64h-123zM447 416h-157l-51 -176h157z" />
    <glyph glyph-name="dollar" unicode="$" horiz-adv-x="592" 
d="M505.5 112q-31.5 -50 -88.5 -81.5t-131 -37.5l-9 -73h-48l9 72q-94 4 -149 41t-78 68l59 86q36 -47 88.5 -73t111.5 -26q75 0 119 28t49 77q5 39 -32 64.5t-108 38.5q-119 21 -169 62t-50 103q0 57 29 105.5t84 78.5t130 34l9 73h48l-9 -73q116 -8 184 -79l-56 -87
q-65 71 -165 71q-73 0 -114.5 -28t-41.5 -77q0 -33 33 -52t108 -35q113 -23 166 -61.5t53 -107.5q0 -61 -31.5 -111z" />
    <glyph glyph-name="percent" unicode="%" horiz-adv-x="784" 
d="M116 427.5q-36 35.5 -36 89.5q0 44 22.5 81.5t60 59.5t80.5 22q55 0 91 -36.5t36 -90.5q0 -43 -22.5 -80.5t-60 -59t-79.5 -21.5q-56 0 -92 35.5zM85 0l550 672h64l-550 -672h-64zM278 483q28 27 28 62q0 29 -21 50t-51 21q-35 0 -62.5 -27.5t-27.5 -62.5
q0 -29 20.5 -49.5t50.5 -20.5q35 0 63 27zM450.5 28q-36.5 36 -36.5 90q0 43 22.5 80.5t60.5 59.5t81 22q55 0 90.5 -35.5t35.5 -89.5q0 -44 -22 -81.5t-59.5 -59.5t-79.5 -22q-56 0 -92.5 36zM612.5 83.5q27.5 27.5 27.5 62.5q0 29 -20.5 49.5t-50.5 20.5q-35 0 -63 -27
t-28 -62q0 -29 21 -50t51 -21q35 0 62.5 27.5z" />
    <glyph glyph-name="ampersand" unicode="&#x26;" horiz-adv-x="737" 
d="M505 152l135 -152h-135l-71 83q-48 -43 -99 -67t-111 -24q-87 0 -137.5 45t-50.5 120q0 10 2 30q8 63 50 109t98 69q-32 35 -49.5 65t-17.5 65q0 46 26.5 88.5t78.5 69.5t124 27q56 0 96.5 -20.5t61 -55.5t20.5 -77q0 -80 -58 -128t-124 -68l103 -113l106 102h125z
M393.5 449q35.5 27 35.5 66q0 30 -26.5 49.5t-71.5 19.5q-39 0 -65 -12.5t-38 -31t-12 -36.5q0 -24 15 -45.5t40 -46.5l14 -15q73 25 108.5 52zM374 151l-128 147q-44 -17 -79 -48.5t-35 -78.5q0 -39 28 -61t78 -22q67 0 136 63z" />
    <glyph glyph-name="quotesingle" unicode="'" horiz-adv-x="216" 
d="M88 464l9 208h104l-41 -208h-72z" />
    <glyph glyph-name="parenleft" unicode="(" horiz-adv-x="304" 
d="M204.5 532q-40.5 -103 -56.5 -228q-8 -67 -8 -119q0 -165 69 -301l-86 -44q-37 70 -57.5 160.5t-20.5 190.5q0 60 7 113q16 130 66 252t119 212l75 -44q-67 -89 -107.5 -192z" />
    <glyph glyph-name="parenright" unicode=")" horiz-adv-x="304" 
d="M173 768q37 -70 57.5 -160.5t20.5 -190.5q0 -60 -7 -113q-16 -130 -66 -252t-119 -212l-74 44q67 90 107 192.5t56 227.5q8 67 8 119q0 163 -68 301z" />
    <glyph glyph-name="asterisk" unicode="*" horiz-adv-x="444" 
d="M396 632l20 -69l-119 -38l65 -96l-63 -42l-58 100l-81 -100l-55 42l88 96l-109 38l36 69l101 -48l10 120h72l-20 -120z" />
    <glyph glyph-name="plus" unicode="+" horiz-adv-x="480" 
d="M416 272h-152l-19 -152h-64l19 152h-152l8 64h152l19 152h64l-19 -152h152z" />
    <glyph glyph-name="comma" unicode="," horiz-adv-x="264" 
d="M60 112h120l-131 -224h-64z" />
    <glyph glyph-name="hyphen" unicode="-" horiz-adv-x="384" 
d="M42 224l10 80h272l-10 -80h-272z" />
    <glyph glyph-name="period" unicode="." horiz-adv-x="256" 
d="M40 10q-18 18 -18 45q0 33 24 57t57 24q29 0 47 -17.5t18 -45.5q0 -33 -24.5 -57t-57.5 -24q-28 0 -46 18z" />
    <glyph glyph-name="slash" unicode="/" horiz-adv-x="512" 
d="M5 -80l422 832h80l-422 -832h-80z" />
    <glyph glyph-name="zero" unicode="0" 
d="M457.5 643.5q47.5 -36.5 73 -100.5t25.5 -145q0 -34 -4 -62q-11 -95 -52.5 -173.5t-103.5 -124.5t-134 -46q-64 0 -112 36.5t-73 100.5t-25 144q0 34 4 63q11 95 52 173.5t103.5 124.5t134.5 46q64 0 111.5 -36.5zM354 121.5q39 33.5 66.5 90.5t35.5 124q3 26 3 49
q0 57 -16 102t-44.5 71t-64.5 26q-41 0 -80 -33.5t-66.5 -90.5t-35.5 -124q-3 -25 -3 -49q0 -57 16 -102t44.5 -71t64.5 -26q41 0 80 33.5z" />
    <glyph glyph-name="one" unicode="1" horiz-adv-x="368" 
d="M323 688l-84 -688h-96l69 564l-116 -36l10 88z" />
    <glyph glyph-name="two" unicode="2" 
d="M132.5 574.5q33.5 47.5 86.5 76.5t119 29q58 0 103.5 -23.5t71 -66t25.5 -97.5q0 -50 -21.5 -94.5t-59 -86.5t-103.5 -104l-118 -112h287l-12 -96h-496l279 270q71 69 105.5 110t39.5 78q1 6 1 18q0 50 -31 79t-83 29q-55 0 -93.5 -36.5t-48.5 -91.5l-96 16
q11 55 44.5 102.5z" />
    <glyph glyph-name="three" unicode="3" horiz-adv-x="592" 
d="M498 307.5q23 -35.5 23 -79.5q0 -13 -1 -20q-6 -54 -37 -103.5t-88.5 -81t-140.5 -31.5q-107 0 -163 59t-51 157l98 16q0 -61 31 -98.5t103 -37.5q46 0 80.5 17.5t53 46.5t18.5 63q0 48 -41.5 64.5t-123.5 16.5l12 96q61 1 113 22t59 74q3 23 -8 45.5t-37 36.5t-66 14
q-70 0 -103 -35t-47 -93l-94 16q12 60 47.5 107t88.5 74t114 27q68 0 114 -25.5t67.5 -64t21.5 -78.5q0 -11 -1 -16q-11 -93 -98 -141q33 -12 56 -47.5z" />
    <glyph glyph-name="four" unicode="4" 
d="M536 208l-12 -96h-80l-13 -112h-96l13 112h-352l519 576l-59 -480h80zM388 430l-190 -222h162z" />
    <glyph glyph-name="five" unicode="5" horiz-adv-x="592" 
d="M427 425.5q44 -22.5 71 -65.5t27 -102q0 -9 -2 -31q-8 -68 -47.5 -121.5t-98.5 -83.5t-123 -30q-65 0 -115 28t-76.5 75.5t-23.5 104.5l102 10q-1 -31 14 -59.5t44 -45.5t67 -17q41 0 78.5 20.5t60 56t22.5 77.5q0 49 -31 79.5t-83 30.5q-41 0 -83 -21t-69 -59h-98
l109 400h341l-12 -96h-259l-47 -172q28 20 65.5 32t70.5 12q52 0 96 -22.5z" />
    <glyph glyph-name="six" unicode="6" 
d="M447 443.5q46 -26.5 71 -72t25 -99.5q0 -9 -2 -27q-9 -74 -48 -131.5t-99.5 -89.5t-131.5 -32q-100 0 -159.5 58.5t-59.5 158.5q0 21 3 43q8 71 42.5 148t96 149t147.5 123h170q0 3 -58 -24.5t-123 -79t-111 -127.5q55 29 129 29q62 0 108 -26.5zM360 110.5
q39 22.5 61.5 60.5t22.5 82q0 54 -36 87.5t-99 33.5q-47 0 -86 -21t-62 -57.5t-23 -79.5q0 -55 37.5 -91.5t98.5 -36.5q47 0 86 22.5z" />
    <glyph glyph-name="seven" unicode="7" horiz-adv-x="544" 
d="M577 672l-370 -672h-112l318 576h-328l12 96h480z" />
    <glyph glyph-name="eight" unicode="8" 
d="M519.5 312q18.5 -35 18.5 -78q0 -70 -38 -125.5t-101.5 -86t-136.5 -30.5q-63 0 -114 23.5t-80.5 66.5t-29.5 99q0 60 29.5 109.5t82.5 78.5q-44 33 -44 100q0 58 33 106.5t88 76.5t119 28q55 0 99 -21.5t69.5 -59.5t25.5 -86q0 -43 -19.5 -81.5t-55.5 -62.5
q36 -22 54.5 -57zM269 570.5q-30 -13.5 -48 -35.5t-18 -47q0 -33 31.5 -56.5t78.5 -23.5q34 0 64.5 13.5t48.5 35t18 46.5q0 34 -31.5 57.5t-78.5 23.5q-35 0 -65 -13.5zM356.5 105q38.5 17 61.5 46t23 64q0 46 -39.5 75.5t-99.5 29.5q-44 0 -82.5 -17t-61.5 -46t-23 -64
q0 -46 39.5 -75.5t99.5 -29.5q44 0 82.5 17z" />
    <glyph glyph-name="nine" unicode="9" 
d="M161 228.5q-46 26.5 -71 72t-25 99.5q0 9 2 27q9 74 48 131.5t99.5 89.5t131.5 32q100 0 159.5 -58.5t59.5 -158.5q0 -20 -3 -43q-8 -71 -42.5 -148t-96 -149t-147.5 -123h-170q0 -3 58 24.5t123 79t111 127.5q-28 -15 -57 -22t-72 -7q-62 0 -108 26.5zM248 561.5
q-39 -22.5 -61.5 -60.5t-22.5 -82q0 -54 36 -87.5t99 -33.5q47 0 86 21t62 57.5t23 79.5q0 55 -37.5 91.5t-98.5 36.5q-47 0 -86 -22.5z" />
    <glyph glyph-name="colon" unicode=":" horiz-adv-x="256" 
d="M83 362q-18 18 -18 45q0 33 24.5 57t57.5 24q28 0 46 -17.5t18 -44.5q0 -34 -24.5 -58t-57.5 -24q-28 0 -46 18zM40 10q-18 18 -18 45q0 33 24.5 57t56.5 24q28 0 46.5 -18t18.5 -45q0 -33 -24.5 -57t-57.5 -24q-28 0 -46 18z" />
    <glyph glyph-name="semicolon" unicode=";" horiz-adv-x="276" 
d="M103 362q-18 18 -18 45q0 33 24.5 57t57.5 24q28 0 46 -17.5t18 -44.5q0 -34 -24.5 -58t-57.5 -24q-28 0 -46 18zM60 112h120l-131 -224h-64z" />
    <glyph glyph-name="less" unicode="&#x3c;" horiz-adv-x="528" 
d="M48 272l8 64l440 192l-10 -80l-338 -144l302 -144l-9 -80z" />
    <glyph glyph-name="equal" unicode="=" horiz-adv-x="512" 
d="M465 408l-8 -64h-400l8 64h400zM447 264l-8 -64h-400l8 64h400z" />
    <glyph glyph-name="greater" unicode="&#x3e;" horiz-adv-x="528" 
d="M34 160l338 144l-302 144l10 80l392 -192l-8 -64l-439 -192z" />
    <glyph glyph-name="question" unicode="?" horiz-adv-x="528" 
d="M408.5 655.5q43.5 -24.5 63.5 -63.5t20 -83q0 -14 -1 -21q-6 -50 -34 -87t-80 -77q-42 -31 -63.5 -62t-27.5 -70h-96q4 38 23 79.5t58 77.5q15 13 42 35q42 34 62.5 58.5t20.5 56.5q0 38 -28.5 61.5t-80.5 23.5t-90.5 -23t-63.5 -55l-47 78q100 96 212 96
q67 0 110.5 -24.5zM277.5 118q18.5 -18 18.5 -45q0 -33 -24.5 -57t-57.5 -24q-28 0 -46 18t-18 45q0 33 24.5 57t56.5 24q28 0 46.5 -18z" />
    <glyph glyph-name="at" unicode="@" horiz-adv-x="1088" 
d="M987.5 197.5q-34.5 -60.5 -91.5 -97t-128 -36.5q-56 0 -87.5 25.5t-42.5 63.5q-59 -71 -158 -71q-54 0 -93.5 22.5t-60 61t-20.5 86.5q0 21 5 46q12 59 47.5 107.5t86.5 76.5t108 28q41 0 75.5 -18.5t45.5 -41.5l10 46h94l-52 -236q-4 -15 -4 -33q0 -31 16.5 -49
t52.5 -18q26 0 56 15.5t55 53t33 100.5q3 21 3 42q0 89 -45.5 161.5t-124 114t-173.5 41.5q-109 0 -207 -53t-163 -145t-79 -202q-3 -25 -3 -49q0 -98 47 -178.5t130 -126.5t186 -46q85 0 147 28l17 -90q-81 -34 -185 -34q-124 0 -224.5 57t-157.5 156.5t-57 220.5
q0 34 4 62q17 135 97.5 249t202.5 180.5t257 66.5q117 0 215 -54t155 -146.5t57 -202.5q0 -25 -3 -51q-9 -72 -43.5 -132.5zM643 325q0 41 -23.5 71t-72.5 30q-48 0 -89 -36.5t-53 -90.5q-3 -15 -3 -30q0 -42 24 -71.5t71 -29.5q54 0 93 37t50 92q3 14 3 28z" />
    <glyph glyph-name="A" unicode="A" horiz-adv-x="656" 
d="M455 144h-302l-82 -144h-104l404 688l236 -688h-104zM423 240l-78 236l-136 -236h214z" />
    <glyph glyph-name="B" unicode="B" horiz-adv-x="576" 
d="M498 312q23 -37 23 -86q0 -16 -1 -24q-8 -58 -39.5 -104t-83.5 -72t-118 -26h-248l82 672h201q102 0 157 -38.5t55 -111.5q0 -58 -29 -102t-70 -59q48 -12 71 -49zM177 408h120q62 0 96.5 24t34.5 72q0 36 -28.5 54t-82.5 18h-120zM378 123q39 27 46 81q1 6 1 17
q0 45 -32.5 68t-91.5 23h-136l-26 -216h136q64 0 103 27z" />
    <glyph glyph-name="C" unicode="C" horiz-adv-x="640" 
d="M454 106q44 18 84 55l29 -90q-45 -38 -104 -58.5t-115 -20.5q-88 0 -159 40t-111.5 109t-40.5 154q0 20 3 41q11 93 68 172t143 125.5t181 46.5q57 0 111 -20t90 -58l-52 -90q-32 36 -71.5 54t-95.5 18q-67 0 -128 -33.5t-101.5 -90.5t-48.5 -124q-2 -20 -2 -31
q0 -60 28.5 -110t79 -78.5t112.5 -28.5q56 0 100 18z" />
    <glyph glyph-name="D" unicode="D" horiz-adv-x="656" 
d="M481.5 635q68.5 -37 103 -101t34.5 -147q0 -25 -3 -51q-12 -94 -62 -170.5t-133 -121t-189 -44.5h-201l82 672h201q99 0 167.5 -37zM387.5 128q54.5 32 89.5 87t43 121q2 24 2 34q0 59 -24 105.5t-68 73.5t-103 27h-130l-58 -480h130q64 0 118.5 32z" />
    <glyph glyph-name="E" unicode="E" horiz-adv-x="512" 
d="M197 576l-23 -192h240l-12 -96h-240l-23 -192h288l-12 -96h-384l82 672h384l-12 -96h-288z" />
    <glyph glyph-name="F" unicode="F" horiz-adv-x="496" 
d="M31 0l82 672h384l-12 -96h-288l-23 -192h240l-12 -96h-240l-35 -288h-96z" />
    <glyph glyph-name="G" unicode="G" horiz-adv-x="752" 
d="M712 336q-11 -94 -63.5 -173t-133 -125t-173.5 -46q-86 0 -156 40t-109.5 109t-39.5 153q0 21 3 42q11 93 67 172t141 125.5t178 46.5q99 0 170 -50.5t104 -137.5l-100 -28q-22 55 -71 87.5t-115 32.5q-67 0 -128 -33.5t-101.5 -90.5t-48.5 -124q-2 -20 -2 -31
q0 -60 28.5 -110t79 -78.5t112.5 -28.5q89 0 155 51t93 133h-250l12 96l350 -1q0 -9 -2 -31z" />
    <glyph glyph-name="H" unicode="H" horiz-adv-x="656" 
d="M625 672l-82 -672h-96l35 288h-320l-35 -288h-96l82 672h96l-35 -288h320l35 288h96z" />
    <glyph glyph-name="I" unicode="I" horiz-adv-x="240" 
d="M31 0l82 672h96l-82 -672h-96z" />
    <glyph glyph-name="J" unicode="J" horiz-adv-x="464" 
d="M449 672l-51 -416q-16 -132 -85 -198t-171 -66q-42 0 -81 19t-56 43l58 82q12 -21 36 -34.5t55 -13.5q65 0 101.5 42.5t45.5 117.5l52 424h96z" />
    <glyph glyph-name="K" unicode="K" horiz-adv-x="592" 
d="M527 0h-128l-236 296l-36 -296h-96l82 672h96l-36 -296l292 296h128l-336 -329z" />
    <glyph glyph-name="L" unicode="L" horiz-adv-x="480" 
d="M411 96l-12 -96h-368l82 672h96l-70 -576h272z" />
    <glyph glyph-name="M" unicode="M" horiz-adv-x="832" 
d="M210 398l-113 -398h-98l198 688l200 -508l324 508l30 -688h-98l-15 398l-265 -414z" />
    <glyph glyph-name="N" unicode="N" horiz-adv-x="704" 
d="M183 460l-56 -460h-96l84 688l406 -476l56 460h96l-84 -688z" />
    <glyph glyph-name="O" unicode="O" horiz-adv-x="768" 
d="M582 640q70 -40 109.5 -109t39.5 -153q0 -21 -3 -42q-11 -93 -67 -172t-141 -125.5t-178 -46.5q-86 0 -156 40t-109.5 109t-39.5 153q0 21 3 42q11 93 67 172t141 125.5t178 46.5q86 0 156 -40zM483 121q61 33 101 90t48 125q2 22 2 31q0 61 -28.5 110.5t-79 78
t-112.5 28.5q-68 0 -129 -33t-101 -90t-48 -125q-2 -22 -2 -31q0 -61 28.5 -110.5t79 -78t112.5 -28.5q68 0 129 33z" />
    <glyph glyph-name="P" unicode="P" horiz-adv-x="576" 
d="M495 623.5q58 -48.5 58 -134.5q0 -10 -2 -32q-8 -63 -41.5 -114.5t-88.5 -81t-124 -29.5h-142l-28 -232h-96l82 672h208q116 0 174 -48.5zM406.5 358.5q39.5 30.5 47.5 92.5q1 7 1 20q0 52 -34.5 78.5t-86.5 26.5h-137l-30 -248h143q57 0 96.5 30.5z" />
    <glyph glyph-name="Q" unicode="Q" horiz-adv-x="768" 
d="M583 0l-41 51q-96 -59 -200 -59q-86 0 -156 40t-109.5 109t-39.5 153q0 21 3 42q11 93 67 172t141 125.5t178 46.5q86 0 156 -40t109.5 -109t39.5 -153q0 -21 -3 -42q-8 -64 -38 -122.5t-76 -104.5l89 -109h-120zM486 123l-104 133h112l63 -77q31 32 50.5 72.5t24.5 84.5
q2 22 2 31q0 61 -28.5 110.5t-79 78t-112.5 28.5q-68 0 -129 -33t-101 -90t-48 -125q-2 -22 -2 -31q0 -61 28.5 -110.5t79 -78t112.5 -28.5q68 0 132 35z" />
    <glyph glyph-name="R" unicode="R" horiz-adv-x="592" 
d="M399 0l-139 232h-105l-28 -232h-96l82 672h208q116 0 174 -48.5t58 -134.5q0 -10 -2 -32q-10 -79 -58.5 -137.5t-125.5 -78.5l144 -241h-112zM167 328h143q57 0 96.5 30.5t47.5 92.5q1 8 1 22q0 52 -31 77.5t-82 25.5h-145z" />
    <glyph glyph-name="S" unicode="S" horiz-adv-x="592" 
d="M484 330.5q53 -38.5 53 -107.5q0 -65 -35.5 -117.5t-99.5 -83t-146 -30.5q-102 0 -161 38t-84 71l59 86q36 -47 88.5 -73t111.5 -26q75 0 119 28t49 77q5 39 -32 64.5t-108 38.5q-119 21 -169 62t-50 103q0 61 32.5 110.5t93 79t142.5 29.5q45 0 102.5 -15.5t104.5 -64.5
l-56 -87q-65 71 -165 71q-73 0 -114.5 -28t-41.5 -77q0 -33 33 -52t108 -35q113 -23 166 -61.5z" />
    <glyph glyph-name="T" unicode="T" horiz-adv-x="528" 
d="M529 672l-12 -96h-176l-70 -576h-96l70 576h-176l12 96h448z" />
    <glyph glyph-name="U" unicode="U" horiz-adv-x="624" 
d="M609 672l-46 -376q-17 -139 -91.5 -221.5t-201.5 -82.5q-113 0 -168 63.5t-55 174.5q0 35 4 66l46 376h96l-50 -408q-2 -22 -2 -31q0 -66 37 -105.5t104 -39.5q74 0 122.5 48.5t58.5 127.5l50 408h96z" />
    <glyph glyph-name="V" unicode="V" horiz-adv-x="624" 
d="M49 672h104l144 -462l256 462h104l-388 -688z" />
    <glyph glyph-name="W" unicode="W" horiz-adv-x="960" 
d="M985 672l-364 -688l-127 464l-241 -464l-196 688h104l122 -442l240 458l128 -458l230 442h104z" />
    <glyph glyph-name="X" unicode="X" horiz-adv-x="656" 
d="M475 0l-155 271l-221 -271h-116l286 347l-188 325h115l143 -250l203 250h115l-268 -325l202 -347h-116z" />
    <glyph glyph-name="Y" unicode="Y" horiz-adv-x="592" 
d="M625 672l-289 -400l-33 -272h-96l33 272l-191 400h108l142 -308l218 308h108z" />
    <glyph glyph-name="Z" unicode="Z" 
d="M-1 0l432 576h-346l12 96h512l-432 -576h346l-12 -96h-512z" />
    <glyph glyph-name="bracketleft" unicode="[" horiz-adv-x="336" 
d="M113 -112h96l-12 -96h-192l128 1040h192l-12 -96h-96z" />
    <glyph glyph-name="backslash" unicode="\" horiz-adv-x="512" 
d="M107 752h80l218 -832h-80z" />
    <glyph glyph-name="bracketright" unicode="]" horiz-adv-x="336" 
d="M121 736l12 96h192l-128 -1040h-192l12 96h96l104 848h-96z" />
    <glyph glyph-name="asciicircum" unicode="^" horiz-adv-x="544" 
d="M279 704h76l147 -256h-88l-105 192l-151 -192h-88z" />
    <glyph glyph-name="underscore" unicode="_" horiz-adv-x="560" 
d="M-15 -112l10 80h480l-10 -80h-480z" />
    <glyph glyph-name="grave" unicode="`" horiz-adv-x="816" 
d="M465 736l-112 128h112l64 -128h-64z" />
    <glyph glyph-name="a" unicode="a" 
d="M415 0q-9 15 -9 46q0 15 1 23q-34 -38 -77 -57.5t-92 -19.5q-63 0 -111 28t-74.5 77t-26.5 109q0 12 2 34q8 68 46 125t97 90t128 33q49 0 87 -20t63 -58l9 70h96l-47 -384q-4 -32 -4 -52q0 -28 8 -44h-96zM342.5 111.5q39.5 23.5 63 63t23.5 85.5q0 56 -38.5 94
t-95.5 38q-44 0 -84 -23.5t-64 -62.5t-24 -84q0 -57 38.5 -95.5t96.5 -38.5q45 0 84.5 23.5z" />
    <glyph glyph-name="b" unicode="b" 
d="M177 410q34 38 77.5 58t92.5 20q63 0 111 -28t74 -77t26 -109q0 -10 -2 -34q-8 -68 -46 -125t-97 -90t-127 -33q-49 0 -87.5 20t-63.5 58l-8 -70h-96l86 704h96zM374.5 111.5q39.5 23.5 63 63t23.5 85.5q0 56 -38.5 94t-95.5 38q-44 0 -84 -23.5t-64 -62.5t-24 -84
q0 -57 38.5 -95.5t96.5 -38.5q45 0 84.5 23.5z" />
    <glyph glyph-name="c" unicode="c" horiz-adv-x="496" 
d="M75 365.5q38 56.5 100.5 89.5t139.5 33q46 0 86 -14t67 -41l-52 -89q-20 22 -49 35t-63 13q-47 0 -88.5 -23.5t-67 -62t-25.5 -82.5q0 -38 18.5 -69t51.5 -49t74 -18q34 0 66 13t58 36l30 -90q-31 -26 -76.5 -40.5t-90.5 -14.5q-72 0 -123.5 28t-78 76t-26.5 109
q0 11 2 35q9 69 47 125.5z" />
    <glyph glyph-name="d" unicode="d" 
d="M415 0q-9 15 -9 46q0 15 1 23q-34 -38 -77 -57.5t-92 -19.5q-63 0 -111 28t-74.5 77t-26.5 109q0 12 2 34q8 68 46 125t97 90t128 33q49 0 87 -20t63 -58l36 294h96l-74 -608q-4 -32 -4 -52q0 -28 8 -44h-96zM342.5 111.5q39.5 23.5 63 63t23.5 85.5q0 56 -38.5 94
t-95.5 38q-44 0 -84 -23.5t-64 -62.5t-24 -84q0 -57 38.5 -95.5t96.5 -38.5q45 0 84.5 23.5z" />
    <glyph glyph-name="e" unicode="e" horiz-adv-x="544" 
d="M484 196h-363q4 -54 43.5 -81t99.5 -27q78 0 151 48l22 -86q-23 -18 -71.5 -38t-115.5 -20q-109 0 -166.5 59t-57.5 152q0 13 2 37q9 69 45 125.5t94.5 89.5t130.5 33q88 0 142.5 -55.5t54.5 -152.5q0 -19 -3 -42q-1 -13 -8 -42zM400 284q2 26 -9.5 50.5t-38.5 41
t-70 16.5q-42 0 -74.5 -16.5t-52 -41.5t-23.5 -50h268z" />
    <glyph glyph-name="f" unicode="f" horiz-adv-x="368" 
d="M122 480l7 58q10 85 55.5 129.5t111.5 44.5q37 0 60 -16l-11 -94q-19 14 -47 14q-64 0 -74 -81l-6 -55h112l-12 -96h-112l-47 -384h-96l47 384h-64l12 96h64z" />
    <glyph glyph-name="g" unicode="g" 
d="M554 480l-56 -450q-17 -146 -95 -220t-197 -74q-79 0 -129 25t-85 55l59 86q38 -33 74.5 -51.5t92.5 -18.5q75 0 123.5 48t59.5 136l6 54q-34 -38 -77 -58t-92 -20q-63 0 -111 28t-74.5 77t-26.5 109q0 12 2 34q8 68 46 125t97 90t128 33q49 0 87 -20t63 -58l9 70h96z
M342.5 111.5q39.5 23.5 63 63t23.5 85.5q0 56 -38.5 94t-95.5 38q-44 0 -84 -23.5t-64 -62.5t-24 -84q0 -57 38.5 -95.5t96.5 -38.5q45 0 84.5 23.5z" />
    <glyph glyph-name="h" unicode="h" horiz-adv-x="560" 
d="M471 44q0 -28 8 -44h-96q-8 16 -8 44q0 20 4 52l21 172q2 22 2 31q0 46 -22 69.5t-73 23.5q-30 0 -63 -15.5t-56.5 -44.5t-28.5 -68l-32 -264h-96l86 704h96l-34 -280q64 64 158 64q80 0 121 -44t41 -128q0 -22 -3 -48l-21 -172q-4 -32 -4 -52z" />
    <glyph glyph-name="i" unicode="i" horiz-adv-x="240" 
d="M101.5 578q-18.5 18 -18.5 45q0 33 24.5 57t57.5 24q28 0 46 -18t18 -45q0 -33 -24.5 -57t-56.5 -24q-28 0 -46.5 18zM139 96q-4 -32 -4 -52q0 -28 8 -44h-96q-8 16 -8 44q0 20 4 52l47 384h96z" />
    <glyph glyph-name="j" unicode="j" horiz-adv-x="240" 
d="M101.5 578q-18.5 18 -18.5 45q0 33 24.5 57t57.5 24q28 0 46 -18t18 -45q0 -33 -24.5 -57t-56.5 -24q-28 0 -46.5 18zM90 480h96l-61 -498q-12 -99 -48 -152t-74.5 -70t-84.5 -24l-13 88q51 10 82 41.5t40 102.5z" />
    <glyph glyph-name="k" unicode="k" horiz-adv-x="512" 
d="M463 0h-128l-183 204l-25 -204h-96l86 704h96l-51 -420l216 196h128l-269 -232z" />
    <glyph glyph-name="l" unicode="l" horiz-adv-x="240" 
d="M135 44q0 -28 8 -44h-96q-8 16 -8 44q0 20 4 52l74 608h96l-74 -608q-4 -32 -4 -52z" />
    <glyph glyph-name="m" unicode="m" horiz-adv-x="832" 
d="M743 44q0 -28 8 -44h-96q-8 16 -8 44q0 20 4 52l21 172q2 22 2 32q0 92 -79 92q-47 0 -86 -35t-46 -93l-20 -168q-4 -32 -4 -52q0 -28 8 -44h-96q-8 16 -8 44q0 20 4 52l21 172q2 22 2 32q0 92 -79 92q-47 0 -86 -35t-46 -93l-32 -264h-96l59 480h96l-7 -56
q31 31 61.5 47.5t80.5 16.5q93 0 128 -76q43 41 84 58.5t92 17.5q70 0 108 -44t38 -127q0 -23 -3 -49l-21 -172q-4 -32 -4 -52z" />
    <glyph glyph-name="n" unicode="n" horiz-adv-x="560" 
d="M471 44q0 -28 8 -44h-96q-8 16 -8 44q0 20 4 52l21 172q2 22 2 31q0 46 -22 69.5t-73 23.5q-30 0 -63 -15.5t-56.5 -44.5t-28.5 -68l-32 -264h-96l59 480h96l-7 -56q64 64 158 64q78 0 120.5 -42.5t42.5 -125.5q0 -21 -3 -44l-22 -180q-4 -32 -4 -52z" />
    <glyph glyph-name="o" unicode="o" horiz-adv-x="576" 
d="M419 459.5q50 -28.5 78.5 -78.5t28.5 -110q0 -11 -2 -31q-8 -67 -48.5 -124t-101.5 -90.5t-128 -33.5q-62 0 -112.5 28.5t-79 78.5t-28.5 110q0 11 2 31q8 67 48.5 124t102 90.5t128.5 33.5q62 0 112 -28.5zM341.5 111.5q39.5 23.5 63.5 63t24 83.5q0 57 -38.5 95.5
t-95.5 38.5q-44 0 -83.5 -23.5t-64 -63t-24.5 -83.5q0 -56 39 -95t96 -39q44 0 83.5 23.5z" />
    <glyph glyph-name="p" unicode="p" 
d="M458 460q48 -28 74 -77t26 -109q0 -10 -2 -34q-8 -68 -46 -125t-97 -90t-127 -33q-49 0 -87.5 20t-63.5 58l-40 -326h-96l91 736h96l-9 -70q34 38 77.5 58t92.5 20q63 0 111 -28zM374.5 111.5q39.5 23.5 63 63t23.5 85.5q0 56 -38.5 94t-95.5 38q-44 0 -84 -23.5
t-64 -62.5t-24 -84q0 -57 38.5 -95.5t96.5 -38.5q45 0 84.5 23.5z" />
    <glyph glyph-name="q" unicode="q" 
d="M471 -212q0 -28 8 -44h-96q-8 16 -8 44q0 20 4 52l28 230q-34 -38 -77 -58t-92 -20q-63 0 -111 28t-74.5 77t-26.5 109q0 12 2 34q8 68 46 125t97 90t128 33q49 0 87 -20t63 -58l9 70h96l-79 -640q-4 -32 -4 -52zM342.5 111.5q39.5 23.5 63 63t23.5 85.5q0 56 -38.5 94
t-95.5 38q-44 0 -84 -23.5t-64 -62.5t-24 -84q0 -57 38.5 -95.5t96.5 -38.5q45 0 84.5 23.5z" />
    <glyph glyph-name="r" unicode="r" horiz-adv-x="400" 
d="M258.5 458.5q53.5 29.5 120.5 29.5l-13 -105q-17 5 -36 5q-26 0 -53 -9q-51 -19 -83.5 -60t-40.5 -105l-26 -214h-96l59 480h96l-13 -103q32 52 85.5 81.5z" />
    <glyph glyph-name="s" unicode="s" horiz-adv-x="480" 
d="M418 167q0 -11 -1 -17q-9 -73 -64 -115.5t-147 -42.5q-70 0 -124.5 23t-75.5 45l50 94q25 -28 72.5 -47t90.5 -19q46 0 73.5 16.5t27.5 40.5q0 23 -21 35t-66 20q-99 18 -138 48t-39 79q0 8 2 24q8 61 66 99t146 38q37 0 81.5 -11t86.5 -35l-44 -90q-18 14 -59 27t-83 13
q-41 0 -69.5 -11t-28.5 -35q0 -19 21 -28t48.5 -14.5t36.5 -7.5q158 -30 158 -129z" />
    <glyph glyph-name="t" unicode="t" horiz-adv-x="352" 
d="M110 384h-64l12 96h64l23 192h96l-23 -192h96l-12 -96h-96l-25 -200q-3 -22 -3 -43q0 -30 12 -40q13 -10 31 -10q20 0 46 12l-12 -97q-31 -14 -72 -14q-104 0 -104 123q0 21 3 42z" />
    <glyph glyph-name="u" unicode="u" horiz-adv-x="560" 
d="M367 0q-9 17 -9 41l1 15q-28 -28 -68 -46t-91 -18q-77 0 -120 42.5t-43 124.5q0 21 3 45l34 276h96l-33 -268q-2 -12 -2 -33q0 -45 22 -68t73 -23q30 0 62.5 15.5t56 44.5t28.5 68l33 264h96l-47 -384q-4 -32 -4 -52q0 -28 8 -44h-96z" />
    <glyph glyph-name="v" unicode="v" horiz-adv-x="480" 
d="M26 480h104l93 -280l163 280h104l-293 -496z" />
    <glyph glyph-name="w" unicode="w" horiz-adv-x="752" 
d="M754 480l-269 -496l-114 308l-190 -308l-147 496h104l77 -286l181 302l107 -302l147 286h104z" />
    <glyph glyph-name="x" unicode="x" horiz-adv-x="528" 
d="M463 0h-114l-104 181l-148 -181h-114l214 255l-140 225h114l91 -158l131 158h114l-196 -225z" />
    <glyph glyph-name="y" unicode="y" horiz-adv-x="512" 
d="M522 480l-416 -736h-105l164 287l-139 449h107l100 -332l182 332h107z" />
    <glyph glyph-name="z" unicode="z" horiz-adv-x="480" 
d="M-1 0l283 384h-220l12 96h384l-285 -384h222l-12 -96h-384z" />
    <glyph glyph-name="braceleft" unicode="{" horiz-adv-x="384" 
d="M202 -47q0 -33 17 -57t51 -32l-43 -88q-64 22 -93.5 59.5t-29.5 92.5q0 10 2 30l28 234q3 27 -9.5 50.5t-33 40t-39.5 21.5q34 9 69.5 41t40.5 71l29 234q8 66 48 111.5t118 70.5l21 -88q-41 -9 -64.5 -38t-28.5 -68l-23 -188q-14 -118 -85 -146q52 -23 52 -104
q0 -19 -3 -42l-23 -188q-1 -6 -1 -17z" />
    <glyph glyph-name="bar" unicode="|" horiz-adv-x="208" 
d="M-1 -256l126 1024h64l-126 -1024h-64z" />
    <glyph glyph-name="braceright" unicode="}" horiz-adv-x="384" 
d="M114 158q14 117 85 146q-52 23 -52 105q0 20 3 41l23 188q1 6 1 17q0 33 -17 57t-51 32l43 88q65 -22 94.5 -60.5t29.5 -93.5q0 -8 -2 -28l-29 -234q-3 -27 9.5 -50.5t33 -40t39.5 -21.5q-34 -9 -69.5 -41t-40.5 -71l-28 -234q-8 -66 -48.5 -111.5t-118.5 -70.5l-21 88
q41 9 64.5 38t28.5 68z" />
    <glyph glyph-name="asciitilde" unicode="~" horiz-adv-x="520" 
d="M461 312q-30 -45 -61 -60t-71 -15q-18 0 -40 7t-42.5 14.5t-28.5 10.5q-28 11 -49 11q-20 0 -35.5 -10.5t-29.5 -32.5l-57 29q30 45 61.5 60t71.5 15q27 0 91 -25l20 -8q24 -10 47 -10q21 0 37 10t30 33z" />
    <glyph glyph-name="exclamdown" unicode="&#xa1;" horiz-adv-x="288" 
d="M209 470q18 -18 18 -45q0 -33 -24.5 -57t-57.5 -24q-28 0 -46 18t-18 45q0 33 24.5 57t57.5 24q28 0 46 -18zM170 288l-27 -480h-128l91 480h64z" />
    <glyph glyph-name="cent" unicode="&#xa2;" horiz-adv-x="496" 
d="M421 47q-29 -24 -69 -38t-82 -17l-9 -72h-48l9 74q-93 9 -144.5 67t-51.5 144q0 23 2 35q8 64 41.5 118t88.5 88t124 40l10 74h48l-9 -72q41 -2 76.5 -16t60.5 -39l-52 -89q-20 22 -49 35t-63 13q-47 0 -88.5 -23.5t-67 -62t-25.5 -82.5q0 -38 18.5 -69t51.5 -49t74 -18
q34 0 66 13t58 36z" />
    <glyph glyph-name="sterling" unicode="&#xa3;" horiz-adv-x="592" 
d="M524 106q-36 -60 -86 -87t-96 -27q-31 0 -46.5 4.5t-46.5 18.5q-43 19 -76 19q-44 0 -70 -34l-91 112q15 29 53 56q41 29 52 61t9 75h-90l8 64h72q-11 50 -11 89q0 11 2 31q6 50 38 94t86.5 71t123.5 27q63 0 110 -18t89 -62l-59 -80q-58 64 -143 64q-58 0 -101 -28.5
t-51 -90.5q-1 -4 -1 -13q0 -21 8 -57l5 -27h168l-8 -64h-152q4 -49 -16 -101t-72 -88q31 8 62 8q26 0 46 -5t51 -15q21 -8 35 -11.5t28 -3.5q23 0 49.5 15.5t45.5 48.5z" />
    <glyph glyph-name="currency" unicode="&#xa4;" horiz-adv-x="510" 
d="M389 285.5q-9 -25.5 -26 -45.5l70 -78l-44 -41l-71 78q-38 -23 -82 -23q-46 0 -79 25l-88 -80l-34 40l87 80q-14 28 -14 59q0 27 9 53t26 46l-69 81l45 39l69 -79q40 24 84 24q45 0 78 -25l85 80l37 -39l-89 -80q15 -30 15 -62q0 -27 -9 -52.5zM200 373q-28 -27 -28 -62
q0 -29 20.5 -50t50.5 -21q35 0 63 27t28 62q0 29 -20.5 50t-50.5 21q-35 0 -63 -27z" />
    <glyph glyph-name="yen" unicode="&#xa5;" horiz-adv-x="656" 
d="M368 272h112l-6 -48h-112l-8 -64h112l-6 -48h-112l-13 -112h-96l13 112h-112l6 48h112l8 64h-112l6 48h112l-191 400h108l142 -308l218 308h108z" />
    <glyph glyph-name="brokenbar" unicode="&#xa6;" horiz-adv-x="208" 
d="M82 416l43 352h64l-43 -352h-64zM-1 -256l44 352h64l-44 -352h-64z" />
    <glyph glyph-name="section" unicode="&#xa7;" horiz-adv-x="624" 
d="M533 64q0 -65 -35.5 -118t-99.5 -83.5t-146 -30.5q-73 0 -125.5 22t-80.5 47t-38 40l58 86q36 -47 88.5 -73t111.5 -26q75 0 119 28t50 77q4 39 -33 64.5t-108 38.5q-119 21 -168.5 61.5t-49.5 102.5q0 47 19 87.5t56 71.5q-44 38 -44 97q0 61 32.5 111t93 79.5
t142.5 29.5q45 0 102.5 -15.5t104.5 -64.5l-56 -87q-65 71 -165 71q-73 0 -114.5 -28t-41.5 -77q0 -33 33 -52t108 -35q113 -23 166 -61.5t53 -107.5q0 -47 -19 -87.5t-54 -71.5q41 -38 41 -96zM202 269.5q32 -21.5 112 -37.5q56 -11 94 -25q28 16 43.5 39.5t15.5 51.5
q0 35 -37 58.5t-104 35.5q-40 6 -81 19q-63 -23 -71 -82q-4 -38 28 -59.5z" />
    <glyph glyph-name="dieresis" unicode="&#xa8;" horiz-adv-x="816" 
d="M333.5 750q-13.5 14 -13.5 35q0 26 19 44.5t44 18.5q22 0 35.5 -13.5t13.5 -34.5q0 -26 -18.5 -45t-44.5 -19q-22 0 -35.5 14zM509.5 750q-13.5 14 -13.5 35q0 26 19 44.5t44 18.5q22 0 35.5 -13.5t13.5 -34.5q0 -26 -18.5 -45t-44.5 -19q-22 0 -35.5 14z" />
    <glyph glyph-name="copyright" unicode="&#xa9;" horiz-adv-x="696" 
d="M191.5 181.5q-58.5 33.5 -91.5 92t-33 129.5q0 24 2 37q10 81 56.5 148t118.5 105.5t153 38.5q75 0 133.5 -33t91.5 -91t33 -130q0 -25 -2 -38q-10 -81 -56.5 -148t-118.5 -105.5t-153 -38.5q-75 0 -133.5 33.5zM459 225q61 33 101.5 90t48.5 125q2 22 2 31
q0 61 -28.5 110.5t-79 78t-112.5 28.5q-68 0 -129 -33t-101 -90t-48 -125q-2 -22 -2 -31q0 -61 28.5 -110.5t78.5 -78t112 -28.5q68 0 129 33zM441 363l14 -40q-20 -17 -46 -26t-51 -9q-59 0 -98 38t-39 95q0 45 24 84.5t64 63t86 23.5q25 0 49 -9t40 -25l-24 -40
q-25 31 -73 31q-32 0 -60.5 -17t-45.5 -45.5t-17 -60.5q0 -41 27.5 -68t68.5 -27q49 0 81 32z" />
    <glyph glyph-name="ordfeminine" unicode="&#xaa;" horiz-adv-x="360" 
d="M345 672l-29 -240h-48l4 35q-34 -39 -85 -39q-47 0 -76 30.5t-29 75.5q0 38 18 71t49.5 52t68.5 19q51 0 75 -39l4 35h48zM257.5 501.5q26.5 25.5 26.5 59.5q0 29 -19.5 48t-48.5 19q-34 0 -60 -26t-26 -61q0 -28 19 -46.5t48 -18.5q34 0 60.5 25.5z" />
    <glyph glyph-name="guillemotleft" unicode="&#xab;" horiz-adv-x="624" 
d="M135 264l134 -216h-88l-134 216l187 216h88zM367 264l134 -216h-88l-134 216l187 216h88z" />
    <glyph glyph-name="logicalnot" unicode="&#xac;" 
d="M524 112h-64l20 160h-432l8 64h496z" />
    <glyph glyph-name="registered" unicode="&#xae;" horiz-adv-x="696" 
d="M191.5 181.5q-58.5 33.5 -91.5 92t-33 129.5q0 24 2 37q10 81 56.5 148t118.5 105.5t153 38.5q75 0 133.5 -33t91.5 -91t33 -130q0 -25 -2 -38q-10 -81 -56.5 -148t-118.5 -105.5t-153 -38.5q-75 0 -133.5 33.5zM459 225q61 33 101.5 90t48.5 125q2 22 2 31
q0 61 -28.5 110.5t-79 78t-112.5 28.5q-68 0 -129 -33t-101 -90t-48 -125q-2 -22 -2 -31q0 -61 28.5 -110.5t78.5 -78t112 -28.5q68 0 129 33zM409 290l-61 104h-47l-13 -104h-43l37 300h93q52 0 77.5 -21.5t25.5 -59.5q0 -40 -22 -70.5t-60 -40.5l63 -108h-50zM306 436h64
q28 0 46.5 16.5t18.5 48.5q0 24 -14 35t-37 11h-64z" />
    <glyph glyph-name="macron" unicode="&#xaf;" horiz-adv-x="816" 
d="M323 752l7 56h272l-7 -56h-272z" />
    <glyph glyph-name="degree" unicode="&#xb0;" horiz-adv-x="400" 
d="M116 427.5q-36 35.5 -36 89.5q0 44 22.5 81.5t60 59.5t80.5 22q55 0 91 -36.5t36 -90.5q0 -43 -22.5 -80.5t-60 -59t-79.5 -21.5q-56 0 -92 35.5zM278 483q28 27 28 62q0 29 -21 50t-51 21q-35 0 -62.5 -27.5t-27.5 -62.5q0 -29 20.5 -49.5t50.5 -20.5q35 0 63 27z" />
    <glyph glyph-name="plusminus" unicode="&#xb1;" horiz-adv-x="480" 
d="M431 392h-152l-19 -152h-64l19 152h-152l8 64h152l18 152h64l-18 -152h152zM396 112l-7 -64h-368l7 64h368z" />
    <glyph glyph-name="uni00B2" unicode="&#xb2;" horiz-adv-x="360" 
d="M145 725.5q34 30.5 83 30.5q44 0 71.5 -25.5t27.5 -67.5q0 -36 -21.5 -66.5t-69.5 -76.5l-59 -56h143l-6 -48h-248l139 135q35 33 53 54.5t20 39.5l1 10q0 24 -15.5 38.5t-41.5 14.5q-27 0 -46.5 -18t-24.5 -46l-48 8q8 43 42 73.5z" />
    <glyph glyph-name="uni00B3" unicode="&#xb3;" horiz-adv-x="352" 
d="M310.5 566q11.5 -21 8.5 -46q-6 -43 -39.5 -75.5t-94.5 -32.5q-53 0 -80.5 29.5t-25.5 78.5l49 8q0 -68 66 -68q34 0 55 18.5t21 44.5q0 24 -20.5 32.5t-61.5 8.5l6 48q31 1 57 11.5t29 36.5q2 19 -12 33.5t-43 14.5q-61 0 -75 -64l-47 8q9 45 44 74.5t81 29.5
q50 0 75.5 -25.5t25.5 -57.5q0 -52 -49 -79q19 -7 30.5 -28z" />
    <glyph glyph-name="acute" unicode="&#xb4;" horiz-adv-x="816" 
d="M481 864h112l-144 -128h-64z" />
    <glyph glyph-name="paragraph" unicode="&#xb6;" horiz-adv-x="688" 
d="M567 592l-100 -820h-80l100 820h-160l-100 -820h-80l69 566q-63 0 -102 41t-39 103q0 50 24.5 93.5t66.5 70t91 26.5h416l-10 -80h-96z" />
    <glyph glyph-name="periodcentered" unicode="&#xb7;" horiz-adv-x="256" 
d="M73 282q-18 18 -18 45q0 33 24.5 57t57.5 24q28 0 46 -17.5t18 -44.5q0 -34 -24.5 -58t-57.5 -24q-28 0 -46 18z" />
    <glyph glyph-name="cedilla" unicode="&#xb8;" horiz-adv-x="816" 
d="M413 0l-51 -48q15 3 28 3q43 0 70.5 -28t27.5 -71q0 -44 -23 -80.5t-62.5 -58t-84.5 -21.5q-79 0 -113 63l54 45q9 -20 25.5 -32t48.5 -12q41 0 70 26.5t29 63.5q0 27 -18 44.5t-46 17.5q-37 0 -70 -24l-26 48l69 64h72z" />
    <glyph glyph-name="uni00B9" unicode="&#xb9;" horiz-adv-x="328" 
d="M261 768l-42 -344h-48l34 282l-58 -18l6 44z" />
    <glyph glyph-name="ordmasculine" unicode="&#xba;" horiz-adv-x="360" 
d="M301 645q31 -31 31 -78q0 -37 -19.5 -69t-52.5 -51t-69 -19q-47 0 -78 31t-31 77q0 37 19.5 69.5t52 51.5t68.5 19q48 0 79 -31zM257.5 501.5q26.5 25.5 26.5 59.5q0 29 -19.5 48t-48.5 19q-34 0 -60 -25.5t-26 -60.5q0 -28 19.5 -47t47.5 -19q34 0 60.5 25.5z" />
    <glyph glyph-name="guillemotright" unicode="&#xbb;" horiz-adv-x="624" 
d="M194 480l133 -216l-186 -216h-88l186 216l-133 216h88zM426 480l133 -216l-186 -216h-88l186 216l-133 216h88z" />
    <glyph glyph-name="onequarter" unicode="&#xbc;" horiz-adv-x="900" 
d="M250 680l-42 -344h-48l35 282l-59 -18l6 44zM135 0l550 672h64l-550 -672h-64zM816 104l-6 -48h-40l-7 -56h-48l7 56h-176l259 288l-29 -240h40zM741 215l-94 -111h81z" />
    <glyph glyph-name="onehalf" unicode="&#xbd;" horiz-adv-x="916" 
d="M250 680l-42 -344h-48l35 282l-59 -18l6 44zM135 0l550 672h64l-550 -672h-64zM649.5 309.5q33.5 30.5 82.5 30.5q44 0 72 -25.5t28 -67.5q0 -36 -21 -66t-70 -77l-59 -56h143l-6 -48h-248l139 135q36 35 53.5 55.5t19.5 38.5l1 10q0 24 -15.5 38.5t-41.5 14.5
q-27 0 -46.5 -18t-24.5 -46l-48 8q8 43 41.5 73.5z" />
    <glyph glyph-name="threequarters" unicode="&#xbe;" horiz-adv-x="924" 
d="M298.5 490q11.5 -18 11.5 -41q0 -28 -15 -55t-45 -44.5t-74 -17.5q-53 0 -81 29.5t-26 78.5l49 8q0 -68 66 -68q35 0 55.5 18.5t20.5 44.5q0 24 -20.5 32.5t-61.5 8.5l6 48q33 1 59.5 12.5t26.5 40.5q0 18 -14 30.5t-41 12.5q-61 0 -75 -64l-47 8q9 45 44 74.5t81 29.5
q50 0 75.5 -25.5t25.5 -57.5q0 -52 -49 -79q17 -6 28.5 -24zM159 0l550 672h64l-550 -672h-64zM840 104l-6 -48h-40l-7 -56h-48l7 56h-176l259 288l-29 -240h40zM765 215l-94 -111h81z" />
    <glyph glyph-name="questiondown" unicode="&#xbf;" horiz-adv-x="528" 
d="M227 362q-18 18 -18 45q0 33 24.5 57t57.5 24q28 0 46 -18t18 -45q0 -33 -24.5 -57t-57.5 -24q-28 0 -46 18zM96.5 -176q-43.5 24 -63.5 62.5t-20 82.5q0 15 1 23q6 51 33.5 88t80.5 76q42 31 63.5 62t26.5 70h96q-3 -37 -22 -79t-58 -78q-2 -2 -40 -34
q-40 -32 -60.5 -54.5t-23.5 -50.5q-1 -4 -1 -12q0 -37 28 -60.5t80 -23.5q51 0 90 23t65 55l46 -78q-100 -96 -212 -96q-66 0 -109.5 24z" />
    <glyph glyph-name="Agrave" unicode="&#xc0;" horiz-adv-x="656" 
d="M361 736l-112 128h112l64 -128h-64zM455 144h-302l-82 -144h-104l404 688l236 -688h-104zM423 240l-78 236l-136 -236h214z" />
    <glyph glyph-name="Aacute" unicode="&#xc1;" horiz-adv-x="656" 
d="M425 864h112l-144 -128h-64zM455 144h-302l-82 -144h-104l404 688l236 -688h-104zM423 240l-78 236l-136 -236h214z" />
    <glyph glyph-name="Acircumflex" unicode="&#xc2;" horiz-adv-x="656" 
d="M383 788l-59 -52h-99l169 136l135 -136h-99zM455 144h-302l-82 -144h-104l404 688l236 -688h-104zM423 240l-78 236l-136 -236h214z" />
    <glyph glyph-name="Atilde" unicode="&#xc3;" horiz-adv-x="656" 
d="M562 811q-26 -42 -55 -58.5t-62 -16.5q-18 0 -32.5 4.5t-37.5 13.5q-35 16 -58 16q-32 0 -55 -34l-58 23q49 73 119 73q18 0 30.5 -4t35.5 -13q39 -17 60 -17q33 0 55 34zM455 144h-302l-82 -144h-104l404 688l236 -688h-104zM423 240l-78 236l-136 -236h214z" />
    <glyph glyph-name="Adieresis" unicode="&#xc4;" horiz-adv-x="656" 
d="M253.5 750q-13.5 14 -13.5 35q0 26 19 44.5t44 18.5q22 0 35.5 -13.5t13.5 -34.5q0 -26 -18.5 -45t-44.5 -19q-22 0 -35.5 14zM429.5 750q-13.5 14 -13.5 35q0 26 19 44.5t44 18.5q22 0 35.5 -13.5t13.5 -34.5q0 -26 -18.5 -45t-44.5 -19q-22 0 -35.5 14zM455 144h-302
l-82 -144h-104l404 688l236 -688h-104zM423 240l-78 236l-136 -236h214z" />
    <glyph glyph-name="Aring" unicode="&#xc5;" horiz-adv-x="656" 
d="M474 916q28 -28 28 -70q0 -33 -17.5 -62t-47 -46.5t-62.5 -17.5q-43 0 -71 28t-28 70q0 33 17.5 62t47 46.5t62.5 17.5q43 0 71 -28zM426 795q19 19 19 44q0 21 -13.5 35t-35.5 14q-25 0 -44 -19t-19 -44q0 -21 13.5 -35t35.5 -14q25 0 44 19zM455 144h-302l-82 -144
h-104l404 688l236 -688h-104zM423 240l-78 236l-136 -236h214z" />
    <glyph glyph-name="AE" unicode="&#xc6;" horiz-adv-x="800" 
d="M485 576l-23 -192h240l-12 -96h-240l-23 -192h288l-12 -96h-384l17 144h-174l-91 -144h-104l434 672h384l-12 -96h-288zM348 240l30 240l-154 -240h124z" />
    <glyph glyph-name="Ccedilla" unicode="&#xc7;" horiz-adv-x="640" 
d="M477.5 18q-49.5 -20 -100.5 -25l-43 -41q15 3 28 3q43 0 70.5 -28t27.5 -71q0 -44 -23 -80.5t-62.5 -58t-84.5 -21.5q-79 0 -113 63l54 45q9 -20 25.5 -32t48.5 -12q41 0 70 26.5t29 63.5q0 27 -18 44.5t-46 17.5q-37 0 -70 -24l-26 48l63 58q-78 9 -139.5 50.5t-96 107
t-34.5 142.5q0 21 3 42q11 93 68 172t143 125.5t181 46.5q57 0 111 -20t90 -58l-52 -90q-32 36 -71.5 54t-95.5 18q-67 0 -128 -33.5t-101.5 -90.5t-48.5 -124q-2 -20 -2 -31q0 -60 28.5 -110t79 -78.5t112.5 -28.5q56 0 100 18t84 55l29 -90q-40 -33 -89.5 -53z" />
    <glyph glyph-name="Egrave" unicode="&#xc8;" horiz-adv-x="512" 
d="M321 736l-112 128h112l64 -128h-64zM197 576l-23 -192h240l-12 -96h-240l-23 -192h288l-12 -96h-384l82 672h384l-12 -96h-288z" />
    <glyph glyph-name="Eacute" unicode="&#xc9;" horiz-adv-x="512" 
d="M337 864h112l-144 -128h-64zM197 576l-23 -192h240l-12 -96h-240l-23 -192h288l-12 -96h-384l82 672h384l-12 -96h-288z" />
    <glyph glyph-name="Ecircumflex" unicode="&#xca;" horiz-adv-x="512" 
d="M311 788l-59 -52h-99l169 136l135 -136h-99zM197 576l-23 -192h240l-12 -96h-240l-23 -192h288l-12 -96h-384l82 672h384l-12 -96h-288z" />
    <glyph glyph-name="Edieresis" unicode="&#xcb;" horiz-adv-x="512" 
d="M181.5 750q-13.5 14 -13.5 35q0 26 19 44.5t44 18.5q22 0 35.5 -13.5t13.5 -34.5q0 -26 -18.5 -45t-44.5 -19q-22 0 -35.5 14zM357.5 750q-13.5 14 -13.5 35q0 26 19 44.5t44 18.5q22 0 35.5 -13.5t13.5 -34.5q0 -26 -18.5 -45t-44.5 -19q-22 0 -35.5 14zM197 576
l-23 -192h240l-12 -96h-240l-23 -192h288l-12 -96h-384l82 672h384l-12 -96h-288z" />
    <glyph glyph-name="Igrave" unicode="&#xcc;" horiz-adv-x="240" 
d="M153 736l-112 128h112l64 -128h-64zM31 0l82 672h96l-82 -672h-96z" />
    <glyph glyph-name="Iacute" unicode="&#xcd;" horiz-adv-x="240" 
d="M217 864h112l-144 -128h-64zM31 0l82 672h96l-82 -672h-96z" />
    <glyph glyph-name="Icircumflex" unicode="&#xce;" horiz-adv-x="240" 
d="M175 788l-59 -52h-99l169 136l135 -136h-99zM31 0l82 672h96l-82 -672h-96z" />
    <glyph glyph-name="Idieresis" unicode="&#xcf;" horiz-adv-x="240" 
d="M45.5 750q-13.5 14 -13.5 35q0 26 19 44.5t44 18.5q22 0 35.5 -13.5t13.5 -34.5q0 -26 -18.5 -45t-44.5 -19q-22 0 -35.5 14zM221.5 750q-13.5 14 -13.5 35q0 26 19 44.5t44 18.5q22 0 35.5 -13.5t13.5 -34.5q0 -26 -18.5 -45t-44.5 -19q-22 0 -35.5 14zM31 0l82 672h96
l-82 -672h-96z" />
    <glyph glyph-name="Eth" unicode="&#xd0;" horiz-adv-x="672" 
d="M497.5 635q68.5 -37 103 -101t34.5 -147q0 -25 -3 -51q-12 -94 -62 -170.5t-133 -121t-189 -44.5h-201l37 304h-64l8 64h64l37 304h201q99 0 167.5 -37zM403.5 128q54.5 32 89.5 87t43 121q2 24 2 34q0 59 -24 105.5t-68 73.5t-103 27h-130l-25 -208h64l-8 -64h-64
l-25 -208h130q64 0 118.5 32z" />
    <glyph glyph-name="Ntilde" unicode="&#xd1;" horiz-adv-x="704" 
d="M586 811q-26 -42 -55 -58.5t-62 -16.5q-18 0 -32.5 4.5t-37.5 13.5q-35 16 -58 16q-32 0 -55 -34l-58 23q49 73 119 73q18 0 30.5 -4t35.5 -13q39 -17 60 -17q33 0 55 34zM183 460l-56 -460h-96l84 688l406 -476l56 460h96l-84 -688z" />
    <glyph glyph-name="Ograve" unicode="&#xd2;" horiz-adv-x="768" 
d="M425 736l-112 128h112l64 -128h-64zM582 640q70 -40 109.5 -109t39.5 -153q0 -21 -3 -42q-11 -93 -67 -172t-141 -125.5t-178 -46.5q-86 0 -156 40t-109.5 109t-39.5 153q0 21 3 42q11 93 67 172t141 125.5t178 46.5q86 0 156 -40zM483 121q61 33 101 90t48 125
q2 22 2 31q0 61 -28.5 110.5t-79 78t-112.5 28.5q-68 0 -129 -33t-101 -90t-48 -125q-2 -22 -2 -31q0 -61 28.5 -110.5t79 -78t112.5 -28.5q68 0 129 33z" />
    <glyph glyph-name="Oacute" unicode="&#xd3;" horiz-adv-x="768" 
d="M473 864h112l-144 -128h-64zM582 640q70 -40 109.5 -109t39.5 -153q0 -21 -3 -42q-11 -93 -67 -172t-141 -125.5t-178 -46.5q-86 0 -156 40t-109.5 109t-39.5 153q0 21 3 42q11 93 67 172t141 125.5t178 46.5q86 0 156 -40zM483 121q61 33 101 90t48 125q2 22 2 31
q0 61 -28.5 110.5t-79 78t-112.5 28.5q-68 0 -129 -33t-101 -90t-48 -125q-2 -22 -2 -31q0 -61 28.5 -110.5t79 -78t112.5 -28.5q68 0 129 33z" />
    <glyph glyph-name="Ocircumflex" unicode="&#xd4;" horiz-adv-x="768" 
d="M439 788l-59 -52h-99l169 136l135 -136h-99zM582 640q70 -40 109.5 -109t39.5 -153q0 -21 -3 -42q-11 -93 -67 -172t-141 -125.5t-178 -46.5q-86 0 -156 40t-109.5 109t-39.5 153q0 21 3 42q11 93 67 172t141 125.5t178 46.5q86 0 156 -40zM483 121q61 33 101 90t48 125
q2 22 2 31q0 61 -28.5 110.5t-79 78t-112.5 28.5q-68 0 -129 -33t-101 -90t-48 -125q-2 -22 -2 -31q0 -61 28.5 -110.5t79 -78t112.5 -28.5q68 0 129 33z" />
    <glyph glyph-name="Otilde" unicode="&#xd5;" horiz-adv-x="768" 
d="M618 811q-26 -42 -55 -58.5t-62 -16.5q-18 0 -32.5 4.5t-37.5 13.5q-35 16 -58 16q-32 0 -55 -34l-58 23q49 73 119 73q18 0 30.5 -4t35.5 -13q39 -17 60 -17q33 0 55 34zM582 640q70 -40 109.5 -109t39.5 -153q0 -21 -3 -42q-11 -93 -67 -172t-141 -125.5t-178 -46.5
q-86 0 -156 40t-109.5 109t-39.5 153q0 21 3 42q11 93 67 172t141 125.5t178 46.5q86 0 156 -40zM483 121q61 33 101 90t48 125q2 22 2 31q0 61 -28.5 110.5t-79 78t-112.5 28.5q-68 0 -129 -33t-101 -90t-48 -125q-2 -22 -2 -31q0 -61 28.5 -110.5t79 -78t112.5 -28.5
q68 0 129 33z" />
    <glyph glyph-name="Odieresis" unicode="&#xd6;" horiz-adv-x="768" 
d="M309.5 750q-13.5 14 -13.5 35q0 26 19 44.5t44 18.5q22 0 35.5 -13.5t13.5 -34.5q0 -26 -18.5 -45t-44.5 -19q-22 0 -35.5 14zM485.5 750q-13.5 14 -13.5 35q0 26 19 44.5t44 18.5q22 0 35.5 -13.5t13.5 -34.5q0 -26 -18.5 -45t-44.5 -19q-22 0 -35.5 14zM582 640
q70 -40 109.5 -109t39.5 -153q0 -21 -3 -42q-11 -93 -67 -172t-141 -125.5t-178 -46.5q-86 0 -156 40t-109.5 109t-39.5 153q0 21 3 42q11 93 67 172t141 125.5t178 46.5q86 0 156 -40zM483 121q61 33 101 90t48 125q2 22 2 31q0 61 -28.5 110.5t-79 78t-112.5 28.5
q-68 0 -129 -33t-101 -90t-48 -125q-2 -22 -2 -31q0 -61 28.5 -110.5t79 -78t112.5 -28.5q68 0 129 33z" />
    <glyph glyph-name="multiply" unicode="&#xd7;" horiz-adv-x="438" 
d="M392 421l-132 -117l104 -117l-52 -46l-102 118l-132 -118l-40 46l132 117l-104 117l52 46l103 -118l131 118z" />
    <glyph glyph-name="Oslash" unicode="&#xd8;" horiz-adv-x="768" 
d="M711 490q20 -52 20 -111q0 -20 -3 -43q-11 -93 -67 -172t-141 -125.5t-178 -46.5q-57 0 -108 18t-91 51l-60 -61h-56l87 89q-37 41 -57 93t-20 111q0 21 3 43q11 93 67 172t141 125.5t178 46.5q57 0 108 -18t91 -51l60 61h56l-87 -89q37 -41 57 -93zM134 306
q0 -42 13.5 -79t38.5 -65l368 376q-60 46 -140 46q-68 0 -129 -33t-101 -90t-48 -125q-2 -20 -2 -30zM483 121q61 33 101 90t48 125q2 20 2 30q0 42 -13.5 79t-38.5 65l-368 -376q60 -46 140 -46q68 0 129 33z" />
    <glyph glyph-name="Ugrave" unicode="&#xd9;" horiz-adv-x="624" 
d="M361 736l-112 128h112l64 -128h-64zM609 672l-46 -376q-17 -139 -91.5 -221.5t-201.5 -82.5q-113 0 -168 63.5t-55 174.5q0 35 4 66l46 376h96l-50 -408q-2 -22 -2 -31q0 -66 37 -105.5t104 -39.5q74 0 122.5 48.5t58.5 127.5l50 408h96z" />
    <glyph glyph-name="Uacute" unicode="&#xda;" horiz-adv-x="624" 
d="M393 864h112l-144 -128h-64zM609 672l-46 -376q-17 -139 -91.5 -221.5t-201.5 -82.5q-113 0 -168 63.5t-55 174.5q0 35 4 66l46 376h96l-50 -408q-2 -22 -2 -31q0 -66 37 -105.5t104 -39.5q74 0 122.5 48.5t58.5 127.5l50 408h96z" />
    <glyph glyph-name="Ucircumflex" unicode="&#xdb;" horiz-adv-x="624" 
d="M367 788l-59 -52h-99l169 136l135 -136h-99zM609 672l-46 -376q-17 -139 -91.5 -221.5t-201.5 -82.5q-113 0 -168 63.5t-55 174.5q0 35 4 66l46 376h96l-50 -408q-2 -22 -2 -31q0 -66 37 -105.5t104 -39.5q74 0 122.5 48.5t58.5 127.5l50 408h96z" />
    <glyph glyph-name="Udieresis" unicode="&#xdc;" horiz-adv-x="624" 
d="M237.5 750q-13.5 14 -13.5 35q0 26 19 44.5t44 18.5q22 0 35.5 -13.5t13.5 -34.5q0 -26 -18.5 -45t-44.5 -19q-22 0 -35.5 14zM413.5 750q-13.5 14 -13.5 35q0 26 19 44.5t44 18.5q22 0 35.5 -13.5t13.5 -34.5q0 -26 -18.5 -45t-44.5 -19q-22 0 -35.5 14zM609 672
l-46 -376q-17 -139 -91.5 -221.5t-201.5 -82.5q-113 0 -168 63.5t-55 174.5q0 35 4 66l46 376h96l-50 -408q-2 -22 -2 -31q0 -66 37 -105.5t104 -39.5q74 0 122.5 48.5t58.5 127.5l50 408h96z" />
    <glyph glyph-name="Yacute" unicode="&#xdd;" horiz-adv-x="592" 
d="M393 864h112l-144 -128h-64zM625 672l-289 -400l-33 -272h-96l33 272l-191 400h108l142 -308l218 308h108z" />
    <glyph glyph-name="Thorn" unicode="&#xde;" horiz-adv-x="576" 
d="M483 523.5q58 -48.5 58 -134.5q0 -10 -2 -32q-8 -63 -41.5 -114.5t-88.5 -81t-124 -29.5h-142l-16 -132h-96l86 704h96l-16 -132h112q116 0 174 -48.5zM394.5 258.5q39.5 30.5 47.5 92.5q1 7 1 20q0 52 -34.5 78.5t-86.5 26.5h-137l-30 -248h143q57 0 96.5 30.5z" />
    <glyph glyph-name="germandbls" unicode="&#xdf;" horiz-adv-x="544" 
d="M173 504q6 49 40 80.5t79 31.5q40 0 66.5 -19.5t26.5 -56.5q0 -23 -13.5 -46.5t-37.5 -40.5q-54 -37 -140 -37l-12 -96q94 0 141 -16q32 -11 50.5 -35.5t18.5 -55.5q0 -9 -1 -13q-7 -62 -52 -87t-106 -25q-42 0 -78 8l-12 -96q41 -8 86 -8q77 0 136.5 34t91.5 88.5
t32 113.5q0 57 -30.5 100.5t-83.5 55.5q23 11 48 35t43 59t18 76t-18 77t-57 58.5t-97 22.5q-63 0 -141.5 -42t-95.5 -182l-60 -488h96z" />
    <glyph glyph-name="agrave" unicode="&#xe0;" 
d="M386 544l-113 128h112l65 -128h-64zM415 0q-9 15 -9 46q0 15 1 23q-34 -38 -77 -57.5t-92 -19.5q-63 0 -111 28t-74.5 77t-26.5 109q0 12 2 34q8 68 46 125t97 90t128 33q49 0 87 -20t63 -58l9 70h96l-47 -384q-4 -32 -4 -52q0 -28 8 -44h-96zM342.5 111.5
q39.5 23.5 63 63t23.5 85.5q0 56 -38.5 94t-95.5 38q-44 0 -84 -23.5t-64 -62.5t-24 -84q0 -57 38.5 -95.5t96.5 -38.5q45 0 84.5 23.5z" />
    <glyph glyph-name="aacute" unicode="&#xe1;" 
d="M385 672h112l-143 -128h-64zM415 0q-9 15 -9 46q0 15 1 23q-34 -38 -77 -57.5t-92 -19.5q-63 0 -111 28t-74.5 77t-26.5 109q0 12 2 34q8 68 46 125t97 90t128 33q49 0 87 -20t63 -58l9 70h96l-47 -384q-4 -32 -4 -52q0 -28 8 -44h-96zM342.5 111.5q39.5 23.5 63 63
t23.5 85.5q0 56 -38.5 94t-95.5 38q-44 0 -84 -23.5t-64 -62.5t-24 -84q0 -57 38.5 -95.5t96.5 -38.5q45 0 84.5 23.5z" />
    <glyph glyph-name="acircumflex" unicode="&#xe2;" 
d="M352 596l-59 -52h-99l168 136l136 -136h-99zM415 0q-9 15 -9 46q0 15 1 23q-34 -38 -77 -57.5t-92 -19.5q-63 0 -111 28t-74.5 77t-26.5 109q0 12 2 34q8 68 46 125t97 90t128 33q49 0 87 -20t63 -58l9 70h96l-47 -384q-4 -32 -4 -52q0 -28 8 -44h-96zM342.5 111.5
q39.5 23.5 63 63t23.5 85.5q0 56 -38.5 94t-95.5 38q-44 0 -84 -23.5t-64 -62.5t-24 -84q0 -57 38.5 -95.5t96.5 -38.5q45 0 84.5 23.5z" />
    <glyph glyph-name="atilde" unicode="&#xe3;" 
d="M531 619q-26 -42 -55 -58.5t-62 -16.5q-18 0 -32.5 4.5t-37.5 13.5q-35 16 -59 16q-31 0 -54 -34l-59 23q49 73 119 73q18 0 30.5 -4t35.5 -13q39 -17 61 -17q34 0 54 34zM415 0q-9 15 -9 46q0 15 1 23q-34 -38 -77 -57.5t-92 -19.5q-63 0 -111 28t-74.5 77t-26.5 109
q0 12 2 34q8 68 46 125t97 90t128 33q49 0 87 -20t63 -58l9 70h96l-47 -384q-4 -32 -4 -52q0 -28 8 -44h-96zM342.5 111.5q39.5 23.5 63 63t23.5 85.5q0 56 -38.5 94t-95.5 38q-44 0 -84 -23.5t-64 -62.5t-24 -84q0 -57 38.5 -95.5t96.5 -38.5q45 0 84.5 23.5z" />
    <glyph glyph-name="adieresis" unicode="&#xe4;" 
d="M222 558.5q-14 14.5 -14 35.5q0 26 19 44t44 18q22 0 35.5 -13.5t13.5 -34.5q0 -26 -18 -45t-44 -19q-22 0 -36 14.5zM398 558.5q-14 14.5 -14 35.5q0 26 19 44t44 18q22 0 35.5 -13.5t13.5 -34.5q0 -26 -18 -45t-44 -19q-22 0 -36 14.5zM415 0q-9 15 -9 46q0 15 1 23
q-34 -38 -77 -57.5t-92 -19.5q-63 0 -111 28t-74.5 77t-26.5 109q0 12 2 34q8 68 46 125t97 90t128 33q49 0 87 -20t63 -58l9 70h96l-47 -384q-4 -32 -4 -52q0 -28 8 -44h-96zM342.5 111.5q39.5 23.5 63 63t23.5 85.5q0 56 -38.5 94t-95.5 38q-44 0 -84 -23.5t-64 -62.5
t-24 -84q0 -57 38.5 -95.5t96.5 -38.5q45 0 84.5 23.5z" />
    <glyph glyph-name="aring" unicode="&#xe5;" 
d="M448 708q28 -28 28 -70q0 -33 -17.5 -62t-46.5 -46.5t-62 -17.5q-43 0 -71.5 28.5t-28.5 70.5q0 33 18 62t47 46t62 17q43 0 71 -28zM400 587q19 19 19 44q0 21 -13.5 35t-35.5 14q-25 0 -44 -18.5t-19 -43.5q0 -21 14 -35.5t35 -14.5q25 0 44 19zM415 0q-9 15 -9 46
q0 15 1 23q-34 -38 -77 -57.5t-92 -19.5q-63 0 -111 28t-74.5 77t-26.5 109q0 12 2 34q8 68 46 125t97 90t128 33q49 0 87 -20t63 -58l9 70h96l-47 -384q-4 -32 -4 -52q0 -28 8 -44h-96zM342.5 111.5q39.5 23.5 63 63t23.5 85.5q0 56 -38.5 94t-95.5 38q-44 0 -84 -23.5
t-64 -62.5t-24 -84q0 -57 38.5 -95.5t96.5 -38.5q45 0 84.5 23.5z" />
    <glyph glyph-name="ae" unicode="&#xe6;" horiz-adv-x="880" 
d="M820 196h-363q4 -54 43.5 -81t99.5 -27q78 0 151 48l22 -86q-23 -18 -71.5 -38t-115.5 -20q-92 0 -151 45l-4 -37h-96l6 49q-25 -27 -72.5 -42t-90.5 -15q-75 0 -118.5 38t-43.5 101q0 45 25.5 85.5t89.5 67.5q45 20 116 20q57 0 123 -14q1 6 1 16q0 49 -35.5 67.5
t-82.5 18.5q-44 0 -79 -11.5t-68 -33.5l-35 77q30 21 83 42.5t119 21.5q69 0 109.5 -19.5t61.5 -58.5q37 37 85.5 57.5t104.5 20.5q88 0 142.5 -55.5t54.5 -152.5q0 -19 -3 -42q-1 -13 -8 -42zM736 284q2 26 -9.5 50.5t-38.5 41t-70 16.5q-42 0 -74.5 -16.5t-52 -41.5
t-23.5 -50h268zM360 206q-63 15 -112 15q-63 0 -99 -21.5t-36 -56.5q0 -26 22.5 -40.5t56.5 -14.5q57 0 108 23.5t55 56.5z" />
    <glyph glyph-name="ccedilla" unicode="&#xe7;" horiz-adv-x="496" 
d="M357.5 11q-37.5 -14 -76.5 -18l-43 -41q15 3 28 3q43 0 70.5 -28t27.5 -71q0 -44 -23 -80.5t-62.5 -58t-84.5 -21.5q-79 0 -113 63l54 45q9 -20 25.5 -32t48.5 -12q41 0 70 26.5t29 63.5q0 27 -18 44.5t-46 17.5q-37 0 -70 -24l-26 48l63 59q-88 12 -136.5 69.5
t-48.5 140.5q0 11 2 35q9 69 47 125.5t100.5 89.5t139.5 33q46 0 86 -14t67 -41l-52 -89q-20 22 -49 35t-63 13q-47 0 -88.5 -23.5t-67 -62t-25.5 -82.5q0 -38 18.5 -69t51.5 -49t74 -18q34 0 66 13t58 36l30 -90q-26 -22 -63.5 -36z" />
    <glyph glyph-name="egrave" unicode="&#xe8;" horiz-adv-x="544" 
d="M306 544l-113 128h112l65 -128h-64zM484 196h-363q4 -54 43.5 -81t99.5 -27q78 0 151 48l22 -86q-23 -18 -71.5 -38t-115.5 -20q-109 0 -166.5 59t-57.5 152q0 13 2 37q9 69 45 125.5t94.5 89.5t130.5 33q88 0 142.5 -55.5t54.5 -152.5q0 -19 -3 -42q-1 -13 -8 -42z
M400 284q2 26 -9.5 50.5t-38.5 41t-70 16.5q-42 0 -74.5 -16.5t-52 -41.5t-23.5 -50h268z" />
    <glyph glyph-name="eacute" unicode="&#xe9;" horiz-adv-x="544" 
d="M345 672h112l-143 -128h-64zM484 196h-363q4 -54 43.5 -81t99.5 -27q78 0 151 48l22 -86q-23 -18 -71.5 -38t-115.5 -20q-109 0 -166.5 59t-57.5 152q0 13 2 37q9 69 45 125.5t94.5 89.5t130.5 33q88 0 142.5 -55.5t54.5 -152.5q0 -19 -3 -42q-1 -13 -8 -42zM400 284
q2 26 -9.5 50.5t-38.5 41t-70 16.5q-42 0 -74.5 -16.5t-52 -41.5t-23.5 -50h268z" />
    <glyph glyph-name="ecircumflex" unicode="&#xea;" horiz-adv-x="544" 
d="M304 596l-59 -52h-99l168 136l136 -136h-99zM484 196h-363q4 -54 43.5 -81t99.5 -27q78 0 151 48l22 -86q-23 -18 -71.5 -38t-115.5 -20q-109 0 -166.5 59t-57.5 152q0 13 2 37q9 69 45 125.5t94.5 89.5t130.5 33q88 0 142.5 -55.5t54.5 -152.5q0 -19 -3 -42
q-1 -13 -8 -42zM400 284q2 26 -9.5 50.5t-38.5 41t-70 16.5q-42 0 -74.5 -16.5t-52 -41.5t-23.5 -50h268z" />
    <glyph glyph-name="edieresis" unicode="&#xeb;" horiz-adv-x="544" 
d="M174 558.5q-14 14.5 -14 35.5q0 26 19 44t44 18q22 0 35.5 -13.5t13.5 -34.5q0 -26 -18 -45t-44 -19q-22 0 -36 14.5zM350 558.5q-14 14.5 -14 35.5q0 26 19 44t44 18q22 0 35.5 -13.5t13.5 -34.5q0 -26 -18 -45t-44 -19q-22 0 -36 14.5zM484 196h-363q4 -54 43.5 -81
t99.5 -27q78 0 151 48l22 -86q-23 -18 -71.5 -38t-115.5 -20q-109 0 -166.5 59t-57.5 152q0 13 2 37q9 69 45 125.5t94.5 89.5t130.5 33q88 0 142.5 -55.5t54.5 -152.5q0 -19 -3 -42q-1 -13 -8 -42zM400 284q2 26 -9.5 50.5t-38.5 41t-70 16.5q-42 0 -74.5 -16.5t-52 -41.5
t-23.5 -50h268z" />
    <glyph glyph-name="igrave" unicode="&#xec;" horiz-adv-x="240" 
d="M130 544l-113 128h112l65 -128h-64zM139 96q-4 -32 -4 -52q0 -28 8 -44h-96q-8 16 -8 44q0 20 4 52l47 384h96z" />
    <glyph glyph-name="iacute" unicode="&#xed;" horiz-adv-x="240" 
d="M193 672h112l-143 -128h-64zM139 96q-4 -32 -4 -52q0 -28 8 -44h-96q-8 16 -8 44q0 20 4 52l47 384h96z" />
    <glyph glyph-name="icircumflex" unicode="&#xee;" horiz-adv-x="240" 
d="M152 596l-59 -52h-99l168 136l136 -136h-99zM139 96q-4 -32 -4 -52q0 -28 8 -44h-96q-8 16 -8 44q0 20 4 52l47 384h96z" />
    <glyph glyph-name="idieresis" unicode="&#xef;" horiz-adv-x="240" 
d="M22 558.5q-14 14.5 -14 35.5q0 26 19 44t44 18q22 0 35.5 -13.5t13.5 -34.5q0 -26 -18 -45t-44 -19q-22 0 -36 14.5zM198 558.5q-14 14.5 -14 35.5q0 26 19 44t44 18q22 0 35.5 -13.5t13.5 -34.5q0 -26 -18 -45t-44 -19q-22 0 -36 14.5zM139 96q-4 -32 -4 -52
q0 -28 8 -44h-96q-8 16 -8 44q0 20 4 52l47 384h96z" />
    <glyph glyph-name="eth" unicode="&#xf0;" horiz-adv-x="576" 
d="M526 275q0 -13 -2 -35q-8 -67 -48.5 -124t-101.5 -90.5t-128 -33.5q-62 0 -112.5 28.5t-79 78.5t-28.5 110q0 11 2 31q8 66 47.5 122.5t100 89.5t129.5 33q21 0 36 -3q-34 45 -85 89l-179 -60l8 64l119 40l-73 57l76 48l89 -72l173 57l-8 -65l-111 -37q176 -171 176 -328
zM341.5 111.5q39.5 23.5 63.5 63t24 83.5q0 57 -38.5 95.5t-95.5 38.5q-44 0 -83.5 -23.5t-64 -63t-24.5 -83.5q0 -56 39 -95t96 -39q44 0 83.5 23.5z" />
    <glyph glyph-name="ntilde" unicode="&#xf1;" horiz-adv-x="560" 
d="M491 619q-26 -42 -55 -58.5t-62 -16.5q-18 0 -32.5 4.5t-37.5 13.5q-35 16 -59 16q-31 0 -54 -34l-59 23q49 73 119 73q18 0 30.5 -4t35.5 -13q39 -17 61 -17q34 0 54 34zM471 44q0 -28 8 -44h-96q-8 16 -8 44q0 20 4 52l21 172q2 22 2 31q0 46 -22 69.5t-73 23.5
q-30 0 -63 -15.5t-56.5 -44.5t-28.5 -68l-32 -264h-96l59 480h96l-7 -56q64 64 158 64q78 0 120.5 -42.5t42.5 -125.5q0 -21 -3 -44l-22 -180q-4 -32 -4 -52z" />
    <glyph glyph-name="ograve" unicode="&#xf2;" horiz-adv-x="576" 
d="M306 544l-113 128h112l65 -128h-64zM419 459.5q50 -28.5 78.5 -78.5t28.5 -110q0 -11 -2 -31q-8 -67 -48.5 -124t-101.5 -90.5t-128 -33.5q-62 0 -112.5 28.5t-79 78.5t-28.5 110q0 11 2 31q8 67 48.5 124t102 90.5t128.5 33.5q62 0 112 -28.5zM341.5 111.5
q39.5 23.5 63.5 63t24 83.5q0 57 -38.5 95.5t-95.5 38.5q-44 0 -83.5 -23.5t-64 -63t-24.5 -83.5q0 -56 39 -95t96 -39q44 0 83.5 23.5z" />
    <glyph glyph-name="oacute" unicode="&#xf3;" horiz-adv-x="576" 
d="M353 672h112l-143 -128h-64zM419 459.5q50 -28.5 78.5 -78.5t28.5 -110q0 -11 -2 -31q-8 -67 -48.5 -124t-101.5 -90.5t-128 -33.5q-62 0 -112.5 28.5t-79 78.5t-28.5 110q0 11 2 31q8 67 48.5 124t102 90.5t128.5 33.5q62 0 112 -28.5zM341.5 111.5q39.5 23.5 63.5 63
t24 83.5q0 57 -38.5 95.5t-95.5 38.5q-44 0 -83.5 -23.5t-64 -63t-24.5 -83.5q0 -56 39 -95t96 -39q44 0 83.5 23.5z" />
    <glyph glyph-name="ocircumflex" unicode="&#xf4;" horiz-adv-x="576" 
d="M320 596l-59 -52h-99l168 136l136 -136h-99zM419 459.5q50 -28.5 78.5 -78.5t28.5 -110q0 -11 -2 -31q-8 -67 -48.5 -124t-101.5 -90.5t-128 -33.5q-62 0 -112.5 28.5t-79 78.5t-28.5 110q0 11 2 31q8 67 48.5 124t102 90.5t128.5 33.5q62 0 112 -28.5zM341.5 111.5
q39.5 23.5 63.5 63t24 83.5q0 57 -38.5 95.5t-95.5 38.5q-44 0 -83.5 -23.5t-64 -63t-24.5 -83.5q0 -56 39 -95t96 -39q44 0 83.5 23.5z" />
    <glyph glyph-name="otilde" unicode="&#xf5;" horiz-adv-x="576" 
d="M499 619q-26 -42 -55 -58.5t-62 -16.5q-18 0 -32.5 4.5t-37.5 13.5q-35 16 -59 16q-31 0 -54 -34l-59 23q49 73 119 73q18 0 30.5 -4t35.5 -13q39 -17 61 -17q34 0 54 34zM419 459.5q50 -28.5 78.5 -78.5t28.5 -110q0 -11 -2 -31q-8 -67 -48.5 -124t-101.5 -90.5
t-128 -33.5q-62 0 -112.5 28.5t-79 78.5t-28.5 110q0 11 2 31q8 67 48.5 124t102 90.5t128.5 33.5q62 0 112 -28.5zM341.5 111.5q39.5 23.5 63.5 63t24 83.5q0 57 -38.5 95.5t-95.5 38.5q-44 0 -83.5 -23.5t-64 -63t-24.5 -83.5q0 -56 39 -95t96 -39q44 0 83.5 23.5z" />
    <glyph glyph-name="odieresis" unicode="&#xf6;" horiz-adv-x="576" 
d="M190 558.5q-14 14.5 -14 35.5q0 26 19 44t44 18q22 0 35.5 -13.5t13.5 -34.5q0 -26 -18 -45t-44 -19q-22 0 -36 14.5zM366 558.5q-14 14.5 -14 35.5q0 26 19 44t44 18q22 0 35.5 -13.5t13.5 -34.5q0 -26 -18 -45t-44 -19q-22 0 -36 14.5zM419 459.5q50 -28.5 78.5 -78.5
t28.5 -110q0 -11 -2 -31q-8 -67 -48.5 -124t-101.5 -90.5t-128 -33.5q-62 0 -112.5 28.5t-79 78.5t-28.5 110q0 11 2 31q8 67 48.5 124t102 90.5t128.5 33.5q62 0 112 -28.5zM341.5 111.5q39.5 23.5 63.5 63t24 83.5q0 57 -38.5 95.5t-95.5 38.5q-44 0 -83.5 -23.5t-64 -63
t-24.5 -83.5q0 -56 39 -95t96 -39q44 0 83.5 23.5z" />
    <glyph glyph-name="divide" unicode="&#xf7;" horiz-adv-x="480" 
d="M204 434q-18 18 -18 45q0 33 24.5 57t57.5 24q28 0 46 -17.5t18 -44.5q0 -34 -24.5 -58t-57.5 -24q-28 0 -46 18zM424 336l-8 -64h-368l8 64h368zM156.5 69q-18.5 21 -15.5 51q4 31 27.5 51.5t53.5 20.5q28 0 46 -17.5t18 -43.5q0 -7 -1 -11q-3 -30 -26 -51t-54 -21
q-30 0 -48.5 21z" />
    <glyph glyph-name="oslash" unicode="&#xf8;" horiz-adv-x="576" 
d="M512.5 347.5q13.5 -36.5 13.5 -77.5q0 -10 -2 -30q-8 -67 -48.5 -124t-101.5 -90.5t-128 -33.5q-80 0 -140 47l-39 -39h-56l66 67q-24 29 -37.5 65.5t-13.5 77.5q0 10 2 30q8 67 48.5 124t102 90.5t128.5 33.5q78 0 140 -47l39 39h56l-67 -67q24 -29 37.5 -65.5zM150 140
l224 227q-34 25 -79 25q-44 0 -83.5 -23.5t-64 -62.5t-24.5 -83q0 -49 27 -83zM341.5 112q39.5 24 63.5 63.5t24 83.5q0 46 -27 81l-223 -227q34 -25 79 -25q44 0 83.5 24z" />
    <glyph glyph-name="ugrave" unicode="&#xf9;" horiz-adv-x="560" 
d="M290 544l-113 128h112l65 -128h-64zM367 0q-9 17 -9 41l1 15q-28 -28 -68 -46t-91 -18q-77 0 -120 42.5t-43 124.5q0 21 3 45l34 276h96l-33 -268q-2 -12 -2 -33q0 -45 22 -68t73 -23q30 0 62.5 15.5t56 44.5t28.5 68l33 264h96l-47 -384q-4 -32 -4 -52q0 -28 8 -44h-96z
" />
    <glyph glyph-name="uacute" unicode="&#xfa;" horiz-adv-x="560" 
d="M337 672h112l-143 -128h-64zM367 0q-9 17 -9 41l1 15q-28 -28 -68 -46t-91 -18q-77 0 -120 42.5t-43 124.5q0 21 3 45l34 276h96l-33 -268q-2 -12 -2 -33q0 -45 22 -68t73 -23q30 0 62.5 15.5t56 44.5t28.5 68l33 264h96l-47 -384q-4 -32 -4 -52q0 -28 8 -44h-96z" />
    <glyph glyph-name="ucircumflex" unicode="&#xfb;" horiz-adv-x="560" 
d="M304 596l-59 -52h-99l168 136l136 -136h-99zM367 0q-9 17 -9 41l1 15q-28 -28 -68 -46t-91 -18q-77 0 -120 42.5t-43 124.5q0 21 3 45l34 276h96l-33 -268q-2 -12 -2 -33q0 -45 22 -68t73 -23q30 0 62.5 15.5t56 44.5t28.5 68l33 264h96l-47 -384q-4 -32 -4 -52
q0 -28 8 -44h-96z" />
    <glyph glyph-name="udieresis" unicode="&#xfc;" horiz-adv-x="560" 
d="M174 558.5q-14 14.5 -14 35.5q0 26 19 44t44 18q22 0 35.5 -13.5t13.5 -34.5q0 -26 -18 -45t-44 -19q-22 0 -36 14.5zM350 558.5q-14 14.5 -14 35.5q0 26 19 44t44 18q22 0 35.5 -13.5t13.5 -34.5q0 -26 -18 -45t-44 -19q-22 0 -36 14.5zM367 0q-9 17 -9 41l1 15
q-28 -28 -68 -46t-91 -18q-77 0 -120 42.5t-43 124.5q0 21 3 45l34 276h96l-33 -268q-2 -12 -2 -33q0 -45 22 -68t73 -23q30 0 62.5 15.5t56 44.5t28.5 68l33 264h96l-47 -384q-4 -32 -4 -52q0 -28 8 -44h-96z" />
    <glyph glyph-name="yacute" unicode="&#xfd;" horiz-adv-x="512" 
d="M317 672h112l-143 -128h-64zM522 480l-416 -736h-105l164 287l-139 449h107l100 -332l182 332h107z" />
    <glyph glyph-name="thorn" unicode="&#xfe;" 
d="M458 460q48 -28 74 -77t26 -109q0 -10 -2 -34q-8 -68 -46 -125t-97 -90t-127 -33q-49 0 -87.5 20t-63.5 58l-40 -326h-96l118 960h96l-36 -294q34 38 77.5 58t92.5 20q63 0 111 -28zM374.5 111.5q39.5 23.5 63 63t23.5 85.5q0 56 -38.5 94t-95.5 38q-44 0 -84 -23.5
t-64 -62.5t-24 -84q0 -57 38.5 -95.5t96.5 -38.5q45 0 84.5 23.5z" />
    <glyph glyph-name="ydieresis" unicode="&#xff;" horiz-adv-x="512" 
d="M158 558.5q-14 14.5 -14 35.5q0 26 19 44t44 18q22 0 35.5 -13.5t13.5 -34.5q0 -26 -18 -45t-44 -19q-22 0 -36 14.5zM334 558.5q-14 14.5 -14 35.5q0 26 19 44t44 18q22 0 35.5 -13.5t13.5 -34.5q0 -26 -18 -45t-44 -19q-22 0 -36 14.5zM522 480l-416 -736h-105l164 287
l-139 449h107l100 -332l182 332h107z" />
    <glyph glyph-name="Amacron" unicode="&#x100;" horiz-adv-x="656" 
d="M243 752l7 56h272l-7 -56h-272zM455 144h-302l-82 -144h-104l404 688l236 -688h-104zM423 240l-78 236l-136 -236h214z" />
    <glyph glyph-name="amacron" unicode="&#x101;" 
d="M212 560l6 56h272l-6 -56h-272zM415 0q-9 15 -9 46q0 15 1 23q-34 -38 -77 -57.5t-92 -19.5q-63 0 -111 28t-74.5 77t-26.5 109q0 12 2 34q8 68 46 125t97 90t128 33q49 0 87 -20t63 -58l9 70h96l-47 -384q-4 -32 -4 -52q0 -28 8 -44h-96zM342.5 111.5q39.5 23.5 63 63
t23.5 85.5q0 56 -38.5 94t-95.5 38q-44 0 -84 -23.5t-64 -62.5t-24 -84q0 -57 38.5 -95.5t96.5 -38.5q45 0 84.5 23.5z" />
    <glyph glyph-name="Abreve" unicode="&#x102;" horiz-adv-x="656" 
d="M521 864q-7 -53 -49 -90.5t-95 -37.5q-49 0 -81 32t-32 80q0 10 1 16h56q-4 -30 14.5 -51t48.5 -21t53.5 21t27.5 51h56zM455 144h-302l-82 -144h-104l404 688l236 -688h-104zM423 240l-78 236l-136 -236h214z" />
    <glyph glyph-name="abreve" unicode="&#x103;" 
d="M489 672q-6 -53 -48 -90.5t-95 -37.5q-49 0 -81.5 32.5t-32.5 80.5q0 10 1 15h56q-4 -30 14.5 -51t48.5 -21t53.5 21t27.5 51h56zM415 0q-9 15 -9 46q0 15 1 23q-34 -38 -77 -57.5t-92 -19.5q-63 0 -111 28t-74.5 77t-26.5 109q0 12 2 34q8 68 46 125t97 90t128 33
q49 0 87 -20t63 -58l9 70h96l-47 -384q-4 -32 -4 -52q0 -28 8 -44h-96zM342.5 111.5q39.5 23.5 63 63t23.5 85.5q0 56 -38.5 94t-95.5 38q-44 0 -84 -23.5t-64 -62.5t-24 -84q0 -57 38.5 -95.5t96.5 -38.5q45 0 84.5 23.5z" />
    <glyph glyph-name="Aogonek" unicode="&#x104;" horiz-adv-x="656" 
d="M615 -192q-11 -7 -26.5 -11.5t-29.5 -4.5q-47 0 -73.5 29t-26.5 76q0 12 1 19q3 22 15 46t28 38l-48 144h-302l-82 -144h-104l404 688l236 -688q-22 0 -45 -13.5t-36 -37.5q-11 -19 -11 -45q0 -27 14.5 -41t37.5 -14q19 0 38 9zM423 240l-78 236l-136 -236h214z" />
    <glyph glyph-name="aogonek" unicode="&#x105;" 
d="M503 -192q-11 -7 -26.5 -11.5t-29.5 -4.5q-47 0 -73.5 29t-26.5 76q0 12 1 19q4 31 22.5 57.5t38.5 41.5q-4 20 -2 54q-34 -38 -77 -57.5t-92 -19.5q-63 0 -111 28t-74.5 77t-26.5 109q0 12 2 34q8 68 46 125t97 90t128 33q49 0 87 -20t63 -58l9 70h96l-47 -384
q-4 -32 -4 -52q0 -28 8 -44h-16q-18 0 -38 -12t-35 -31t-18 -41l-1 -12q0 -27 14.5 -41t37.5 -14q19 0 38 9zM342.5 111.5q39.5 23.5 63 63t23.5 85.5q0 56 -38.5 94t-95.5 38q-44 0 -84 -23.5t-64 -62.5t-24 -84q0 -57 38.5 -95.5t96.5 -38.5q45 0 84.5 23.5z" />
    <glyph glyph-name="Cacute" unicode="&#x106;" horiz-adv-x="640" 
d="M473 864h112l-144 -128h-64zM454 106q44 18 84 55l29 -90q-45 -38 -104 -58.5t-115 -20.5q-88 0 -159 40t-111.5 109t-40.5 154q0 20 3 41q11 93 68 172t143 125.5t181 46.5q57 0 111 -20t90 -58l-52 -90q-32 36 -71.5 54t-95.5 18q-67 0 -128 -33.5t-101.5 -90.5
t-48.5 -124q-2 -20 -2 -31q0 -60 28.5 -110t79 -78.5t112.5 -28.5q56 0 100 18z" />
    <glyph glyph-name="cacute" unicode="&#x107;" horiz-adv-x="496" 
d="M353 672h112l-143 -128h-64zM75 365.5q38 56.5 100.5 89.5t139.5 33q46 0 86 -14t67 -41l-52 -89q-20 22 -49 35t-63 13q-47 0 -88.5 -23.5t-67 -62t-25.5 -82.5q0 -38 18.5 -69t51.5 -49t74 -18q34 0 66 13t58 36l30 -90q-31 -26 -76.5 -40.5t-90.5 -14.5
q-72 0 -123.5 28t-78 76t-26.5 109q0 11 2 35q9 69 47 125.5z" />
    <glyph glyph-name="Cdotaccent" unicode="&#x10a;" horiz-adv-x="640" 
d="M385 738q-18 18 -18 45q0 33 24.5 57t57.5 24q28 0 46 -18t18 -45q0 -33 -24.5 -57t-57.5 -24q-28 0 -46 18zM454 106q44 18 84 55l29 -90q-45 -38 -104 -58.5t-115 -20.5q-88 0 -159 40t-111.5 109t-40.5 154q0 20 3 41q11 93 68 172t143 125.5t181 46.5q57 0 111 -20
t90 -58l-52 -90q-32 36 -71.5 54t-95.5 18q-67 0 -128 -33.5t-101.5 -90.5t-48.5 -124q-2 -20 -2 -31q0 -60 28.5 -110t79 -78.5t112.5 -28.5q56 0 100 18z" />
    <glyph glyph-name="cdotaccent" unicode="&#x10b;" horiz-adv-x="496" 
d="M266 546.5q-18 18.5 -18 45.5q0 33 24.5 56.5t56.5 23.5q28 0 46 -18t18 -45q0 -33 -24.5 -57t-56.5 -24q-28 0 -46 18.5zM75 365.5q38 56.5 100.5 89.5t139.5 33q46 0 86 -14t67 -41l-52 -89q-20 22 -49 35t-63 13q-47 0 -88.5 -23.5t-67 -62t-25.5 -82.5
q0 -38 18.5 -69t51.5 -49t74 -18q34 0 66 13t58 36l30 -90q-31 -26 -76.5 -40.5t-90.5 -14.5q-72 0 -123.5 28t-78 76t-26.5 109q0 11 2 35q9 69 47 125.5z" />
    <glyph glyph-name="Ccaron" unicode="&#x10c;" horiz-adv-x="640" 
d="M585 864l-169 -136l-135 136h99l46 -52l60 52h99zM454 106q44 18 84 55l29 -90q-45 -38 -104 -58.5t-115 -20.5q-88 0 -159 40t-111.5 109t-40.5 154q0 20 3 41q11 93 68 172t143 125.5t181 46.5q57 0 111 -20t90 -58l-52 -90q-32 36 -71.5 54t-95.5 18q-67 0 -128 -33.5
t-101.5 -90.5t-48.5 -124q-2 -20 -2 -31q0 -60 28.5 -110t79 -78.5t112.5 -28.5q56 0 100 18z" />
    <glyph glyph-name="ccaron" unicode="&#x10d;" horiz-adv-x="496" 
d="M481 672l-168 -136l-136 136h99l47 -52l59 52h99zM75 365.5q38 56.5 100.5 89.5t139.5 33q46 0 86 -14t67 -41l-52 -89q-20 22 -49 35t-63 13q-47 0 -88.5 -23.5t-67 -62t-25.5 -82.5q0 -38 18.5 -69t51.5 -49t74 -18q34 0 66 13t58 36l30 -90q-31 -26 -76.5 -40.5
t-90.5 -14.5q-72 0 -123.5 28t-78 76t-26.5 109q0 11 2 35q9 69 47 125.5z" />
    <glyph glyph-name="Dcaron" unicode="&#x10e;" horiz-adv-x="656" 
d="M513 864l-169 -136l-135 136h99l46 -52l60 52h99zM481.5 635q68.5 -37 103 -101t34.5 -147q0 -25 -3 -51q-12 -94 -62 -170.5t-133 -121t-189 -44.5h-201l82 672h201q99 0 167.5 -37zM387.5 128q54.5 32 89.5 87t43 121q2 24 2 34q0 59 -24 105.5t-68 73.5t-103 27h-130
l-58 -480h130q64 0 118.5 32z" />
    <glyph glyph-name="dcaron" unicode="&#x10f;" horiz-adv-x="736" 
d="M415 0q-9 15 -9 46q0 15 1 23q-34 -38 -77 -57.5t-92 -19.5q-63 0 -111 28t-74.5 77t-26.5 109q0 12 2 34q8 68 46 125t97 90t128 33q49 0 87 -20t63 -58l36 294h96l-74 -608q-4 -32 -4 -52q0 -28 8 -44h-96zM641 672h96l-95 -128h-48zM342.5 111.5q39.5 23.5 63 63
t23.5 85.5q0 56 -38.5 94t-95.5 38q-44 0 -84 -23.5t-64 -62.5t-24 -84q0 -57 38.5 -95.5t96.5 -38.5q45 0 84.5 23.5z" />
    <glyph glyph-name="Dcroat" unicode="&#x110;" horiz-adv-x="672" 
d="M497.5 635q68.5 -37 103 -101t34.5 -147q0 -25 -3 -51q-12 -94 -62 -170.5t-133 -121t-189 -44.5h-201l37 304h-64l8 64h64l37 304h201q99 0 167.5 -37zM403.5 128q54.5 32 89.5 87t43 121q2 24 2 34q0 59 -24 105.5t-68 73.5t-103 27h-130l-25 -208h64l-8 -64h-64
l-25 -208h130q64 0 118.5 32z" />
    <glyph glyph-name="dcroat" unicode="&#x111;" horiz-adv-x="624" 
d="M564 560l-57 -464q-4 -32 -4 -52q0 -28 8 -44h-96q-9 15 -9 46q0 15 1 23q-34 -38 -77 -57.5t-92 -19.5q-63 0 -111 28t-74.5 77t-26.5 109q0 12 2 34q8 68 46 125t97 90t128 33q49 0 87 -20t63 -58l19 150h-64l5 48h64l12 96h96l-12 -96h64l-5 -48h-64zM342.5 111.5
q39.5 23.5 63 63t23.5 85.5q0 56 -38.5 94t-95.5 38q-44 0 -84 -23.5t-64 -62.5t-24 -84q0 -57 38.5 -95.5t96.5 -38.5q45 0 84.5 23.5z" />
    <glyph glyph-name="Emacron" unicode="&#x112;" horiz-adv-x="512" 
d="M171 752l7 56h272l-7 -56h-272zM197 576l-23 -192h240l-12 -96h-240l-23 -192h288l-12 -96h-384l82 672h384l-12 -96h-288z" />
    <glyph glyph-name="emacron" unicode="&#x113;" horiz-adv-x="544" 
d="M164 560l6 56h272l-6 -56h-272zM484 196h-363q4 -54 43.5 -81t99.5 -27q78 0 151 48l22 -86q-23 -18 -71.5 -38t-115.5 -20q-109 0 -166.5 59t-57.5 152q0 13 2 37q9 69 45 125.5t94.5 89.5t130.5 33q88 0 142.5 -55.5t54.5 -152.5q0 -19 -3 -42q-1 -13 -8 -42zM400 284
q2 26 -9.5 50.5t-38.5 41t-70 16.5q-42 0 -74.5 -16.5t-52 -41.5t-23.5 -50h268z" />
    <glyph glyph-name="Edotaccent" unicode="&#x116;" horiz-adv-x="512" 
d="M257 738q-18 18 -18 45q0 33 24.5 57t57.5 24q28 0 46 -18t18 -45q0 -33 -24.5 -57t-57.5 -24q-28 0 -46 18zM197 576l-23 -192h240l-12 -96h-240l-23 -192h288l-12 -96h-384l82 672h384l-12 -96h-288z" />
    <glyph glyph-name="edotaccent" unicode="&#x117;" horiz-adv-x="544" 
d="M256 546.5q-18 18.5 -18 45.5q0 33 24.5 56.5t56.5 23.5q28 0 46 -18t18 -45q0 -33 -24.5 -57t-56.5 -24q-28 0 -46 18.5zM484 196h-363q4 -54 43.5 -81t99.5 -27q78 0 151 48l22 -86q-23 -18 -71.5 -38t-115.5 -20q-109 0 -166.5 59t-57.5 152q0 13 2 37q9 69 45 125.5
t94.5 89.5t130.5 33q88 0 142.5 -55.5t54.5 -152.5q0 -19 -3 -42q-1 -13 -8 -42zM400 284q2 26 -9.5 50.5t-38.5 41t-70 16.5q-42 0 -74.5 -16.5t-52 -41.5t-23.5 -50h268z" />
    <glyph glyph-name="Eogonek" unicode="&#x118;" horiz-adv-x="512" 
d="M423 -192q-11 -7 -26.5 -11.5t-29.5 -4.5q-47 0 -73.5 29t-26.5 76q0 12 1 19q3 22 15 46t28 38h-280l82 672h384l-12 -96h-288l-23 -192h240l-12 -96h-240l-23 -192h288l-12 -96q-22 0 -45 -13.5t-36 -37.5q-11 -19 -11 -45q0 -27 14.5 -41t37.5 -14q19 0 38 9z" />
    <glyph glyph-name="eogonek" unicode="&#x119;" horiz-adv-x="544" 
d="M484 196h-363q4 -54 43.5 -81t99.5 -27q78 0 151 48l22 -86q-19 -14 -55.5 -31t-86.5 -24q-21 -4 -37.5 -20.5t-24.5 -38.5q-6 -17 -6 -32q0 -27 14.5 -41t37.5 -14q19 0 38 9l10 -50q-11 -7 -26.5 -11.5t-29.5 -4.5q-47 0 -73.5 29t-26.5 76q0 57 38 97
q-90 11 -136.5 67.5t-46.5 140.5q0 25 2 38q9 69 45 125.5t94.5 89.5t130.5 33q88 0 142.5 -55.5t54.5 -152.5q0 -19 -3 -42q-1 -13 -8 -42zM400 284q2 26 -9.5 50.5t-38.5 41t-70 16.5q-42 0 -74.5 -16.5t-52 -41.5t-23.5 -50h268z" />
    <glyph glyph-name="Ecaron" unicode="&#x11a;" horiz-adv-x="512" 
d="M473 864l-169 -136l-135 136h99l46 -52l60 52h99zM197 576l-23 -192h240l-12 -96h-240l-23 -192h288l-12 -96h-384l82 672h384l-12 -96h-288z" />
    <glyph glyph-name="ecaron" unicode="&#x11b;" horiz-adv-x="544" 
d="M465 672l-168 -136l-136 136h99l47 -52l59 52h99zM484 196h-363q4 -54 43.5 -81t99.5 -27q78 0 151 48l22 -86q-23 -18 -71.5 -38t-115.5 -20q-109 0 -166.5 59t-57.5 152q0 13 2 37q9 69 45 125.5t94.5 89.5t130.5 33q88 0 142.5 -55.5t54.5 -152.5q0 -19 -3 -42
q-1 -13 -8 -42zM400 284q2 26 -9.5 50.5t-38.5 41t-70 16.5q-42 0 -74.5 -16.5t-52 -41.5t-23.5 -50h268z" />
    <glyph glyph-name="Gbreve" unicode="&#x11e;" horiz-adv-x="752" 
d="M569 864q-7 -53 -49 -90.5t-95 -37.5q-49 0 -81 32t-32 80q0 10 1 16h56q-4 -30 14.5 -51t48.5 -21t53.5 21t27.5 51h56zM712 336q-11 -94 -63.5 -173t-133 -125t-173.5 -46q-86 0 -156 40t-109.5 109t-39.5 153q0 21 3 42q11 93 67 172t141 125.5t178 46.5
q99 0 170 -50.5t104 -137.5l-100 -28q-22 55 -71 87.5t-115 32.5q-67 0 -128 -33.5t-101.5 -90.5t-48.5 -124q-2 -20 -2 -31q0 -60 28.5 -110t79 -78.5t112.5 -28.5q89 0 155 51t93 133h-250l12 96l350 -1q0 -9 -2 -31z" />
    <glyph glyph-name="gbreve" unicode="&#x11f;" 
d="M489 672q-6 -53 -48 -90.5t-95 -37.5q-49 0 -81.5 32.5t-32.5 80.5q0 10 1 15h56q-4 -30 14.5 -51t48.5 -21t53.5 21t27.5 51h56zM554 480l-56 -450q-17 -146 -95 -220t-197 -74q-79 0 -129 25t-85 55l59 86q38 -33 74.5 -51.5t92.5 -18.5q75 0 123.5 48t59.5 136l6 54
q-34 -38 -77 -58t-92 -20q-63 0 -111 28t-74.5 77t-26.5 109q0 12 2 34q8 68 46 125t97 90t128 33q49 0 87 -20t63 -58l9 70h96zM342.5 111.5q39.5 23.5 63 63t23.5 85.5q0 56 -38.5 94t-95.5 38q-44 0 -84 -23.5t-64 -62.5t-24 -84q0 -57 38.5 -95.5t96.5 -38.5
q45 0 84.5 23.5z" />
    <glyph glyph-name="Gdotaccent" unicode="&#x120;" horiz-adv-x="752" 
d="M377 738q-18 18 -18 45q0 33 24.5 57t57.5 24q28 0 46 -18t18 -45q0 -33 -24.5 -57t-57.5 -24q-28 0 -46 18zM712 336q-11 -94 -63.5 -173t-133 -125t-173.5 -46q-86 0 -156 40t-109.5 109t-39.5 153q0 21 3 42q11 93 67 172t141 125.5t178 46.5q99 0 170 -50.5
t104 -137.5l-100 -28q-22 55 -71 87.5t-115 32.5q-67 0 -128 -33.5t-101.5 -90.5t-48.5 -124q-2 -20 -2 -31q0 -60 28.5 -110t79 -78.5t112.5 -28.5q89 0 155 51t93 133h-250l12 96l350 -1q0 -9 -2 -31z" />
    <glyph glyph-name="gdotaccent" unicode="&#x121;" 
d="M282 546.5q-18 18.5 -18 45.5q0 33 24.5 56.5t56.5 23.5q28 0 46 -18t18 -45q0 -33 -24.5 -57t-56.5 -24q-28 0 -46 18.5zM554 480l-56 -450q-17 -146 -95 -220t-197 -74q-79 0 -129 25t-85 55l59 86q38 -33 74.5 -51.5t92.5 -18.5q75 0 123.5 48t59.5 136l6 54
q-34 -38 -77 -58t-92 -20q-63 0 -111 28t-74.5 77t-26.5 109q0 12 2 34q8 68 46 125t97 90t128 33q49 0 87 -20t63 -58l9 70h96zM342.5 111.5q39.5 23.5 63 63t23.5 85.5q0 56 -38.5 94t-95.5 38q-44 0 -84 -23.5t-64 -62.5t-24 -84q0 -57 38.5 -95.5t96.5 -38.5
q45 0 84.5 23.5z" />
    <glyph glyph-name="Gcommaaccent" unicode="&#x122;" horiz-adv-x="752" 
d="M712 336q-11 -94 -63.5 -173t-133 -125t-173.5 -46q-86 0 -156 40t-109.5 109t-39.5 153q0 21 3 42q11 93 67 172t141 125.5t178 46.5q99 0 170 -50.5t104 -137.5l-100 -28q-22 55 -71 87.5t-115 32.5q-67 0 -128 -33.5t-101.5 -90.5t-48.5 -124q-2 -20 -2 -31
q0 -60 28.5 -110t79 -78.5t112.5 -28.5q89 0 155 51t93 133h-250l12 96l350 -1q0 -9 -2 -31zM287 -64h96l-96 -128h-48z" />
    <glyph glyph-name="gcommaaccent" unicode="&#x123;" 
d="M394 544h-96l95 128h48zM554 480l-56 -450q-17 -146 -95 -220t-197 -74q-79 0 -129 25t-85 55l59 86q38 -33 74.5 -51.5t92.5 -18.5q75 0 123.5 48t59.5 136l6 54q-34 -38 -77 -58t-92 -20q-63 0 -111 28t-74.5 77t-26.5 109q0 12 2 34q8 68 46 125t97 90t128 33
q49 0 87 -20t63 -58l9 70h96zM342.5 111.5q39.5 23.5 63 63t23.5 85.5q0 56 -38.5 94t-95.5 38q-44 0 -84 -23.5t-64 -62.5t-24 -84q0 -57 38.5 -95.5t96.5 -38.5q45 0 84.5 23.5z" />
    <glyph glyph-name="Hbar" unicode="&#x126;" horiz-adv-x="656" 
d="M656 528h-48l-65 -528h-96l35 288h-320l-35 -288h-96l65 528h-48l5 48h48l12 96h96l-12 -96h320l12 96h96l-12 -96h48zM512 528h-320l-18 -144h320z" />
    <glyph glyph-name="hbar" unicode="&#x127;" horiz-adv-x="576" 
d="M487 44q0 -28 8 -44h-96q-8 16 -8 44q0 20 4 52l21 172q2 22 2 31q0 46 -22 69.5t-73 23.5q-30 0 -63 -15.5t-56.5 -44.5t-28.5 -68l-32 -264h-96l69 560h-64l5 48h64l12 96h96l-12 -96h64l-5 -48h-64l-17 -136q64 64 158 64q80 0 121 -44t41 -128q0 -22 -3 -48l-21 -172
q-4 -32 -4 -52z" />
    <glyph glyph-name="Imacron" unicode="&#x12a;" horiz-adv-x="240" 
d="M35 752l7 56h272l-7 -56h-272zM31 0l82 672h96l-82 -672h-96z" />
    <glyph glyph-name="imacron" unicode="&#x12b;" horiz-adv-x="240" 
d="M12 560l6 56h272l-6 -56h-272zM139 96q-4 -32 -4 -52q0 -28 8 -44h-96q-8 16 -8 44q0 20 4 52l47 384h96z" />
    <glyph glyph-name="Iogonek" unicode="&#x12e;" horiz-adv-x="240" 
d="M135 -192q-11 -7 -26.5 -11.5t-29.5 -4.5q-47 0 -73.5 29t-26.5 76q0 38 15.5 65.5t37.5 45.5l81 664h96l-82 -672q-18 0 -38 -12t-35 -31t-18 -41l-1 -12q0 -27 14.5 -41t37.5 -14q18 0 38 9z" />
    <glyph glyph-name="iogonek" unicode="&#x12f;" horiz-adv-x="240" 
d="M101.5 578q-18.5 18 -18.5 45q0 33 24.5 57t57.5 24q28 0 46 -18t18 -45q0 -33 -24.5 -57t-56.5 -24q-28 0 -46.5 18zM135 -192q-11 -7 -26.5 -11.5t-29.5 -4.5q-47 0 -73.5 29t-26.5 76q0 12 1 19q4 30 23.5 58t37.5 40q-3 14 -3 29q0 26 5 53l47 384h96l-47 -384
q-4 -32 -4 -52q0 -28 8 -44h-16q-18 0 -38 -12t-35 -31t-18 -41l-1 -12q0 -27 14.5 -41t37.5 -14q18 0 38 9z" />
    <glyph glyph-name="Idotaccent" unicode="&#x130;" horiz-adv-x="240" 
d="M121 738q-18 18 -18 45q0 33 24.5 57t57.5 24q28 0 46 -18t18 -45q0 -33 -24.5 -57t-57.5 -24q-28 0 -46 18zM31 0l82 672h96l-82 -672h-96z" />
    <glyph glyph-name="dotlessi" unicode="&#x131;" horiz-adv-x="240" 
d="M139 96q-4 -32 -4 -52q0 -28 8 -44h-96q-8 16 -8 44q0 20 4 52l47 384h96z" />
    <glyph glyph-name="IJ" unicode="&#x132;" horiz-adv-x="704" 
d="M31 0l82 672h96l-82 -672h-96zM689 672l-51 -416q-16 -132 -85 -198t-171 -66q-42 0 -81 19t-56 43l58 82q12 -21 36 -34.5t55 -13.5q65 0 101.5 42.5t45.5 117.5l52 424h96z" />
    <glyph glyph-name="ij" unicode="&#x133;" horiz-adv-x="480" 
d="M101.5 578q-18.5 18 -18.5 45q0 33 24.5 57t57.5 24q28 0 46 -18t18 -45q0 -33 -24.5 -57t-56.5 -24q-28 0 -46.5 18zM341.5 578q-18.5 18 -18.5 45q0 33 24.5 57t57.5 24q28 0 46 -18t18 -45q0 -33 -24.5 -57t-56.5 -24q-28 0 -46.5 18zM139 96q-4 -32 -4 -52
q0 -28 8 -44h-96q-8 16 -8 44q0 20 4 52l47 384h96zM330 480h96l-61 -498q-12 -99 -48 -152t-74.5 -70t-84.5 -24l-13 88q51 10 82 41.5t40 102.5z" />
    <glyph glyph-name="Kcommaaccent" unicode="&#x136;" horiz-adv-x="592" 
d="M527 0h-128l-236 296l-36 -296h-96l82 672h96l-36 -296l292 296h128l-336 -329zM183 -64h96l-96 -128h-48z" />
    <glyph glyph-name="kcommaaccent" unicode="&#x137;" horiz-adv-x="512" 
d="M463 0h-128l-183 204l-25 -204h-96l86 704h96l-51 -420l216 196h128l-269 -232zM159 -64h96l-96 -128h-48z" />
    <glyph glyph-name="Lacute" unicode="&#x139;" horiz-adv-x="480" 
d="M217 864h112l-144 -128h-64zM411 96l-12 -96h-368l82 672h96l-70 -576h272z" />
    <glyph glyph-name="lacute" unicode="&#x13a;" horiz-adv-x="240" 
d="M221 896h112l-144 -128h-64zM135 44q0 -28 8 -44h-96q-8 16 -8 44q0 20 4 52l74 608h96l-74 -608q-4 -32 -4 -52z" />
    <glyph glyph-name="Lcommaaccent" unicode="&#x13b;" horiz-adv-x="480" 
d="M411 96l-12 -96h-368l82 672h96l-70 -576h272zM151 -64h96l-96 -128h-48z" />
    <glyph glyph-name="lcommaaccent" unicode="&#x13c;" horiz-adv-x="240" 
d="M135 44q0 -28 8 -44h-96q-8 16 -8 44q0 20 4 52l74 608h96l-74 -608q-4 -32 -4 -52zM23 -64h96l-96 -128h-48z" />
    <glyph glyph-name="Lcaron" unicode="&#x13d;" horiz-adv-x="496" 
d="M411 96l-12 -96h-368l82 672h96l-70 -576h272zM385 672h96l-95 -128h-48z" />
    <glyph glyph-name="lcaron" unicode="&#x13e;" horiz-adv-x="352" 
d="M135 44q0 -28 8 -44h-96q-8 16 -8 44q0 20 4 52l74 608h96l-74 -608q-4 -32 -4 -52zM273 672h96l-95 -128h-48z" />
    <glyph glyph-name="Ldot" unicode="&#x13f;" horiz-adv-x="496" 
d="M411 96l-12 -96h-368l82 672h96l-70 -576h272zM334 322q-18 18 -18 45q0 33 24.5 57t57.5 24q28 0 46 -17.5t18 -44.5q0 -34 -24.5 -58t-57.5 -24q-28 0 -46 18z" />
    <glyph glyph-name="ldot" unicode="&#x140;" horiz-adv-x="384" 
d="M135 44q0 -28 8 -44h-96q-8 16 -8 44q0 20 4 52l74 608h96l-74 -608q-4 -32 -4 -52zM238 322q-18 18 -18 45q0 33 24.5 57t57.5 24q28 0 46 -17.5t18 -44.5q0 -34 -24.5 -58t-57.5 -24q-28 0 -46 18z" />
    <glyph glyph-name="Lslash" unicode="&#x141;" horiz-adv-x="496" 
d="M427 96l-12 -96h-368l37 306l-66 -18l6 48l66 18l39 318h96l-36 -292l67 18l-6 -48l-66 -18l-29 -236h272z" />
    <glyph glyph-name="lslash" unicode="&#x142;" horiz-adv-x="272" 
d="M184 332l-29 -236q-4 -32 -4 -52q0 -28 8 -44h-96q-8 16 -8 44q0 20 4 52l25 210l-66 -18l6 48l66 18l43 350h96l-40 -324l67 18l-6 -48z" />
    <glyph glyph-name="Nacute" unicode="&#x143;" horiz-adv-x="704" 
d="M425 864h112l-144 -128h-64zM183 460l-56 -460h-96l84 688l406 -476l56 460h96l-84 -688z" />
    <glyph glyph-name="nacute" unicode="&#x144;" horiz-adv-x="560" 
d="M329 672h112l-143 -128h-64zM471 44q0 -28 8 -44h-96q-8 16 -8 44q0 20 4 52l21 172q2 22 2 31q0 46 -22 69.5t-73 23.5q-30 0 -63 -15.5t-56.5 -44.5t-28.5 -68l-32 -264h-96l59 480h96l-7 -56q64 64 158 64q78 0 120.5 -42.5t42.5 -125.5q0 -21 -3 -44l-22 -180
q-4 -32 -4 -52z" />
    <glyph glyph-name="Ncommaaccent" unicode="&#x145;" horiz-adv-x="704" 
d="M183 460l-56 -460h-96l84 688l406 -476l56 460h96l-84 -688zM255 -64h96l-96 -128h-48z" />
    <glyph glyph-name="ncommaaccent" unicode="&#x146;" horiz-adv-x="560" 
d="M471 44q0 -28 8 -44h-96q-8 16 -8 44q0 20 4 52l21 172q2 22 2 31q0 46 -22 69.5t-73 23.5q-30 0 -63 -15.5t-56.5 -44.5t-28.5 -68l-32 -264h-96l59 480h96l-7 -56q64 64 158 64q78 0 120.5 -42.5t42.5 -125.5q0 -21 -3 -44l-22 -180q-4 -32 -4 -52zM183 -64h96
l-96 -128h-48z" />
    <glyph glyph-name="Ncaron" unicode="&#x147;" horiz-adv-x="704" 
d="M569 864l-169 -136l-135 136h99l46 -52l60 52h99zM183 460l-56 -460h-96l84 688l406 -476l56 460h96l-84 -688z" />
    <glyph glyph-name="ncaron" unicode="&#x148;" horiz-adv-x="560" 
d="M459 672l-168 -136l-136 136h99l47 -52l59 52h99zM471 44q0 -28 8 -44h-96q-8 16 -8 44q0 20 4 52l21 172q2 22 2 31q0 46 -22 69.5t-73 23.5q-30 0 -63 -15.5t-56.5 -44.5t-28.5 -68l-32 -264h-96l59 480h96l-7 -56q64 64 158 64q78 0 120.5 -42.5t42.5 -125.5
q0 -21 -3 -44l-22 -180q-4 -32 -4 -52z" />
    <glyph glyph-name="Eng" unicode="&#x14a;" horiz-adv-x="704" 
d="M673 672l-84 -690q-12 -99 -48 -152t-74.5 -70t-84.5 -24l-13 88q51 10 82 41.5t40 102.5l14 114l-322 378l-56 -460h-96l84 688l406 -476l56 460h96z" />
    <glyph glyph-name="eng" unicode="&#x14b;" horiz-adv-x="560" 
d="M457.5 445.5q42.5 -42.5 42.5 -125.5q0 -21 -3 -44l-36 -294q-12 -99 -48 -152t-74.5 -70t-84.5 -24l-13 88q51 10 82 41.5t40 102.5l37 300q2 22 2 31q0 46 -22 69.5t-73 23.5q-30 0 -63 -15.5t-56.5 -44.5t-28.5 -68l-32 -264h-96l59 480h96l-7 -56q64 64 158 64
q78 0 120.5 -42.5z" />
    <glyph glyph-name="Omacron" unicode="&#x14c;" horiz-adv-x="768" 
d="M299 752l7 56h272l-7 -56h-272zM582 640q70 -40 109.5 -109t39.5 -153q0 -21 -3 -42q-11 -93 -67 -172t-141 -125.5t-178 -46.5q-86 0 -156 40t-109.5 109t-39.5 153q0 21 3 42q11 93 67 172t141 125.5t178 46.5q86 0 156 -40zM483 121q61 33 101 90t48 125q2 22 2 31
q0 61 -28.5 110.5t-79 78t-112.5 28.5q-68 0 -129 -33t-101 -90t-48 -125q-2 -22 -2 -31q0 -61 28.5 -110.5t79 -78t112.5 -28.5q68 0 129 33z" />
    <glyph glyph-name="omacron" unicode="&#x14d;" horiz-adv-x="576" 
d="M180 560l6 56h272l-6 -56h-272zM419 459.5q50 -28.5 78.5 -78.5t28.5 -110q0 -11 -2 -31q-8 -67 -48.5 -124t-101.5 -90.5t-128 -33.5q-62 0 -112.5 28.5t-79 78.5t-28.5 110q0 11 2 31q8 67 48.5 124t102 90.5t128.5 33.5q62 0 112 -28.5zM341.5 111.5
q39.5 23.5 63.5 63t24 83.5q0 57 -38.5 95.5t-95.5 38.5q-44 0 -83.5 -23.5t-64 -63t-24.5 -83.5q0 -56 39 -95t96 -39q44 0 83.5 23.5z" />
    <glyph glyph-name="Ohungarumlaut" unicode="&#x150;" horiz-adv-x="768" 
d="M337 864h104l-96 -128h-56zM561 864h104l-96 -128h-56zM582 640q70 -40 109.5 -109t39.5 -153q0 -21 -3 -42q-11 -93 -67 -172t-141 -125.5t-178 -46.5q-86 0 -156 40t-109.5 109t-39.5 153q0 21 3 42q11 93 67 172t141 125.5t178 46.5q86 0 156 -40zM483 121
q61 33 101 90t48 125q2 22 2 31q0 61 -28.5 110.5t-79 78t-112.5 28.5q-68 0 -129 -33t-101 -90t-48 -125q-2 -22 -2 -31q0 -61 28.5 -110.5t79 -78t112.5 -28.5q68 0 129 33z" />
    <glyph glyph-name="ohungarumlaut" unicode="&#x151;" horiz-adv-x="576" 
d="M217 672h104l-95 -128h-56zM441 672h104l-95 -128h-56zM419 459.5q50 -28.5 78.5 -78.5t28.5 -110q0 -11 -2 -31q-8 -67 -48.5 -124t-101.5 -90.5t-128 -33.5q-62 0 -112.5 28.5t-79 78.5t-28.5 110q0 11 2 31q8 67 48.5 124t102 90.5t128.5 33.5q62 0 112 -28.5z
M341.5 111.5q39.5 23.5 63.5 63t24 83.5q0 57 -38.5 95.5t-95.5 38.5q-44 0 -83.5 -23.5t-64 -63t-24.5 -83.5q0 -56 39 -95t96 -39q44 0 83.5 23.5z" />
    <glyph glyph-name="OE" unicode="&#x152;" horiz-adv-x="1072" 
d="M757 576l-23 -192h240l-12 -96h-240l-23 -192h288l-12 -96h-384l12 98q-54 -50 -122 -78t-139 -28q-86 0 -156 40t-109.5 109t-39.5 153q0 21 3 42q11 93 67 172t141 125.5t178 46.5q71 0 132 -28t103 -78l12 98h384l-12 -96h-288zM483 121q61 33 101 90t48 125
q2 22 2 31q0 61 -28.5 110.5t-79 78t-112.5 28.5q-68 0 -129 -33t-101 -90t-48 -125q-2 -22 -2 -31q0 -61 28.5 -110.5t79 -78t112.5 -28.5q68 0 129 33z" />
    <glyph glyph-name="oe" unicode="&#x153;" horiz-adv-x="944" 
d="M884 196h-363q4 -54 43.5 -81t99.5 -27q78 0 151 48l22 -86q-23 -18 -71.5 -38t-115.5 -20q-71 0 -120.5 25.5t-75.5 70.5q-41 -45 -95 -70.5t-113 -25.5q-62 0 -112.5 28.5t-79 78.5t-28.5 110q0 11 2 31q8 67 48.5 124t102 90.5t128.5 33.5q59 0 107 -26t78 -71
q37 46 90 71.5t116 25.5q88 0 142.5 -55.5t54.5 -152.5q0 -19 -3 -42q-1 -13 -8 -42zM341.5 111.5q39.5 23.5 63.5 63t24 83.5q0 57 -38.5 95.5t-95.5 38.5q-44 0 -83.5 -23.5t-64 -63t-24.5 -83.5q0 -56 39 -95t96 -39q44 0 83.5 23.5zM800 284q2 26 -9.5 50.5t-38.5 41
t-70 16.5q-42 0 -74.5 -16.5t-52 -41.5t-23.5 -50h268z" />
    <glyph glyph-name="Racute" unicode="&#x154;" horiz-adv-x="592" 
d="M345 864h112l-144 -128h-64zM399 0l-139 232h-105l-28 -232h-96l82 672h208q116 0 174 -48.5t58 -134.5q0 -10 -2 -32q-10 -79 -58.5 -137.5t-125.5 -78.5l144 -241h-112zM167 328h143q57 0 96.5 30.5t47.5 92.5q1 8 1 22q0 52 -31 77.5t-82 25.5h-145z" />
    <glyph glyph-name="racute" unicode="&#x155;" horiz-adv-x="400" 
d="M233 672h112l-143 -128h-64zM258.5 458.5q53.5 29.5 120.5 29.5l-13 -105q-17 5 -36 5q-26 0 -53 -9q-51 -19 -83.5 -60t-40.5 -105l-26 -214h-96l59 480h96l-13 -103q32 52 85.5 81.5z" />
    <glyph glyph-name="Rcommaaccent" unicode="&#x156;" horiz-adv-x="592" 
d="M399 0l-139 232h-105l-28 -232h-96l82 672h208q116 0 174 -48.5t58 -134.5q0 -10 -2 -32q-10 -79 -58.5 -137.5t-125.5 -78.5l144 -241h-112zM167 328h143q57 0 96.5 30.5t47.5 92.5q1 8 1 22q0 52 -31 77.5t-82 25.5h-145zM183 -64h96l-96 -128h-48z" />
    <glyph glyph-name="rcommaaccent" unicode="&#x157;" horiz-adv-x="400" 
d="M258.5 458.5q53.5 29.5 120.5 29.5l-13 -105q-17 5 -36 5q-26 0 -53 -9q-51 -19 -83.5 -60t-40.5 -105l-26 -214h-96l59 480h96l-13 -103q32 52 85.5 81.5zM31 -64h96l-96 -128h-48z" />
    <glyph glyph-name="Rcaron" unicode="&#x158;" horiz-adv-x="592" 
d="M481 864l-169 -136l-135 136h99l46 -52l60 52h99zM399 0l-139 232h-105l-28 -232h-96l82 672h208q116 0 174 -48.5t58 -134.5q0 -10 -2 -32q-10 -79 -58.5 -137.5t-125.5 -78.5l144 -241h-112zM167 328h143q57 0 96.5 30.5t47.5 92.5q1 8 1 22q0 52 -31 77.5t-82 25.5
h-145z" />
    <glyph glyph-name="rcaron" unicode="&#x159;" horiz-adv-x="400" 
d="M401 672l-168 -136l-136 136h99l47 -52l59 52h99zM258.5 458.5q53.5 29.5 120.5 29.5l-13 -105q-17 5 -36 5q-26 0 -53 -9q-51 -19 -83.5 -60t-40.5 -105l-26 -214h-96l59 480h96l-13 -103q32 52 85.5 81.5z" />
    <glyph glyph-name="Sacute" unicode="&#x15a;" horiz-adv-x="592" 
d="M393 864h112l-144 -128h-64zM484 330.5q53 -38.5 53 -107.5q0 -65 -35.5 -117.5t-99.5 -83t-146 -30.5q-102 0 -161 38t-84 71l59 86q36 -47 88.5 -73t111.5 -26q75 0 119 28t49 77q5 39 -32 64.5t-108 38.5q-119 21 -169 62t-50 103q0 61 32.5 110.5t93 79t142.5 29.5
q45 0 102.5 -15.5t104.5 -64.5l-56 -87q-65 71 -165 71q-73 0 -114.5 -28t-41.5 -77q0 -33 33 -52t108 -35q113 -23 166 -61.5z" />
    <glyph glyph-name="sacute" unicode="&#x15b;" horiz-adv-x="480" 
d="M305 672h112l-143 -128h-64zM418 167q0 -11 -1 -17q-9 -73 -64 -115.5t-147 -42.5q-70 0 -124.5 23t-75.5 45l50 94q25 -28 72.5 -47t90.5 -19q46 0 73.5 16.5t27.5 40.5q0 23 -21 35t-66 20q-99 18 -138 48t-39 79q0 8 2 24q8 61 66 99t146 38q37 0 81.5 -11t86.5 -35
l-44 -90q-18 14 -59 27t-83 13q-41 0 -69.5 -11t-28.5 -35q0 -19 21 -28t48.5 -14.5t36.5 -7.5q158 -30 158 -129z" />
    <glyph glyph-name="Scedilla" unicode="&#x15e;" horiz-adv-x="592" 
d="M506 113q-31 -50 -87 -82t-129 -38l-44 -41q15 3 28 3q43 0 70.5 -28t27.5 -71q0 -44 -23 -80.5t-62.5 -58t-84.5 -21.5q-79 0 -113 63l54 45q9 -20 25.5 -32t48.5 -12q41 0 70 26.5t29 63.5q0 27 -18 44.5t-46 17.5q-37 0 -70 -24l-26 48l63 58q-86 8 -137 43.5
t-71 63.5l59 86q36 -47 88.5 -73t111.5 -26q75 0 119 28t49 77q5 39 -32 64.5t-108 38.5q-119 21 -169 62t-50 103q0 61 32.5 110.5t93 79t142.5 29.5q45 0 102.5 -15.5t104.5 -64.5l-56 -87q-65 71 -165 71q-73 0 -114.5 -28t-41.5 -77q0 -33 33 -52t108 -35
q113 -23 166 -61.5t53 -107.5q0 -60 -31 -110z" />
    <glyph glyph-name="scedilla" unicode="&#x15f;" horiz-adv-x="480" 
d="M363.5 43.5q-45.5 -41.5 -120.5 -49.5l-45 -42q15 3 28 3q43 0 70.5 -28t27.5 -71q0 -44 -23 -80.5t-62.5 -58t-84.5 -21.5q-79 0 -113 63l54 45q9 -20 25.5 -32t48.5 -12q41 0 70 26.5t29 63.5q0 27 -18 44.5t-46 17.5q-37 0 -70 -24l-26 48l62 58q-58 6 -102.5 26.5
t-61.5 39.5l50 94q25 -28 72.5 -47t90.5 -19q46 0 73.5 16.5t27.5 40.5q0 23 -21 35t-66 20q-99 18 -138 48t-39 79q0 8 2 24q8 61 66 99t146 38q37 0 81.5 -11t86.5 -35l-44 -90q-18 14 -59 27t-83 13q-41 0 -69.5 -11t-28.5 -35q0 -19 21 -28t48.5 -14.5t36.5 -7.5
q158 -30 158 -129q0 -11 -1 -17q-8 -65 -53.5 -106.5z" />
    <glyph glyph-name="Scaron" unicode="&#x160;" horiz-adv-x="592" 
d="M513 864l-169 -136l-135 136h99l46 -52l60 52h99zM484 330.5q53 -38.5 53 -107.5q0 -65 -35.5 -117.5t-99.5 -83t-146 -30.5q-102 0 -161 38t-84 71l59 86q36 -47 88.5 -73t111.5 -26q75 0 119 28t49 77q5 39 -32 64.5t-108 38.5q-119 21 -169 62t-50 103
q0 61 32.5 110.5t93 79t142.5 29.5q45 0 102.5 -15.5t104.5 -64.5l-56 -87q-65 71 -165 71q-73 0 -114.5 -28t-41.5 -77q0 -33 33 -52t108 -35q113 -23 166 -61.5z" />
    <glyph glyph-name="scaron" unicode="&#x161;" horiz-adv-x="480" 
d="M437 672l-168 -136l-136 136h99l47 -52l59 52h99zM418 167q0 -11 -1 -17q-9 -73 -64 -115.5t-147 -42.5q-70 0 -124.5 23t-75.5 45l50 94q25 -28 72.5 -47t90.5 -19q46 0 73.5 16.5t27.5 40.5q0 23 -21 35t-66 20q-99 18 -138 48t-39 79q0 8 2 24q8 61 66 99t146 38
q37 0 81.5 -11t86.5 -35l-44 -90q-18 14 -59 27t-83 13q-41 0 -69.5 -11t-28.5 -35q0 -19 21 -28t48.5 -14.5t36.5 -7.5q158 -30 158 -129z" />
    <glyph glyph-name="uni0162" unicode="&#x162;" horiz-adv-x="528" 
d="M265 0l-51 -48q15 3 28 3q43 0 70.5 -28t27.5 -71q0 -44 -23 -80.5t-62.5 -58t-84.5 -21.5q-79 0 -113 63l54 45q9 -20 25.5 -32t48.5 -12q41 0 70 26.5t29 63.5q0 27 -18 44.5t-46 17.5q-37 0 -70 -24l-26 48l69 64h-18l70 576h-176l12 96h448l-12 -96h-176l-70 -576h-6
z" />
    <glyph glyph-name="uni0163" unicode="&#x163;" horiz-adv-x="352" 
d="M162 -45q43 0 70.5 -28t27.5 -71q0 -44 -23 -80.5t-62.5 -58t-84.5 -21.5q-79 0 -113 63l54 45q9 -20 25.5 -32t48.5 -12q41 0 70 26.5t29 63.5q0 27 -18 44.5t-46 17.5q-37 0 -70 -24l-26 48l77 73q-42 28 -42 105q0 21 3 43l28 227h-64l12 96h64l23 192h96l-23 -192h96
l-12 -96h-96l-25 -200q-3 -22 -3 -43q0 -30 12 -40q13 -10 31 -10q20 0 46 12l-12 -97q-31 -14 -72 -14h-7l-42 -40q15 3 28 3z" />
    <glyph glyph-name="Tcaron" unicode="&#x164;" horiz-adv-x="528" 
d="M481 864l-169 -136l-135 136h99l46 -52l60 52h99zM529 672l-12 -96h-176l-70 -576h-96l70 576h-176l12 96h448z" />
    <glyph glyph-name="tcaron" unicode="&#x165;" horiz-adv-x="496" 
d="M110 384h-64l12 96h64l23 192h96l-23 -192h96l-12 -96h-96l-25 -200q-3 -22 -3 -43q0 -30 12 -40q13 -10 31 -10q20 0 46 12l-12 -97q-31 -14 -72 -14q-104 0 -104 123q0 21 3 42zM401 672h96l-95 -128h-48z" />
    <glyph glyph-name="Tbar" unicode="&#x166;" horiz-adv-x="528" 
d="M341 576l-29 -240h64l-6 -48h-64l-35 -288h-96l35 288h-64l6 48h64l29 240h-176l12 96h448l-12 -96h-176z" />
    <glyph glyph-name="tbar" unicode="&#x167;" horiz-adv-x="352" 
d="M206 384l-11 -88h96l-6 -48h-96l-8 -64q-3 -22 -3 -43q0 -30 12 -40q13 -10 31 -10q20 0 46 12l-12 -97q-31 -14 -72 -14q-104 0 -104 123q0 21 3 42l11 91h-64l6 48h64l11 88h-64l12 96h64l23 192h96l-23 -192h96l-12 -96h-96z" />
    <glyph glyph-name="Umacron" unicode="&#x16a;" horiz-adv-x="624" 
d="M227 752l7 56h272l-7 -56h-272zM609 672l-46 -376q-17 -139 -91.5 -221.5t-201.5 -82.5q-113 0 -168 63.5t-55 174.5q0 35 4 66l46 376h96l-50 -408q-2 -22 -2 -31q0 -66 37 -105.5t104 -39.5q74 0 122.5 48.5t58.5 127.5l50 408h96z" />
    <glyph glyph-name="umacron" unicode="&#x16b;" horiz-adv-x="560" 
d="M168 560l6 56h272l-6 -56h-272zM367 0q-9 17 -9 41l1 15q-28 -28 -68 -46t-91 -18q-77 0 -120 42.5t-43 124.5q0 21 3 45l34 276h96l-33 -268q-2 -12 -2 -33q0 -45 22 -68t73 -23q30 0 62.5 15.5t56 44.5t28.5 68l33 264h96l-47 -384q-4 -32 -4 -52q0 -28 8 -44h-96z" />
    <glyph glyph-name="Uring" unicode="&#x16e;" horiz-adv-x="624" 
d="M458 916q28 -28 28 -70q0 -33 -17.5 -62t-47 -46.5t-62.5 -17.5q-43 0 -71 28t-28 70q0 33 17.5 62t47 46.5t62.5 17.5q43 0 71 -28zM410 795q19 19 19 44q0 21 -13.5 35t-35.5 14q-25 0 -44 -19t-19 -44q0 -21 13.5 -35t35.5 -14q25 0 44 19zM609 672l-46 -376
q-17 -139 -91.5 -221.5t-201.5 -82.5q-113 0 -168 63.5t-55 174.5q0 35 4 66l46 376h96l-50 -408q-2 -22 -2 -31q0 -66 37 -105.5t104 -39.5q74 0 122.5 48.5t58.5 127.5l50 408h96z" />
    <glyph glyph-name="uring" unicode="&#x16f;" horiz-adv-x="560" 
d="M396 708q28 -28 28 -70q0 -33 -17.5 -62t-46.5 -46.5t-62 -17.5q-43 0 -71.5 28.5t-28.5 70.5q0 33 18 62t47 46t62 17q43 0 71 -28zM348 587q19 19 19 44q0 21 -13.5 35t-35.5 14q-25 0 -44 -18.5t-19 -43.5q0 -21 14 -35.5t35 -14.5q25 0 44 19zM367 0q-9 17 -9 41
l1 15q-28 -28 -68 -46t-91 -18q-77 0 -120 42.5t-43 124.5q0 21 3 45l34 276h96l-33 -268q-2 -12 -2 -33q0 -45 22 -68t73 -23q30 0 62.5 15.5t56 44.5t28.5 68l33 264h96l-47 -384q-4 -32 -4 -52q0 -28 8 -44h-96z" />
    <glyph glyph-name="Uhungarumlaut" unicode="&#x170;" horiz-adv-x="624" 
d="M257 864h104l-96 -128h-56zM481 864h104l-96 -128h-56zM609 672l-46 -376q-17 -139 -91.5 -221.5t-201.5 -82.5q-113 0 -168 63.5t-55 174.5q0 35 4 66l46 376h96l-50 -408q-2 -22 -2 -31q0 -66 37 -105.5t104 -39.5q74 0 122.5 48.5t58.5 127.5l50 408h96z" />
    <glyph glyph-name="uhungarumlaut" unicode="&#x171;" horiz-adv-x="560" 
d="M195 672h104l-95 -128h-56zM419 672h104l-95 -128h-56zM367 0q-9 17 -9 41l1 15q-28 -28 -68 -46t-91 -18q-77 0 -120 42.5t-43 124.5q0 21 3 45l34 276h96l-33 -268q-2 -12 -2 -33q0 -45 22 -68t73 -23q30 0 62.5 15.5t56 44.5t28.5 68l33 264h96l-47 -384
q-4 -32 -4 -52q0 -28 8 -44h-96z" />
    <glyph glyph-name="Uogonek" unicode="&#x172;" horiz-adv-x="624" 
d="M609 672l-46 -376q-16 -129 -81.5 -210t-177.5 -92q-15 -2 -30.5 -17t-23.5 -37q-7 -15 -7 -36q0 -27 14.5 -41t37.5 -14q19 0 38 9l10 -50q-11 -7 -26.5 -11.5t-29.5 -4.5q-47 0 -73.5 29t-26.5 76q0 12 1 19q3 20 13 42t24 37q-91 12 -134.5 73.5t-43.5 160.5
q0 36 4 67l46 376h96l-50 -408q-2 -22 -2 -31q0 -66 37 -105.5t104 -39.5q74 0 122.5 48.5t58.5 127.5l50 408h96z" />
    <glyph glyph-name="uogonek" unicode="&#x173;" horiz-adv-x="560" 
d="M455 -192q-11 -7 -26.5 -11.5t-29.5 -4.5q-47 0 -73.5 29t-26.5 76q0 12 1 19q4 29 22.5 55.5t38.5 41.5q-4 16 -2 43q-28 -28 -68 -46t-91 -18q-77 0 -120 42.5t-43 124.5q0 21 3 45l34 276h96l-33 -268q-2 -12 -2 -33q0 -45 22 -68t73 -23q30 0 62.5 15.5t56 44.5
t28.5 68l33 264h96l-47 -384q-4 -32 -4 -52q0 -28 8 -44h-16q-18 0 -38 -12t-35 -31t-18 -41l-1 -12q0 -27 14.5 -41t37.5 -14q18 0 38 9z" />
    <glyph glyph-name="Wcircumflex" unicode="&#x174;" horiz-adv-x="960" 
d="M535 788l-59 -52h-99l169 136l135 -136h-99zM985 672l-364 -688l-127 464l-241 -464l-196 688h104l122 -442l240 458l128 -458l230 442h104z" />
    <glyph glyph-name="wcircumflex" unicode="&#x175;" horiz-adv-x="752" 
d="M408 596l-59 -52h-99l168 136l136 -136h-99zM754 480l-269 -496l-114 308l-190 -308l-147 496h104l77 -286l181 302l107 -302l147 286h104z" />
    <glyph glyph-name="Ycircumflex" unicode="&#x176;" horiz-adv-x="592" 
d="M351 788l-59 -52h-99l169 136l135 -136h-99zM625 672l-289 -400l-33 -272h-96l33 272l-191 400h108l142 -308l218 308h108z" />
    <glyph glyph-name="ycircumflex" unicode="&#x177;" horiz-adv-x="512" 
d="M288 596l-59 -52h-99l168 136l136 -136h-99zM522 480l-416 -736h-105l164 287l-139 449h107l100 -332l182 332h107z" />
    <glyph glyph-name="Ydieresis" unicode="&#x178;" horiz-adv-x="592" 
d="M221.5 750q-13.5 14 -13.5 35q0 26 19 44.5t44 18.5q22 0 35.5 -13.5t13.5 -34.5q0 -26 -18.5 -45t-44.5 -19q-22 0 -35.5 14zM397.5 750q-13.5 14 -13.5 35q0 26 19 44.5t44 18.5q22 0 35.5 -13.5t13.5 -34.5q0 -26 -18.5 -45t-44.5 -19q-22 0 -35.5 14zM625 672
l-289 -400l-33 -272h-96l33 272l-191 400h108l142 -308l218 308h108z" />
    <glyph glyph-name="Zacute" unicode="&#x179;" 
d="M393 864h112l-144 -128h-64zM-1 0l432 576h-346l12 96h512l-432 -576h346l-12 -96h-512z" />
    <glyph glyph-name="zacute" unicode="&#x17a;" horiz-adv-x="480" 
d="M305 672h112l-143 -128h-64zM-1 0l283 384h-220l12 96h384l-285 -384h222l-12 -96h-384z" />
    <glyph glyph-name="Zdotaccent" unicode="&#x17b;" 
d="M305 738q-18 18 -18 45q0 33 24.5 57t57.5 24q28 0 46 -18t18 -45q0 -33 -24.5 -57t-57.5 -24q-28 0 -46 18zM-1 0l432 576h-346l12 96h512l-432 -576h346l-12 -96h-512z" />
    <glyph glyph-name="zdotaccent" unicode="&#x17c;" horiz-adv-x="480" 
d="M218 546.5q-18 18.5 -18 45.5q0 33 24.5 56.5t56.5 23.5q28 0 46 -18t18 -45q0 -33 -24.5 -57t-56.5 -24q-28 0 -46 18.5zM-1 0l283 384h-220l12 96h384l-285 -384h222l-12 -96h-384z" />
    <glyph glyph-name="Zcaron" unicode="&#x17d;" 
d="M521 864l-169 -136l-135 136h99l46 -52l60 52h99zM-1 0l432 576h-346l12 96h512l-432 -576h346l-12 -96h-512z" />
    <glyph glyph-name="zcaron" unicode="&#x17e;" horiz-adv-x="480" 
d="M433 672l-168 -136l-136 136h99l47 -52l59 52h99zM-1 0l283 384h-220l12 96h384l-285 -384h222l-12 -96h-384z" />
    <glyph glyph-name="Aringacute" unicode="&#x1fa;" horiz-adv-x="656" 
d="M454 1104h112l-143 -128h-64zM474 916q28 -28 28 -70q0 -33 -17.5 -62t-47 -46.5t-62.5 -17.5q-43 0 -71 28t-28 70q0 33 17.5 62t47 46.5t62.5 17.5q43 0 71 -28zM426 795q19 19 19 44q0 21 -13.5 35t-35.5 14q-25 0 -44 -19t-19 -44q0 -21 13.5 -35t35.5 -14
q25 0 44 19zM455 144h-302l-82 -144h-104l404 688l236 -688h-104zM423 240l-78 236l-136 -236h214z" />
    <glyph glyph-name="aringacute" unicode="&#x1fb;" 
d="M413 896h112l-144 -128h-64zM448 708q28 -28 28 -70q0 -33 -17.5 -62t-46.5 -46.5t-62 -17.5q-43 0 -71.5 28.5t-28.5 70.5q0 33 18 62t47 46t62 17q43 0 71 -28zM400 587q19 19 19 44q0 21 -13.5 35t-35.5 14q-25 0 -44 -18.5t-19 -43.5q0 -21 14 -35.5t35 -14.5
q25 0 44 19zM415 0q-9 15 -9 46q0 15 1 23q-34 -38 -77 -57.5t-92 -19.5q-63 0 -111 28t-74.5 77t-26.5 109q0 12 2 34q8 68 46 125t97 90t128 33q49 0 87 -20t63 -58l9 70h96l-47 -384q-4 -32 -4 -52q0 -28 8 -44h-96zM342.5 111.5q39.5 23.5 63 63t23.5 85.5
q0 56 -38.5 94t-95.5 38q-44 0 -84 -23.5t-64 -62.5t-24 -84q0 -57 38.5 -95.5t96.5 -38.5q45 0 84.5 23.5z" />
    <glyph glyph-name="AEacute" unicode="&#x1fc;" horiz-adv-x="800" 
d="M521 864h112l-144 -128h-64zM485 576l-23 -192h240l-12 -96h-240l-23 -192h288l-12 -96h-384l17 144h-174l-91 -144h-104l434 672h384l-12 -96h-288zM348 240l30 240l-154 -240h124z" />
    <glyph glyph-name="aeacute" unicode="&#x1fd;" horiz-adv-x="880" 
d="M497 672h112l-143 -128h-64zM820 196h-363q4 -54 43.5 -81t99.5 -27q78 0 151 48l22 -86q-23 -18 -71.5 -38t-115.5 -20q-92 0 -151 45l-4 -37h-96l6 49q-25 -27 -72.5 -42t-90.5 -15q-75 0 -118.5 38t-43.5 101q0 45 25.5 85.5t89.5 67.5q45 20 116 20q57 0 123 -14
q1 6 1 16q0 49 -35.5 67.5t-82.5 18.5q-44 0 -79 -11.5t-68 -33.5l-35 77q30 21 83 42.5t119 21.5q69 0 109.5 -19.5t61.5 -58.5q37 37 85.5 57.5t104.5 20.5q88 0 142.5 -55.5t54.5 -152.5q0 -19 -3 -42q-1 -13 -8 -42zM736 284q2 26 -9.5 50.5t-38.5 41t-70 16.5
q-42 0 -74.5 -16.5t-52 -41.5t-23.5 -50h268zM360 206q-63 15 -112 15q-63 0 -99 -21.5t-36 -56.5q0 -26 22.5 -40.5t56.5 -14.5q57 0 108 23.5t55 56.5z" />
    <glyph glyph-name="Scommaaccent" unicode="&#x218;" horiz-adv-x="592" 
d="M484 330.5q53 -38.5 53 -107.5q0 -65 -35.5 -117.5t-99.5 -83t-146 -30.5q-102 0 -161 38t-84 71l59 86q36 -47 88.5 -73t111.5 -26q75 0 119 28t49 77q5 39 -32 64.5t-108 38.5q-119 21 -169 62t-50 103q0 61 32.5 110.5t93 79t142.5 29.5q45 0 102.5 -15.5t104.5 -64.5
l-56 -87q-65 71 -165 71q-73 0 -114.5 -28t-41.5 -77q0 -33 33 -52t108 -35q113 -23 166 -61.5zM199 -64h96l-96 -128h-48z" />
    <glyph glyph-name="scommaaccent" unicode="&#x219;" horiz-adv-x="480" 
d="M418 167q0 -11 -1 -17q-9 -73 -64 -115.5t-147 -42.5q-70 0 -124.5 23t-75.5 45l50 94q25 -28 72.5 -47t90.5 -19q46 0 73.5 16.5t27.5 40.5q0 23 -21 35t-66 20q-99 18 -138 48t-39 79q0 8 2 24q8 61 66 99t146 38q37 0 81.5 -11t86.5 -35l-44 -90q-18 14 -59 27t-83 13
q-41 0 -69.5 -11t-28.5 -35q0 -19 21 -28t48.5 -14.5t36.5 -7.5q158 -30 158 -129zM151 -64h96l-96 -128h-48z" />
    <glyph glyph-name="uni021A" unicode="&#x21a;" horiz-adv-x="528" 
d="M529 672l-12 -96h-176l-70 -576h-96l70 576h-176l12 96h448zM167 -64h96l-96 -128h-48z" />
    <glyph glyph-name="uni021B" unicode="&#x21b;" horiz-adv-x="352" 
d="M110 384h-64l12 96h64l23 192h96l-23 -192h96l-12 -96h-96l-25 -200q-3 -22 -3 -43q0 -30 12 -40q13 -10 31 -10q20 0 46 12l-12 -97q-31 -14 -72 -14q-104 0 -104 123q0 21 3 42zM87 -64h96l-96 -128h-48z" />
    <glyph glyph-name="circumflex" unicode="&#x2c6;" horiz-adv-x="816" 
d="M463 788l-59 -52h-99l169 136l135 -136h-99z" />
    <glyph glyph-name="caron" unicode="&#x2c7;" horiz-adv-x="816" 
d="M625 864l-169 -136l-135 136h99l46 -52l60 52h99z" />
    <glyph glyph-name="breve" unicode="&#x2d8;" horiz-adv-x="816" 
d="M601 864q-7 -53 -49 -90.5t-95 -37.5q-49 0 -81 32t-32 80q0 10 1 16h56q-4 -30 14.5 -51t48.5 -21t53.5 21t27.5 51h56z" />
    <glyph glyph-name="dotaccent" unicode="&#x2d9;" horiz-adv-x="816" 
d="M409 738q-18 18 -18 45q0 33 24.5 57t57.5 24q28 0 46 -18t18 -45q0 -33 -24.5 -57t-57.5 -24q-28 0 -46 18z" />
    <glyph glyph-name="ring" unicode="&#x2da;" horiz-adv-x="816" 
d="M554 916q28 -28 28 -70q0 -33 -17.5 -62t-47 -46.5t-62.5 -17.5q-43 0 -71 28t-28 70q0 33 17.5 62t47 46.5t62.5 17.5q43 0 71 -28zM506 795q19 19 19 44q0 21 -13.5 35t-35.5 14q-25 0 -44 -19t-19 -44q0 -21 13.5 -35t35.5 -14q25 0 44 19z" />
    <glyph glyph-name="ogonek" unicode="&#x2db;" horiz-adv-x="816" 
d="M435 0q-22 0 -45 -13.5t-36 -37.5q-11 -19 -11 -45q0 -27 14.5 -41t37.5 -14q19 0 38 9l10 -50q-11 -7 -26.5 -11.5t-29.5 -4.5q-47 0 -73.5 29t-26.5 76q0 12 1 19q3 22 15 46t28 38h104z" />
    <glyph glyph-name="tilde" unicode="&#x2dc;" horiz-adv-x="816" 
d="M642 811q-26 -42 -55 -58.5t-62 -16.5q-18 0 -32.5 4.5t-37.5 13.5q-35 16 -58 16q-32 0 -55 -34l-58 23q49 73 119 73q18 0 30.5 -4t35.5 -13q39 -17 60 -17q33 0 55 34z" />
    <glyph glyph-name="hungarumlaut" unicode="&#x2dd;" horiz-adv-x="816" 
d="M341 864h104l-96 -128h-56zM565 864h104l-96 -128h-56z" />
    <glyph glyph-name="Alphatonos" unicode="&#x386;" horiz-adv-x="656" 
d="M455 144h-302l-82 -144h-104l404 688l236 -688h-104zM113 672h96l-95 -128h-48zM423 240l-78 236l-136 -236h214z" />
    <glyph glyph-name="Epsilontonos" unicode="&#x388;" horiz-adv-x="640" 
d="M113 672h96l-95 -128h-48zM325 576l-23 -192h240l-12 -96h-240l-23 -192h288l-12 -96h-384l82 672h384l-12 -96h-288z" />
    <glyph glyph-name="Etatonos" unicode="&#x389;" horiz-adv-x="784" 
d="M113 672h96l-95 -128h-48zM753 672l-82 -672h-96l35 288h-320l-35 -288h-96l82 672h96l-35 -288h320l35 288h96z" />
    <glyph glyph-name="Iotatonos" unicode="&#x38a;" horiz-adv-x="368" 
d="M113 672h96l-95 -128h-48zM159 0l82 672h96l-82 -672h-96z" />
    <glyph glyph-name="Omicrontonos" unicode="&#x38c;" horiz-adv-x="832" 
d="M646 640q70 -40 109.5 -109t39.5 -153q0 -21 -3 -42q-11 -93 -67 -172t-141 -125.5t-178 -46.5q-86 0 -156 40t-109.5 109t-39.5 153q0 21 3 42q11 93 67 172t141 125.5t178 46.5q86 0 156 -40zM113 672h96l-95 -128h-48zM547 121q61 33 101 90t48 125q2 22 2 31
q0 61 -28.5 110.5t-79 78t-112.5 28.5q-68 0 -129 -33t-101 -90t-48 -125q-2 -22 -2 -31q0 -61 28.5 -110.5t79 -78t112.5 -28.5q68 0 129 33z" />
    <glyph glyph-name="Upsilontonos" unicode="&#x38e;" horiz-adv-x="784" 
d="M113 672h96l-95 -128h-48zM817 672l-289 -400l-33 -272h-96l33 272l-191 400h108l142 -308l218 308h108z" />
    <glyph glyph-name="Omegatonos" unicode="&#x38f;" horiz-adv-x="816" 
d="M700.5 228.5q-55.5 -71.5 -142.5 -132.5h173l-12 -96h-288l13 112q99 61 163.5 131.5t64.5 168.5q0 81 -57.5 126.5t-144.5 45.5q-66 0 -123.5 -27t-92 -79t-34.5 -122q0 -77 45 -135t115 -109l-13 -112h-288l12 96h173q-65 54 -102 116.5t-37 141.5q0 25 2 38
q9 73 52.5 139t121 107.5t181.5 41.5q96 0 160.5 -35.5t95.5 -93t31 -124.5q0 -11 -2 -35q-11 -92 -66.5 -163.5zM113 672h96l-95 -128h-48z" />
    <glyph glyph-name="iotadieresistonos" unicode="&#x390;" horiz-adv-x="272" 
d="M161 672h96l-95 -128h-48zM-10 558.5q-14 14.5 -14 35.5q0 26 19 44t44 18q22 0 35.5 -13.5t13.5 -34.5q0 -26 -18 -45t-44 -19q-22 0 -36 14.5zM262 558.5q-14 14.5 -14 35.5q0 26 19 44t44 18q22 0 35.5 -13.5t13.5 -34.5q0 -26 -18 -45t-44 -19q-22 0 -36 14.5z
M144 144q-2 -20 -2 -27q0 -21 7.5 -30.5t26.5 -9.5q10 0 25 3l-10 -80q-32 -8 -64 -8q-83 0 -83 97q0 23 2 36l44 355h96z" />
    <glyph glyph-name="Alpha" unicode="&#x391;" horiz-adv-x="656" 
d="M455 144h-302l-82 -144h-104l404 688l236 -688h-104zM423 240l-78 236l-136 -236h214z" />
    <glyph glyph-name="Beta" unicode="&#x392;" horiz-adv-x="576" 
d="M498 312q23 -37 23 -86q0 -16 -1 -24q-8 -58 -39.5 -104t-83.5 -72t-118 -26h-248l82 672h201q102 0 157 -38.5t55 -111.5q0 -58 -29 -102t-70 -59q48 -12 71 -49zM177 408h120q62 0 96.5 24t34.5 72q0 36 -28.5 54t-82.5 18h-120zM378 123q39 27 46 81q1 6 1 17
q0 45 -32.5 68t-91.5 23h-136l-26 -216h136q64 0 103 27z" />
    <glyph glyph-name="Gamma" unicode="&#x393;" horiz-adv-x="496" 
d="M197 576l-70 -576h-96l82 672h384l-12 -96h-288z" />
    <glyph glyph-name="uni0394" unicode="&#x394;" horiz-adv-x="656" 
d="M607 0h-640l404 688zM471 96l-126 380l-218 -380h344z" />
    <glyph glyph-name="Epsilon" unicode="&#x395;" horiz-adv-x="512" 
d="M197 576l-23 -192h240l-12 -96h-240l-23 -192h288l-12 -96h-384l82 672h384l-12 -96h-288z" />
    <glyph glyph-name="Zeta" unicode="&#x396;" 
d="M-1 0l432 576h-346l12 96h512l-432 -576h346l-12 -96h-512z" />
    <glyph glyph-name="Eta" unicode="&#x397;" horiz-adv-x="656" 
d="M625 672l-82 -672h-96l35 288h-320l-35 -288h-96l82 672h96l-35 -288h320l35 288h96z" />
    <glyph glyph-name="Theta" unicode="&#x398;" horiz-adv-x="768" 
d="M582 640q70 -40 109.5 -109t39.5 -153q0 -21 -3 -42q-11 -93 -67 -172t-141 -125.5t-178 -46.5q-86 0 -156 40t-109.5 109t-39.5 153q0 21 3 42q11 93 67 172t141 125.5t178 46.5q86 0 156 -40zM483 121q61 33 101 90t48 125q2 22 2 31q0 61 -28.5 110.5t-79 78
t-112.5 28.5q-68 0 -129 -33t-101 -90t-48 -125q-2 -22 -2 -31q0 -61 28.5 -110.5t79 -78t112.5 -28.5q68 0 129 33zM187 360h400l-6 -48h-400z" />
    <glyph glyph-name="Iota" unicode="&#x399;" horiz-adv-x="240" 
d="M31 0l82 672h96l-82 -672h-96z" />
    <glyph glyph-name="Kappa" unicode="&#x39a;" horiz-adv-x="592" 
d="M527 0h-128l-236 296l-36 -296h-96l82 672h96l-36 -296l292 296h128l-336 -329z" />
    <glyph glyph-name="Lambda" unicode="&#x39b;" horiz-adv-x="656" 
d="M345 476l-274 -476h-104l404 688l236 -688h-104z" />
    <glyph glyph-name="Mu" unicode="&#x39c;" horiz-adv-x="832" 
d="M210 398l-113 -398h-98l198 688l200 -508l324 508l30 -688h-98l-15 398l-265 -414z" />
    <glyph glyph-name="Nu" unicode="&#x39d;" horiz-adv-x="704" 
d="M183 460l-56 -460h-96l84 688l406 -476l56 460h96l-84 -688z" />
    <glyph glyph-name="Xi" unicode="&#x39e;" horiz-adv-x="576" 
d="M97 672h464l-12 -96h-464zM110 384h368l-12 -96h-368zM27 96h464l-12 -96h-464z" />
    <glyph glyph-name="Omicron" unicode="&#x39f;" horiz-adv-x="768" 
d="M582 640q70 -40 109.5 -109t39.5 -153q0 -21 -3 -42q-11 -93 -67 -172t-141 -125.5t-178 -46.5q-86 0 -156 40t-109.5 109t-39.5 153q0 21 3 42q11 93 67 172t141 125.5t178 46.5q86 0 156 -40zM483 121q61 33 101 90t48 125q2 22 2 31q0 61 -28.5 110.5t-79 78
t-112.5 28.5q-68 0 -129 -33t-101 -90t-48 -125q-2 -22 -2 -31q0 -61 28.5 -110.5t79 -78t112.5 -28.5q68 0 129 33z" />
    <glyph glyph-name="Pi" unicode="&#x3a0;" horiz-adv-x="656" 
d="M543 0h-96l70 576h-320l-70 -576h-96l82 672h512z" />
    <glyph glyph-name="Rho" unicode="&#x3a1;" horiz-adv-x="576" 
d="M495 623.5q58 -48.5 58 -134.5q0 -10 -2 -32q-8 -63 -41.5 -114.5t-88.5 -81t-124 -29.5h-142l-28 -232h-96l82 672h208q116 0 174 -48.5zM406.5 358.5q39.5 30.5 47.5 92.5q1 7 1 20q0 52 -34.5 78.5t-86.5 26.5h-137l-30 -248h143q57 0 96.5 30.5z" />
    <glyph glyph-name="Sigma" unicode="&#x3a3;" horiz-adv-x="576" 
d="M392 336l-197 -240h280l-12 -96h-464l273 336l-191 336h464l-12 -96h-280z" />
    <glyph glyph-name="Tau" unicode="&#x3a4;" horiz-adv-x="528" 
d="M529 672l-12 -96h-176l-70 -576h-96l70 576h-176l12 96h448z" />
    <glyph glyph-name="Upsilon" unicode="&#x3a5;" horiz-adv-x="592" 
d="M625 672l-289 -400l-33 -272h-96l33 272l-191 400h108l142 -308l218 308h108z" />
    <glyph glyph-name="Phi" unicode="&#x3a6;" horiz-adv-x="720" 
d="M624.5 202q-47.5 -64 -114 -99t-135.5 -39l-8 -64h-96l8 64q-62 4 -117 34t-88.5 85t-33.5 129q0 26 2 40q11 88 58.5 151.5t114 98t134.5 38.5l8 64h96l-8 -64q61 -4 116 -33.5t89.5 -84t34.5 -129.5q0 -20 -3 -41q-10 -86 -57.5 -150zM338 548q-39 0 -82.5 -20.5
t-76.5 -65t-41 -110.5q-2 -22 -2 -33q0 -55 24 -92t59.5 -54t70.5 -17zM468 176.5q43 20.5 76.5 64.5t41.5 111q2 22 2 31q0 56 -23.5 93t-59 54.5t-71.5 17.5l-48 -392q39 0 82 20.5z" />
    <glyph glyph-name="Chi" unicode="&#x3a7;" horiz-adv-x="656" 
d="M475 0l-155 271l-221 -271h-116l286 347l-188 325h115l143 -250l203 250h115l-268 -325l202 -347h-116z" />
    <glyph glyph-name="Psi" unicode="&#x3a8;" horiz-adv-x="784" 
d="M753 672l-29 -238q-18 -146 -98.5 -213.5t-210.5 -84.5l-16 -136h-96l16 136q-112 15 -175.5 70t-63.5 170q0 30 4 58l29 238h96l-31 -252q-2 -12 -2 -35q0 -78 43.5 -114t111.5 -39l54 440h96l-54 -440q76 3 131.5 47.5t67.5 140.5l31 252h96z" />
    <glyph glyph-name="uni03A9" unicode="&#x3a9;" horiz-adv-x="752" 
d="M636.5 228.5q-55.5 -71.5 -142.5 -132.5h173l-12 -96h-288l13 112q99 61 163.5 131.5t64.5 168.5q0 81 -57.5 126.5t-144.5 45.5q-66 0 -123.5 -27t-92 -79t-34.5 -122q0 -77 45 -135t115 -109l-13 -112h-288l12 96h173q-65 54 -102 116.5t-37 141.5q0 25 2 38
q9 73 52.5 139t121 107.5t181.5 41.5q96 0 160.5 -35.5t95.5 -93t31 -124.5q0 -11 -2 -35q-11 -92 -66.5 -163.5z" />
    <glyph glyph-name="Iotadieresis" unicode="&#x3aa;" horiz-adv-x="240" 
d="M45.5 750q-13.5 14 -13.5 35q0 26 19 44.5t44 18.5q22 0 35.5 -13.5t13.5 -34.5q0 -26 -18.5 -45t-44.5 -19q-22 0 -35.5 14zM221.5 750q-13.5 14 -13.5 35q0 26 19 44.5t44 18.5q22 0 35.5 -13.5t13.5 -34.5q0 -26 -18.5 -45t-44.5 -19q-22 0 -35.5 14zM31 0l82 672h96
l-82 -672h-96z" />
    <glyph glyph-name="Upsilondieresis" unicode="&#x3ab;" horiz-adv-x="592" 
d="M221.5 750q-13.5 14 -13.5 35q0 26 19 44.5t44 18.5q22 0 35.5 -13.5t13.5 -34.5q0 -26 -18.5 -45t-44.5 -19q-22 0 -35.5 14zM397.5 750q-13.5 14 -13.5 35q0 26 19 44.5t44 18.5q22 0 35.5 -13.5t13.5 -34.5q0 -26 -18.5 -45t-44.5 -19q-22 0 -35.5 14zM625 672
l-289 -400l-33 -272h-96l33 272l-191 400h108l142 -308l218 308h108z" />
    <glyph glyph-name="alphatonos" unicode="&#x3ac;" horiz-adv-x="640" 
d="M353 672h96l-95 -128h-48zM510 117q0 -21 7.5 -30.5t26.5 -9.5q10 0 25 3l-10 -80q-32 -8 -64 -8q-74 0 -82 76q-35 -36 -80 -56t-95 -20q-63 0 -111 28t-74.5 77t-26.5 109q0 12 2 34q8 68 46 125t97 90t128 33q49 0 87 -20t63 -58l9 70h96l-42 -336q-2 -20 -2 -27z
M342.5 111.5q39.5 23.5 63 63t23.5 85.5q0 56 -38.5 94t-95.5 38q-44 0 -84 -23.5t-64 -62.5t-24 -84q0 -57 38.5 -95.5t96.5 -38.5q45 0 84.5 23.5z" />
    <glyph glyph-name="epsilontonos" unicode="&#x3ad;" horiz-adv-x="480" 
d="M281 672h96l-95 -128h-48zM310 98.5q34 10.5 65 30.5l30 -76q-37 -29 -85.5 -45t-100.5 -16q-85 0 -136.5 31.5t-51.5 97.5q0 14 1 21q4 35 28 63.5t62 42.5q-29 12 -43.5 35t-14.5 51q0 9 1 14q9 70 65 105t141 35q48 0 94 -16t82 -46l-53 -76q-30 21 -58.5 31.5
t-73.5 10.5q-48 0 -74.5 -17.5t-26.5 -38.5q0 -26 37 -41t107 -15l-10 -80q-71 0 -116 -14t-50 -42q-1 -2 -1 -7q0 -24 29 -36.5t77 -12.5q42 0 76 10.5z" />
    <glyph glyph-name="etatonos" unicode="&#x3ae;" horiz-adv-x="560" 
d="M297 672h96l-95 -128h-48zM439 -212q0 -28 8 -44h-96q-8 16 -8 44q0 20 4 52l53 428q2 22 2 31q0 46 -22 69.5t-73 23.5q-30 0 -63 -15.5t-56.5 -44.5t-28.5 -68l-32 -264h-96l59 480h96l-7 -56q64 64 158 64q78 0 120.5 -42.5t42.5 -125.5q0 -21 -3 -44l-54 -436
q-4 -32 -4 -52z" />
    <glyph glyph-name="iotatonos" unicode="&#x3af;" horiz-adv-x="272" 
d="M161 672h96l-95 -128h-48zM144 144q-2 -20 -2 -27q0 -21 7.5 -30.5t26.5 -9.5q10 0 25 3l-10 -80q-32 -8 -64 -8q-83 0 -83 97q0 23 2 36l44 355h96z" />
    <glyph glyph-name="upsilondieresistonos" unicode="&#x3b0;" horiz-adv-x="544" 
d="M273 672h96l-95 -128h-48zM102 558.5q-14 14.5 -14 35.5q0 26 19 44t44 18q22 0 35.5 -13.5t13.5 -34.5q0 -26 -18 -45t-44 -19q-22 0 -36 14.5zM374 558.5q-14 14.5 -14 35.5q0 26 19 44t44 18q22 0 35.5 -13.5t13.5 -34.5q0 -26 -18 -45t-44 -19q-22 0 -36 14.5z
M481 308q0 -27 -3 -56q-15 -119 -82 -189.5t-166 -70.5q-94 0 -141.5 50t-47.5 145q0 25 3 53l30 240h96l-33 -266q-1 -7 -1 -21q0 -50 29.5 -77.5t76.5 -27.5q57 0 93 41t45 109q5 42 5 71q0 42 -5.5 79.5t-17.5 91.5h96q23 -102 23 -172z" />
    <glyph glyph-name="alpha" unicode="&#x3b1;" horiz-adv-x="640" 
d="M510 117q0 -21 7.5 -30.5t26.5 -9.5q10 0 25 3l-10 -80q-32 -8 -64 -8q-74 0 -82 76q-35 -36 -80 -56t-95 -20q-63 0 -111 28t-74.5 77t-26.5 109q0 12 2 34q8 68 46 125t97 90t128 33q49 0 87 -20t63 -58l9 70h96l-42 -336q-2 -20 -2 -27zM342.5 111.5q39.5 23.5 63 63
t23.5 85.5q0 56 -38.5 94t-95.5 38q-44 0 -84 -23.5t-64 -62.5t-24 -84q0 -57 38.5 -95.5t96.5 -38.5q45 0 84.5 23.5z" />
    <glyph glyph-name="beta" unicode="&#x3b2;" horiz-adv-x="544" 
d="M458.5 328.5q30.5 -43.5 30.5 -100.5q0 -60 -30 -114t-87.5 -88t-134.5 -34q-31 0 -66.5 9t-56.5 23l-35 -280h-96l92 744q17 140 95.5 182t141.5 42q58 0 97 -22.5t57 -58.5t18 -77t-18 -76t-43 -59t-48 -35q53 -12 83.5 -55.5zM179.5 97.5q31.5 -9.5 65.5 -9.5
q56 0 97.5 28t48.5 84q1 4 1 13q0 31 -18.5 55.5t-50.5 35.5q-47 16 -141 16l12 96q86 0 140 37q24 17 37.5 40.5t13.5 46.5q0 37 -26.5 56.5t-66.5 19.5q-45 0 -79 -31.5t-40 -80.5l-47 -380q22 -17 53.5 -26.5z" />
    <glyph glyph-name="gamma" unicode="&#x3b3;" horiz-adv-x="496" 
d="M265 87l-42 -343h-96l42 343l-143 393h104l101 -280l171 280h104z" />
    <glyph glyph-name="delta" unicode="&#x3b4;" horiz-adv-x="576" 
d="M503.5 369q22.5 -45 22.5 -98q0 -11 -2 -31q-8 -67 -48.5 -124t-101.5 -90.5t-128 -33.5q-62 0 -112.5 28.5t-79 78.5t-28.5 110q0 11 2 31q10 76 58 137t119 90q-28 20 -41.5 46.5t-13.5 54.5q0 35 22 70.5t67.5 58.5t110.5 23q39 0 73.5 -7.5t75.5 -24.5l-27 -88
q-70 28 -128 28q-16 0 -42 -4q-27 -5 -41.5 -18t-14.5 -30q0 -14 11.5 -28t34.5 -26q36 -16 42 -19q38 -17 61 -28.5t46 -29.5q40 -31 62.5 -76zM341.5 111.5q39.5 23.5 63.5 63t24 83.5q0 57 -38.5 95.5t-95.5 38.5q-44 0 -83.5 -23.5t-64 -63t-24.5 -83.5q0 -56 39 -95
t96 -39q44 0 83.5 23.5z" />
    <glyph glyph-name="epsilon" unicode="&#x3b5;" horiz-adv-x="480" 
d="M310 98.5q34 10.5 65 30.5l30 -76q-37 -29 -85.5 -45t-100.5 -16q-85 0 -136.5 31.5t-51.5 97.5q0 14 1 21q4 35 28 63.5t62 42.5q-29 12 -43.5 35t-14.5 51q0 9 1 14q9 70 65 105t141 35q48 0 94 -16t82 -46l-53 -76q-30 21 -58.5 31.5t-73.5 10.5q-48 0 -74.5 -17.5
t-26.5 -38.5q0 -26 37 -41t107 -15l-10 -80q-71 0 -116 -14t-50 -42q-1 -2 -1 -7q0 -24 29 -36.5t77 -12.5q42 0 76 10.5z" />
    <glyph glyph-name="zeta" unicode="&#x3b6;" horiz-adv-x="496" 
d="M319 461q-77 -64 -126 -129.5t-56 -119.5q-2 -20 -2 -27q0 -47 22.5 -70.5t55 -30.5t84.5 -10q46 -3 72 -8t43.5 -21t17.5 -48q0 -10 -1 -15q-3 -23 -8 -37t-18 -41h-80q12 38 12 54q0 34 -41 34q-84 0 -138.5 12t-87 47t-32.5 102q0 25 2 39q12 92 101.5 197.5
t212.5 186.5h-219l12 96h352l-12 -96q-89 -51 -166 -115z" />
    <glyph glyph-name="eta" unicode="&#x3b7;" horiz-adv-x="560" 
d="M439 -212q0 -28 8 -44h-96q-8 16 -8 44q0 20 4 52l53 428q2 22 2 31q0 46 -22 69.5t-73 23.5q-30 0 -63 -15.5t-56.5 -44.5t-28.5 -68l-32 -264h-96l59 480h96l-7 -56q64 64 158 64q78 0 120.5 -42.5t42.5 -125.5q0 -21 -3 -44l-54 -436q-4 -32 -4 -52z" />
    <glyph glyph-name="theta" unicode="&#x3b8;" horiz-adv-x="576" 
d="M473.5 604.5q50.5 -75.5 50.5 -196.5q0 -39 -4 -72q-12 -96 -49 -174.5t-95.5 -124t-129.5 -45.5q-94 0 -144.5 75t-50.5 196q0 31 5 73q12 96 49 174.5t95 124t130 45.5q93 0 143.5 -75.5zM215.5 520.5q-44.5 -63.5 -59.5 -160.5h270q2 26 2 38q0 83 -29 134.5t-81 51.5
q-58 0 -102.5 -63.5zM360.5 151.5q44.5 63.5 59.5 160.5h-270q-2 -26 -2 -38q0 -83 29 -134.5t81 -51.5q58 0 102.5 63.5z" />
    <glyph glyph-name="iota" unicode="&#x3b9;" horiz-adv-x="272" 
d="M144 144q-2 -20 -2 -27q0 -21 7.5 -30.5t26.5 -9.5q10 0 25 3l-10 -80q-32 -8 -64 -8q-83 0 -83 97q0 23 2 36l44 355h96z" />
    <glyph glyph-name="kappa" unicode="&#x3ba;" horiz-adv-x="512" 
d="M463 0h-128l-183 204l-25 -204h-96l59 480h96l-24 -196l216 196h128l-269 -232z" />
    <glyph glyph-name="lambda" unicode="&#x3bb;" horiz-adv-x="592" 
d="M494 77q12 0 27 3l-10 -80q-21 -8 -53 -8q-51 0 -82.5 26t-49.5 70.5t-33 116.5l-26 121l-163 -326h-105l233 449l-27 95q-13 44 -36 67.5t-55 23.5q-10 0 -22 -3l10 80q21 8 55 8q49 0 81 -33.5t49.5 -80.5t35.5 -120l83 -318q24 -91 88 -91z" />
    <glyph glyph-name="uni03BC" unicode="&#x3bc;" horiz-adv-x="576" 
d="M471 44q0 -28 8 -44h-96q-9 17 -9 41l1 15q-28 -28 -68 -46t-91 -18q-53 0 -88 19l-33 -267h-96l91 736h96l-33 -268q-2 -12 -2 -33q0 -45 22 -68t73 -23q30 0 62.5 15.5t56 44.5t28.5 68l33 264h96l-47 -384q-4 -32 -4 -52z" />
    <glyph glyph-name="nu" unicode="&#x3bd;" horiz-adv-x="480" 
d="M26 480h104l93 -280l163 280h104l-293 -496z" />
    <glyph glyph-name="xi" unicode="&#x3be;" horiz-adv-x="528" 
d="M158.5 112.5q27.5 -20.5 80.5 -24.5l30 -2q56 -2 95 -8t68.5 -25.5t29.5 -58.5q0 -8 -1 -12q-3 -23 -9.5 -40.5t-16.5 -37.5h-80q9 29 9 42q0 24 -22.5 35t-80.5 11q-118 0 -172.5 38.5t-54.5 115.5q0 9 2 31q7 54 48 99t103 72q-95 40 -95 138q0 16 3 34
q13 91 81.5 145.5t174.5 54.5q46 0 89.5 -18t70.5 -46l-42 -80q-54 48 -130 48q-73 0 -111.5 -34.5t-38.5 -89.5q0 -56 59 -84t166 -28l-10 -88q-77 0 -139.5 -16t-98 -46.5t-35.5 -71.5q0 -33 27.5 -53.5z" />
    <glyph glyph-name="omicron" unicode="&#x3bf;" horiz-adv-x="576" 
d="M419 459.5q50 -28.5 78.5 -78.5t28.5 -110q0 -11 -2 -31q-8 -67 -48.5 -124t-101.5 -90.5t-128 -33.5q-62 0 -112.5 28.5t-79 78.5t-28.5 110q0 11 2 31q8 67 48.5 124t102 90.5t128.5 33.5q62 0 112 -28.5zM341.5 111.5q39.5 23.5 63.5 63t24 83.5q0 57 -38.5 95.5
t-95.5 38.5q-44 0 -83.5 -23.5t-64 -63t-24.5 -83.5q0 -56 39 -95t96 -39q44 0 83.5 23.5z" />
    <glyph glyph-name="pi" unicode="&#x3c0;" 
d="M478 384l-30 -240q-2 -20 -2 -27q0 -21 7.5 -30.5t26.5 -9.5q10 0 25 3l-10 -80q-32 -8 -64 -8q-83 0 -83 97q0 23 2 36l32 259h-176l-47 -384h-96l47 384h-64l12 96h512l-12 -96h-80z" />
    <glyph glyph-name="rho" unicode="&#x3c1;" 
d="M451 459.5q50 -28.5 78.5 -78.5t28.5 -110q0 -11 -2 -31q-8 -67 -48 -124t-99 -90.5t-123 -33.5q-45 0 -85.5 16.5t-66.5 48.5l-39 -313h-96l61 496q8 67 48.5 124t102 90.5t128.5 33.5q62 0 112 -28.5zM373.5 111.5q39.5 23.5 63.5 63t24 83.5q0 57 -38.5 95.5
t-95.5 38.5q-44 0 -83.5 -23.5t-64 -63t-24.5 -83.5q0 -56 39 -95t96 -39q44 0 83.5 23.5z" />
    <glyph glyph-name="uni03C2" unicode="&#x3c2;" horiz-adv-x="528" 
d="M406.5 66.5q55.5 -18.5 55.5 -73.5l-1 -11q-3 -23 -9.5 -40.5t-16.5 -37.5h-80q1 5 6.5 21t5.5 27q0 21 -22.5 30.5t-82.5 9.5q-76 0 -129 27.5t-80 75.5t-27 110q0 11 2 35q9 69 47 125.5t100.5 89.5t139.5 33q46 0 86 -14t67 -41l-52 -89q-20 22 -49 35t-63 13
q-44 0 -83.5 -20.5t-65.5 -55.5t-31 -75q-1 -7 -1 -21q0 -57 37 -93t107 -39q84 -3 139.5 -21.5z" />
    <glyph glyph-name="sigma" unicode="&#x3c3;" 
d="M574 384h-99q23 -20 36.5 -53.5t13.5 -73.5q0 -68 -39 -129t-103.5 -98.5t-136.5 -37.5q-62 0 -112.5 28t-79 77t-28.5 109q0 10 2 30q8 66 48 122t101.5 89t128.5 33h280zM341.5 111q39.5 23 63.5 61t24 81q0 55 -39 93t-96 38q-44 0 -83.5 -23t-63.5 -61t-24 -81
q0 -55 39 -93t96 -38q44 0 83.5 23z" />
    <glyph glyph-name="tau" unicode="&#x3c4;" horiz-adv-x="464" 
d="M286 384l-30 -240q-2 -20 -2 -27q0 -21 7.5 -30.5t26.5 -9.5q10 0 25 3l-10 -80q-32 -8 -64 -8q-83 0 -83 97q0 23 2 36l32 259h-144l12 96h384l-12 -96h-144z" />
    <glyph glyph-name="upsilon" unicode="&#x3c5;" horiz-adv-x="544" 
d="M481 308q0 -27 -3 -56q-15 -119 -82 -189.5t-166 -70.5q-94 0 -141.5 50t-47.5 145q0 25 3 53l30 240h96l-33 -266q-1 -7 -1 -21q0 -50 29.5 -77.5t76.5 -27.5q57 0 93 41t45 109q5 42 5 71q0 42 -5.5 79.5t-17.5 91.5h96q23 -102 23 -172z" />
    <glyph glyph-name="phi" unicode="&#x3c6;" horiz-adv-x="656" 
d="M550.5 440.5q57.5 -60.5 57.5 -153.5q0 -11 -2 -35q-9 -71 -46.5 -127t-96.5 -90.5t-129 -42.5l-31 -248h-96l31 248q-95 11 -152.5 71t-57.5 153q0 24 2 36q8 71 46 127t96.5 90.5t129.5 42.5l23 192h96l-23 -192q95 -11 152.5 -71.5zM290 420q-71 -10 -118.5 -61
t-47.5 -135q0 -60 34.5 -96t90.5 -44zM512 278q0 61 -35 97.5t-91 44.5l-41 -336q64 9 110 52.5t55 115.5q2 18 2 26z" />
    <glyph glyph-name="chi" unicode="&#x3c7;" horiz-adv-x="528" 
d="M463 0h-114l-104 181l-148 -181h-114l214 255l-140 225h114l91 -158l131 158h114l-196 -225z" />
    <glyph glyph-name="psi" unicode="&#x3c8;" horiz-adv-x="720" 
d="M682 480l-27 -218q-15 -124 -91.5 -190.5t-197.5 -79.5l-31 -248h-96l31 248q-106 12 -166 67t-60 157q0 22 3 46l27 218h96l-28 -222q-2 -18 -2 -26q0 -70 42.5 -103.5t99.5 -40.5l48 392h96l-48 -392q64 8 117 47.5t63 122.5l28 222h96z" />
    <glyph glyph-name="omega" unicode="&#x3c9;" horiz-adv-x="720" 
d="M656 297q0 -26 -3 -53q-16 -125 -74.5 -188.5t-140.5 -63.5q-41 0 -64.5 15t-48.5 46q-33 -31 -59.5 -46t-67.5 -15q-72 0 -114.5 48t-42.5 144q0 31 4 60q7 60 30.5 121.5t55.5 114.5h90q-31 -62 -52 -121t-29 -121q-3 -21 -3 -39q0 -53 20 -82t53 -29q31 0 54 21.5
t29 72.5l29 234h96l-29 -234q-1 -8 -1 -22q0 -39 17.5 -55.5t44.5 -16.5q39 0 68 40t38 110q4 29 4 65q0 81 -25 177h90q31 -89 31 -183z" />
    <glyph glyph-name="iotadieresis" unicode="&#x3ca;" horiz-adv-x="272" 
d="M22 558.5q-14 14.5 -14 35.5q0 26 19 44t44 18q22 0 35.5 -13.5t13.5 -34.5q0 -26 -18 -45t-44 -19q-22 0 -36 14.5zM198 558.5q-14 14.5 -14 35.5q0 26 19 44t44 18q22 0 35.5 -13.5t13.5 -34.5q0 -26 -18 -45t-44 -19q-22 0 -36 14.5zM144 144q-2 -20 -2 -27
q0 -21 7.5 -30.5t26.5 -9.5q10 0 25 3l-10 -80q-32 -8 -64 -8q-83 0 -83 97q0 23 2 36l44 355h96z" />
    <glyph glyph-name="upsilondieresis" unicode="&#x3cb;" horiz-adv-x="544" 
d="M142 558.5q-14 14.5 -14 35.5q0 26 19 44t44 18q22 0 35.5 -13.5t13.5 -34.5q0 -26 -18 -45t-44 -19q-22 0 -36 14.5zM318 558.5q-14 14.5 -14 35.5q0 26 19 44t44 18q22 0 35.5 -13.5t13.5 -34.5q0 -26 -18 -45t-44 -19q-22 0 -36 14.5zM481 308q0 -27 -3 -56
q-15 -119 -82 -189.5t-166 -70.5q-94 0 -141.5 50t-47.5 145q0 25 3 53l30 240h96l-33 -266q-1 -7 -1 -21q0 -50 29.5 -77.5t76.5 -27.5q57 0 93 41t45 109q5 42 5 71q0 42 -5.5 79.5t-17.5 91.5h96q23 -102 23 -172z" />
    <glyph glyph-name="omicrontonos" unicode="&#x3cc;" horiz-adv-x="576" 
d="M321 672h96l-95 -128h-48zM419 459.5q50 -28.5 78.5 -78.5t28.5 -110q0 -11 -2 -31q-8 -67 -48.5 -124t-101.5 -90.5t-128 -33.5q-62 0 -112.5 28.5t-79 78.5t-28.5 110q0 11 2 31q8 67 48.5 124t102 90.5t128.5 33.5q62 0 112 -28.5zM341.5 111.5q39.5 23.5 63.5 63
t24 83.5q0 57 -38.5 95.5t-95.5 38.5q-44 0 -83.5 -23.5t-64 -63t-24.5 -83.5q0 -56 39 -95t96 -39q44 0 83.5 23.5z" />
    <glyph glyph-name="upsilontonos" unicode="&#x3cd;" horiz-adv-x="544" 
d="M273 672h96l-95 -128h-48zM481 308q0 -27 -3 -56q-15 -119 -82 -189.5t-166 -70.5q-94 0 -141.5 50t-47.5 145q0 25 3 53l30 240h96l-33 -266q-1 -7 -1 -21q0 -50 29.5 -77.5t76.5 -27.5q57 0 93 41t45 109q5 42 5 71q0 42 -5.5 79.5t-17.5 91.5h96q23 -102 23 -172z" />
    <glyph glyph-name="omegatonos" unicode="&#x3ce;" horiz-adv-x="720" 
d="M393 672h96l-95 -128h-48zM656 297q0 -26 -3 -53q-16 -125 -74.5 -188.5t-140.5 -63.5q-41 0 -64.5 15t-48.5 46q-33 -31 -59.5 -46t-67.5 -15q-72 0 -114.5 48t-42.5 144q0 31 4 60q7 60 30.5 121.5t55.5 114.5h90q-31 -62 -52 -121t-29 -121q-3 -21 -3 -39
q0 -53 20 -82t53 -29q31 0 54 21.5t29 72.5l29 234h96l-29 -234q-1 -8 -1 -22q0 -39 17.5 -55.5t44.5 -16.5q39 0 68 40t38 110q4 29 4 65q0 81 -25 177h90q31 -89 31 -183z" />
    <glyph glyph-name="uni0401" unicode="&#x401;" horiz-adv-x="512" 
d="M181.5 750q-13.5 14 -13.5 35q0 26 19 44.5t44 18.5q22 0 35.5 -13.5t13.5 -34.5q0 -26 -18.5 -45t-44.5 -19q-22 0 -35.5 14zM357.5 750q-13.5 14 -13.5 35q0 26 19 44.5t44 18.5q22 0 35.5 -13.5t13.5 -34.5q0 -26 -18.5 -45t-44.5 -19q-22 0 -35.5 14zM197 576
l-23 -192h240l-12 -96h-240l-23 -192h288l-12 -96h-384l82 672h384l-12 -96h-288z" />
    <glyph glyph-name="uni0402" unicode="&#x402;" horiz-adv-x="672" 
d="M557 359q43 -41 43 -124q0 -24 -3 -51l-4 -34q-12 -99 -47.5 -152t-74 -70t-84.5 -24l-13 88q50 10 81.5 42t39.5 102l5 40q3 23 3 40q0 51 -25.5 73.5t-80.5 22.5q-68 0 -141 -40l-33 -272h-96l70 576h-128l12 96h416l-12 -96h-192l-26 -216q31 16 75 28t82 12
q90 0 133 -41z" />
    <glyph glyph-name="uni0403" unicode="&#x403;" horiz-adv-x="496" 
d="M313 864h112l-144 -128h-64zM197 576l-70 -576h-96l82 672h384l-12 -96h-288z" />
    <glyph glyph-name="uni0404" unicode="&#x404;" horiz-adv-x="640" 
d="M454 106q44 18 84 55l29 -90q-45 -38 -104 -58.5t-115 -20.5q-88 0 -159 40t-111.5 109t-40.5 154q0 20 3 41q11 93 68 172t143 125.5t181 46.5q57 0 111 -20t90 -58l-52 -90q-32 36 -71.5 54t-95.5 18q-60 0 -116 -27.5t-97 -75t-57 -105.5h301l-10 -80h-301
q2 -58 31.5 -105.5t79 -75t109.5 -27.5q56 0 100 18z" />
    <glyph glyph-name="uni0405" unicode="&#x405;" horiz-adv-x="592" 
d="M484 330.5q53 -38.5 53 -107.5q0 -65 -35.5 -117.5t-99.5 -83t-146 -30.5q-102 0 -161 38t-84 71l59 86q36 -47 88.5 -73t111.5 -26q75 0 119 28t49 77q5 39 -32 64.5t-108 38.5q-119 21 -169 62t-50 103q0 61 32.5 110.5t93 79t142.5 29.5q45 0 102.5 -15.5t104.5 -64.5
l-56 -87q-65 71 -165 71q-73 0 -114.5 -28t-41.5 -77q0 -33 33 -52t108 -35q113 -23 166 -61.5z" />
    <glyph glyph-name="uni0406" unicode="&#x406;" horiz-adv-x="240" 
d="M31 0l82 672h96l-82 -672h-96z" />
    <glyph glyph-name="uni0407" unicode="&#x407;" horiz-adv-x="240" 
d="M45.5 750q-13.5 14 -13.5 35q0 26 19 44.5t44 18.5q22 0 35.5 -13.5t13.5 -34.5q0 -26 -18.5 -45t-44.5 -19q-22 0 -35.5 14zM221.5 750q-13.5 14 -13.5 35q0 26 19 44.5t44 18.5q22 0 35.5 -13.5t13.5 -34.5q0 -26 -18.5 -45t-44.5 -19q-22 0 -35.5 14zM31 0l82 672h96
l-82 -672h-96z" />
    <glyph glyph-name="uni0408" unicode="&#x408;" horiz-adv-x="464" 
d="M449 672l-51 -416q-16 -132 -85 -198t-171 -66q-42 0 -81 19t-56 43l58 82q12 -21 36 -34.5t55 -13.5q65 0 101.5 42.5t45.5 117.5l52 424h96z" />
    <glyph glyph-name="uni0409" unicode="&#x409;" horiz-adv-x="1024" 
d="M913.5 340.5q54.5 -43.5 54.5 -118.5q0 -100 -68.5 -161t-204.5 -61h-200l70 576h-256l-36 -296q-11 -90 -22 -138t-38 -85t-79 -55q-30 -10 -62 -10q-31 0 -57 8l12 96q18 -6 40 -6q34 0 53 12q38 23 47 93l58 477h448l-35 -288h110q111 0 165.5 -43.5zM828 122.5
q43 26.5 43 84.5q0 81 -135 81h-110l-23 -192h113q69 0 112 26.5z" />
    <glyph glyph-name="uni040A" unicode="&#x40a;" horiz-adv-x="976" 
d="M865.5 340.5q54.5 -43.5 54.5 -118.5q0 -100 -68.5 -161t-204.5 -61h-200l35 288h-320l-35 -288h-96l82 672h96l-35 -288h320l35 288h96l-35 -288h110q111 0 165.5 -43.5zM780 122.5q43 26.5 43 84.5q0 81 -135 81h-110l-23 -192h113q69 0 112 26.5z" />
    <glyph glyph-name="uni040B" unicode="&#x40b;" horiz-adv-x="672" 
d="M557 359q43 -41 43 -124q0 -24 -3 -51l-22 -184h-96l21 176q3 23 3 40q0 51 -25.5 73.5t-80.5 22.5q-68 0 -141 -40l-33 -272h-96l70 576h-128l12 96h416l-12 -96h-192l-26 -216q31 16 75 28t82 12q90 0 133 -41z" />
    <glyph glyph-name="uni040C" unicode="&#x40c;" horiz-adv-x="592" 
d="M337 864h112l-144 -128h-64zM527 0h-128l-236 296l-36 -296h-96l82 672h96l-36 -296l292 296h128l-336 -329z" />
    <glyph glyph-name="uni040E" unicode="&#x40e;" 
d="M505 864q-7 -53 -49 -90.5t-95 -37.5q-49 0 -81 32t-32 80q0 10 1 16h56q-4 -30 14.5 -51t48.5 -21t53.5 21t27.5 51h56zM641 672l-462 -672h-108l181 258l-187 414h108l140 -329l220 329h108z" />
    <glyph glyph-name="uni040F" unicode="&#x40f;" horiz-adv-x="656" 
d="M625 672l-82 -672h-208l-16 -128h-96l16 128h-208l82 672h96l-70 -576h320l70 576h96z" />
    <glyph glyph-name="uni0410" unicode="&#x410;" horiz-adv-x="656" 
d="M455 144h-302l-82 -144h-104l404 688l236 -688h-104zM423 240l-78 236l-136 -236h214z" />
    <glyph glyph-name="uni0411" unicode="&#x411;" horiz-adv-x="592" 
d="M482 376.5q57 -47.5 57 -131.5q0 -10 -2 -32q-12 -99 -83.5 -156t-198.5 -57h-224l82 672h416l-12 -96h-320l-18 -152h134q112 0 169 -47.5zM390.5 123.5q42.5 27.5 50.5 89.5q1 7 1 20q0 95 -133 95h-142l-28 -232h145q64 0 106.5 27.5z" />
    <glyph glyph-name="uni0412" unicode="&#x412;" horiz-adv-x="576" 
d="M498 312q23 -37 23 -86q0 -16 -1 -24q-8 -58 -39.5 -104t-83.5 -72t-118 -26h-248l82 672h201q102 0 157 -38.5t55 -111.5q0 -58 -29 -102t-70 -59q48 -12 71 -49zM177 408h120q62 0 96.5 24t34.5 72q0 36 -28.5 54t-82.5 18h-120zM378 123q39 27 46 81q1 6 1 17
q0 45 -32.5 68t-91.5 23h-136l-26 -216h136q64 0 103 27z" />
    <glyph glyph-name="uni0413" unicode="&#x413;" horiz-adv-x="496" 
d="M197 576l-70 -576h-96l82 672h384l-12 -96h-288z" />
    <glyph glyph-name="uni0414" unicode="&#x414;" horiz-adv-x="752" 
d="M667 96l-28 -224h-96l16 128h-464l-16 -128h-96l28 224q79 43 118 106t58 159t46 311h408l-70 -576h96zM475 96l58 480h-216q-22 -185 -55 -298.5t-96 -181.5h309z" />
    <glyph glyph-name="uni0415" unicode="&#x415;" horiz-adv-x="512" 
d="M197 576l-23 -192h240l-12 -96h-240l-23 -192h288l-12 -96h-384l82 672h384l-12 -96h-288z" />
    <glyph glyph-name="uni0416" unicode="&#x416;" horiz-adv-x="944" 
d="M879 0h-128l-212 284l-29 -28l-31 -256h-96l31 256l-21 28l-282 -284h-128l352 353l-254 319h128l221 -288l35 288h96l-35 -288l291 288h128l-332 -319z" />
    <glyph glyph-name="uni0417" unicode="&#x417;" horiz-adv-x="560" 
d="M221 380q86 0 146.5 30t60.5 90q0 41 -35 62.5t-95 21.5q-58 0 -99.5 -19.5t-80.5 -52.5l-33 80q46 40 106 64t123 24q92 0 151.5 -44.5t59.5 -122.5q0 -7 -2 -25q-6 -44 -34.5 -84t-76.5 -58q44 -16 67.5 -50t23.5 -81q0 -15 -1 -23q-7 -62 -45 -107t-97 -69t-129 -24
q-74 0 -129.5 25t-92.5 67l58 82q24 -33 63.5 -55.5t107.5 -22.5q71 0 120 31t49 85q0 51 -53 69.5t-143 18.5z" />
    <glyph glyph-name="uni0418" unicode="&#x418;" horiz-adv-x="704" 
d="M113 672h96l-56 -460l522 476l-84 -688h-96l56 460l-522 -476z" />
    <glyph glyph-name="uni0419" unicode="&#x419;" horiz-adv-x="704" 
d="M545 864q-7 -53 -49 -90.5t-95 -37.5q-49 0 -81 32t-32 80q0 10 1 16h56q-4 -30 14.5 -51t48.5 -21t53.5 21t27.5 51h56zM113 672h96l-56 -460l522 476l-84 -688h-96l56 460l-522 -476z" />
    <glyph glyph-name="uni041A" unicode="&#x41a;" horiz-adv-x="592" 
d="M527 0h-128l-236 296l-36 -296h-96l82 672h96l-36 -296l292 296h128l-336 -329z" />
    <glyph glyph-name="uni041B" unicode="&#x41b;" horiz-adv-x="704" 
d="M591 0h-96l70 576h-256l-36 -296q-11 -90 -22 -138t-38 -85t-79 -55q-30 -10 -62 -10q-31 0 -57 8l12 96q18 -6 40 -6q34 0 53 12q38 23 47 93l58 477h448z" />
    <glyph glyph-name="uni041C" unicode="&#x41c;" horiz-adv-x="832" 
d="M210 398l-113 -398h-98l198 688l200 -508l324 508l30 -688h-98l-15 398l-265 -414z" />
    <glyph glyph-name="uni041D" unicode="&#x41d;" horiz-adv-x="656" 
d="M625 672l-82 -672h-96l35 288h-320l-35 -288h-96l82 672h96l-35 -288h320l35 288h96z" />
    <glyph glyph-name="uni041E" unicode="&#x41e;" horiz-adv-x="768" 
d="M582 640q70 -40 109.5 -109t39.5 -153q0 -21 -3 -42q-11 -93 -67 -172t-141 -125.5t-178 -46.5q-86 0 -156 40t-109.5 109t-39.5 153q0 21 3 42q11 93 67 172t141 125.5t178 46.5q86 0 156 -40zM483 121q61 33 101 90t48 125q2 22 2 31q0 61 -28.5 110.5t-79 78
t-112.5 28.5q-68 0 -129 -33t-101 -90t-48 -125q-2 -22 -2 -31q0 -61 28.5 -110.5t79 -78t112.5 -28.5q68 0 129 33z" />
    <glyph glyph-name="uni041F" unicode="&#x41f;" horiz-adv-x="656" 
d="M543 0h-96l70 576h-320l-70 -576h-96l82 672h512z" />
    <glyph glyph-name="uni0420" unicode="&#x420;" horiz-adv-x="576" 
d="M495 623.5q58 -48.5 58 -134.5q0 -10 -2 -32q-8 -63 -41.5 -114.5t-88.5 -81t-124 -29.5h-142l-28 -232h-96l82 672h208q116 0 174 -48.5zM406.5 358.5q39.5 30.5 47.5 92.5q1 7 1 20q0 52 -34.5 78.5t-86.5 26.5h-137l-30 -248h143q57 0 96.5 30.5z" />
    <glyph glyph-name="uni0421" unicode="&#x421;" horiz-adv-x="640" 
d="M454 106q44 18 84 55l29 -90q-45 -38 -104 -58.5t-115 -20.5q-88 0 -159 40t-111.5 109t-40.5 154q0 20 3 41q11 93 68 172t143 125.5t181 46.5q57 0 111 -20t90 -58l-52 -90q-32 36 -71.5 54t-95.5 18q-67 0 -128 -33.5t-101.5 -90.5t-48.5 -124q-2 -20 -2 -31
q0 -60 28.5 -110t79 -78.5t112.5 -28.5q56 0 100 18z" />
    <glyph glyph-name="uni0422" unicode="&#x422;" horiz-adv-x="528" 
d="M529 672l-12 -96h-176l-70 -576h-96l70 576h-176l12 96h448z" />
    <glyph glyph-name="uni0423" unicode="&#x423;" 
d="M641 672l-462 -672h-108l181 258l-187 414h108l140 -329l220 329h108z" />
    <glyph glyph-name="uni0424" unicode="&#x424;" horiz-adv-x="784" 
d="M688 205q-48 -66 -122.5 -103.5t-158.5 -37.5l-8 -64h-96l8 64q-78 0 -140 32.5t-96.5 89.5t-34.5 130q0 12 2 36q10 83 59 148.5t123 102.5t157 37l8 64h96l-8 -64q76 0 138 -32t97.5 -89t35.5 -130q0 -24 -2 -37q-10 -81 -58 -147zM370 548q-88 0 -154 -48.5
t-78 -147.5q-2 -24 -2 -33q0 -83 53 -123t133 -40zM572.5 204q64.5 48 77.5 148q2 22 2 33q0 83 -52 123t-134 40l-48 -392q90 0 154.5 48z" />
    <glyph glyph-name="uni0425" unicode="&#x425;" horiz-adv-x="656" 
d="M475 0l-155 271l-221 -271h-116l286 347l-188 325h115l143 -250l203 250h115l-268 -325l202 -347h-116z" />
    <glyph glyph-name="uni0426" unicode="&#x426;" horiz-adv-x="736" 
d="M651 96l-28 -224h-96l16 128h-512l82 672h96l-70 -576h320l70 576h96l-70 -576h96z" />
    <glyph glyph-name="uni0427" unicode="&#x427;" 
d="M126 275q-58 43 -58 139q0 20 3 42l26 216h96l-25 -208q-2 -20 -2 -28q0 -58 35 -83t102 -25q35 0 66 7t50 14.5t24 10.5l38 312h96l-82 -672h-96l33 268q-86 -36 -165 -36q-83 0 -141 43z" />
    <glyph glyph-name="uni0428" unicode="&#x428;" horiz-adv-x="896" 
d="M865 672l-82 -672h-752l82 672h96l-70 -576h232l70 576h96l-70 -576h232l70 576h96z" />
    <glyph glyph-name="uni0429" unicode="&#x429;" horiz-adv-x="976" 
d="M891 96l-28 -224h-96l16 128h-752l82 672h96l-70 -576h232l70 576h96l-70 -576h232l70 576h96l-70 -576h96z" />
    <glyph glyph-name="uni042A" unicode="&#x42a;" horiz-adv-x="672" 
d="M562 376.5q57 -47.5 57 -131.5q0 -10 -2 -32q-12 -99 -83.5 -156t-198.5 -57h-208l70 576h-128l12 96h224l-30 -248h118q112 0 169 -47.5zM470.5 123.5q42.5 27.5 50.5 89.5q1 7 1 20q0 95 -133 95h-126l-28 -232h129q64 0 106.5 27.5z" />
    <glyph glyph-name="uni042B" unicode="&#x42b;" horiz-adv-x="800" 
d="M466 376.5q57 -47.5 57 -131.5q0 -10 -2 -32q-12 -99 -83.5 -156t-198.5 -57h-208l82 672h96l-30 -248h118q112 0 169 -47.5zM591 0l82 672h96l-82 -672h-96zM374.5 123.5q42.5 27.5 50.5 89.5q1 7 1 20q0 95 -133 95h-126l-28 -232h129q64 0 106.5 27.5z" />
    <glyph glyph-name="uni042C" unicode="&#x42c;" horiz-adv-x="576" 
d="M466 376.5q57 -47.5 57 -131.5q0 -10 -2 -32q-12 -99 -83.5 -156t-198.5 -57h-208l82 672h96l-30 -248h118q112 0 169 -47.5zM374.5 123.5q42.5 27.5 50.5 89.5q1 7 1 20q0 95 -133 95h-126l-28 -232h129q64 0 106.5 27.5z" />
    <glyph glyph-name="uni042D" unicode="&#x42d;" horiz-adv-x="640" 
d="M342 115.5q56 27.5 97 75t57 105.5h-301l10 80h301q-2 58 -31.5 105.5t-79 75t-109.5 27.5q-56 0 -100 -18t-83 -54l-30 90q45 38 103.5 58t115.5 20q88 0 159 -40t111.5 -109t40.5 -154q0 -20 -3 -41q-11 -93 -68 -172t-143 -125.5t-181 -46.5q-56 0 -110 20.5t-91 58.5
l53 90q31 -37 70.5 -55t95.5 -18q60 0 116 27.5z" />
    <glyph glyph-name="uni042E" unicode="&#x42e;" horiz-adv-x="1008" 
d="M822 640q70 -40 109.5 -109t39.5 -153q0 -21 -3 -42q-11 -93 -67 -172t-141 -125.5t-178 -46.5q-85 0 -154 39t-109 106.5t-42 150.5h-115l-35 -288h-96l82 672h96l-35 -288h115q22 83 78 150.5t135 106.5t164 39q86 0 156 -40zM723 121q61 33 101 90t48 125q2 22 2 31
q0 61 -28.5 110.5t-79 78t-112.5 28.5q-68 0 -129 -33t-101 -90t-48 -125q-2 -22 -2 -31q0 -61 28.5 -110.5t79 -78t112.5 -28.5q68 0 129 33z" />
    <glyph glyph-name="uni042F" unicode="&#x42f;" horiz-adv-x="592" 
d="M201 241q-63 18 -97.5 66.5t-34.5 116.5q0 11 2 33q12 99 83.5 157t198.5 58h208l-82 -672h-96l28 232h-105l-195 -232h-112zM308 576q-56 0 -95 -31t-47 -94q-1 -7 -1 -21q0 -51 32 -76.5t83 -25.5h143l30 248h-145z" />
    <glyph glyph-name="uni0430" unicode="&#x430;" 
d="M415 0q-9 15 -9 46q0 15 1 23q-34 -38 -77 -57.5t-92 -19.5q-63 0 -111 28t-74.5 77t-26.5 109q0 12 2 34q8 68 46 125t97 90t128 33q49 0 87 -20t63 -58l9 70h96l-47 -384q-4 -32 -4 -52q0 -28 8 -44h-96zM342.5 111.5q39.5 23.5 63 63t23.5 85.5q0 56 -38.5 94
t-95.5 38q-44 0 -84 -23.5t-64 -62.5t-24 -84q0 -57 38.5 -95.5t96.5 -38.5q45 0 84.5 23.5z" />
    <glyph glyph-name="uni0431" unicode="&#x431;" horiz-adv-x="576" 
d="M419 459.5q50 -28.5 78.5 -78.5t28.5 -110q0 -11 -2 -31q-8 -67 -48.5 -124t-101.5 -90.5t-128 -33.5q-62 0 -112.5 28.5t-79 78.5t-28.5 111q0 11 2 31q12 97 66 176.5t146 146.5q16 13 38 27q52 38 76 59.5t43 53.5h104q-21 -80 -124 -141l-32 -19q-38 -22 -61.5 -36.5
t-40.5 -31.5q29 12 64 12q62 0 112 -28.5zM341.5 111.5q39.5 23.5 63.5 63t24 83.5q0 57 -38.5 95.5t-95.5 38.5q-44 0 -83.5 -23.5t-64 -63t-24.5 -83.5q0 -56 39 -95t96 -39q44 0 83.5 23.5z" />
    <glyph glyph-name="uni0432" unicode="&#x432;" horiz-adv-x="528" 
d="M431 220q19 -25 19 -59q0 -9 -1 -13q-19 -148 -210 -148h-208l59 480h184q94 0 139 -31t45 -85q0 -39 -20 -68.5t-56 -42.5q30 -8 49 -33zM162 288h115q83 0 83 55q0 25 -19 33t-52 8h-115zM329 110.5q24 14.5 24 44.5q0 24 -20.5 34.5t-52.5 10.5h-129l-12 -104h129
q37 0 61 14.5z" />
    <glyph glyph-name="uni0433" unicode="&#x433;" horiz-adv-x="400" 
d="M127 0h-96l59 480h288l-12 -96h-192z" />
    <glyph glyph-name="uni0434" unicode="&#x434;" horiz-adv-x="656" 
d="M571 96l-28 -224h-96l16 128h-368l-16 -128h-96l28 224q64 18 101 66.5t56 123t34 194.5h336l-47 -384h80zM395 96l35 288h-152q-12 -100 -37 -173.5t-73 -114.5h227z" />
    <glyph glyph-name="uni0435" unicode="&#x435;" horiz-adv-x="544" 
d="M484 196h-363q4 -54 43.5 -81t99.5 -27q78 0 151 48l22 -86q-23 -18 -71.5 -38t-115.5 -20q-109 0 -166.5 59t-57.5 152q0 13 2 37q9 69 45 125.5t94.5 89.5t130.5 33q88 0 142.5 -55.5t54.5 -152.5q0 -19 -3 -42q-1 -13 -8 -42zM400 284q2 26 -9.5 50.5t-38.5 41
t-70 16.5q-42 0 -74.5 -16.5t-52 -41.5t-23.5 -50h268z" />
    <glyph glyph-name="uni0436" unicode="&#x436;" horiz-adv-x="784" 
d="M719 0h-128l-150 198l-20 -18l-22 -180h-96l22 180l-16 18l-198 -198h-128l269 258l-194 222h128l153 -188l23 188h96l-23 -188l199 188h128l-250 -222z" />
    <glyph glyph-name="uni0437" unicode="&#x437;" horiz-adv-x="480" 
d="M270.5 102.5q33.5 14.5 33.5 43.5q0 27 -41.5 40.5t-111.5 13.5l10 80q74 0 115 16.5t45 44.5q3 19 -20.5 35t-68.5 16t-77 -11t-65 -31l-35 76q43 30 93.5 46t98.5 16q78 0 124.5 -29.5t46.5 -89.5q0 -14 -1 -21q-4 -32 -25 -59.5t-56 -40.5q31 -13 48 -37t17 -55
q0 -9 -1 -14q-9 -77 -70.5 -113.5t-152.5 -36.5q-53 0 -98 16t-74 45l50 76q26 -20 57 -30.5t73 -10.5q52 0 85.5 14.5z" />
    <glyph glyph-name="uni0438" unicode="&#x438;" horiz-adv-x="576" 
d="M471 44q0 -28 8 -44h-96q-8 16 -8 44q0 20 4 52l23 194l-373 -306l61 496h96l-36 -290l374 306l-49 -400q-4 -32 -4 -52z" />
    <glyph glyph-name="uni0439" unicode="&#x439;" horiz-adv-x="576" 
d="M457 672q-6 -53 -48 -90.5t-95 -37.5q-49 0 -81.5 32.5t-32.5 80.5q0 10 1 15h56q-4 -30 14.5 -51t48.5 -21t53.5 21t27.5 51h56zM471 44q0 -28 8 -44h-96q-8 16 -8 44q0 20 4 52l23 194l-373 -306l61 496h96l-36 -290l374 306l-49 -400q-4 -32 -4 -52z" />
    <glyph glyph-name="uni043A" unicode="&#x43a;" horiz-adv-x="512" 
d="M463 0h-128l-183 204l-25 -204h-96l59 480h96l-24 -196l216 196h128l-269 -232z" />
    <glyph glyph-name="uni043B" unicode="&#x43b;" horiz-adv-x="592" 
d="M487 44q0 -28 8 -44h-96q-8 16 -8 44q0 20 4 52l35 288h-176l-26 -211q-12 -94 -48.5 -137.5t-98.5 -43.5q-24 0 -38 1.5t-28 6.5l10 80q20 -5 34 -5q61 0 70 77l41 328h368l-47 -384q-4 -32 -4 -52z" />
    <glyph glyph-name="uni043C" unicode="&#x43c;" horiz-adv-x="672" 
d="M491 264l-196 -264l-132 264l-84 -264h-96l168 496l163 -341l247 341l46 -496h-96z" />
    <glyph glyph-name="uni043D" unicode="&#x43d;" horiz-adv-x="576" 
d="M471 44q0 -28 8 -44h-96q-8 16 -8 44q0 20 4 52l11 96h-240l-23 -192h-96l59 480h96l-24 -192h240l24 192h96l-47 -384q-4 -32 -4 -52z" />
    <glyph glyph-name="uni043E" unicode="&#x43e;" horiz-adv-x="576" 
d="M419 459.5q50 -28.5 78.5 -78.5t28.5 -110q0 -11 -2 -31q-8 -67 -48.5 -124t-101.5 -90.5t-128 -33.5q-62 0 -112.5 28.5t-79 78.5t-28.5 110q0 11 2 31q8 67 48.5 124t102 90.5t128.5 33.5q62 0 112 -28.5zM341.5 111.5q39.5 23.5 63.5 63t24 83.5q0 57 -38.5 95.5
t-95.5 38.5q-44 0 -83.5 -23.5t-64 -63t-24.5 -83.5q0 -56 39 -95t96 -39q44 0 83.5 23.5z" />
    <glyph glyph-name="uni043F" unicode="&#x43f;" horiz-adv-x="576" 
d="M471 44q0 -28 8 -44h-96q-8 16 -8 44q0 20 4 52l35 288h-240l-47 -384h-96l59 480h432l-47 -384q-4 -32 -4 -52z" />
    <glyph glyph-name="uni0440" unicode="&#x440;" 
d="M458 460q48 -28 74 -77t26 -109q0 -10 -2 -34q-8 -68 -46 -125t-97 -90t-127 -33q-49 0 -87.5 20t-63.5 58l-40 -326h-96l91 736h96l-9 -70q34 38 77.5 58t92.5 20q63 0 111 -28zM374.5 111.5q39.5 23.5 63 63t23.5 85.5q0 56 -38.5 94t-95.5 38q-44 0 -84 -23.5
t-64 -62.5t-24 -84q0 -57 38.5 -95.5t96.5 -38.5q45 0 84.5 23.5z" />
    <glyph glyph-name="uni0441" unicode="&#x441;" horiz-adv-x="496" 
d="M75 365.5q38 56.5 100.5 89.5t139.5 33q46 0 86 -14t67 -41l-52 -89q-20 22 -49 35t-63 13q-47 0 -88.5 -23.5t-67 -62t-25.5 -82.5q0 -38 18.5 -69t51.5 -49t74 -18q34 0 66 13t58 36l30 -90q-31 -26 -76.5 -40.5t-90.5 -14.5q-72 0 -123.5 28t-78 76t-26.5 109
q0 11 2 35q9 69 47 125.5z" />
    <glyph glyph-name="uni0442" unicode="&#x442;" horiz-adv-x="464" 
d="M442 480l-12 -96h-144l-47 -384h-96l47 384h-144l12 96h384z" />
    <glyph glyph-name="uni0443" unicode="&#x443;" horiz-adv-x="512" 
d="M522 480l-416 -736h-105l164 287l-139 449h107l100 -332l182 332h107z" />
    <glyph glyph-name="uni0444" unicode="&#x444;" horiz-adv-x="816" 
d="M676 462q43 -26 67 -72.5t24 -105.5q0 -24 -2 -36q-9 -72 -44.5 -130.5t-89 -92t-115.5 -33.5q-37 0 -59.5 7t-39.5 17l-30 -240h-96l30 240q-45 -24 -105 -24q-56 0 -99 27.5t-67 77t-24 111.5q0 19 3 40q8 68 43.5 123t89 86t115.5 31q37 0 59.5 -7t39.5 -17l29 240h96
l-29 -240q45 24 105 24q56 0 99 -26zM305 107q29 19 35 66l18 146q4 33 -22.5 53t-61.5 20q-67 0 -109 -48.5t-42 -123.5q0 -59 30.5 -95.5t83.5 -36.5q39 0 68 19zM620 132.5q41 44.5 49 115.5q2 18 2 26q0 54 -30.5 86t-84.5 32q-35 0 -66.5 -20t-35.5 -53l-18 -146
q-1 -6 -1 -16q0 -38 24.5 -53.5t59.5 -15.5q60 0 101 44.5z" />
    <glyph glyph-name="uni0445" unicode="&#x445;" horiz-adv-x="528" 
d="M463 0h-114l-104 181l-148 -181h-114l214 255l-140 225h114l91 -158l131 158h114l-196 -225z" />
    <glyph glyph-name="uni0446" unicode="&#x446;" horiz-adv-x="656" 
d="M571 96l-28 -224h-96l16 128h-432l59 480h96l-47 -384h240l47 384h96l-47 -384h96z" />
    <glyph glyph-name="uni0447" unicode="&#x447;" horiz-adv-x="544" 
d="M439 44q0 -28 8 -44h-96q-8 16 -8 44q0 20 4 52l10 88q-25 -10 -61 -17t-70 -7q-170 0 -170 153q0 25 2 39l16 128h96l-15 -118q-2 -18 -2 -24q0 -44 23.5 -61.5t69.5 -20.5q25 -2 62 3t60 12l26 209h96l-47 -384q-4 -32 -4 -52z" />
    <glyph glyph-name="uni0448" unicode="&#x448;" horiz-adv-x="784" 
d="M730 480l-59 -480h-640l59 480h96l-47 -384h176l47 384h96l-47 -384h176l47 384h96z" />
    <glyph glyph-name="uni0449" unicode="&#x449;" horiz-adv-x="864" 
d="M779 96l-28 -224h-96l16 128h-640l59 480h96l-47 -384h176l47 384h96l-47 -384h176l47 384h96l-47 -384h96z" />
    <glyph glyph-name="uni044A" unicode="&#x44a;" 
d="M499.5 286q48.5 -34 48.5 -99q0 -15 -1 -23q-10 -77 -69 -120.5t-159 -43.5h-192l47 384h-128l12 96h224l-20 -160h96q93 0 141.5 -34zM422 113.5q29 17.5 29 55.5q0 29 -23.5 42t-55.5 13h-122l-15 -128h122q36 0 65 17.5z" />
    <glyph glyph-name="uni044B" unicode="&#x44b;" horiz-adv-x="736" 
d="M90 480h96l-20 -160h96q93 0 141.5 -34t48.5 -99q0 -15 -1 -23q-10 -77 -69 -120.5t-159 -43.5h-192zM635 96q-4 -32 -4 -52q0 -28 8 -44h-96q-8 16 -8 44q0 20 4 52l47 384h96zM326 113.5q29 17.5 29 55.5q0 29 -23.5 42t-55.5 13h-122l-15 -128h122q36 0 65 17.5z" />
    <glyph glyph-name="uni044C" unicode="&#x44c;" horiz-adv-x="512" 
d="M90 480h96l-20 -160h96q93 0 141.5 -34t48.5 -99q0 -15 -1 -23q-10 -77 -69 -120.5t-159 -43.5h-192zM326 113.5q29 17.5 29 55.5q0 29 -23.5 42t-55.5 13h-122l-15 -128h122q36 0 65 17.5z" />
    <glyph glyph-name="uni044D" unicode="&#x44d;" horiz-adv-x="496" 
d="M274 122q48 34 66 86h-204l8 64h205q-6 52 -45.5 86t-97.5 34q-34 0 -66 -13t-58 -35l-30 89q34 27 78 41t89 14q71 0 122 -28t78 -76t27 -109q0 -11 -2 -35q-9 -69 -46.5 -125.5t-99.5 -89.5t-140 -33q-45 0 -87 14.5t-66 40.5l52 90q20 -23 49 -36t63 -13q57 0 105 34z
" />
    <glyph glyph-name="uni044E" unicode="&#x44e;" horiz-adv-x="816" 
d="M659 459.5q50 -28.5 78.5 -78.5t28.5 -110q0 -11 -2 -31q-8 -67 -48.5 -124t-101.5 -90.5t-128 -33.5q-60 0 -109.5 27.5t-79 75t-31.5 105.5h-115l-24 -200h-96l59 480h96l-25 -200h115q17 58 58 105.5t97 75t116 27.5q62 0 112 -28.5zM581.5 111.5q39.5 23.5 63.5 63
t24 83.5q0 57 -38.5 95.5t-95.5 38.5q-44 0 -83.5 -23.5t-64 -63t-24.5 -83.5q0 -56 39 -95t96 -39q44 0 83.5 23.5z" />
    <glyph glyph-name="uni044F" unicode="&#x44f;" horiz-adv-x="528" 
d="M423 44q0 -28 8 -44h-96q-8 16 -8 44q0 20 4 52l7 57h-48l-166 -153h-125l174 153q-27 0 -55.5 17t-47.5 48t-19 69q0 11 1 17q11 87 74.5 131.5t171.5 44.5h176l-47 -384q-4 -32 -4 -52zM349 243l17 141h-109q-47 0 -78 -20.5t-31 -59.5q0 -61 96 -61h105z" />
    <glyph glyph-name="uni0451" unicode="&#x451;" horiz-adv-x="544" 
d="M174 558.5q-14 14.5 -14 35.5q0 26 19 44t44 18q22 0 35.5 -13.5t13.5 -34.5q0 -26 -18 -45t-44 -19q-22 0 -36 14.5zM350 558.5q-14 14.5 -14 35.5q0 26 19 44t44 18q22 0 35.5 -13.5t13.5 -34.5q0 -26 -18 -45t-44 -19q-22 0 -36 14.5zM484 196h-363q4 -54 43.5 -81
t99.5 -27q78 0 151 48l22 -86q-23 -18 -71.5 -38t-115.5 -20q-109 0 -166.5 59t-57.5 152q0 13 2 37q9 69 45 125.5t94.5 89.5t130.5 33q88 0 142.5 -55.5t54.5 -152.5q0 -19 -3 -42q-1 -13 -8 -42zM400 284q2 26 -9.5 50.5t-38.5 41t-70 16.5q-42 0 -74.5 -16.5t-52 -41.5
t-23.5 -50h268z" />
    <glyph glyph-name="uni0452" unicode="&#x452;" horiz-adv-x="576" 
d="M474 444q41 -44 41 -128q0 -22 -3 -48l-35 -286q-12 -99 -48 -152t-74.5 -70t-84.5 -24l-13 88q51 10 82 41.5t40 102.5l37 300q2 22 2 31q0 46 -22 69.5t-73 23.5q-30 0 -63 -15.5t-56.5 -44.5t-28.5 -68l-32 -264h-96l69 560h-64l5 48h64l12 96h96l-12 -96h64l-5 -48
h-64l-17 -136q64 64 158 64q80 0 121 -44z" />
    <glyph glyph-name="uni0453" unicode="&#x453;" horiz-adv-x="400" 
d="M249 672h112l-143 -128h-64zM127 0h-96l59 480h288l-12 -96h-192z" />
    <glyph glyph-name="uni0454" unicode="&#x454;" horiz-adv-x="496" 
d="M333 101q32 13 58 36l30 -90q-31 -26 -76.5 -40.5t-90.5 -14.5q-72 0 -123.5 28t-78 76t-26.5 109q0 11 2 35q9 69 47 125.5t100.5 89.5t139.5 33q46 0 86 -14t67 -41l-52 -89q-20 22 -49 35t-63 13q-58 0 -106.5 -34t-66.5 -86h205l-8 -64h-204q6 -52 46 -86t97 -34
q34 0 66 13z" />
    <glyph glyph-name="uni0455" unicode="&#x455;" horiz-adv-x="480" 
d="M418 167q0 -11 -1 -17q-9 -73 -64 -115.5t-147 -42.5q-70 0 -124.5 23t-75.5 45l50 94q25 -28 72.5 -47t90.5 -19q46 0 73.5 16.5t27.5 40.5q0 23 -21 35t-66 20q-99 18 -138 48t-39 79q0 8 2 24q8 61 66 99t146 38q37 0 81.5 -11t86.5 -35l-44 -90q-18 14 -59 27t-83 13
q-41 0 -69.5 -11t-28.5 -35q0 -19 21 -28t48.5 -14.5t36.5 -7.5q158 -30 158 -129z" />
    <glyph glyph-name="uni0456" unicode="&#x456;" horiz-adv-x="240" 
d="M101.5 578q-18.5 18 -18.5 45q0 33 24.5 57t57.5 24q28 0 46 -18t18 -45q0 -33 -24.5 -57t-56.5 -24q-28 0 -46.5 18zM139 96q-4 -32 -4 -52q0 -28 8 -44h-96q-8 16 -8 44q0 20 4 52l47 384h96z" />
    <glyph glyph-name="uni0457" unicode="&#x457;" horiz-adv-x="240" 
d="M22 558.5q-14 14.5 -14 35.5q0 26 19 44t44 18q22 0 35.5 -13.5t13.5 -34.5q0 -26 -18 -45t-44 -19q-22 0 -36 14.5zM198 558.5q-14 14.5 -14 35.5q0 26 19 44t44 18q22 0 35.5 -13.5t13.5 -34.5q0 -26 -18 -45t-44 -19q-22 0 -36 14.5zM139 96q-4 -32 -4 -52
q0 -28 8 -44h-96q-8 16 -8 44q0 20 4 52l47 384h96z" />
    <glyph glyph-name="uni0458" unicode="&#x458;" horiz-adv-x="240" 
d="M101.5 578q-18.5 18 -18.5 45q0 33 24.5 57t57.5 24q28 0 46 -18t18 -45q0 -33 -24.5 -57t-56.5 -24q-28 0 -46.5 18zM90 480h96l-61 -498q-12 -99 -48 -152t-74.5 -70t-84.5 -24l-13 88q51 10 82 41.5t40 102.5z" />
    <glyph glyph-name="uni0459" unicode="&#x459;" horiz-adv-x="848" 
d="M787 178q0 -14 -1 -22q-10 -76 -68 -116t-159 -40h-176l47 384h-176l-26 -211q-12 -94 -48.5 -137.5t-98.5 -43.5q-24 0 -38 1.5t-28 6.5l10 80q20 -5 34 -5q61 0 70 77l41 328h368l-22 -176h80q191 0 191 -126zM690 161q0 47 -84 47h-102l-13 -112h102q97 0 97 65z" />
    <glyph glyph-name="uni045A" unicode="&#x45a;" horiz-adv-x="832" 
d="M771 178q0 -14 -1 -22q-10 -76 -68 -116t-159 -40h-176l25 208h-240l-25 -208h-96l59 480h96l-22 -176h240l22 176h96l-22 -176h80q191 0 191 -126zM674 161q0 47 -84 47h-102l-13 -112h102q97 0 97 65z" />
    <glyph glyph-name="uni045B" unicode="&#x45b;" horiz-adv-x="576" 
d="M487 44q0 -28 8 -44h-96q-8 16 -8 44q0 20 4 52l21 172q2 22 2 31q0 46 -22 69.5t-73 23.5q-30 0 -63 -15.5t-56.5 -44.5t-28.5 -68l-32 -264h-96l69 560h-64l5 48h64l12 96h96l-12 -96h64l-5 -48h-64l-17 -136q64 64 158 64q80 0 121 -44t41 -128q0 -22 -3 -48l-21 -172
q-4 -32 -4 -52z" />
    <glyph glyph-name="uni045C" unicode="&#x45c;" horiz-adv-x="512" 
d="M297 672h112l-143 -128h-64zM463 0h-128l-183 204l-25 -204h-96l59 480h96l-24 -196l216 196h128l-269 -232z" />
    <glyph glyph-name="uni045E" unicode="&#x45e;" horiz-adv-x="512" 
d="M425 672q-6 -53 -48 -90.5t-95 -37.5q-49 0 -81.5 32.5t-32.5 80.5q0 10 1 15h56q-4 -30 14.5 -51t48.5 -21t53.5 21t27.5 51h56zM522 480l-416 -736h-105l164 287l-139 449h107l100 -332l182 332h107z" />
    <glyph glyph-name="uni045F" unicode="&#x45f;" horiz-adv-x="576" 
d="M522 480l-59 -480h-168l-16 -128h-96l16 128h-168l59 480h96l-47 -384h240l47 384h96z" />
    <glyph glyph-name="uni0462" unicode="&#x462;" 
d="M498 376.5q57 -47.5 57 -131.5q0 -10 -2 -32q-12 -99 -83.5 -156t-198.5 -57h-208l64 520h-80l9 80h80l13 104h96l-13 -104h160l-9 -80h-160l-12 -96h118q112 0 169 -47.5zM406.5 123.5q42.5 27.5 50.5 89.5q1 7 1 20q0 95 -133 95h-126l-28 -232h129q64 0 106.5 27.5z
" />
    <glyph glyph-name="uni0463" unicode="&#x463;" horiz-adv-x="528" 
d="M419.5 286q48.5 -34 48.5 -99q0 -15 -1 -23q-10 -77 -69 -120.5t-159 -43.5h-192l49 400h-64l6 48h64l8 64h96l-8 -64h64l-6 -48h-64l-10 -80h96q93 0 141.5 -34zM342 113.5q29 17.5 29 55.5q0 29 -23.5 42t-55.5 13h-122l-15 -128h122q36 0 65 17.5z" />
    <glyph glyph-name="uni0472" unicode="&#x472;" horiz-adv-x="768" 
d="M582 640q70 -40 109.5 -109t39.5 -153q0 -21 -3 -42q-11 -93 -67 -172t-141 -125.5t-178 -46.5q-86 0 -156 40t-109.5 109t-39.5 153q0 21 3 42q11 93 67 172t141 125.5t178 46.5q86 0 156 -40zM292.5 554.5q-57.5 -29.5 -98 -80.5t-54.5 -113q52 23 134 23q58 0 117 -18
q65 -19 124 -19q79 0 118 33q-2 58 -31 104.5t-78 73t-110 26.5q-64 0 -121.5 -29.5zM475 117q58 29 98.5 80t54.5 113q-52 -22 -131 -22q-29 0 -63.5 5.5t-60.5 13.5q-63 19 -120 19q-78 0 -118 -33q2 -58 31 -105t78.5 -73.5t109.5 -26.5q63 0 121 29z" />
    <glyph glyph-name="uni0473" unicode="&#x473;" horiz-adv-x="576" 
d="M419 459.5q50 -28.5 78.5 -78.5t28.5 -110q0 -11 -2 -31q-8 -67 -48.5 -124t-101.5 -90.5t-128 -33.5q-62 0 -112.5 28.5t-79 78.5t-28.5 110q0 11 2 31q8 67 48.5 124t102 90.5t128.5 33.5q62 0 112 -28.5zM198.5 360q-44.5 -32 -64.5 -81q28 9 63 9q23 0 41 -4.5
t44 -13.5q49 -18 79 -18q40 0 66 30q-8 48 -45 79t-87 31q-52 0 -96.5 -32zM354 120q44 32 64 81q-26 -9 -60 -9q-24 0 -44 5t-46 14q-49 17 -78 17q-39 0 -65 -30q8 -48 45 -79t88 -31q52 0 96 32z" />
    <glyph glyph-name="uni0474" unicode="&#x474;" horiz-adv-x="672" 
d="M644 680q19 0 45 -8l-12 -96q-16 3 -29 3q-23 0 -40.5 -13.5t-37.5 -46.5l-301 -535l-220 688h104l144 -462l168 303q40 72 69 108t61 49q24 10 49 10z" />
    <glyph glyph-name="uni0475" unicode="&#x475;" horiz-adv-x="528" 
d="M505.5 484.5q12.5 -3.5 16.5 -4.5l-10 -80q-11 3 -20 3q-28 0 -50.5 -21t-47.5 -64l-197 -334l-171 496h104l93 -280l42 70q18 30 26 45q33 58 57 92.5t54.5 57.5t67.5 23q23 0 35.5 -3.5z" />
    <glyph glyph-name="uni0490" unicode="&#x490;" horiz-adv-x="496" 
d="M509 768l-24 -192h-288l-70 -576h-96l82 672h304l12 96h80z" />
    <glyph glyph-name="uni0491" unicode="&#x491;" horiz-adv-x="400" 
d="M389 576l-23 -192h-192l-47 -384h-96l59 480h208l11 96h80z" />
    <glyph glyph-name="uni0492" unicode="&#x492;" horiz-adv-x="512" 
d="M213 576l-29 -240h96l-6 -48h-96l-35 -288h-96l35 288h-64l6 48h64l41 336h384l-12 -96h-288z" />
    <glyph glyph-name="uni0493" unicode="&#x493;" horiz-adv-x="416" 
d="M190 384l-18 -144h96l-6 -48h-96l-23 -192h-96l23 192h-64l6 48h64l30 240h288l-12 -96h-192z" />
    <glyph glyph-name="uni0496" unicode="&#x496;" horiz-adv-x="944" 
d="M891 96l-24 -192h-80l12 96h-48l-212 284l-29 -28l-31 -256h-96l31 256l-21 28l-282 -284h-128l352 353l-254 319h128l221 -288l35 288h96l-35 -288l291 288h128l-332 -319l194 -257h84z" />
    <glyph glyph-name="uni0497" unicode="&#x497;" horiz-adv-x="784" 
d="M731 96l-24 -192h-80l12 96h-48l-150 198l-20 -18l-22 -180h-96l22 180l-16 18l-198 -198h-128l269 258l-194 222h128l153 -188l23 188h96l-23 -188l199 188h128l-250 -222l130 -162h89z" />
    <glyph glyph-name="uni049A" unicode="&#x49a;" horiz-adv-x="592" 
d="M539 96l-24 -192h-80l12 96h-48l-236 296l-36 -296h-96l82 672h96l-36 -296l292 296h128l-336 -329l195 -247h87z" />
    <glyph glyph-name="uni049B" unicode="&#x49b;" horiz-adv-x="528" 
d="M475 96l-24 -192h-80l12 96h-48l-183 204l-25 -204h-96l59 480h96l-24 -196l216 196h128l-269 -232l139 -152h99z" />
    <glyph glyph-name="uni04A2" unicode="&#x4a2;" horiz-adv-x="688" 
d="M635 96l-24 -192h-80l12 96h-96l35 288h-320l-35 -288h-96l82 672h96l-35 -288h320l35 288h96l-70 -576h80z" />
    <glyph glyph-name="uni04A3" unicode="&#x4a3;" 
d="M555 96l-24 -192h-80l12 96h-96l23 192h-240l-23 -192h-96l59 480h96l-24 -192h240l24 192h96l-47 -384h80z" />
    <glyph glyph-name="uni04AE" unicode="&#x4ae;" horiz-adv-x="592" 
d="M625 672l-289 -400l-33 -272h-96l33 272l-191 400h108l142 -308l218 308h108z" />
    <glyph glyph-name="uni04AF" unicode="&#x4af;" horiz-adv-x="496" 
d="M265 87l-42 -343h-96l42 343l-143 393h104l101 -280l171 280h104z" />
    <glyph glyph-name="uni04B0" unicode="&#x4b0;" horiz-adv-x="592" 
d="M332 240h64l-6 -48h-64l-23 -192h-96l23 192h-64l6 48h64l4 32l-191 400h108l142 -308l218 308h108l-289 -400z" />
    <glyph glyph-name="uni04B1" unicode="&#x4b1;" horiz-adv-x="496" 
d="M251 -32h80l-6 -48h-80l-22 -176h-96l22 176h-80l6 48h80l14 119l-143 393h104l101 -280l171 280h104l-241 -393z" />
    <glyph glyph-name="uni04B2" unicode="&#x4b2;" horiz-adv-x="672" 
d="M619 96l-24 -192h-80l12 96h-52l-155 271l-221 -271h-116l286 347l-188 325h115l143 -250l203 250h115l-268 -325l146 -251h84z" />
    <glyph glyph-name="uni04B3" unicode="&#x4b3;" horiz-adv-x="544" 
d="M491 96l-24 -192h-80l12 96h-50l-104 181l-148 -181h-114l214 255l-140 225h114l91 -158l131 158h114l-196 -225l95 -159h85z" />
    <glyph glyph-name="uni04B6" unicode="&#x4b6;" horiz-adv-x="640" 
d="M587 96l-24 -192h-80l12 96h-96l33 268q-86 -36 -165 -36q-83 0 -141 43t-58 139q0 20 3 42l26 216h96l-25 -208q-2 -20 -2 -28q0 -58 35 -83t102 -25q35 0 66 7t50 14.5t24 10.5l38 312h96l-70 -576h80z" />
    <glyph glyph-name="uni04B7" unicode="&#x4b7;" horiz-adv-x="576" 
d="M523 96l-24 -192h-80l12 96h-96l23 192q-25 -10 -60.5 -17t-70.5 -7q-170 0 -170 153q0 25 2 39l15 120h96l-14 -110q-2 -18 -2 -24q0 -44 23.5 -61.5t69.5 -20.5q25 -2 62 3t60 12l25 201h96l-47 -384h80z" />
    <glyph glyph-name="uni04BA" unicode="&#x4ba;" 
d="M482 397q58 -43 58 -139q0 -19 -3 -42l-26 -216h-96l25 208q2 20 2 28q0 58 -35 83t-102 25q-35 0 -66 -7t-50 -14.5t-24 -10.5l-38 -312h-96l82 672h96l-33 -268q86 36 165 36q83 0 141 -43z" />
    <glyph glyph-name="uni04BB" unicode="&#x4bb;" horiz-adv-x="560" 
d="M471 44q0 -28 8 -44h-96q-8 16 -8 44q0 20 4 52l21 172q2 22 2 31q0 46 -22 69.5t-73 23.5q-30 0 -63 -15.5t-56.5 -44.5t-28.5 -68l-32 -264h-96l86 704h96l-34 -280q64 64 158 64q80 0 121 -44t41 -128q0 -22 -3 -48l-21 -172q-4 -32 -4 -52z" />
    <glyph glyph-name="uni04C0" unicode="&#x4c0;" horiz-adv-x="240" 
d="M31 0l82 672h96l-82 -672h-96z" />
    <glyph glyph-name="uni04CF" unicode="&#x4cf;" horiz-adv-x="240" 
d="M139 96q-4 -32 -4 -52q0 -28 8 -44h-96q-8 16 -8 44q0 20 4 52l47 384h96z" />
    <glyph glyph-name="uni04D8" unicode="&#x4d8;" horiz-adv-x="768" 
d="M47 376h587q-2 59 -31 106.5t-78.5 74.5t-110.5 27q-73 0 -136.5 -37.5t-101.5 -99.5l-91 26q52 93 144.5 150t196.5 57q86 0 156 -40t109.5 -109t39.5 -153q0 -21 -3 -42q-11 -93 -67 -172t-141 -125.5t-178 -46.5q-86 0 -156 40t-109.5 109t-39.5 153q0 21 3 42
q4 25 7 40zM165 189.5q29 -47.5 78.5 -74.5t110.5 -27t116.5 27t96 74.5t57.5 106.5h-490q2 -59 31 -106.5z" />
    <glyph glyph-name="uni04D9" unicode="&#x4d9;" horiz-adv-x="544" 
d="M37 284h363q-8 52 -41 80t-83 28q-76 0 -119 -48l-85 28q11 19 38 46t73 48.5t105 21.5q64 0 110.5 -28t71 -76t24.5 -108q0 -24 -2 -36q-9 -69 -45 -125.5t-94 -89.5t-130 -33q-58 0 -102.5 25t-70 72t-25.5 111q0 21 3 42q7 36 9 42zM121 196q-2 -26 9.5 -50.5
t38.5 -41t70 -16.5q41 0 74 16.5t52.5 41.5t23.5 50h-268z" />
    <glyph glyph-name="uni04E2" unicode="&#x4e2;" horiz-adv-x="704" 
d="M267 752l7 56h272l-7 -56h-272zM113 672h96l-56 -460l522 476l-84 -688h-96l56 460l-522 -476z" />
    <glyph glyph-name="uni04E3" unicode="&#x4e3;" horiz-adv-x="576" 
d="M180 560l6 56h272l-6 -56h-272zM471 44q0 -28 8 -44h-96q-8 16 -8 44q0 20 4 52l23 194l-373 -306l61 496h96l-36 -290l374 306l-49 -400q-4 -32 -4 -52z" />
    <glyph glyph-name="uni04E8" unicode="&#x4e8;" horiz-adv-x="768" 
d="M582 640q70 -40 109.5 -109t39.5 -153q0 -21 -3 -42q-11 -93 -67 -172t-141 -125.5t-178 -46.5q-86 0 -156 40t-109.5 109t-39.5 153q0 21 3 42q11 93 67 172t141 125.5t178 46.5q86 0 156 -40zM292.5 554.5q-57.5 -29.5 -98 -80.5t-54.5 -114h494q2 63 -26 114t-79 80.5
t-115 29.5t-121.5 -29.5zM475.5 117.5q57.5 29.5 98 80.5t54.5 114h-494q-2 -63 26 -114t79 -80.5t115 -29.5t121.5 29.5z" />
    <glyph glyph-name="uni04E9" unicode="&#x4e9;" horiz-adv-x="576" 
d="M419 459.5q50 -28.5 78.5 -78.5t28.5 -110q0 -11 -2 -31q-8 -67 -48.5 -124t-101.5 -90.5t-128 -33.5q-62 0 -112.5 28.5t-79 78.5t-28.5 110q0 11 2 31q8 67 48.5 124t102 90.5t128.5 33.5q62 0 112 -28.5zM194.5 357.5q-46.5 -34.5 -63.5 -85.5h298q-5 52 -43 86
t-91 34q-54 0 -100.5 -34.5zM358 122.5q46 34.5 63 85.5h-298q5 -51 43 -85.5t92 -34.5t100 34.5z" />
    <glyph glyph-name="uni04EE" unicode="&#x4ee;" 
d="M227 752l7 56h272l-7 -56h-272zM641 672l-462 -672h-108l181 258l-187 414h108l140 -329l220 329h108z" />
    <glyph glyph-name="uni04EF" unicode="&#x4ef;" horiz-adv-x="512" 
d="M148 560l6 56h272l-6 -56h-272zM522 480l-416 -736h-105l164 287l-139 449h107l100 -332l182 332h107z" />
    <glyph glyph-name="Wgrave" unicode="&#x1e80;" horiz-adv-x="960" 
d="M529 736l-112 128h112l64 -128h-64zM985 672l-364 -688l-127 464l-241 -464l-196 688h104l122 -442l240 458l128 -458l230 442h104z" />
    <glyph glyph-name="wgrave" unicode="&#x1e81;" horiz-adv-x="752" 
d="M394 544l-113 128h112l65 -128h-64zM754 480l-269 -496l-114 308l-190 -308l-147 496h104l77 -286l181 302l107 -302l147 286h104z" />
    <glyph glyph-name="Wacute" unicode="&#x1e82;" horiz-adv-x="960" 
d="M561 864h112l-144 -128h-64zM985 672l-364 -688l-127 464l-241 -464l-196 688h104l122 -442l240 458l128 -458l230 442h104z" />
    <glyph glyph-name="wacute" unicode="&#x1e83;" horiz-adv-x="752" 
d="M441 672h112l-143 -128h-64zM754 480l-269 -496l-114 308l-190 -308l-147 496h104l77 -286l181 302l107 -302l147 286h104z" />
    <glyph glyph-name="Wdieresis" unicode="&#x1e84;" horiz-adv-x="960" 
d="M405.5 750q-13.5 14 -13.5 35q0 26 19 44.5t44 18.5q22 0 35.5 -13.5t13.5 -34.5q0 -26 -18.5 -45t-44.5 -19q-22 0 -35.5 14zM581.5 750q-13.5 14 -13.5 35q0 26 19 44.5t44 18.5q22 0 35.5 -13.5t13.5 -34.5q0 -26 -18.5 -45t-44.5 -19q-22 0 -35.5 14zM985 672
l-364 -688l-127 464l-241 -464l-196 688h104l122 -442l240 458l128 -458l230 442h104z" />
    <glyph glyph-name="wdieresis" unicode="&#x1e85;" horiz-adv-x="752" 
d="M278 558.5q-14 14.5 -14 35.5q0 26 19 44t44 18q22 0 35.5 -13.5t13.5 -34.5q0 -26 -18 -45t-44 -19q-22 0 -36 14.5zM454 558.5q-14 14.5 -14 35.5q0 26 19 44t44 18q22 0 35.5 -13.5t13.5 -34.5q0 -26 -18 -45t-44 -19q-22 0 -36 14.5zM754 480l-269 -496l-114 308
l-190 -308l-147 496h104l77 -286l181 302l107 -302l147 286h104z" />
    <glyph glyph-name="Ygrave" unicode="&#x1ef2;" horiz-adv-x="592" 
d="M329 736l-112 128h112l64 -128h-64zM625 672l-289 -400l-33 -272h-96l33 272l-191 400h108l142 -308l218 308h108z" />
    <glyph glyph-name="ygrave" unicode="&#x1ef3;" horiz-adv-x="512" 
d="M278 544l-113 128h112l65 -128h-64zM522 480l-416 -736h-105l164 287l-139 449h107l100 -332l182 332h107z" />
    <glyph glyph-name="endash" unicode="&#x2013;" horiz-adv-x="512" 
d="M42 224l10 80h400l-10 -80h-400z" />
    <glyph glyph-name="emdash" unicode="&#x2014;" 
d="M42 224l10 80h496l-10 -80h-496z" />
    <glyph glyph-name="quoteleft" unicode="&#x2018;" horiz-adv-x="256" 
d="M186 480h-128l135 192h64z" />
    <glyph glyph-name="quoteright" unicode="&#x2019;" horiz-adv-x="256" 
d="M129 672h128l-135 -192h-64z" />
    <glyph glyph-name="quotesinglbase" unicode="&#x201a;" horiz-adv-x="256" 
d="M62 128h128l-135 -192h-64z" />
    <glyph glyph-name="quotedblleft" unicode="&#x201c;" horiz-adv-x="496" 
d="M186 480h-128l135 192h64zM426 480h-128l135 192h64z" />
    <glyph glyph-name="quotedblright" unicode="&#x201d;" horiz-adv-x="496" 
d="M129 672h128l-135 -192h-64zM369 672h128l-135 -192h-64z" />
    <glyph glyph-name="quotedblbase" unicode="&#x201e;" horiz-adv-x="496" 
d="M62 128h128l-135 -192h-64zM302 128h128l-135 -192h-64z" />
    <glyph glyph-name="dagger" unicode="&#x2020;" horiz-adv-x="656" 
d="M384 400l-131 -672l35 672h-224l10 80h224l35 288h96l-35 -288h224l-10 -80h-224z" />
    <glyph glyph-name="daggerdbl" unicode="&#x2021;" horiz-adv-x="656" 
d="M384 400l-18 -144h224l-10 -80h-232l-95 -448l15 448h-232l10 80h224l18 144h-224l10 80h224l35 288h96l-35 -288h224l-10 -80h-224z" />
    <glyph glyph-name="bullet" unicode="&#x2022;" horiz-adv-x="784" 
d="M477 420.5q28 -27.5 28 -69.5q0 -34 -17.5 -63.5t-46.5 -46.5t-63 -17q-43 0 -71 27.5t-28 69.5q0 34 17.5 63.5t46.5 46.5t63 17q43 0 71 -27.5z" />
    <glyph glyph-name="ellipsis" unicode="&#x2026;" horiz-adv-x="800" 
d="M40 10q-18 18 -18 45q0 33 24 57t57 24q29 0 47 -17.5t18 -45.5q0 -33 -24.5 -57t-57.5 -24q-28 0 -46 18zM312 10q-18 18 -18 45q0 33 24 57t57 24q29 0 47 -17.5t18 -45.5q0 -33 -24.5 -57t-57.5 -24q-28 0 -46 18zM584 10q-18 18 -18 45q0 33 24 57t57 24
q29 0 47 -17.5t18 -45.5q0 -33 -24.5 -57t-57.5 -24q-28 0 -46 18z" />
    <glyph glyph-name="perthousand" unicode="&#x2030;" horiz-adv-x="1152" 
d="M116 427.5q-36 35.5 -36 89.5q0 44 22.5 81.5t60 59.5t80.5 22q55 0 91 -36.5t36 -90.5q0 -43 -22.5 -80.5t-60 -59t-79.5 -21.5q-56 0 -92 35.5zM85 0l550 672h64l-550 -672h-64zM278 483q28 27 28 62q0 29 -21 50t-51 21q-35 0 -62.5 -27.5t-27.5 -62.5
q0 -29 20.5 -49.5t50.5 -20.5q35 0 63 27zM450.5 28q-36.5 36 -36.5 90q0 43 22.5 80.5t60.5 59.5t81 22q55 0 90.5 -35.5t35.5 -89.5q0 -44 -22 -81.5t-59.5 -59.5t-79.5 -22q-56 0 -92.5 36zM818.5 28q-36.5 36 -36.5 90q0 43 22.5 80.5t60.5 59.5t81 22q55 0 90.5 -35.5
t35.5 -89.5q0 -44 -22 -81.5t-59.5 -59.5t-79.5 -22q-56 0 -92.5 36zM612.5 83.5q27.5 27.5 27.5 62.5q0 29 -20.5 49.5t-50.5 20.5q-35 0 -63 -27t-28 -62q0 -29 21 -50t51 -21q35 0 62.5 27.5zM980.5 83.5q27.5 27.5 27.5 62.5q0 29 -20.5 49.5t-50.5 20.5q-35 0 -63 -27
t-28 -62q0 -29 21 -50t51 -21q35 0 62.5 27.5z" />
    <glyph glyph-name="guilsinglleft" unicode="&#x2039;" horiz-adv-x="392" 
d="M135 264l134 -216h-88l-134 216l187 216h88z" />
    <glyph glyph-name="guilsinglright" unicode="&#x203a;" horiz-adv-x="392" 
d="M194 480l133 -216l-186 -216h-88l186 216l-133 216h88z" />
    <glyph glyph-name="fraction" unicode="&#x2044;" horiz-adv-x="228" 
d="M-193 0l550 672h64l-550 -672h-64z" />
    <glyph glyph-name="uni2070" unicode="&#x2070;" horiz-adv-x="360" 
d="M308 717q28 -39 28 -100q0 -11 -2 -33q-8 -72 -49 -122t-96 -50q-48 0 -76.5 39.5t-28.5 101.5q0 11 2 31q9 73 50 122.5t96 49.5q48 0 76 -39zM239.5 481q21.5 21 35 55.5t13.5 73.5q0 42 -17.5 70t-44.5 28q-23 0 -44.5 -20.5t-35 -54.5t-13.5 -73q0 -43 17.5 -71.5
t44.5 -28.5q23 0 44.5 21z" />
    <glyph glyph-name="uni2074" unicode="&#x2074;" horiz-adv-x="344" 
d="M311 520l-6 -48h-40l-7 -56h-48l7 56h-176l259 288l-29 -240h40zM236 631l-94 -111h81z" />
    <glyph glyph-name="uni2075" unicode="&#x2075;" horiz-adv-x="352" 
d="M292.5 615q28.5 -25 28.5 -69q0 -38 -19.5 -68.5t-50.5 -48t-66 -17.5q-49 0 -79 30.5t-28 73.5l51 5q-1 -24 16.5 -42.5t45.5 -18.5q32 0 56.5 23t24.5 53q0 26 -15.5 41t-41.5 15q-21 0 -41.5 -10.5t-33.5 -29.5h-49l54 200h170l-6 -48h-129l-23 -86q13 10 31.5 16
t35.5 6q40 0 68.5 -25z" />
    <glyph glyph-name="uni2076" unicode="&#x2076;" horiz-adv-x="360" 
d="M302.5 622.5q27.5 -28.5 27.5 -69.5q0 -9 -1 -14q-7 -56 -46.5 -91.5t-93.5 -35.5q-50 0 -79.5 30t-29.5 80q0 36 16.5 79t49 83.5t79.5 67.5h85q0 2 -29 -12t-61.5 -39.5t-55.5 -63.5q26 14 65 14q46 0 73.5 -28.5zM256 484.5q25 24.5 25 58.5q0 27 -18 43.5t-50 16.5
q-35 0 -60.5 -23t-25.5 -56q0 -27 19 -45.5t49 -18.5q36 0 61 24.5z" />
    <glyph glyph-name="uni2077" unicode="&#x2077;" horiz-adv-x="336" 
d="M363 752l-185 -336h-56l159 288h-164l6 48h240z" />
    <glyph glyph-name="uni2078" unicode="&#x2078;" horiz-adv-x="360" 
d="M318.5 572q9.5 -18 9.5 -40q0 -34 -19.5 -61.5t-51.5 -43t-68 -15.5q-48 0 -79.5 26t-31.5 69q0 30 14.5 54.5t41.5 39.5q-23 17 -23 50q0 44 36 74.5t85 30.5q42 0 69.5 -23t27.5 -60q0 -21 -9.5 -40.5t-27.5 -31.5q17 -11 26.5 -29zM180 693.5q-20 -14.5 -20 -33.5
q0 -16 16 -28t39 -12q26 0 45.5 15t19.5 33q0 17 -15 28.5t-39 11.5q-26 0 -46 -14.5zM253 478.5q25 18.5 25 45.5q0 23 -19.5 37.5t-49.5 14.5q-33 0 -58 -18.5t-25 -45.5q0 -23 19.5 -37.5t49.5 -14.5q33 0 58 18.5z" />
    <glyph glyph-name="uni2079" unicode="&#x2079;" horiz-adv-x="360" 
d="M118.5 545.5q-27.5 28.5 -27.5 70.5q0 9 1 14q7 56 46.5 91t93.5 35q50 0 79.5 -29.5t29.5 -80.5q0 -56 -37.5 -122t-106.5 -108h-85q0 -2 29 12t61.5 40t55.5 64q-28 -15 -65 -15q-47 0 -74.5 28.5zM165 684q-25 -24 -25 -58q0 -27 18 -44t50 -17q36 0 61 23.5t25 56.5
q0 27 -19 45t-49 18q-36 0 -61 -24z" />
    <glyph glyph-name="Euro" unicode="&#x20ac;" horiz-adv-x="704" 
d="M518 106q44 18 84 55l29 -90q-45 -38 -104 -58.5t-115 -20.5q-81 0 -148 34.5t-109 94.5t-51 135h-74l6 48h65l3 32q1 8 2.5 16t2.5 16h-65l6 48h74q27 75 83.5 135t132 94.5t156.5 34.5q57 0 111 -20t90 -58l-52 -90q-32 36 -71.5 54t-95.5 18q-81 0 -151 -47t-104 -121
h227l-21 -48h-223q-6 -28 -6 -32q-2 -22 -2 -32h207l-20 -48h-182q16 -74 75 -121t140 -47q56 0 100 18z" />
    <glyph glyph-name="trademark" unicode="&#x2122;" horiz-adv-x="656" 
d="M364 549l-51 -177h-43l89 305l88 -225l144 225l13 -305h-43l-7 177l-119 -184zM297 672l-5 -43h-79l-32 -257h-42l32 257h-79l5 43h200z" />
    <glyph glyph-name="oneeighth" unicode="&#x215b;" horiz-adv-x="916" 
d="M250 680l-42 -344h-48l35 282l-59 -18l6 44zM135 0l550 672h64l-550 -672h-64zM823.5 156q9.5 -18 9.5 -40q0 -34 -19.5 -61.5t-51.5 -43t-68 -15.5q-48 0 -79.5 26t-31.5 69q0 29 14.5 54t40.5 40q-22 18 -22 49q0 44 35.5 75t84.5 31q42 0 70 -23.5t28 -59.5
q0 -22 -10 -41t-28 -31q18 -11 27.5 -29zM685 277.5q-20 -14.5 -20 -33.5q0 -16 16 -28t39 -12q26 0 45.5 15t19.5 33q0 17 -15 28.5t-39 11.5q-26 0 -46 -14.5zM758 62.5q25 18.5 25 45.5q0 23 -19.5 37.5t-49.5 14.5q-33 0 -58 -18.5t-25 -45.5q0 -23 19.5 -37.5
t49.5 -14.5q33 0 58 18.5z" />
    <glyph glyph-name="threeeighths" unicode="&#x215c;" horiz-adv-x="940" 
d="M298.5 490q11.5 -18 11.5 -41q0 -28 -15 -55t-45 -44.5t-74 -17.5q-53 0 -81 29.5t-26 78.5l49 8q0 -68 66 -68q35 0 55.5 18.5t20.5 44.5q0 24 -20.5 32.5t-61.5 8.5l6 48q33 1 59.5 12.5t26.5 40.5q0 18 -14 30.5t-41 12.5q-61 0 -75 -64l-47 8q9 45 44 74.5t81 29.5
q50 0 75.5 -25.5t25.5 -57.5q0 -52 -49 -79q17 -6 28.5 -24zM159 0l550 672h64l-550 -672h-64zM847.5 156q9.5 -18 9.5 -40q0 -34 -19.5 -61.5t-51.5 -43t-68 -15.5q-48 0 -79.5 26t-31.5 69q0 29 14.5 54t40.5 40q-22 18 -22 49q0 44 35.5 75t84.5 31q42 0 70 -23.5
t28 -59.5q0 -22 -10 -41t-28 -31q18 -11 27.5 -29zM709 277.5q-20 -14.5 -20 -33.5q0 -16 16 -28t39 -12q26 0 45.5 15t19.5 33q0 17 -15 28.5t-39 11.5q-26 0 -46 -14.5zM782 62.5q25 18.5 25 45.5q0 23 -19.5 37.5t-49.5 14.5q-33 0 -58 -18.5t-25 -45.5q0 -23 19.5 -37.5
t49.5 -14.5q33 0 58 18.5z" />
    <glyph glyph-name="fiveeighths" unicode="&#x215d;" horiz-adv-x="940" 
d="M283 535q28 -25 28 -69q0 -38 -19 -68.5t-50 -48t-66 -17.5q-49 0 -79.5 30.5t-28.5 73.5l51 5q-1 -24 16.5 -42.5t45.5 -18.5q32 0 56.5 23t24.5 54q0 25 -15 40t-41 15q-21 0 -42 -10.5t-34 -29.5h-49l54 200h170l-6 -48h-129l-23 -86q14 10 32.5 16t35.5 6
q40 0 68 -25zM159 0l550 672h64l-550 -672h-64zM847.5 156q9.5 -18 9.5 -40q0 -34 -19.5 -61.5t-51.5 -43t-68 -15.5q-48 0 -79.5 26t-31.5 69q0 29 14.5 54t40.5 40q-22 18 -22 49q0 44 35.5 75t84.5 31q42 0 70 -23.5t28 -59.5q0 -22 -10 -41t-28 -31q18 -11 27.5 -29z
M709 277.5q-20 -14.5 -20 -33.5q0 -16 16 -28t39 -12q26 0 45.5 15t19.5 33q0 17 -15 28.5t-39 11.5q-26 0 -46 -14.5zM782 62.5q25 18.5 25 45.5q0 23 -19.5 37.5t-49.5 14.5q-33 0 -58 -18.5t-25 -45.5q0 -23 19.5 -37.5t49.5 -14.5q33 0 58 18.5z" />
    <glyph glyph-name="seveneighths" unicode="&#x215e;" horiz-adv-x="924" 
d="M353 672l-185 -336h-56l159 288h-164l6 48h240zM143 0l550 672h64l-550 -672h-64zM831.5 156q9.5 -18 9.5 -40q0 -34 -19.5 -61.5t-51.5 -43t-68 -15.5q-48 0 -79.5 26t-31.5 69q0 29 14.5 54t40.5 40q-22 18 -22 49q0 44 35.5 75t84.5 31q42 0 70 -23.5t28 -59.5
q0 -22 -10 -41t-28 -31q18 -11 27.5 -29zM693 277.5q-20 -14.5 -20 -33.5q0 -16 16 -28t39 -12q26 0 45.5 15t19.5 33q0 17 -15 28.5t-39 11.5q-26 0 -46 -14.5zM766 62.5q25 18.5 25 45.5q0 23 -19.5 37.5t-49.5 14.5q-33 0 -58 -18.5t-25 -45.5q0 -23 19.5 -37.5
t49.5 -14.5q33 0 58 18.5z" />
    <glyph glyph-name="partialdiff" unicode="&#x2202;" 
d="M491.5 116q-40.5 -57 -101.5 -90.5t-128 -33.5q-62 0 -112.5 28.5t-79 78.5t-28.5 110q0 11 2 31q8 67 48.5 124t102 90.5t128.5 33.5q64 0 118 -32q-21 119 -96 184t-173 80l52 80q157 -37 239.5 -162t82.5 -302q0 -46 -6 -96q-8 -67 -48.5 -124zM357.5 111.5
q39.5 23.5 63.5 63t24 83.5q0 57 -38.5 95.5t-95.5 38.5q-44 0 -83.5 -23.5t-64 -63t-24.5 -83.5q0 -56 39 -95t96 -39q44 0 83.5 23.5z" />
    <glyph glyph-name="emptyset" unicode="&#x2205;" horiz-adv-x="648" 
 />
    <glyph glyph-name="product" unicode="&#x220f;" 
d="M463 -256h-96l106 864h-272l-106 -864h-96l118 960h464z" />
    <glyph glyph-name="summation" unicode="&#x2211;" horiz-adv-x="672" 
d="M476 240l-351 -400h414l-12 -96h-528l12 96l345 400l-247 400l12 96h528l-12 -96h-414z" />
    <glyph glyph-name="minus" unicode="&#x2212;" horiz-adv-x="480" 
d="M424 336l-8 -64h-368l8 64h368z" />
    <glyph glyph-name="radical" unicode="&#x221a;" horiz-adv-x="928" 
d="M917 576h-340l-348 -592l-171 496h104l93 -280l275 472h399z" />
    <glyph glyph-name="infinity" unicode="&#x221e;" horiz-adv-x="624" 
d="M527.5 396.5q35.5 -35.5 35.5 -89.5q0 -44 -22.5 -81.5t-60 -59.5t-79.5 -22q-34 0 -61 13.5t-45 38.5q-23 -24 -54 -38t-64 -14q-56 0 -92 35.5t-36 89.5q0 44 22.5 81.5t60.5 59.5t81 22q33 0 60 -14t44 -39q24 25 55 39t65 14q55 0 90.5 -35.5zM247 235q28 27 28 62
q0 29 -20.5 50t-50.5 21q-35 0 -63 -27t-28 -62q0 -29 20.5 -50t50.5 -21q35 0 63 27zM471 235q28 27 28 62q0 29 -20.5 50t-50.5 21q-35 0 -63 -27t-28 -62q0 -29 20.5 -50t50.5 -21q35 0 63 27z" />
    <glyph glyph-name="integral" unicode="&#x222b;" horiz-adv-x="336" 
d="M163 579q19 49 57 75t102 26l-12 -96q-29 0 -49 -21.5t-24 -57.5l-67 -541q-9 -77 -28.5 -126.5t-57.5 -75.5t-102 -26l12 96q29 0 49.5 21.5t24.5 57.5l66 541q10 78 29 127z" />
    <glyph glyph-name="approxequal" unicode="&#x2248;" horiz-adv-x="496" 
d="M451 424q-28 -46 -60 -63t-69 -17q-16 0 -31.5 5t-31 11.5t-23.5 10.5q-35 14 -55 14q-38 0 -64 -41l-57 24q28 45 60.5 62.5t68.5 17.5q16 0 32.5 -5.5t31 -12.5t21.5 -10q33 -13 55 -13q38 0 65 41zM430 256q-28 -46 -60 -63t-69 -17q-17 0 -32.5 5t-30 12t-22.5 10
q-35 14 -56 14q-37 0 -64 -41l-57 24q28 45 60.5 62.5t68.5 17.5q16 0 32 -5.5t31 -12.5t23 -10q31 -13 54 -13q39 0 65 41z" />
    <glyph glyph-name="notequal" unicode="&#x2260;" horiz-adv-x="512" 
d="M294 344l-28 -80h181l-8 -64h-197l-71 -200h-56l71 200h-147l8 64h163l28 80h-181l8 64h197l71 200h56l-71 -200h147l-8 -64h-163z" />
    <glyph glyph-name="lessequal" unicode="&#x2264;" horiz-adv-x="528" 
d="M54 320l8 64l439 192l-9 -80l-338 -144l302 -144l-10 -80zM431 0h-416l8 64h416z" />
    <glyph glyph-name="greaterequal" unicode="&#x2265;" horiz-adv-x="528" 
d="M40 208l338 144l-302 144l9 80l393 -192l-8 -64l-440 -192zM439 64l-8 -64h-416l8 64h416z" />
    <glyph glyph-name="lozenge" unicode="&#x25ca;" horiz-adv-x="656" 
d="M285 -16l-229 352l315 352l229 -352zM355 558l-201 -222l147 -222l203 222z" />
    <glyph glyph-name="M.ss01" horiz-adv-x="784" 
d="M755 688l-84 -688h-96l54 440l-256 -261l-192 261l-54 -440h-96l84 688l274 -376z" />
    <glyph glyph-name="j.ss01" horiz-adv-x="240" 
d="M101.5 578q-18.5 18 -18.5 45q0 33 24.5 57t57.5 24q28 0 46 -18t18 -45q0 -33 -24.5 -57t-56.5 -24q-28 0 -46.5 18zM90 480h96l-91 -736h-96z" />
    <glyph glyph-name="t.ss01" horiz-adv-x="352" 
d="M171 96q-4 -32 -4 -52q0 -28 8 -44h-96q-8 16 -8 44q0 20 4 52l35 288h-64l12 96h64l23 192h96l-23 -192h96l-12 -96h-96z" />
    <glyph glyph-name="tbar.ss01" horiz-adv-x="352" 
d="M206 384l-11 -88h96l-6 -48h-96l-18 -152q-4 -32 -4 -52q0 -28 8 -44h-96q-8 16 -8 44q0 20 4 52l18 152h-64l6 48h64l11 88h-64l12 96h64l23 192h96l-23 -192h96l-12 -96h-96z" />
    <glyph glyph-name="tcaron.ss01" horiz-adv-x="496" 
d="M171 96q-4 -32 -4 -52q0 -28 8 -44h-96q-8 16 -8 44q0 20 4 52l35 288h-64l12 96h64l23 192h96l-23 -192h96l-12 -96h-96zM401 672h96l-95 -128h-48z" />
    <glyph glyph-name="uni0163.ss01" horiz-adv-x="352" 
d="M206 384l-35 -288q-4 -32 -4 -52q0 -28 8 -44h-16l-57 -48q15 3 28 3q43 0 70.5 -28t27.5 -71q0 -44 -23 -80.5t-62.5 -58t-84.5 -21.5q-79 0 -113 63l54 45q9 -20 25.5 -32t48.5 -12q41 0 70 26.5t29 63.5q0 27 -18 44.5t-46 17.5q-37 0 -70 -24l-26 48l74 64h-7
q-8 16 -8 44q0 20 4 52l35 288h-64l12 96h64l23 192h96l-23 -192h96l-12 -96h-96z" />
    <glyph glyph-name="uni021B.ss01" horiz-adv-x="352" 
d="M171 96q-4 -32 -4 -52q0 -28 8 -44h-96q-8 16 -8 44q0 20 4 52l35 288h-64l12 96h64l23 192h96l-23 -192h96l-12 -96h-96zM55 -64h96l-96 -128h-48z" />
    <glyph glyph-name="f_f.dlig" horiz-adv-x="736" 
d="M592 535l-6 -55h112l-12 -96h-112l-47 -384h-96l47 384h-272l-47 -384h-96l47 384h-64l12 96h64l7 58q10 85 55.5 129.5t111.5 44.5q37 0 60 -16l-11 -94q-19 14 -47 14q-64 0 -74 -81l-6 -55h272l7 58q10 85 55.5 129.5t111.5 44.5q37 0 60 -16l-11 -94q-19 14 -47 14
q-64 0 -74 -81z" />
    <glyph glyph-name="f_f_i.dlig" horiz-adv-x="976" 
d="M871 44q0 -28 8 -44h-96q-8 16 -8 44q0 20 4 52l35 288h-240l-47 -384h-96l47 384h-272l-47 -384h-96l47 384h-64l12 96h64l7 58q10 85 55.5 129.5t111.5 44.5q37 0 60 -16l-11 -94q-19 14 -47 14q-64 0 -74 -81l-6 -55h272l7 58q10 85 55.5 129.5t111.5 44.5
q37 0 60 -16l-11 -94q-19 14 -47 14q-64 0 -74 -81l-6 -55h336l-47 -384q-4 -32 -4 -52z" />
    <glyph glyph-name="f_f_j.dlig" horiz-adv-x="976" 
d="M861 -18q-12 -99 -48 -152t-74.5 -70t-84.5 -24l-13 88q51 10 82 41.5t40 102.5l51 416h-240l-47 -384h-96l47 384h-272l-47 -384h-96l47 384h-64l12 96h64l7 58q10 85 55.5 129.5t111.5 44.5q37 0 60 -16l-11 -94q-19 14 -47 14q-64 0 -74 -81l-6 -55h272l7 58
q10 85 55.5 129.5t111.5 44.5q37 0 60 -16l-11 -94q-19 14 -47 14q-64 0 -74 -81l-6 -55h336z" />
    <glyph glyph-name="uni041C.ss01" horiz-adv-x="784" 
d="M755 688l-84 -688h-96l54 440l-256 -261l-192 261l-54 -440h-96l84 688l274 -376z" />
    <glyph glyph-name="uni043C.ss01" horiz-adv-x="640" 
d="M535 44q0 -28 8 -44h-96q-8 16 -8 44q0 20 4 52l18 152l-173 -176l-131 176l-30 -248h-96l61 496l212 -288l284 288l-49 -400q-4 -32 -4 -52z" />
    <glyph glyph-name="uni0458.ss01" horiz-adv-x="240" 
d="M101.5 578q-18.5 18 -18.5 45q0 33 24.5 57t57.5 24q28 0 46 -18t18 -45q0 -33 -24.5 -57t-56.5 -24q-28 0 -46.5 18zM90 480h96l-91 -736h-96z" />
    <glyph glyph-name="zero.subs" horiz-adv-x="360" 
d="M183.5 36.5q28.5 -39.5 28.5 -101.5q0 -11 -2 -31q-9 -73 -50 -122.5t-95 -49.5q-48 0 -76.5 39.5t-28.5 100.5q0 10 2 32q8 72 49 122t96 50q48 0 76.5 -39.5zM114.5 -199.5q21.5 20.5 35 55t13.5 72.5q0 43 -17.5 71.5t-44.5 28.5q-23 0 -44.5 -20.5t-35 -55.5
t-13.5 -74q0 -42 17.5 -70t44.5 -28q23 0 44.5 20.5z" />
    <glyph glyph-name="one.subs" horiz-adv-x="328" 
d="M135 80l-42 -344h-48l35 282l-59 -18l6 44z" />
    <glyph glyph-name="two.subs" horiz-adv-x="360" 
d="M20.5 45.5q33.5 30.5 82.5 30.5q44 0 71.5 -25.5t27.5 -67.5q0 -36 -21.5 -67t-69.5 -76l-59 -56h143l-6 -48h-248l140 135q35 34 52.5 55t19.5 39l1 10q0 24 -15.5 38.5t-41.5 14.5q-27 0 -46.5 -18t-24.5 -46l-48 8q9 43 42.5 73.5z" />
    <glyph glyph-name="three.subs" horiz-adv-x="352" 
d="M183.5 -110q11.5 -18 11.5 -41q0 -28 -15 -55t-45 -44.5t-74 -17.5q-53 0 -81 29.5t-26 78.5l49 8q0 -68 66 -68q35 0 55.5 18.5t20.5 44.5q0 24 -20.5 32.5t-61.5 8.5l6 48q33 1 59.5 12.5t26.5 40.5q0 18 -14 30.5t-41 12.5q-61 0 -75 -64l-47 8q9 45 44 74.5t81 29.5
q50 0 75.5 -25.5t25.5 -57.5q0 -52 -49 -79q17 -6 28.5 -24z" />
    <glyph glyph-name="four.subs" horiz-adv-x="344" 
d="M186 -160l-6 -48h-40l-7 -56h-48l7 56h-176l259 288l-29 -240h40zM111 -49l-94 -111h81z" />
    <glyph glyph-name="five.subs" horiz-adv-x="352" 
d="M168 -65q28 -25 28 -69q0 -38 -19 -68.5t-50 -48t-66 -17.5q-49 0 -79.5 30.5t-28.5 73.5l51 5q-1 -24 16.5 -42.5t45.5 -18.5q32 0 56.5 23t24.5 54q0 25 -15 40t-41 15q-21 0 -42 -10.5t-34 -29.5h-49l54 200h170l-6 -48h-129l-23 -86q14 10 32.5 16t35.5 6
q40 0 68 -25z" />
    <glyph glyph-name="six.subs" horiz-adv-x="360" 
d="M177.5 -57.5q27.5 -28.5 27.5 -69.5q0 -9 -1 -14q-7 -56 -46 -91.5t-93 -35.5q-50 0 -80 30t-30 81q0 57 38 122.5t107 106.5h85q0 2 -29 -12t-61.5 -39.5t-55.5 -63.5q26 14 65 14q46 0 73.5 -28.5zM131 -195.5q25 24.5 25 58.5q0 27 -18 43.5t-50 16.5q-35 0 -60.5 -23
t-25.5 -56q0 -27 19 -45.5t49 -18.5q36 0 61 24.5z" />
    <glyph glyph-name="seven.subs" horiz-adv-x="336" 
d="M238 72l-185 -336h-56l159 288h-164l6 48h240z" />
    <glyph glyph-name="eight.subs" horiz-adv-x="360" 
d="M194 -108q9 -18 9 -39q0 -35 -19 -62.5t-51 -43t-68 -15.5q-48 0 -80 26t-32 69q0 29 15 54t41 40q-23 17 -23 50q0 44 36 74.5t85 30.5q42 0 69.5 -23t27.5 -60q0 -21 -9.5 -40.5t-27.5 -31.5q18 -11 27 -29zM56.5 15q-19.5 -13 -21.5 -31t14.5 -31t40.5 -13q25 0 44 13
t21 31t-13.5 31t-40.5 13t-44.5 -13zM129 -201.5q25 18.5 25 45.5q0 23 -19.5 37.5t-49.5 14.5q-34 0 -59 -19t-25 -46q0 -22 20 -36.5t49 -14.5q34 0 59 18.5z" />
    <glyph glyph-name="nine.subs" horiz-adv-x="360" 
d="M-6.5 -134.5q-27.5 28.5 -27.5 70.5q0 9 1 14q7 56 46.5 91t93.5 35q50 0 79.5 -29t29.5 -79q0 -58 -37 -124t-107 -108h-85q0 -2 29 12t61.5 40t55.5 64q-28 -15 -65 -15q-47 0 -74.5 28.5zM40 4q-25 -24 -25 -58q0 -27 18 -44t50 -17q36 0 61 23.5t25 56.5q0 27 -19 45
t-49 18q-36 0 -61 -24z" />
    <glyph glyph-name="zero.tf" 
d="M457.5 643.5q47.5 -36.5 73 -100.5t25.5 -145q0 -34 -4 -62q-11 -95 -52.5 -173.5t-103.5 -124.5t-134 -46q-64 0 -112 36.5t-73 100.5t-25 144q0 34 4 63q11 95 52 173.5t103.5 124.5t134.5 46q64 0 111.5 -36.5zM354 121.5q39 33.5 66.5 90.5t35.5 124q3 26 3 49
q0 57 -16 102t-44.5 71t-64.5 26q-41 0 -80 -33.5t-66.5 -90.5t-35.5 -124q-3 -25 -3 -49q0 -57 16 -102t44.5 -71t64.5 -26q41 0 80 33.5z" />
    <glyph glyph-name="one.tf" 
d="M435 688l-84 -688h-96l69 564l-116 -36l10 88z" />
    <glyph glyph-name="two.tf" 
d="M132.5 574.5q33.5 47.5 86.5 76.5t119 29q58 0 103.5 -23.5t71 -66t25.5 -97.5q0 -50 -21.5 -94.5t-59 -86.5t-103.5 -104l-118 -112h287l-12 -96h-496l279 270q71 69 105.5 110t39.5 78q1 6 1 18q0 50 -31 79t-83 29q-55 0 -93.5 -36.5t-48.5 -91.5l-96 16
q11 55 44.5 102.5z" />
    <glyph glyph-name="three.tf" 
d="M506 307.5q23 -35.5 23 -79.5q0 -13 -1 -20q-6 -54 -37 -103.5t-88.5 -81t-140.5 -31.5q-107 0 -163 59t-51 157l98 16q0 -61 31 -98.5t103 -37.5q46 0 80.5 17.5t53 46.5t18.5 63q0 48 -41.5 64.5t-123.5 16.5l12 96q61 1 113 22t59 74q3 23 -8 45.5t-37 36.5t-66 14
q-70 0 -103 -35t-47 -93l-94 16q12 60 47.5 107t88.5 74t114 27q68 0 114 -25.5t67.5 -64t21.5 -78.5q0 -11 -1 -16q-11 -93 -98 -141q33 -12 56 -47.5z" />
    <glyph glyph-name="four.tf" 
d="M536 208l-12 -96h-80l-13 -112h-96l13 112h-352l519 576l-59 -480h80zM388 430l-190 -222h162z" />
    <glyph glyph-name="five.tf" 
d="M435 425.5q44 -22.5 71 -65.5t27 -102q0 -9 -2 -31q-8 -68 -47.5 -121.5t-98.5 -83.5t-123 -30q-65 0 -115 28t-76.5 75.5t-23.5 104.5l102 10q-1 -31 14 -59.5t44 -45.5t67 -17q41 0 78.5 20.5t60 56t22.5 77.5q0 49 -31 79.5t-83 30.5q-41 0 -83 -21t-69 -59h-98
l109 400h341l-12 -96h-259l-47 -172q28 20 65.5 32t70.5 12q52 0 96 -22.5z" />
    <glyph glyph-name="six.tf" 
d="M447 443.5q46 -26.5 71 -72t25 -99.5q0 -9 -2 -27q-9 -74 -48 -131.5t-99.5 -89.5t-131.5 -32q-100 0 -159.5 58.5t-59.5 158.5q0 21 3 43q8 71 42.5 148t96 149t147.5 123h170q0 3 -58 -24.5t-123 -79t-111 -127.5q55 29 129 29q62 0 108 -26.5zM360 110.5
q39 22.5 61.5 60.5t22.5 82q0 54 -36 87.5t-99 33.5q-47 0 -86 -21t-62 -57.5t-23 -79.5q0 -55 37.5 -91.5t98.5 -36.5q47 0 86 22.5z" />
    <glyph glyph-name="seven.tf" 
d="M593 672l-370 -672h-112l318 576h-328l12 96h480z" />
    <glyph glyph-name="eight.tf" 
d="M519.5 312q18.5 -35 18.5 -78q0 -70 -38 -125.5t-101.5 -86t-136.5 -30.5q-63 0 -114 23.5t-80.5 66.5t-29.5 99q0 60 29.5 109.5t82.5 78.5q-44 33 -44 100q0 58 33 106.5t88 76.5t119 28q55 0 99 -21.5t69.5 -59.5t25.5 -86q0 -43 -19.5 -81.5t-55.5 -62.5
q36 -22 54.5 -57zM269 570.5q-30 -13.5 -48 -35.5t-18 -47q0 -33 31.5 -56.5t78.5 -23.5q34 0 64.5 13.5t48.5 35t18 46.5q0 34 -31.5 57.5t-78.5 23.5q-35 0 -65 -13.5zM356.5 105q38.5 17 61.5 46t23 64q0 46 -39.5 75.5t-99.5 29.5q-44 0 -82.5 -17t-61.5 -46t-23 -64
q0 -46 39.5 -75.5t99.5 -29.5q44 0 82.5 17z" />
    <glyph glyph-name="nine.tf" 
d="M161 228.5q-46 26.5 -71 72t-25 99.5q0 9 2 27q9 74 48 131.5t99.5 89.5t131.5 32q100 0 159.5 -58.5t59.5 -158.5q0 -20 -3 -43q-8 -71 -42.5 -148t-96 -149t-147.5 -123h-170q0 -3 58 24.5t123 79t111 127.5q-28 -15 -57 -22t-72 -7q-62 0 -108 26.5zM248 561.5
q-39 -22.5 -61.5 -60.5t-22.5 -82q0 -54 36 -87.5t99 -33.5q47 0 86 21t62 57.5t23 79.5q0 55 -37.5 91.5t-98.5 36.5q-47 0 -86 -22.5z" />
    <glyph glyph-name="zero.zero" 
d="M457.5 643.5q47.5 -36.5 73 -100.5t25.5 -145q0 -34 -4 -62q-11 -95 -52.5 -173.5t-103.5 -124.5t-134 -46q-64 0 -112 36.5t-73 100.5t-25 144q0 34 4 63q11 95 52 173.5t103.5 124.5t134.5 46q64 0 111.5 -36.5zM254 550.5q-39 -33.5 -66.5 -90.5t-35.5 -124
q-3 -24 -3 -47q0 -31 5 -64l279 285q-16 35 -42 54.5t-57 19.5q-41 0 -80 -33.5zM354 121.5q39 33.5 66.5 90.5t35.5 124q3 24 3 47q0 31 -5 64l-279 -285q16 -35 41.5 -54.5t57.5 -19.5q41 0 80 33.5z" />
    <glyph glyph-name="zero.tf.zero" 
d="M457.5 643.5q47.5 -36.5 73 -100.5t25.5 -145q0 -34 -4 -62q-11 -95 -52.5 -173.5t-103.5 -124.5t-134 -46q-64 0 -112 36.5t-73 100.5t-25 144q0 34 4 63q11 95 52 173.5t103.5 124.5t134.5 46q64 0 111.5 -36.5zM254 550.5q-39 -33.5 -66.5 -90.5t-35.5 -124
q-3 -24 -3 -47q0 -31 5 -64l279 285q-16 35 -42 54.5t-57 19.5q-41 0 -80 -33.5zM354 121.5q39 33.5 66.5 90.5t35.5 124q3 24 3 47q0 31 -5 64l-279 -285q16 -35 41.5 -54.5t57.5 -19.5q41 0 80 33.5z" />
    <glyph glyph-name="zero.dnom" horiz-adv-x="360" 
d="M256.5 300.5q28.5 -39.5 28.5 -100.5q0 -10 -2 -32q-8 -72 -49 -122t-96 -50q-48 0 -76.5 39.5t-28.5 101.5q0 11 2 31q9 73 50 122.5t95 49.5q48 0 76.5 -39.5zM188.5 65q21.5 21 35 55.5t13.5 73.5q0 42 -17.5 70t-44.5 28q-23 0 -44.5 -20.5t-35 -54.5t-13.5 -73
q0 -43 17.5 -71.5t44.5 -28.5q23 0 44.5 21z" />
    <glyph glyph-name="one.dnom" horiz-adv-x="328" 
d="M209 344l-42 -344h-48l34 282l-58 -18l6 44z" />
    <glyph glyph-name="two.dnom" horiz-adv-x="360" 
d="M93.5 309.5q33.5 30.5 82.5 30.5q44 0 72 -25.5t28 -67.5q0 -36 -21 -66t-70 -77l-59 -56h143l-6 -48h-248l139 135q36 35 53.5 55.5t19.5 38.5l1 10q0 24 -15.5 38.5t-41.5 14.5q-27 0 -46.5 -18t-24.5 -46l-48 8q8 43 41.5 73.5z" />
    <glyph glyph-name="three.dnom" horiz-adv-x="352" 
d="M259 150q12 -21 9 -46q-6 -43 -39.5 -75.5t-94.5 -32.5q-53 0 -80.5 29.5t-25.5 78.5l48 8q2 -68 67 -68q34 0 55 18.5t21 44.5q0 24 -20.5 32.5t-61.5 8.5l6 48q31 1 57 11.5t29 36.5q2 19 -12 33.5t-43 14.5q-61 0 -75 -64l-47 8q9 45 43.5 74.5t80.5 29.5
q50 0 76 -25.5t26 -57.5q0 -52 -49 -79q18 -7 30 -28z" />
    <glyph glyph-name="four.dnom" horiz-adv-x="344" 
d="M260 104l-6 -48h-40l-7 -56h-48l7 56h-176l259 288l-29 -240h40zM185 215l-94 -111h81z" />
    <glyph glyph-name="five.dnom" horiz-adv-x="352" 
d="M241.5 198.5q28.5 -25.5 28.5 -69.5q0 -38 -19.5 -68.5t-51 -47.5t-65.5 -17q-49 0 -79 30.5t-28 73.5l51 5q-1 -24 16.5 -42.5t45.5 -18.5q30 0 53.5 20t26.5 48l1 10q0 25 -15.5 39.5t-41.5 14.5q-21 0 -41.5 -10.5t-34.5 -29.5h-49l55 200h170l-6 -48h-129l-23 -86
q13 10 31.5 16t35.5 6q40 0 68.5 -25.5z" />
    <glyph glyph-name="six.dnom" horiz-adv-x="360" 
d="M251.5 206.5q27.5 -28.5 27.5 -69.5q0 -9 -1 -14q-7 -56 -46.5 -91.5t-93.5 -35.5q-50 0 -79.5 30t-29.5 80q0 57 37.5 123.5t107.5 106.5h85q0 2 -29 -12t-61.5 -39.5t-55.5 -63.5q26 14 65 14q46 0 73.5 -28.5zM205 68.5q25 24.5 25 58.5q0 27 -18 43.5t-50 16.5
q-35 0 -60.5 -23t-25.5 -56q0 -27 19 -45.5t49 -18.5q36 0 61 24.5z" />
    <glyph glyph-name="seven.dnom" horiz-adv-x="336" 
d="M312 336l-185 -336h-56l159 288h-164l6 48h240z" />
    <glyph glyph-name="eight.dnom" horiz-adv-x="360" 
d="M267.5 156q9.5 -18 9.5 -40q0 -34 -19.5 -61.5t-51.5 -43t-68 -15.5q-48 0 -79.5 26t-31.5 69q0 29 14.5 54t40.5 40q-22 18 -22 49q0 44 35.5 75t84.5 31q42 0 70 -23.5t28 -59.5q0 -22 -10 -41t-28 -31q18 -11 27.5 -29zM129 277.5q-20 -14.5 -20 -33.5q0 -16 16 -28
t39 -12q26 0 45.5 15t19.5 33q0 17 -15 28.5t-39 11.5q-26 0 -46 -14.5zM202 62.5q25 18.5 25 45.5q0 23 -19.5 37.5t-49.5 14.5q-33 0 -58 -18.5t-25 -45.5q0 -23 19.5 -37.5t49.5 -14.5q33 0 58 18.5z" />
    <glyph glyph-name="nine.dnom" horiz-adv-x="360" 
d="M67.5 129.5q-27.5 28.5 -27.5 70.5q0 9 1 14q7 56 46 91t93 35q50 0 80 -29.5t30 -80.5q0 -56 -37.5 -122t-106.5 -108h-85q0 -2 29 12t61.5 40t55.5 64q-28 -15 -65 -15q-47 0 -74.5 28.5zM114 268q-25 -24 -25 -58q0 -27 18 -44t50 -17q36 0 61 23.5t25 56.5
q0 27 -19 45t-49 18q-36 0 -61 -24z" />
    <glyph glyph-name="zero.numr" horiz-adv-x="360" 
d="M298.5 636.5q28.5 -39.5 28.5 -101.5q0 -11 -2 -31q-9 -73 -50 -122.5t-95 -49.5q-48 0 -76.5 39.5t-28.5 100.5q0 10 2 32q8 72 49 122t96 50q48 0 76.5 -39.5zM229.5 400.5q21.5 20.5 35 55t13.5 72.5q0 43 -17.5 71.5t-44.5 28.5q-23 0 -44.5 -20.5t-35 -55.5
t-13.5 -74q0 -42 17.5 -70t44.5 -28q23 0 44.5 20.5z" />
    <glyph glyph-name="one.numr" horiz-adv-x="328" 
d="M250 680l-42 -344h-48l35 282l-59 -18l6 44z" />
    <glyph glyph-name="two.numr" horiz-adv-x="360" 
d="M135.5 645.5q33.5 30.5 82.5 30.5q44 0 71.5 -25.5t27.5 -67.5q0 -36 -21.5 -67t-69.5 -76l-59 -56h143l-6 -48h-248l140 135q35 34 52.5 55t19.5 39l1 10q0 24 -15.5 38.5t-41.5 14.5q-27 0 -46.5 -18t-24.5 -46l-48 8q9 43 42.5 73.5z" />
    <glyph glyph-name="three.numr" horiz-adv-x="352" 
d="M298.5 490q11.5 -18 11.5 -41q0 -28 -15 -55t-45 -44.5t-74 -17.5q-53 0 -81 29.5t-26 78.5l49 8q0 -68 66 -68q35 0 55.5 18.5t20.5 44.5q0 24 -20.5 32.5t-61.5 8.5l6 48q33 1 59.5 12.5t26.5 40.5q0 18 -14 30.5t-41 12.5q-61 0 -75 -64l-47 8q9 45 44 74.5t81 29.5
q50 0 75.5 -25.5t25.5 -57.5q0 -52 -49 -79q17 -6 28.5 -24z" />
    <glyph glyph-name="four.numr" horiz-adv-x="344" 
d="M301 440l-6 -48h-40l-7 -56h-48l7 56h-176l259 288l-29 -240h40zM226 551l-94 -111h81z" />
    <glyph glyph-name="five.numr" horiz-adv-x="352" 
d="M283 535q28 -25 28 -69q0 -38 -19 -68.5t-50 -48t-66 -17.5q-49 0 -79.5 30.5t-28.5 73.5l51 5q-1 -24 16.5 -42.5t45.5 -18.5q32 0 56.5 23t24.5 54q0 25 -15 40t-41 15q-21 0 -42 -10.5t-34 -29.5h-49l54 200h170l-6 -48h-129l-23 -86q14 10 32.5 16t35.5 6
q40 0 68 -25z" />
    <glyph glyph-name="six.numr" horiz-adv-x="360" 
d="M292.5 542.5q27.5 -28.5 27.5 -69.5q0 -9 -1 -14q-7 -56 -46 -91.5t-93 -35.5q-50 0 -80 30t-30 81q0 57 38 122.5t107 106.5h85q0 2 -29 -12t-61.5 -39.5t-55.5 -63.5q26 14 65 14q46 0 73.5 -28.5zM246 404.5q25 24.5 25 58.5q0 27 -18 43.5t-50 16.5q-35 0 -60.5 -23
t-25.5 -56q0 -27 19 -45.5t49 -18.5q36 0 61 24.5z" />
    <glyph glyph-name="seven.numr" horiz-adv-x="336" 
d="M353 672l-185 -336h-56l159 288h-164l6 48h240z" />
    <glyph glyph-name="eight.numr" horiz-adv-x="360" 
d="M309 492q9 -18 9 -39q0 -35 -19 -62.5t-51 -43t-68 -15.5q-48 0 -80 26t-32 69q0 29 15 54t41 40q-23 17 -23 50q0 44 36 74.5t85 30.5q42 0 69.5 -23t27.5 -60q0 -21 -9.5 -40.5t-27.5 -31.5q18 -11 27 -29zM171.5 615q-19.5 -13 -21.5 -31t14.5 -31t40.5 -13
q25 0 44 13t21 31t-13.5 31t-40.5 13t-44.5 -13zM244 398.5q25 18.5 25 45.5q0 23 -19.5 37.5t-49.5 14.5q-34 0 -59 -19t-25 -46q0 -22 20 -36.5t49 -14.5q34 0 59 18.5z" />
    <glyph glyph-name="nine.numr" horiz-adv-x="360" 
d="M108.5 465.5q-27.5 28.5 -27.5 70.5q0 9 1 14q7 56 46.5 91t93.5 35q50 0 79.5 -29t29.5 -79q0 -58 -37 -124t-107 -108h-85q0 -2 29 12t61.5 40t55.5 64q-28 -15 -65 -15q-47 0 -74.5 28.5zM155 604q-25 -24 -25 -58q0 -27 18 -44t50 -17q36 0 61 23.5t25 56.5
q0 27 -19 45t-49 18q-36 0 -61 -24z" />
    <glyph glyph-name="exclam.case" horiz-adv-x="288" 
d="M121 672h128l-91 -480h-64zM56 10q-18 18 -18 45q0 33 24.5 57t56.5 24q28 0 46.5 -18t18.5 -45q0 -33 -24.5 -57t-57.5 -24q-28 0 -46 18z" />
    <glyph glyph-name="exclamdown.case" horiz-adv-x="288" 
d="M232 662q18 -18 18 -45q0 -33 -24 -57t-57 -24q-28 0 -46.5 18t-18.5 45q0 33 24.5 57t57.5 24q28 0 46 -18zM194 480l-27 -480h-128l91 480h64z" />
    <glyph glyph-name="question.case" horiz-adv-x="528" 
d="M408.5 655.5q43.5 -24.5 63.5 -63.5t20 -83q0 -14 -1 -21q-6 -50 -34 -87t-80 -77q-42 -31 -63.5 -62t-27.5 -70h-96q4 38 23 79.5t58 77.5q15 13 42 35q42 34 62.5 58.5t20.5 56.5q0 38 -28.5 61.5t-80.5 23.5t-90.5 -23t-63.5 -55l-47 78q100 96 212 96
q67 0 110.5 -24.5zM277.5 118q18.5 -18 18.5 -45q0 -33 -24.5 -57t-57.5 -24q-28 0 -46 18t-18 45q0 33 24.5 57t56.5 24q28 0 46.5 -18z" />
    <glyph glyph-name="questiondown.case" horiz-adv-x="528" 
d="M250.5 554q-18.5 18 -18.5 45q0 33 24.5 57t57.5 24q28 0 46 -18t18 -45q0 -33 -24.5 -57t-56.5 -24q-28 0 -46.5 18zM119.5 16.5q-43.5 24.5 -63.5 63.5t-20 83q0 14 1 21q6 50 33.5 87t80.5 77q42 31 63.5 62t27.5 70h96q-4 -38 -23 -79.5t-58 -77.5q-15 -13 -42 -35
q-42 -34 -62.5 -58.5t-20.5 -56.5q0 -38 28.5 -61.5t80.5 -23.5t90.5 23t63.5 55l47 -78q-100 -96 -212 -96q-67 0 -110.5 24.5z" />
    <glyph glyph-name="braceleft.case" horiz-adv-x="384" 
d="M206 -15q0 -33 17 -57t51 -32l-43 -88q-64 22 -93.5 59.5t-29.5 92.5q0 10 2 30l28 234q3 27 -9.5 50.5t-33 40t-39.5 21.5q34 9 69.5 41t40.5 71l28 234q8 66 48.5 111.5t118.5 70.5l21 -88q-41 -9 -64.5 -38t-28.5 -68l-23 -188q-14 -117 -85 -146q52 -23 52 -104
q0 -19 -3 -42l-23 -188q-1 -6 -1 -17z" />
    <glyph glyph-name="braceright.case" horiz-adv-x="384" 
d="M118 190q14 117 85 146q-52 23 -52 104q0 20 3 42l23 188q1 6 1 17q0 33 -17 57t-51 32l43 88q64 -22 93.5 -59.5t29.5 -92.5q0 -10 -2 -30l-28 -234q-3 -27 9.5 -50.5t33 -40t39.5 -21.5q-34 -9 -69.5 -41t-40.5 -71l-28 -234q-8 -66 -48.5 -111.5t-118.5 -70.5l-21 88
q41 9 64.5 38t28.5 68z" />
    <glyph glyph-name="bracketleft.case" horiz-adv-x="336" 
d="M116 -88h96l-12 -96h-192l128 1040h192l-12 -96h-96z" />
    <glyph glyph-name="bracketright.case" horiz-adv-x="336" 
d="M124 760l12 96h192l-128 -1040h-192l12 96h96l104 848h-96z" />
    <glyph glyph-name="parenleft.case" horiz-adv-x="304" 
d="M208.5 564q-40.5 -103 -56.5 -228q-8 -67 -8 -119q0 -163 68 -301l-85 -44q-37 70 -57.5 160.5t-20.5 190.5q0 60 7 113q16 130 66 252t119 212l75 -44q-67 -89 -107.5 -192z" />
    <glyph glyph-name="parenright.case" horiz-adv-x="304" 
d="M177 800q37 -70 57.5 -160.5t20.5 -190.5q0 -60 -7 -113q-16 -130 -66 -252t-119 -212l-75 44q67 89 107.5 192t56.5 228q8 67 8 119q0 163 -68 301z" />
    <glyph glyph-name="emdash.case" 
d="M51 296l10 80h496l-10 -80h-496z" />
    <glyph glyph-name="endash.case" horiz-adv-x="512" 
d="M51 296l10 80h400l-10 -80h-400z" />
    <glyph glyph-name="hyphen.case" horiz-adv-x="384" 
d="M51 296l10 80h272l-10 -80h-272z" />
    <glyph glyph-name="guillemotleft.case" horiz-adv-x="624" 
d="M144 336l133 -216h-88l-133 216l187 216h88zM376 336l133 -216h-88l-133 216l187 216h88z" />
    <glyph glyph-name="guillemotright.case" horiz-adv-x="624" 
d="M203 552l133 -216l-187 -216h-88l187 216l-133 216h88zM435 552l133 -216l-187 -216h-88l187 216l-133 216h88z" />
    <glyph glyph-name="guilsinglleft.case" horiz-adv-x="392" 
d="M144 336l133 -216h-88l-133 216l187 216h88z" />
    <glyph glyph-name="guilsinglright.case" horiz-adv-x="392" 
d="M203 552l133 -216l-187 -216h-88l187 216l-133 216h88z" />
    <glyph glyph-name="ampersand.ss01" horiz-adv-x="737" 
d="M640 0h-119l-58 96q-54 -50 -112 -77t-127 -27q-86 0 -136.5 48t-50.5 125q0 10 2 30q9 77 75 135.5t161 75.5l-162 266h512l-12 -96h-322l198 -327l68 71h121l-141 -149zM331 110.5q43 22.5 85 62.5l-91 149q-42 -1 -84 -15.5t-72 -43.5t-35 -71q-3 -26 8.5 -50t36 -39
t59.5 -15q50 0 93 22.5z" />
    <glyph glyph-name="brevecy" horiz-adv-x="648" 
 />
    </font>
</defs>
</svg>
