<?xml version="1.0" standalone="no"?>
<!DOCTYPE svg PUBLIC "-//W3C//DTD SVG 1.1//EN" "http://www.w3.org/Graphics/SVG/1.1/DTD/svg11.dtd" >
<svg xmlns="http://www.w3.org/2000/svg" xmlns:xlink="http://www.w3.org/1999/xlink" version="1.1">
<metadata>
Created by FontForge 20170731 at Tue Mar  7 18:35:54 2017
 By Aleksey,,,
Copyright (c) Milos Mitrovic, 2016. All rights reserved.
</metadata>
<defs>
<font id="NoirPro-Regular" horiz-adv-x="608" >
  <font-face 
    font-family="Noir Pro"
    font-weight="400"
    font-stretch="normal"
    units-per-em="1000"
    panose-1="0 0 5 0 0 0 0 0 0 0"
    ascent="800"
    descent="-200"
    x-height="480"
    cap-height="672"
    bbox="-152 -304 1096 1104"
    underline-thickness="50"
    underline-position="-150"
    unicode-range="U+0020-25CA"
  />
<missing-glyph horiz-adv-x="528" 
d="M433 -256h-335v1056h335v-1056zM177 729v-35h69v-39h-70v-35h176v35h-70v39h70v35h-175zM176 593v-110h176v36h-70v74h-106zM246 519h-35v38h35v-38zM176 455v-35h70v-39h-70v-35h106v74h70v35h-176zM317 391v-69h-141v-36h176v105h-35zM246 262v-59h36v25h35v-50h-106
v84h-35v-119h176v119h-106zM176 80v-120h176v120h-176zM317 -5h-106v50h106v-50zM176 -64v-35h74l-74 -49v-35h176v35h-108l74 49h34v35h-176z" />
    <glyph glyph-name=".notdef" horiz-adv-x="528" 
d="M433 -256h-335v1056h335v-1056zM177 729v-35h69v-39h-70v-35h176v35h-70v39h70v35h-175zM176 593v-110h176v36h-70v74h-106zM246 519h-35v38h35v-38zM176 455v-35h70v-39h-70v-35h106v74h70v35h-176zM317 391v-69h-141v-36h176v105h-35zM246 262v-59h36v25h35v-50h-106
v84h-35v-119h176v119h-106zM176 80v-120h176v120h-176zM317 -5h-106v50h106v-50zM176 -64v-35h74l-74 -49v-35h176v35h-108l74 49h34v35h-176z" />
    <glyph glyph-name=".null" horiz-adv-x="0" 
 />
    <glyph glyph-name="nonmarkingreturn" horiz-adv-x="333" 
 />
    <glyph glyph-name="space" unicode=" " horiz-adv-x="320" 
 />
    <glyph glyph-name="exclam" unicode="!" horiz-adv-x="288" 
d="M80 672h128l-32 -480h-64zM93 13q-21 21 -21 51t21 51t51 21q31 0 51.5 -21t20.5 -51t-20.5 -51t-51.5 -21q-30 0 -51 21z" />
    <glyph glyph-name="quotedbl" unicode="&#x22;" horiz-adv-x="416" 
d="M72 464l-16 208h104l-16 -208h-72zM272 464l-16 208h104l-16 -208h-72z" />
    <glyph glyph-name="numbersign" unicode="#" horiz-adv-x="688" 
d="M509 416l-29 -176h112v-64h-123l-29 -176h-72l30 176h-157l-29 -176h-75l31 176h-112v64h123l29 176h-112v64h123l32 192h72l-32 -192h157l32 192h72l-32 -192h112v-64h-123zM437 416h-157l-29 -176h157z" />
    <glyph glyph-name="dollar" unicode="$" horiz-adv-x="592" 
d="M525 98.5q-27 -44.5 -78 -72.5t-119 -33v-73h-48v72q-95 4 -155 41.5t-85 67.5l48 86q42 -47 97.5 -73t114.5 -26q75 0 115.5 28t40.5 77q0 39 -40.5 64.5t-112.5 38.5q-133 23 -186.5 69.5t-53.5 119.5q0 52 25 94.5t74 69t118 30.5v73h48v-73q117 -8 194 -79l-46 -87
q-73 71 -173 71q-69 0 -106.5 -25t-37.5 -70q0 -38 35 -59.5t117 -37.5q125 -24 183 -68.5t58 -126.5q0 -54 -27 -98.5z" />
    <glyph glyph-name="percent" unicode="%" horiz-adv-x="784" 
d="M128 411q-33 19 -52.5 52t-19.5 73q0 39 19.5 72t52.5 52.5t73 19.5q39 0 72 -19.5t52 -52.5t19 -72q0 -40 -19 -73t-52 -52t-72 -19q-40 0 -73 19zM126 0l468 672h64l-468 -672h-64zM256 480q24 24 24 56t-24 56t-56 24t-56 -24t-24 -56t24 -56t56 -24t56 24zM512 11
q-33 19 -52.5 52t-19.5 73q0 39 19.5 72t52.5 52.5t73 19.5q39 0 72 -19.5t52 -52.5t19 -72q0 -40 -19 -73t-52 -52t-72 -19q-40 0 -73 19zM640 80q24 24 24 56t-24 56t-56 24t-56 -24t-24 -56t24 -56t56 -24t56 24z" />
    <glyph glyph-name="ampersand" unicode="&#x26;" horiz-adv-x="737" 
d="M528 152l153 -152h-135l-81 83q-43 -43 -91 -67t-108 -24q-96 0 -153 53.5t-57 141.5q0 63 36.5 109t89.5 69q-40 39 -62 73t-22 74q0 43 23 81.5t70 62.5t115 24q61 0 106 -24t68.5 -63.5t23.5 -86.5q0 -71 -50 -114t-109 -61l116 -113l94 102h125zM375.5 446
q32.5 26 32.5 61q0 33 -29.5 55t-77.5 22q-53 0 -80 -22t-27 -50q0 -26 17.5 -48.5t49.5 -51.5q7 -5 17 -15q65 23 97.5 49zM397 151l-146 147q-39 -16 -69 -44.5t-30 -69.5q0 -44 31 -70t85 -26q68 0 129 63z" />
    <glyph glyph-name="quotesingle" unicode="'" horiz-adv-x="216" 
d="M72 464l-16 208h104l-16 -208h-72z" />
    <glyph glyph-name="parenleft" unicode="(" horiz-adv-x="304" 
d="M180 531q-28 -103 -28 -227t28 -227t84 -193l-80 -44q-58 90 -93 212t-35 252t35 252t93 212l80 -44q-56 -90 -84 -193z" />
    <glyph glyph-name="parenright" unicode=")" horiz-adv-x="304" 
d="M120 768q58 -90 93 -212t35 -252t-35 -252t-93 -212l-80 44q56 90 84 193t28 227t-28 227t-84 193z" />
    <glyph glyph-name="asterisk" unicode="*" horiz-adv-x="444" 
d="M360 632l28 -69l-114 -38l77 -96l-58 -42l-71 100l-68 -100l-60 42l76 96l-114 38l28 69l107 -48l-5 120h72l-5 -120z" />
    <glyph glyph-name="plus" unicode="+" horiz-adv-x="480" 
d="M424 272h-152v-152h-64v152h-152v64h152v152h64v-152h152v-64z" />
    <glyph glyph-name="comma" unicode="," horiz-adv-x="264" 
d="M88 112h120l-104 -224h-64z" />
    <glyph glyph-name="hyphen" unicode="-" horiz-adv-x="384" 
d="M56 224v80h272v-80h-272z" />
    <glyph glyph-name="period" unicode="." horiz-adv-x="256" 
d="M77 13q-21 21 -21 51q0 31 21 51.5t51 20.5q31 0 51.5 -20.5t20.5 -51.5q0 -30 -20.5 -51t-51.5 -21q-30 0 -51 21z" />
    <glyph glyph-name="slash" unicode="/" horiz-adv-x="512" 
d="M56 -80l320 832h80l-320 -832h-80z" />
    <glyph glyph-name="zero" unicode="0" 
d="M432.5 634q56.5 -46 88 -124.5t31.5 -173.5t-31.5 -173.5t-88 -124.5t-128.5 -46q-73 0 -129.5 46t-87.5 124.5t-31 173.5t31.5 173.5t88 124.5t128.5 46t128.5 -46zM380 121.5q35 33.5 55.5 90.5t20.5 124t-20.5 124t-55.5 90.5t-76 33.5t-76 -33.5t-55.5 -90.5
t-20.5 -124t20.5 -124t55.5 -90.5t76 -33.5t76 33.5z" />
    <glyph glyph-name="one" unicode="1" horiz-adv-x="368" 
d="M280 688v-688h-96v564l-112 -36v88z" />
    <glyph glyph-name="two" unicode="2" 
d="M103 574.5q28 47.5 77.5 76.5t115.5 29q63 0 114.5 -27.5t80.5 -77t29 -111.5t-35.5 -117.5t-114.5 -138.5l-105 -112h287v-96h-496l246 270q62 68 92 109.5t30 78.5q0 57 -35.5 91.5t-92.5 34.5q-55 0 -89 -36.5t-38 -91.5l-98 16q4 55 32 102.5z" />
    <glyph glyph-name="three" unicode="3" horiz-adv-x="592" 
d="M507.5 300q28.5 -42 28.5 -92q0 -54 -25 -103.5t-78.5 -81t-136.5 -31.5q-107 0 -170 59t-70 157l96 16q7 -62 43 -99t107 -37q64 0 101 32t37 80q0 57 -44.5 76.5t-131.5 19.5v96q61 1 110.5 22t49.5 74q0 23 -13.5 45.5t-41 36.5t-67.5 14q-70 0 -99.5 -35t-35.5 -93
l-96 16q5 60 35 107t79.5 74t110.5 27q73 0 123.5 -29t75.5 -71.5t25 -83.5q0 -94 -80 -141q39 -13 67.5 -55z" />
    <glyph glyph-name="four" unicode="4" 
d="M552 208v-96h-80v-112h-96v112h-352l448 576v-480h80zM376 430l-162 -222h162v222z" />
    <glyph glyph-name="five" unicode="5" horiz-adv-x="592" 
d="M423.5 422q50.5 -26 81.5 -76.5t31 -118.5t-33 -121.5t-88 -83.5t-119 -30q-65 0 -118.5 28t-85.5 75.5t-36 104.5l100 10q3 -31 21.5 -59.5t49.5 -45.5t69 -17t71 18t53 49t20 69q0 56 -36 92t-93 36q-41 0 -80.5 -21t-61.5 -59h-98l60 400h341v-96h-259l-26 -172
q25 20 61 32t69 12q56 0 106.5 -26z" />
    <glyph glyph-name="six" unicode="6" 
d="M442 439q52 -31 81 -82.5t29 -111.5q0 -74 -32 -131.5t-88.5 -89.5t-127.5 -32q-72 0 -128.5 32t-88 91t-31.5 137q0 71 25 148t78 149t132 123h170q0 4 -55 -24t-114 -79.5t-95 -127.5q52 29 126 29q67 0 119 -31zM382.5 107.5q34.5 19.5 54 52.5t19.5 73
q0 61 -41.5 101t-110.5 40q-66 0 -109 -40.5t-43 -100.5q0 -40 19.5 -73t54 -52.5t78.5 -19.5t78.5 19.5z" />
    <glyph glyph-name="seven" unicode="7" horiz-adv-x="544" 
d="M536 672l-288 -672h-112l248 576h-328v96h480z" />
    <glyph glyph-name="eight" unicode="8" 
d="M528.5 301.5q23.5 -42.5 23.5 -94.5q0 -63 -33 -112t-90 -76t-125 -27t-125 27t-90 76t-33 112q0 52 23.5 94t66.5 68q-29 20 -43.5 52.5t-14.5 70.5q0 53 29 96t78.5 67.5t108.5 24.5t108.5 -24.5t78.5 -67.5t29 -96q0 -37 -15 -69.5t-44 -53.5q44 -25 67.5 -67.5z
M219 558q-35 -26 -35 -62t35 -62t85 -26t85 26t35 62t-35 62t-85 26t-85 -26zM380.5 103.5q34.5 15.5 55 42t20.5 58.5t-20.5 58.5t-55 42t-76.5 15.5t-76.5 -15.5t-55 -42t-20.5 -58.5t20.5 -58.5t55 -42t76.5 -15.5t76.5 15.5z" />
    <glyph glyph-name="nine" unicode="9" 
d="M166 233q-52 31 -81 82.5t-29 111.5q0 74 32 131.5t88.5 89.5t127.5 32q72 0 128.5 -32t88 -91t31.5 -137q0 -71 -25 -148t-78 -149t-132 -123h-170q0 -4 55 24t114 79.5t95 127.5q-26 -15 -54.5 -22t-71.5 -7q-67 0 -119 31zM225.5 564.5q-34.5 -19.5 -54 -52.5
t-19.5 -73q0 -61 41.5 -101t110.5 -40q66 0 109 40.5t43 100.5q0 40 -19.5 73t-54 52.5t-78.5 19.5t-78.5 -19.5z" />
    <glyph glyph-name="colon" unicode=":" horiz-adv-x="256" 
d="M77 365q-21 21 -21 51q0 31 21 51.5t51 20.5q31 0 51.5 -20.5t20.5 -51.5q0 -30 -20.5 -51t-51.5 -21q-30 0 -51 21zM77 13q-21 21 -21 51t21 51t51 21q31 0 51.5 -21t20.5 -51t-20.5 -51t-51.5 -21q-30 0 -51 21z" />
    <glyph glyph-name="semicolon" unicode=";" horiz-adv-x="276" 
d="M97 365q-21 21 -21 51q0 31 21 51.5t51 20.5q31 0 51.5 -20.5t20.5 -51.5q0 -30 -20.5 -51t-51.5 -21q-30 0 -51 21zM88 112h120l-104 -224h-64z" />
    <glyph glyph-name="less" unicode="&#x3c;" horiz-adv-x="528" 
d="M56 272v64l416 192v-80l-320 -144l320 -144v-80z" />
    <glyph glyph-name="equal" unicode="=" horiz-adv-x="512" 
d="M456 408v-64h-400v64h400zM456 264v-64h-400v64h400z" />
    <glyph glyph-name="greater" unicode="&#x3e;" horiz-adv-x="528" 
d="M56 160l320 144l-320 144v80l416 -192v-64l-416 -192v80z" />
    <glyph glyph-name="question" unicode="?" horiz-adv-x="528" 
d="M377 651.5q49 -28.5 72 -72.5t23 -91q0 -51 -23 -87.5t-71 -76.5q-38 -31 -55.5 -62t-18.5 -70h-96q-2 37 12.5 79t48.5 78q11 12 37 34q36 33 53 55t17 50q0 41 -31.5 68.5t-87.5 27.5q-52 0 -88 -23t-57 -55l-56 78q87 96 200 96q72 0 121 -28.5zM307.5 115
q20.5 -21 20.5 -51t-20.5 -51t-51.5 -21q-30 0 -51 21t-21 51t21 51t51 21q31 0 51.5 -21z" />
    <glyph glyph-name="at" unicode="@" horiz-adv-x="1088" 
d="M1004.5 197.5q-27.5 -60.5 -80 -97t-123.5 -36.5q-55 0 -89.5 25.5t-51.5 63.5q-50 -71 -149 -71q-59 0 -103.5 27t-68.5 72t-24 99q0 63 29 116t78.5 83.5t109.5 30.5q41 0 77.5 -18.5t50.5 -41.5l4 46h94l-23 -236l-1 -15q0 -38 19.5 -61.5t59.5 -23.5q26 0 54 15.5
t48.5 53t20.5 100.5q0 99 -52.5 181.5t-140.5 130t-191 47.5q-109 0 -201 -53t-145.5 -145t-53.5 -202t55 -201.5t149 -145t205 -53.5q85 0 144 28l28 -90q-76 -34 -181 -34q-135 0 -249 66.5t-180.5 180.5t-66.5 249t66.5 249t180.5 180.5t249 66.5q126 0 236.5 -62
t177 -166.5t66.5 -225.5q0 -72 -27.5 -132.5zM636.5 356q-10.5 30 -35.5 50t-65 20q-34 0 -63 -19t-46.5 -51.5t-17.5 -70.5q0 -47 28.5 -82t80.5 -35q54 0 88 37t39 92q2 29 -8.5 59z" />
    <glyph glyph-name="A" unicode="A" horiz-adv-x="656" 
d="M479 144h-302l-65 -144h-104l320 688l320 -688h-104zM435 240l-107 236l-107 -236h214z" />
    <glyph glyph-name="B" unicode="B" horiz-adv-x="576" 
d="M508 302.5q28 -45.5 28 -100.5q0 -58 -26 -104t-75 -72t-115 -26h-248v672h201q110 0 170.5 -45t60.5 -131q0 -49 -23 -85.5t-57 -49.5q56 -13 84 -58.5zM168 408h120q120 0 120 84q0 42 -31 63t-89 21h-120v-168zM404 123q36 27 36 81t-36 81t-100 27h-136v-216h136
q64 0 100 27z" />
    <glyph glyph-name="C" unicode="C" horiz-adv-x="640" 
d="M482 106q42 18 77 55l41 -90q-41 -38 -97.5 -58.5t-112.5 -20.5q-95 0 -175.5 46.5t-127.5 125.5t-47 172t47 172t127.5 125.5t175.5 46.5q57 0 113 -20t97 -58l-41 -90q-36 36 -77.5 54t-97.5 18q-67 0 -124 -33.5t-90.5 -90.5t-33.5 -124t33.5 -124t90.5 -90.5
t124 -33.5q56 0 98 18z" />
    <glyph glyph-name="D" unicode="D" horiz-adv-x="656" 
d="M459.5 627.5q77.5 -44.5 117 -120.5t39.5 -171q0 -94 -40.5 -170.5t-118.5 -121t-184 -44.5h-201v672h201q109 0 186.5 -44.5zM412.5 128q50.5 32 79 87t28.5 121t-28.5 121t-79 87t-114.5 32h-130v-480h130q64 0 114.5 32z" />
    <glyph glyph-name="E" unicode="E" horiz-adv-x="512" 
d="M168 576v-192h240v-96h-240v-192h288v-96h-384v672h384v-96h-288z" />
    <glyph glyph-name="F" unicode="F" horiz-adv-x="496" 
d="M72 0v672h384v-96h-288v-192h240v-96h-240v-288h-96z" />
    <glyph glyph-name="G" unicode="G" horiz-adv-x="752" 
d="M712 336q0 -94 -42.5 -173t-117.5 -125t-168 -46t-172 46.5t-125.5 125.5t-46.5 172t46.5 172t125.5 125.5t172 46.5q99 0 176 -50.5t121 -137.5l-97 -28q-29 55 -81.5 87.5t-118.5 32.5q-67 0 -124 -33.5t-90.5 -90.5t-33.5 -124t33.5 -124t90.5 -90.5t124 -33.5
q89 0 149 51.5t77 132.5h-250v96l350 -1q2 -18 2 -31z" />
    <glyph glyph-name="H" unicode="H" horiz-adv-x="656" 
d="M584 672v-672h-96v288h-320v-288h-96v672h96v-288h320v288h96z" />
    <glyph glyph-name="I" unicode="I" horiz-adv-x="240" 
d="M72 0v672h96v-672h-96z" />
    <glyph glyph-name="J" unicode="J" horiz-adv-x="464" 
d="M408 672v-416q0 -132 -61 -198t-163 -66q-42 0 -83.5 19t-60.5 43l48 82q14 -21 39.5 -34.5t56.5 -13.5q65 0 96.5 42.5t31.5 117.5v424h96z" />
    <glyph glyph-name="K" unicode="K" horiz-adv-x="592" 
d="M568 0h-128l-272 296v-296h-96v672h96v-296l256 296h128l-296 -329z" />
    <glyph glyph-name="L" unicode="L" horiz-adv-x="480" 
d="M440 96v-96h-368v672h96v-576h272z" />
    <glyph glyph-name="M" unicode="M" horiz-adv-x="832" 
d="M202 398l-64 -398h-98l114 688l262 -508l262 508l114 -688h-98l-64 398l-214 -414z" />
    <glyph glyph-name="N" unicode="N" horiz-adv-x="704" 
d="M168 460v-460h-96v688l464 -476v460h96v-688z" />
    <glyph glyph-name="O" unicode="O" horiz-adv-x="768" 
d="M556 633.5q79 -46.5 125.5 -125.5t46.5 -172t-46.5 -172t-125.5 -125.5t-172 -46.5t-172 46.5t-125.5 125.5t-46.5 172t46.5 172t125.5 125.5t172 46.5t172 -46.5zM509 121q57 33 90 90t33 125t-33 125t-90 90t-125 33t-125 -33t-90 -90t-33 -125t33 -125t90 -90t125 -33
t125 33z" />
    <glyph glyph-name="P" unicode="P" horiz-adv-x="576" 
d="M471.5 614q64.5 -58 64.5 -157q0 -63 -27 -114.5t-78.5 -81t-120.5 -29.5h-142v-232h-96v672h208q127 0 191.5 -58zM404 358.5q36 30.5 36 92.5t-39 93.5t-96 31.5h-137v-248h143q57 0 93 30.5z" />
    <glyph glyph-name="Q" unicode="Q" horiz-adv-x="768" 
d="M624 0l-47 51q-88 -59 -193 -59q-93 0 -172 46.5t-125.5 125.5t-46.5 172t46.5 172t125.5 125.5t172 46.5t172 -46.5t125.5 -125.5t46.5 -172q0 -64 -22.5 -122.5t-63.5 -104.5l102 -109h-120zM512 123l-120 133h112l72 -77q27 32 41.5 72.5t14.5 84.5q0 68 -33 125
t-90 90t-125 33t-125 -33t-90 -90t-33 -125t33 -125t90 -90t125 -33q69 0 128 35z" />
    <glyph glyph-name="R" unicode="R" horiz-adv-x="592" 
d="M440 0l-167 232h-105v-232h-96v672h208q127 0 191.5 -58t64.5 -157q0 -79 -41.5 -137.5t-115.5 -78.5l173 -241h-112zM168 328h143q57 0 93 30.5t36 92.5q0 63 -35.5 94t-91.5 31h-145v-248z" />
    <glyph glyph-name="S" unicode="S" horiz-adv-x="592" 
d="M494 323.5q58 -44.5 58 -126.5q0 -59 -31 -105.5t-88.5 -73t-134.5 -26.5q-103 0 -167.5 38.5t-90.5 70.5l48 86q42 -47 97.5 -73t114.5 -26q75 0 115.5 28t40.5 77q0 39 -40.5 64.5t-112.5 38.5q-133 23 -186.5 69.5t-53.5 119.5q0 55 28 99.5t83 70t131 25.5
q45 0 104.5 -15.5t112.5 -64.5l-46 -87q-73 71 -173 71q-69 0 -106.5 -25t-37.5 -70q0 -38 35 -59.5t117 -37.5q125 -24 183 -68.5z" />
    <glyph glyph-name="T" unicode="T" horiz-adv-x="528" 
d="M488 672v-96h-176v-576h-96v576h-176v96h448z" />
    <glyph glyph-name="U" unicode="U" horiz-adv-x="624" 
d="M568 672v-376q0 -139 -64.5 -221.5t-191.5 -82.5q-130 0 -193 82t-63 222v376h96v-408q0 -79 42.5 -127.5t117.5 -48.5q74 0 117 48.5t43 127.5v408h96z" />
    <glyph glyph-name="V" unicode="V" horiz-adv-x="624" 
d="M8 672h104l200 -462l200 462h104l-304 -688z" />
    <glyph glyph-name="W" unicode="W" horiz-adv-x="960" 
d="M944 672l-280 -688l-184 464l-184 -464l-280 688h104l176 -442l184 458l184 -458l176 442h104z" />
    <glyph glyph-name="X" unicode="X" horiz-adv-x="656" 
d="M516 0l-188 271l-188 -271h-116l244 347l-228 325h115l173 -250l173 250h115l-228 -325l244 -347h-116z" />
    <glyph glyph-name="Y" unicode="Y" horiz-adv-x="592" 
d="M584 672l-240 -400v-272h-96v272l-240 400h108l180 -308l180 308h108z" />
    <glyph glyph-name="Z" unicode="Z" 
d="M40 0l362 576h-346v96h512l-362 -576h346v-96h-512z" />
    <glyph glyph-name="bracketleft" unicode="[" horiz-adv-x="336" 
d="M168 -112h96v-96h-192v1040h192v-96h-96v-848z" />
    <glyph glyph-name="backslash" unicode="\" horiz-adv-x="512" 
d="M56 752h80l320 -832h-80z" />
    <glyph glyph-name="bracketright" unicode="]" horiz-adv-x="336" 
d="M72 736v96h192v-1040h-192v96h96v848h-96z" />
    <glyph glyph-name="asciicircum" unicode="^" horiz-adv-x="544" 
d="M234 704h76l178 -256h-88l-128 192l-128 -192h-88z" />
    <glyph glyph-name="underscore" unicode="_" horiz-adv-x="560" 
d="M40 -112v80h480v-80h-480z" />
    <glyph glyph-name="grave" unicode="`" horiz-adv-x="816" 
d="M416 736l-128 128h112l80 -128h-64z" />
    <glyph glyph-name="a" unicode="a" 
d="M536 480v-480h-96v70q-29 -38 -70 -58t-90 -20q-69 0 -123.5 33t-85.5 90t-31 125t31 125t85.5 90t123.5 33q49 0 90 -20t70 -58v70h96zM364 108.5q35 20.5 55.5 55.5t20.5 76t-20.5 76t-55.5 55.5t-76 20.5t-76 -20.5t-55.5 -55.5t-20.5 -76t20.5 -76t55.5 -55.5
t76 -20.5t76 20.5z" />
    <glyph glyph-name="b" unicode="b" 
d="M168 410q29 38 70 58t90 20q69 0 123.5 -33t85.5 -90t31 -125t-31 -125t-85.5 -90t-123.5 -33q-49 0 -90 20t-70 58v-70h-96v704h96v-294zM396 108.5q35 20.5 55.5 55.5t20.5 76t-20.5 76t-55.5 55.5t-76 20.5t-76 -20.5t-55.5 -55.5t-20.5 -76t20.5 -76t55.5 -55.5
t76 -20.5t76 20.5z" />
    <glyph glyph-name="c" unicode="c" horiz-adv-x="496" 
d="M71 365.5q31 56.5 89.5 89.5t135.5 33q46 0 88 -14t72 -41l-41 -89q-23 22 -53.5 35t-64.5 13q-44 0 -81 -20.5t-58.5 -55.5t-21.5 -75q0 -41 21.5 -76.5t58.5 -56t81 -20.5q34 0 64.5 13t53.5 36l41 -90q-28 -26 -71.5 -40.5t-88.5 -14.5q-78 0 -136 33t-89 89.5
t-31 125.5t31 125.5z" />
    <glyph glyph-name="d" unicode="d" 
d="M536 704v-704h-96v70q-29 -38 -70 -58t-90 -20q-69 0 -123.5 33t-85.5 90t-31 125t31 125t85.5 90t123.5 33q49 0 90 -20t70 -58v294h96zM364 108.5q35 20.5 55.5 55.5t20.5 76t-20.5 76t-55.5 55.5t-76 20.5t-76 -20.5t-55.5 -55.5t-20.5 -76t20.5 -76t55.5 -55.5
t76 -20.5t76 20.5z" />
    <glyph glyph-name="e" unicode="e" horiz-adv-x="544" 
d="M501 196h-363q11 -54 53.5 -81t102.5 -27q78 0 146 48l32 -86q-22 -18 -67.5 -38t-112.5 -20q-81 0 -138 33t-85.5 89.5t-28.5 125.5t29.5 125.5t83.5 89.5t126 33q64 0 115 -30.5t80.5 -87t29.5 -132.5q0 -22 -3 -42zM406 284q-1 26 -15.5 50.5t-43.5 41t-72 16.5
q-41 0 -72 -16.5t-47.5 -41.5t-17.5 -50h268z" />
    <glyph glyph-name="f" unicode="f" horiz-adv-x="368" 
d="M104 480v58q0 85 40 129.5t106 44.5q36 0 62 -16v-94q-21 14 -48 14q-64 0 -64 -81v-55h112v-96h-112v-384h-96v384h-64v96h64z" />
    <glyph glyph-name="g" unicode="g" 
d="M536 480v-450q0 -146 -68.5 -220t-187.5 -74q-79 0 -132.5 25t-91.5 55l48 86q42 -33 81 -51.5t95 -18.5q75 0 117.5 48t42.5 136v54q-29 -38 -70 -58t-90 -20q-69 0 -123.5 33t-85.5 90t-31 125t31 125t85.5 90t123.5 33q49 0 90 -20t70 -58v70h96zM364 108.5
q35 20.5 55.5 55.5t20.5 76t-20.5 76t-55.5 55.5t-76 20.5t-76 -20.5t-55.5 -55.5t-20.5 -76t20.5 -76t55.5 -55.5t76 -20.5t76 20.5z" />
    <glyph glyph-name="h" unicode="h" horiz-adv-x="560" 
d="M456.5 431.5q47.5 -56.5 47.5 -163.5v-268h-96v268q0 61 -24.5 92.5t-83.5 31.5q-30 0 -61 -15.5t-51 -44.5t-20 -68v-264h-96v704h96v-280q56 64 150 64q91 0 138.5 -56.5z" />
    <glyph glyph-name="i" unicode="i" horiz-adv-x="240" 
d="M69 581q-21 21 -21 51t21 51t51 21t51 -21t21 -51t-21 -51t-51 -21t-51 21zM72 480h96v-480h-96v480z" />
    <glyph glyph-name="j" unicode="j" horiz-adv-x="240" 
d="M69 581q-21 21 -21 51t21 51t51 21t51 -21t21 -51t-21 -51t-51 -21t-51 21zM72 480h96v-498q0 -99 -29 -152t-65.5 -70t-81.5 -24l-24 88q49 10 76.5 42t27.5 102v512z" />
    <glyph glyph-name="k" unicode="k" horiz-adv-x="512" 
d="M504 0h-128l-208 204v-204h-96v704h96v-420l192 196h128l-240 -232z" />
    <glyph glyph-name="l" unicode="l" horiz-adv-x="240" 
d="M168 704v-704h-96v704h96z" />
    <glyph glyph-name="m" unicode="m" horiz-adv-x="832" 
d="M731 431q45 -57 45 -163v-268h-96v268q0 124 -92 124q-30 0 -56.5 -15.5t-43 -44.5t-16.5 -68v-264h-96v268q0 124 -92 124q-30 0 -56.5 -15.5t-43 -44.5t-16.5 -68v-264h-96v480h96v-56q27 31 55.5 47.5t78.5 16.5q94 0 138 -76q38 41 76.5 58.5t89.5 17.5q80 0 125 -57
z" />
    <glyph glyph-name="n" unicode="n" horiz-adv-x="560" 
d="M454.5 434q49.5 -54 49.5 -158v-276h-96v268q0 61 -24.5 92.5t-83.5 31.5q-30 0 -61 -15.5t-51 -44.5t-20 -68v-264h-96v480h96v-56q56 64 150 64q87 0 136.5 -54z" />
    <glyph glyph-name="o" unicode="o" horiz-adv-x="576" 
d="M412 454.5q57 -33.5 90.5 -90.5t33.5 -124t-33.5 -124t-90.5 -90.5t-124 -33.5t-124 33.5t-90.5 90.5t-33.5 124t33.5 124t90.5 90.5t124 33.5t124 -33.5zM364 108.5q35 20.5 55.5 55.5t20.5 76t-20.5 76t-55.5 55.5t-76 20.5t-76 -20.5t-55.5 -55.5t-20.5 -76t20.5 -76
t55.5 -55.5t76 -20.5t76 20.5z" />
    <glyph glyph-name="p" unicode="p" 
d="M451.5 455q54.5 -33 85.5 -90t31 -125t-31 -125t-85.5 -90t-123.5 -33q-49 0 -90 20t-70 58v-326h-96v736h96v-70q29 38 70 58t90 20q69 0 123.5 -33zM396 108.5q35 20.5 55.5 55.5t20.5 76t-20.5 76t-55.5 55.5t-76 20.5t-76 -20.5t-55.5 -55.5t-20.5 -76t20.5 -76
t55.5 -55.5t76 -20.5t76 20.5z" />
    <glyph glyph-name="q" unicode="q" 
d="M370 468q41 -20 70 -58v70h96v-736h-96v326q-29 -38 -70 -58t-90 -20q-69 0 -123.5 33t-85.5 90t-31 125t31 125t85.5 90t123.5 33q49 0 90 -20zM364 108.5q35 20.5 55.5 55.5t20.5 76t-20.5 76t-55.5 55.5t-76 20.5t-76 -20.5t-55.5 -55.5t-20.5 -76t20.5 -76
t55.5 -55.5t76 -20.5t76 20.5z" />
    <glyph glyph-name="r" unicode="r" horiz-adv-x="400" 
d="M243 458.5q50 29.5 117 29.5v-105q-17 5 -36 5q-26 0 -52 -9q-49 -19 -76.5 -60t-27.5 -105v-214h-96v480h96v-103q25 52 75 81.5z" />
    <glyph glyph-name="s" unicode="s" horiz-adv-x="480" 
d="M401 239q39 -38 39 -89q0 -73 -50 -115.5t-142 -42.5q-70 0 -127.5 23t-80.5 45l38 94q29 -28 79 -47t92 -19q44 0 69.5 14.5t25.5 36.5q0 25 -23 38.5t-71 22.5q-77 14 -119 34t-58.5 48t-16.5 69q0 40 24 71t68.5 48.5t102.5 17.5q37 0 83 -11t91 -35l-33 -90
q-19 14 -62 27t-85 13q-40 0 -66.5 -10t-26.5 -32q0 -17 15 -26.5t32.5 -13.5t65.5 -14q97 -19 136 -57z" />
    <glyph glyph-name="t" unicode="t" horiz-adv-x="352" 
d="M104 384h-64v96h64v192h96v-192h96v-96h-96v-200q0 -34 3 -54t16 -29q14 -10 32 -10q19 0 45 12v-97q-29 -14 -71 -14q-64 0 -92.5 45t-28.5 120v227z" />
    <glyph glyph-name="u" unicode="u" horiz-adv-x="560" 
d="M105.5 46q-49.5 54 -49.5 158v276h96v-268q0 -61 24.5 -92.5t83.5 -31.5q30 0 61 15.5t51 44.5t20 68v264h96v-480h-96v56q-56 -64 -150 -64q-87 0 -136.5 54z" />
    <glyph glyph-name="v" unicode="v" horiz-adv-x="480" 
d="M8 480h104l128 -280l128 280h104l-232 -496z" />
    <glyph glyph-name="w" unicode="w" horiz-adv-x="752" 
d="M736 480l-208 -496l-152 308l-152 -308l-208 496h104l112 -286l144 302l144 -302l112 286h104z" />
    <glyph glyph-name="x" unicode="x" horiz-adv-x="528" 
d="M504 0h-114l-126 181l-126 -181h-114l183 255l-168 225h114l111 -158l111 158h114l-168 -225z" />
    <glyph glyph-name="y" unicode="y" horiz-adv-x="512" 
d="M504 480l-325 -736h-105l128 287l-194 449h107l141 -332l141 332h107z" />
    <glyph glyph-name="z" unicode="z" horiz-adv-x="480" 
d="M40 0l236 384h-220v96h384l-238 -384h222v-96h-384z" />
    <glyph glyph-name="braceleft" unicode="{" horiz-adv-x="384" 
d="M268 -98q20 -29 60 -38l-32 -88q-75 25 -109.5 70.5t-34.5 111.5v234q0 27 -15.5 50.5t-38 40t-42.5 21.5q20 5 42.5 21.5t38 40t15.5 50.5v234q0 66 34.5 111.5t109.5 70.5l32 -88q-40 -9 -60 -38t-20 -68v-188q0 -117 -67 -146q67 -29 67 -146v-188q0 -39 20 -68z" />
    <glyph glyph-name="bar" unicode="|" horiz-adv-x="208" 
d="M72 -256v1024h64v-1024h-64z" />
    <glyph glyph-name="braceright" unicode="}" horiz-adv-x="384" 
d="M136 158q0 117 67 146q-67 29 -67 146v188q0 39 -20 68t-60 38l32 88q75 -25 109.5 -70.5t34.5 -111.5v-234q0 -27 15.5 -50.5t38 -40t42.5 -21.5q-20 -5 -42.5 -21.5t-38 -40t-15.5 -50.5v-234q0 -66 -34.5 -111.5t-109.5 -70.5l-32 88q40 9 60 38t20 68v188z" />
    <glyph glyph-name="asciitilde" unicode="~" horiz-adv-x="520" 
d="M464 312q-24 -45 -53.5 -60t-69.5 -15q-18 0 -41.5 7t-44.5 14.5t-29 10.5q-30 11 -50 11q-38 0 -60 -43l-60 29q24 45 53.5 60t69.5 15q17 0 38.5 -6.5t56.5 -19.5l20 -7q27 -10 49 -10q40 0 61 43z" />
    <glyph glyph-name="exclamdown" unicode="&#xa1;" horiz-adv-x="288" 
d="M195.5 467q20.5 -21 20.5 -51t-20.5 -51t-51.5 -21q-30 0 -51 21t-21 51t21 51t51 21q31 0 51.5 -21zM176 288l32 -480h-128l32 480h64z" />
    <glyph glyph-name="cent" unicode="&#xa2;" horiz-adv-x="496" 
d="M456 47q-25 -24 -63.5 -38t-80.5 -17v-72h-48v74q-69 6 -120 40t-77.5 88t-26.5 118t27 118t78 88t119 40v74h48v-72q42 -2 79.5 -16t64.5 -39l-41 -89q-23 22 -53.5 35t-64.5 13q-44 0 -81 -20.5t-58.5 -55.5t-21.5 -75q0 -41 21.5 -76.5t58.5 -56t81 -20.5
q34 0 64.5 13t53.5 36z" />
    <glyph glyph-name="sterling" unicode="&#xa3;" horiz-adv-x="592" 
d="M552 106q-29 -60 -75.5 -87t-92.5 -27q-31 0 -47 4.5t-49 18.5q-45 19 -78 19q-44 0 -66 -34l-104 112q11 29 46 56q27 21 37.5 44t10.5 50q0 16 -4 42h-90v64h72q-24 72 -24 120q0 50 27 94t78 71t120 27q63 0 112 -18t97 -62l-50 -80q-65 64 -150 64q-58 0 -98 -28.5
t-40 -90.5q0 -21 15 -66q2 -7 4.5 -15t4.5 -16h168v-64h-152q4 -17 4 -44q0 -41 -16 -79t-53 -66q31 8 61 8q26 0 46 -4.5t54 -15.5q41 -15 64 -15t47.5 15.5t40.5 48.5z" />
    <glyph glyph-name="currency" unicode="&#xa4;" horiz-adv-x="510" 
d="M375 240l79 -78l-39 -41l-80 78q-35 -23 -79 -23q-46 0 -82 25l-79 -80l-39 40l78 80q-23 35 -23 79t24 79l-79 81l41 39l78 -79q37 24 81 24q45 0 81 -25l76 80l41 -39l-79 -80q24 -37 24 -80q0 -45 -24 -80zM199 376q-24 -24 -24 -56t24 -56t56 -24t56 24t24 56t-24 56
t-56 24t-56 -24z" />
    <glyph glyph-name="yen" unicode="&#xa5;" horiz-adv-x="656" 
d="M376 272h112v-48h-112v-64h112v-48h-112v-112h-96v112h-112v48h112v64h-112v48h112l-240 400h108l180 -308l180 308h108z" />
    <glyph glyph-name="brokenbar" unicode="&#xa6;" horiz-adv-x="208" 
d="M72 416v352h64v-352h-64zM72 -256v352h64v-352h-64z" />
    <glyph glyph-name="section" unicode="&#xa7;" horiz-adv-x="624" 
d="M568 37q0 -59 -31 -105.5t-88.5 -73t-134.5 -26.5q-103 0 -167.5 38.5t-90.5 70.5l48 86q42 -47 97.5 -73t114.5 -26q75 0 115.5 28t40.5 77q0 39 -40.5 64.5t-112.5 38.5q-133 23 -186.5 69.5t-53.5 119.5q0 82 57 134q-57 45 -57 122q0 55 28 99.5t83 70t131 25.5
q45 0 104.5 -15.5t112.5 -64.5l-46 -87q-73 71 -173 71q-69 0 -106.5 -25t-37.5 -70q0 -38 35 -59.5t117 -37.5q125 -24 183 -68.5t58 -126.5q0 -79 -54 -133q54 -45 54 -123zM210 269.5q35 -21.5 117 -37.5q57 -11 97 -25q48 29 48 82q0 39 -40.5 64.5t-112.5 38.5
q-40 6 -83 19q-30 -11 -45.5 -32t-15.5 -50q0 -38 35 -59.5z" />
    <glyph glyph-name="dieresis" unicode="&#xa8;" horiz-adv-x="816" 
d="M280.5 752.5q-16.5 16.5 -16.5 39.5q0 24 16.5 40t39.5 16q24 0 40 -16t16 -40q0 -23 -16 -39.5t-40 -16.5q-23 0 -39.5 16.5zM456.5 752.5q-16.5 16.5 -16.5 39.5q0 24 16.5 40t39.5 16q24 0 40 -16t16 -40q0 -23 -16 -39.5t-40 -16.5q-23 0 -39.5 16.5z" />
    <glyph glyph-name="copyright" unicode="&#xa9;" horiz-adv-x="696" 
d="M200 187q-67 39 -105.5 106t-38.5 147q0 81 38.5 148t105.5 105.5t148 38.5t148 -38.5t105.5 -105.5t38.5 -148t-38.5 -148t-105.5 -105.5t-148 -38.5t-148 39zM473 225q57 33 90 90t33 125t-33 125t-90 90t-125 33t-125 -33t-90 -90t-33 -125t33 -125t90 -90t125 -33
t125 33zM438 363l19 -40q-18 -17 -43 -26t-50 -9q-42 0 -77.5 20.5t-56.5 55.5t-21 76t21 76t56.5 55.5t77.5 20.5q25 0 50 -9t43 -25l-19 -40q-29 31 -77 31q-45 0 -77 -32t-32 -77t32 -77t77 -32q48 0 77 32z" />
    <glyph glyph-name="ordfeminine" unicode="&#xaa;" horiz-adv-x="360" 
d="M304 672v-240h-48v35q-30 -39 -80 -39q-52 0 -86 36t-34 88t34 88t86 36q51 0 80 -39v35h48zM234 498.5q22 22.5 22 53.5q0 32 -22 54t-54 22q-31 0 -53.5 -22t-22.5 -54q0 -31 22.5 -53.5t53.5 -22.5q32 0 54 22.5z" />
    <glyph glyph-name="guillemotleft" unicode="&#xab;" horiz-adv-x="624" 
d="M144 264l160 -216h-88l-160 216l160 216h88zM376 264l160 -216h-88l-160 216l160 216h88z" />
    <glyph glyph-name="logicalnot" unicode="&#xac;" 
d="M552 112h-64v160h-432v64h496v-224z" />
    <glyph glyph-name="registered" unicode="&#xae;" horiz-adv-x="696" 
d="M200 187q-67 39 -105.5 106t-38.5 147q0 81 38.5 148t105.5 105.5t148 38.5t148 -38.5t105.5 -105.5t38.5 -148t-38.5 -148t-105.5 -105.5t-148 -38.5t-148 39zM473 225q57 33 90 90t33 125t-33 125t-90 90t-125 33t-125 -33t-90 -90t-33 -125t33 -125t90 -90t125 -33
t125 33zM415 290l-74 104h-47v-104h-43v300h93q57 0 85.5 -26t28.5 -70q0 -35 -18.5 -61t-51.5 -35l77 -108h-50zM294 436h64q25 0 41 14t16 41q0 29 -15.5 42.5t-41.5 13.5h-64v-111z" />
    <glyph glyph-name="macron" unicode="&#xaf;" horiz-adv-x="816" 
d="M272 752v56h272v-56h-272z" />
    <glyph glyph-name="degree" unicode="&#xb0;" horiz-adv-x="400" 
d="M128 411q-33 19 -52.5 52t-19.5 73q0 39 19.5 72t52.5 52.5t73 19.5q39 0 72 -19.5t52 -52.5t19 -72q0 -40 -19 -73t-52 -52t-72 -19q-40 0 -73 19zM256 480q24 24 24 56t-24 56t-56 24t-56 -24t-24 -56t24 -56t56 -24t56 24z" />
    <glyph glyph-name="plusminus" unicode="&#xb1;" horiz-adv-x="480" 
d="M424 392h-152v-152h-64v152h-152v64h152v152h64v-152h152v-64zM424 112v-64h-368v64h368z" />
    <glyph glyph-name="uni00B2" unicode="&#xb2;" horiz-adv-x="360" 
d="M97 725.5q30 30.5 79 30.5q48 0 80 -30t32 -78q0 -31 -17.5 -58.5t-57.5 -69.5l-52 -56h143v-48h-248l123 135q31 34 46 55t15 39q0 28 -17.5 45.5t-46.5 17.5q-27 0 -44 -18t-19 -46l-49 8q3 43 33 73.5z" />
    <glyph glyph-name="uni00B3" unicode="&#xb3;" horiz-adv-x="352" 
d="M282 566q14 -21 14 -46q0 -43 -29.5 -75.5t-90.5 -32.5q-53 0 -84.5 29.5t-35.5 78.5l48 8q9 -68 75 -68q32 0 50.5 16t18.5 40q0 28 -22 38t-66 10v48q31 1 55.5 11.5t24.5 36.5q0 19 -16 33.5t-45 14.5q-61 0 -67 -64l-48 8q4 45 35 74.5t77 29.5q37 0 62 -14.5
t37.5 -35.5t12.5 -42q0 -47 -40 -70q20 -7 34 -28z" />
    <glyph glyph-name="acute" unicode="&#xb4;" horiz-adv-x="816" 
d="M416 864h112l-128 -128h-64z" />
    <glyph glyph-name="paragraph" unicode="&#xb6;" horiz-adv-x="688" 
d="M536 592v-820h-80v820h-160v-820h-80v566q-46 0 -82.5 22.5t-57 61t-20.5 84.5q0 45 20.5 83t57.5 60.5t82 22.5h416v-80h-96z" />
    <glyph glyph-name="periodcentered" unicode="&#xb7;" horiz-adv-x="256" 
d="M77 285q-21 21 -21 51q0 31 21 51.5t51 20.5q31 0 51.5 -20.5t20.5 -51.5q0 -30 -20.5 -51t-51.5 -21q-30 0 -51 21z" />
    <glyph glyph-name="cedilla" unicode="&#xb8;" horiz-adv-x="816" 
d="M454 0l-45 -48q14 3 28 3q47 0 79 -33t32 -82q0 -41 -19.5 -73.5t-54 -51.5t-77.5 -19q-79 0 -121 63l48 45q11 -20 29.5 -32t50.5 -12q38 0 63 23t25 58q0 30 -21 50.5t-51 20.5q-37 0 -67 -24l-32 48l61 64h72z" />
    <glyph glyph-name="uni00B9" unicode="&#xb9;" horiz-adv-x="328" 
d="M208 768v-344h-48v282l-56 -18v44z" />
    <glyph glyph-name="ordmasculine" unicode="&#xba;" horiz-adv-x="360" 
d="M268 640q36 -36 36 -88q0 -51 -36 -87.5t-88 -36.5q-33 0 -61.5 17t-45.5 45.5t-17 61.5q0 52 36.5 88t87.5 36q52 0 88 -36zM233.5 498.5q22.5 22.5 22.5 53.5q0 32 -22 54t-54 22q-31 0 -53.5 -22.5t-22.5 -53.5t22.5 -53.5t53.5 -22.5t53.5 22.5z" />
    <glyph glyph-name="guillemotright" unicode="&#xbb;" horiz-adv-x="624" 
d="M176 480l160 -216l-160 -216h-88l160 216l-160 216h88zM408 480l160 -216l-160 -216h-88l160 216l-160 216h88z" />
    <glyph glyph-name="onequarter" unicode="&#xbc;" horiz-adv-x="900" 
d="M208 680v-344h-48v282l-56 -18v44zM176 0l468 672h64l-468 -672h-64zM844 104v-48h-40v-56h-48v56h-176l224 288v-240h40zM756 215l-81 -111h81v111z" />
    <glyph glyph-name="onehalf" unicode="&#xbd;" horiz-adv-x="916" 
d="M208 680v-344h-48v282l-56 -18v44zM176 0l468 672h64l-468 -672h-64zM653 309.5q30 30.5 79 30.5q48 0 80 -30t32 -78q0 -31 -17.5 -58.5t-57.5 -69.5l-52 -56h143v-48h-248l123 135q31 34 46 55t15 39q0 28 -17.5 45.5t-46.5 17.5q-27 0 -44 -18t-19 -46l-49 8
q3 43 33 73.5z" />
    <glyph glyph-name="threequarters" unicode="&#xbe;" horiz-adv-x="924" 
d="M282 486q14 -21 14 -46q0 -43 -29.5 -75.5t-90.5 -32.5q-53 0 -84.5 29.5t-35.5 78.5l48 8q9 -68 75 -68q32 0 50.5 16t18.5 40q0 28 -22 38t-66 10v48q31 1 55.5 11.5t24.5 36.5q0 19 -16 33.5t-45 14.5q-61 0 -67 -64l-48 8q4 45 35 74.5t77 29.5q37 0 62 -14.5
t37.5 -35.5t12.5 -42q0 -47 -40 -70q20 -7 34 -28zM200 0l468 672h64l-468 -672h-64zM868 104v-48h-40v-56h-48v56h-176l224 288v-240h40zM780 215l-81 -111h81v111z" />
    <glyph glyph-name="questiondown" unicode="&#xbf;" horiz-adv-x="528" 
d="M220.5 365q-20.5 21 -20.5 51t20.5 51t51.5 21q30 0 51 -21t21 -51t-21 -51t-51 -21q-31 0 -51.5 21zM151 -171.5q-49 28.5 -72 72.5t-23 91q0 51 23 87.5t71 76.5q38 31 55.5 62t18.5 70h96q2 -37 -12.5 -79t-48.5 -78q-11 -12 -37 -34q-36 -33 -53 -55t-17 -50
q0 -41 31.5 -68.5t87.5 -27.5q52 0 88 23t57 55l56 -78q-87 -96 -200 -96q-72 0 -121 28.5z" />
    <glyph glyph-name="Agrave" unicode="&#xc0;" horiz-adv-x="656" 
d="M312 736l-128 128h112l80 -128h-64zM479 144h-302l-65 -144h-104l320 688l320 -688h-104zM435 240l-107 236l-107 -236h214z" />
    <glyph glyph-name="Aacute" unicode="&#xc1;" horiz-adv-x="656" 
d="M360 864h112l-128 -128h-64zM479 144h-302l-65 -144h-104l320 688l320 -688h-104zM435 240l-107 236l-107 -236h214z" />
    <glyph glyph-name="Acircumflex" unicode="&#xc2;" horiz-adv-x="656" 
d="M328 788l-53 -52h-99l152 136l152 -136h-99zM479 144h-302l-65 -144h-104l320 688l320 -688h-104zM435 240l-107 236l-107 -236h214z" />
    <glyph glyph-name="Atilde" unicode="&#xc3;" horiz-adv-x="656" 
d="M504 811q-21 -42 -48 -58.5t-60 -16.5q-18 0 -33 4.5t-39 13.5q-37 16 -60 16q-33 0 -51 -34l-61 23q40 73 110 73q18 0 31 -4t37 -13q41 -17 63 -17q32 0 50 34zM479 144h-302l-65 -144h-104l320 688l320 -688h-104zM435 240l-107 236l-107 -236h214z" />
    <glyph glyph-name="Adieresis" unicode="&#xc4;" horiz-adv-x="656" 
d="M200.5 752.5q-16.5 16.5 -16.5 39.5q0 24 16.5 40t39.5 16q24 0 40 -16t16 -40q0 -23 -16 -39.5t-40 -16.5q-23 0 -39.5 16.5zM376.5 752.5q-16.5 16.5 -16.5 39.5q0 24 16.5 40t39.5 16q24 0 40 -16t16 -40q0 -23 -16 -39.5t-40 -16.5q-23 0 -39.5 16.5zM479 144h-302
l-65 -144h-104l320 688l320 -688h-104zM435 240l-107 236l-107 -236h214z" />
    <glyph glyph-name="Aring" unicode="&#xc5;" horiz-adv-x="656" 
d="M407.5 911.5q32.5 -32.5 32.5 -79.5q0 -46 -32.5 -79t-79.5 -33q-46 0 -79 33t-33 79q0 47 33 79.5t79 32.5q47 0 79.5 -32.5zM367.5 792.5q16.5 16.5 16.5 39.5t-16.5 39.5t-39.5 16.5t-39.5 -16.5t-16.5 -39.5t16.5 -39.5t39.5 -16.5t39.5 16.5zM479 144h-302l-65 -144
h-104l320 688l320 -688h-104zM435 240l-107 236l-107 -236h214z" />
    <glyph glyph-name="AE" unicode="&#xc6;" horiz-adv-x="800" 
d="M456 576v-192h240v-96h-240v-192h288v-96h-384v144h-174l-74 -144h-104l352 672h384v-96h-288zM360 240v240l-124 -240h124z" />
    <glyph glyph-name="Ccedilla" unicode="&#xc7;" horiz-adv-x="640" 
d="M516.5 18q-47.5 -20 -97.5 -25l-38 -41q14 3 28 3q47 0 79 -33t32 -82q0 -41 -19.5 -73.5t-54 -51.5t-77.5 -19q-79 0 -121 63l48 45q11 -20 29.5 -32t50.5 -12q38 0 63 23t25 58q0 30 -21 50.5t-51 20.5q-37 0 -67 -24l-32 48l56 58q-86 10 -156.5 58t-111.5 123
t-41 161q0 93 47 172t127.5 125.5t175.5 46.5q57 0 113 -20t97 -58l-41 -90q-36 36 -77.5 54t-97.5 18q-67 0 -124 -33.5t-90.5 -90.5t-33.5 -124t33.5 -124t90.5 -90.5t124 -33.5q56 0 98 18t77 55l41 -90q-36 -33 -83.5 -53z" />
    <glyph glyph-name="Egrave" unicode="&#xc8;" horiz-adv-x="512" 
d="M272 736l-128 128h112l80 -128h-64zM168 576v-192h240v-96h-240v-192h288v-96h-384v672h384v-96h-288z" />
    <glyph glyph-name="Eacute" unicode="&#xc9;" horiz-adv-x="512" 
d="M272 864h112l-128 -128h-64zM168 576v-192h240v-96h-240v-192h288v-96h-384v672h384v-96h-288z" />
    <glyph glyph-name="Ecircumflex" unicode="&#xca;" horiz-adv-x="512" 
d="M256 788l-53 -52h-99l152 136l152 -136h-99zM168 576v-192h240v-96h-240v-192h288v-96h-384v672h384v-96h-288z" />
    <glyph glyph-name="Edieresis" unicode="&#xcb;" horiz-adv-x="512" 
d="M128.5 752.5q-16.5 16.5 -16.5 39.5q0 24 16.5 40t39.5 16q24 0 40 -16t16 -40q0 -23 -16 -39.5t-40 -16.5q-23 0 -39.5 16.5zM304.5 752.5q-16.5 16.5 -16.5 39.5q0 24 16.5 40t39.5 16q24 0 40 -16t16 -40q0 -23 -16 -39.5t-40 -16.5q-23 0 -39.5 16.5zM168 576v-192
h240v-96h-240v-192h288v-96h-384v672h384v-96h-288z" />
    <glyph glyph-name="Igrave" unicode="&#xcc;" horiz-adv-x="240" 
d="M104 736l-128 128h112l80 -128h-64zM72 0v672h96v-672h-96z" />
    <glyph glyph-name="Iacute" unicode="&#xcd;" horiz-adv-x="240" 
d="M152 864h112l-128 -128h-64zM72 0v672h96v-672h-96z" />
    <glyph glyph-name="Icircumflex" unicode="&#xce;" horiz-adv-x="240" 
d="M120 788l-53 -52h-99l152 136l152 -136h-99zM72 0v672h96v-672h-96z" />
    <glyph glyph-name="Idieresis" unicode="&#xcf;" horiz-adv-x="240" 
d="M-7.5 752.5q-16.5 16.5 -16.5 39.5q0 24 16.5 40t39.5 16q24 0 40 -16t16 -40q0 -23 -16 -39.5t-40 -16.5q-23 0 -39.5 16.5zM168.5 752.5q-16.5 16.5 -16.5 39.5q0 24 16.5 40t39.5 16q24 0 40 -16t16 -40q0 -23 -16 -39.5t-40 -16.5q-23 0 -39.5 16.5zM72 0v672h96
v-672h-96z" />
    <glyph glyph-name="Eth" unicode="&#xd0;" horiz-adv-x="672" 
d="M475.5 627.5q77.5 -44.5 117 -120.5t39.5 -171q0 -94 -40.5 -170.5t-118.5 -121t-184 -44.5h-201v304h-64v64h64v304h201q109 0 186.5 -44.5zM428.5 128q50.5 32 79 87t28.5 121t-28.5 121t-79 87t-114.5 32h-130v-208h64v-64h-64v-208h130q64 0 114.5 32z" />
    <glyph glyph-name="Ntilde" unicode="&#xd1;" horiz-adv-x="704" 
d="M528 811q-21 -42 -48 -58.5t-60 -16.5q-18 0 -33 4.5t-39 13.5q-37 16 -60 16q-33 0 -51 -34l-61 23q40 73 110 73q18 0 31 -4t37 -13q41 -17 63 -17q32 0 50 34zM168 460v-460h-96v688l464 -476v460h96v-688z" />
    <glyph glyph-name="Ograve" unicode="&#xd2;" horiz-adv-x="768" 
d="M376 736l-128 128h112l80 -128h-64zM556 633.5q79 -46.5 125.5 -125.5t46.5 -172t-46.5 -172t-125.5 -125.5t-172 -46.5t-172 46.5t-125.5 125.5t-46.5 172t46.5 172t125.5 125.5t172 46.5t172 -46.5zM509 121q57 33 90 90t33 125t-33 125t-90 90t-125 33t-125 -33
t-90 -90t-33 -125t33 -125t90 -90t125 -33t125 33z" />
    <glyph glyph-name="Oacute" unicode="&#xd3;" horiz-adv-x="768" 
d="M408 864h112l-128 -128h-64zM556 633.5q79 -46.5 125.5 -125.5t46.5 -172t-46.5 -172t-125.5 -125.5t-172 -46.5t-172 46.5t-125.5 125.5t-46.5 172t46.5 172t125.5 125.5t172 46.5t172 -46.5zM509 121q57 33 90 90t33 125t-33 125t-90 90t-125 33t-125 -33t-90 -90
t-33 -125t33 -125t90 -90t125 -33t125 33z" />
    <glyph glyph-name="Ocircumflex" unicode="&#xd4;" horiz-adv-x="768" 
d="M384 788l-53 -52h-99l152 136l152 -136h-99zM556 633.5q79 -46.5 125.5 -125.5t46.5 -172t-46.5 -172t-125.5 -125.5t-172 -46.5t-172 46.5t-125.5 125.5t-46.5 172t46.5 172t125.5 125.5t172 46.5t172 -46.5zM509 121q57 33 90 90t33 125t-33 125t-90 90t-125 33
t-125 -33t-90 -90t-33 -125t33 -125t90 -90t125 -33t125 33z" />
    <glyph glyph-name="Otilde" unicode="&#xd5;" horiz-adv-x="768" 
d="M560 811q-21 -42 -48 -58.5t-60 -16.5q-18 0 -33 4.5t-39 13.5q-37 16 -60 16q-33 0 -51 -34l-61 23q40 73 110 73q18 0 31 -4t37 -13q41 -17 63 -17q32 0 50 34zM556 633.5q79 -46.5 125.5 -125.5t46.5 -172t-46.5 -172t-125.5 -125.5t-172 -46.5t-172 46.5
t-125.5 125.5t-46.5 172t46.5 172t125.5 125.5t172 46.5t172 -46.5zM509 121q57 33 90 90t33 125t-33 125t-90 90t-125 33t-125 -33t-90 -90t-33 -125t33 -125t90 -90t125 -33t125 33z" />
    <glyph glyph-name="Odieresis" unicode="&#xd6;" horiz-adv-x="768" 
d="M256.5 752.5q-16.5 16.5 -16.5 39.5q0 24 16.5 40t39.5 16q24 0 40 -16t16 -40q0 -23 -16 -39.5t-40 -16.5q-23 0 -39.5 16.5zM432.5 752.5q-16.5 16.5 -16.5 39.5q0 24 16.5 40t39.5 16q24 0 40 -16t16 -40q0 -23 -16 -39.5t-40 -16.5q-23 0 -39.5 16.5zM556 633.5
q79 -46.5 125.5 -125.5t46.5 -172t-46.5 -172t-125.5 -125.5t-172 -46.5t-172 46.5t-125.5 125.5t-46.5 172t46.5 172t125.5 125.5t172 46.5t172 -46.5zM509 121q57 33 90 90t33 125t-33 125t-90 90t-125 33t-125 -33t-90 -90t-33 -125t33 -125t90 -90t125 -33t125 33z" />
    <glyph glyph-name="multiply" unicode="&#xd7;" horiz-adv-x="438" 
d="M382 421l-118 -117l118 -117l-46 -46l-117 118l-117 -118l-46 46l118 117l-118 117l46 46l117 -118l117 118z" />
    <glyph glyph-name="Oslash" unicode="&#xd8;" horiz-adv-x="768" 
d="M700.5 471q27.5 -64 27.5 -135q0 -93 -46.5 -172t-125.5 -125.5t-172 -46.5q-57 0 -110 18t-97 51l-53 -61h-56l76 89q-49 48 -76.5 112t-27.5 135q0 93 46.5 172t125.5 125.5t172 46.5q57 0 110 -18t97 -51l53 61h56l-76 -89q49 -48 76.5 -112zM154.5 241
q18.5 -45 52.5 -79l322 376q-65 46 -145 46q-68 0 -125 -33t-90 -90t-33 -125q0 -50 18.5 -95zM509 121q57 33 90 90t33 125q0 50 -18.5 95t-52.5 79l-322 -376q65 -46 145 -46q68 0 125 33z" />
    <glyph glyph-name="Ugrave" unicode="&#xd9;" horiz-adv-x="624" 
d="M312 736l-128 128h112l80 -128h-64zM568 672v-376q0 -139 -64.5 -221.5t-191.5 -82.5q-130 0 -193 82t-63 222v376h96v-408q0 -79 42.5 -127.5t117.5 -48.5q74 0 117 48.5t43 127.5v408h96z" />
    <glyph glyph-name="Uacute" unicode="&#xda;" horiz-adv-x="624" 
d="M328 864h112l-128 -128h-64zM568 672v-376q0 -139 -64.5 -221.5t-191.5 -82.5q-130 0 -193 82t-63 222v376h96v-408q0 -79 42.5 -127.5t117.5 -48.5q74 0 117 48.5t43 127.5v408h96z" />
    <glyph glyph-name="Ucircumflex" unicode="&#xdb;" horiz-adv-x="624" 
d="M312 788l-53 -52h-99l152 136l152 -136h-99zM568 672v-376q0 -139 -64.5 -221.5t-191.5 -82.5q-130 0 -193 82t-63 222v376h96v-408q0 -79 42.5 -127.5t117.5 -48.5q74 0 117 48.5t43 127.5v408h96z" />
    <glyph glyph-name="Udieresis" unicode="&#xdc;" horiz-adv-x="624" 
d="M184.5 752.5q-16.5 16.5 -16.5 39.5q0 24 16.5 40t39.5 16q24 0 40 -16t16 -40q0 -23 -16 -39.5t-40 -16.5q-23 0 -39.5 16.5zM360.5 752.5q-16.5 16.5 -16.5 39.5q0 24 16.5 40t39.5 16q24 0 40 -16t16 -40q0 -23 -16 -39.5t-40 -16.5q-23 0 -39.5 16.5zM568 672v-376
q0 -139 -64.5 -221.5t-191.5 -82.5q-130 0 -193 82t-63 222v376h96v-408q0 -79 42.5 -127.5t117.5 -48.5q74 0 117 48.5t43 127.5v408h96z" />
    <glyph glyph-name="Yacute" unicode="&#xdd;" horiz-adv-x="592" 
d="M328 864h112l-128 -128h-64zM584 672l-240 -400v-272h-96v272l-240 400h108l180 -308l180 308h108z" />
    <glyph glyph-name="Thorn" unicode="&#xde;" horiz-adv-x="576" 
d="M471.5 514q64.5 -58 64.5 -157q0 -63 -27 -114.5t-78.5 -81t-120.5 -29.5h-142v-132h-96v704h96v-132h112q127 0 191.5 -58zM404 258.5q36 30.5 36 92.5t-39 93.5t-96 31.5h-137v-248h143q57 0 93 30.5z" />
    <glyph glyph-name="germandbls" unicode="&#xdf;" horiz-adv-x="544" 
d="M152 504q0 48 30.5 80t75.5 32q43 0 72.5 -23t29.5 -65q0 -20 -10.5 -40t-29.5 -35q-49 -37 -136 -37v-96q94 0 143 -16q36 -12 58.5 -40t22.5 -64q0 -62 -42 -87t-103 -25q-41 0 -79 8v-96q43 -8 87 -8q72 0 125 29.5t80.5 78.5t27.5 104q0 64 -37 115t-98 65
q32 16 61 56t29 92q0 44 -21 85.5t-64.5 68t-107.5 26.5q-63 0 -136.5 -42t-73.5 -182v-488h96v504z" />
    <glyph glyph-name="agrave" unicode="&#xe0;" 
d="M360 544l-128 128h112l80 -128h-64zM536 480v-480h-96v70q-29 -38 -70 -58t-90 -20q-69 0 -123.5 33t-85.5 90t-31 125t31 125t85.5 90t123.5 33q49 0 90 -20t70 -58v70h96zM364 108.5q35 20.5 55.5 55.5t20.5 76t-20.5 76t-55.5 55.5t-76 20.5t-76 -20.5t-55.5 -55.5
t-20.5 -76t20.5 -76t55.5 -55.5t76 -20.5t76 20.5z" />
    <glyph glyph-name="aacute" unicode="&#xe1;" 
d="M344 672h112l-128 -128h-64zM536 480v-480h-96v70q-29 -38 -70 -58t-90 -20q-69 0 -123.5 33t-85.5 90t-31 125t31 125t85.5 90t123.5 33q49 0 90 -20t70 -58v70h96zM364 108.5q35 20.5 55.5 55.5t20.5 76t-20.5 76t-55.5 55.5t-76 20.5t-76 -20.5t-55.5 -55.5t-20.5 -76
t20.5 -76t55.5 -55.5t76 -20.5t76 20.5z" />
    <glyph glyph-name="acircumflex" unicode="&#xe2;" 
d="M320 596l-53 -52h-99l152 136l152 -136h-99zM536 480v-480h-96v70q-29 -38 -70 -58t-90 -20q-69 0 -123.5 33t-85.5 90t-31 125t31 125t85.5 90t123.5 33q49 0 90 -20t70 -58v70h96zM364 108.5q35 20.5 55.5 55.5t20.5 76t-20.5 76t-55.5 55.5t-76 20.5t-76 -20.5
t-55.5 -55.5t-20.5 -76t20.5 -76t55.5 -55.5t76 -20.5t76 20.5z" />
    <glyph glyph-name="atilde" unicode="&#xe3;" 
d="M496 619q-21 -42 -48 -58.5t-60 -16.5q-18 0 -33 4.5t-39 13.5q-37 16 -60 16q-33 0 -51 -34l-61 23q40 73 110 73q18 0 31 -4t37 -13q41 -17 63 -17q32 0 50 34zM536 480v-480h-96v70q-29 -38 -70 -58t-90 -20q-69 0 -123.5 33t-85.5 90t-31 125t31 125t85.5 90
t123.5 33q49 0 90 -20t70 -58v70h96zM364 108.5q35 20.5 55.5 55.5t20.5 76t-20.5 76t-55.5 55.5t-76 20.5t-76 -20.5t-55.5 -55.5t-20.5 -76t20.5 -76t55.5 -55.5t76 -20.5t76 20.5z" />
    <glyph glyph-name="adieresis" unicode="&#xe4;" 
d="M192.5 560.5q-16.5 16.5 -16.5 39.5q0 24 16.5 40t39.5 16q24 0 40 -16t16 -40q0 -23 -16 -39.5t-40 -16.5q-23 0 -39.5 16.5zM368.5 560.5q-16.5 16.5 -16.5 39.5q0 24 16.5 40t39.5 16q24 0 40 -16t16 -40q0 -23 -16 -39.5t-40 -16.5q-23 0 -39.5 16.5zM536 480v-480
h-96v70q-29 -38 -70 -58t-90 -20q-69 0 -123.5 33t-85.5 90t-31 125t31 125t85.5 90t123.5 33q49 0 90 -20t70 -58v70h96zM364 108.5q35 20.5 55.5 55.5t20.5 76t-20.5 76t-55.5 55.5t-76 20.5t-76 -20.5t-55.5 -55.5t-20.5 -76t20.5 -76t55.5 -55.5t76 -20.5t76 20.5z" />
    <glyph glyph-name="aring" unicode="&#xe5;" 
d="M407.5 703.5q32.5 -32.5 32.5 -79.5q0 -46 -32.5 -79t-79.5 -33q-46 0 -79 33t-33 79q0 47 33 79.5t79 32.5q47 0 79.5 -32.5zM367.5 584.5q16.5 16.5 16.5 39.5t-16.5 39.5t-39.5 16.5t-39.5 -16.5t-16.5 -39.5t16.5 -39.5t39.5 -16.5t39.5 16.5zM536 480v-480h-96v70
q-29 -38 -70 -58t-90 -20q-69 0 -123.5 33t-85.5 90t-31 125t31 125t85.5 90t123.5 33q49 0 90 -20t70 -58v70h96zM364 108.5q35 20.5 55.5 55.5t20.5 76t-20.5 76t-55.5 55.5t-76 20.5t-76 -20.5t-55.5 -55.5t-20.5 -76t20.5 -76t55.5 -55.5t76 -20.5t76 20.5z" />
    <glyph glyph-name="ae" unicode="&#xe6;" horiz-adv-x="880" 
d="M837 196h-363q11 -54 53.5 -81t102.5 -27q78 0 146 48l32 -86q-22 -18 -67.5 -38t-112.5 -20q-92 0 -156 45v-37h-96v49q-22 -27 -67.5 -42t-88.5 -15q-81 0 -130.5 44t-49.5 116q0 89 97 132q44 20 114 20q57 0 125 -14q0 58 -39.5 80t-90.5 22q-79 0 -141 -45l-45 77
q27 21 77.5 42.5t116.5 21.5q69 0 112 -19.5t69 -58.5q32 37 78 57.5t102 20.5q64 0 115 -30.5t80.5 -87t29.5 -132.5q0 -22 -3 -42zM742 284q-1 26 -15.5 50.5t-43.5 41t-72 16.5q-41 0 -72 -16.5t-47.5 -41.5t-17.5 -50h268zM376 206q-64 15 -113 15q-60 0 -93.5 -19.5
t-33.5 -51.5q0 -29 25 -45.5t61 -16.5t72 10.5t59 29t23 40.5v38z" />
    <glyph glyph-name="ccedilla" unicode="&#xe7;" horiz-adv-x="496" 
d="M397.5 11q-35.5 -14 -74.5 -18l-38 -41q14 3 28 3q47 0 79 -33t32 -82q0 -41 -19.5 -73.5t-54 -51.5t-77.5 -19q-79 0 -121 63l48 45q11 -20 29.5 -32t50.5 -12q38 0 63 23t25 58q0 30 -21 50.5t-51 20.5q-37 0 -67 -24l-32 48l56 59q-66 9 -114 43.5t-73.5 87
t-25.5 114.5q0 69 31 125.5t89.5 89.5t135.5 33q46 0 88 -14t72 -41l-41 -89q-23 22 -53.5 35t-64.5 13q-44 0 -81 -20.5t-58.5 -55.5t-21.5 -75q0 -41 21.5 -76.5t58.5 -56t81 -20.5q34 0 64.5 13t53.5 36l41 -90q-23 -22 -58.5 -36z" />
    <glyph glyph-name="egrave" unicode="&#xe8;" horiz-adv-x="544" 
d="M280 544l-128 128h112l80 -128h-64zM501 196h-363q11 -54 53.5 -81t102.5 -27q78 0 146 48l32 -86q-22 -18 -67.5 -38t-112.5 -20q-81 0 -138 33t-85.5 89.5t-28.5 125.5t29.5 125.5t83.5 89.5t126 33q64 0 115 -30.5t80.5 -87t29.5 -132.5q0 -22 -3 -42zM406 284
q-1 26 -15.5 50.5t-43.5 41t-72 16.5q-41 0 -72 -16.5t-47.5 -41.5t-17.5 -50h268z" />
    <glyph glyph-name="eacute" unicode="&#xe9;" horiz-adv-x="544" 
d="M304 672h112l-128 -128h-64zM501 196h-363q11 -54 53.5 -81t102.5 -27q78 0 146 48l32 -86q-22 -18 -67.5 -38t-112.5 -20q-81 0 -138 33t-85.5 89.5t-28.5 125.5t29.5 125.5t83.5 89.5t126 33q64 0 115 -30.5t80.5 -87t29.5 -132.5q0 -22 -3 -42zM406 284
q-1 26 -15.5 50.5t-43.5 41t-72 16.5q-41 0 -72 -16.5t-47.5 -41.5t-17.5 -50h268z" />
    <glyph glyph-name="ecircumflex" unicode="&#xea;" horiz-adv-x="544" 
d="M272 596l-53 -52h-99l152 136l152 -136h-99zM501 196h-363q11 -54 53.5 -81t102.5 -27q78 0 146 48l32 -86q-22 -18 -67.5 -38t-112.5 -20q-81 0 -138 33t-85.5 89.5t-28.5 125.5t29.5 125.5t83.5 89.5t126 33q64 0 115 -30.5t80.5 -87t29.5 -132.5q0 -22 -3 -42z
M406 284q-1 26 -15.5 50.5t-43.5 41t-72 16.5q-41 0 -72 -16.5t-47.5 -41.5t-17.5 -50h268z" />
    <glyph glyph-name="edieresis" unicode="&#xeb;" horiz-adv-x="544" 
d="M144.5 560.5q-16.5 16.5 -16.5 39.5q0 24 16.5 40t39.5 16q24 0 40 -16t16 -40q0 -23 -16 -39.5t-40 -16.5q-23 0 -39.5 16.5zM320.5 560.5q-16.5 16.5 -16.5 39.5q0 24 16.5 40t39.5 16q24 0 40 -16t16 -40q0 -23 -16 -39.5t-40 -16.5q-23 0 -39.5 16.5zM501 196h-363
q11 -54 53.5 -81t102.5 -27q78 0 146 48l32 -86q-22 -18 -67.5 -38t-112.5 -20q-81 0 -138 33t-85.5 89.5t-28.5 125.5t29.5 125.5t83.5 89.5t126 33q64 0 115 -30.5t80.5 -87t29.5 -132.5q0 -22 -3 -42zM406 284q-1 26 -15.5 50.5t-43.5 41t-72 16.5q-41 0 -72 -16.5
t-47.5 -41.5t-17.5 -50h268z" />
    <glyph glyph-name="igrave" unicode="&#xec;" horiz-adv-x="240" 
d="M104 544l-128 128h112l80 -128h-64zM72 480h96v-480h-96v480z" />
    <glyph glyph-name="iacute" unicode="&#xed;" horiz-adv-x="240" 
d="M152 672h112l-128 -128h-64zM72 480h96v-480h-96v480z" />
    <glyph glyph-name="icircumflex" unicode="&#xee;" horiz-adv-x="240" 
d="M120 596l-53 -52h-99l152 136l152 -136h-99zM72 480h96v-480h-96v480z" />
    <glyph glyph-name="idieresis" unicode="&#xef;" horiz-adv-x="240" 
d="M-7.5 560.5q-16.5 16.5 -16.5 39.5q0 24 16.5 40t39.5 16q24 0 40 -16t16 -40q0 -23 -16 -39.5t-40 -16.5q-23 0 -39.5 16.5zM168.5 560.5q-16.5 16.5 -16.5 39.5q0 24 16.5 40t39.5 16q24 0 40 -16t16 -40q0 -23 -16 -39.5t-40 -16.5q-23 0 -39.5 16.5zM72 480h96v-480
h-96v480z" />
    <glyph glyph-name="eth" unicode="&#xf0;" horiz-adv-x="576" 
d="M536 240q0 -67 -33.5 -124t-90.5 -90.5t-124 -33.5t-124 33.5t-90.5 90.5t-33.5 124q0 66 32.5 122.5t89 89.5t125.5 33q21 0 36 -3q-39 45 -96 89l-171 -60v64l114 40l-80 57l70 48l98 -72l166 57v-65l-107 -37q219 -190 219 -363zM364 108.5q35 20.5 55.5 55.5t20.5 76
t-20.5 76t-55.5 55.5t-76 20.5t-76 -20.5t-55.5 -55.5t-20.5 -76t20.5 -76t55.5 -55.5t76 -20.5t76 20.5z" />
    <glyph glyph-name="ntilde" unicode="&#xf1;" horiz-adv-x="560" 
d="M456 619q-21 -42 -48 -58.5t-60 -16.5q-18 0 -33 4.5t-39 13.5q-37 16 -60 16q-33 0 -51 -34l-61 23q40 73 110 73q18 0 31 -4t37 -13q41 -17 63 -17q32 0 50 34zM454.5 434q49.5 -54 49.5 -158v-276h-96v268q0 61 -24.5 92.5t-83.5 31.5q-30 0 -61 -15.5t-51 -44.5
t-20 -68v-264h-96v480h96v-56q56 64 150 64q87 0 136.5 -54z" />
    <glyph glyph-name="ograve" unicode="&#xf2;" horiz-adv-x="576" 
d="M280 544l-128 128h112l80 -128h-64zM412 454.5q57 -33.5 90.5 -90.5t33.5 -124t-33.5 -124t-90.5 -90.5t-124 -33.5t-124 33.5t-90.5 90.5t-33.5 124t33.5 124t90.5 90.5t124 33.5t124 -33.5zM364 108.5q35 20.5 55.5 55.5t20.5 76t-20.5 76t-55.5 55.5t-76 20.5
t-76 -20.5t-55.5 -55.5t-20.5 -76t20.5 -76t55.5 -55.5t76 -20.5t76 20.5z" />
    <glyph glyph-name="oacute" unicode="&#xf3;" horiz-adv-x="576" 
d="M312 672h112l-128 -128h-64zM412 454.5q57 -33.5 90.5 -90.5t33.5 -124t-33.5 -124t-90.5 -90.5t-124 -33.5t-124 33.5t-90.5 90.5t-33.5 124t33.5 124t90.5 90.5t124 33.5t124 -33.5zM364 108.5q35 20.5 55.5 55.5t20.5 76t-20.5 76t-55.5 55.5t-76 20.5t-76 -20.5
t-55.5 -55.5t-20.5 -76t20.5 -76t55.5 -55.5t76 -20.5t76 20.5z" />
    <glyph glyph-name="ocircumflex" unicode="&#xf4;" horiz-adv-x="576" 
d="M288 596l-53 -52h-99l152 136l152 -136h-99zM412 454.5q57 -33.5 90.5 -90.5t33.5 -124t-33.5 -124t-90.5 -90.5t-124 -33.5t-124 33.5t-90.5 90.5t-33.5 124t33.5 124t90.5 90.5t124 33.5t124 -33.5zM364 108.5q35 20.5 55.5 55.5t20.5 76t-20.5 76t-55.5 55.5t-76 20.5
t-76 -20.5t-55.5 -55.5t-20.5 -76t20.5 -76t55.5 -55.5t76 -20.5t76 20.5z" />
    <glyph glyph-name="otilde" unicode="&#xf5;" horiz-adv-x="576" 
d="M464 619q-21 -42 -48 -58.5t-60 -16.5q-18 0 -33 4.5t-39 13.5q-37 16 -60 16q-33 0 -51 -34l-61 23q40 73 110 73q18 0 31 -4t37 -13q41 -17 63 -17q32 0 50 34zM412 454.5q57 -33.5 90.5 -90.5t33.5 -124t-33.5 -124t-90.5 -90.5t-124 -33.5t-124 33.5t-90.5 90.5
t-33.5 124t33.5 124t90.5 90.5t124 33.5t124 -33.5zM364 108.5q35 20.5 55.5 55.5t20.5 76t-20.5 76t-55.5 55.5t-76 20.5t-76 -20.5t-55.5 -55.5t-20.5 -76t20.5 -76t55.5 -55.5t76 -20.5t76 20.5z" />
    <glyph glyph-name="odieresis" unicode="&#xf6;" horiz-adv-x="576" 
d="M160.5 560.5q-16.5 16.5 -16.5 39.5q0 24 16.5 40t39.5 16q24 0 40 -16t16 -40q0 -23 -16 -39.5t-40 -16.5q-23 0 -39.5 16.5zM336.5 560.5q-16.5 16.5 -16.5 39.5q0 24 16.5 40t39.5 16q24 0 40 -16t16 -40q0 -23 -16 -39.5t-40 -16.5q-23 0 -39.5 16.5zM412 454.5
q57 -33.5 90.5 -90.5t33.5 -124t-33.5 -124t-90.5 -90.5t-124 -33.5t-124 33.5t-90.5 90.5t-33.5 124t33.5 124t90.5 90.5t124 33.5t124 -33.5zM364 108.5q35 20.5 55.5 55.5t20.5 76t-20.5 76t-55.5 55.5t-76 20.5t-76 -20.5t-55.5 -55.5t-20.5 -76t20.5 -76t55.5 -55.5
t76 -20.5t76 20.5z" />
    <glyph glyph-name="divide" unicode="&#xf7;" horiz-adv-x="480" 
d="M189 437q-21 21 -21 51q0 31 21 51.5t51 20.5q31 0 51.5 -20.5t20.5 -51.5q0 -30 -20.5 -51t-51.5 -21q-30 0 -51 21zM424 336v-64h-368v64h368zM189 69q-21 21 -21 51q0 31 21 51.5t51 20.5q31 0 51.5 -20.5t20.5 -51.5q0 -30 -20.5 -51t-51.5 -21q-30 0 -51 21z" />
    <glyph glyph-name="oslash" unicode="&#xf8;" horiz-adv-x="576" 
d="M517.5 333.5q18.5 -44.5 18.5 -93.5q0 -67 -33.5 -124t-90.5 -90.5t-124 -33.5q-80 0 -146 47l-34 -39h-56l58 67q-33 35 -51.5 79.5t-18.5 93.5q0 67 33.5 124t90.5 90.5t124 33.5q80 0 146 -47l34 39h56l-58 -67q33 -35 51.5 -79.5zM174 140l196 227q-38 25 -82 25
q-41 0 -76 -20.5t-55.5 -55.5t-20.5 -76q0 -57 38 -100zM364 108.5q35 20.5 55.5 55.5t20.5 76q0 57 -38 100l-196 -227q37 -25 82 -25q41 0 76 20.5z" />
    <glyph glyph-name="ugrave" unicode="&#xf9;" horiz-adv-x="560" 
d="M264 544l-128 128h112l80 -128h-64zM105.5 46q-49.5 54 -49.5 158v276h96v-268q0 -61 24.5 -92.5t83.5 -31.5q30 0 61 15.5t51 44.5t20 68v264h96v-480h-96v56q-56 -64 -150 -64q-87 0 -136.5 54z" />
    <glyph glyph-name="uacute" unicode="&#xfa;" horiz-adv-x="560" 
d="M296 672h112l-128 -128h-64zM105.5 46q-49.5 54 -49.5 158v276h96v-268q0 -61 24.5 -92.5t83.5 -31.5q30 0 61 15.5t51 44.5t20 68v264h96v-480h-96v56q-56 -64 -150 -64q-87 0 -136.5 54z" />
    <glyph glyph-name="ucircumflex" unicode="&#xfb;" horiz-adv-x="560" 
d="M272 596l-53 -52h-99l152 136l152 -136h-99zM105.5 46q-49.5 54 -49.5 158v276h96v-268q0 -61 24.5 -92.5t83.5 -31.5q30 0 61 15.5t51 44.5t20 68v264h96v-480h-96v56q-56 -64 -150 -64q-87 0 -136.5 54z" />
    <glyph glyph-name="udieresis" unicode="&#xfc;" horiz-adv-x="560" 
d="M144.5 560.5q-16.5 16.5 -16.5 39.5q0 24 16.5 40t39.5 16q24 0 40 -16t16 -40q0 -23 -16 -39.5t-40 -16.5q-23 0 -39.5 16.5zM320.5 560.5q-16.5 16.5 -16.5 39.5q0 24 16.5 40t39.5 16q24 0 40 -16t16 -40q0 -23 -16 -39.5t-40 -16.5q-23 0 -39.5 16.5zM105.5 46
q-49.5 54 -49.5 158v276h96v-268q0 -61 24.5 -92.5t83.5 -31.5q30 0 61 15.5t51 44.5t20 68v264h96v-480h-96v56q-56 -64 -150 -64q-87 0 -136.5 54z" />
    <glyph glyph-name="yacute" unicode="&#xfd;" horiz-adv-x="512" 
d="M276 672h112l-128 -128h-64zM504 480l-325 -736h-105l128 287l-194 449h107l141 -332l141 332h107z" />
    <glyph glyph-name="thorn" unicode="&#xfe;" 
d="M451.5 455q54.5 -33 85.5 -90t31 -125t-31 -125t-85.5 -90t-123.5 -33q-49 0 -90 20t-70 58v-326h-96v960h96v-294q29 38 70 58t90 20q69 0 123.5 -33zM396 108.5q35 20.5 55.5 55.5t20.5 76t-20.5 76t-55.5 55.5t-76 20.5t-76 -20.5t-55.5 -55.5t-20.5 -76t20.5 -76
t55.5 -55.5t76 -20.5t76 20.5z" />
    <glyph glyph-name="ydieresis" unicode="&#xff;" horiz-adv-x="512" 
d="M128.5 560.5q-16.5 16.5 -16.5 39.5q0 24 16.5 40t39.5 16q24 0 40 -16t16 -40q0 -23 -16 -39.5t-40 -16.5q-23 0 -39.5 16.5zM304.5 560.5q-16.5 16.5 -16.5 39.5q0 24 16.5 40t39.5 16q24 0 40 -16t16 -40q0 -23 -16 -39.5t-40 -16.5q-23 0 -39.5 16.5zM504 480
l-325 -736h-105l128 287l-194 449h107l141 -332l141 332h107z" />
    <glyph glyph-name="Amacron" unicode="&#x100;" horiz-adv-x="656" 
d="M192 752v56h272v-56h-272zM479 144h-302l-65 -144h-104l320 688l320 -688h-104zM435 240l-107 236l-107 -236h214z" />
    <glyph glyph-name="amacron" unicode="&#x101;" 
d="M184 560v56h272v-56h-272zM536 480v-480h-96v70q-29 -38 -70 -58t-90 -20q-69 0 -123.5 33t-85.5 90t-31 125t31 125t85.5 90t123.5 33q49 0 90 -20t70 -58v70h96zM364 108.5q35 20.5 55.5 55.5t20.5 76t-20.5 76t-55.5 55.5t-76 20.5t-76 -20.5t-55.5 -55.5t-20.5 -76
t20.5 -76t55.5 -55.5t76 -20.5t76 20.5z" />
    <glyph glyph-name="Abreve" unicode="&#x102;" horiz-adv-x="656" 
d="M456 864q0 -53 -37.5 -90.5t-90.5 -37.5t-90.5 37.5t-37.5 90.5h56q0 -30 21 -51t51 -21t51 21t21 51h56zM479 144h-302l-65 -144h-104l320 688l320 -688h-104zM435 240l-107 236l-107 -236h214z" />
    <glyph glyph-name="abreve" unicode="&#x103;" 
d="M448 672q0 -53 -37.5 -90.5t-90.5 -37.5t-90.5 37.5t-37.5 90.5h56q0 -30 21 -51t51 -21t51 21t21 51h56zM536 480v-480h-96v70q-29 -38 -70 -58t-90 -20q-69 0 -123.5 33t-85.5 90t-31 125t31 125t85.5 90t123.5 33q49 0 90 -20t70 -58v70h96zM364 108.5
q35 20.5 55.5 55.5t20.5 76t-20.5 76t-55.5 55.5t-76 20.5t-76 -20.5t-55.5 -55.5t-20.5 -76t20.5 -76t55.5 -55.5t76 -20.5t76 20.5z" />
    <glyph glyph-name="Aogonek" unicode="&#x104;" horiz-adv-x="656" 
d="M680 -192q-10 -7 -25 -11.5t-29 -4.5q-52 0 -83 35t-31 89q0 22 9 46t23 38l-65 144h-302l-65 -144h-104l320 688l320 -688q-30 0 -55 -22.5t-25 -61.5q0 -32 17 -49.5t42 -17.5q19 0 37 9zM435 240l-107 236l-107 -236h214z" />
    <glyph glyph-name="aogonek" unicode="&#x105;" 
d="M568 -192q-10 -7 -25 -11.5t-29 -4.5q-52 0 -83 35t-31 89t40 92v62q-29 -38 -70 -58t-90 -20q-69 0 -123.5 33t-85.5 90t-31 125t31 125t85.5 90t123.5 33q49 0 90 -20t70 -58v70h96v-480q-18 0 -36.5 -12t-31 -31t-12.5 -41q0 -32 17 -49.5t42 -17.5q19 0 37 9z
M364 108.5q35 20.5 55.5 55.5t20.5 76t-20.5 76t-55.5 55.5t-76 20.5t-76 -20.5t-55.5 -55.5t-20.5 -76t20.5 -76t55.5 -55.5t76 -20.5t76 20.5z" />
    <glyph glyph-name="Cacute" unicode="&#x106;" horiz-adv-x="640" 
d="M408 864h112l-128 -128h-64zM482 106q42 18 77 55l41 -90q-41 -38 -97.5 -58.5t-112.5 -20.5q-95 0 -175.5 46.5t-127.5 125.5t-47 172t47 172t127.5 125.5t175.5 46.5q57 0 113 -20t97 -58l-41 -90q-36 36 -77.5 54t-97.5 18q-67 0 -124 -33.5t-90.5 -90.5t-33.5 -124
t33.5 -124t90.5 -90.5t124 -33.5q56 0 98 18z" />
    <glyph glyph-name="cacute" unicode="&#x107;" horiz-adv-x="496" 
d="M312 672h112l-128 -128h-64zM71 365.5q31 56.5 89.5 89.5t135.5 33q46 0 88 -14t72 -41l-41 -89q-23 22 -53.5 35t-64.5 13q-44 0 -81 -20.5t-58.5 -55.5t-21.5 -75q0 -41 21.5 -76.5t58.5 -56t81 -20.5q34 0 64.5 13t53.5 36l41 -90q-28 -26 -71.5 -40.5t-88.5 -14.5
q-78 0 -136 33t-89 89.5t-31 125.5t31 125.5z" />
    <glyph glyph-name="Cdotaccent" unicode="&#x10a;" horiz-adv-x="640" 
d="M333 741q-21 21 -21 51t21 51t51 21t51 -21t21 -51t-21 -51t-51 -21t-51 21zM482 106q42 18 77 55l41 -90q-41 -38 -97.5 -58.5t-112.5 -20.5q-95 0 -175.5 46.5t-127.5 125.5t-47 172t47 172t127.5 125.5t175.5 46.5q57 0 113 -20t97 -58l-41 -90q-36 36 -77.5 54
t-97.5 18q-67 0 -124 -33.5t-90.5 -90.5t-33.5 -124t33.5 -124t90.5 -90.5t124 -33.5q56 0 98 18z" />
    <glyph glyph-name="cdotaccent" unicode="&#x10b;" horiz-adv-x="496" 
d="M237 549q-21 21 -21 51t21 51t51 21t51 -21t21 -51t-21 -51t-51 -21t-51 21zM71 365.5q31 56.5 89.5 89.5t135.5 33q46 0 88 -14t72 -41l-41 -89q-23 22 -53.5 35t-64.5 13q-44 0 -81 -20.5t-58.5 -55.5t-21.5 -75q0 -41 21.5 -76.5t58.5 -56t81 -20.5q34 0 64.5 13
t53.5 36l41 -90q-28 -26 -71.5 -40.5t-88.5 -14.5q-78 0 -136 33t-89 89.5t-31 125.5t31 125.5z" />
    <glyph glyph-name="Ccaron" unicode="&#x10c;" horiz-adv-x="640" 
d="M520 864l-152 -136l-152 136h99l53 -52l53 52h99zM482 106q42 18 77 55l41 -90q-41 -38 -97.5 -58.5t-112.5 -20.5q-95 0 -175.5 46.5t-127.5 125.5t-47 172t47 172t127.5 125.5t175.5 46.5q57 0 113 -20t97 -58l-41 -90q-36 36 -77.5 54t-97.5 18q-67 0 -124 -33.5
t-90.5 -90.5t-33.5 -124t33.5 -124t90.5 -90.5t124 -33.5q56 0 98 18z" />
    <glyph glyph-name="ccaron" unicode="&#x10d;" horiz-adv-x="496" 
d="M440 672l-152 -136l-152 136h99l53 -52l53 52h99zM71 365.5q31 56.5 89.5 89.5t135.5 33q46 0 88 -14t72 -41l-41 -89q-23 22 -53.5 35t-64.5 13q-44 0 -81 -20.5t-58.5 -55.5t-21.5 -75q0 -41 21.5 -76.5t58.5 -56t81 -20.5q34 0 64.5 13t53.5 36l41 -90
q-28 -26 -71.5 -40.5t-88.5 -14.5q-78 0 -136 33t-89 89.5t-31 125.5t31 125.5z" />
    <glyph glyph-name="Dcaron" unicode="&#x10e;" horiz-adv-x="656" 
d="M448 864l-152 -136l-152 136h99l53 -52l53 52h99zM459.5 627.5q77.5 -44.5 117 -120.5t39.5 -171q0 -94 -40.5 -170.5t-118.5 -121t-184 -44.5h-201v672h201q109 0 186.5 -44.5zM412.5 128q50.5 32 79 87t28.5 121t-28.5 121t-79 87t-114.5 32h-130v-480h130
q64 0 114.5 32z" />
    <glyph glyph-name="dcaron" unicode="&#x10f;" horiz-adv-x="736" 
d="M536 704v-704h-96v70q-29 -38 -70 -58t-90 -20q-69 0 -123.5 33t-85.5 90t-31 125t31 125t85.5 90t123.5 33q49 0 90 -20t70 -58v294h96zM600 672h96l-80 -128h-48zM364 108.5q35 20.5 55.5 55.5t20.5 76t-20.5 76t-55.5 55.5t-76 20.5t-76 -20.5t-55.5 -55.5t-20.5 -76
t20.5 -76t55.5 -55.5t76 -20.5t76 20.5z" />
    <glyph glyph-name="Dcroat" unicode="&#x110;" horiz-adv-x="672" 
d="M475.5 627.5q77.5 -44.5 117 -120.5t39.5 -171q0 -94 -40.5 -170.5t-118.5 -121t-184 -44.5h-201v304h-64v64h64v304h201q109 0 186.5 -44.5zM428.5 128q50.5 32 79 87t28.5 121t-28.5 121t-79 87t-114.5 32h-130v-208h64v-64h-64v-208h130q64 0 114.5 32z" />
    <glyph glyph-name="dcroat" unicode="&#x111;" horiz-adv-x="624" 
d="M600 560h-64v-560h-96v70q-29 -38 -70 -58t-90 -20q-69 0 -123.5 33t-85.5 90t-31 125t31 125t85.5 90t123.5 33q49 0 90 -20t70 -58v150h-64v48h64v96h96v-96h64v-48zM364 108.5q35 20.5 55.5 55.5t20.5 76t-20.5 76t-55.5 55.5t-76 20.5t-76 -20.5t-55.5 -55.5
t-20.5 -76t20.5 -76t55.5 -55.5t76 -20.5t76 20.5z" />
    <glyph glyph-name="Emacron" unicode="&#x112;" horiz-adv-x="512" 
d="M120 752v56h272v-56h-272zM168 576v-192h240v-96h-240v-192h288v-96h-384v672h384v-96h-288z" />
    <glyph glyph-name="emacron" unicode="&#x113;" horiz-adv-x="544" 
d="M136 560v56h272v-56h-272zM501 196h-363q11 -54 53.5 -81t102.5 -27q78 0 146 48l32 -86q-22 -18 -67.5 -38t-112.5 -20q-81 0 -138 33t-85.5 89.5t-28.5 125.5t29.5 125.5t83.5 89.5t126 33q64 0 115 -30.5t80.5 -87t29.5 -132.5q0 -22 -3 -42zM406 284
q-1 26 -15.5 50.5t-43.5 41t-72 16.5q-41 0 -72 -16.5t-47.5 -41.5t-17.5 -50h268z" />
    <glyph glyph-name="Edotaccent" unicode="&#x116;" horiz-adv-x="512" 
d="M205 741q-21 21 -21 51t21 51t51 21t51 -21t21 -51t-21 -51t-51 -21t-51 21zM168 576v-192h240v-96h-240v-192h288v-96h-384v672h384v-96h-288z" />
    <glyph glyph-name="edotaccent" unicode="&#x117;" horiz-adv-x="544" 
d="M227 549q-21 21 -21 51t21 51t51 21t51 -21t21 -51t-21 -51t-51 -21t-51 21zM501 196h-363q11 -54 53.5 -81t102.5 -27q78 0 146 48l32 -86q-22 -18 -67.5 -38t-112.5 -20q-81 0 -138 33t-85.5 89.5t-28.5 125.5t29.5 125.5t83.5 89.5t126 33q64 0 115 -30.5t80.5 -87
t29.5 -132.5q0 -22 -3 -42zM406 284q-1 26 -15.5 50.5t-43.5 41t-72 16.5q-41 0 -72 -16.5t-47.5 -41.5t-17.5 -50h268z" />
    <glyph glyph-name="Eogonek" unicode="&#x118;" horiz-adv-x="512" 
d="M488 -192q-10 -7 -25 -11.5t-29 -4.5q-52 0 -83 35t-31 89q0 22 9 46t23 38h-280v672h384v-96h-288v-192h240v-96h-240v-192h288v-96q-30 0 -55 -22.5t-25 -61.5q0 -32 17 -49.5t42 -17.5q19 0 37 9z" />
    <glyph glyph-name="eogonek" unicode="&#x119;" horiz-adv-x="544" 
d="M501 196h-363q11 -54 53.5 -81t102.5 -27q78 0 146 48l32 -86q-17 -14 -51.5 -31t-83.5 -24q-25 -4 -41 -27.5t-16 -51.5q0 -32 17 -49.5t42 -17.5q19 0 37 9l16 -50q-10 -7 -25 -11.5t-29 -4.5q-52 0 -83 35t-31 89q0 45 27 78q-102 12 -156.5 80.5t-54.5 165.5
q0 69 29.5 125.5t83.5 89.5t126 33q64 0 115 -30.5t80.5 -87t29.5 -132.5q0 -22 -3 -42zM406 284q-1 26 -15.5 50.5t-43.5 41t-72 16.5q-41 0 -72 -16.5t-47.5 -41.5t-17.5 -50h268z" />
    <glyph glyph-name="Ecaron" unicode="&#x11a;" horiz-adv-x="512" 
d="M408 864l-152 -136l-152 136h99l53 -52l53 52h99zM168 576v-192h240v-96h-240v-192h288v-96h-384v672h384v-96h-288z" />
    <glyph glyph-name="ecaron" unicode="&#x11b;" horiz-adv-x="544" 
d="M424 672l-152 -136l-152 136h99l53 -52l53 52h99zM501 196h-363q11 -54 53.5 -81t102.5 -27q78 0 146 48l32 -86q-22 -18 -67.5 -38t-112.5 -20q-81 0 -138 33t-85.5 89.5t-28.5 125.5t29.5 125.5t83.5 89.5t126 33q64 0 115 -30.5t80.5 -87t29.5 -132.5q0 -22 -3 -42z
M406 284q-1 26 -15.5 50.5t-43.5 41t-72 16.5q-41 0 -72 -16.5t-47.5 -41.5t-17.5 -50h268z" />
    <glyph glyph-name="Gbreve" unicode="&#x11e;" horiz-adv-x="752" 
d="M504 864q0 -53 -37.5 -90.5t-90.5 -37.5t-90.5 37.5t-37.5 90.5h56q0 -30 21 -51t51 -21t51 21t21 51h56zM712 336q0 -94 -42.5 -173t-117.5 -125t-168 -46t-172 46.5t-125.5 125.5t-46.5 172t46.5 172t125.5 125.5t172 46.5q99 0 176 -50.5t121 -137.5l-97 -28
q-29 55 -81.5 87.5t-118.5 32.5q-67 0 -124 -33.5t-90.5 -90.5t-33.5 -124t33.5 -124t90.5 -90.5t124 -33.5q89 0 149 51.5t77 132.5h-250v96l350 -1q2 -18 2 -31z" />
    <glyph glyph-name="gbreve" unicode="&#x11f;" 
d="M448 672q0 -53 -37.5 -90.5t-90.5 -37.5t-90.5 37.5t-37.5 90.5h56q0 -30 21 -51t51 -21t51 21t21 51h56zM536 480v-450q0 -146 -68.5 -220t-187.5 -74q-79 0 -132.5 25t-91.5 55l48 86q42 -33 81 -51.5t95 -18.5q75 0 117.5 48t42.5 136v54q-29 -38 -70 -58t-90 -20
q-69 0 -123.5 33t-85.5 90t-31 125t31 125t85.5 90t123.5 33q49 0 90 -20t70 -58v70h96zM364 108.5q35 20.5 55.5 55.5t20.5 76t-20.5 76t-55.5 55.5t-76 20.5t-76 -20.5t-55.5 -55.5t-20.5 -76t20.5 -76t55.5 -55.5t76 -20.5t76 20.5z" />
    <glyph glyph-name="Gdotaccent" unicode="&#x120;" horiz-adv-x="752" 
d="M325 741q-21 21 -21 51t21 51t51 21t51 -21t21 -51t-21 -51t-51 -21t-51 21zM712 336q0 -94 -42.5 -173t-117.5 -125t-168 -46t-172 46.5t-125.5 125.5t-46.5 172t46.5 172t125.5 125.5t172 46.5q99 0 176 -50.5t121 -137.5l-97 -28q-29 55 -81.5 87.5t-118.5 32.5
q-67 0 -124 -33.5t-90.5 -90.5t-33.5 -124t33.5 -124t90.5 -90.5t124 -33.5q89 0 149 51.5t77 132.5h-250v96l350 -1q2 -18 2 -31z" />
    <glyph glyph-name="gdotaccent" unicode="&#x121;" 
d="M253 549q-21 21 -21 51t21 51t51 21t51 -21t21 -51t-21 -51t-51 -21t-51 21zM536 480v-450q0 -146 -68.5 -220t-187.5 -74q-79 0 -132.5 25t-91.5 55l48 86q42 -33 81 -51.5t95 -18.5q75 0 117.5 48t42.5 136v54q-29 -38 -70 -58t-90 -20q-69 0 -123.5 33t-85.5 90
t-31 125t31 125t85.5 90t123.5 33q49 0 90 -20t70 -58v70h96zM364 108.5q35 20.5 55.5 55.5t20.5 76t-20.5 76t-55.5 55.5t-76 20.5t-76 -20.5t-55.5 -55.5t-20.5 -76t20.5 -76t55.5 -55.5t76 -20.5t76 20.5z" />
    <glyph glyph-name="Gcommaaccent" unicode="&#x122;" horiz-adv-x="752" 
d="M712 336q0 -94 -42.5 -173t-117.5 -125t-168 -46t-172 46.5t-125.5 125.5t-46.5 172t46.5 172t125.5 125.5t172 46.5q99 0 176 -50.5t121 -137.5l-97 -28q-29 55 -81.5 87.5t-118.5 32.5q-67 0 -124 -33.5t-90.5 -90.5t-33.5 -124t33.5 -124t90.5 -90.5t124 -33.5
q89 0 149 51.5t77 132.5h-250v96l350 -1q2 -18 2 -31zM336 -64h96l-80 -128h-48z" />
    <glyph glyph-name="gcommaaccent" unicode="&#x123;" 
d="M368 544h-96l80 128h48zM536 480v-450q0 -146 -68.5 -220t-187.5 -74q-79 0 -132.5 25t-91.5 55l48 86q42 -33 81 -51.5t95 -18.5q75 0 117.5 48t42.5 136v54q-29 -38 -70 -58t-90 -20q-69 0 -123.5 33t-85.5 90t-31 125t31 125t85.5 90t123.5 33q49 0 90 -20t70 -58v70
h96zM364 108.5q35 20.5 55.5 55.5t20.5 76t-20.5 76t-55.5 55.5t-76 20.5t-76 -20.5t-55.5 -55.5t-20.5 -76t20.5 -76t55.5 -55.5t76 -20.5t76 20.5z" />
    <glyph glyph-name="Hbar" unicode="&#x126;" horiz-adv-x="656" 
d="M632 528h-48v-528h-96v288h-320v-288h-96v528h-48v48h48v96h96v-96h320v96h96v-96h48v-48zM488 528h-320v-144h320v144z" />
    <glyph glyph-name="hbar" unicode="&#x127;" horiz-adv-x="576" 
d="M472.5 431.5q47.5 -56.5 47.5 -163.5v-268h-96v268q0 61 -24.5 92.5t-83.5 31.5q-30 0 -61 -15.5t-51 -44.5t-20 -68v-264h-96v560h-64v48h64v96h96v-96h64v-48h-64v-136q56 64 150 64q91 0 138.5 -56.5z" />
    <glyph glyph-name="Imacron" unicode="&#x12a;" horiz-adv-x="240" 
d="M-16 752v56h272v-56h-272zM72 0v672h96v-672h-96z" />
    <glyph glyph-name="imacron" unicode="&#x12b;" horiz-adv-x="240" 
d="M-16 560v56h272v-56h-272zM72 480h96v-480h-96v480z" />
    <glyph glyph-name="Iogonek" unicode="&#x12e;" horiz-adv-x="240" 
d="M200 -192q-10 -7 -25 -11.5t-29 -4.5q-52 0 -83 35t-31 89t40 92v664h96v-672q-18 0 -36.5 -12t-31 -31t-12.5 -41q0 -32 17 -49.5t42 -17.5q19 0 37 9z" />
    <glyph glyph-name="iogonek" unicode="&#x12f;" horiz-adv-x="240" 
d="M69 581q-21 21 -21 51t21 51t51 21t51 -21t21 -51t-21 -51t-51 -21t-51 21zM200 -192q-10 -7 -25 -11.5t-29 -4.5q-52 0 -83 35t-31 89t40 92v472h96v-480q-18 0 -36.5 -12t-31 -31t-12.5 -41q0 -32 17 -49.5t42 -17.5q19 0 37 9z" />
    <glyph glyph-name="Idotaccent" unicode="&#x130;" horiz-adv-x="240" 
d="M69 741q-21 21 -21 51t21 51t51 21t51 -21t21 -51t-21 -51t-51 -21t-51 21zM72 0v672h96v-672h-96z" />
    <glyph glyph-name="dotlessi" unicode="&#x131;" horiz-adv-x="240" 
d="M72 480h96v-480h-96v480z" />
    <glyph glyph-name="IJ" unicode="&#x132;" horiz-adv-x="704" 
d="M72 0v672h96v-672h-96zM648 672v-416q0 -132 -61 -198t-163 -66q-42 0 -83.5 19t-60.5 43l48 82q14 -21 39.5 -34.5t56.5 -13.5q65 0 96.5 42.5t31.5 117.5v424h96z" />
    <glyph glyph-name="ij" unicode="&#x133;" horiz-adv-x="480" 
d="M69 581q-21 21 -21 51t21 51t51 21t51 -21t21 -51t-21 -51t-51 -21t-51 21zM309 581q-21 21 -21 51t21 51t51 21t51 -21t21 -51t-21 -51t-51 -21t-51 21zM72 480h96v-480h-96v480zM312 480h96v-498q0 -99 -29 -152t-65.5 -70t-81.5 -24l-24 88q49 10 76.5 42t27.5 102
v512z" />
    <glyph glyph-name="Kcommaaccent" unicode="&#x136;" horiz-adv-x="592" 
d="M568 0h-128l-272 296v-296h-96v672h96v-296l256 296h128l-296 -329zM232 -64h96l-80 -128h-48z" />
    <glyph glyph-name="kcommaaccent" unicode="&#x137;" horiz-adv-x="512" 
d="M504 0h-128l-208 204v-204h-96v704h96v-420l192 196h128l-240 -232zM208 -64h96l-80 -128h-48z" />
    <glyph glyph-name="Lacute" unicode="&#x139;" horiz-adv-x="480" 
d="M152 864h112l-128 -128h-64zM440 96v-96h-368v672h96v-576h272z" />
    <glyph glyph-name="lacute" unicode="&#x13a;" horiz-adv-x="240" 
d="M152 896h112l-128 -128h-64zM168 704v-704h-96v704h96z" />
    <glyph glyph-name="Lcommaaccent" unicode="&#x13b;" horiz-adv-x="480" 
d="M440 96v-96h-368v672h96v-576h272zM200 -64h96l-80 -128h-48z" />
    <glyph glyph-name="lcommaaccent" unicode="&#x13c;" horiz-adv-x="240" 
d="M168 704v-704h-96v704h96zM72 -64h96l-80 -128h-48z" />
    <glyph glyph-name="Lcaron" unicode="&#x13d;" horiz-adv-x="496" 
d="M440 96v-96h-368v672h96v-576h272zM344 672h96l-80 -128h-48z" />
    <glyph glyph-name="lcaron" unicode="&#x13e;" horiz-adv-x="352" 
d="M168 704v-704h-96v704h96zM232 672h96l-80 -128h-48z" />
    <glyph glyph-name="Ldot" unicode="&#x13f;" horiz-adv-x="496" 
d="M440 96v-96h-368v672h96v-576h272zM333 325q-21 21 -21 51q0 31 21 51.5t51 20.5q31 0 51.5 -20.5t20.5 -51.5q0 -30 -20.5 -51t-51.5 -21q-30 0 -51 21z" />
    <glyph glyph-name="ldot" unicode="&#x140;" horiz-adv-x="384" 
d="M168 704v-704h-96v704h96zM236.5 325q-20.5 21 -20.5 51q0 31 20.5 51.5t51.5 20.5t51.5 -20.5t20.5 -51.5q0 -30 -20.5 -51t-51.5 -21t-51.5 21z" />
    <glyph glyph-name="Lslash" unicode="&#x141;" horiz-adv-x="496" 
d="M456 96v-96h-368v306l-64 -18v48l64 18v318h96v-292l64 18v-48l-64 -18v-236h272z" />
    <glyph glyph-name="lslash" unicode="&#x142;" horiz-adv-x="272" 
d="M248 350l-64 -18v-332h-96v306l-64 -18v48l64 18v350h96v-324l64 18v-48z" />
    <glyph glyph-name="Nacute" unicode="&#x143;" horiz-adv-x="704" 
d="M360 864h112l-128 -128h-64zM168 460v-460h-96v688l464 -476v460h96v-688z" />
    <glyph glyph-name="nacute" unicode="&#x144;" horiz-adv-x="560" 
d="M288 672h112l-128 -128h-64zM454.5 434q49.5 -54 49.5 -158v-276h-96v268q0 61 -24.5 92.5t-83.5 31.5q-30 0 -61 -15.5t-51 -44.5t-20 -68v-264h-96v480h96v-56q56 64 150 64q87 0 136.5 -54z" />
    <glyph glyph-name="Ncommaaccent" unicode="&#x145;" horiz-adv-x="704" 
d="M168 460v-460h-96v688l464 -476v460h96v-688zM304 -64h96l-80 -128h-48z" />
    <glyph glyph-name="ncommaaccent" unicode="&#x146;" horiz-adv-x="560" 
d="M454.5 434q49.5 -54 49.5 -158v-276h-96v268q0 61 -24.5 92.5t-83.5 31.5q-30 0 -61 -15.5t-51 -44.5t-20 -68v-264h-96v480h96v-56q56 64 150 64q87 0 136.5 -54zM232 -64h96l-80 -128h-48z" />
    <glyph glyph-name="Ncaron" unicode="&#x147;" horiz-adv-x="704" 
d="M504 864l-152 -136l-152 136h99l53 -52l53 52h99zM168 460v-460h-96v688l464 -476v460h96v-688z" />
    <glyph glyph-name="ncaron" unicode="&#x148;" horiz-adv-x="560" 
d="M418 672l-152 -136l-152 136h99l53 -52l53 52h99zM454.5 434q49.5 -54 49.5 -158v-276h-96v268q0 61 -24.5 92.5t-83.5 31.5q-30 0 -61 -15.5t-51 -44.5t-20 -68v-264h-96v480h96v-56q56 64 150 64q87 0 136.5 -54z" />
    <glyph glyph-name="Eng" unicode="&#x14a;" horiz-adv-x="704" 
d="M632 672v-690q0 -99 -29 -152t-65.5 -70t-81.5 -24l-24 88q49 10 76.5 42t27.5 102v114l-368 378v-460h-96v688l464 -476v460h96z" />
    <glyph glyph-name="eng" unicode="&#x14b;" horiz-adv-x="560" 
d="M454.5 434q49.5 -54 49.5 -158v-294q0 -99 -29 -152t-65.5 -70t-81.5 -24l-24 88q49 10 76.5 42t27.5 102v300q0 61 -24.5 92.5t-83.5 31.5q-30 0 -61 -15.5t-51 -44.5t-20 -68v-264h-96v480h96v-56q56 64 150 64q87 0 136.5 -54z" />
    <glyph glyph-name="Omacron" unicode="&#x14c;" horiz-adv-x="768" 
d="M248 752v56h272v-56h-272zM556 633.5q79 -46.5 125.5 -125.5t46.5 -172t-46.5 -172t-125.5 -125.5t-172 -46.5t-172 46.5t-125.5 125.5t-46.5 172t46.5 172t125.5 125.5t172 46.5t172 -46.5zM509 121q57 33 90 90t33 125t-33 125t-90 90t-125 33t-125 -33t-90 -90
t-33 -125t33 -125t90 -90t125 -33t125 33z" />
    <glyph glyph-name="omacron" unicode="&#x14d;" horiz-adv-x="576" 
d="M152 560v56h272v-56h-272zM412 454.5q57 -33.5 90.5 -90.5t33.5 -124t-33.5 -124t-90.5 -90.5t-124 -33.5t-124 33.5t-90.5 90.5t-33.5 124t33.5 124t90.5 90.5t124 33.5t124 -33.5zM364 108.5q35 20.5 55.5 55.5t20.5 76t-20.5 76t-55.5 55.5t-76 20.5t-76 -20.5
t-55.5 -55.5t-20.5 -76t20.5 -76t55.5 -55.5t76 -20.5t76 20.5z" />
    <glyph glyph-name="Ohungarumlaut" unicode="&#x150;" horiz-adv-x="768" 
d="M272 864h104l-80 -128h-56zM496 864h104l-80 -128h-56zM556 633.5q79 -46.5 125.5 -125.5t46.5 -172t-46.5 -172t-125.5 -125.5t-172 -46.5t-172 46.5t-125.5 125.5t-46.5 172t46.5 172t125.5 125.5t172 46.5t172 -46.5zM509 121q57 33 90 90t33 125t-33 125t-90 90
t-125 33t-125 -33t-90 -90t-33 -125t33 -125t90 -90t125 -33t125 33z" />
    <glyph glyph-name="ohungarumlaut" unicode="&#x151;" horiz-adv-x="576" 
d="M176 672h104l-80 -128h-56zM400 672h104l-80 -128h-56zM412 454.5q57 -33.5 90.5 -90.5t33.5 -124t-33.5 -124t-90.5 -90.5t-124 -33.5t-124 33.5t-90.5 90.5t-33.5 124t33.5 124t90.5 90.5t124 33.5t124 -33.5zM364 108.5q35 20.5 55.5 55.5t20.5 76t-20.5 76
t-55.5 55.5t-76 20.5t-76 -20.5t-55.5 -55.5t-20.5 -76t20.5 -76t55.5 -55.5t76 -20.5t76 20.5z" />
    <glyph glyph-name="OE" unicode="&#x152;" horiz-adv-x="1072" 
d="M728 576v-192h240v-96h-240v-192h288v-96h-384v98q-48 -50 -112.5 -78t-135.5 -28q-93 0 -172 46.5t-125.5 125.5t-46.5 172t46.5 172t125.5 125.5t172 46.5q71 0 135.5 -28t112.5 -78v98h384v-96h-288zM509 121q57 33 90 90t33 125t-33 125t-90 90t-125 33t-125 -33
t-90 -90t-33 -125t33 -125t90 -90t125 -33t125 33z" />
    <glyph glyph-name="oe" unicode="&#x153;" horiz-adv-x="944" 
d="M901 196h-363q11 -54 53.5 -81t102.5 -27q78 0 146 48l32 -86q-22 -18 -67.5 -38t-112.5 -20q-71 0 -123.5 25.5t-84.5 70.5q-35 -44 -86 -70t-110 -26q-67 0 -124 33.5t-90.5 90.5t-33.5 124t33.5 124t90.5 90.5t124 33.5q59 0 110.5 -26t86.5 -71q32 46 81.5 71.5
t112.5 25.5q64 0 115 -30.5t80.5 -87t29.5 -132.5q0 -22 -3 -42zM364 108.5q35 20.5 55.5 55.5t20.5 76t-20.5 76t-55.5 55.5t-76 20.5t-76 -20.5t-55.5 -55.5t-20.5 -76t20.5 -76t55.5 -55.5t76 -20.5t76 20.5zM806 284q-1 26 -15.5 50.5t-43.5 41t-72 16.5
q-41 0 -72 -16.5t-47.5 -41.5t-17.5 -50h268z" />
    <glyph glyph-name="Racute" unicode="&#x154;" horiz-adv-x="592" 
d="M280 864h112l-128 -128h-64zM440 0l-167 232h-105v-232h-96v672h208q127 0 191.5 -58t64.5 -157q0 -79 -41.5 -137.5t-115.5 -78.5l173 -241h-112zM168 328h143q57 0 93 30.5t36 92.5q0 63 -35.5 94t-91.5 31h-145v-248z" />
    <glyph glyph-name="racute" unicode="&#x155;" horiz-adv-x="400" 
d="M192 672h112l-128 -128h-64zM243 458.5q50 29.5 117 29.5v-105q-17 5 -36 5q-26 0 -52 -9q-49 -19 -76.5 -60t-27.5 -105v-214h-96v480h96v-103q25 52 75 81.5z" />
    <glyph glyph-name="Rcommaaccent" unicode="&#x156;" horiz-adv-x="592" 
d="M440 0l-167 232h-105v-232h-96v672h208q127 0 191.5 -58t64.5 -157q0 -79 -41.5 -137.5t-115.5 -78.5l173 -241h-112zM168 328h143q57 0 93 30.5t36 92.5q0 63 -35.5 94t-91.5 31h-145v-248zM232 -64h96l-80 -128h-48z" />
    <glyph glyph-name="rcommaaccent" unicode="&#x157;" horiz-adv-x="400" 
d="M243 458.5q50 29.5 117 29.5v-105q-17 5 -36 5q-26 0 -52 -9q-49 -19 -76.5 -60t-27.5 -105v-214h-96v480h96v-103q25 52 75 81.5zM80 -64h96l-80 -128h-48z" />
    <glyph glyph-name="Rcaron" unicode="&#x158;" horiz-adv-x="592" 
d="M416 864l-152 -136l-152 136h99l53 -52l53 52h99zM440 0l-167 232h-105v-232h-96v672h208q127 0 191.5 -58t64.5 -157q0 -79 -41.5 -137.5t-115.5 -78.5l173 -241h-112zM168 328h143q57 0 93 30.5t36 92.5q0 63 -35.5 94t-91.5 31h-145v-248z" />
    <glyph glyph-name="rcaron" unicode="&#x159;" horiz-adv-x="400" 
d="M360 672l-152 -136l-152 136h99l53 -52l53 52h99zM243 458.5q50 29.5 117 29.5v-105q-17 5 -36 5q-26 0 -52 -9q-49 -19 -76.5 -60t-27.5 -105v-214h-96v480h96v-103q25 52 75 81.5z" />
    <glyph glyph-name="Sacute" unicode="&#x15a;" horiz-adv-x="592" 
d="M328 864h112l-128 -128h-64zM494 323.5q58 -44.5 58 -126.5q0 -59 -31 -105.5t-88.5 -73t-134.5 -26.5q-103 0 -167.5 38.5t-90.5 70.5l48 86q42 -47 97.5 -73t114.5 -26q75 0 115.5 28t40.5 77q0 39 -40.5 64.5t-112.5 38.5q-133 23 -186.5 69.5t-53.5 119.5
q0 55 28 99.5t83 70t131 25.5q45 0 104.5 -15.5t112.5 -64.5l-46 -87q-73 71 -173 71q-69 0 -106.5 -25t-37.5 -70q0 -38 35 -59.5t117 -37.5q125 -24 183 -68.5z" />
    <glyph glyph-name="sacute" unicode="&#x15b;" horiz-adv-x="480" 
d="M264 672h112l-128 -128h-64zM401 239q39 -38 39 -89q0 -73 -50 -115.5t-142 -42.5q-70 0 -127.5 23t-80.5 45l38 94q29 -28 79 -47t92 -19q44 0 69.5 14.5t25.5 36.5q0 25 -23 38.5t-71 22.5q-77 14 -119 34t-58.5 48t-16.5 69q0 40 24 71t68.5 48.5t102.5 17.5
q37 0 83 -11t91 -35l-33 -90q-19 14 -62 27t-85 13q-40 0 -66.5 -10t-26.5 -32q0 -17 15 -26.5t32.5 -13.5t65.5 -14q97 -19 136 -57z" />
    <glyph glyph-name="Scedilla" unicode="&#x15e;" horiz-adv-x="592" 
d="M525.5 99q-26.5 -44 -76.5 -72t-117 -34l-39 -41q14 3 28 3q47 0 79 -33t32 -82q0 -41 -19.5 -73.5t-54 -51.5t-77.5 -19q-79 0 -121 63l48 45q11 -20 29.5 -32t50.5 -12q38 0 63 23t25 58q0 30 -21 50.5t-51 20.5q-37 0 -67 -24l-32 48l56 58q-87 8 -143 44t-78 63
l48 86q42 -47 97.5 -73t114.5 -26q75 0 115.5 28t40.5 77q0 39 -40.5 64.5t-112.5 38.5q-133 23 -186.5 69.5t-53.5 119.5q0 55 28 99.5t83 70t131 25.5q45 0 104.5 -15.5t112.5 -64.5l-46 -87q-73 71 -173 71q-69 0 -106.5 -25t-37.5 -70q0 -38 35 -59.5t117 -37.5
q125 -24 183 -68.5t58 -126.5q0 -54 -26.5 -98z" />
    <glyph glyph-name="scedilla" unicode="&#x15f;" horiz-adv-x="480" 
d="M400 43.5q-40 -41.5 -115 -49.5l-40 -42q14 3 28 3q47 0 79 -33t32 -82q0 -41 -19.5 -73.5t-54 -51.5t-77.5 -19q-79 0 -121 63l48 45q11 -20 29.5 -32t50.5 -12q38 0 63 23t25 58q0 30 -21 50.5t-51 20.5q-37 0 -67 -24l-32 48l55 58q-59 6 -106.5 27t-65.5 39l38 94
q29 -28 79 -47t92 -19q44 0 69.5 14.5t25.5 36.5q0 25 -23 38.5t-71 22.5q-77 14 -119 34t-58.5 48t-16.5 69q0 40 24 71t68.5 48.5t102.5 17.5q37 0 83 -11t91 -35l-33 -90q-19 14 -62 27t-85 13q-40 0 -66.5 -10t-26.5 -32q0 -17 15 -26.5t32.5 -13.5t65.5 -14
q97 -19 136 -57t39 -89q0 -65 -40 -106.5z" />
    <glyph glyph-name="Scaron" unicode="&#x160;" horiz-adv-x="592" 
d="M448 864l-152 -136l-152 136h99l53 -52l53 52h99zM494 323.5q58 -44.5 58 -126.5q0 -59 -31 -105.5t-88.5 -73t-134.5 -26.5q-103 0 -167.5 38.5t-90.5 70.5l48 86q42 -47 97.5 -73t114.5 -26q75 0 115.5 28t40.5 77q0 39 -40.5 64.5t-112.5 38.5q-133 23 -186.5 69.5
t-53.5 119.5q0 55 28 99.5t83 70t131 25.5q45 0 104.5 -15.5t112.5 -64.5l-46 -87q-73 71 -173 71q-69 0 -106.5 -25t-37.5 -70q0 -38 35 -59.5t117 -37.5q125 -24 183 -68.5z" />
    <glyph glyph-name="scaron" unicode="&#x161;" horiz-adv-x="480" 
d="M396 672l-152 -136l-152 136h99l53 -52l53 52h99zM401 239q39 -38 39 -89q0 -73 -50 -115.5t-142 -42.5q-70 0 -127.5 23t-80.5 45l38 94q29 -28 79 -47t92 -19q44 0 69.5 14.5t25.5 36.5q0 25 -23 38.5t-71 22.5q-77 14 -119 34t-58.5 48t-16.5 69q0 40 24 71t68.5 48.5
t102.5 17.5q37 0 83 -11t91 -35l-33 -90q-19 14 -62 27t-85 13q-40 0 -66.5 -10t-26.5 -32q0 -17 15 -26.5t32.5 -13.5t65.5 -14q97 -19 136 -57z" />
    <glyph glyph-name="uni0162" unicode="&#x162;" horiz-adv-x="528" 
d="M306 0l-45 -48q14 3 28 3q47 0 79 -33t32 -82q0 -41 -19.5 -73.5t-54 -51.5t-77.5 -19q-79 0 -121 63l48 45q11 -20 29.5 -32t50.5 -12q38 0 63 23t25 58q0 30 -21 50.5t-51 20.5q-37 0 -67 -24l-32 48l61 64h-18v576h-176v96h448v-96h-176v-576h-6z" />
    <glyph glyph-name="uni0163" unicode="&#x163;" horiz-adv-x="352" 
d="M209 -45q47 0 79 -33t32 -82q0 -41 -19.5 -73.5t-54 -51.5t-77.5 -19q-79 0 -121 63l48 45q11 -20 29.5 -32t50.5 -12q38 0 63 23t25 58q0 30 -21 50.5t-51 20.5q-37 0 -67 -24l-32 48l68 73q-57 35 -57 148v227h-64v96h64v192h96v-192h96v-96h-96v-200q0 -34 3 -54
t16 -29q14 -10 32 -10q19 0 45 12v-97q-29 -14 -71 -14h-7l-37 -40q14 3 28 3z" />
    <glyph glyph-name="Tcaron" unicode="&#x164;" horiz-adv-x="528" 
d="M416 864l-152 -136l-152 136h99l53 -52l53 52h99zM488 672v-96h-176v-576h-96v576h-176v96h448z" />
    <glyph glyph-name="tcaron" unicode="&#x165;" horiz-adv-x="496" 
d="M104 384h-64v96h64v192h96v-192h96v-96h-96v-200q0 -34 3 -54t16 -29q14 -10 32 -10q19 0 45 12v-97q-29 -14 -71 -14q-64 0 -92.5 45t-28.5 120v227zM360 672h96l-80 -128h-48z" />
    <glyph glyph-name="Tbar" unicode="&#x166;" horiz-adv-x="528" 
d="M312 576v-240h64v-48h-64v-288h-96v288h-64v48h64v240h-176v96h448v-96h-176z" />
    <glyph glyph-name="tbar" unicode="&#x167;" horiz-adv-x="352" 
d="M200 384v-88h96v-48h-96v-64q0 -34 3 -54t16 -29q14 -10 32 -10q19 0 45 12v-97q-29 -14 -71 -14q-64 0 -92.5 45t-28.5 120v91h-64v48h64v88h-64v96h64v192h96v-192h96v-96h-96z" />
    <glyph glyph-name="Umacron" unicode="&#x16a;" horiz-adv-x="624" 
d="M176 752v56h272v-56h-272zM568 672v-376q0 -139 -64.5 -221.5t-191.5 -82.5q-130 0 -193 82t-63 222v376h96v-408q0 -79 42.5 -127.5t117.5 -48.5q74 0 117 48.5t43 127.5v408h96z" />
    <glyph glyph-name="umacron" unicode="&#x16b;" horiz-adv-x="560" 
d="M140 560v56h272v-56h-272zM105.5 46q-49.5 54 -49.5 158v276h96v-268q0 -61 24.5 -92.5t83.5 -31.5q30 0 61 15.5t51 44.5t20 68v264h96v-480h-96v56q-56 -64 -150 -64q-87 0 -136.5 54z" />
    <glyph glyph-name="Uring" unicode="&#x16e;" horiz-adv-x="624" 
d="M391.5 911.5q32.5 -32.5 32.5 -79.5q0 -46 -32.5 -79t-79.5 -33q-46 0 -79 33t-33 79q0 47 33 79.5t79 32.5q47 0 79.5 -32.5zM351.5 792.5q16.5 16.5 16.5 39.5t-16.5 39.5t-39.5 16.5t-39.5 -16.5t-16.5 -39.5t16.5 -39.5t39.5 -16.5t39.5 16.5zM568 672v-376
q0 -139 -64.5 -221.5t-191.5 -82.5q-130 0 -193 82t-63 222v376h96v-408q0 -79 42.5 -127.5t117.5 -48.5q74 0 117 48.5t43 127.5v408h96z" />
    <glyph glyph-name="uring" unicode="&#x16f;" horiz-adv-x="560" 
d="M355.5 703.5q32.5 -32.5 32.5 -79.5q0 -46 -32.5 -79t-79.5 -33q-46 0 -79 33t-33 79q0 47 33 79.5t79 32.5q47 0 79.5 -32.5zM315.5 584.5q16.5 16.5 16.5 39.5t-16.5 39.5t-39.5 16.5t-39.5 -16.5t-16.5 -39.5t16.5 -39.5t39.5 -16.5t39.5 16.5zM105.5 46
q-49.5 54 -49.5 158v276h96v-268q0 -61 24.5 -92.5t83.5 -31.5q30 0 61 15.5t51 44.5t20 68v264h96v-480h-96v56q-56 -64 -150 -64q-87 0 -136.5 54z" />
    <glyph glyph-name="Uhungarumlaut" unicode="&#x170;" horiz-adv-x="624" 
d="M192 864h104l-80 -128h-56zM416 864h104l-80 -128h-56zM568 672v-376q0 -139 -64.5 -221.5t-191.5 -82.5q-130 0 -193 82t-63 222v376h96v-408q0 -79 42.5 -127.5t117.5 -48.5q74 0 117 48.5t43 127.5v408h96z" />
    <glyph glyph-name="uhungarumlaut" unicode="&#x171;" horiz-adv-x="560" 
d="M154 672h104l-80 -128h-56zM378 672h104l-80 -128h-56zM105.5 46q-49.5 54 -49.5 158v276h96v-268q0 -61 24.5 -92.5t83.5 -31.5q30 0 61 15.5t51 44.5t20 68v264h96v-480h-96v56q-56 -64 -150 -64q-87 0 -136.5 54z" />
    <glyph glyph-name="Uogonek" unicode="&#x172;" horiz-adv-x="624" 
d="M568 672v-376q0 -129 -56 -210t-166 -92q-20 -2 -35 -25t-15 -53q0 -32 17 -49.5t42 -17.5q19 0 37 9l16 -50q-10 -7 -25 -11.5t-29 -4.5q-52 0 -83 35t-31 89q0 20 7.5 42t19.5 37q-107 14 -159 94t-52 207v376h96v-408q0 -79 42.5 -127.5t117.5 -48.5q74 0 117 48.5
t43 127.5v408h96z" />
    <glyph glyph-name="uogonek" unicode="&#x173;" horiz-adv-x="560" 
d="M520 -192q-10 -7 -25 -11.5t-29 -4.5q-52 0 -83 35t-31 89t40 92v48q-56 -64 -150 -64q-87 0 -136.5 54t-49.5 158v276h96v-268q0 -61 24.5 -92.5t83.5 -31.5q30 0 61 15.5t51 44.5t20 68v264h96v-480q-18 0 -36.5 -12t-31 -31t-12.5 -41q0 -32 17 -49.5t42 -17.5
q19 0 37 9z" />
    <glyph glyph-name="Wcircumflex" unicode="&#x174;" horiz-adv-x="960" 
d="M480 788l-53 -52h-99l152 136l152 -136h-99zM944 672l-280 -688l-184 464l-184 -464l-280 688h104l176 -442l184 458l184 -458l176 442h104z" />
    <glyph glyph-name="wcircumflex" unicode="&#x175;" horiz-adv-x="752" 
d="M376 596l-53 -52h-99l152 136l152 -136h-99zM736 480l-208 -496l-152 308l-152 -308l-208 496h104l112 -286l144 302l144 -302l112 286h104z" />
    <glyph glyph-name="Ycircumflex" unicode="&#x176;" horiz-adv-x="592" 
d="M296 788l-53 -52h-99l152 136l152 -136h-99zM584 672l-240 -400v-272h-96v272l-240 400h108l180 -308l180 308h108z" />
    <glyph glyph-name="ycircumflex" unicode="&#x177;" horiz-adv-x="512" 
d="M256 596l-53 -52h-99l152 136l152 -136h-99zM504 480l-325 -736h-105l128 287l-194 449h107l141 -332l141 332h107z" />
    <glyph glyph-name="Ydieresis" unicode="&#x178;" horiz-adv-x="592" 
d="M168.5 752.5q-16.5 16.5 -16.5 39.5q0 24 16.5 40t39.5 16q24 0 40 -16t16 -40q0 -23 -16 -39.5t-40 -16.5q-23 0 -39.5 16.5zM344.5 752.5q-16.5 16.5 -16.5 39.5q0 24 16.5 40t39.5 16q24 0 40 -16t16 -40q0 -23 -16 -39.5t-40 -16.5q-23 0 -39.5 16.5zM584 672
l-240 -400v-272h-96v272l-240 400h108l180 -308l180 308h108z" />
    <glyph glyph-name="Zacute" unicode="&#x179;" 
d="M328 864h112l-128 -128h-64zM40 0l362 576h-346v96h512l-362 -576h346v-96h-512z" />
    <glyph glyph-name="zacute" unicode="&#x17a;" horiz-adv-x="480" 
d="M264 672h112l-128 -128h-64zM40 0l236 384h-220v96h384l-238 -384h222v-96h-384z" />
    <glyph glyph-name="Zdotaccent" unicode="&#x17b;" 
d="M253 741q-21 21 -21 51t21 51t51 21t51 -21t21 -51t-21 -51t-51 -21t-51 21zM40 0l362 576h-346v96h512l-362 -576h346v-96h-512z" />
    <glyph glyph-name="zdotaccent" unicode="&#x17c;" horiz-adv-x="480" 
d="M189 549q-21 21 -21 51t21 51t51 21t51 -21t21 -51t-21 -51t-51 -21t-51 21zM40 0l236 384h-220v96h384l-238 -384h222v-96h-384z" />
    <glyph glyph-name="Zcaron" unicode="&#x17d;" 
d="M456 864l-152 -136l-152 136h99l53 -52l53 52h99zM40 0l362 576h-346v96h512l-362 -576h346v-96h-512z" />
    <glyph glyph-name="zcaron" unicode="&#x17e;" horiz-adv-x="480" 
d="M392 672l-152 -136l-152 136h99l53 -52l53 52h99zM40 0l236 384h-220v96h384l-238 -384h222v-96h-384z" />
    <glyph glyph-name="Aringacute" unicode="&#x1fa;" horiz-adv-x="656" 
d="M360 1104h112l-128 -128h-64zM407.5 911.5q32.5 -32.5 32.5 -79.5q0 -46 -32.5 -79t-79.5 -33q-46 0 -79 33t-33 79q0 47 33 79.5t79 32.5q47 0 79.5 -32.5zM367.5 792.5q16.5 16.5 16.5 39.5t-16.5 39.5t-39.5 16.5t-39.5 -16.5t-16.5 -39.5t16.5 -39.5t39.5 -16.5
t39.5 16.5zM479 144h-302l-65 -144h-104l320 688l320 -688h-104zM435 240l-107 236l-107 -236h214z" />
    <glyph glyph-name="aringacute" unicode="&#x1fb;" 
d="M344 896h112l-128 -128h-64zM407.5 703.5q32.5 -32.5 32.5 -79.5q0 -46 -32.5 -79t-79.5 -33q-46 0 -79 33t-33 79q0 47 33 79.5t79 32.5q47 0 79.5 -32.5zM367.5 584.5q16.5 16.5 16.5 39.5t-16.5 39.5t-39.5 16.5t-39.5 -16.5t-16.5 -39.5t16.5 -39.5t39.5 -16.5
t39.5 16.5zM536 480v-480h-96v70q-29 -38 -70 -58t-90 -20q-69 0 -123.5 33t-85.5 90t-31 125t31 125t85.5 90t123.5 33q49 0 90 -20t70 -58v70h96zM364 108.5q35 20.5 55.5 55.5t20.5 76t-20.5 76t-55.5 55.5t-76 20.5t-76 -20.5t-55.5 -55.5t-20.5 -76t20.5 -76
t55.5 -55.5t76 -20.5t76 20.5z" />
    <glyph glyph-name="AEacute" unicode="&#x1fc;" horiz-adv-x="800" 
d="M456 864h112l-128 -128h-64zM456 576v-192h240v-96h-240v-192h288v-96h-384v144h-174l-74 -144h-104l352 672h384v-96h-288zM360 240v240l-124 -240h124z" />
    <glyph glyph-name="aeacute" unicode="&#x1fd;" horiz-adv-x="880" 
d="M456 672h112l-128 -128h-64zM837 196h-363q11 -54 53.5 -81t102.5 -27q78 0 146 48l32 -86q-22 -18 -67.5 -38t-112.5 -20q-92 0 -156 45v-37h-96v49q-22 -27 -67.5 -42t-88.5 -15q-81 0 -130.5 44t-49.5 116q0 89 97 132q44 20 114 20q57 0 125 -14q0 58 -39.5 80
t-90.5 22q-79 0 -141 -45l-45 77q27 21 77.5 42.5t116.5 21.5q69 0 112 -19.5t69 -58.5q32 37 78 57.5t102 20.5q64 0 115 -30.5t80.5 -87t29.5 -132.5q0 -22 -3 -42zM742 284q-1 26 -15.5 50.5t-43.5 41t-72 16.5q-41 0 -72 -16.5t-47.5 -41.5t-17.5 -50h268zM376 206
q-64 15 -113 15q-60 0 -93.5 -19.5t-33.5 -51.5q0 -29 25 -45.5t61 -16.5t72 10.5t59 29t23 40.5v38z" />
    <glyph glyph-name="Scommaaccent" unicode="&#x218;" horiz-adv-x="592" 
d="M494 323.5q58 -44.5 58 -126.5q0 -59 -31 -105.5t-88.5 -73t-134.5 -26.5q-103 0 -167.5 38.5t-90.5 70.5l48 86q42 -47 97.5 -73t114.5 -26q75 0 115.5 28t40.5 77q0 39 -40.5 64.5t-112.5 38.5q-133 23 -186.5 69.5t-53.5 119.5q0 55 28 99.5t83 70t131 25.5
q45 0 104.5 -15.5t112.5 -64.5l-46 -87q-73 71 -173 71q-69 0 -106.5 -25t-37.5 -70q0 -38 35 -59.5t117 -37.5q125 -24 183 -68.5zM248 -64h96l-80 -128h-48z" />
    <glyph glyph-name="scommaaccent" unicode="&#x219;" horiz-adv-x="480" 
d="M401 239q39 -38 39 -89q0 -73 -50 -115.5t-142 -42.5q-70 0 -127.5 23t-80.5 45l38 94q29 -28 79 -47t92 -19q44 0 69.5 14.5t25.5 36.5q0 25 -23 38.5t-71 22.5q-77 14 -119 34t-58.5 48t-16.5 69q0 40 24 71t68.5 48.5t102.5 17.5q37 0 83 -11t91 -35l-33 -90
q-19 14 -62 27t-85 13q-40 0 -66.5 -10t-26.5 -32q0 -17 15 -26.5t32.5 -13.5t65.5 -14q97 -19 136 -57zM200 -64h96l-80 -128h-48z" />
    <glyph glyph-name="uni021A" unicode="&#x21a;" horiz-adv-x="528" 
d="M488 672v-96h-176v-576h-96v576h-176v96h448zM216 -64h96l-80 -128h-48z" />
    <glyph glyph-name="uni021B" unicode="&#x21b;" horiz-adv-x="352" 
d="M104 384h-64v96h64v192h96v-192h96v-96h-96v-200q0 -34 3 -54t16 -29q14 -10 32 -10q19 0 45 12v-97q-29 -14 -71 -14q-64 0 -92.5 45t-28.5 120v227zM136 -64h96l-80 -128h-48z" />
    <glyph glyph-name="circumflex" unicode="&#x2c6;" horiz-adv-x="816" 
d="M408 788l-53 -52h-99l152 136l152 -136h-99z" />
    <glyph glyph-name="caron" unicode="&#x2c7;" horiz-adv-x="816" 
d="M560 864l-152 -136l-152 136h99l53 -52l53 52h99z" />
    <glyph glyph-name="breve" unicode="&#x2d8;" horiz-adv-x="816" 
d="M536 864q0 -53 -37.5 -90.5t-90.5 -37.5t-90.5 37.5t-37.5 90.5h56q0 -30 21 -51t51 -21t51 21t21 51h56z" />
    <glyph glyph-name="dotaccent" unicode="&#x2d9;" horiz-adv-x="816" 
d="M357 741q-21 21 -21 51t21 51t51 21t51 -21t21 -51t-21 -51t-51 -21t-51 21z" />
    <glyph glyph-name="ring" unicode="&#x2da;" horiz-adv-x="816" 
d="M487.5 911.5q32.5 -32.5 32.5 -79.5q0 -46 -32.5 -79t-79.5 -33q-46 0 -79 33t-33 79q0 47 33 79.5t79 32.5q47 0 79.5 -32.5zM447.5 792.5q16.5 16.5 16.5 39.5t-16.5 39.5t-39.5 16.5t-39.5 -16.5t-16.5 -39.5t16.5 -39.5t39.5 -16.5t39.5 16.5z" />
    <glyph glyph-name="ogonek" unicode="&#x2db;" horiz-adv-x="816" 
d="M476 0q-30 0 -55 -22.5t-25 -61.5q0 -32 17 -49.5t42 -17.5q19 0 37 9l16 -50q-10 -7 -25 -11.5t-29 -4.5q-52 0 -83 35t-31 89q0 22 9 46t23 38h104z" />
    <glyph glyph-name="tilde" unicode="&#x2dc;" horiz-adv-x="816" 
d="M584 811q-21 -42 -48 -58.5t-60 -16.5q-18 0 -33 4.5t-39 13.5q-37 16 -60 16q-33 0 -51 -34l-61 23q40 73 110 73q18 0 31 -4t37 -13q41 -17 63 -17q32 0 50 34z" />
    <glyph glyph-name="hungarumlaut" unicode="&#x2dd;" horiz-adv-x="816" 
d="M276 864h104l-80 -128h-56zM500 864h104l-80 -128h-56z" />
    <glyph glyph-name="Alphatonos" unicode="&#x386;" horiz-adv-x="656" 
d="M479 144h-302l-65 -144h-104l320 688l320 -688h-104zM72 672h96l-80 -128h-48zM435 240l-107 236l-107 -236h214z" />
    <glyph glyph-name="Epsilontonos" unicode="&#x388;" horiz-adv-x="640" 
d="M72 672h96l-80 -128h-48zM296 576v-192h240v-96h-240v-192h288v-96h-384v672h384v-96h-288z" />
    <glyph glyph-name="Etatonos" unicode="&#x389;" horiz-adv-x="784" 
d="M72 672h96l-80 -128h-48zM712 672v-672h-96v288h-320v-288h-96v672h96v-288h320v288h96z" />
    <glyph glyph-name="Iotatonos" unicode="&#x38a;" horiz-adv-x="368" 
d="M72 672h96l-80 -128h-48zM200 0v672h96v-672h-96z" />
    <glyph glyph-name="Omicrontonos" unicode="&#x38c;" horiz-adv-x="832" 
d="M620 633.5q79 -46.5 125.5 -125.5t46.5 -172t-46.5 -172t-125.5 -125.5t-172 -46.5t-172 46.5t-125.5 125.5t-46.5 172t46.5 172t125.5 125.5t172 46.5t172 -46.5zM72 672h96l-80 -128h-48zM573 121q57 33 90 90t33 125t-33 125t-90 90t-125 33t-125 -33t-90 -90
t-33 -125t33 -125t90 -90t125 -33t125 33z" />
    <glyph glyph-name="Upsilontonos" unicode="&#x38e;" horiz-adv-x="784" 
d="M72 672h96l-80 -128h-48zM776 672l-240 -400v-272h-96v272l-240 400h108l180 -308l180 308h108z" />
    <glyph glyph-name="Omegatonos" unicode="&#x38f;" horiz-adv-x="816" 
d="M713.5 228.5q-46.5 -71.5 -126.5 -132.5h173v-96h-288v112q84 56 138 120t54 152q0 62 -30 107.5t-81 69t-113 23.5t-113 -23.5t-81 -69t-30 -107.5q0 -88 54 -152t138 -120v-112h-288v96h173q-80 61 -126.5 132.5t-46.5 163.5q0 73 35.5 139t108 107.5t176.5 41.5
t176.5 -41.5t108 -107.5t35.5 -139q0 -92 -46.5 -163.5zM72 672h96l-80 -128h-48z" />
    <glyph glyph-name="iotadieresistonos" unicode="&#x390;" horiz-adv-x="272" 
d="M120 672h96l-80 -128h-48zM-39.5 560.5q-16.5 16.5 -16.5 39.5q0 24 16.5 40t39.5 16q24 0 40 -16t16 -40q0 -23 -16 -39.5t-40 -16.5q-23 0 -39.5 16.5zM232.5 560.5q-16.5 16.5 -16.5 39.5q0 24 16.5 40t39.5 16q24 0 40 -16t16 -40q0 -23 -16 -39.5t-40 -16.5
q-23 0 -39.5 16.5zM168 144q0 -36 8.5 -51.5t31.5 -15.5q11 0 24 3v-80q-30 -8 -63 -8q-97 0 -97 133v355h96v-336z" />
    <glyph glyph-name="Alpha" unicode="&#x391;" horiz-adv-x="656" 
d="M479 144h-302l-65 -144h-104l320 688l320 -688h-104zM435 240l-107 236l-107 -236h214z" />
    <glyph glyph-name="Beta" unicode="&#x392;" horiz-adv-x="576" 
d="M508 302.5q28 -45.5 28 -100.5q0 -58 -26 -104t-75 -72t-115 -26h-248v672h201q110 0 170.5 -45t60.5 -131q0 -49 -23 -85.5t-57 -49.5q56 -13 84 -58.5zM168 408h120q120 0 120 84q0 42 -31 63t-89 21h-120v-168zM404 123q36 27 36 81t-36 81t-100 27h-136v-216h136
q64 0 100 27z" />
    <glyph glyph-name="Gamma" unicode="&#x393;" horiz-adv-x="496" 
d="M168 576v-576h-96v672h384v-96h-288z" />
    <glyph glyph-name="uni0394" unicode="&#x394;" horiz-adv-x="656" 
d="M648 0h-640l320 688zM500 96l-172 380l-172 -380h344z" />
    <glyph glyph-name="Epsilon" unicode="&#x395;" horiz-adv-x="512" 
d="M168 576v-192h240v-96h-240v-192h288v-96h-384v672h384v-96h-288z" />
    <glyph glyph-name="Zeta" unicode="&#x396;" 
d="M40 0l362 576h-346v96h512l-362 -576h346v-96h-512z" />
    <glyph glyph-name="Eta" unicode="&#x397;" horiz-adv-x="656" 
d="M584 672v-672h-96v288h-320v-288h-96v672h96v-288h320v288h96z" />
    <glyph glyph-name="Theta" unicode="&#x398;" horiz-adv-x="768" 
d="M556 633.5q79 -46.5 125.5 -125.5t46.5 -172t-46.5 -172t-125.5 -125.5t-172 -46.5t-172 46.5t-125.5 125.5t-46.5 172t46.5 172t125.5 125.5t172 46.5t172 -46.5zM509 121q57 33 90 90t33 125t-33 125t-90 90t-125 33t-125 -33t-90 -90t-33 -125t33 -125t90 -90t125 -33
t125 33zM184 360h400v-48h-400v48z" />
    <glyph glyph-name="Iota" unicode="&#x399;" horiz-adv-x="240" 
d="M72 0v672h96v-672h-96z" />
    <glyph glyph-name="Kappa" unicode="&#x39a;" horiz-adv-x="592" 
d="M568 0h-128l-272 296v-296h-96v672h96v-296l256 296h128l-296 -329z" />
    <glyph glyph-name="Lambda" unicode="&#x39b;" horiz-adv-x="656" 
d="M328 476l-216 -476h-104l320 688l320 -688h-104z" />
    <glyph glyph-name="Mu" unicode="&#x39c;" horiz-adv-x="832" 
d="M202 398l-64 -398h-98l114 688l262 -508l262 508l114 -688h-98l-64 398l-214 -414z" />
    <glyph glyph-name="Nu" unicode="&#x39d;" horiz-adv-x="704" 
d="M168 460v-460h-96v688l464 -476v460h96v-688z" />
    <glyph glyph-name="Xi" unicode="&#x39e;" horiz-adv-x="576" 
d="M56 672h464v-96h-464v96zM104 384h368v-96h-368v96zM56 96h464v-96h-464v96z" />
    <glyph glyph-name="Omicron" unicode="&#x39f;" horiz-adv-x="768" 
d="M556 633.5q79 -46.5 125.5 -125.5t46.5 -172t-46.5 -172t-125.5 -125.5t-172 -46.5t-172 46.5t-125.5 125.5t-46.5 172t46.5 172t125.5 125.5t172 46.5t172 -46.5zM509 121q57 33 90 90t33 125t-33 125t-90 90t-125 33t-125 -33t-90 -90t-33 -125t33 -125t90 -90t125 -33
t125 33z" />
    <glyph glyph-name="Pi" unicode="&#x3a0;" horiz-adv-x="656" 
d="M584 0h-96v576h-320v-576h-96v672h512v-672z" />
    <glyph glyph-name="Rho" unicode="&#x3a1;" horiz-adv-x="576" 
d="M471.5 614q64.5 -58 64.5 -157q0 -63 -27 -114.5t-78.5 -81t-120.5 -29.5h-142v-232h-96v672h208q127 0 191.5 -58zM404 358.5q36 30.5 36 92.5t-39 93.5t-96 31.5h-137v-248h143q57 0 93 30.5z" />
    <glyph glyph-name="Sigma" unicode="&#x3a3;" horiz-adv-x="576" 
d="M392 336l-168 -240h280v-96h-464l232 336l-232 336h464v-96h-280z" />
    <glyph glyph-name="Tau" unicode="&#x3a4;" horiz-adv-x="528" 
d="M488 672v-96h-176v-576h-96v576h-176v96h448z" />
    <glyph glyph-name="Upsilon" unicode="&#x3a5;" horiz-adv-x="592" 
d="M584 672l-240 -400v-272h-96v272l-240 400h108l180 -308l180 308h108z" />
    <glyph glyph-name="Phi" unicode="&#x3a6;" horiz-adv-x="720" 
d="M640.5 202q-39.5 -64 -102 -99t-130.5 -39v-64h-96v64q-68 4 -130.5 39t-102 99t-39.5 150q0 88 40 151.5t102.5 98t129.5 38.5v64h96v-64q67 -4 129.5 -38.5t102.5 -98t40 -151.5q0 -86 -39.5 -150zM312 548q-39 0 -79.5 -20.5t-68.5 -65t-28 -110.5q0 -67 28 -111
t68.5 -64.5t79.5 -20.5v392zM488 176.5q41 20.5 68.5 64.5t27.5 111q0 66 -27.5 110.5t-68.5 65t-80 20.5v-392q39 0 80 20.5z" />
    <glyph glyph-name="Chi" unicode="&#x3a7;" horiz-adv-x="656" 
d="M516 0l-188 271l-188 -271h-116l244 347l-228 325h115l173 -250l173 250h115l-228 -325l244 -347h-116z" />
    <glyph glyph-name="Psi" unicode="&#x3a8;" horiz-adv-x="784" 
d="M712 672v-238q0 -146 -72 -213.5t-200 -84.5v-136h-96v136q-128 17 -200 84.5t-72 213.5v238h96v-252q0 -96 50 -140.5t126 -47.5v440h96v-440q76 3 126 47.5t50 140.5v252h96z" />
    <glyph glyph-name="uni03A9" unicode="&#x3a9;" horiz-adv-x="752" 
d="M649.5 228.5q-46.5 -71.5 -126.5 -132.5h173v-96h-288v112q84 56 138 120t54 152q0 62 -30 107.5t-81 69t-113 23.5t-113 -23.5t-81 -69t-30 -107.5q0 -88 54 -152t138 -120v-112h-288v96h173q-80 61 -126.5 132.5t-46.5 163.5q0 73 35.5 139t108 107.5t176.5 41.5
t176.5 -41.5t108 -107.5t35.5 -139q0 -92 -46.5 -163.5z" />
    <glyph glyph-name="Iotadieresis" unicode="&#x3aa;" horiz-adv-x="240" 
d="M-7.5 752.5q-16.5 16.5 -16.5 39.5q0 24 16.5 40t39.5 16q24 0 40 -16t16 -40q0 -23 -16 -39.5t-40 -16.5q-23 0 -39.5 16.5zM168.5 752.5q-16.5 16.5 -16.5 39.5q0 24 16.5 40t39.5 16q24 0 40 -16t16 -40q0 -23 -16 -39.5t-40 -16.5q-23 0 -39.5 16.5zM72 0v672h96
v-672h-96z" />
    <glyph glyph-name="Upsilondieresis" unicode="&#x3ab;" horiz-adv-x="592" 
d="M168.5 752.5q-16.5 16.5 -16.5 39.5q0 24 16.5 40t39.5 16q24 0 40 -16t16 -40q0 -23 -16 -39.5t-40 -16.5q-23 0 -39.5 16.5zM344.5 752.5q-16.5 16.5 -16.5 39.5q0 24 16.5 40t39.5 16q24 0 40 -16t16 -40q0 -23 -16 -39.5t-40 -16.5q-23 0 -39.5 16.5zM584 672
l-240 -400v-272h-96v272l-240 400h108l180 -308l180 308h108z" />
    <glyph glyph-name="alphatonos" unicode="&#x3ac;" horiz-adv-x="640" 
d="M312 672h96l-80 -128h-48zM544.5 92.5q8.5 -15.5 31.5 -15.5q11 0 24 3v-80q-30 -8 -63 -8q-74 0 -91 76q-30 -35 -73 -55.5t-93 -20.5q-69 0 -123.5 33t-85.5 90t-31 125t31 125t85.5 90t123.5 33q49 0 90 -20t70 -58v70h96v-336q0 -36 8.5 -51.5zM364 108.5
q35 20.5 55.5 55.5t20.5 76t-20.5 76t-55.5 55.5t-76 20.5t-76 -20.5t-55.5 -55.5t-20.5 -76t20.5 -76t55.5 -55.5t76 -20.5t76 20.5z" />
    <glyph glyph-name="epsilontonos" unicode="&#x3ad;" horiz-adv-x="480" 
d="M240 672h96l-80 -128h-48zM400 129l40 -76q-33 -29 -79.5 -45t-99.5 -16q-91 0 -148 36.5t-57 113.5q0 35 20.5 63.5t56.5 42.5q-34 13 -51.5 40.5t-17.5 59.5q0 70 51.5 105t136.5 35q48 0 96 -16t88 -46l-44 -76q-31 21 -61.5 31.5t-75.5 10.5t-70 -15.5t-25 -35.5
q0 -28 39 -44.5t113 -16.5v-80q-72 0 -116 -14.5t-44 -43.5q0 -27 31 -40.5t82 -13.5q78 0 135 41z" />
    <glyph glyph-name="etatonos" unicode="&#x3ae;" horiz-adv-x="560" 
d="M256 672h96l-80 -128h-48zM454.5 434q49.5 -54 49.5 -158v-532h-96v524q0 61 -24.5 92.5t-83.5 31.5q-30 0 -61 -15.5t-51 -44.5t-20 -68v-264h-96v480h96v-56q56 64 150 64q87 0 136.5 -54z" />
    <glyph glyph-name="iotatonos" unicode="&#x3af;" horiz-adv-x="272" 
d="M120 672h96l-80 -128h-48zM168 144q0 -36 8.5 -51.5t31.5 -15.5q11 0 24 3v-80q-30 -8 -63 -8q-97 0 -97 133v355h96v-336z" />
    <glyph glyph-name="upsilondieresistonos" unicode="&#x3b0;" horiz-adv-x="544" 
d="M232 672h96l-80 -128h-48zM72.5 560.5q-16.5 16.5 -16.5 39.5q0 24 16.5 40t39.5 16q24 0 40 -16t16 -40q0 -23 -16 -39.5t-40 -16.5q-23 0 -39.5 16.5zM344.5 560.5q-16.5 16.5 -16.5 39.5q0 24 16.5 40t39.5 16q24 0 40 -16t16 -40q0 -23 -16 -39.5t-40 -16.5
q-23 0 -39.5 16.5zM475 363q13 -53 13 -111q0 -78 -26.5 -137t-75 -91t-114.5 -32q-106 0 -161 64t-55 184v240h96v-266q0 -60 34 -93t86 -33q58 0 89 41.5t31 108.5q0 65 -12 118.5t-36 123.5h96q22 -64 35 -117z" />
    <glyph glyph-name="alpha" unicode="&#x3b1;" horiz-adv-x="640" 
d="M544.5 92.5q8.5 -15.5 31.5 -15.5q11 0 24 3v-80q-30 -8 -63 -8q-74 0 -91 76q-30 -35 -73 -55.5t-93 -20.5q-69 0 -123.5 33t-85.5 90t-31 125t31 125t85.5 90t123.5 33q49 0 90 -20t70 -58v70h96v-336q0 -36 8.5 -51.5zM364 108.5q35 20.5 55.5 55.5t20.5 76t-20.5 76
t-55.5 55.5t-76 20.5t-76 -20.5t-55.5 -55.5t-20.5 -76t20.5 -76t55.5 -55.5t76 -20.5t76 20.5z" />
    <glyph glyph-name="beta" unicode="&#x3b2;" horiz-adv-x="544" 
d="M467 319q37 -51 37 -115q0 -56 -25.5 -104.5t-76.5 -78t-123 -29.5q-31 0 -67.5 9t-59.5 23v-280h-96v744q0 140 73.5 182t136.5 42q64 0 107.5 -26.5t64.5 -68t21 -85.5q0 -52 -29 -92t-61 -56q61 -14 98 -65zM208.5 97.5q32.5 -9.5 66.5 -9.5q57 0 95 28t38 84
q0 36 -22.5 64t-58.5 40q-49 16 -143 16v96q87 0 136 37q19 15 29.5 35t10.5 40q0 42 -29.5 65t-72.5 23q-45 0 -75.5 -32t-30.5 -80v-380q24 -17 56.5 -26.5z" />
    <glyph glyph-name="gamma" unicode="&#x3b3;" horiz-adv-x="496" 
d="M296 87v-343h-96v343l-192 393h104l136 -280l136 280h104z" />
    <glyph glyph-name="delta" unicode="&#x3b4;" horiz-adv-x="576" 
d="M507 355.5q29 -53.5 29 -115.5q0 -67 -33.5 -124t-90.5 -90.5t-124 -33.5t-124 33.5t-90.5 90.5t-33.5 124q0 75 41 136.5t108 90.5q-35 23 -52 53t-17 62q0 34 19.5 65.5t61 52t102.5 20.5q39 0 74.5 -7.5t78.5 -24.5l-16 -88q-73 28 -131 28q-18 0 -42 -4
q-24 -5 -37 -16.5t-13 -26.5q0 -16 13 -31.5t39 -27.5l44 -19q74 -29 115 -58q50 -36 79 -89.5zM364 108.5q35 20.5 55.5 55.5t20.5 76t-20.5 76t-55.5 55.5t-76 20.5t-76 -20.5t-55.5 -55.5t-20.5 -76t20.5 -76t55.5 -55.5t76 -20.5t76 20.5z" />
    <glyph glyph-name="epsilon" unicode="&#x3b5;" horiz-adv-x="480" 
d="M400 129l40 -76q-33 -29 -79.5 -45t-99.5 -16q-91 0 -148 36.5t-57 113.5q0 35 20.5 63.5t56.5 42.5q-34 13 -51.5 40.5t-17.5 59.5q0 70 51.5 105t136.5 35q48 0 96 -16t88 -46l-44 -76q-31 21 -61.5 31.5t-75.5 10.5t-70 -15.5t-25 -35.5q0 -28 39 -44.5t113 -16.5v-80
q-72 0 -116 -14.5t-44 -43.5q0 -27 31 -40.5t82 -13.5q78 0 135 41z" />
    <glyph glyph-name="zeta" unicode="&#x3b6;" horiz-adv-x="496" 
d="M303.5 461q-69.5 -64 -110.5 -129.5t-41 -119.5q0 -59 24.5 -88.5t60 -38t92.5 -11.5q49 -3 77 -9t47 -25t19 -58q0 -24 -3.5 -38t-12.5 -40h-80q6 25 6 43q0 23 -10.5 34t-35.5 11q-91 0 -150.5 14.5t-94.5 58t-35 127.5q0 92 76.5 197.5t190.5 186.5h-219v96h352v-96
q-83 -51 -152.5 -115z" />
    <glyph glyph-name="eta" unicode="&#x3b7;" horiz-adv-x="560" 
d="M454.5 434q49.5 -54 49.5 -158v-532h-96v524q0 61 -24.5 92.5t-83.5 31.5q-30 0 -61 -15.5t-51 -44.5t-20 -68v-264h-96v480h96v-56q56 64 150 64q87 0 136.5 -54z" />
    <glyph glyph-name="theta" unicode="&#x3b8;" horiz-adv-x="576" 
d="M412 634.5q53 -45.5 80.5 -124t27.5 -174.5t-27.5 -174.5t-80.5 -124t-124 -45.5q-72 0 -124.5 45.5t-80 124t-27.5 174.5t27.5 174.5t80 124t124.5 45.5q71 0 124 -45.5zM193.5 520.5q-36.5 -63.5 -40.5 -160.5h270q-4 97 -40.5 160.5t-94.5 63.5t-94.5 -63.5z
M382.5 151.5q36.5 63.5 40.5 160.5h-270q4 -97 40.5 -160.5t94.5 -63.5t94.5 63.5z" />
    <glyph glyph-name="iota" unicode="&#x3b9;" horiz-adv-x="272" 
d="M168 144q0 -36 8.5 -51.5t31.5 -15.5q11 0 24 3v-80q-30 -8 -63 -8q-97 0 -97 133v355h96v-336z" />
    <glyph glyph-name="kappa" unicode="&#x3ba;" horiz-adv-x="512" 
d="M504 0h-128l-208 204v-204h-96v480h96v-196l192 196h128l-240 -232z" />
    <glyph glyph-name="lambda" unicode="&#x3bb;" horiz-adv-x="592" 
d="M525 77q14 0 27 3v-80q-20 -8 -52 -8q-51 0 -85.5 26t-57.5 70.5t-48 116.5l-41 121l-123 -326h-105l178 449l-39 95q-18 44 -44 67.5t-58 23.5q-10 0 -21 -3v80q20 8 54 8q49 0 85 -33.5t59 -80t51 -120.5l122 -318q35 -91 98 -91z" />
    <glyph glyph-name="uni03BC" unicode="&#x3bc;" horiz-adv-x="576" 
d="M504 480v-480h-96v56q-56 -64 -150 -64q-52 0 -90 19v-267h-96v736h96v-268q0 -61 24.5 -92.5t83.5 -31.5q30 0 61 15.5t51 44.5t20 68v264h96z" />
    <glyph glyph-name="nu" unicode="&#x3bd;" horiz-adv-x="480" 
d="M8 480h104l128 -280l128 280h104l-232 -496z" />
    <glyph glyph-name="xi" unicode="&#x3be;" horiz-adv-x="528" 
d="M182 115.5q30 -23.5 87 -27.5q9 -1 30 -1q60 -3 101 -9.5t72.5 -29t31.5 -66.5q0 -38 -16 -78h-80q4 16 4 34q0 28 -23.5 41t-85.5 13q-129 0 -188 46.5t-59 138.5q0 54 35.5 99t94.5 72q-57 23 -85.5 65t-28.5 101q0 61 28 108t80.5 72.5t123.5 25.5q46 0 91.5 -18
t76.5 -46l-32 -80q-61 48 -136 48q-68 0 -102 -30.5t-34 -79.5q0 -63 63.5 -94.5t176.5 -31.5v-88q-113 0 -184.5 -33t-71.5 -90q0 -38 30 -61.5z" />
    <glyph glyph-name="omicron" unicode="&#x3bf;" horiz-adv-x="576" 
d="M412 454.5q57 -33.5 90.5 -90.5t33.5 -124t-33.5 -124t-90.5 -90.5t-124 -33.5t-124 33.5t-90.5 90.5t-33.5 124t33.5 124t90.5 90.5t124 33.5t124 -33.5zM364 108.5q35 20.5 55.5 55.5t20.5 76t-20.5 76t-55.5 55.5t-76 20.5t-76 -20.5t-55.5 -55.5t-20.5 -76t20.5 -76
t55.5 -55.5t76 -20.5t76 20.5z" />
    <glyph glyph-name="pi" unicode="&#x3c0;" 
d="M472 384v-240q0 -36 8.5 -51.5t31.5 -15.5q11 0 24 3v-80q-30 -8 -63 -8q-97 0 -97 133v259h-176v-384h-96v384h-64v96h512v-96h-80z" />
    <glyph glyph-name="rho" unicode="&#x3c1;" 
d="M444 454.5q57 -33.5 90.5 -90.5t33.5 -124t-33 -124t-88 -90.5t-119 -33.5q-44 0 -87 16.5t-73 48.5v-313h-96v496q0 67 33.5 124t90.5 90.5t124 33.5t124 -33.5zM396 108.5q35 20.5 55.5 55.5t20.5 76t-20.5 76t-55.5 55.5t-76 20.5t-76 -20.5t-55.5 -55.5t-20.5 -76
t20.5 -76t55.5 -55.5t76 -20.5t76 20.5z" />
    <glyph glyph-name="uni03C2" unicode="&#x3c2;" horiz-adv-x="528" 
d="M444.5 64q59.5 -21 59.5 -82q0 -38 -16 -78h-80q6 32 6 41q0 24 -23 35.5t-87 11.5q-83 0 -142.5 33t-90.5 89t-31 126q0 69 31 125.5t89.5 89.5t135.5 33q46 0 88 -14t72 -41l-41 -89q-23 22 -53.5 35t-64.5 13q-44 0 -81 -20.5t-58.5 -55.5t-21.5 -75
q0 -65 42.5 -107.5t118.5 -45.5q88 -3 147.5 -24z" />
    <glyph glyph-name="sigma" unicode="&#x3c3;" 
d="M568 384h-99q31 -23 49 -65.5t18 -90.5q0 -63 -33.5 -117t-90.5 -86.5t-124 -32.5t-124 33t-90.5 89t-33.5 122t33.5 122t90.5 89t124 33h280v-96zM364 108q35 20 55.5 54t20.5 74t-20.5 74t-55.5 54t-76 20t-76 -20t-55.5 -54t-20.5 -74t20.5 -74t55.5 -54t76 -20t76 20
z" />
    <glyph glyph-name="tau" unicode="&#x3c4;" horiz-adv-x="464" 
d="M280 384v-240q0 -36 8.5 -51.5t31.5 -15.5q11 0 24 3v-80q-30 -8 -63 -8q-97 0 -97 133v259h-144v96h384v-96h-144z" />
    <glyph glyph-name="upsilon" unicode="&#x3c5;" horiz-adv-x="544" 
d="M475 363q13 -53 13 -111q0 -78 -26.5 -137t-75 -91t-114.5 -32q-106 0 -161 64t-55 184v240h96v-266q0 -60 34 -93t86 -33q58 0 89 41.5t31 108.5q0 65 -12 118.5t-36 123.5h96q22 -64 35 -117z" />
    <glyph glyph-name="phi" unicode="&#x3c6;" horiz-adv-x="656" 
d="M499.5 469.5q54.5 -34.5 85.5 -90.5t31 -127t-31 -127t-85.5 -90.5t-123.5 -42.5v-248h-96v248q-69 8 -123.5 42.5t-85.5 90.5t-31 127t31 127t85.5 90.5t123.5 42.5v192h96v-192q69 -8 123.5 -42.5zM280 420q-63 -9 -103.5 -52.5t-40.5 -115.5t40.5 -115.5t103.5 -52.5
v336zM479.5 367.5q-40.5 43.5 -103.5 52.5v-336q63 9 103.5 52.5t40.5 115.5t-40.5 115.5z" />
    <glyph glyph-name="chi" unicode="&#x3c7;" horiz-adv-x="528" 
d="M504 0h-114l-126 181l-126 -181h-114l183 255l-168 225h114l111 -158l111 158h114l-168 -225z" />
    <glyph glyph-name="psi" unicode="&#x3c8;" horiz-adv-x="720" 
d="M664 480v-218q0 -124 -68.5 -190.5t-187.5 -79.5v-248h-96v248q-119 13 -187.5 79.5t-68.5 190.5v218h96v-222q0 -83 48 -122.5t112 -47.5v392h96v-392q64 8 112 47.5t48 122.5v222h96z" />
    <glyph glyph-name="omega" unicode="&#x3c9;" horiz-adv-x="720" 
d="M648 365.5q16 -61.5 16 -121.5q0 -125 -51 -188.5t-133 -63.5q-41 0 -66 15t-54 46q-29 -31 -54 -46t-66 -15q-83 0 -133.5 63.5t-50.5 188.5q0 60 16 121.5t41 114.5h90q-24 -62 -37.5 -121t-13.5 -121q0 -70 24.5 -110t63.5 -40q31 0 51.5 21.5t20.5 72.5v234h96v-234
q0 -51 20.5 -72.5t51.5 -21.5q39 0 63.5 40t24.5 110q0 62 -13.5 121t-37.5 121h90q25 -53 41 -114.5z" />
    <glyph glyph-name="iotadieresis" unicode="&#x3ca;" horiz-adv-x="272" 
d="M-7.5 560.5q-16.5 16.5 -16.5 39.5q0 24 16.5 40t39.5 16q24 0 40 -16t16 -40q0 -23 -16 -39.5t-40 -16.5q-23 0 -39.5 16.5zM168.5 560.5q-16.5 16.5 -16.5 39.5q0 24 16.5 40t39.5 16q24 0 40 -16t16 -40q0 -23 -16 -39.5t-40 -16.5q-23 0 -39.5 16.5zM168 144
q0 -36 8.5 -51.5t31.5 -15.5q11 0 24 3v-80q-30 -8 -63 -8q-97 0 -97 133v355h96v-336z" />
    <glyph glyph-name="upsilondieresis" unicode="&#x3cb;" horiz-adv-x="544" 
d="M112.5 560.5q-16.5 16.5 -16.5 39.5q0 24 16.5 40t39.5 16q24 0 40 -16t16 -40q0 -23 -16 -39.5t-40 -16.5q-23 0 -39.5 16.5zM288.5 560.5q-16.5 16.5 -16.5 39.5q0 24 16.5 40t39.5 16q24 0 40 -16t16 -40q0 -23 -16 -39.5t-40 -16.5q-23 0 -39.5 16.5zM475 363
q13 -53 13 -111q0 -78 -26.5 -137t-75 -91t-114.5 -32q-106 0 -161 64t-55 184v240h96v-266q0 -60 34 -93t86 -33q58 0 89 41.5t31 108.5q0 65 -12 118.5t-36 123.5h96q22 -64 35 -117z" />
    <glyph glyph-name="omicrontonos" unicode="&#x3cc;" horiz-adv-x="576" 
d="M280 672h96l-80 -128h-48zM412 454.5q57 -33.5 90.5 -90.5t33.5 -124t-33.5 -124t-90.5 -90.5t-124 -33.5t-124 33.5t-90.5 90.5t-33.5 124t33.5 124t90.5 90.5t124 33.5t124 -33.5zM364 108.5q35 20.5 55.5 55.5t20.5 76t-20.5 76t-55.5 55.5t-76 20.5t-76 -20.5
t-55.5 -55.5t-20.5 -76t20.5 -76t55.5 -55.5t76 -20.5t76 20.5z" />
    <glyph glyph-name="upsilontonos" unicode="&#x3cd;" horiz-adv-x="544" 
d="M232 672h96l-80 -128h-48zM475 363q13 -53 13 -111q0 -78 -26.5 -137t-75 -91t-114.5 -32q-106 0 -161 64t-55 184v240h96v-266q0 -60 34 -93t86 -33q58 0 89 41.5t31 108.5q0 65 -12 118.5t-36 123.5h96q22 -64 35 -117z" />
    <glyph glyph-name="omegatonos" unicode="&#x3ce;" horiz-adv-x="720" 
d="M352 672h96l-80 -128h-48zM648 365.5q16 -61.5 16 -121.5q0 -125 -51 -188.5t-133 -63.5q-41 0 -66 15t-54 46q-29 -31 -54 -46t-66 -15q-83 0 -133.5 63.5t-50.5 188.5q0 60 16 121.5t41 114.5h90q-24 -62 -37.5 -121t-13.5 -121q0 -70 24.5 -110t63.5 -40
q31 0 51.5 21.5t20.5 72.5v234h96v-234q0 -51 20.5 -72.5t51.5 -21.5q39 0 63.5 40t24.5 110q0 62 -13.5 121t-37.5 121h90q25 -53 41 -114.5z" />
    <glyph glyph-name="uni0401" unicode="&#x401;" horiz-adv-x="512" 
d="M128.5 752.5q-16.5 16.5 -16.5 39.5q0 24 16.5 40t39.5 16q24 0 40 -16t16 -40q0 -23 -16 -39.5t-40 -16.5q-23 0 -39.5 16.5zM304.5 752.5q-16.5 16.5 -16.5 39.5q0 24 16.5 40t39.5 16q24 0 40 -16t16 -40q0 -23 -16 -39.5t-40 -16.5q-23 0 -39.5 16.5zM168 576v-192
h240v-96h-240v-192h288v-96h-384v672h384v-96h-288z" />
    <glyph glyph-name="uni0402" unicode="&#x402;" horiz-adv-x="672" 
d="M567.5 346q48.5 -54 48.5 -162v-34q0 -99 -29 -152t-65.5 -70t-81.5 -24l-24 88q49 10 76.5 42t27.5 102v40q0 74 -27.5 105t-92.5 31q-68 0 -136 -40v-272h-96v576h-128v96h416v-96h-192v-216q29 16 71.5 28t80.5 12q103 0 151.5 -54z" />
    <glyph glyph-name="uni0403" unicode="&#x403;" horiz-adv-x="496" 
d="M248 864h112l-128 -128h-64zM168 576v-576h-96v672h384v-96h-288z" />
    <glyph glyph-name="uni0404" unicode="&#x404;" horiz-adv-x="640" 
d="M482 106q42 18 77 55l41 -90q-41 -38 -97.5 -58.5t-112.5 -20.5q-95 0 -175.5 46.5t-127.5 125.5t-47 172t47 172t127.5 125.5t175.5 46.5q57 0 113 -20t97 -58l-41 -90q-36 36 -77.5 54t-97.5 18q-60 0 -113 -27.5t-88 -75t-44 -105.5h301v-80h-301q9 -58 44 -105.5
t88 -75t113 -27.5q56 0 98 18z" />
    <glyph glyph-name="uni0405" unicode="&#x405;" horiz-adv-x="592" 
d="M494 323.5q58 -44.5 58 -126.5q0 -59 -31 -105.5t-88.5 -73t-134.5 -26.5q-103 0 -167.5 38.5t-90.5 70.5l48 86q42 -47 97.5 -73t114.5 -26q75 0 115.5 28t40.5 77q0 39 -40.5 64.5t-112.5 38.5q-133 23 -186.5 69.5t-53.5 119.5q0 55 28 99.5t83 70t131 25.5
q45 0 104.5 -15.5t112.5 -64.5l-46 -87q-73 71 -173 71q-69 0 -106.5 -25t-37.5 -70q0 -38 35 -59.5t117 -37.5q125 -24 183 -68.5z" />
    <glyph glyph-name="uni0406" unicode="&#x406;" horiz-adv-x="240" 
d="M72 0v672h96v-672h-96z" />
    <glyph glyph-name="uni0407" unicode="&#x407;" horiz-adv-x="240" 
d="M-7.5 752.5q-16.5 16.5 -16.5 39.5q0 24 16.5 40t39.5 16q24 0 40 -16t16 -40q0 -23 -16 -39.5t-40 -16.5q-23 0 -39.5 16.5zM168.5 752.5q-16.5 16.5 -16.5 39.5q0 24 16.5 40t39.5 16q24 0 40 -16t16 -40q0 -23 -16 -39.5t-40 -16.5q-23 0 -39.5 16.5zM72 0v672h96
v-672h-96z" />
    <glyph glyph-name="uni0408" unicode="&#x408;" horiz-adv-x="464" 
d="M408 672v-416q0 -132 -61 -198t-163 -66q-42 0 -83.5 19t-60.5 43l48 82q14 -21 39.5 -34.5t56.5 -13.5q65 0 96.5 42.5t31.5 117.5v424h96z" />
    <glyph glyph-name="uni0409" unicode="&#x409;" horiz-adv-x="1024" 
d="M924 332q60 -52 60 -139q0 -88 -61 -140.5t-187 -52.5h-200v576h-256v-296q0 -89 -5 -137.5t-27.5 -85.5t-72.5 -55q-29 -10 -61 -10t-58 8v96q19 -6 41 -6q33 0 52 12q35 23 35 93v477h448v-288h110q122 0 182 -52zM848.5 119q39.5 23 39.5 74q0 95 -146 95h-110v-192
h113q64 0 103.5 23z" />
    <glyph glyph-name="uni040A" unicode="&#x40a;" horiz-adv-x="976" 
d="M876 332q60 -52 60 -139q0 -88 -61 -140.5t-187 -52.5h-200v288h-320v-288h-96v672h96v-288h320v288h96v-288h110q122 0 182 -52zM800.5 119q39.5 23 39.5 74q0 95 -146 95h-110v-192h113q64 0 103.5 23z" />
    <glyph glyph-name="uni040B" unicode="&#x40b;" horiz-adv-x="672" 
d="M567.5 346q48.5 -54 48.5 -162v-184h-96v176q0 74 -27.5 105t-92.5 31q-68 0 -136 -40v-272h-96v576h-128v96h416v-96h-192v-216q29 16 71.5 28t80.5 12q103 0 151.5 -54z" />
    <glyph glyph-name="uni040C" unicode="&#x40c;" horiz-adv-x="592" 
d="M272 864h112l-128 -128h-64zM568 0h-128l-272 296v-296h-96v672h96v-296l256 296h128l-296 -329z" />
    <glyph glyph-name="uni040E" unicode="&#x40e;" 
d="M440 864q0 -53 -37.5 -90.5t-90.5 -37.5t-90.5 37.5t-37.5 90.5h56q0 -30 21 -51t51 -21t51 21t21 51h56zM600 672l-380 -672h-108l150 258l-238 414h108l180 -329l180 329h108z" />
    <glyph glyph-name="uni040F" unicode="&#x40f;" horiz-adv-x="656" 
d="M584 672v-672h-208v-128h-96v128h-208v672h96v-576h320v576h96z" />
    <glyph glyph-name="uni0410" unicode="&#x410;" horiz-adv-x="656" 
d="M479 144h-302l-65 -144h-104l320 688l320 -688h-104zM435 240l-107 236l-107 -236h214z" />
    <glyph glyph-name="uni0411" unicode="&#x411;" horiz-adv-x="592" 
d="M488.5 367.5q63.5 -56.5 63.5 -154.5q0 -99 -64.5 -156t-191.5 -57h-224v672h416v-96h-320v-152h134q123 0 186.5 -56.5zM416.5 123.5q39.5 27.5 39.5 89.5t-38.5 88.5t-107.5 26.5h-142v-232h145q64 0 103.5 27.5z" />
    <glyph glyph-name="uni0412" unicode="&#x412;" horiz-adv-x="576" 
d="M508 302.5q28 -45.5 28 -100.5q0 -58 -26 -104t-75 -72t-115 -26h-248v672h201q110 0 170.5 -45t60.5 -131q0 -49 -23 -85.5t-57 -49.5q56 -13 84 -58.5zM168 408h120q120 0 120 84q0 42 -31 63t-89 21h-120v-168zM404 123q36 27 36 81t-36 81t-100 27h-136v-216h136
q64 0 100 27z" />
    <glyph glyph-name="uni0413" unicode="&#x413;" horiz-adv-x="496" 
d="M168 576v-576h-96v672h384v-96h-288z" />
    <glyph glyph-name="uni0414" unicode="&#x414;" horiz-adv-x="752" 
d="M696 96v-224h-96v128h-464v-128h-96v224q74 43 105.5 106t39 159t7.5 311h408v-576h96zM504 96v480h-216q0 -186 -19 -299.5t-74 -180.5h309z" />
    <glyph glyph-name="uni0415" unicode="&#x415;" horiz-adv-x="512" 
d="M168 576v-192h240v-96h-240v-192h288v-96h-384v672h384v-96h-288z" />
    <glyph glyph-name="uni0416" unicode="&#x416;" horiz-adv-x="944" 
d="M920 0h-128l-247 284l-25 -28v-256h-96v256l-25 28l-247 -284h-128l309 353l-293 319h128l256 -288v288h96v-288l256 288h128l-293 -319z" />
    <glyph glyph-name="uni0417" unicode="&#x417;" horiz-adv-x="560" 
d="M216 380q81 0 136.5 27t55.5 81q0 47 -38 71.5t-102 24.5q-58 0 -97.5 -19.5t-74.5 -52.5l-42 80q41 40 97.5 64t120.5 24q65 0 117.5 -22.5t83.5 -66t31 -103.5q0 -44 -23.5 -84t-69.5 -58q52 -17 80.5 -58t28.5 -96q0 -62 -32.5 -107t-88.5 -69t-126 -24
q-74 0 -132.5 25t-100.5 67l48 82q28 -33 70 -55.5t110 -22.5q66 0 111 27.5t45 76.5q0 58 -56.5 79t-151.5 21v88z" />
    <glyph glyph-name="uni0418" unicode="&#x418;" horiz-adv-x="704" 
d="M72 672h96v-460l464 476v-688h-96v460l-464 -476v688z" />
    <glyph glyph-name="uni0419" unicode="&#x419;" horiz-adv-x="704" 
d="M480 864q0 -53 -37.5 -90.5t-90.5 -37.5t-90.5 37.5t-37.5 90.5h56q0 -30 21 -51t51 -21t51 21t21 51h56zM72 672h96v-460l464 476v-688h-96v460l-464 -476v688z" />
    <glyph glyph-name="uni041A" unicode="&#x41a;" horiz-adv-x="592" 
d="M568 0h-128l-272 296v-296h-96v672h96v-296l256 296h128l-296 -329z" />
    <glyph glyph-name="uni041B" unicode="&#x41b;" horiz-adv-x="704" 
d="M632 0h-96v576h-256v-296q0 -89 -5 -137.5t-27.5 -85.5t-72.5 -55q-29 -10 -61 -10t-58 8v96q19 -6 41 -6q33 0 52 12q35 23 35 93v477h448v-672z" />
    <glyph glyph-name="uni041C" unicode="&#x41c;" horiz-adv-x="832" 
d="M202 398l-64 -398h-98l114 688l262 -508l262 508l114 -688h-98l-64 398l-214 -414z" />
    <glyph glyph-name="uni041D" unicode="&#x41d;" horiz-adv-x="656" 
d="M584 672v-672h-96v288h-320v-288h-96v672h96v-288h320v288h96z" />
    <glyph glyph-name="uni041E" unicode="&#x41e;" horiz-adv-x="768" 
d="M556 633.5q79 -46.5 125.5 -125.5t46.5 -172t-46.5 -172t-125.5 -125.5t-172 -46.5t-172 46.5t-125.5 125.5t-46.5 172t46.5 172t125.5 125.5t172 46.5t172 -46.5zM509 121q57 33 90 90t33 125t-33 125t-90 90t-125 33t-125 -33t-90 -90t-33 -125t33 -125t90 -90t125 -33
t125 33z" />
    <glyph glyph-name="uni041F" unicode="&#x41f;" horiz-adv-x="656" 
d="M584 0h-96v576h-320v-576h-96v672h512v-672z" />
    <glyph glyph-name="uni0420" unicode="&#x420;" horiz-adv-x="576" 
d="M471.5 614q64.5 -58 64.5 -157q0 -63 -27 -114.5t-78.5 -81t-120.5 -29.5h-142v-232h-96v672h208q127 0 191.5 -58zM404 358.5q36 30.5 36 92.5t-39 93.5t-96 31.5h-137v-248h143q57 0 93 30.5z" />
    <glyph glyph-name="uni0421" unicode="&#x421;" horiz-adv-x="640" 
d="M482 106q42 18 77 55l41 -90q-41 -38 -97.5 -58.5t-112.5 -20.5q-95 0 -175.5 46.5t-127.5 125.5t-47 172t47 172t127.5 125.5t175.5 46.5q57 0 113 -20t97 -58l-41 -90q-36 36 -77.5 54t-97.5 18q-67 0 -124 -33.5t-90.5 -90.5t-33.5 -124t33.5 -124t90.5 -90.5
t124 -33.5q56 0 98 18z" />
    <glyph glyph-name="uni0422" unicode="&#x422;" horiz-adv-x="528" 
d="M488 672v-96h-176v-576h-96v576h-176v96h448z" />
    <glyph glyph-name="uni0423" unicode="&#x423;" 
d="M600 672l-380 -672h-108l150 258l-238 414h108l180 -329l180 329h108z" />
    <glyph glyph-name="uni0424" unicode="&#x424;" horiz-adv-x="784" 
d="M704 205q-40 -66 -110 -103.5t-154 -37.5v-64h-96v64q-84 0 -154 37.5t-110 103.5t-40 147q0 83 41 148.5t110.5 102.5t152.5 37v64h96v-64q83 0 152.5 -37t110.5 -102.5t41 -148.5q0 -81 -40 -147zM344 548q-88 0 -148 -48.5t-60 -147.5q0 -100 59.5 -148t148.5 -48v392
zM589 204q59 48 59 148t-59 148t-149 48v-392q90 0 149 48z" />
    <glyph glyph-name="uni0425" unicode="&#x425;" horiz-adv-x="656" 
d="M516 0l-188 271l-188 -271h-116l244 347l-228 325h115l173 -250l173 250h115l-228 -325l244 -347h-116z" />
    <glyph glyph-name="uni0426" unicode="&#x426;" horiz-adv-x="736" 
d="M680 96v-224h-96v128h-512v672h96v-576h320v576h96v-576h96z" />
    <glyph glyph-name="uni0427" unicode="&#x427;" 
d="M122 284.5q-66 52.5 -66 171.5v216h96v-208q0 -73 39 -104.5t113 -31.5q35 0 65 7t48 14.5t23 10.5v312h96v-672h-96v268q-81 -36 -160 -36q-92 0 -158 52.5z" />
    <glyph glyph-name="uni0428" unicode="&#x428;" horiz-adv-x="896" 
d="M824 672v-672h-752v672h96v-576h232v576h96v-576h232v576h96z" />
    <glyph glyph-name="uni0429" unicode="&#x429;" horiz-adv-x="976" 
d="M920 96v-224h-96v128h-752v672h96v-576h232v576h96v-576h232v576h96v-576h96z" />
    <glyph glyph-name="uni042A" unicode="&#x42a;" horiz-adv-x="672" 
d="M568.5 367.5q63.5 -56.5 63.5 -154.5q0 -99 -64.5 -156t-191.5 -57h-208v576h-128v96h224v-248h118q123 0 186.5 -56.5zM496.5 123.5q39.5 27.5 39.5 89.5t-38.5 88.5t-107.5 26.5h-126v-232h129q64 0 103.5 27.5z" />
    <glyph glyph-name="uni042B" unicode="&#x42b;" horiz-adv-x="800" 
d="M472.5 367.5q63.5 -56.5 63.5 -154.5q0 -99 -64.5 -156t-191.5 -57h-208v672h96v-248h118q123 0 186.5 -56.5zM632 0v672h96v-672h-96zM400.5 123.5q39.5 27.5 39.5 89.5t-38.5 88.5t-107.5 26.5h-126v-232h129q64 0 103.5 27.5z" />
    <glyph glyph-name="uni042C" unicode="&#x42c;" horiz-adv-x="576" 
d="M472.5 367.5q63.5 -56.5 63.5 -154.5q0 -99 -64.5 -156t-191.5 -57h-208v672h96v-248h118q123 0 186.5 -56.5zM400.5 123.5q39.5 27.5 39.5 89.5t-38.5 88.5t-107.5 26.5h-126v-232h129q64 0 103.5 27.5z" />
    <glyph glyph-name="uni042D" unicode="&#x42d;" horiz-adv-x="640" 
d="M369 115.5q53 27.5 88 75t44 105.5h-301v80h301q-9 58 -44 105.5t-88 75t-113 27.5q-56 0 -97.5 -18t-77.5 -54l-41 90q41 38 97 58t113 20q95 0 175.5 -46.5t127.5 -125.5t47 -172t-47 -172t-127.5 -125.5t-175.5 -46.5q-56 0 -112.5 20.5t-97.5 58.5l41 90
q35 -37 77 -55t98 -18q60 0 113 27.5z" />
    <glyph glyph-name="uni042E" unicode="&#x42e;" horiz-adv-x="1008" 
d="M796 633.5q79 -46.5 125.5 -125.5t46.5 -172t-46.5 -172t-125.5 -125.5t-172 -46.5q-85 0 -159 39t-122 106.5t-60 150.5h-115v-288h-96v672h96v-288h115q12 83 60 150.5t122 106.5t159 39q93 0 172 -46.5zM749 121q57 33 90 90t33 125t-33 125t-90 90t-125 33t-125 -33
t-90 -90t-33 -125t33 -125t90 -90t125 -33t125 33z" />
    <glyph glyph-name="uni042F" unicode="&#x42f;" horiz-adv-x="592" 
d="M213 241q-74 20 -115.5 78.5t-41.5 137.5q0 99 64.5 157t191.5 58h208v-672h-96v232h-105l-167 -232h-112zM279 576q-56 0 -91.5 -31t-35.5 -94q0 -62 36 -92.5t93 -30.5h143v248h-145z" />
    <glyph glyph-name="uni0430" unicode="&#x430;" 
d="M536 480v-480h-96v70q-29 -38 -70 -58t-90 -20q-69 0 -123.5 33t-85.5 90t-31 125t31 125t85.5 90t123.5 33q49 0 90 -20t70 -58v70h96zM364 108.5q35 20.5 55.5 55.5t20.5 76t-20.5 76t-55.5 55.5t-76 20.5t-76 -20.5t-55.5 -55.5t-20.5 -76t20.5 -76t55.5 -55.5
t76 -20.5t76 20.5z" />
    <glyph glyph-name="uni0431" unicode="&#x431;" horiz-adv-x="576" 
d="M412 454.5q57 -33.5 90.5 -90.5t33.5 -124t-33.5 -124t-90.5 -90.5t-124 -33.5t-124 33.5t-90.5 90.5t-33.5 125q0 97 44 176.5t128 146.5l34 27q48 37 69.5 59t36.5 54h104q-12 -81 -107 -141l-28 -17q-34 -21 -56.5 -37t-38.5 -33q27 12 62 12q67 0 124 -33.5z
M364 108.5q35 20.5 55.5 55.5t20.5 76t-20.5 76t-55.5 55.5t-76 20.5t-76 -20.5t-55.5 -55.5t-20.5 -76t20.5 -76t55.5 -55.5t76 -20.5t76 20.5z" />
    <glyph glyph-name="uni0432" unicode="&#x432;" horiz-adv-x="528" 
d="M449.5 215.5q22.5 -29.5 22.5 -67.5q0 -148 -192 -148h-208v480h184q102 0 151 -36t49 -98q0 -33 -17 -57.5t-47 -35.5q35 -8 57.5 -37.5zM168 288h115q34 0 55.5 10t21.5 38q0 29 -21 38.5t-56 9.5h-115v-96zM354 108.5q22 12.5 22 39.5t-22 39.5t-57 12.5h-129v-104
h129q35 0 57 12.5z" />
    <glyph glyph-name="uni0433" unicode="&#x433;" horiz-adv-x="400" 
d="M168 0h-96v480h288v-96h-192v-384z" />
    <glyph glyph-name="uni0434" unicode="&#x434;" horiz-adv-x="656" 
d="M600 96v-224h-96v128h-368v-128h-96v224q62 18 93 66.5t41 122.5t10 195h336v-384h80zM424 96v288h-152q0 -101 -16 -174t-59 -114h227z" />
    <glyph glyph-name="uni0435" unicode="&#x435;" horiz-adv-x="544" 
d="M501 196h-363q11 -54 53.5 -81t102.5 -27q78 0 146 48l32 -86q-22 -18 -67.5 -38t-112.5 -20q-81 0 -138 33t-85.5 89.5t-28.5 125.5t29.5 125.5t83.5 89.5t126 33q64 0 115 -30.5t80.5 -87t29.5 -132.5q0 -22 -3 -42zM406 284q-1 26 -15.5 50.5t-43.5 41t-72 16.5
q-41 0 -72 -16.5t-47.5 -41.5t-17.5 -50h268z" />
    <glyph glyph-name="uni0436" unicode="&#x436;" horiz-adv-x="784" 
d="M760 0h-128l-174 198l-18 -18v-180h-96v180l-18 18l-174 -198h-128l238 258l-222 222h128l176 -188v188h96v-188l176 188h128l-222 -222z" />
    <glyph glyph-name="uni0437" unicode="&#x437;" horiz-adv-x="480" 
d="M297 101.5q31 13.5 31 40.5q0 29 -44 43.5t-116 14.5v80q74 0 113 16.5t39 44.5q0 20 -25 35.5t-70 15.5t-75.5 -10.5t-61.5 -31.5l-44 76q40 30 88 46t96 16q85 0 136.5 -35t51.5 -105q0 -32 -17.5 -59.5t-51.5 -40.5q36 -14 56.5 -42.5t20.5 -63.5q0 -77 -57 -113.5
t-148 -36.5q-53 0 -99.5 16t-79.5 45l40 76q57 -41 135 -41q51 0 82 13.5z" />
    <glyph glyph-name="uni0438" unicode="&#x438;" horiz-adv-x="576" 
d="M168 190l336 306v-496h-96v290l-336 -306v496h96v-290z" />
    <glyph glyph-name="uni0439" unicode="&#x439;" horiz-adv-x="576" 
d="M416 672q0 -53 -37.5 -90.5t-90.5 -37.5t-90.5 37.5t-37.5 90.5h56q0 -30 21 -51t51 -21t51 21t21 51h56zM168 190l336 306v-496h-96v290l-336 -306v496h96v-290z" />
    <glyph glyph-name="uni043A" unicode="&#x43a;" horiz-adv-x="512" 
d="M504 0h-128l-208 204v-204h-96v480h96v-196l192 196h128l-240 -232z" />
    <glyph glyph-name="uni043B" unicode="&#x43b;" horiz-adv-x="592" 
d="M424 384h-176v-211q0 -94 -31.5 -137.5t-93.5 -43.5q-24 0 -38 1.5t-29 6.5v80q22 -5 34 -5q62 0 62 77v328h368v-480h-96v384z" />
    <glyph glyph-name="uni043C" unicode="&#x43c;" horiz-adv-x="672" 
d="M500 264l-164 -264l-164 264l-52 -264h-96l107 496l205 -341l205 341l107 -496h-96z" />
    <glyph glyph-name="uni043D" unicode="&#x43d;" horiz-adv-x="576" 
d="M504 480v-480h-96v192h-240v-192h-96v480h96v-192h240v192h96z" />
    <glyph glyph-name="uni043E" unicode="&#x43e;" horiz-adv-x="576" 
d="M412 454.5q57 -33.5 90.5 -90.5t33.5 -124t-33.5 -124t-90.5 -90.5t-124 -33.5t-124 33.5t-90.5 90.5t-33.5 124t33.5 124t90.5 90.5t124 33.5t124 -33.5zM364 108.5q35 20.5 55.5 55.5t20.5 76t-20.5 76t-55.5 55.5t-76 20.5t-76 -20.5t-55.5 -55.5t-20.5 -76t20.5 -76
t55.5 -55.5t76 -20.5t76 20.5z" />
    <glyph glyph-name="uni043F" unicode="&#x43f;" horiz-adv-x="576" 
d="M504 0h-96v384h-240v-384h-96v480h432v-480z" />
    <glyph glyph-name="uni0440" unicode="&#x440;" 
d="M451.5 455q54.5 -33 85.5 -90t31 -125t-31 -125t-85.5 -90t-123.5 -33q-49 0 -90 20t-70 58v-326h-96v736h96v-70q29 38 70 58t90 20q69 0 123.5 -33zM396 108.5q35 20.5 55.5 55.5t20.5 76t-20.5 76t-55.5 55.5t-76 20.5t-76 -20.5t-55.5 -55.5t-20.5 -76t20.5 -76
t55.5 -55.5t76 -20.5t76 20.5z" />
    <glyph glyph-name="uni0441" unicode="&#x441;" horiz-adv-x="496" 
d="M71 365.5q31 56.5 89.5 89.5t135.5 33q46 0 88 -14t72 -41l-41 -89q-23 22 -53.5 35t-64.5 13q-44 0 -81 -20.5t-58.5 -55.5t-21.5 -75q0 -41 21.5 -76.5t58.5 -56t81 -20.5q34 0 64.5 13t53.5 36l41 -90q-28 -26 -71.5 -40.5t-88.5 -14.5q-78 0 -136 33t-89 89.5
t-31 125.5t31 125.5z" />
    <glyph glyph-name="uni0442" unicode="&#x442;" horiz-adv-x="464" 
d="M424 480v-96h-144v-384h-96v384h-144v96h384z" />
    <glyph glyph-name="uni0443" unicode="&#x443;" horiz-adv-x="512" 
d="M504 480l-325 -736h-105l128 287l-194 449h107l141 -332l141 332h107z" />
    <glyph glyph-name="uni0444" unicode="&#x444;" horiz-adv-x="816" 
d="M669.5 457q49.5 -31 78 -86t28.5 -123q0 -72 -28.5 -130.5t-78 -92t-111.5 -33.5q-59 0 -102 24v-240h-96v240q-43 -24 -102 -24q-62 0 -111.5 33.5t-78 92t-28.5 130.5q0 68 28.5 123t78 86t111.5 31q59 0 102 -24v240h96v-240q43 24 102 24q62 0 111.5 -31zM333 107
q27 19 27 66v146q0 33 -29 53t-64 20q-60 0 -95.5 -40t-35.5 -104q0 -71 35.5 -115.5t95.5 -44.5q39 0 66 19zM644.5 132.5q35.5 44.5 35.5 115.5q0 64 -35.5 104t-95.5 40q-35 0 -64 -20t-29 -53v-146q0 -47 27 -66t66 -19q60 0 95.5 44.5z" />
    <glyph glyph-name="uni0445" unicode="&#x445;" horiz-adv-x="528" 
d="M504 0h-114l-126 181l-126 -181h-114l183 255l-168 225h114l111 -158l111 158h114l-168 -225z" />
    <glyph glyph-name="uni0446" unicode="&#x446;" horiz-adv-x="656" 
d="M600 96v-224h-96v128h-432v480h96v-384h240v384h96v-384h96z" />
    <glyph glyph-name="uni0447" unicode="&#x447;" horiz-adv-x="544" 
d="M109 204q-53 44 -53 148v128h96v-118q0 -58 26 -80t78 -26q25 -2 61.5 3t58.5 12v209h96v-480h-96v184q-24 -10 -59 -17t-69 -7q-86 0 -139 44z" />
    <glyph glyph-name="uni0448" unicode="&#x448;" horiz-adv-x="784" 
d="M712 480v-480h-640v480h96v-384h176v384h96v-384h176v384h96z" />
    <glyph glyph-name="uni0449" unicode="&#x449;" horiz-adv-x="864" 
d="M808 96v-224h-96v128h-640v480h96v-384h176v384h96v-384h176v384h96v-384h96z" />
    <glyph glyph-name="uni044A" unicode="&#x44a;" 
d="M514.5 280q53.5 -40 53.5 -116q0 -77 -54 -120.5t-154 -43.5h-192v384h-128v96h224v-160h96q101 0 154.5 -40zM446 111.5q26 15.5 26 48.5q0 34 -26 49t-60 15h-122v-128h122q34 0 60 15.5z" />
    <glyph glyph-name="uni044B" unicode="&#x44b;" horiz-adv-x="736" 
d="M72 480h96v-160h96q101 0 154.5 -40t53.5 -116q0 -77 -54 -120.5t-154 -43.5h-192v480zM568 480h96v-480h-96v480zM350 111.5q26 15.5 26 48.5q0 34 -26 49t-60 15h-122v-128h122q34 0 60 15.5z" />
    <glyph glyph-name="uni044C" unicode="&#x44c;" horiz-adv-x="512" 
d="M72 480h96v-160h96q101 0 154.5 -40t53.5 -116q0 -77 -54 -120.5t-154 -43.5h-192v480zM350 111.5q26 15.5 26 48.5q0 34 -26 49t-60 15h-122v-128h122q34 0 60 15.5z" />
    <glyph glyph-name="uni044D" unicode="&#x44d;" horiz-adv-x="496" 
d="M300 122q44 34 56 86h-204v64h205q-12 52 -56 86t-102 34q-34 0 -64.5 -13t-53.5 -35l-41 89q30 27 72 41t88 14q77 0 135.5 -33t89.5 -89.5t31 -125.5t-31 -125.5t-89 -89.5t-136 -33q-45 0 -88.5 14.5t-71.5 40.5l41 90q23 -23 53.5 -36t64.5 -13q57 0 101 34z" />
    <glyph glyph-name="uni044E" unicode="&#x44e;" horiz-adv-x="816" 
d="M652 454.5q57 -33.5 90.5 -90.5t33.5 -124t-33.5 -124t-90.5 -90.5t-124 -33.5q-60 0 -113 27.5t-88 75t-44 105.5h-115v-200h-96v480h96v-200h115q9 58 44 105.5t88 75t113 27.5q67 0 124 -33.5zM604 108.5q35 20.5 55.5 55.5t20.5 76t-20.5 76t-55.5 55.5t-76 20.5
t-76 -20.5t-55.5 -55.5t-20.5 -76t20.5 -76t55.5 -55.5t76 -20.5t76 20.5z" />
    <glyph glyph-name="uni044F" unicode="&#x44f;" horiz-adv-x="528" 
d="M456 480v-480h-96v153h-48l-147 -153h-125l155 153q-29 0 -62 19.5t-55 54.5t-22 77q0 87 58 131.5t166 44.5h176zM179.5 366q-27.5 -18 -27.5 -53q0 -70 103 -70h105v141h-109q-44 0 -71.5 -18z" />
    <glyph glyph-name="uni0451" unicode="&#x451;" horiz-adv-x="544" 
d="M144.5 560.5q-16.5 16.5 -16.5 39.5q0 24 16.5 40t39.5 16q24 0 40 -16t16 -40q0 -23 -16 -39.5t-40 -16.5q-23 0 -39.5 16.5zM320.5 560.5q-16.5 16.5 -16.5 39.5q0 24 16.5 40t39.5 16q24 0 40 -16t16 -40q0 -23 -16 -39.5t-40 -16.5q-23 0 -39.5 16.5zM501 196h-363
q11 -54 53.5 -81t102.5 -27q78 0 146 48l32 -86q-22 -18 -67.5 -38t-112.5 -20q-81 0 -138 33t-85.5 89.5t-28.5 125.5t29.5 125.5t83.5 89.5t126 33q64 0 115 -30.5t80.5 -87t29.5 -132.5q0 -22 -3 -42zM406 284q-1 26 -15.5 50.5t-43.5 41t-72 16.5q-41 0 -72 -16.5
t-47.5 -41.5t-17.5 -50h268z" />
    <glyph glyph-name="uni0452" unicode="&#x452;" horiz-adv-x="576" 
d="M472.5 431.5q47.5 -56.5 47.5 -163.5v-286q0 -99 -29 -152t-65.5 -70t-81.5 -24l-24 88q49 10 76.5 42t27.5 102v300q0 61 -24.5 92.5t-83.5 31.5q-30 0 -61 -15.5t-51 -44.5t-20 -68v-264h-96v560h-64v48h64v96h96v-96h64v-48h-64v-136q56 64 150 64q91 0 138.5 -56.5z
" />
    <glyph glyph-name="uni0453" unicode="&#x453;" horiz-adv-x="400" 
d="M208 672h112l-128 -128h-64zM168 0h-96v480h288v-96h-192v-384z" />
    <glyph glyph-name="uni0454" unicode="&#x454;" horiz-adv-x="496" 
d="M361.5 101q30.5 13 53.5 36l41 -90q-28 -26 -71.5 -40.5t-88.5 -14.5q-78 0 -136 33t-89 89.5t-31 125.5t31 125.5t89.5 89.5t135.5 33q46 0 88 -14t72 -41l-41 -89q-23 22 -53.5 35t-64.5 13q-58 0 -102 -34t-56 -86h205v-64h-204q12 -52 56 -86t101 -34q34 0 64.5 13z
" />
    <glyph glyph-name="uni0455" unicode="&#x455;" horiz-adv-x="480" 
d="M401 239q39 -38 39 -89q0 -73 -50 -115.5t-142 -42.5q-70 0 -127.5 23t-80.5 45l38 94q29 -28 79 -47t92 -19q44 0 69.5 14.5t25.5 36.5q0 25 -23 38.5t-71 22.5q-77 14 -119 34t-58.5 48t-16.5 69q0 40 24 71t68.5 48.5t102.5 17.5q37 0 83 -11t91 -35l-33 -90
q-19 14 -62 27t-85 13q-40 0 -66.5 -10t-26.5 -32q0 -17 15 -26.5t32.5 -13.5t65.5 -14q97 -19 136 -57z" />
    <glyph glyph-name="uni0456" unicode="&#x456;" horiz-adv-x="240" 
d="M69 581q-21 21 -21 51t21 51t51 21t51 -21t21 -51t-21 -51t-51 -21t-51 21zM72 480h96v-480h-96v480z" />
    <glyph glyph-name="uni0457" unicode="&#x457;" horiz-adv-x="240" 
d="M-7.5 560.5q-16.5 16.5 -16.5 39.5q0 24 16.5 40t39.5 16q24 0 40 -16t16 -40q0 -23 -16 -39.5t-40 -16.5q-23 0 -39.5 16.5zM168.5 560.5q-16.5 16.5 -16.5 39.5q0 24 16.5 40t39.5 16q24 0 40 -16t16 -40q0 -23 -16 -39.5t-40 -16.5q-23 0 -39.5 16.5zM72 480h96v-480
h-96v480z" />
    <glyph glyph-name="uni0458" unicode="&#x458;" horiz-adv-x="240" 
d="M69 581q-21 21 -21 51t21 51t51 21t51 -21t21 -51t-21 -51t-51 -21t-51 21zM72 480h96v-498q0 -99 -29 -152t-65.5 -70t-81.5 -24l-24 88q49 10 76.5 42t27.5 102v512z" />
    <glyph glyph-name="uni0459" unicode="&#x459;" horiz-adv-x="848" 
d="M808 156q0 -76 -53.5 -116t-154.5 -40h-176v384h-176v-211q0 -94 -31.5 -137.5t-93.5 -43.5q-24 0 -38 1.5t-29 6.5v80q22 -5 34 -5q62 0 62 77v328h368v-176h80q208 0 208 -148zM712 152q0 56 -90 56h-102v-112h102q90 0 90 56z" />
    <glyph glyph-name="uni045A" unicode="&#x45a;" horiz-adv-x="832" 
d="M792 156q0 -76 -53.5 -116t-154.5 -40h-176v208h-240v-208h-96v480h96v-176h240v176h96v-176h80q208 0 208 -148zM696 152q0 56 -90 56h-102v-112h102q90 0 90 56z" />
    <glyph glyph-name="uni045B" unicode="&#x45b;" horiz-adv-x="576" 
d="M472.5 431.5q47.5 -56.5 47.5 -163.5v-268h-96v268q0 61 -24.5 92.5t-83.5 31.5q-30 0 -61 -15.5t-51 -44.5t-20 -68v-264h-96v560h-64v48h64v96h96v-96h64v-48h-64v-136q56 64 150 64q91 0 138.5 -56.5z" />
    <glyph glyph-name="uni045C" unicode="&#x45c;" horiz-adv-x="512" 
d="M256 672h112l-128 -128h-64zM504 0h-128l-208 204v-204h-96v480h96v-196l192 196h128l-240 -232z" />
    <glyph glyph-name="uni045E" unicode="&#x45e;" horiz-adv-x="512" 
d="M384 672q0 -53 -37.5 -90.5t-90.5 -37.5t-90.5 37.5t-37.5 90.5h56q0 -30 21 -51t51 -21t51 21t21 51h56zM504 480l-325 -736h-105l128 287l-194 449h107l141 -332l141 332h107z" />
    <glyph glyph-name="uni045F" unicode="&#x45f;" horiz-adv-x="576" 
d="M504 480v-480h-168v-128h-96v128h-168v480h96v-384h240v384h96z" />
    <glyph glyph-name="uni0462" unicode="&#x462;" 
d="M504.5 367.5q63.5 -56.5 63.5 -154.5q0 -99 -64.5 -156t-191.5 -57h-208v520h-80v80h80v104h96v-104h160v-80h-160v-96h118q123 0 186.5 -56.5zM432.5 123.5q39.5 27.5 39.5 89.5t-38.5 88.5t-107.5 26.5h-126v-232h129q64 0 103.5 27.5z" />
    <glyph glyph-name="uni0463" unicode="&#x463;" horiz-adv-x="528" 
d="M434.5 280q53.5 -40 53.5 -116q0 -77 -54 -120.5t-154 -43.5h-192v400h-64v48h64v64h96v-64h64v-48h-64v-80h96q101 0 154.5 -40zM366 111.5q26 15.5 26 48.5q0 34 -26 49t-60 15h-122v-128h122q34 0 60 15.5z" />
    <glyph glyph-name="uni0472" unicode="&#x472;" horiz-adv-x="768" 
d="M556 633.5q79 -46.5 125.5 -125.5t46.5 -172t-46.5 -172t-125.5 -125.5t-172 -46.5t-172 46.5t-125.5 125.5t-46.5 172t46.5 172t125.5 125.5t172 46.5t172 -46.5zM266 554.5q-54 -29.5 -88.5 -80.5t-40.5 -113q50 23 131 23q58 0 119 -18q68 -19 126 -19q79 0 115 33
q-10 58 -44.5 104.5t-86.5 73t-113 26.5q-64 0 -118 -29.5zM501.5 117q54.5 29 89 80t40.5 113q-49 -22 -128 -22q-29 0 -64 5.5t-62 13.5q-66 19 -123 19q-78 0 -114 -33q10 -58 44.5 -105t87 -73.5t112.5 -26.5q63 0 117.5 29z" />
    <glyph glyph-name="uni0473" unicode="&#x473;" horiz-adv-x="576" 
d="M412 454.5q57 -33.5 90.5 -90.5t33.5 -124t-33.5 -124t-90.5 -90.5t-124 -33.5t-124 33.5t-90.5 90.5t-33.5 124t33.5 124t90.5 90.5t124 33.5t124 -33.5zM195.5 360q-40.5 -32 -54.5 -81q27 9 62 9q23 0 41.5 -4.5t45.5 -13.5q51 -18 81 -18q40 0 63 30q-14 48 -55 79
t-91 31q-52 0 -92.5 -32zM380.5 120q40.5 32 54.5 81q-26 -9 -59 -9q-24 0 -44 4.5t-49 14.5q-51 17 -79 17q-41 0 -62 -30q14 -48 55 -79t91 -31q52 0 92.5 32z" />
    <glyph glyph-name="uni0474" unicode="&#x474;" horiz-adv-x="672" 
d="M601 680q20 0 47 -8v-96q-16 3 -30 3q-23 0 -39 -13t-31 -47l-236 -535l-304 688h104l200 -462l131 303q31 72 55.5 108t55.5 49q23 10 47 10z" />
    <glyph glyph-name="uni0475" unicode="&#x475;" horiz-adv-x="528" 
d="M487 484.5q13 -3.5 17 -4.5v-80q-10 3 -21 3q-27 0 -47 -21t-40 -64l-156 -334l-232 496h104l128 -280l33 70q6 13 11 24t9 20q26 58 45.5 92.5t47.5 58t65 23.5q23 0 36 -3.5z" />
    <glyph glyph-name="uni0490" unicode="&#x490;" horiz-adv-x="496" 
d="M456 768v-192h-288v-576h-96v672h304v96h80z" />
    <glyph glyph-name="uni0491" unicode="&#x491;" horiz-adv-x="400" 
d="M360 576v-192h-192v-384h-96v480h208v96h80z" />
    <glyph glyph-name="uni0492" unicode="&#x492;" horiz-adv-x="512" 
d="M184 576v-240h96v-48h-96v-288h-96v288h-64v48h64v336h384v-96h-288z" />
    <glyph glyph-name="uni0493" unicode="&#x493;" horiz-adv-x="416" 
d="M184 384v-144h96v-48h-96v-192h-96v192h-64v48h64v240h288v-96h-192z" />
    <glyph glyph-name="uni0496" unicode="&#x496;" horiz-adv-x="944" 
d="M920 96v-192h-80v96h-48l-247 284l-25 -28v-256h-96v256l-25 28l-247 -284h-128l309 353l-293 319h128l256 -288v288h96v-288l256 288h128l-293 -319l225 -257h84z" />
    <glyph glyph-name="uni0497" unicode="&#x497;" horiz-adv-x="784" 
d="M760 96v-192h-80v96h-48l-174 198l-18 -18v-180h-96v180l-18 18l-174 -198h-128l238 258l-222 222h128l176 -188v188h96v-188l176 188h128l-222 -222l149 -162h89z" />
    <glyph glyph-name="uni049A" unicode="&#x49a;" horiz-adv-x="592" 
d="M568 96v-192h-80v96h-48l-272 296v-296h-96v672h96v-296l256 296h128l-296 -329l225 -247h87z" />
    <glyph glyph-name="uni049B" unicode="&#x49b;" horiz-adv-x="528" 
d="M504 96v-192h-80v96h-48l-208 204v-204h-96v480h96v-196l192 196h128l-240 -232l157 -152h99z" />
    <glyph glyph-name="uni04A2" unicode="&#x4a2;" horiz-adv-x="688" 
d="M664 96v-192h-80v96h-96v288h-320v-288h-96v672h96v-288h320v288h96v-576h80z" />
    <glyph glyph-name="uni04A3" unicode="&#x4a3;" 
d="M584 96v-192h-80v96h-96v192h-240v-192h-96v480h96v-192h240v192h96v-384h80z" />
    <glyph glyph-name="uni04AE" unicode="&#x4ae;" horiz-adv-x="592" 
d="M584 672l-240 -400v-272h-96v272l-240 400h108l180 -308l180 308h108z" />
    <glyph glyph-name="uni04AF" unicode="&#x4af;" horiz-adv-x="496" 
d="M296 87v-343h-96v343l-192 393h104l136 -280l136 280h104z" />
    <glyph glyph-name="uni04B0" unicode="&#x4b0;" horiz-adv-x="592" 
d="M344 240h64v-48h-64v-192h-96v192h-64v48h64v32l-240 400h108l180 -308l180 308h108l-240 -400v-32z" />
    <glyph glyph-name="uni04B1" unicode="&#x4b1;" horiz-adv-x="496" 
d="M296 -32h80v-48h-80v-176h-96v176h-80v48h80v119l-192 393h104l136 -280l136 280h104l-192 -393v-119z" />
    <glyph glyph-name="uni04B2" unicode="&#x4b2;" horiz-adv-x="672" 
d="M648 96v-192h-80v96h-52l-188 271l-188 -271h-116l244 347l-228 325h115l173 -250l173 250h115l-228 -325l176 -251h84z" />
    <glyph glyph-name="uni04B3" unicode="&#x4b3;" horiz-adv-x="544" 
d="M520 96v-192h-80v96h-50l-126 181l-126 -181h-114l183 255l-168 225h114l111 -158l111 158h114l-168 -225l114 -159h85z" />
    <glyph glyph-name="uni04B6" unicode="&#x4b6;" horiz-adv-x="640" 
d="M616 96v-192h-80v96h-96v268q-81 -36 -160 -36q-92 0 -158 52.5t-66 171.5v216h96v-208q0 -73 39 -104.5t113 -31.5q35 0 65 7t48 14.5t23 10.5v312h96v-576h80z" />
    <glyph glyph-name="uni04B7" unicode="&#x4b7;" horiz-adv-x="576" 
d="M552 96v-192h-80v96h-96v192q-24 -10 -59 -17t-69 -7q-86 0 -139 44t-53 148v120h96v-110q0 -58 26 -80t78 -26q25 -2 61.5 3t58.5 12v201h96v-384h80z" />
    <glyph glyph-name="uni04BA" unicode="&#x4ba;" 
d="M486 387.5q66 -52.5 66 -171.5v-216h-96v208q0 73 -39 104.5t-113 31.5q-35 0 -65 -7t-48 -14.5t-23 -10.5v-312h-96v672h96v-268q81 36 160 36q92 0 158 -52.5z" />
    <glyph glyph-name="uni04BB" unicode="&#x4bb;" horiz-adv-x="560" 
d="M456.5 431.5q47.5 -56.5 47.5 -163.5v-268h-96v268q0 61 -24.5 92.5t-83.5 31.5q-30 0 -61 -15.5t-51 -44.5t-20 -68v-264h-96v704h96v-280q56 64 150 64q91 0 138.5 -56.5z" />
    <glyph glyph-name="uni04C0" unicode="&#x4c0;" horiz-adv-x="240" 
d="M72 0v672h96v-672h-96z" />
    <glyph glyph-name="uni04CF" unicode="&#x4cf;" horiz-adv-x="240" 
d="M72 480h96v-480h-96v480z" />
    <glyph glyph-name="uni04D8" unicode="&#x4d8;" horiz-adv-x="768" 
d="M42 376h587q-9 59 -44 106.5t-87.5 74.5t-113.5 27q-73 0 -132.5 -37.5t-89.5 -99.5l-94 26q40 93 126 150t190 57q93 0 172 -46.5t125.5 -125.5t46.5 -172t-46.5 -172t-125.5 -125.5t-172 -46.5t-172 46.5t-125.5 125.5t-46.5 172q0 14 2 40zM183 189.5
q35 -47.5 87.5 -74.5t113.5 -27t113.5 27t87.5 74.5t44 106.5h-490q9 -59 44 -106.5z" />
    <glyph glyph-name="uni04D9" unicode="&#x4d9;" horiz-adv-x="544" 
d="M43 284h363q-14 52 -50.5 80t-86.5 28q-76 0 -113 -48l-88 28q8 19 32 46t67 48.5t102 21.5q70 0 123.5 -33.5t82.5 -90t29 -124.5q0 -69 -29.5 -125.5t-83.5 -89.5t-126 -33q-64 0 -115 30.5t-80.5 87t-29.5 132.5q0 23 3 42zM138 196q1 -26 15.5 -50.5t43.5 -41
t72 -16.5q41 0 72 16.5t47.5 41.5t17.5 50h-268z" />
    <glyph glyph-name="uni04E2" unicode="&#x4e2;" horiz-adv-x="704" 
d="M216 752v56h272v-56h-272zM72 672h96v-460l464 476v-688h-96v460l-464 -476v688z" />
    <glyph glyph-name="uni04E3" unicode="&#x4e3;" horiz-adv-x="576" 
d="M152 560v56h272v-56h-272zM168 190l336 306v-496h-96v290l-336 -306v496h96v-290z" />
    <glyph glyph-name="uni04E8" unicode="&#x4e8;" horiz-adv-x="768" 
d="M556 633.5q79 -46.5 125.5 -125.5t46.5 -172t-46.5 -172t-125.5 -125.5t-172 -46.5t-172 46.5t-125.5 125.5t-46.5 172t46.5 172t125.5 125.5t172 46.5t172 -46.5zM265.5 554.5q-54.5 -29.5 -88.5 -80.5t-40 -114h494q-6 63 -40 114t-88.5 80.5t-118.5 29.5t-118.5 -29.5
zM502.5 117.5q54.5 29.5 88.5 80.5t40 114h-494q6 -63 40 -114t88.5 -80.5t118.5 -29.5t118.5 29.5z" />
    <glyph glyph-name="uni04E9" unicode="&#x4e9;" horiz-adv-x="576" 
d="M412 454.5q57 -33.5 90.5 -90.5t33.5 -124t-33.5 -124t-90.5 -90.5t-124 -33.5t-124 33.5t-90.5 90.5t-33.5 124t33.5 124t90.5 90.5t124 33.5t124 -33.5zM192 357.5q-42 -34.5 -53 -85.5h298q-11 51 -53 85.5t-96 34.5t-96 -34.5zM384 122.5q42 34.5 53 85.5h-298
q11 -51 53 -85.5t96 -34.5t96 34.5z" />
    <glyph glyph-name="uni04EE" unicode="&#x4ee;" 
d="M176 752v56h272v-56h-272zM600 672l-380 -672h-108l150 258l-238 414h108l180 -329l180 329h108z" />
    <glyph glyph-name="uni04EF" unicode="&#x4ef;" horiz-adv-x="512" 
d="M120 560v56h272v-56h-272zM504 480l-325 -736h-105l128 287l-194 449h107l141 -332l141 332h107z" />
    <glyph glyph-name="Wgrave" unicode="&#x1e80;" horiz-adv-x="960" 
d="M480 736l-128 128h112l80 -128h-64zM944 672l-280 -688l-184 464l-184 -464l-280 688h104l176 -442l184 458l184 -458l176 442h104z" />
    <glyph glyph-name="wgrave" unicode="&#x1e81;" horiz-adv-x="752" 
d="M368 544l-128 128h112l80 -128h-64zM736 480l-208 -496l-152 308l-152 -308l-208 496h104l112 -286l144 302l144 -302l112 286h104z" />
    <glyph glyph-name="Wacute" unicode="&#x1e82;" horiz-adv-x="960" 
d="M496 864h112l-128 -128h-64zM944 672l-280 -688l-184 464l-184 -464l-280 688h104l176 -442l184 458l184 -458l176 442h104z" />
    <glyph glyph-name="wacute" unicode="&#x1e83;" horiz-adv-x="752" 
d="M400 672h112l-128 -128h-64zM736 480l-208 -496l-152 308l-152 -308l-208 496h104l112 -286l144 302l144 -302l112 286h104z" />
    <glyph glyph-name="Wdieresis" unicode="&#x1e84;" horiz-adv-x="960" 
d="M352.5 752.5q-16.5 16.5 -16.5 39.5q0 24 16.5 40t39.5 16q24 0 40 -16t16 -40q0 -23 -16 -39.5t-40 -16.5q-23 0 -39.5 16.5zM528.5 752.5q-16.5 16.5 -16.5 39.5q0 24 16.5 40t39.5 16q24 0 40 -16t16 -40q0 -23 -16 -39.5t-40 -16.5q-23 0 -39.5 16.5zM944 672
l-280 -688l-184 464l-184 -464l-280 688h104l176 -442l184 458l184 -458l176 442h104z" />
    <glyph glyph-name="wdieresis" unicode="&#x1e85;" horiz-adv-x="752" 
d="M248.5 560.5q-16.5 16.5 -16.5 39.5q0 24 16.5 40t39.5 16q24 0 40 -16t16 -40q0 -23 -16 -39.5t-40 -16.5q-23 0 -39.5 16.5zM424.5 560.5q-16.5 16.5 -16.5 39.5q0 24 16.5 40t39.5 16q24 0 40 -16t16 -40q0 -23 -16 -39.5t-40 -16.5q-23 0 -39.5 16.5zM736 480
l-208 -496l-152 308l-152 -308l-208 496h104l112 -286l144 302l144 -302l112 286h104z" />
    <glyph glyph-name="Ygrave" unicode="&#x1ef2;" horiz-adv-x="592" 
d="M280 736l-128 128h112l80 -128h-64zM584 672l-240 -400v-272h-96v272l-240 400h108l180 -308l180 308h108z" />
    <glyph glyph-name="ygrave" unicode="&#x1ef3;" horiz-adv-x="512" 
d="M252 544l-128 128h112l80 -128h-64zM504 480l-325 -736h-105l128 287l-194 449h107l141 -332l141 332h107z" />
    <glyph glyph-name="endash" unicode="&#x2013;" horiz-adv-x="512" 
d="M56 224v80h400v-80h-400z" />
    <glyph glyph-name="emdash" unicode="&#x2014;" 
d="M56 224v80h496v-80h-496z" />
    <glyph glyph-name="quoteleft" unicode="&#x2018;" horiz-adv-x="256" 
d="M168 480h-128l112 192h64z" />
    <glyph glyph-name="quoteright" unicode="&#x2019;" horiz-adv-x="256" 
d="M88 672h128l-112 -192h-64z" />
    <glyph glyph-name="quotesinglbase" unicode="&#x201a;" horiz-adv-x="256" 
d="M88 128h128l-112 -192h-64z" />
    <glyph glyph-name="quotedblleft" unicode="&#x201c;" horiz-adv-x="496" 
d="M168 480h-128l112 192h64zM408 480h-128l112 192h64z" />
    <glyph glyph-name="quotedblright" unicode="&#x201d;" horiz-adv-x="496" 
d="M88 672h128l-112 -192h-64zM328 672h128l-112 -192h-64z" />
    <glyph glyph-name="quotedblbase" unicode="&#x201e;" horiz-adv-x="496" 
d="M88 128h128l-112 -192h-64zM328 128h128l-112 -192h-64z" />
    <glyph glyph-name="dagger" unicode="&#x2020;" horiz-adv-x="656" 
d="M376 400l-48 -672l-48 672h-224v80h224v288h96v-288h224v-80h-224z" />
    <glyph glyph-name="daggerdbl" unicode="&#x2021;" horiz-adv-x="656" 
d="M376 400v-144h224v-80h-232l-40 -448l-40 448h-232v80h224v144h-224v80h224v288h96v-288h224v-80h-224z" />
    <glyph glyph-name="bullet" unicode="&#x2022;" horiz-adv-x="784" 
d="M471.5 415.5q32.5 -32.5 32.5 -79.5t-32.5 -79.5t-79.5 -32.5t-79.5 32.5t-32.5 79.5t32.5 79.5t79.5 32.5t79.5 -32.5z" />
    <glyph glyph-name="ellipsis" unicode="&#x2026;" horiz-adv-x="800" 
d="M77 13q-21 21 -21 51q0 31 21 51.5t51 20.5q31 0 51.5 -20.5t20.5 -51.5q0 -30 -20.5 -51t-51.5 -21q-30 0 -51 21zM349 13q-21 21 -21 51q0 31 21 51.5t51 20.5q31 0 51.5 -20.5t20.5 -51.5q0 -30 -20.5 -51t-51.5 -21q-30 0 -51 21zM621 13q-21 21 -21 51q0 31 21 51.5
t51 20.5q31 0 51.5 -20.5t20.5 -51.5q0 -30 -20.5 -51t-51.5 -21q-30 0 -51 21z" />
    <glyph glyph-name="perthousand" unicode="&#x2030;" horiz-adv-x="1152" 
d="M128 411q-33 19 -52.5 52t-19.5 73q0 39 19.5 72t52.5 52.5t73 19.5q39 0 72 -19.5t52 -52.5t19 -72q0 -40 -19 -73t-52 -52t-72 -19q-40 0 -73 19zM126 0l468 672h64l-468 -672h-64zM256 480q24 24 24 56t-24 56t-56 24t-56 -24t-24 -56t24 -56t56 -24t56 24zM512 11
q-33 19 -52.5 52t-19.5 73q0 39 19.5 72t52.5 52.5t73 19.5q39 0 72 -19.5t52 -52.5t19 -72q0 -40 -19 -73t-52 -52t-72 -19q-40 0 -73 19zM880 11q-33 19 -52.5 52t-19.5 73q0 39 19.5 72t52.5 52.5t73 19.5q39 0 72 -19.5t52 -52.5t19 -72q0 -40 -19 -73t-52 -52t-72 -19
q-40 0 -73 19zM640 80q24 24 24 56t-24 56t-56 24t-56 -24t-24 -56t24 -56t56 -24t56 24zM1008 80q24 24 24 56t-24 56t-56 24t-56 -24t-24 -56t24 -56t56 -24t56 24z" />
    <glyph glyph-name="guilsinglleft" unicode="&#x2039;" horiz-adv-x="392" 
d="M144 264l160 -216h-88l-160 216l160 216h88z" />
    <glyph glyph-name="guilsinglright" unicode="&#x203a;" horiz-adv-x="392" 
d="M176 480l160 -216l-160 -216h-88l160 216l-160 216h88z" />
    <glyph glyph-name="fraction" unicode="&#x2044;" horiz-adv-x="228" 
d="M-152 0l468 672h64l-468 -672h-64z" />
    <glyph glyph-name="uni2070" unicode="&#x2070;" horiz-adv-x="360" 
d="M244.5 733q28.5 -23 44 -62.5t15.5 -86.5t-15.5 -86.5t-44 -62.5t-64.5 -23t-64.5 23t-44 62.5t-15.5 86.5t15.5 86.5t44 62.5t64.5 23t64.5 -23zM233.5 496.5q22.5 36.5 22.5 87.5q0 52 -22 88t-54 36t-54 -36t-22 -88q0 -51 22.5 -87.5t53.5 -36.5t53.5 36.5z" />
    <glyph glyph-name="uni2074" unicode="&#x2074;" horiz-adv-x="344" 
d="M288 520v-48h-40v-56h-48v56h-176l224 288v-240h40zM200 631l-81 -111h81v111z" />
    <glyph glyph-name="uni2075" unicode="&#x2075;" horiz-adv-x="352" 
d="M263.5 610.5q32.5 -29.5 32.5 -80.5t-35.5 -84.5t-84.5 -33.5t-83 30.5t-37 73.5l50 5q2 -24 22 -42.5t48 -18.5q29 0 50.5 20t21.5 48q0 29 -17.5 46.5t-46.5 17.5q-21 0 -40.5 -10.5t-30.5 -29.5h-49l30 200h170v-48h-129l-13 -86q12 10 30 16t35 6q44 0 76.5 -29.5z
" />
    <glyph glyph-name="uni2076" unicode="&#x2076;" horiz-adv-x="360" 
d="M272 618q32 -33 32 -79q0 -56 -35 -91.5t-89 -35.5q-55 0 -89.5 35.5t-34.5 94.5q0 56 29.5 114.5t88.5 95.5h85q0 2 -27.5 -12t-57 -39.5t-47.5 -63.5q25 14 63 14q50 0 82 -33zM234.5 481q21.5 21 21.5 52t-20.5 50.5t-55.5 19.5q-33 0 -54.5 -20t-21.5 -50t21.5 -51.5
t54.5 -21.5t54.5 21z" />
    <glyph glyph-name="uni2077" unicode="&#x2077;" horiz-adv-x="336" 
d="M312 752l-144 -336h-56l124 288h-164v48h240z" />
    <glyph glyph-name="uni2078" unicode="&#x2078;" horiz-adv-x="360" 
d="M292.5 567q11.5 -21 11.5 -47q0 -48 -36 -78t-88 -30t-88 30t-36 78q0 26 11.5 47t33.5 34q-29 20 -29 61q0 40 31.5 67t76.5 27t76.5 -27t31.5 -67q0 -41 -29 -61q22 -13 33.5 -34zM137.5 695q-17.5 -13 -17.5 -31q0 -17 18 -30.5t42 -13.5q25 0 42.5 13t17.5 31
t-17.5 31t-42.5 13t-42.5 -13zM234 476.5q22 16.5 22 41.5t-22 41.5t-54 16.5t-54 -16.5t-22 -41.5t22 -41.5t54 -16.5t54 16.5z" />
    <glyph glyph-name="uni2079" unicode="&#x2079;" horiz-adv-x="360" 
d="M88.5 550.5q-32.5 33.5 -32.5 79.5q0 56 35 91t89 35q55 0 89.5 -35.5t34.5 -94.5q0 -56 -29.5 -114t-87.5 -96h-85q0 -2 27.5 12t57 40t47.5 64q-27 -15 -63 -15q-50 0 -82.5 33.5zM125.5 687q-21.5 -21 -21.5 -51q0 -31 20.5 -51t55.5 -20q33 0 54.5 20.5t21.5 50.5
t-21.5 51t-54.5 21t-54.5 -21z" />
    <glyph glyph-name="Euro" unicode="&#x20ac;" horiz-adv-x="704" 
d="M546 106q42 18 77 55l41 -90q-41 -38 -97.5 -58.5t-112.5 -20.5q-81 0 -152.5 34.5t-120.5 94.5t-67 135h-74v48h65l-1 32l1 32h-65v48h74q18 75 67 135t120.5 94.5t152.5 34.5q57 0 113 -20t97 -58l-41 -90q-36 36 -77.5 54t-97.5 18q-81 0 -145.5 -47t-89.5 -121h227
l-15 -48h-223q-2 -20 -2 -32t2 -32h207l-14 -48h-182q25 -74 89.5 -121t145.5 -47q56 0 98 18z" />
    <glyph glyph-name="trademark" unicode="&#x2122;" horiz-adv-x="656" 
d="M338 549l-29 -177h-43l51 305l116 -225l116 225l51 -305h-43l-29 177l-97 -184zM256 672v-43h-79v-257h-42v257h-79v43h200z" />
    <glyph glyph-name="oneeighth" unicode="&#x215b;" horiz-adv-x="916" 
d="M208 680v-344h-48v282l-56 -18v44zM176 0l468 672h64l-468 -672h-64zM848.5 151q11.5 -21 11.5 -47q0 -48 -36 -78t-88 -30t-88 30t-36 78q0 26 11.5 47t33.5 34q-29 20 -29 61q0 40 31.5 67t76.5 27t76.5 -27t31.5 -67q0 -41 -29 -61q22 -13 33.5 -34zM693.5 279
q-17.5 -13 -17.5 -31q0 -17 18 -30.5t42 -13.5q25 0 42.5 13t17.5 31t-17.5 31t-42.5 13t-42.5 -13zM790 60.5q22 16.5 22 41.5t-22 41.5t-54 16.5t-54 -16.5t-22 -41.5t22 -41.5t54 -16.5t54 16.5z" />
    <glyph glyph-name="threeeighths" unicode="&#x215c;" horiz-adv-x="940" 
d="M282 486q14 -21 14 -46q0 -43 -29.5 -75.5t-90.5 -32.5q-53 0 -84.5 29.5t-35.5 78.5l48 8q9 -68 75 -68q32 0 50.5 16t18.5 40q0 28 -22 38t-66 10v48q31 1 55.5 11.5t24.5 36.5q0 19 -16 33.5t-45 14.5q-61 0 -67 -64l-48 8q4 45 35 74.5t77 29.5q37 0 62 -14.5
t37.5 -35.5t12.5 -42q0 -47 -40 -70q20 -7 34 -28zM200 0l468 672h64l-468 -672h-64zM872.5 151q11.5 -21 11.5 -47q0 -48 -36 -78t-88 -30t-88 30t-36 78q0 26 11.5 47t33.5 34q-29 20 -29 61q0 40 31.5 67t76.5 27t76.5 -27t31.5 -67q0 -41 -29 -61q22 -13 33.5 -34z
M717.5 279q-17.5 -13 -17.5 -31q0 -17 18 -30.5t42 -13.5q25 0 42.5 13t17.5 31t-17.5 31t-42.5 13t-42.5 -13zM814 60.5q22 16.5 22 41.5t-22 41.5t-54 16.5t-54 -16.5t-22 -41.5t22 -41.5t54 -16.5t54 16.5z" />
    <glyph glyph-name="fiveeighths" unicode="&#x215d;" horiz-adv-x="940" 
d="M263.5 530.5q32.5 -29.5 32.5 -80.5t-35.5 -84.5t-84.5 -33.5t-83 30.5t-37 73.5l50 5q2 -24 22 -42.5t48 -18.5q29 0 50.5 20t21.5 48q0 29 -17.5 46.5t-46.5 17.5q-21 0 -40.5 -10.5t-30.5 -29.5h-49l30 200h170v-48h-129l-13 -86q12 10 30 16t35 6q44 0 76.5 -29.5z
M200 0l468 672h64l-468 -672h-64zM872.5 151q11.5 -21 11.5 -47q0 -48 -36 -78t-88 -30t-88 30t-36 78q0 26 11.5 47t33.5 34q-29 20 -29 61q0 40 31.5 67t76.5 27t76.5 -27t31.5 -67q0 -41 -29 -61q22 -13 33.5 -34zM717.5 279q-17.5 -13 -17.5 -31q0 -17 18 -30.5
t42 -13.5q25 0 42.5 13t17.5 31t-17.5 31t-42.5 13t-42.5 -13zM814 60.5q22 16.5 22 41.5t-22 41.5t-54 16.5t-54 -16.5t-22 -41.5t22 -41.5t54 -16.5t54 16.5z" />
    <glyph glyph-name="seveneighths" unicode="&#x215e;" horiz-adv-x="924" 
d="M312 672l-144 -336h-56l124 288h-164v48h240zM184 0l468 672h64l-468 -672h-64zM856.5 151q11.5 -21 11.5 -47q0 -48 -36 -78t-88 -30t-88 30t-36 78q0 26 11.5 47t33.5 34q-29 20 -29 61q0 40 31.5 67t76.5 27t76.5 -27t31.5 -67q0 -41 -29 -61q22 -13 33.5 -34z
M701.5 279q-17.5 -13 -17.5 -31q0 -17 18 -30.5t42 -13.5q25 0 42.5 13t17.5 31t-17.5 31t-42.5 13t-42.5 -13zM798 60.5q22 16.5 22 41.5t-22 41.5t-54 16.5t-54 -16.5t-22 -41.5t22 -41.5t54 -16.5t54 16.5z" />
    <glyph glyph-name="partialdiff" unicode="&#x2202;" 
d="M518.5 116q-33.5 -57 -90.5 -90.5t-124 -33.5t-124 33.5t-90.5 90.5t-33.5 124t33.5 124t90.5 90.5t124 33.5q64 0 122 -32q-35 119 -118 184t-183 80l42 80q123 -28 209.5 -108.5t131 -197.5t44.5 -254q0 -67 -33.5 -124zM380 108.5q35 20.5 55.5 55.5t20.5 76t-20.5 76
t-55.5 55.5t-76 20.5t-76 -20.5t-55.5 -55.5t-20.5 -76t20.5 -76t55.5 -55.5t76 -20.5t76 20.5z" />
    <glyph glyph-name="emptyset" unicode="&#x2205;" horiz-adv-x="648" 
 />
    <glyph glyph-name="product" unicode="&#x220f;" 
d="M536 -256h-96v864h-272v-864h-96v960h464v-960z" />
    <glyph glyph-name="summation" unicode="&#x2211;" horiz-adv-x="672" 
d="M488 240l-302 -400h414v-96h-528v96l296 400l-296 400v96h528v-96h-414z" />
    <glyph glyph-name="minus" unicode="&#x2212;" horiz-adv-x="480" 
d="M424 336v-64h-368v64h368z" />
    <glyph glyph-name="radical" unicode="&#x221a;" horiz-adv-x="928" 
d="M888 576h-340l-276 -592l-232 496h104l128 -280l217 472h399v-96z" />
    <glyph glyph-name="infinity" unicode="&#x221e;" horiz-adv-x="624" 
d="M497 412.5q33 -19.5 52 -52.5t19 -72q0 -40 -19 -73t-52 -52t-72 -19q-34 0 -63 14t-50 38q-20 -24 -49 -38t-62 -14q-40 0 -73 19t-52.5 52t-19.5 73q0 39 19.5 72t52.5 52.5t73 19.5q33 0 62 -14t49 -39q21 25 50 39t63 14q39 0 72 -19.5zM256 232q24 24 24 56t-24 56
t-56 24t-56 -24t-24 -56t24 -56t56 -24t56 24zM480 232q24 24 24 56t-24 56t-56 24t-56 -24t-24 -56t24 -56t56 -24t56 24z" />
    <glyph glyph-name="integral" unicode="&#x222b;" horiz-adv-x="336" 
d="M133.5 578.5q13.5 49.5 48 75.5t98.5 26v-96q-29 0 -46.5 -21.5t-17.5 -57.5v-541q0 -77 -13.5 -126.5t-48 -75.5t-98.5 -26v96q29 0 46.5 21.5t17.5 57.5v541q0 77 13.5 126.5z" />
    <glyph glyph-name="approxequal" unicode="&#x2248;" horiz-adv-x="496" 
d="M440 424q-23 -46 -52.5 -63t-66.5 -17q-16 0 -32.5 5t-32 12t-24.5 10q-37 14 -57 14q-37 0 -59 -41l-60 24q23 46 53 63t66 17q16 0 32.5 -5.5t32.5 -12.5t24 -10q34 -13 56 -13q38 0 60 41zM440 256q-23 -46 -52.5 -63t-66.5 -17q-16 0 -32.5 5t-32 12t-24.5 10
q-37 14 -57 14q-37 0 -59 -41l-60 24q23 46 53 63t66 17q16 0 32.5 -5.5t32.5 -12.5t24 -10q34 -13 56 -13q38 0 60 41z" />
    <glyph glyph-name="notequal" unicode="&#x2260;" horiz-adv-x="512" 
d="M293 344l-18 -80h181v-64h-197l-47 -200h-56l47 200h-147v64h163l18 80h-181v64h197l47 200h56l-47 -200h147v-64h-163z" />
    <glyph glyph-name="lessequal" unicode="&#x2264;" horiz-adv-x="528" 
d="M56 320v64l416 192v-80l-320 -144l320 -144v-80zM472 0h-416v64h416v-64z" />
    <glyph glyph-name="greaterequal" unicode="&#x2265;" horiz-adv-x="528" 
d="M56 208l320 144l-320 144v80l416 -192v-64l-416 -192v80zM472 64v-64h-416v64h416z" />
    <glyph glyph-name="lozenge" unicode="&#x25ca;" horiz-adv-x="656" 
d="M328 -16l-272 352l272 352l272 -352zM328 558l-174 -222l174 -222l176 222z" />
    <glyph glyph-name="M.ss01" horiz-adv-x="784" 
d="M712 688v-688h-96v440l-224 -261l-224 261v-440h-96v688l320 -376z" />
    <glyph glyph-name="j.ss01" horiz-adv-x="240" 
d="M69 581q-21 21 -21 51t21 51t51 21t51 -21t21 -51t-21 -51t-51 -21t-51 21zM72 480h96v-736h-96v736z" />
    <glyph glyph-name="t.ss01" horiz-adv-x="352" 
d="M104 384h-64v96h64v192h96v-192h96v-96h-96v-384h-96v384z" />
    <glyph glyph-name="tbar.ss01" horiz-adv-x="352" 
d="M200 384v-88h96v-48h-96v-248h-96v248h-64v48h64v88h-64v96h64v192h96v-192h96v-96h-96z" />
    <glyph glyph-name="tcaron.ss01" horiz-adv-x="496" 
d="M104 384h-64v96h64v192h96v-192h96v-96h-96v-384h-96v384zM360 672h96l-80 -128h-48z" />
    <glyph glyph-name="uni0163.ss01" horiz-adv-x="352" 
d="M149 -48q14 3 28 3q47 0 79 -33t32 -82q0 -41 -19.5 -73.5t-54 -51.5t-77.5 -19q-79 0 -121 63l48 45q11 -20 29.5 -32t50.5 -12q38 0 63 23t25 58q0 30 -21 50.5t-51 20.5q-37 0 -67 -24l-32 48l66 64h-23v384h-64v96h64v192h96v-192h96v-96h-96v-384z" />
    <glyph glyph-name="uni021B.ss01" horiz-adv-x="352" 
d="M104 384h-64v96h64v192h96v-192h96v-96h-96v-384h-96v384zM104 -64h96l-80 -128h-48z" />
    <glyph glyph-name="f_f.dlig" horiz-adv-x="736" 
d="M568 535v-55h112v-96h-112v-384h-96v384h-272v-384h-96v384h-64v96h64v58q0 85 40 129.5t106 44.5q36 0 62 -16v-94q-21 14 -48 14q-64 0 -64 -81v-55h272v58q0 85 40 129.5t106 44.5q36 0 62 -16v-94q-21 14 -48 14q-64 0 -64 -81z" />
    <glyph glyph-name="f_f_i.dlig" horiz-adv-x="976" 
d="M904 0h-96v384h-240v-384h-96v384h-272v-384h-96v384h-64v96h64v58q0 85 40 129.5t106 44.5q36 0 62 -16v-94q-21 14 -48 14q-64 0 -64 -81v-55h272v58q0 85 40 129.5t106 44.5q36 0 62 -16v-94q-21 14 -48 14q-64 0 -64 -81v-55h336v-480z" />
    <glyph glyph-name="f_f_j.dlig" horiz-adv-x="976" 
d="M904 -18q0 -99 -29 -152t-65.5 -70t-81.5 -24l-24 88q49 10 76.5 42t27.5 102v416h-240v-384h-96v384h-272v-384h-96v384h-64v96h64v58q0 85 40 129.5t106 44.5q36 0 62 -16v-94q-21 14 -48 14q-64 0 -64 -81v-55h272v58q0 85 40 129.5t106 44.5q36 0 62 -16v-94
q-21 14 -48 14q-64 0 -64 -81v-55h336v-498z" />
    <glyph glyph-name="uni041C.ss01" horiz-adv-x="784" 
d="M712 688v-688h-96v440l-224 -261l-224 261v-440h-96v688l320 -376z" />
    <glyph glyph-name="uni043C.ss01" horiz-adv-x="640" 
d="M568 0h-96v248l-152 -176l-152 176v-248h-96v496l248 -288l248 288v-496z" />
    <glyph glyph-name="uni0458.ss01" horiz-adv-x="240" 
d="M69 581q-21 21 -21 51t21 51t51 21t51 -21t21 -51t-21 -51t-51 -21t-51 21zM72 480h96v-736h-96v736z" />
    <glyph glyph-name="zero.subs" horiz-adv-x="360" 
d="M244.5 53q28.5 -23 44 -62.5t15.5 -86.5t-15.5 -86.5t-44 -62.5t-64.5 -23t-64.5 23t-44 62.5t-15.5 86.5t15.5 86.5t44 62.5t64.5 23t64.5 -23zM233.5 -183.5q22.5 36.5 22.5 87.5q0 52 -22 88t-54 36t-54 -36t-22 -88q0 -51 22.5 -87.5t53.5 -36.5t53.5 36.5z" />
    <glyph glyph-name="one.subs" horiz-adv-x="328" 
d="M208 80v-344h-48v282l-56 -18v44z" />
    <glyph glyph-name="two.subs" horiz-adv-x="360" 
d="M97 45.5q30 30.5 79 30.5q48 0 80 -30t32 -78q0 -31 -17.5 -58.5t-57.5 -69.5l-52 -56h143v-48h-248l123 135q31 34 46 55t15 39q0 28 -17.5 45.5t-46.5 17.5q-27 0 -44 -18t-19 -46l-49 8q3 43 33 73.5z" />
    <glyph glyph-name="three.subs" horiz-adv-x="352" 
d="M282 -114q14 -21 14 -46q0 -43 -29.5 -75.5t-90.5 -32.5q-53 0 -84.5 29.5t-35.5 78.5l48 8q9 -68 75 -68q32 0 50.5 16t18.5 40q0 28 -22 38t-66 10v48q31 1 55.5 11.5t24.5 36.5q0 19 -16 33.5t-45 14.5q-61 0 -67 -64l-48 8q4 45 35 74.5t77 29.5q37 0 62 -14.5
t37.5 -35.5t12.5 -42q0 -47 -40 -70q20 -7 34 -28z" />
    <glyph glyph-name="four.subs" horiz-adv-x="344" 
d="M288 -160v-48h-40v-56h-48v56h-176l224 288v-240h40zM200 -49l-81 -111h81v111z" />
    <glyph glyph-name="five.subs" horiz-adv-x="352" 
d="M263.5 -69.5q32.5 -29.5 32.5 -80.5t-35.5 -84.5t-84.5 -33.5t-83 30.5t-37 73.5l50 5q2 -24 22 -42.5t48 -18.5q29 0 50.5 20t21.5 48q0 29 -17.5 46.5t-46.5 17.5q-21 0 -40.5 -10.5t-30.5 -29.5h-49l30 200h170v-48h-129l-13 -86q12 10 30 16t35 6q44 0 76.5 -29.5z
" />
    <glyph glyph-name="six.subs" horiz-adv-x="360" 
d="M272 -62q32 -33 32 -79q0 -56 -35 -91.5t-89 -35.5q-55 0 -89.5 35.5t-34.5 94.5q0 56 29.5 114.5t88.5 95.5h85q0 2 -27.5 -12t-57 -39.5t-47.5 -63.5q25 14 63 14q50 0 82 -33zM234.5 -199q21.5 21 21.5 52t-20.5 50.5t-55.5 19.5q-33 0 -54.5 -20t-21.5 -50
t21.5 -51.5t54.5 -21.5t54.5 21z" />
    <glyph glyph-name="seven.subs" horiz-adv-x="336" 
d="M312 72l-144 -336h-56l124 288h-164v48h240z" />
    <glyph glyph-name="eight.subs" horiz-adv-x="360" 
d="M292.5 -113q11.5 -21 11.5 -47q0 -48 -36 -78t-88 -30t-88 30t-36 78q0 26 11.5 47t33.5 34q-29 20 -29 61q0 40 31.5 67t76.5 27t76.5 -27t31.5 -67q0 -41 -29 -61q22 -13 33.5 -34zM137.5 15q-17.5 -13 -17.5 -31q0 -17 18 -30.5t42 -13.5q25 0 42.5 13t17.5 31
t-17.5 31t-42.5 13t-42.5 -13zM234 -203.5q22 16.5 22 41.5t-22 41.5t-54 16.5t-54 -16.5t-22 -41.5t22 -41.5t54 -16.5t54 16.5z" />
    <glyph glyph-name="nine.subs" horiz-adv-x="360" 
d="M88.5 -129.5q-32.5 33.5 -32.5 79.5q0 56 35 91t89 35q55 0 89.5 -35.5t34.5 -94.5q0 -56 -29.5 -114t-87.5 -96h-85q0 -2 27.5 12t57 40t47.5 64q-27 -15 -63 -15q-50 0 -82.5 33.5zM125.5 7q-21.5 -21 -21.5 -51q0 -31 20.5 -51t55.5 -20q33 0 54.5 20.5t21.5 50.5
t-21.5 51t-54.5 21t-54.5 -21z" />
    <glyph glyph-name="zero.tf" 
d="M432.5 634q56.5 -46 88 -124.5t31.5 -173.5t-31.5 -173.5t-88 -124.5t-128.5 -46q-73 0 -129.5 46t-87.5 124.5t-31 173.5t31.5 173.5t88 124.5t128.5 46t128.5 -46zM380 121.5q35 33.5 55.5 90.5t20.5 124t-20.5 124t-55.5 90.5t-76 33.5t-76 -33.5t-55.5 -90.5
t-20.5 -124t20.5 -124t55.5 -90.5t76 -33.5t76 33.5z" />
    <glyph glyph-name="one.tf" 
d="M392 688v-688h-96v564l-112 -36v88z" />
    <glyph glyph-name="two.tf" 
d="M103 574.5q28 47.5 77.5 76.5t115.5 29q63 0 114.5 -27.5t80.5 -77t29 -111.5t-35.5 -117.5t-114.5 -138.5l-105 -112h287v-96h-496l246 270q62 68 92 109.5t30 78.5q0 57 -35.5 91.5t-92.5 34.5q-55 0 -89 -36.5t-38 -91.5l-98 16q4 55 32 102.5z" />
    <glyph glyph-name="three.tf" 
d="M515.5 300q28.5 -42 28.5 -92q0 -54 -25 -103.5t-78.5 -81t-136.5 -31.5q-107 0 -170 59t-70 157l96 16q7 -62 43 -99t107 -37q64 0 101 32t37 80q0 57 -44.5 76.5t-131.5 19.5v96q61 1 110.5 22t49.5 74q0 23 -13.5 45.5t-41 36.5t-67.5 14q-70 0 -99.5 -35t-35.5 -93
l-96 16q5 60 35 107t79.5 74t110.5 27q73 0 123.5 -29t75.5 -71.5t25 -83.5q0 -94 -80 -141q39 -13 67.5 -55z" />
    <glyph glyph-name="four.tf" 
d="M552 208v-96h-80v-112h-96v112h-352l448 576v-480h80zM376 430l-162 -222h162v222z" />
    <glyph glyph-name="five.tf" 
d="M431.5 422q50.5 -26 81.5 -76.5t31 -118.5t-33 -121.5t-88 -83.5t-119 -30q-65 0 -118.5 28t-85.5 75.5t-36 104.5l100 10q3 -31 21.5 -59.5t49.5 -45.5t69 -17t71 18t53 49t20 69q0 56 -36 92t-93 36q-41 0 -80.5 -21t-61.5 -59h-98l60 400h341v-96h-259l-26 -172
q25 20 61 32t69 12q56 0 106.5 -26z" />
    <glyph glyph-name="six.tf" 
d="M442 439q52 -31 81 -82.5t29 -111.5q0 -74 -32 -131.5t-88.5 -89.5t-127.5 -32q-72 0 -128.5 32t-88 91t-31.5 137q0 71 25 148t78 149t132 123h170q0 4 -55 -24t-114 -79.5t-95 -127.5q52 29 126 29q67 0 119 -31zM382.5 107.5q34.5 19.5 54 52.5t19.5 73
q0 61 -41.5 101t-110.5 40q-66 0 -109 -40.5t-43 -100.5q0 -40 19.5 -73t54 -52.5t78.5 -19.5t78.5 19.5z" />
    <glyph glyph-name="seven.tf" 
d="M552 672l-288 -672h-112l248 576h-328v96h480z" />
    <glyph glyph-name="eight.tf" 
d="M528.5 301.5q23.5 -42.5 23.5 -94.5q0 -63 -33 -112t-90 -76t-125 -27t-125 27t-90 76t-33 112q0 52 23.5 94t66.5 68q-29 20 -43.5 52.5t-14.5 70.5q0 53 29 96t78.5 67.5t108.5 24.5t108.5 -24.5t78.5 -67.5t29 -96q0 -37 -15 -69.5t-44 -53.5q44 -25 67.5 -67.5z
M219 558q-35 -26 -35 -62t35 -62t85 -26t85 26t35 62t-35 62t-85 26t-85 -26zM380.5 103.5q34.5 15.5 55 42t20.5 58.5t-20.5 58.5t-55 42t-76.5 15.5t-76.5 -15.5t-55 -42t-20.5 -58.5t20.5 -58.5t55 -42t76.5 -15.5t76.5 15.5z" />
    <glyph glyph-name="nine.tf" 
d="M166 233q-52 31 -81 82.5t-29 111.5q0 74 32 131.5t88.5 89.5t127.5 32q72 0 128.5 -32t88 -91t31.5 -137q0 -71 -25 -148t-78 -149t-132 -123h-170q0 -4 55 24t114 79.5t95 127.5q-26 -15 -54.5 -22t-71.5 -7q-67 0 -119 31zM225.5 564.5q-34.5 -19.5 -54 -52.5
t-19.5 -73q0 -61 41.5 -101t110.5 -40q66 0 109 40.5t43 100.5q0 40 -19.5 73t-54 52.5t-78.5 19.5t-78.5 -19.5z" />
    <glyph glyph-name="zero.zero" 
d="M432.5 634q56.5 -46 88 -124.5t31.5 -173.5t-31.5 -173.5t-88 -124.5t-128.5 -46q-73 0 -129.5 46t-87.5 124.5t-31 173.5t31.5 173.5t88 124.5t128.5 46t128.5 -46zM228 550.5q-35 -33.5 -55.5 -90.5t-20.5 -124q0 -57 16 -111l244 285q-20 35 -48.5 54.5t-59.5 19.5
q-41 0 -76 -33.5zM380 121.5q35 33.5 55.5 90.5t20.5 124q0 57 -16 111l-244 -285q21 -35 48.5 -54.5t59.5 -19.5q41 0 76 33.5z" />
    <glyph glyph-name="zero.tf.zero" 
d="M432.5 634q56.5 -46 88 -124.5t31.5 -173.5t-31.5 -173.5t-88 -124.5t-128.5 -46q-73 0 -129.5 46t-87.5 124.5t-31 173.5t31.5 173.5t88 124.5t128.5 46t128.5 -46zM228 550.5q-35 -33.5 -55.5 -90.5t-20.5 -124q0 -57 16 -111l244 285q-20 35 -48.5 54.5t-59.5 19.5
q-41 0 -76 -33.5zM380 121.5q35 33.5 55.5 90.5t20.5 124q0 57 -16 111l-244 -285q21 -35 48.5 -54.5t59.5 -19.5q41 0 76 33.5z" />
    <glyph glyph-name="zero.dnom" horiz-adv-x="360" 
d="M244.5 317q28.5 -23 44 -62.5t15.5 -86.5t-15.5 -86.5t-44 -62.5t-64.5 -23t-64.5 23t-44 62.5t-15.5 86.5t15.5 86.5t44 62.5t64.5 23t64.5 -23zM233.5 80.5q22.5 36.5 22.5 87.5q0 52 -22 88t-54 36t-54 -36t-22 -88q0 -51 22.5 -87.5t53.5 -36.5t53.5 36.5z" />
    <glyph glyph-name="one.dnom" horiz-adv-x="328" 
d="M208 344v-344h-48v282l-56 -18v44z" />
    <glyph glyph-name="two.dnom" horiz-adv-x="360" 
d="M97 309.5q30 30.5 79 30.5q48 0 80 -30t32 -78q0 -31 -17.5 -58.5t-57.5 -69.5l-52 -56h143v-48h-248l123 135q31 34 46 55t15 39q0 28 -17.5 45.5t-46.5 17.5q-27 0 -44 -18t-19 -46l-49 8q3 43 33 73.5z" />
    <glyph glyph-name="three.dnom" horiz-adv-x="352" 
d="M282 150q14 -21 14 -46q0 -43 -29.5 -75.5t-90.5 -32.5q-53 0 -84.5 29.5t-35.5 78.5l48 8q9 -68 75 -68q32 0 50.5 16t18.5 40q0 28 -22 38t-66 10v48q31 1 55.5 11.5t24.5 36.5q0 19 -16 33.5t-45 14.5q-61 0 -67 -64l-48 8q4 45 35 74.5t77 29.5q37 0 62 -14.5
t37.5 -35.5t12.5 -42q0 -47 -40 -70q20 -7 34 -28z" />
    <glyph glyph-name="four.dnom" horiz-adv-x="344" 
d="M288 104v-48h-40v-56h-48v56h-176l224 288v-240h40zM200 215l-81 -111h81v111z" />
    <glyph glyph-name="five.dnom" horiz-adv-x="352" 
d="M263.5 194.5q32.5 -29.5 32.5 -80.5t-35.5 -84.5t-84.5 -33.5t-83 30.5t-37 73.5l50 5q2 -24 22 -42.5t48 -18.5q29 0 50.5 20t21.5 48q0 29 -17.5 46.5t-46.5 17.5q-21 0 -40.5 -10.5t-30.5 -29.5h-49l30 200h170v-48h-129l-13 -86q12 10 30 16t35 6q44 0 76.5 -29.5z
" />
    <glyph glyph-name="six.dnom" horiz-adv-x="360" 
d="M272 202q32 -33 32 -79q0 -56 -35 -91.5t-89 -35.5q-55 0 -89.5 35.5t-34.5 94.5q0 56 29.5 114.5t88.5 95.5h85q0 2 -27.5 -12t-57 -39.5t-47.5 -63.5q25 14 63 14q50 0 82 -33zM234.5 65q21.5 21 21.5 52t-20.5 50.5t-55.5 19.5q-33 0 -54.5 -20t-21.5 -50t21.5 -51.5
t54.5 -21.5t54.5 21z" />
    <glyph glyph-name="seven.dnom" horiz-adv-x="336" 
d="M312 336l-144 -336h-56l124 288h-164v48h240z" />
    <glyph glyph-name="eight.dnom" horiz-adv-x="360" 
d="M292.5 151q11.5 -21 11.5 -47q0 -48 -36 -78t-88 -30t-88 30t-36 78q0 26 11.5 47t33.5 34q-29 20 -29 61q0 40 31.5 67t76.5 27t76.5 -27t31.5 -67q0 -41 -29 -61q22 -13 33.5 -34zM137.5 279q-17.5 -13 -17.5 -31q0 -17 18 -30.5t42 -13.5q25 0 42.5 13t17.5 31
t-17.5 31t-42.5 13t-42.5 -13zM234 60.5q22 16.5 22 41.5t-22 41.5t-54 16.5t-54 -16.5t-22 -41.5t22 -41.5t54 -16.5t54 16.5z" />
    <glyph glyph-name="nine.dnom" horiz-adv-x="360" 
d="M88.5 134.5q-32.5 33.5 -32.5 79.5q0 56 35 91t89 35q55 0 89.5 -35.5t34.5 -94.5q0 -56 -29.5 -114t-87.5 -96h-85q0 -2 27.5 12t57 40t47.5 64q-27 -15 -63 -15q-50 0 -82.5 33.5zM125.5 271q-21.5 -21 -21.5 -51q0 -31 20.5 -51t55.5 -20q33 0 54.5 20.5t21.5 50.5
t-21.5 51t-54.5 21t-54.5 -21z" />
    <glyph glyph-name="zero.numr" horiz-adv-x="360" 
d="M244.5 653q28.5 -23 44 -62.5t15.5 -86.5t-15.5 -86.5t-44 -62.5t-64.5 -23t-64.5 23t-44 62.5t-15.5 86.5t15.5 86.5t44 62.5t64.5 23t64.5 -23zM233.5 416.5q22.5 36.5 22.5 87.5q0 52 -22 88t-54 36t-54 -36t-22 -88q0 -51 22.5 -87.5t53.5 -36.5t53.5 36.5z" />
    <glyph glyph-name="one.numr" horiz-adv-x="328" 
d="M208 680v-344h-48v282l-56 -18v44z" />
    <glyph glyph-name="two.numr" horiz-adv-x="360" 
d="M97 645.5q30 30.5 79 30.5q48 0 80 -30t32 -78q0 -31 -17.5 -58.5t-57.5 -69.5l-52 -56h143v-48h-248l123 135q31 34 46 55t15 39q0 28 -17.5 45.5t-46.5 17.5q-27 0 -44 -18t-19 -46l-49 8q3 43 33 73.5z" />
    <glyph glyph-name="three.numr" horiz-adv-x="352" 
d="M282 486q14 -21 14 -46q0 -43 -29.5 -75.5t-90.5 -32.5q-53 0 -84.5 29.5t-35.5 78.5l48 8q9 -68 75 -68q32 0 50.5 16t18.5 40q0 28 -22 38t-66 10v48q31 1 55.5 11.5t24.5 36.5q0 19 -16 33.5t-45 14.5q-61 0 -67 -64l-48 8q4 45 35 74.5t77 29.5q37 0 62 -14.5
t37.5 -35.5t12.5 -42q0 -47 -40 -70q20 -7 34 -28z" />
    <glyph glyph-name="four.numr" horiz-adv-x="344" 
d="M288 440v-48h-40v-56h-48v56h-176l224 288v-240h40zM200 551l-81 -111h81v111z" />
    <glyph glyph-name="five.numr" horiz-adv-x="352" 
d="M263.5 530.5q32.5 -29.5 32.5 -80.5t-35.5 -84.5t-84.5 -33.5t-83 30.5t-37 73.5l50 5q2 -24 22 -42.5t48 -18.5q29 0 50.5 20t21.5 48q0 29 -17.5 46.5t-46.5 17.5q-21 0 -40.5 -10.5t-30.5 -29.5h-49l30 200h170v-48h-129l-13 -86q12 10 30 16t35 6q44 0 76.5 -29.5z
" />
    <glyph glyph-name="six.numr" horiz-adv-x="360" 
d="M272 538q32 -33 32 -79q0 -56 -35 -91.5t-89 -35.5q-55 0 -89.5 35.5t-34.5 94.5q0 56 29.5 114.5t88.5 95.5h85q0 2 -27.5 -12t-57 -39.5t-47.5 -63.5q25 14 63 14q50 0 82 -33zM234.5 401q21.5 21 21.5 52t-20.5 50.5t-55.5 19.5q-33 0 -54.5 -20t-21.5 -50t21.5 -51.5
t54.5 -21.5t54.5 21z" />
    <glyph glyph-name="seven.numr" horiz-adv-x="336" 
d="M312 672l-144 -336h-56l124 288h-164v48h240z" />
    <glyph glyph-name="eight.numr" horiz-adv-x="360" 
d="M292.5 487q11.5 -21 11.5 -47q0 -48 -36 -78t-88 -30t-88 30t-36 78q0 26 11.5 47t33.5 34q-29 20 -29 61q0 40 31.5 67t76.5 27t76.5 -27t31.5 -67q0 -41 -29 -61q22 -13 33.5 -34zM137.5 615q-17.5 -13 -17.5 -31q0 -17 18 -30.5t42 -13.5q25 0 42.5 13t17.5 31
t-17.5 31t-42.5 13t-42.5 -13zM234 396.5q22 16.5 22 41.5t-22 41.5t-54 16.5t-54 -16.5t-22 -41.5t22 -41.5t54 -16.5t54 16.5z" />
    <glyph glyph-name="nine.numr" horiz-adv-x="360" 
d="M88.5 470.5q-32.5 33.5 -32.5 79.5q0 56 35 91t89 35q55 0 89.5 -35.5t34.5 -94.5q0 -56 -29.5 -114t-87.5 -96h-85q0 -2 27.5 12t57 40t47.5 64q-27 -15 -63 -15q-50 0 -82.5 33.5zM125.5 607q-21.5 -21 -21.5 -51q0 -31 20.5 -51t55.5 -20q33 0 54.5 20.5t21.5 50.5
t-21.5 51t-54.5 21t-54.5 -21z" />
    <glyph glyph-name="exclam.case" horiz-adv-x="288" 
d="M80 672h128l-32 -480h-64zM93 13q-21 21 -21 51t21 51t51 21q31 0 51.5 -21t20.5 -51t-20.5 -51t-51.5 -21q-30 0 -51 21z" />
    <glyph glyph-name="exclamdown.case" horiz-adv-x="288" 
d="M195.5 659q20.5 -21 20.5 -51t-20.5 -51t-51.5 -21q-30 0 -51 21t-21 51t21 51t51 21q31 0 51.5 -21zM176 480l32 -480h-128l32 480h64z" />
    <glyph glyph-name="question.case" horiz-adv-x="528" 
d="M377 651.5q49 -28.5 72 -72.5t23 -91q0 -51 -23 -87.5t-71 -76.5q-38 -31 -55.5 -62t-18.5 -70h-96q-2 37 12.5 79t48.5 78q11 12 37 34q36 33 53 55t17 50q0 41 -31.5 68.5t-87.5 27.5q-52 0 -88 -23t-57 -55l-56 78q87 96 200 96q72 0 121 -28.5zM307.5 115
q20.5 -21 20.5 -51t-20.5 -51t-51.5 -21q-30 0 -51 21t-21 51t21 51t51 21q31 0 51.5 -21z" />
    <glyph glyph-name="questiondown.case" horiz-adv-x="528" 
d="M220.5 557q-20.5 21 -20.5 51t20.5 51t51.5 21q30 0 51 -21t21 -51t-21 -51t-51 -21q-31 0 -51.5 21zM151 20.5q-49 28.5 -72 72.5t-23 91q0 51 23 87.5t71 76.5q38 31 55.5 62t18.5 70h96q2 -37 -12.5 -79t-48.5 -78q-11 -12 -37 -34q-36 -33 -53 -55t-17 -50
q0 -41 31.5 -68.5t87.5 -27.5q52 0 88 23t57 55l56 -78q-87 -96 -200 -96q-72 0 -121 28.5z" />
    <glyph glyph-name="braceleft.case" horiz-adv-x="384" 
d="M268 -66q20 -29 60 -38l-32 -88q-75 25 -109.5 70.5t-34.5 111.5v234q0 27 -15.5 50.5t-38 40t-42.5 21.5q20 5 42.5 21.5t38 40t15.5 50.5v234q0 66 34.5 111.5t109.5 70.5l32 -88q-40 -9 -60 -38t-20 -68v-188q0 -117 -67 -146q67 -29 67 -146v-188q0 -39 20 -68z" />
    <glyph glyph-name="braceright.case" horiz-adv-x="384" 
d="M136 190q0 117 67 146q-67 29 -67 146v188q0 39 -20 68t-60 38l32 88q75 -25 109.5 -70.5t34.5 -111.5v-234q0 -27 15.5 -50.5t38 -40t42.5 -21.5q-20 -5 -42.5 -21.5t-38 -40t-15.5 -50.5v-234q0 -66 -34.5 -111.5t-109.5 -70.5l-32 88q40 9 60 38t20 68v188z" />
    <glyph glyph-name="bracketleft.case" horiz-adv-x="336" 
d="M168 -88h96v-96h-192v1040h192v-96h-96v-848z" />
    <glyph glyph-name="bracketright.case" horiz-adv-x="336" 
d="M72 760v96h192v-1040h-192v96h96v848h-96z" />
    <glyph glyph-name="parenleft.case" horiz-adv-x="304" 
d="M180 563q-28 -103 -28 -227t28 -227t84 -193l-80 -44q-58 90 -93 212t-35 252t35 252t93 212l80 -44q-56 -90 -84 -193z" />
    <glyph glyph-name="parenright.case" horiz-adv-x="304" 
d="M120 800q58 -90 93 -212t35 -252t-35 -252t-93 -212l-80 44q56 90 84 193t28 227t-28 227t-84 193z" />
    <glyph glyph-name="emdash.case" 
d="M56 296v80h496v-80h-496z" />
    <glyph glyph-name="endash.case" horiz-adv-x="512" 
d="M56 296v80h400v-80h-400z" />
    <glyph glyph-name="hyphen.case" horiz-adv-x="384" 
d="M56 296v80h272v-80h-272z" />
    <glyph glyph-name="guillemotleft.case" horiz-adv-x="624" 
d="M144 336l160 -216h-88l-160 216l160 216h88zM376 336l160 -216h-88l-160 216l160 216h88z" />
    <glyph glyph-name="guillemotright.case" horiz-adv-x="624" 
d="M176 552l160 -216l-160 -216h-88l160 216l-160 216h88zM408 552l160 -216l-160 -216h-88l160 216l-160 216h88z" />
    <glyph glyph-name="guilsinglleft.case" horiz-adv-x="392" 
d="M144 336l160 -216h-88l-160 216l160 216h88z" />
    <glyph glyph-name="guilsinglright.case" horiz-adv-x="392" 
d="M176 552l160 -216l-160 -216h-88l160 216l-160 216h88z" />
    <glyph glyph-name="ampersand.ss01" horiz-adv-x="737" 
d="M681 0h-119l-70 96q-48 -50 -102.5 -77t-123.5 -27q-63 0 -110.5 26t-73.5 72.5t-26 104.5q0 51 26.5 95.5t74.5 74.5t109 41l-194 266h512v-96h-322l238 -327l59 71h121l-123 -149zM358.5 110.5q40.5 22.5 77.5 62.5l-109 149q-42 -1 -82.5 -15.5t-66.5 -43.5t-26 -71
q0 -26 14 -50t40.5 -39t61.5 -15q50 0 90.5 22.5z" />
    <glyph glyph-name="brevecy" horiz-adv-x="648" 
 />
    </font>
</defs>
</svg>
