<?xml version="1.0" encoding="UTF-8"?><svg id="Layer_1" xmlns="http://www.w3.org/2000/svg" width="39.19" height="39.19" viewBox="0 0 39.19 39.19"><defs><style>.cls-1{fill:#4d4d4d;}</style></defs><path class="cls-1" d="M19.59,37.09c-9.65,0-17.5-7.85-17.5-17.5S9.94,2.09,19.59,2.09s17.5,7.85,17.5,17.5-7.85,17.5-17.5,17.5Zm0-34C10.5,3.09,3.09,10.5,3.09,19.59s7.4,16.5,16.5,16.5,16.5-7.4,16.5-16.5S28.69,3.09,19.59,3.09Z"/><path class="cls-1" d="M24.37,26.05c0,.27-.06,.5-.19,.68-.12,.18-.28,.27-.48,.27-.14,0-.27-.04-.39-.13l-7.9-5.81c-.18-.13-.33-.32-.43-.59-.1-.26-.16-.57-.16-.9,0-.32,.05-.6,.16-.86,.1-.25,.25-.44,.43-.57l7.9-5.81c.16-.11,.29-.16,.39-.16,.19,0,.35,.09,.48,.27,.12,.18,.19,.42,.19,.71,0,.36-.11,.64-.33,.83l-7.71,5.62,7.71,5.58c.22,.21,.33,.5,.33,.86Z"/></svg>