<?xml version="1.0" encoding="UTF-8"?><svg id="Layer_1" xmlns="http://www.w3.org/2000/svg" width="100" height="100" viewBox="0 0 100 100"><defs><style>.cls-1{fill:#a0a0a0;}.cls-2{fill:#86dafc;}.cls-3{fill:#1a8dd3;}.cls-4{fill:#b3b3b3;}.cls-5{fill:#cff1ff;}.cls-6{fill:#188fea;}</style></defs><path class="cls-1" d="M95.4,97.45H39.81c-1.54-.64-2.07-1.8-2.06-3.45,.04-7.44,0-14.88,0-22.33,0-3.94,0-7.88,0-11.82l.07-9.85c6.17,0,12.33,0,18.5,0,0,1.67,0,3.33,0,5,0,8.58,0,17.17,0,25.75,0,.94,.21,1.79,.94,2.41,.86,.73,1.82,1,2.92,.5,1.23-.55,1.7-1.54,1.7-2.82,0-10.28,0-20.56,0-30.85,4.08,0,8.16,0,12.23,0,0,2.29,0,4.59,0,6.88-.3,.14-.6,.29-.91,.43-3.98,1.87-5.97,6.35-4.63,10.52,.9,2.8,2.86,4.59,5.53,5.68,0,2.49-.02,4.99,0,7.48,0,1.64,1.2,2.89,2.73,2.91,1.58,.02,2.8-1.22,2.81-2.91,.02-2.49,0-4.99,0-7.48,.19-.09,.38-.2,.57-.28,4.16-1.75,6.3-6.26,4.98-10.58-.87-2.84-2.84-4.68-5.55-5.77,0-2.29,0-4.59,0-6.88h17.79v45.4c-.41,.95-1.08,1.64-2.04,2.04Z"/><path class="cls-4" d="M56.3,50.01c-6.17,0-12.33,0-18.5,0-.01-.46-.03-.92-.03-1.39-.01-4.78-.02-9.57-.03-14.35,0-.37,.03-.74,.03-1.11,0-9.05,0-18.1,0-27.15,0-2.43,1-3.44,3.41-3.44,17.51,0,35.02,.02,52.53-.03,1.72,0,2.99,.46,3.73,2.06V50.01c-5.93,0-11.86,0-17.79,0h0c0-10.13,0-20.26,0-30.39,0-.31,.02-.62,0-.93-.16-2.01-2.21-3.16-4.01-2.27-1.18,.58-1.54,1.59-1.54,2.82,0,10.25,0,20.51,0,30.76h0c-4.08,0-8.16,0-12.23,0h0c0-2.29,0-4.59-.01-6.88,.19-.09,.38-.2,.57-.28,4.18-1.77,6.34-6.36,4.96-10.67-.9-2.79-2.84-4.61-5.53-5.68,0-2.46,.02-4.93,0-7.39,0-1.74-1.15-2.97-2.73-3-1.62-.03-2.82,1.22-2.82,3,0,2.46,0,4.93,0,7.39-.3,.14-.6,.29-.91,.43-3.98,1.87-5.96,6.35-4.62,10.52,.9,2.8,2.86,4.59,5.53,5.68,0,2.29,0,4.59-.01,6.88h0Z"/><path class="cls-3" d="M30.91,97.45c-.95-.39-1.97-.36-2.96-.54-2.15-.39-2.96-1.3-2.96-3.51,0-1.14,0-2.28,0-3.43,0-.34,.02-.66-.4-.84-.43-.19-.68,0-.96,.28-.86,.88-1.74,1.75-2.62,2.62-1.28,1.26-2.62,1.39-4.07,.39-3.71-2.53-6.84-5.65-9.37-9.37-.97-1.43-.86-2.77,.35-4.01,.82-.84,1.66-1.65,2.48-2.49,.28-.29,.7-.5,.49-1.07-.24-.63-.73-.45-1.16-.46-1.17-.02-2.35,0-3.52,0-1.61-.02-2.67-.81-2.98-2.35-.46-2.27-.77-4.56-.64-6.89,8.25,0,16.51,0,24.76,0,.14,2.2,.93,4.09,2.73,5.42,2.43,1.8,5.01,1.82,7.65,.48,0,7.44,.05,14.88,0,22.33,0,1.65,.53,2.8,2.06,3.45h-8.89Z"/><path class="cls-6" d="M27.35,65.78c-8.25,0-16.51,0-24.76,0-.08-2.36,.21-4.68,.7-6.98,.29-1.34,1.26-2.12,2.64-2.16,1.33-.04,2.65-.02,3.98-.02,.41,0,.78,0,1-.48,.24-.5-.07-.74-.35-1.02-.9-.89-1.8-1.78-2.68-2.69-1.11-1.15-1.24-2.44-.34-3.78,2.55-3.82,5.75-7,9.56-9.56,1.34-.9,2.61-.78,3.77,.35,.93,.9,1.84,1.83,2.75,2.75,.28,.28,.54,.47,.97,.27,.4-.18,.42-.49,.42-.84,0-1.27-.01-2.53,0-3.8,.03-1.75,.87-2.7,2.61-3.06,3.35-.69,6.73-.73,10.13-.51,0,4.78,.02,9.57,.03,14.35,0,.46,.02,.92,.03,1.39-.02,3.28-.04,6.57-.07,9.85-1.36-.62-2.75-1.09-4.28-.87-3.58,.52-5.83,3.03-6.1,6.79Z"/><path class="cls-3" d="M79.63,56.89c2.71,1.09,4.68,2.93,5.55,5.77,1.32,4.32-.82,8.83-4.98,10.58-.19,.08-.38,.19-.57,.28-1.85,.5-3.69,.5-5.54,0-2.67-1.09-4.63-2.89-5.53-5.68-1.34-4.17,.65-8.65,4.63-10.52,.3-.14,.6-.29,.91-.43,1.85-.5,3.69-.5,5.54,0Z"/><path class="cls-2" d="M61.85,50.01c0,10.28,0,20.56,0,30.85,0,1.28-.47,2.27-1.7,2.82-1.1,.49-2.06,.22-2.92-.5-.74-.62-.94-1.47-.94-2.41,.01-8.58,0-17.17,0-25.75,0-1.67,0-3.33,0-5h0c1.85,0,3.71,0,5.56,0h0Z"/><path class="cls-2" d="M74.1,73.52c1.85,.5,3.69,.5,5.54,0,0,2.49,.02,4.99,0,7.48-.01,1.69-1.23,2.94-2.81,2.91-1.53-.02-2.72-1.27-2.73-2.91-.01-2.49,0-4.99,0-7.48Z"/><path class="cls-2" d="M79.63,56.89c-1.85-.5-3.69-.5-5.54,0,0-2.29,0-4.59,0-6.88h0c1.85,0,3.71,0,5.56,0h0c0,2.29,0,4.58,0,6.88Z"/><path class="cls-6" d="M56.31,43.13c-2.67-1.09-4.63-2.89-5.53-5.68-1.34-4.17,.65-8.65,4.62-10.52,.3-.14,.6-.29,.91-.43,1.85-.5,3.69-.5,5.54,0,2.68,1.08,4.63,2.89,5.53,5.68,1.38,4.31-.77,8.9-4.96,10.67-.19,.08-.38,.19-.57,.28-1.85,.5-3.69,.5-5.54,0Z"/><path class="cls-5" d="M79.65,50.01c-1.85,0-3.71,0-5.56,0,0-10.25,0-20.51,0-30.76,0-1.23,.36-2.24,1.54-2.82,1.8-.89,3.84,.26,4.01,2.27,.03,.31,0,.62,0,.93,0,10.13,0,20.26,0,30.39Z"/><path class="cls-5" d="M61.85,26.5c-1.85-.5-3.69-.5-5.54,0,0-2.46-.02-4.93,0-7.39,0-1.77,1.2-3.03,2.82-3,1.58,.03,2.72,1.26,2.73,3,0,2.46,0,4.93,0,7.39Z"/><path class="cls-5" d="M56.31,43.13c1.85,.5,3.69,.5,5.54,0,0,2.29,0,4.59,.01,6.88-1.85,0-3.71,0-5.56,0,0-2.29,0-4.59,.01-6.88Z"/></svg>