<?xml version="1.0" encoding="UTF-8"?><svg id="Layer_1" xmlns="http://www.w3.org/2000/svg" width="100" height="100" viewBox="0 0 100 100"><defs><style>.cls-1{fill:#b3b3b3;}.cls-2{fill:#188fea;}</style></defs><path class="cls-2" d="M97.5,56.97c-1.13,1.1-2.26,2.18-3.38,3.29-2.57,2.55-5.12,5.12-7.68,7.68-.24,.24-.46,.49-.83,.87,.56,.51,1.11,.95,1.6,1.45,2.43,2.52,3.2,5.49,2.08,8.8-1.12,3.31-3.56,5.2-7.03,5.65-2.46,.32-4.66-.42-6.51-2.06-.69-.61-1.25-1.36-1.89-2.08l-11.83,11.84-15.91-15.91c.55-.49,1.17-1.09,1.86-1.6,.24-.18,.63-.21,.95-.21,2.78-.02,5.57,0,8.35,0,.33,0,.66,0,1.07,0v-17.01c.65-.23,1.26-.43,1.85-.66,5.56-2.16,9.14-7.56,8.94-13.47-.21-6.07-4.11-11.23-9.87-12.98-.68-.21-.95-.47-.91-1.2,.06-1.26-.03-2.54,.04-3.8,.02-.44,.23-.95,.52-1.28,.92-1.03,1.93-1.99,2.98-3.05l11.87,11.89c.63-.65,1.2-1.29,1.83-1.88,2.57-2.44,5.58-3.16,8.9-1.96,3.29,1.19,5.12,3.7,5.5,7.16,.26,2.35-.44,4.49-2.03,6.25-.72,.79-1.61,1.43-2.44,2.15,.35,.4,.46,.54,.58,.67,3.67,3.68,7.35,7.35,11.02,11.02,.11,.11,.24,.18,.36,.27v.19Z"/><path class="cls-1" d="M36.07,69.03c0-.97,.02-1.89,0-2.81-.11-4.37-3.33-7.77-7.78-8.23-4.01-.41-7.96,2.42-8.85,6.48-.28,1.28-.19,2.64-.27,3.97-.01,.18-.02,.36-.03,.6H2.5v-16.67c.67,0,1.34,0,2.01,0,4.18-.02,7.26-2.33,8.45-6.33,.23-.76,.72-1.59,.57-2.28-.43-2.02-1.07-4-2.55-5.56-1.32-1.39-2.9-2.33-4.81-2.58-1.19-.16-2.4-.16-3.66-.23V18.75H19.09c.08-1.45,.05-2.82,.26-4.15,.65-4.24,4.56-7.28,8.91-6.99,4.25,.28,7.69,3.84,7.81,8.11,.03,.95,0,1.91,0,2.98h16.73v16.68c1.31,.08,2.52,.06,3.7,.24,4.34,.63,7.32,4.48,7.05,9.02-.24,4.12-3.81,7.57-7.99,7.71-.86,.03-1.73,0-2.71,0v16.68h-16.77Z"/></svg>