<svg id="CFIN_Logo-01" xmlns="http://www.w3.org/2000/svg" xmlns:xlink="http://www.w3.org/1999/xlink" width="120.562" height="53.849" viewBox="0 0 120.562 53.849">
  <defs>
    <linearGradient id="linear-gradient" y1="0.5" x2="1" y2="0.5" gradientUnits="objectBoundingBox">
      <stop offset="0" stop-color="#0265e7"/>
      <stop offset="1" stop-color="#00a3fd"/>
    </linearGradient>
  </defs>
  <g id="Group_279" data-name="Group 279" transform="translate(49.869 23.574)">
    <path id="Path_222" data-name="Path 222" d="M427.3,472.66h1.282a12.88,12.88,0,0,1,7.614,2.952q1.748,1.476,1.748,2.6v.583q0,2.1-2.6,2.8l-.428.077a4.561,4.561,0,0,1-2.991-1.593,6.258,6.258,0,0,0-3.69-1.282h-.621q-3.5,0-5.672,3.574a6.277,6.277,0,0,0-.777,3.03v.311q0,4.545,5.011,6.448l1.437.156h.621a7.336,7.336,0,0,0,5.128-2.525,5.936,5.936,0,0,1,1.554-.349q2.251,0,3.03,2.563v.893q0,2.1-5.166,4.661a13.689,13.689,0,0,1-4.2.893H427.3q-4.973,0-9.323-4.623a12.679,12.679,0,0,1-2.952-7.652v-1.242q0-5.01,4.623-9.323a12.8,12.8,0,0,1,7.652-2.952Z" transform="translate(-415.03 -472.66)" fill="#404040"/>
    <path id="Path_223" data-name="Path 223" d="M641.443,472.66h.854q1.709,0,2.642,2.409v1.01q0,1.437-1.942,2.486a5.974,5.974,0,0,0-2.68.7,2.621,2.621,0,0,0-1.36,2.137l-.077,4.933H642.3q1.709,0,2.642,2.409v.972q0,1.709-2.409,2.68l-1.593.077H638.88v3.34q0,1.709-2.409,2.642h-1.01q-1.709,0-2.642-2.409V481.322q0-4.078,4.079-7.225a9.081,9.081,0,0,1,4.544-1.437Z" transform="translate(-606.136 -472.66)" fill="#404040"/>
    <path id="Path_224" data-name="Path 224" d="M766.208,472.66q1.709,0,2.642,2.409v1.01q0,1.709-2.409,2.642h-1.01q-1.709,0-2.641-2.409V475.3q0-1.709,2.409-2.642Zm0,7.574q1.709,0,2.642,2.447v13.128q0,1.709-2.409,2.642h-1.01q-1.709,0-2.641-2.409V482.914q0-1.709,2.409-2.68Z" transform="translate(-720.182 -472.66)" fill="#404040"/>
    <path id="Path_225" data-name="Path 225" d="M851.961,534.48h.932q4.04,0,7.186,4.117a8.915,8.915,0,0,1,1.476,4.544v6.914q0,1.709-2.447,2.642h-.972q-1.709,0-2.68-2.409l-.077-1.631v-5.438q0-1.709-2.33-2.6h-1.01q-1.671,0-2.563,2.37l-.077,1.593v5.477q0,1.709-2.409,2.642h-1.01q-1.709,0-2.642-2.409v-7.147q0-4.078,4.079-7.225a9.08,9.08,0,0,1,4.544-1.437Z" transform="translate(-790.863 -526.906)" fill="#404040"/>
  </g>
  <path id="Path_226" data-name="Path 226" d="M52.181,300.247q-.037,1.862-.075,3.725c0,.044,0,.087-.006.131-.015,1.169-.027,2.338-.043,3.507-.011.811-.027,1.621-.042,2.432,0,.036-.009.071-.016.132H43.869q-5.2,0-10.4,0H23.823s-3.53.137-5.006,1.824a7.343,7.343,0,0,0-.942,1.426,7.749,7.749,0,0,0-.761,4.7,7.387,7.387,0,0,0,1.683,3.809,6.259,6.259,0,0,0,7.792,1.606c.228-.121.442-.271.668-.4a.974.974,0,0,1,.243-.08.49.49,0,0,1,.12,0h11.66a1.476,1.476,0,0,1-.038.153,17.572,17.572,0,0,1-2,3.9,16.277,16.277,0,0,1-1.828,2.231,15.843,15.843,0,0,1-2.944,2.368,14.848,14.848,0,0,1-4.425,1.853c-.459.11-.93.17-1.4.247-.406.067-.812.138-1.22.19-.35.044-.7.077-1.056.088-.488.015-.975.018-1.463,0-.385-.016-.769-.072-1.153-.112a11.652,11.652,0,0,1-1.783-.347,15.031,15.031,0,0,1-5.716-2.941,15.72,15.72,0,0,1-2.053-2.017,17.224,17.224,0,0,1-2.634-4.212,17.985,17.985,0,0,1-1.245-4.026c-.105-.568-.158-1.149-.232-1.724A16.983,16.983,0,0,1,8.034,316a16,16,0,0,1,.364-2.824,17.894,17.894,0,0,1,2.577-6.214,16.342,16.342,0,0,1,2.22-2.7,15.054,15.054,0,0,1,7.055-3.967,15.718,15.718,0,0,1,1.828-.321,13.458,13.458,0,0,1,1.75-.07h4.3v-2.822h0a17.1,17.1,0,0,1,11.468-15.878,17.078,17.078,0,0,1,9.794-.447v10.991c-.083.021-.131-.047-.189-.082a6.769,6.769,0,0,0-8.269.739,6.738,6.738,0,0,0-1.688,7.442c.1.259.071.232.347.232l12.273-.036h.31c.006.083.016.141.015.2ZM27.539,311.612V321.84h11.8V311.612Z" transform="translate(-8.008 -280.255)" fill="url(#linear-gradient)"/>
</svg>
