<?xml version="1.0" encoding="UTF-8"?><svg id="Layer_1" xmlns="http://www.w3.org/2000/svg" width="100" height="100" viewBox="0 0 100 100"><defs><style>.cls-1{fill:#e2e2e2;}.cls-2{fill:#a0a0a0;}.cls-3{fill:#1a8dd3;}.cls-4{fill:#b3b3b3;}.cls-5{fill:#f2f2f2;}.cls-6{fill:#188fea;}</style></defs><path class="cls-1" d="M66.64,44.42c.85,.65,1.79,1.17,2.53,1.98,.76,.82,1.33,1.73,1.57,2.79,.17,.72,.51,.88,1.16,.82,1.53-.12,3.02,.03,4.37,.88,2.17,1.37,3.58,3.22,3.6,5.87,.04,6,0,12,.03,17.99,0,.63-.25,1.13-.54,1.64-2.24,3.94-4.48,7.89-6.72,11.83-.29,.5-.38,1.02-.38,1.59,.02,2.57,0,5.13,0,7.7h-25.79c0-24.4,0-48.81,0-73.21,3.79,.16,6.79,3.31,6.85,7.21,.04,2.68,0,5.36,0,8.04q0,1.55,1.59,1.52c.28,0,.55,0,.83,0,1.53,.2,3.03,.68,4,1.87,.96,1.16,1.89,1.58,3.36,1.16,1.17-.33,2.36,.14,3.53,.33Z"/><path class="cls-5" d="M46.47,24.29c0,24.4,0,48.81,0,73.21h-3.71c0-2.32-.12-4.65,.03-6.95,.1-1.5-.52-2.5-1.47-3.48-2.08-2.15-4.19-4.27-6.06-6.61-1.96-2.46-3.46-5.18-4.52-8.14-.95-2.67-1.79-5.38-2.69-8.08-.63-1.89-.53-3.74,.48-5.44,1.86-3.13,6.08-4.31,9.22-2.02,.32,.23,.64,.47,1.09,.8,0-1.5,0-2.87,0-4.24-.02-3.63-.03-7.26-.05-10.89,.02-3.67,.03-7.33,.05-11,0-2.12,.84-3.87,2.38-5.32,1.48-1.39,3.3-1.82,5.25-1.93v.08Z"/><path class="cls-4" d="M38.8,42.45c.02,3.63,.03,7.26,.05,10.89-2.31-.44-4.4-1.45-6.34-2.71-8.85-5.76-13.07-13.97-12.32-24.49,.87-12.26,10.94-22.3,23.23-23.5,1.02-.1,2.03-.19,3.05-.11,0,3.38,0,6.76,0,10.14v.04c-1.52-.11-3.02,.08-4.48,.49-9.33,2.6-14.17,12.38-10.51,21.35,1.44,3.52,3.88,6.2,7.33,7.9Z"/><path class="cls-2" d="M46.47,12.67c0-3.38,0-6.76,0-10.14,5.42-.03,10.31,1.65,14.67,4.8,6.11,4.41,9.73,10.41,10.7,17.88,.89,6.87-.84,13.13-4.92,18.74-.11,.15-.19,.32-.29,.47-1.17-.2-2.37-.67-3.53-.33-1.47,.42-2.4,0-3.36-1.16-.98-1.19-2.47-1.67-4-1.87,.87-.82,1.76-1.62,2.54-2.55,5.07-6.05,4.74-15.4-.84-21.02-3.01-3.04-6.65-4.73-10.97-4.82Z"/><path class="cls-3" d="M46.47,12.67c4.32,.09,7.97,1.78,10.97,4.82,5.57,5.63,5.91,14.97,.84,21.02-.78,.93-1.67,1.72-2.54,2.55-.28,0-.55,0-.83,0q-1.59,.03-1.59-1.52c0-2.68,.03-5.36,0-8.04-.05-3.9-3.06-7.04-6.85-7.21v-.08c0-3.83,0-7.66,0-11.49v-.04Z"/><path class="cls-6" d="M46.47,12.71c0,3.83,0,7.66,0,11.49-1.95,.11-3.77,.54-5.25,1.93-1.54,1.45-2.37,3.19-2.38,5.32-.01,3.67-.03,7.33-.05,11-3.45-1.7-5.89-4.38-7.33-7.9-3.66-8.97,1.18-18.75,10.51-21.35,1.46-.41,2.96-.6,4.49-.49Z"/></svg>