<?xml version="1.0" encoding="UTF-8"?><svg id="Layer_1" xmlns="http://www.w3.org/2000/svg" width="100" height="100" viewBox="0 0 100 100"><defs><style>.cls-1{fill:#ececee;}.cls-2{fill:#646464;}</style></defs><rect class="cls-1" x="3" y="3" width="94" height="94" rx="7.18" ry="7.18"/><g><path class="cls-2" d="M64.3,32.64c-1.75,0-3.17,1.42-3.17,3.17s1.42,3.17,3.17,3.17,3.17-1.42,3.17-3.17-1.42-3.17-3.17-3.17Z"/><path class="cls-2" d="M50.22,36.7c-7.33,0-13.3,5.97-13.3,13.3s5.97,13.3,13.3,13.3,13.3-5.97,13.3-13.3-5.97-13.3-13.3-13.3Zm0,21.82c-4.7,0-8.52-3.82-8.52-8.52s3.82-8.52,8.52-8.52,8.52,3.82,8.52,8.52-3.82,8.52-8.52,8.52Z"/><path class="cls-2" d="M60.78,77h-21.56c-8.94,0-16.22-7.28-16.22-16.22v-21.56c0-8.94,7.28-16.22,16.22-16.22h21.56c8.94,0,16.22,7.28,16.22,16.22v21.56c0,8.94-7.28,16.22-16.22,16.22ZM39.22,28.08c-6.14,0-11.14,5-11.14,11.14v21.56c0,6.14,5,11.14,11.14,11.14h21.56c6.14,0,11.14-5,11.14-11.14v-21.56c0-6.14-5-11.14-11.14-11.14h-21.56Z"/></g></svg>