<?xml version="1.0" encoding="UTF-8"?><svg id="Layer_1" xmlns="http://www.w3.org/2000/svg" width="250" height="250" viewBox="0 0 250 250"><defs><style>.cls-1{fill:#f4f4f4;}.cls-2{fill:#fff;}.cls-3{fill:#81c1db;}.cls-4{fill:#c9c3bc;}.cls-5{fill:#c99a71;}.cls-6{fill:#d1d7de;}.cls-7{fill:#4d4d4d;}.cls-8{fill:#ffc1a5;}.cls-9{fill:#383545;}.cls-10{fill:#dedede;}.cls-11{fill:#0459b5;}.cls-12{fill:#d6dce5;}.cls-13{fill:#a3adbb;}.cls-14{fill:#0265e7;}.cls-15{fill:#eee7de;}.cls-16{fill:#ec9d7a;}.cls-17{fill:#edc6a4;}.cls-18{fill:#3c2d14;}.cls-19{fill:#375a64;}.cls-20{fill:#f58760;}.cls-21{fill:#464340;}.cls-22{fill:#ccc;}.cls-23{fill:#452b17;}.cls-24{fill:#b3b3b3;}.cls-25{fill:#a9ddf3;}.cls-26{fill:#ececec;}.cls-27{fill:#1a2e35;}.cls-28{fill:#ebb298;}</style></defs><path class="cls-12" d="M14.84,183.51S-2.13,160.7,3.73,130.29c6.26-32.51,46.81-36.95,66.84-68.31,20.03-31.36,53.55-43.43,88.4-37.73,42.82,7.01,47.84,64.92,63.28,80.1,15.44,15.18,41.68,54.2,11.15,79.15H14.84Z"/><g id="Business_people_talking"><ellipse class="cls-10" cx="125" cy="216.32" rx="123" ry="10.8"/><g id="Business_people_talking-2"><g><path class="cls-28" d="M111.22,76.08l.78-13.15-9.03-1.64-3.89,12.58c-1.34,.09-2.25,.48-2.41,1.36-.06,.31,0,1.69,3.18,6.58,1.27,1.96,2.65,3.41,3.29,4.27,.89-.58,2.7-1.46,4.58-2.85,4.69-3.47,5.23-4.74,5.29-5.05,.16-.88-.55-1.56-1.78-2.12Z"/><g><path class="cls-13" d="M119.98,210.97s-2.03-2.04-3.39-2.97l-1.2-4.83h-6.39l-.38,6.96c-.27,2,1.32,3.93,4.45,3.69s6.9-2.85,6.9-2.85Z"/><path class="cls-18" d="M126.62,214.55c-.62-.77-2.73-1.31-3.11-1.48-1.15-.51-4.68-4.27-4.68-4.27-2.24-1.15-3.55-.8-4.86,.39-.86,.79-.63,1.56-1,2.33,0,0-3.17-.73-3.59-1.45-.61-1.05-.82-1.36-1.48-.57-.16,.19-.25,8.18-.25,8.18l18.36,.24s1.61-2.11,.61-3.36Z"/></g><path class="cls-14" d="M115.15,128.25c-.41,10.46,.27,14.02-.15,24.48-.29,3.89,.46,11.15-.01,13.17-.66,2.83-10.46,8.89-11.41-2.07-1.21-12.36-1.67-17.71-4.25-29.7l-3.63-.28v-17.22s17.27-2.26,17.87-.7c.6,1.56,1.59,12.33,1.59,12.33Z"/><g><path class="cls-13" d="M88.95,212.59l-.49-8.65h-6.25s-.49,3.44-.98,4.98c-.49,1.54-2.88,3.44-2.88,4.35s10.6,2.35,10.6-.68Z"/><path class="cls-18" d="M78.97,211.14s0,.02,.01,.02c-1.05,1.05-2.24,2.26-2.5,2.86-.41,.95-.63,2.1-.11,2.99,.23,.4,.57,.68,.96,.89h12.04c.37-1.59-.17-5.76-.17-6.16s-.67-.67-1.01-1c.01-.91-.19-1.78-1.27-2.36-.64-.34-3.36-.39-4.6-.38-2.2,.02-3.15,1.76-3.35,3.14Z"/></g><path class="cls-14" d="M82.46,128.86c-.81,10.43-2.69,34.22-2,37.56,.59,2.84,10.93,8.33,11.3-2.67,.56-12.41,3.37-21,5.84-32.09l2.97-2.19,1.24-13.28s-17.36-1.35-17.88,.24c-.52,1.59-1.48,12.43-1.48,12.43Z"/><path class="cls-14" d="M81.24,162.93c.19-5.48,8.65-5.12,10.04-1.03,.7,2.06-1.06,12.43-1.1,14.29-.04,1.86-.35,30.56-.35,30.56,0,0-6.2,.55-9.42-.09,0,0-.97-28.52-.8-33.36,.16-4.84,1.63-10.36,1.63-10.36Z"/><path class="cls-14" d="M104.31,161.67c-.47-5.46,7.97-4.81,9.85-.93,.95,1.96,1.43,12.07,1.62,13.92,.19,1.85,1.15,31.28,1.15,31.28,0,0-5.86,.22-9.14-.03,0,0-4.4-30-4.82-34.82-.42-4.83,1.34-9.42,1.34-9.42Z"/><g><path class="cls-26" d="M82.15,121.65s11.96,3.48,16.02,4.05c4.06,.57,15.77,1.71,15.77,1.71,.23-.57,8.53-45.13,8.48-47.72,0,0-7.09-5.18-10.83-7.01l-.2,5.34c-1.31,3.58-7.03,1.71-7.03,1.71,0,0-5.42,.13-5.74-3.73l1.2-4.97c-4.11,.73-12.96,1.98-12.96,1.98-.75,2.47-4.79,48.04-4.72,48.65Z"/><g><path class="cls-6" d="M84.53,105.68c-.16-1.76,1.84-14.55,2.35-19.75-.46-.31-.95-.55-1.44-.76-1.43,14.3-3.33,36.05-3.29,36.47,0,0,5.18,1.51,9.89,2.7-.4-2.07-7.35-16.91-7.51-18.67Z"/><path class="cls-6" d="M119.57,92.98s-2.86,15.76-3.69,20.34c-2.18,3.01-11.24,11.64-12.26,13.04,4.78,.52,10.33,1.06,10.33,1.06,.17-.4,4.36-22.78,6.79-36.78-.91,.74-1.16,2.35-1.16,2.35Z"/></g><polygon class="cls-19" points="104.91 86.54 107.33 83.12 106.21 79.92 104.36 79.73 102.57 79.26 100.4 81.87 101.46 85.91 92.14 117.78 96.24 124.53 102.45 119.65 104.91 86.54"/><g><path class="cls-1" d="M104.37,79.72s2.32-.81,3.56-1.87c1.33-1.13,3.6-6.11,3.6-6.11,0,0,2.01,.61,1.86,2.41-.16,1.95-4.62,12.94-4.62,12.94l-1.19-4.46-3.21-2.91Z"/><path class="cls-1" d="M104.37,79.72s-1.89-1.57-2.68-3c-.85-1.53-1.43-6.75-1.43-6.75,0,0-1.88-.37-2.38,1.37-.54,1.88-.22,13.74-.22,13.74l2.73-3.79,3.99-1.57Z"/></g></g><g><path class="cls-26" d="M81.04,108.13c.53-1.23,6.54-16.9,7.98-19.77,1.44-2.87-.12-14.99-2.14-15.36-2.02-.37-5.93,5.95-6.82,8.14-1.09,2.69-5.61,16.07-7.57,21.96-1.49,4.47,6.89,8.87,8.55,5.02Z"/><g><path class="cls-8" d="M87.66,124.38c-.17-.43-.33-.86-.47-1.3l-5.66,.9c.55,1.07,1.07,2.16,1.54,3.27,.17,.16,.03,2.4,.03,2.4,.95,.89,6.35-1.38,7.39-2.08l-2.28-1.94c-.2-.41-.38-.83-.55-1.25Z"/><path class="cls-26" d="M81.81,101.86s5.47,15.27,7.89,22.31c0,1.96-5.65,3.91-8.95,3.9,0,0-5.47-14-8.24-22.68-1.29-4.04,7.91-6.93,9.29-3.54Z"/></g></g><g><path class="cls-26" d="M119.73,115.76c-.26-1.36-1.42-18.21-2.23-21.43-.82-3.22,2.82-14.72,4.94-14.64,2.12,.08,4.63,5.95,5.04,8.36,.5,2.96,1.34,18.16,2.01,24.54,.51,4.84-8.94,7.42-9.76,3.16Z"/><g><path class="cls-8" d="M109.76,128.46c.32-.34,.63-.69,.93-1.05l4.59,3.08c-.91,.8-1.79,1.64-2.64,2.5-.21,.09-.98,2.27-.98,2.27-1.18,.48-5-3.81-5.62-4.88l2.76-.95c.33-.31,.66-.64,.97-.97Z"/><path class="cls-26" d="M121.37,108.92s-9.63,11.46-14.54,17.22c-.77,1.87,3.38,5.94,6.26,7.23,0,0,9.14-10.25,14.99-17.43,2.72-3.34-4.16-9.71-6.71-7.02Z"/></g></g><g><g><path class="cls-8" d="M103.13,65.12c-.54-.58-1.08-1.16-1.46-1.93-.37-.77-.57-1.74-.39-2.76,.19-1.02,.81-2.08,1.6-2.48s1.54,.12,1.75,1.02c.1,.43-1.18,6.51-1.51,6.15Z"/><g><path class="cls-8" d="M117.95,47.51c.16,.06,1.7,.68,1.86,.75,4.85,2.24,9.18,4.96,5.33,12.42,0,0-4.37,8.59-5.5,10.13-.57,.79-1.48,1.38-2.28,1.9-1.22,.8-2.53,1.47-3.91,1.95-1.68,.59-3.55,.94-5.24,.26-1.56-.63-2.56-1.56-3.39-2.87-.83-1.31-1.41-2.77-1.83-4.26-.32-1.13-.61-2.34-.6-3.53,0-.14,0-.28,.03-.42,.26-1.9,3.08-11.11,3.08-11.11,2.41-8.04,7.41-6.99,12.46-5.23Z"/><path class="cls-16" d="M108.15,74.45c3.67,1.31,8.01-.89,10.4-3.78,.83-.98,5.13-8.13,5.07-11.07-.04-1.88-.5-2.63-7.21-6.08-5.53-2.85-9.45-1.16-10.92-.77h0c2.41-8.06,7.41-7,12.46-5.24,.16,.06,1.7,.68,1.86,.75,4.85,2.24,9.18,4.96,5.33,12.42,0,0-4.37,8.59-5.5,10.13-.57,.79-1.48,1.38-2.28,1.9-1.22,.8-2.53,1.47-3.91,1.95-1.68,.59-3.55,.94-5.24,.26-1.56-.63-2.56-1.56-3.39-2.87-.37-.58-.68-1.19-.96-1.82,1.63,2.74,3.73,4.07,4.29,4.21Z"/><path class="cls-27" d="M115.69,66.08c2.4,1.47,1.72,6.6,1.67,6.63-1.22,.8-2.53,1.47-3.91,1.95-1.68,.59-3.76,1.28-5.44,.59-1.56-.63-2.56-1.56-3.39-2.87-.83-1.31-1.2-3.11-1.62-4.59l-.03-.09s2.6-2.43,3.77-3.21c2.67-1.71,6.35-.01,8.96,1.58Z"/></g></g><g><path class="cls-20" d="M115.86,62.06s-.11,3.72-.51,4.23c-.68,.89-2.21,0-2.21,0,0,0,1.25,0,1.51-.73l1.22-3.5Z"/><path class="cls-9" d="M121.71,62.91s-.02-.05-.02-.07c-.47-1.3-1.35-2.13-2.56-2.39-.1-.02-.22-.04-.37,.05-.28,.16-.45,.42-.65,.82,1.53,.07,2.73,.78,3.5,2.08,.11-.11,.1-.13,.12-.26,.01-.09,0-.17-.02-.23Z"/><path class="cls-9" d="M109.64,57.97s.04-.02,.07-.04c1.23-.62,2.45-.61,3.5,.03,.09,.06,.19,.12,.23,.29,.09,.31,.03,.62-.1,1.05-1.15-1.01-2.52-1.32-3.97-.91,0-.16,.01-.16,.09-.27,.05-.08,.11-.12,.17-.16Z"/><g><path class="cls-9" d="M118.06,63.38c.24-.58,.85-.89,1.37-.68,.52,.21,.75,.85,.51,1.44l-.11,.27-.34,.84c-.23,.58-.78,.59-1.25,.4-.48-.19-.86-.58-.62-1.16l.34-.84,.11-.27Z"/><path class="cls-2" d="M118.42,63.47s0,.1,.05,.12c.05,.02,.1,0,.12-.05,.02-.05,0-.1-.05-.12-.05-.02-.1,0-.12,.05Z"/></g><g><path class="cls-9" d="M109.93,60.02c.24-.58,.85-.89,1.37-.68s.75,.85,.51,1.44l-.11,.27-.34,.84c-.23,.58-.78,.59-1.25,.4-.48-.19-.86-.58-.62-1.16l.34-.84,.11-.27Z"/><path class="cls-2" d="M110.29,60.11s0,.1,.05,.12c.05,.02,.1,0,.12-.05,.02-.05,0-.1-.05-.12-.05-.02-.1,0-.12,.05Z"/></g><path class="cls-2" d="M116.59,68.16s-2.21-.73-3.61-1.37c-1.4-.64-4.12-1.75-4.12-1.75-.25-.1-.36,4.17,2.31,5.29,2.66,1.11,5.41-2.17,5.41-2.17Z"/></g><path class="cls-27" d="M125.25,49.42c3.18,2.75,4.15,5.74,2.99,9.57-.94,1.37-7.73,10.75-7.94,10.43-.21-.32,1.37-2.26,1.97-3.43,1.74-3.4,2.92-5.96,4.02-9.63-2.11,1.17-5.01-.72-7.11-1.92s-3.97-2.83-6.26-3.58c-1.68-.55-3.73-.43-5.13,.52-.74,1.69-2.76,5.83-3.16,6.95-.39,1.08-1.5,3.95-1.86,3.87-.36-.08,2.11-8.36,2.7-12.92,.11-.88,3.03-4.01,4.1-4.03,1.08-.02,10.39-.54,15.67,4.16Z"/></g></g><g><path class="cls-26" d="M185.13,107.63s3,1.67,.83,5.92c-2.18,4.25-13.32,20.12-16.73,24.39-3.41,4.28-10.31-3.53-7.83-7.42,2.48-3.89,12.3-17.51,15.3-21.42,1.71-2.23,5.07-3.17,8.43-1.47Z"/><g><path class="cls-8" d="M148.23,129.12c.12-1.52-.86-3.3-2.03-4.27-1.17-.97-2.44-2.08-3.93-1.76-1.02,.22-2.61,4.14-1.95,5.23,.66,1.09,2.66,2.55,3.87,2.94,1.31,.42,3.88-.25,4.03-2.13Z"/><path class="cls-26" d="M164.97,139.16l-20.19-7.02,3.14-8.69s8.01,2.2,15.41,4.64c6.45,2.12,7.4,4.36,7.09,7.03-.31,2.68-2.37,4.9-5.46,4.04Z"/><g><path class="cls-27" d="M123.03,125.72v-.65l13.82-17.96,16.51,4.87v.74s-.02,.1-.05,.14l-13.67,18.58c-.06,.08-.17,.12-.26,.08l-16.19-5.58c-.09-.03-.16-.12-.16-.22Z"/><polygon class="cls-19" points="123.03 125.06 136.85 106.28 153.36 111.97 139.54 130.75 123.03 125.06"/><polygon class="cls-25" points="139.28 129.92 124.16 124.71 137.11 107.11 152.24 112.32 139.28 129.92"/><path class="cls-3" d="M136.27,111.62c.26-1.57,.88-2.92,1.69-4.21l-.85-.29-12.95,17.6,15.12,5.21,1.61-2.19s-.04-.04-.07-.07c-4.09-4.32-5.54-10.21-4.55-16.05Z"/></g><path class="cls-8" d="M146.85,126.24c.28-.96,.51-2.44-.39-3.47-.66-.75-1.66-2.13-1.99-2.23s-.76,1.07-.55,1.7c.21,.62,.65,1.15,.87,1.77,.33,.93,.08,3,.08,3,0,0,1.64,.44,1.99-.76Z"/></g></g><path class="cls-26" d="M61.75,107.68s-3,1.67-.83,5.92c2.18,4.25,13.32,20.12,16.73,24.39s10.31-3.53,7.83-7.42c-2.48-3.89-12.3-17.51-15.3-21.42-1.71-2.23-5.07-3.17-8.43-1.47Z"/><g><g><g><path class="cls-22" d="M18.22,212.88h0c-.41,0-.73-.31-.67-.64l8.55-39.72h3.06l-10.28,39.91c-.06,.27-.34,.46-.66,.46Z"/><path class="cls-22" d="M38.21,212.88h-.02c-.38,0-.69-.27-.67-.58l2.41-39.78h3.06l-4.1,39.85c-.03,.29-.32,.52-.67,.52Z"/><path class="cls-22" d="M79.29,212.88h0c-.33,0-.6-.19-.66-.46l-10.28-39.91h3.06l8.55,39.72c.06,.34-.25,.64-.67,.64Z"/><path class="cls-22" d="M58.94,212.88h-.02c-.35,0-.65-.23-.67-.52l-3.99-39.84h3.06l2.29,39.78c.02,.32-.29,.58-.67,.58Z"/></g><rect class="cls-5" x="17.53" y="176.73" width="62.45" height="3.9" rx="1.95" ry="1.95"/></g><g><rect class="cls-17" x="17.85" y="107.37" width="50.13" height="69.81" rx="25.06" ry="25.06"/><rect class="cls-5" x="28.8" y="109.93" width="39.18" height="67.26" rx="19.59" ry="19.59"/><rect class="cls-17" x="56.68" y="146.07" width="28.99" height="31.67" rx="14.49" ry="14.49"/><rect class="cls-15" x="17.95" y="170.46" width="68.7" height="7.47" rx="3.74" ry="3.74"/></g></g><g><path class="cls-14" d="M40.42,169.83s-5.48-.13-5.48-6.38,5.48-14.08,5.48-14.08h26.45s4.83,7.73,6.12,10.99,2.64,9.47-5.64,9.47h-26.93Z"/><g><path class="cls-24" d="M78.47,207.99s-.75-2.7-1.6-4.49h-4.64c-1.64,3.06-1.25,9.36-1.39,12.81l16.44-.12c1.68-1.63-8.81-8.2-8.81-8.2Z"/><path class="cls-7" d="M71.66,212.67c-.34-.35-.2-3.63-.68-3.63-.51,0-.65,.9-.65,.9-.17,.48,0,9.88,0,9.88h19.55c3.05,0,2.72-3.87,2.56-4.45-4.76-2.31-8.06-3.53-12.38-6.58-1.23,0-2.86-.2-3.11,.8-.24,.99-.23,2.04-.53,3.02-.11,.34-4.52,.3-4.76,.06Z"/></g><path class="cls-14" d="M45.67,157.27c9.57-.58,18.69,.09,28.29,0,2.89-.03,5.21,.49,6.52,1.67,1.31,1.18,1.77,8.03-2.6,11.37H45.01l.67-13.04Z"/><path class="cls-11" d="M69.16,162.69c-2.61,.93-1.85,4.29-2.02,6.65-3.45-.34-11.03,0-11.03,0,0,0-.73-5.47-1.23-6.82-.42-1.35-.85-2.55-2.07-2.25-1.09,2.86-.57,6.21-2.76,8.4-1.61,.13-3.36,0-4.93-.5l-.11,2.15h32.88c.51-.39,.96-.83,1.35-1.31-.3-1.33-.88-2.58-1.9-3.63-2.1-2.27-5.3-3.79-8.17-2.69Z"/><g><path class="cls-24" d="M45.11,218.91c-.76-1.68-1.43-3.25-2.02-5.04l.27-10.21c0-.75,.71-1.34,1.44-1.33l4.53,.06c.65,.01,2.57,8.74,2.57,8.74l3.9,5.77c.37,.48,.71,1.42,.91,2h-11.6Z"/><path class="cls-7" d="M56.28,213.39l-2.16-1.83-2.11-2.3c-2.54-.6-6.08,1.2-6.08,1.2l-.48,2.21c-.16-.03-1.41-.17-1.55-.24-1.05-.51-.51-4.68-.72-4.68-.05,0-.71,.11-.85,1.12-.46,3.28-.43,10.78-.43,10.78h15.68c0-.06-.76-5.56-1.29-6.25Z"/></g><path class="cls-14" d="M79.96,207.99s3.96-32.99,3.31-43.49c-.69-11.09-15.17-8.64-15.17-.35s1.97,43.85,1.97,43.85h9.89Z"/><path class="cls-14" d="M52.98,207.99l1.9-42.97c0-10.08-14.47-11.86-15.25-2.08-.77,9.78,2.17,45.05,2.17,45.05h11.18Z"/></g><g><path class="cls-28" d="M59.6,105.28l-1.51-12.48h-8.76l-1.51,12.48c-1.24,.31-2.03,.83-2.03,1.68,0,.3,.3,1.58,4.11,5.64,1.53,1.63,3.07,2.75,3.81,3.45,.74-.7,2.28-1.83,3.81-3.45,3.81-4.06,4.11-5.34,4.11-5.64,0-.85-.79-1.37-2.03-1.68Z"/><g><g><path class="cls-8" d="M46.88,98.46c-.98-.1-1.97-.2-2.9-.54-.93-.34-1.8-.94-2.28-1.82-.49-.88-.51-2.05,.09-2.83,.6-.79,1.77-.86,2.6-.32,.4,.26,3.09,5.57,2.48,5.51Z"/><path class="cls-8" d="M60.26,95.2c.88-.45,1.76-.9,2.5-1.56,.74-.66,1.33-1.53,1.46-2.53s-.27-2.1-1.12-2.61c-.85-.51-1.96-.15-2.54,.65-.28,.39-.84,6.32-.3,6.04Z"/><g><path class="cls-8" d="M50.7,76.34c-.16,.03-1.69,.38-1.85,.43-4.86,1.37-9.31,3.27-6.82,10.81,0,0,2.81,8.67,3.63,10.28,.42,.82,1.18,1.51,1.85,2.11,1.02,.92,2.15,1.75,3.36,2.41,1.49,.8,3.18,1.41,4.85,1.02,1.56-.36,2.62-1.08,3.59-2.18,.97-1.1,1.73-2.38,2.34-3.7,.47-1.01,.92-2.1,1.09-3.2,.02-.13,.04-.26,.04-.4,.03-1.81-1.23-10.83-1.23-10.83-1.06-7.87-5.89-7.63-10.86-6.73Z"/><path class="cls-16" d="M55.87,102.96c-3.63,.68-7.35-2.02-9.16-5.07-.63-1.04-1.44-3.16-1.47-4.31-.05-1.86,.99-4.38,3.23-6.46,1.17-1.09-.19-2.86,.84-3.35,1.41-.67,5.1,.53,6.76-1.47,.17-.21,2.85,2.21,5.5,.78h0c-1.06-7.88-5.89-7.64-10.86-6.75-.16,.03-1.69,.38-1.85,.43-4.86,1.37-9.31,3.27-6.82,10.81,0,0,2.81,8.67,3.63,10.28,.42,.82,1.18,1.51,1.85,2.11,1.02,.92,2.15,1.75,3.36,2.41,1.49,.8,3.18,1.41,4.85,1.02,1.56-.36,2.62-1.08,3.59-2.18,.43-.49,.81-1.01,1.17-1.55-1.93,2.32-4.09,3.25-4.63,3.3Z"/></g></g><g><path class="cls-20" d="M55.12,88.75s1.9,2.96,1.87,3.58c-.06,1.06-1.73,1.18-1.73,1.18,0,0,.97-.68,.78-1.38l-.92-3.38Z"/><path class="cls-23" d="M47.41,88.89s.02-.04,.03-.06c.63-1.14,1.58-1.79,2.74-1.86,.1,0,.21,0,.34,.1,.24,.19,.36,.46,.49,.87-1.44-.16-2.67,.32-3.57,1.43-.09-.12-.08-.13-.08-.26,0-.09,.02-.16,.05-.21Z"/><path class="cls-23" d="M59.86,86.03s-.04-.03-.06-.04c-1.06-.76-2.2-.93-3.28-.49-.09,.04-.19,.09-.26,.23-.13,.28-.12,.57-.07,.99,1.23-.77,2.55-.86,3.84-.26,.03-.15,.01-.15-.04-.27-.04-.08-.09-.13-.14-.17Z"/><g><path class="cls-23" d="M50.75,89.87c-.13-.58-.66-.95-1.18-.83-.52,.12-.83,.69-.69,1.26l.06,.27,.19,.83c.13,.58,.64,.67,1.11,.56s.89-.41,.75-.99l-.19-.83-.06-.27Z"/><path class="cls-2" d="M49.72,91.4s-.02,.09-.06,.1-.09-.02-.1-.06c-.01-.05,.02-.09,.06-.1s.09,.02,.1,.06Z"/></g><g><path class="cls-23" d="M59.29,87.9c-.13-.58-.66-.95-1.18-.83-.52,.12-.83,.69-.69,1.26l.06,.27,.19,.83c.13,.58,.64,.67,1.11,.56,.47-.11,.89-.41,.75-.99l-.19-.83-.06-.27Z"/><path class="cls-2" d="M58.24,89.43s-.02,.09-.06,.1-.09-.02-.1-.06c-.01-.05,.02-.09,.06-.1s.09,.02,.1,.06Z"/></g><path class="cls-2" d="M51.47,94.33s3-.37,4.42-.69c1.42-.32,3.11-.78,3.11-.78,0,0-.26,4.03-2.95,4.54-2.68,.5-4.75-3.04-4.58-3.07Z"/></g><path class="cls-27" d="M46.15,88.38c1.14-.58,1.87-1.06,2.24-2.08,.5-1.37-.33-2.51,.63-3.02,1.54-.82,5.06,.3,6.36-.87,.27-.25,.48-.55,.62-.89,.44,.48,1,.94,1.6,1.21,1.06,.48,2.18,.59,2.99,2.07,.35,.63,2.11,7.74,2.11,7.74,.69-.59-.03-6.25,.02-7.28,.05-1.11,.12-1.68,.13-2.79,.02-1.27-.63-2.52-1.66-3.28-.03-.61-.12-1.22-.28-1.81-.35-1.26-1.12-2.45-2.28-3.06-1.04-.54-2.41-.54-3.35,.13-2.1-1.4-4.49-2.59-6.87-1.91-2.14,.61-3.56,2.57-5.43,3.79-1.09,.71-2.33,1.16-3.44,1.85-1.11,.68-2.12,1.69-2.32,2.96-.1,.64,.1,1.33,.48,1.85-.3,.33-.49,.76-.52,1.2-.05,.96,.5,1.85,1.1,2.61,.6,.76,2.96,1.27,3.28,2.18,.36,1.03,2.97,6.73,3.36,6.64,.39-.09-.5-6.62-.5-6.62,.2,0,1.37-.42,1.73-.6Z"/></g><g><path class="cls-26" d="M38.85,152.55c.09,1.19,1.02,2.14,2.2,2.27,3.43,.38,12.08,.58,15.21,.45,3.02-.12,8.99-.17,12.32-.47,1.28-.12,2.26-1.2,2.25-2.49-.08-9.61-.68-41.11-1.15-43.41,0,0-5.59-3.51-9.76-4.69l.79,5.5c-.67,3.9-6.88,3.05-6.88,3.05,0,0-5.52,1.13-6.56-2.75l.31-5.31c-4.06,1.5-10.21,4.13-10.21,4.13-.27,2.35,.76,34.54,1.48,43.72Z"/><g><path class="cls-6" d="M69.67,119.57c0,3.45,.29,7,.29,10.49-.07,5.76,.18,19.68-.47,23.06-.15,.79-3.61,1.64-4.12,1.72-.26,.06-.52,.12-.78,.18,1.49-.06,2.89-.13,4-.23,1.28-.12,2.26-1.2,2.25-2.49-.06-6.58-.35-23.42-.69-34.13-.22,.45-.48,.9-.48,1.39Z"/><path class="cls-6" d="M46.53,143.99c-.9-1.71-1.53-3.2-5.8-5.29-1.55-5.94-1.96-10.75-2.61-16.07-.05-.41-.26-.78-.57-1.12,.3,10.79,.86,25.34,1.31,31.03,.09,1.19,1.02,2.14,2.2,2.27,1.14,.12,2.84,.23,4.73,.31,.83,.04,2.46-7.88,.75-11.13Z"/></g><polygon class="cls-19" points="56 119.46 57.94 115.67 56.68 112.53 53.84 112.75 51.92 112.61 50.18 115.67 52.51 119.61 51.56 148.37 56.78 154.27 60.57 147.87 56 119.46"/><g><path class="cls-1" d="M53.84,112.74s2.22-1.26,3.3-2.57c1.15-1.4,2.55-6.92,2.55-6.92,0,0,2.16,.25,2.35,2.12,.2,2.02-2.66,14.09-2.66,14.09l-1.24-4.55-4.29-2.17Z"/><path class="cls-1" d="M53.84,112.74s-2.22-1.26-3.3-2.57c-1.15-1.4-2.72-6.64-2.72-6.64,0,0-1.99-.03-2.18,1.84-.2,2.02,2.32,14.09,2.32,14.09l2.87-5.23,3-1.49Z"/></g></g></g><g><rect class="cls-15" x="14.4" y="146.02" width="28.99" height="31.92" rx="14.49" ry="14.49"/><path class="cls-4" d="M36.76,146.02h-15.74c-.53,0-1.04,.06-1.54,.18,4.58,.45,10.93,.97,15.44,2.14,5.26,1.36,5.16,2.89,6.54,6.49,.93,2.43,1.46,5.83,1.92,7.91v-10.1c0-3.65-2.98-6.63-6.63-6.63Z"/></g><g><path class="cls-26" d="M39.5,109.08s-2.86-1.91-5.64,1.97c-2.78,3.88-12.12,22.19-14.36,27.18-2.24,4.99,8.18,6.42,10.5,2.43,2.33-3.99,12.91-24.33,12.91-24.33,0,0-.36-5.04-3.41-7.25Z"/><g><g><path class="cls-8" d="M41.77,142.6s3.35,2.12,4.07,4.12c.87,2.42,.36,5.74,.36,6.18s-.89,.83-1.18,0c-.29-.83-.63-4.85-.91-5.36-.39-.72-3.11-2.99-3.11-2.99l.77-1.95Z"/><path class="cls-8" d="M40.84,143.32s3.35,2.12,4.07,4.12c.87,2.42,.36,5.74,.36,6.18s-.89,.83-1.18,0c-.29-.83-.63-4.85-.91-5.36-.39-.72-3.11-2.99-3.11-2.99l.77-1.95Z"/><path class="cls-8" d="M39.96,144.4s3.16,2,3.84,3.89c.82,2.29,.34,5.42,.34,5.84s-.84,.78-1.12,0-.6-4.58-.86-5.07c-.36-.68-2.94-2.82-2.94-2.82l.73-1.84Z"/><path class="cls-8" d="M39,144.29s3.04,1.92,3.69,3.74c.79,2.2,.33,5.21,.33,5.61s-.81,.75-1.07,0c-.27-.75-.57-4.4-.82-4.87-.35-.65-2.82-2.71-2.82-2.71l.7-1.77Z"/></g><path class="cls-8" d="M39.48,147.02s-2.05,.15-2.05-1.88,1.85-3.36,3.5-3.36,4.27,1.92,5.2,2.34c.92,.43,.05,1.33-.77,1.02-.83-.31-2.26-.74-2.26-.74l-3.62,2.62Z"/></g><path class="cls-26" d="M22.41,145.15l17.12,2.39,1.74-7.23s-7.44-2.71-14.13-3.64c-5.6-.77-7.24-.25-7.96,2.31-.72,2.58,.56,5.7,3.23,6.15Z"/></g><g><g><g><path class="cls-8" d="M108.59,129.1c-.2,.14-.71,.27-1.08,.13-.95-.35-2.22-1-3.49-1.06-.41-.02-.72,.42-.89,.83-.14,.36-.21,1.93,.2,1.99,1.53,.19,2.75,.29,4.13,.24,.56-.02,1.64-.67,2.33-1.18,1.12-.83,2.31-1.65,3.41-2.55,.77-.63-.62-1.01-1.36-.33,0,0-2.98,1.74-3.25,1.94Z"/><path class="cls-8" d="M103.85,126.81l4.45-.22s4.47-1.88,5.5-2.39c1.03-.51,.25-1.49-1.04-.95-1.3,.54-5.08,1.62-5.08,1.62,0,0-4.88-.27-5.39-.42-.51-.14,1.58,2.35,1.58,2.35Z"/><path class="cls-8" d="M105.14,128.48l4.43-.45s4.37-2.1,5.37-2.67,.17-1.5-1.09-.89-5,1.88-5,1.88c0,0-4.89-.01-5.41-.13s1.7,2.26,1.7,2.26Z"/><path class="cls-8" d="M104.22,130.13l4.43-.45s4.7-2.35,5.7-2.92c1-.57,.17-1.5-1.09-.89-1.27,.61-5.32,2.13-5.32,2.13,0,0-4.89-.01-5.41-.13s1.7,2.26,1.7,2.26Z"/><path class="cls-8" d="M98.42,126.12c.94-1.2,2.87-1.85,4.39-1.77s3.21,.12,4.08,1.37c.6,.86,.48,1.89,.24,2.91-.3,1.24,0,1.86-1.22,2.21-1.22,.35-4.81,.13-5.96-.41-1.25-.58-2.69-2.81-1.52-4.3Z"/><path class="cls-8" d="M99.11,125.61c.48-.78,1.48-1.96,2.17-2.56,.78-.67,1.86-.88,2.89-.95s2.75-.46,3.07-.31c.32,.15-.17,1.34-.77,1.67-.59,.33-1.3,.42-1.9,.74-.9,.48-2.15,2.22-2.15,2.22l-3.32-.82Z"/></g><path class="cls-16" d="M105.74,128.51c.13,.01,.28,.02,.39-.07,.09-.07,.11-.2,.13-.31,.08-.47,.16-.94,.13-1.42-.03-.48-.18-.96-.49-1.32-.3-.34-.76-.56-1.2-.5,.14,.18,.2,.43,.18,.66-.02,.31-.17,.59-.34,.84-.58,.83-1.52,1.33-2.42,1.8l3.63,.32Z"/></g><path class="cls-26" d="M82.11,139.34l20.19-7.02-3.14-8.69s-6.41,1.7-13.62,4.17c-6.35,2.18-9.19,4.83-8.88,7.49,.31,2.68,2.37,4.9,5.46,4.04Z"/></g><g><g><g><path class="cls-22" d="M228.66,212.82h0c.41,0,.73-.31,.67-.64l-8.55-39.72h-3.06l10.28,39.91c.06,.27,.34,.46,.66,.46Z"/><path class="cls-22" d="M208.67,212.82h.02c.38,0,.69-.27,.67-.58l-2.41-39.78h-3.06l4.1,39.85c.03,.29,.32,.52,.67,.52Z"/><path class="cls-22" d="M167.6,212.82h0c.33,0,.6-.19,.66-.46l10.28-39.91h-3.06l-8.55,39.72c-.06,.34,.25,.64,.67,.64Z"/><path class="cls-22" d="M187.95,212.82h.02c.35,0,.65-.23,.67-.52l3.99-39.84h-3.06l-2.29,39.78c-.02,.32,.29,.58,.67,.58Z"/></g><path class="cls-5" d="M168.85,180.57h58.55c1.07,0,1.95-.88,1.95-1.95h0c0-1.07-.88-1.95-1.95-1.95h-58.55c-1.07,0-1.95,.88-1.95,1.95h0c0,1.07,.88,1.95,1.95,1.95Z"/></g><g><rect class="cls-17" x="178.9" y="107.32" width="50.13" height="69.81" rx="25.06" ry="25.06" transform="translate(407.93 284.44) rotate(180)"/><rect class="cls-5" x="178.9" y="109.87" width="39.18" height="67.26" rx="19.59" ry="19.59" transform="translate(396.99 287) rotate(-180)"/><rect class="cls-17" x="161.21" y="146.01" width="28.99" height="31.67" rx="14.49" ry="14.49" transform="translate(351.41 323.69) rotate(180)"/><rect class="cls-15" x="160.23" y="170.41" width="68.7" height="7.47" rx="3.74" ry="3.74" transform="translate(389.16 348.29) rotate(-180)"/></g></g><g><path class="cls-14" d="M206.47,169.77s5.48-.13,5.48-6.38-5.48-14.08-5.48-14.08h-26.45s-4.83,7.73-6.12,10.99-2.64,9.47,5.64,9.47h26.93Z"/><g><path class="cls-24" d="M168.41,207.94s.75-2.7,1.6-4.49h4.64c1.64,3.06,1.25,9.36,1.39,12.81l-16.44-.12c-1.68-1.63,8.81-8.2,8.81-8.2Z"/><path class="cls-21" d="M175.23,212.62c.34-.35,.2-3.63,.68-3.63,.51,0,.65,.9,.65,.9,.17,.48,0,9.88,0,9.88h-19.55c-3.05,0-2.72-3.87-2.56-4.45,4.76-2.31,8.06-3.53,12.38-6.58,1.23,0,2.86-.2,3.11,.8,.24,.99,.23,2.04,.53,3.02,.11,.34,4.52,.3,4.76,.06Z"/></g><path class="cls-14" d="M201.21,157.22c-9.57-.58-18.69,.09-28.29,0-2.89-.03-5.21,.49-6.52,1.67-1.31,1.18-1.77,8.03,2.6,11.37h32.88l-.67-13.04Z"/><path class="cls-11" d="M177.72,162.63c2.61,.93,1.85,4.29,2.02,6.65,3.45-.34,11.03,0,11.03,0,0,0,.73-5.47,1.23-6.82,.42-1.35,.85-2.55,2.07-2.25,1.09,2.86,.57,6.21,2.76,8.4,1.61,.13,3.36,0,4.93-.5l.11,2.15h-32.88c-.51-.39-.96-.83-1.35-1.31,.3-1.33,.88-2.58,1.9-3.63,2.1-2.27,5.3-3.79,8.17-2.69Z"/><g><path class="cls-24" d="M201.09,219.03c.76-1.68,1.43-3.25,2.02-5.04l-.27-10.21c0-.75-.71-1.34-1.44-1.33l-4.53,.06c-.65,.01-2.57,8.74-2.57,8.74l-3.9,5.77c-.37,.48-.71,1.42-.91,2h11.6Z"/><path class="cls-21" d="M189.91,213.51l2.16-1.83,2.11-2.3c2.54-.6,6.08,1.2,6.08,1.2l.48,2.21c.16-.03,1.41-.17,1.55-.24,1.05-.51,.51-4.68,.72-4.68,.05,0,.71,.11,.85,1.12,.46,3.28,.43,10.78,.43,10.78h-15.68c0-.06,.76-5.56,1.29-6.25Z"/></g><path class="cls-14" d="M166.92,207.94s-3.96-32.99-3.31-43.49c.69-11.09,15.17-8.64,15.17-.35s-1.97,43.85-1.97,43.85h-9.89Z"/><path class="cls-14" d="M193.9,207.94l-1.9-42.97c0-10.08,14.47-11.86,15.25-2.08,.77,9.78-2.17,45.05-2.17,45.05h-11.18Z"/></g><g><path class="cls-28" d="M187.29,105.23l1.51-12.48h8.76l1.51,12.48c1.24,.31,2.03,.83,2.03,1.68,0,.3-.3,1.58-4.11,5.64-1.53,1.63-3.07,2.75-3.81,3.45-.74-.7-2.28-1.83-3.81-3.45-3.81-4.06-4.11-5.34-4.11-5.64,0-.85,.79-1.37,2.03-1.68Z"/><g><g><path class="cls-8" d="M200.01,98.4c.98-.1,1.97-.2,2.9-.54,.93-.34,1.8-.94,2.28-1.82,.49-.88,.51-2.05-.09-2.83-.6-.79-1.77-.86-2.6-.32-.4,.26-3.09,5.57-2.48,5.51Z"/><path class="cls-8" d="M186.63,95.15c-.88-.45-1.76-.9-2.5-1.56-.74-.66-1.33-1.53-1.46-2.53-.13-.99,.27-2.1,1.12-2.61,.85-.51,1.96-.15,2.54,.65,.28,.39,.84,6.32,.3,6.04Z"/><g><path class="cls-8" d="M196.18,76.29c.16,.03,1.69,.38,1.85,.43,4.86,1.37,9.31,3.27,6.82,10.81,0,0-2.81,8.67-3.63,10.28-.42,.82-1.18,1.51-1.85,2.11-1.02,.92-2.15,1.75-3.36,2.41-1.49,.8-3.18,1.41-4.85,1.02-1.56-.36-2.62-1.08-3.59-2.18-.97-1.1-1.73-2.38-2.34-3.7-.47-1.01-.92-2.1-1.09-3.2-.02-.13-.04-.26-.04-.4-.03-1.81,1.23-10.83,1.23-10.83,1.06-7.87,5.89-7.63,10.86-6.73Z"/><path class="cls-16" d="M191.02,102.9c3.63,.68,7.35-2.02,9.16-5.07,.63-1.04,1.09-4.75,1.28-5.89,.73-4.22-.21-6.5-.21-6.5,0,0-12.6-1.53-15.93-2.42h0c1.06-7.88,5.89-7.64,10.86-6.75,.16,.03,1.69,.38,1.85,.43,4.86,1.37,9.31,3.27,6.82,10.81,0,0-2.81,8.67-3.63,10.28-.42,.82-1.18,1.51-1.85,2.11-1.02,.92-2.15,1.75-3.36,2.41-1.49,.8-3.18,1.41-4.85,1.02-1.56-.36-2.62-1.08-3.59-2.18-.43-.49-.81-1.01-1.17-1.55,1.93,2.32,4.09,3.25,4.63,3.3Z"/></g></g><g><path class="cls-20" d="M191.77,88.7s-1.9,2.96-1.87,3.58c.06,1.06,1.73,1.18,1.73,1.18,0,0-.97-.68-.78-1.38l.92-3.38Z"/><path class="cls-23" d="M199.48,88.83s-.02-.04-.03-.06c-.63-1.14-1.58-1.79-2.74-1.86-.1,0-.21,0-.34,.1-.24,.19-.36,.46-.49,.87,1.44-.16,2.67,.32,3.57,1.43,.09-.12,.08-.13,.08-.26,0-.09-.02-.16-.05-.21Z"/><path class="cls-23" d="M187.02,85.97s.04-.03,.06-.04c1.06-.76,2.2-.93,3.28-.49,.09,.04,.19,.09,.26,.23,.13,.28,.12,.57,.07,.99-1.23-.77-2.55-.86-3.84-.26-.03-.15-.01-.15,.04-.27,.04-.08,.09-.13,.14-.17Z"/><g><path class="cls-23" d="M196.13,89.81c.13-.58,.66-.95,1.18-.83,.52,.12,.83,.68,.69,1.26l-.06,.27-.19,.83c-.13,.58-.64,.67-1.11,.56-.47-.11-.89-.41-.75-.99l.19-.83,.06-.27Z"/><path class="cls-2" d="M197.16,91.34s.02,.09,.06,.1c.05,.01,.09-.02,.1-.06,.01-.05-.02-.09-.06-.1s-.09,.02-.1,.06Z"/></g><g><path class="cls-23" d="M187.59,87.84c.13-.58,.66-.95,1.18-.83,.52,.12,.83,.69,.69,1.26l-.06,.27-.19,.83c-.13,.58-.64,.67-1.11,.56-.47-.11-.89-.41-.75-.99l.19-.83,.06-.27Z"/><path class="cls-2" d="M188.65,89.37s.02,.09,.06,.1,.09-.02,.1-.06c.01-.05-.02-.09-.06-.1s-.09,.02-.1,.06Z"/></g><path class="cls-2" d="M195.41,94.28s-3-.37-4.42-.69c-1.42-.32-3.11-.78-3.11-.78,0,0,.26,4.03,2.95,4.54,2.68,.5,4.75-3.04,4.58-3.07Z"/></g><path class="cls-27" d="M202.27,94.55c-.43,0-.11-1.38,.07-2.1,.44-1.78,.58-3.55,1.02-5.33-1.25-.85-2.14-2.22-2.4-3.71-.77,.2-1.57,.27-2.37,.21,.46-.29,.83-.72,1.04-1.23-4.2,1.24-8.52,.77-12.77-.27,0,0-2.13,6.4-2.31,6.84-.42,1.02-.73-.14-.56-1.03,.36-1.95,.72-3.9,1.08-5.85,.25-1.38,.52-2.79,1.18-4.02,.44-.83,1.09-1.58,1.88-2.05-.22-1.5,.08-3.09,.86-4.4,.05,.92,.5,1.79,1.18,2.41-.42-1.94-.27-4,.44-5.85-.17,1.77,.74,3.52,2.05,4.73,.52,.48,1.09,.88,1.69,1.23,2.7,.45,5.64-.06,8.14,1.08,3.3,1.5,4.84,5.54,4.5,9.16-.34,3.61-2,6.32-3.83,9.45,0,0-.41,.75-.87,.75Z"/></g><g><path class="cls-26" d="M208.03,152.49c-.09,1.19-1.02,2.14-2.2,2.27-3.43,.38-12.08,.58-15.21,.45-3.02-.12-8.99-.17-12.32-.47-1.28-.12-2.26-1.2-2.25-2.49,.08-9.61,.68-41.11,1.15-43.41,0,0,5.59-3.51,9.76-4.69l-.79,5.5c.67,3.9,6.88,3.05,6.88,3.05,0,0,5.52,1.13,6.56-2.75l-.31-5.31c4.06,1.5,10.21,4.13,10.21,4.13,.27,2.35-.76,34.54-1.48,43.72Z"/><g><path class="cls-6" d="M177.16,148.87c-.36-10.2,.73-20.33,.66-30.46,0-.91-.5-1.78-1.01-2.67-.36,10.4-.71,29.42-.77,36.51-.01,1.29,.97,2.37,2.25,2.49,.33,.03,.69,.06,1.07,.08-.13-.14-.25-.27-.38-.42-1.31-1.53-1.75-3.57-1.82-5.54Z"/><path class="cls-6" d="M209.01,115.85c-.51,4.59-.42,10.01-.56,14.52-.07,2.62-.1,4.5-1.12,6.9-1.46,3.28-3.11,3.28-5.46,5.63-2.18,2.18-1.71,3.42-1.47,6.1,.15,1.64-.58,3.43-1.67,4.45-1.08,.91-2.31,1.44-3.63,1.77,3.76-.05,8.42-.22,10.72-.47,1.18-.13,2.11-1.08,2.2-2.27,.55-7.01,1.28-27.46,1.47-37.77-.26,.36-.45,.74-.49,1.13Z"/></g><g><polygon class="cls-19" points="189.64 118.9 187.25 114.97 189.14 112.48 191.99 112.7 193.91 112.55 195.92 115.17 192.9 118.9 195.17 147.3 189.05 154.21 183.93 147.3 189.64 118.9"/><g><path class="cls-1" d="M191.62,112.67s-1.29-1.11-2.35-2.56c-1.07-1.47-2.07-6.92-2.07-6.92,0,0-2.16,.25-2.35,2.12-.2,2.02,1.7,13.13,1.7,13.13l1.24-4.55,3.82-1.22Z"/><path class="cls-1" d="M191.62,112.67s3.65-1.06,4.72-2.37c1.15-1.4,2.72-6.82,2.72-6.82,0,0,1.99-.03,2.18,1.84,.2,2.02-2.32,14.09-2.32,14.09l-2.87-5.23-4.43-1.5Z"/></g></g></g></g><g><rect class="cls-15" x="203.49" y="145.96" width="28.99" height="31.92" rx="14.49" ry="14.49" transform="translate(435.97 323.84) rotate(180)"/><path class="cls-4" d="M211.22,148.02c3-1.62,9.47-1.74,12.8-2.05h-13.9c-3.65,0-6.63,2.98-6.63,6.63v8.18c.02-.07,.05-.14,.07-.2,1.66-5.75,2.7-9.93,7.66-12.55Z"/></g><g><path class="cls-26" d="M207.38,109.03s2.86-1.91,5.64,1.97c2.78,3.88,12.12,22.19,14.36,27.18,2.24,4.99-8.18,6.42-10.5,2.43-2.33-3.99-12.91-24.33-12.91-24.33,0,0,.36-5.04,3.41-7.25Z"/><g><g><g><path class="cls-8" d="M205.63,141.9s-3.35,2.12-4.07,4.12c-.87,2.42-.36,5.74-.36,6.18s.89,.83,1.18,0,.63-4.85,.91-5.36c.39-.72,3.11-2.99,3.11-2.99l-.77-1.95Z"/><path class="cls-8" d="M206.56,142.62s-3.35,2.12-4.07,4.12c-.87,2.42-.36,5.74-.36,6.18s.89,.83,1.18,0c.29-.83,.63-4.85,.91-5.36,.39-.72,3.11-2.99,3.11-2.99l-.77-1.95Z"/><path class="cls-8" d="M207.43,143.7s-3.16,2-3.84,3.89c-.82,2.29-.34,5.42-.34,5.84s.84,.78,1.12,0c.28-.78,.6-4.58,.86-5.07,.36-.68,2.94-2.82,2.94-2.82l-.73-1.84Z"/><path class="cls-8" d="M208.39,143.59s-3.04,1.92-3.69,3.74c-.79,2.2-.33,5.21-.33,5.61s.81,.75,1.07,0,.57-4.4,.82-4.87c.35-.65,2.82-2.71,2.82-2.71l-.7-1.77Z"/></g><path class="cls-8" d="M207.91,146.33s2.05,.15,2.05-1.88-1.85-3.36-3.5-3.36-4.27,1.92-5.2,2.34-.05,1.33,.77,1.02c.83-.31,2.26-.74,2.26-.74l3.62,2.62Z"/></g><path class="cls-26" d="M224.48,145.09l-17.12,2.39-1.94-8.04s7.64-1.9,14.33-2.82c5.6-.77,7.24-.25,7.96,2.31,.72,2.58-.56,5.7-3.23,6.15Z"/></g></g></g></g></svg>