<?xml version="1.0" encoding="UTF-8"?><svg id="Layer_1" xmlns="http://www.w3.org/2000/svg" width="250" height="250" viewBox="0 0 250 250"><defs><style>.cls-1{fill:#ff996c;}.cls-2{fill:#fff;}.cls-3{fill:#e0e0e0;}.cls-4{fill:#d6dce5;}.cls-5{fill:#e6e6e6;}.cls-6{fill:#0265e7;}.cls-7{fill:#a5abae;}.cls-8{fill:#375a64;}.cls-9{fill:#f58760;}.cls-10{fill:#b3b3b3;}.cls-11{fill:#ed1c24;}.cls-12{fill:#a9ddf3;}.cls-13{fill:#ffbe9c;}.cls-14{fill:#1a2e35;}.cls-15{fill:#f2f2f2;}.cls-16{fill:#188fea;}</style></defs><path class="cls-4" d="M15.34,186.99S-1.63,164.18,4.23,133.77c6.26-32.51,46.81-36.95,66.84-68.31,20.03-31.36,53.55-43.43,88.4-37.73,42.82,7.01,47.84,64.92,63.28,80.1,15.44,15.18,41.68,54.2,11.15,79.15H15.34Z"/><path class="cls-7" d="M244.45,221.15H3.08c-.32,0-.63-.16-.82-.42l-.26-.36H246l-.53,.43c-.29,.23-.65,.36-1.02,.36Z"/><g><g><path class="cls-9" d="M216.97,94.55v-2.26c1.01-.22,2.92-.73,2.68-1.52-.33-1.06-2.65-.78-2.65-.78,0,0,3.04-.34,2.61-1.61-.3-.89-1.78-1.07-2.63-1.09v-.29c2.06-.36,2.69-1.62,2.33-2.51-.36-.9-2.33-.72-2.33-.72,0,0-2.51,10.23-2.51,10.5s1.44,3.68,2.51,3.5c1.08-.18,3.32-1.62,2.43-2.87-.89-1.26-2.43-.36-2.43-.36Z"/><g><path class="cls-8" d="M203.81,105.98c0,.29,.23,.53,.52,.53h11.71c.65,0,1.18-.52,1.2-1.17l.26-29.09c0-.58-.28-1.11-.76-1.43h0c-.1-.07-.22-.1-.34-.08l-11.54,1.2c-.26,.03-.46,.24-.46,.5l-.59,29.55Z"/><path class="cls-12" d="M214.78,77.49v26.27c0,.3-.24,.53-.53,.53l-8.24-.11c-.3,0-.53-.24-.53-.53l.27-25.53c0-.27,.21-.5,.48-.53l7.98-.64c.32-.03,.59,.21,.59,.53Z"/><path class="cls-14" d="M216.74,74.82c-.1-.07-.22-.1-.34-.08h-.11l-.33,31.78h.08c.65,0,1.18-.52,1.2-1.17l.26-29.09c0-.58-.28-1.11-.76-1.43Z"/><path class="cls-14" d="M206.38,76.7c0,.23-.15,.41-.33,.41s-.33-.18-.33-.41,.15-.41,.33-.41,.33,.18,.33,.41Z"/><path class="cls-14" d="M207.82,76.83c-.16,0-.3-.12-.31-.29-.01-.17,.11-.32,.29-.34l4.62-.38c.19-.01,.32,.11,.34,.29,.01,.17-.11,.32-.29,.34l-4.62,.38h-.03Z"/></g><path class="cls-13" d="M206.37,106.51c1.41-2.73,.95-5.46,1-6.83,.05-1.43,2.65-4.55,2.99-7.5,.34-2.95-1.43-4.22-2.45-2.28s-3.71,5.14-3.71,5.14v-8.77s-.81,.92-1.49,1.42c-.67,.51-3.76,3.4-3.67,7.68,.09,4.28-.83,12.73-1.59,15.01s-2.11,3.88-2.11,3.88l7.52,3.71s3.27-1.52,4.5-2.61,1.8-5.56,1.8-5.56l1.22-3.29h-4.03Z"/><polygon class="cls-9" points="210.4 106.51 206.37 106.51 209.75 108.24 210.4 106.51"/><path class="cls-9" d="M202.26,99.89c-.28-1.8,.45-3.79,1.95-4.85-.66,1.72-1.17,3.18-1.95,4.85h0Z"/><path class="cls-9" d="M207.4,101.13c.93,3.05-.51,6.56-2.92,8.53,1.55-2.63,2.78-5.44,2.92-8.53h0Z"/></g><path class="cls-6" d="M206.05,118.48l-9.4-5.1c-.63-.34-1.41-.15-1.81,.44l-13.37,19.85c-1.15,1.79-1.67,2.02-3.45,.85l-13.76-7c-8.38-3.88-13.98-7.7-22.15-7.7h-9.82s-.44-.01-1.23,0c-16.06,.3-30.12,10.87-35.05,26.16l-17.32,53.67h14.94l18.21-52.02-.49,52.02h43.28v-56.23l11.21,4.93c7.06,3.68,18.23,8.1,24.31-2.56,.26-.46,.53-.93,.82-1.37l15.59-23.96c.44-.68,.21-1.59-.5-1.97Z"/><path class="cls-1" d="M119.38,104.6v18.07h.03c.28,6.89,5.93,12.4,12.89,12.4s12.62-5.51,12.89-12.4h.03v-18.07h-25.84Z"/><path class="cls-14" d="M101.88,84.71s-5.39-5.81-5.39-21.27,13.31-25.96,25.53-26.96c12.22-1,14.22-5.74,16.96-3.49s-5.33,7.23-5.33,7.23c0,0,23.04-8.73,25.79-5.74,2.74,2.99-8.98,7.23-8.98,7.23,0,0,14.04,3.58,16.54,11.07,2.49,7.48-4.06,7.73-4.06,7.73,0,0,4.63,11.95-1.18,28.19-6.32,17.67-46.23,19.63-46.98,19.13-.75-.5-12.89-23.12-12.89-23.12Z"/><path class="cls-13" d="M158.81,81.05s-.04,0-.06,0c-.04,.8-.08,1.3-.08,1.3l-1.05,8.4c-.15,1.21-1.78,1.53-2.35,.45-1.42-2.66-2.75-7.47-.76-14.99-1.12-1.82-1.96-3.81-2.43-5.92l-.29-1.28c-5.66,1.47-5.92,.02-9.69-1.68-.03-.01-.06,.02-.04,.04,1.41,1.26,5.21,5.07,2.49,7.18-3,2.32-12.72-5.56-14.62-6.88-.08-.05-.17,.02-.14,.11,.44,1.19,1.82,5.32-.18,6.02-3.06,1.08-8.65-7.37-10.24-9.9-.08-.13-.29-.05-.26,.1,.31,1.67,.74,5.42-1.36,6.34-1.97,.86-4.11-3.25-5.15-5.6-.17-.38-.72-.28-.77,.13-.42,3.57-1.71,6.99-3.05,9.76,2.62,8.43,1.2,13.72-.31,16.56-.58,1.08-2.2,.77-2.35-.45l-1.05-8.4s-.04-.5-.08-1.3c-5.33,.07-9.64,4.41-9.64,9.76s4.37,9.77,9.77,9.77c.12,0,.24-.01,.36-.02,2.2,12.63,13.2,23.06,26.46,23.06s24.26-10.44,26.46-23.07c.14,0,.27,.02,.41,.02,5.4,0,9.77-4.37,9.77-9.77s-4.37-9.77-9.77-9.77Z"/><g><path class="cls-14" d="M123.08,103.27c3.26,2.96,6.76,5.1,11.22,4.99-4.23,2.28-9.67-.72-11.22-4.99h0Z"/><g><g><path class="cls-14" d="M120.11,88.02c0,1.26-1.02,2.29-2.29,2.29s-2.29-1.02-2.29-2.29,1.02-2.29,2.29-2.29,2.29,1.02,2.29,2.29Z"/><path class="cls-14" d="M115.55,85.73c-.1-.97,.51-1.95,1.34-2.55,.85-.59,1.87-.84,2.84-.88,.48-.04,1.02,.02,1.52,.14,.5,.15,.99,.38,1.4,.71,.81,.66,1.32,1.62,1.31,2.58-.63-.71-1.3-1.21-1.98-1.51-.7-.29-1.4-.39-2.2-.36-.81,.02-1.58,.11-2.31,.37-.71,.26-1.4,.71-1.92,1.5Z"/><path class="cls-14" d="M114.39,80.3c1.52-.28,4.58-.69,8.89-.59,.52,.01,.86-.4,.59-.73-.66-.82-2.12-2-5.06-1.8-3.32,.22-4.65,1.53-5.18,2.45-.22,.38,.22,.78,.76,.68Z"/></g><g><path class="cls-14" d="M139.59,88.02c0,1.26,1.02,2.29,2.29,2.29s2.29-1.02,2.29-2.29-1.02-2.29-2.29-2.29-2.29,1.02-2.29,2.29Z"/><path class="cls-14" d="M148.01,85.73c.1-.97-.51-1.95-1.34-2.55-.85-.59-1.87-.84-2.84-.88-.48-.04-1.02,.02-1.52,.14-.5,.15-.99,.38-1.4,.71-.81,.66-1.32,1.62-1.31,2.58,.63-.71,1.3-1.21,1.98-1.51,.7-.29,1.4-.39,2.2-.36,.81,.02,1.58,.11,2.31,.37,.71,.26,1.4,.71,1.92,1.5Z"/><path class="cls-14" d="M148.19,80.3c-1.52-.28-4.58-.69-8.89-.59-.52,.01-.86-.4-.59-.73,.66-.82,2.12-2,5.06-1.8,3.32,.22,4.65,1.53,5.18,2.45,.22,.38-.22,.78-.76,.68Z"/></g></g><path class="cls-14" d="M132.52,86.29c1.88,3.83,3.3,7.85,4.57,11.91,.67,1.76-.87,3.88-2.74,3.74-1.9-.1-3.78-.25-5.67-.55,1.88-.29,3.78-.44,5.65-.55,1.09-.09,1.82-1.21,1.45-2.22-1.34-4.04-2.55-8.12-3.26-12.33h0Z"/><path class="cls-9" d="M102.8,85c-1.29,.52-2.41,1.36-3.19,2.42-.79,1.05-1.12,2.37-1.12,3.68-.02,1.32,.32,2.63,1.06,3.71,.76,1.06,1.92,1.87,3.25,2.29-1.38-.12-2.79-.77-3.73-1.91-.95-1.13-1.38-2.64-1.36-4.08,0-1.44,.43-2.97,1.42-4.06,.95-1.11,2.29-1.81,3.67-2.04Z"/><path class="cls-9" d="M160.74,97.1c1.29-.52,2.41-1.36,3.19-2.42,.79-1.05,1.12-2.37,1.12-3.68,.02-1.32-.32-2.63-1.06-3.71-.76-1.06-1.92-1.87-3.25-2.29,1.38,.12,2.78,.77,3.73,1.91,.95,1.13,1.38,2.64,1.36,4.08-.01,1.44-.43,2.97-1.42,4.06-.95,1.11-2.29,1.81-3.67,2.04Z"/></g><g><path class="cls-8" d="M131.19,68.6c2.07,1.25,12.53,8.58,13.48,4.45-.07-2.13-1.91-3.98-3.28-5.61-3.25-3.56-6.91-6.69-10.54-9.89,4.43,2.69,15.42,10.06,15.28,15.66-1.76,6.76-12.41-2.11-14.93-4.62h0Z"/><path class="cls-8" d="M141.85,66.9c3.43,1.98,7.04,2.49,10.68,1.24,.85-.24,1.68-.63,2.55-.9-3.26,4.03-10.34,4.21-13.23-.33h0Z"/><path class="cls-8" d="M125.46,61.25c3,2.17,7.71,8.74,4.68,12.22,.35-1.14,.09-2.17-.24-3.19-1.16-3.17-3.02-5.86-4.44-9.03h0Z"/><path class="cls-8" d="M141.51,40.63c8.06-.83,16.42,2.29,22.35,7.71-6.75-4.26-14.36-7.13-22.35-7.71h0Z"/><path class="cls-8" d="M162.92,60.51c-5.82,2.18-12.62,.09-17.5-3.4,.76,.16,1.48,.39,2.21,.6,4.99,1.44,10.05,2.83,15.29,2.79h0Z"/><path class="cls-8" d="M115.54,69.59c-3.59-2.96-5-7.97-5.15-12.47,1.54,4.24,2.67,8.65,5.15,12.47h0Z"/></g></g><g><path class="cls-8" d="M179.23,223.64H82.46c-3.1,0-5.71-2.34-6.04-5.42l-5.37-49.09c-.39-3.6,2.42-6.74,6.04-6.74h107.51c3.62,0,6.44,3.14,6.04,6.74l-5.37,49.09c-.34,3.08-2.94,5.42-6.04,5.42Z"/><path class="cls-14" d="M190.43,166.75c-.74-2.5-3.04-4.36-5.83-4.36H77.09c-2.78,0-5.09,1.86-5.83,4.36h119.16Z"/><path class="cls-3" d="M136.13,195.79c0,2.92-2.36,5.28-5.28,5.28s-5.28-2.36-5.28-5.28,2.36-5.28,5.28-5.28,5.28,2.36,5.28,5.28Z"/></g><g><path class="cls-15" d="M163.31,187.59v17.62c0,1.52,1.23,2.76,2.76,2.76h32.04c.61,0,1.19,.2,1.67,.57l7.04,5.38c1.81,1.39,4.43,.09,4.43-2.19v-24.13c0-1.52-1.23-2.76-2.76-2.76h-42.43c-1.52,0-2.76,1.23-2.76,2.76Z"/><g><circle class="cls-16" cx="179.93" cy="196.74" r="1.84"/><path class="cls-16" d="M189.75,196.74c0,1.01-.82,1.84-1.84,1.84s-1.84-.82-1.84-1.84,.82-1.84,1.84-1.84,1.84,.82,1.84,1.84Z"/><path class="cls-16" d="M197.72,196.74c0,1.01-.82,1.84-1.84,1.84s-1.84-.82-1.84-1.84,.82-1.84,1.84-1.84,1.84,.82,1.84,1.84Z"/></g></g><g><path class="cls-15" d="M229.68,48.67v18.29c0,1.34-1.08,2.42-2.42,2.42h-36.33c-.53,0-1.05,.17-1.47,.5l-7.67,5.86c-1.59,1.22-3.89,.08-3.89-1.92v-25.15c0-1.34,1.08-2.42,2.42-2.42h46.94c1.34,0,2.42,1.08,2.42,2.42Z"/><g><g><path class="cls-2" d="M195.48,56.21l.78-2.31h1.27l-.62,2.31h-1.43Zm1.78,0l.78-2.31h1.27l-.62,2.31h-1.43Z"/><path class="cls-2" d="M219.23,62.03l.78-2.31h1.27l-.62,2.31h-1.43Zm1.78,0l.78-2.31h1.27l-.62,2.31h-1.43Z"/><rect class="cls-6" x="200.19" y="54.69" width="24.55" height="1.1"/><rect class="cls-6" x="195.48" y="57.35" width="27.9" height="1.1"/><rect class="cls-6" x="195.48" y="60.02" width="22.99" height="1.1"/></g><g><g><path class="cls-5" d="M192,54.87v1.64c-.34,0-.68,0-1.02,0-.7,0-1.4,0-2.09,0-1.22,.01-2.03,1.2-1.58,2.31,.26,.64,.87,1.05,1.6,1.05,1.03,0,2.06,0,3.1,0v1.64s-.02,.03-.02,.04c-.08,.72-.72,1.46-1.72,1.46-2.73,0-5.46,0-8.19,0-.2,0-.4-.03-.59-.09-.7-.23-1.14-.86-1.14-1.61,0-1.27,0-2.54,0-3.8,0-.81,0-1.63,0-2.44,0-.91,.67-1.63,1.57-1.68,.5-.03,1-.01,1.5-.01,2.28,0,4.56,0,6.85,0,.74,0,1.28,.33,1.6,1,.07,.15,.1,.33,.15,.5Z"/><path class="cls-6" d="M192,57.19v2c-1.08,0-2.15,0-3.23,0h-.02c-.68-.06-1.11-.85-.78-1.45,.2-.38,.53-.56,.96-.56,.8,0,1.6,0,2.4,0,.23,0,.45,0,.68,0Zm-2.91,1.34c.08,0,.15,0,.23,0,.19-.01,.33-.16,.33-.34,0-.18-.14-.33-.33-.33-.15,0-.3,0-.45,0-.19,0-.33,.16-.33,.34,0,.18,.14,.32,.33,.34,.08,0,.15,0,.23,0Z"/></g><path class="cls-11" d="M184.13,56.24l1.78,1.78c.07,.07,.07,.19,0,.27h0c-.07,.07-.19,.07-.27,0l-1.13-1.13c-.12-.12-.32-.03-.32,.13v2.72c0,.1-.09,.19-.19,.19h0c-.1,0-.19-.09-.19-.19v-2.72c0-.17-.2-.25-.32-.13l-1.13,1.13c-.07,.07-.19,.07-.27,0h0c-.07-.07-.07-.19,0-.27l1.78-1.78c.07-.07,.19-.07,.27,0Z"/></g></g></g><g><rect class="cls-15" x="24.22" y="50.74" width="54.11" height="30.7" rx="3.42" ry="3.42"/><g><g><g><circle class="cls-15" cx="33.74" cy="56.72" r="2.01"/><g><path class="cls-10" d="M32.57,57.94s-.05-.05-.05-.1c0-.14,0-.27,0-.41,0-.1,.04-.19,.11-.26,.02-.02,.05-.04,.07-.07-.03-.03-.05-.05-.08-.08-.04-.04-.04-.08,0-.12,.12-.12,.25-.25,.37-.37,.01-.01,.02-.02,0-.04-.02-.03-.04-.06-.06-.1-.02-.03-.02-.07,.01-.09,.1-.1,.2-.2,.3-.3,.03-.03,.07-.03,.11,0,.03,.03,.05,.05,.08,.08h0l.1-.1s.08-.05,.13,0c.1,.1,.21,.21,.31,.31,.02,.02,.03,.04,.03,.06,.02,.12,.04,.25,.06,.37,0,.04,0,.06-.03,.09-.18,.18-.37,.37-.55,.55-.15,.15-.37,.15-.52,0-.05-.05-.11-.11-.16-.16l-.02-.02s-.07,.07-.1,.11c-.03,.03-.04,.08-.04,.12,0,.14,0,.28,0,.41,0,.04-.01,.08-.05,.1h-.04Zm.73-.96l-.26,.26s.03,.02,.04,.04c.09,.09,.22,.09,.32,0,.08-.08,.16-.16,.24-.24l.02-.02-.21-.11c0,.05,0,.1,0,.15,0,.05-.03,.08-.07,.08-.04,0-.07-.03-.07-.08,0-.03,0-.05,0-.08Z"/><path class="cls-16" d="M34.95,56.71s0,.03-.01,.04c-.04,.12-.16,.2-.28,.18-.14-.02-.23-.13-.23-.26,0-.06,.02-.11,.05-.15,.05-.09,.1-.18,.15-.26,.03-.04,.09-.05,.12,0,.07,.1,.14,.21,.18,.33,0,.02,.01,.04,.02,.07v.06Z"/><path class="cls-16" d="M34.06,56.16l-.25-.25h0c.08-.08,.16-.17,.25-.24,.13-.11,.29-.16,.46-.16,.04,0,.09,0,.13,0,.04,0,.07,.03,.08,.07,0,.07,0,.14,0,.21,0,.05-.03,.07-.08,.08-.07,0-.13,0-.2,0-.09,.01-.16,.05-.23,.12-.05,.05-.1,.1-.16,.16,0,0-.01,.01-.02,.02Z"/></g></g><g><circle class="cls-15" cx="33.74" cy="62.97" r="2.01"/><g><path class="cls-10" d="M33.74,62.79c.35,0,.7,0,1.05,0,.02,0,.04,0,.06,0,.05,.02,.08,.06,.08,.12,0,.05-.04,.1-.09,.11-.02,0-.02,.01-.03,.03-.05,.26-.1,.52-.14,.79-.02,.09-.07,.14-.16,.14-.28,0-.56,0-.84,0-.23,0-.46,0-.69,0-.1,0-.16-.04-.17-.14-.05-.26-.1-.52-.14-.78,0-.02,0-.02-.03-.03-.06-.01-.1-.07-.09-.12,0-.06,.05-.11,.11-.11,.01,0,.03,0,.04,0,.35,0,.7,0,1.04,0Zm-.82,.5v.02c.03,.14,.05,.27,.08,.41,0,.03,.03,.05,.06,.05,.03,0,.05-.03,.04-.07-.02-.09-.03-.18-.05-.27,0-.05-.02-.1-.03-.15,0-.03-.03-.04-.06-.04-.03,0-.04,.02-.04,.05Zm1.64,0s-.02-.05-.04-.06c-.03,0-.05,0-.06,.03v.02c-.03,.14-.05,.27-.08,.41,0,.03,.01,.06,.04,.07,.03,0,.05-.01,.06-.05,.02-.08,.03-.16,.05-.25l.03-.17Zm-.41,.41s.01,.05,.04,.06c.03,0,.06-.02,.06-.06,0-.05,.01-.11,.02-.16,.01-.08,.02-.17,.03-.25,0-.02,0-.04-.03-.05-.02,0-.04-.01-.05,0-.01,.01-.02,.03-.02,.05,0,.04,0,.08-.01,.11l-.04,.3Zm-.82,0c-.02-.14-.03-.28-.05-.43,0-.03-.03-.05-.06-.04-.03,0-.05,.03-.04,.06,0,.08,.02,.16,.03,.24,0,.06,.01,.12,.02,.19,0,.03,.03,.05,.05,.04,.03,0,.05-.03,.05-.06Zm.7-.21c0-.07,0-.13,.01-.2,0-.04-.02-.06-.05-.06-.03,0-.05,.02-.06,.06,0,.06,0,.12-.01,.18,0,.08,0,.15-.01,.23,0,.03,.01,.05,.04,.06,.03,0,.06-.02,.06-.06,0-.07,0-.14,.01-.21Zm-.59,0c0,.07,0,.14,.01,.21,0,.03,.03,.06,.06,.05,.03,0,.05-.02,.05-.06,0-.14-.02-.28-.02-.42,0-.04-.02-.06-.06-.06-.03,0-.05,.03-.05,.06v.2Zm.36,0c0-.07,0-.14,0-.21,0-.01,0-.03,0-.04-.01-.02-.03-.03-.06-.02-.02,0-.04,.03-.04,.06,0,.14,0,.27,0,.41,0,.04,.02,.06,.05,.06,.03,0,.05-.02,.05-.06,0-.07,0-.14,0-.2Z"/><path class="cls-16" d="M33.3,62.68h-.03c-.16,0-.31,0-.47,0-.02,0-.03,0-.03-.03,0-.02,0-.04,0-.06,0-.08,.02-.15,.09-.19-.03-.02-.06-.03-.09-.05-.08-.05-.13-.13-.16-.21,0-.02,0-.03,.02-.03,.06,0,.12,.02,.17,.02,0,0,.02,0,.02,0,.01-.04,.02-.08,.03-.12,.02-.06,.03-.06,.07-.02,.03,.03,.05,.06,.08,.09,.04-.03,.08-.05,.11-.08,.02-.01,.04-.02,.06-.03,.02,0,.03,0,.03,.02,0,.12-.02,.24-.12,.33h0c.08,.02,.13,.08,.16,.15,.02,.06,.04,.12,.06,.19Z"/><path class="cls-16" d="M34.05,62.68h-.64c0-.06,0-.12,.01-.17,0-.02,0-.04,0-.06,.02-.07,.08-.12,.15-.11,.11,0,.23,.02,.34,.03,.08,0,.14,.07,.14,.15,0,.05,0,.1-.01,.16Z"/><path class="cls-16" d="M34.18,62.68s.05-.04,.08-.06c.04-.04,.05-.09,.05-.14,0-.05,.01-.1,.02-.16l.24,.03s-.01,.09-.02,.14c-.01,.07-.02,.13,.02,.19h-.4Z"/><path class="cls-16" d="M34.38,61.97c.08,.01,.16,.02,.24,.03,.03,0,.04,.03,.04,.06,0,.05-.01,.1-.02,.15,0,.03-.03,.05-.05,.04-.08,0-.16-.02-.24-.03-.03,0-.04-.03-.04-.06,0-.05,.01-.1,.02-.15,0-.03,.03-.04,.06-.04Z"/><path class="cls-16" d="M33.95,62.27l-.35-.03v-.14c.02-.07,.04-.09,.1-.08,.06,0,.13,.01,.19,.02,.04,0,.07,.03,.06,.07,0,.05,0,.1-.01,.16Z"/></g></g><g><circle class="cls-15" cx="33.74" cy="69.22" r="2.01"/><g><path class="cls-10" d="M32.51,69.33v-.04c.04-.19,.2-.34,.39-.36h.04c-.09-.02-.16-.05-.21-.12-.05-.07-.08-.14-.07-.23,.01-.15,.14-.28,.29-.29,.15-.01,.29,.09,.33,.24,.03,.13-.04,.34-.26,.39,.1,0,.18,.03,.27,.07,.12,.06,.25,.12,.37,.19h.02l.02-.02c.04-.09,.09-.18,.13-.27,.02-.03,.04-.05,.08-.04,.03,0,.05,.02,.06,.05,0,.02,0,.04-.01,.06-.05,.11-.11,.22-.16,.33,0,.01,0,.03,0,.04,.01,.07-.01,.13-.06,.18-.06,.05-.12,.07-.19,.04-.07-.03-.13-.06-.2-.09l-.06-.03v.03c0,.25,0,.5,0,.76,0,.02,0,.04,0,.05-.01,.03-.04,.04-.07,.04-.15,0-.31,0-.46,0-.05,0-.07-.03-.07-.08,0-.12,0-.25,0-.37,0-.01,0-.02-.02-.03-.07-.03-.11-.08-.13-.16v-.33Z"/><path class="cls-16" d="M34.38,69.45v.03c.1,.24,.18,.47,.27,.71,0,.02,0,.04,0,.05,0,.03-.03,.05-.06,.06-.03,0-.06-.01-.07-.04,0-.01-.01-.03-.02-.04-.09-.25-.18-.5-.27-.74,0-.02-.02-.02-.04-.02-.02,0-.03,0-.03,.02-.09,.25-.18,.51-.28,.76,0,.02-.02,.04-.03,.05-.02,.02-.06,.02-.08,0-.02-.02-.04-.05-.03-.08,.03-.07,.05-.15,.08-.22,.06-.17,.12-.34,.18-.51v-.03h-.09s0-.08,0-.12c0,0,0-.01,0-.02,.05-.1,.1-.19,.14-.29,.04-.08,.04-.16-.02-.24-.08-.11-.27-.11-.35,.01-.03,.06-.06,.12-.09,.18v.02c-.07-.03-.12-.05-.18-.08,0,0-.01-.01-.01-.02,0-.17,0-.35,0-.52,0-.13,.1-.22,.24-.22,.35,0,.7,0,1.06,0,.02,0,.05,0,.07,0,.1,.03,.17,.11,.17,.22,0,.28,0,.56,0,.85,0,.13-.1,.23-.23,.23-.11,0-.22,0-.33,0,0,0-.02,0-.03,0Zm-.18-.85s.04,0,.07,0c.11,0,.21,0,.32,0,.04,0,.07-.03,.07-.07,0-.04-.02-.07-.06-.07,0,0-.02,0-.03,0-.22,0-.44,0-.67,0-.03,0-.05,0-.08,0-.03,0-.06,.02-.07,.05-.02,.05,.02,.1,.07,.1,.13,0,.25,0,.38,0Zm.22,.54s.1,0,.15,0c.01,0,.02,0,.03,0,.03,0,.06-.04,.05-.08,0-.04-.03-.06-.07-.06-.11,0-.22,0-.34,0-.03,0-.06,.03-.06,.06,0,.05,.02,.08,.07,.08,.05,0,.1,0,.16,0Zm0-.41h0c-.05,0-.1,0-.16,0-.05,0-.08,.03-.08,.07,0,.04,.03,.07,.08,.07,.03,0,.06,0,.09,0,.07,0,.14,0,.21,0,.02,0,.04,0,.06-.02,.02-.02,.03-.05,.02-.07,0-.03-.03-.05-.06-.05-.06,0-.11,0-.17,0Z"/></g></g><g><ellipse class="cls-15" cx="33.73" cy="75.47" rx="2.01" ry="2.01"/><g><path class="cls-10" d="M33.05,74.98s-.03,.06-.06,.06c-.03,0-.06-.03-.06-.06,0-.03,.03-.06,.06-.06,.03,0,.06,.03,.06,.06Zm1.87,.59s-.03-.03-.05-.05c-.21-.21-.42-.42-.63-.63-.03-.03-.07-.05-.11-.06-.12-.01-.25-.02-.37-.03-.02,0-.03,0-.04-.03-.05-.14-.19-.24-.35-.25-.15,0-.29,.09-.35,.22l.08,.02-.02,.08s.06,.03,.08,.07c.02,.05,.02,.1-.01,.15-.04,.05-.09,.06-.14,.05-.06-.01-.09-.05-.11-.11-.01-.07,.02-.13,.08-.15,.01,0,.02-.01,.02-.03,0-.03,.02-.05,.02-.08-.03,0-.06,0-.09,0-.15,.03-.26,.12-.31,.27-.05,.15-.01,.28,.11,.39,.01,.01,.02,.02,.01,.04-.02,.09-.05,.18-.07,.26,0,.01,0,.03,0,.05,0,.03,.02,.05,.03,.08,0,.02,0,.03-.01,.04-.02,.01-.04,.03-.06,.04-.02,.01-.02,.02-.01,.04,.01,.02,.02,.04,.03,.06,0,.02,0,.03-.01,.04-.02,.01-.04,.03-.06,.04-.02,0-.02,.02-.01,.04,.01,.02,.02,.04,.03,.06,0,.02,0,.03-.01,.03-.02,0-.03,.02-.05,.03-.02,0-.02,.02-.01,.04,.02,.04,.04,.07,.06,.11,.01,.02,.02,.03,.04,.01,.04-.02,.08-.05,.11-.07,.02-.01,.03-.03,.04-.05,.07-.25,.14-.5,.22-.75,0-.01,0-.02,.02-.03,.13-.02,.21-.1,.28-.21v-.02h0c-.07-.01-.12-.04-.18-.08-.02-.01-.02-.03-.02-.05,0-.02,.02-.03,.04-.03,.01,0,.02,0,.03,.01,.05,.03,.1,.05,.16,.05,.02-.05,.02-.14,0-.2-.04-.12-.13-.19-.24-.24,.04-.1,.16-.16,.29-.16,.11,0,.23,.09,.25,.19h-.01c-.07,.03-.12,.09-.12,.16,0,.06,0,.12,.01,.18,0,.02,0,.02-.02,.03-.04,.01-.08,.02-.12,.03,0,0-.02,0-.02,0-.01,.02-.02,.05-.03,.07,.07,0,.13,0,.2-.03,0,.06,.01,.11,.01,.16,0,.05,.02,.09,.06,.12,.22,.22,.44,.43,.66,.65,.03,.03,.05,.03,.08,0,.09-.08,.17-.17,.26-.25,.11-.11,.22-.22,.33-.32v-.03Zm-.73,.14s0-.03,0-.04c.03-.03,.05-.05,.08-.08,.04-.04,.07-.07,.11-.11,.02-.02,.04-.02,.06,0,.02,.02,.02,.04,0,.06-.06,.06-.12,.12-.18,.18,0,0-.02,.01-.04,.02-.01-.01-.03-.02-.03-.03Zm.04-.45s0,.03,0,.04c-.02,.02-.05,.05-.07,.07-.04,.04-.08,.08-.11,.11-.02,.02-.05,.02-.06,0-.02-.02-.01-.04,0-.06,.06-.06,.12-.12,.18-.18,0,0,.02-.01,.04-.02,.01,.01,.03,.02,.03,.03Z"/><path class="cls-16" d="M34.88,75.52c-.21-.21-.42-.42-.63-.63-.03-.03-.07-.05-.11-.06-.12-.01-.25-.02-.37-.03h-.06s-.04,0-.06,0h0c-.07,.02-.12,.08-.12,.16,0,.06,0,.12,.01,.18,0,0,0,.01,0,.02,0,0,0,.01,0,.02,0,.01,0,.02,0,.04h0v.02s0,.02,0,.03c0,.05,0,.09,.01,.14,0,.05,.02,.09,.06,.12,.22,.22,.44,.43,.66,.65,.03,.03,.05,.03,.08,0,.09-.08,.17-.17,.26-.25,.11-.11,.22-.22,.33-.32v-.03s-.03-.03-.05-.05Zm-.84-.03s-.05,.02-.06,0c-.02-.02-.01-.04,0-.06,.06-.06,.12-.12,.18-.18,0,0,.02-.01,.04-.02,.01,.01,.03,.02,.03,.03,.01,.02,0,.03,0,.04-.02,.02-.05,.05-.07,.07-.04,.04-.08,.08-.11,.11Zm.4,.04c-.06,.06-.12,.12-.18,.18,0,0-.02,.01-.04,.02-.01-.01-.03-.02-.03-.03,0-.01,0-.03,0-.04,.03-.03,.05-.05,.08-.08,.04-.04,.07-.07,.11-.11,.02-.02,.04-.02,.06,0,.02,.02,.02,.04,0,.06Z"/></g></g></g><g><g><path class="cls-2" d="M41.57,57.75l.78-2.31h1.27l-.62,2.31h-1.43Zm1.78,0l.78-2.31h1.27l-.62,2.31h-1.43Z"/><rect class="cls-16" x="46.28" y="56.23" width="24.55" height="1.1"/></g><g><path class="cls-2" d="M41.57,64.08l.78-2.31h1.27l-.62,2.31h-1.43Zm1.78,0l.78-2.31h1.27l-.62,2.31h-1.43Z"/><rect class="cls-16" x="46.28" y="62.56" width="24.55" height="1.1"/></g><g><path class="cls-2" d="M41.57,70.42l.78-2.31h1.27l-.62,2.31h-1.43Zm1.78,0l.78-2.31h1.27l-.62,2.31h-1.43Z"/><rect class="cls-16" x="46.28" y="68.9" width="24.55" height="1.1"/></g><g><path class="cls-2" d="M41.57,76.75l.78-2.31h1.27l-.62,2.31h-1.43Zm1.78,0l.78-2.31h1.27l-.62,2.31h-1.43Z"/><rect class="cls-16" x="46.28" y="75.23" width="24.55" height="1.1"/></g></g></g></g></svg>