<?xml version="1.0" encoding="UTF-8"?><svg id="Layer_1" xmlns="http://www.w3.org/2000/svg" width="859" height="1806" viewBox="0 0 859 1806"><defs><style>.cls-1{fill:none;stroke:#a084ef;stroke-miterlimit:10;}</style></defs><path class="cls-1" d="M157.93,0c-20.11,6.88-51.9,20.55-83,48C54.92,65.66,8.16,106.94,.93,175c-5.74,53.99,16.59,94.87,24,108,9.68,17.15,38.82,62.87,98,85,13.3,4.97,63.38,22.86,121,3,13.39-4.61,89.19-30.74,100-96,6.89-41.58-16.62-74.81-21-81-4.58-6.48-31.31-42.87-81-49-49.09-6.06-83.81,21.94-93,30-36.66,32.15-40.98,74.93-42,87-3.46,40.83,13.01,71.04,22,87,23.12,41.04,56.62,61.34,73,71,20.2,11.91,51.08,19.77,112,35,104.73,26.19,110.86,27.7,124,34,16.66,7.98,65.7,32.21,101,85,10.58,15.82,69.54,108.42,27,205-2.96,6.72-34.43,80.47-103,101-12.93,3.87-36.33,10.52-57-1-26.6-14.83-31.28-50.07-33-63-7.57-57.02,25.16-104.12,48-137,33.25-47.85,70.4-74.78,96-93,33.68-23.97,61.59-43.83,105-53,16.48-3.48,59.07-11.91,109,5,19.09,6.47,64.66,21.91,92,67,21.42,35.33,20.6,70.66,20,97-.69,30.05-7.12,61.55-23,98-30.12,69.14-62.82,83.94-131,168-29.9,36.87-52.6,71.58-98,141-50.65,77.45-76.25,117.03-90,159-25,76.31-20.48,141.11-19,158,10.88,124.31,80.33,206.28,101,230,73.48,84.31,161.02,115.79,205,131,28.35,9.81,52.99,15.54,71,19"/></svg>