<?xml version="1.0" encoding="UTF-8"?><svg id="Layer_1" xmlns="http://www.w3.org/2000/svg" width="100" height="100" viewBox="0 0 100 100"><defs><style>.cls-1{fill:#ececee;}.cls-2{fill:#646464;}</style></defs><rect class="cls-1" x="3" y="3" width="94" height="94" rx="7.18" ry="7.18"/><g><g><rect class="cls-2" x="24.08" y="41" width="11.14" height="36"/><path class="cls-2" d="M29.6,36.29c3.64,0,6.59-2.98,6.59-6.64s-2.95-6.64-6.59-6.64-6.59,2.97-6.59,6.64,2.95,6.64,6.59,6.64Z"/></g><path class="cls-2" d="M53.04,58.1c0-5.06,2.33-8.08,6.79-8.08,4.1,0,6.07,2.89,6.07,8.08v18.9h11.09v-22.79c0-9.64-5.47-14.31-13.1-14.31s-10.85,5.95-10.85,5.95v-4.85h-10.69v36h10.69v-18.9Z"/></g></svg>