<?xml version="1.0" encoding="UTF-8"?><svg id="Layer_1" xmlns="http://www.w3.org/2000/svg" width="368" height="529" xmlns:xlink="http://www.w3.org/1999/xlink" viewBox="0 0 368 529"><defs><style>.cls-1,.cls-2{letter-spacing:0em;}.cls-3,.cls-4,.cls-5,.cls-6,.cls-2,.cls-7,.cls-8{font-size:6.7px;}.cls-9,.cls-10,.cls-11,.cls-12,.cls-13,.cls-14,.cls-15,.cls-16,.cls-17{fill:#fff;}.cls-18{letter-spacing:0em;}.cls-19{letter-spacing:0em;}.cls-20{fill:#f1f9fe;}.cls-21{letter-spacing:0em;}.cls-22{fill:#333;}.cls-22,.cls-14{font-size:5.05px;}.cls-23{letter-spacing:0em;}.cls-4,.cls-24,.cls-6,.cls-2,.cls-13,.cls-25,.cls-26,.cls-8,.cls-27,.cls-28{font-family:NoirPro-Medium, 'Noir Pro';}.cls-4,.cls-29{letter-spacing:0em;}.cls-30{letter-spacing:0em;}.cls-31{letter-spacing:0em;}.cls-32{letter-spacing:-.02em;}.cls-33{letter-spacing:0em;}.cls-34{letter-spacing:0em;}.cls-5,.cls-35,.cls-36{fill:#39b54a;}.cls-37{letter-spacing:-.08em;}.cls-38{letter-spacing:-.02em;}.cls-39{letter-spacing:0em;}.cls-40,.cls-41,.cls-42,.cls-43,.cls-44,.cls-45,.cls-46,.cls-47,.cls-48,.cls-49,.cls-50,.cls-51,.cls-52,.cls-17,.cls-53,.cls-54,.cls-55{font-family:NoirPro-Regular, 'Noir Pro';}.cls-56{letter-spacing:0em;}.cls-57{letter-spacing:0em;}.cls-58,.cls-59,.cls-54,.cls-55{fill:#0265e7;}.cls-58,.cls-60{opacity:.25;}.cls-61{letter-spacing:-.02em;}.cls-62{letter-spacing:-.02em;}.cls-10{opacity:.5;}.cls-41{letter-spacing:0em;}.cls-41,.cls-42,.cls-43,.cls-45,.cls-48,.cls-50,.cls-51{font-size:4.42px;}.cls-41,.cls-42,.cls-43,.cls-45,.cls-48,.cls-50,.cls-51,.cls-63,.cls-28{fill:#b3b3b3;}.cls-64{letter-spacing:0em;}.cls-65{letter-spacing:-.02em;}.cls-42{letter-spacing:0em;}.cls-66{letter-spacing:-.03em;}.cls-67{letter-spacing:-.03em;}.cls-43{letter-spacing:0em;}.cls-68{letter-spacing:-.02em;}.cls-69{stroke-dasharray:0 0 17.14 17.14;}.cls-69,.cls-70{stroke:#0265e7;stroke-miterlimit:10;}.cls-69,.cls-70,.cls-71,.cls-72{fill:none;}.cls-35{filter:url(#drop-shadow-3);}.cls-73{filter:url(#drop-shadow-1);}.cls-74{letter-spacing:-.08em;}.cls-44{font-size:6.03px;}.cls-44,.cls-46,.cls-75{fill:#4d4d4d;}.cls-76{font-family:OpenSans-Semibold, 'Open Sans';font-size:5.95px;font-weight:700;}.cls-77{letter-spacing:0em;}.cls-45{letter-spacing:0em;}.cls-78{letter-spacing:-.03em;}.cls-79{clip-path:url(#clippath-1);}.cls-80{letter-spacing:0em;}.cls-81{filter:url(#drop-shadow-4);}.cls-81,.cls-7,.cls-82{fill:#ed1c24;}.cls-83{letter-spacing:0em;}.cls-11{filter:url(#drop-shadow-2);}.cls-84{fill:#e6e6e6;}.cls-85{letter-spacing:-.02em;}.cls-86{letter-spacing:0em;}.cls-12{filter:url(#drop-shadow-5);}.cls-87{letter-spacing:-.03em;}.cls-88{letter-spacing:-.08em;}.cls-13,.cls-26{font-size:4.21px;}.cls-46,.cls-25,.cls-49,.cls-53,.cls-75,.cls-54{font-size:4.69px;}.cls-89,.cls-8{letter-spacing:-.02em;}.cls-47{fill:#666;}.cls-47,.cls-55{font-size:5.36px;}.cls-90{letter-spacing:0em;}.cls-25,.cls-26,.cls-53{fill:#1a1a1a;}.cls-91{letter-spacing:0em;}.cls-92{letter-spacing:0em;}.cls-49,.cls-93,.cls-52{fill:#999;}.cls-94{clip-path:url(#clippath);}.cls-15{filter:url(#drop-shadow-7);}.cls-95{letter-spacing:0em;}.cls-96{letter-spacing:0em;}.cls-71{stroke:#ccc;stroke-linecap:round;stroke-linejoin:round;}.cls-97{fill:#e1f3f9;}.cls-50{letter-spacing:-.03em;}.cls-51{letter-spacing:-.02em;}.cls-98{fill:#ccc;}.cls-99{font-family:MyriadPro-Regular, 'Myriad Pro';}.cls-100{letter-spacing:-.02em;}.cls-52,.cls-17{font-size:6.45px;}.cls-16{filter:url(#drop-shadow-6);}.cls-101{letter-spacing:0em;}.cls-102{letter-spacing:0em;}.cls-103{letter-spacing:0em;}.cls-104{letter-spacing:-.03em;}.cls-105{letter-spacing:-.02em;}.cls-106{fill:url(#linear-gradient);}.cls-27{letter-spacing:0em;}.cls-107{letter-spacing:0em;}.cls-108{fill:#404040;}.cls-109{letter-spacing:0em;}.cls-110{letter-spacing:-.02em;}.cls-111{letter-spacing:-.03em;}.cls-112{letter-spacing:-.03em;}.cls-113{fill:#f2f2f2;}.cls-28{font-size:4.98px;}.cls-114{fill:#188fea;}.cls-115{letter-spacing:-.02em;}</style><filter id="drop-shadow-1" filterUnits="userSpaceOnUse"><feOffset dx="0" dy="0"/><feGaussianBlur result="blur" stdDeviation="20"/><feFlood flood-color="#000" flood-opacity=".25"/><feComposite in2="blur" operator="in"/><feComposite in="SourceGraphic"/></filter><clipPath id="clippath"><rect class="cls-72" x="87.5" y="61.5" width="193" height="406" rx="18" ry="18"/></clipPath><clipPath id="clippath-1"><rect class="cls-72" x="87.5" y="60.44" width="193" height="553.4"/></clipPath><linearGradient id="linear-gradient" x1="164.93" y1="85.19" x2="178.91" y2="85.19" gradientTransform="matrix(1, 0, 0, 1, 0, 0)" gradientUnits="userSpaceOnUse"><stop offset="0" stop-color="#0265e7"/><stop offset="1" stop-color="#00a3fd"/></linearGradient><filter id="drop-shadow-2" filterUnits="userSpaceOnUse"><feOffset dx="1" dy="1"/><feGaussianBlur result="blur-2" stdDeviation="3"/><feFlood flood-color="#000" flood-opacity=".35"/><feComposite in2="blur-2" operator="in"/><feComposite in="SourceGraphic"/></filter><filter id="drop-shadow-3" filterUnits="userSpaceOnUse"><feOffset dx="1" dy="1"/><feGaussianBlur result="blur-3" stdDeviation="3"/><feFlood flood-color="#000" flood-opacity=".35"/><feComposite in2="blur-3" operator="in"/><feComposite in="SourceGraphic"/></filter><filter id="drop-shadow-4" filterUnits="userSpaceOnUse"><feOffset dx="1" dy="1"/><feGaussianBlur result="blur-4" stdDeviation="3"/><feFlood flood-color="#000" flood-opacity=".35"/><feComposite in2="blur-4" operator="in"/><feComposite in="SourceGraphic"/></filter><filter id="drop-shadow-5" filterUnits="userSpaceOnUse"><feOffset dx="1" dy="1"/><feGaussianBlur result="blur-5" stdDeviation="3"/><feFlood flood-color="#000" flood-opacity=".35"/><feComposite in2="blur-5" operator="in"/><feComposite in="SourceGraphic"/></filter><filter id="drop-shadow-6" filterUnits="userSpaceOnUse"><feOffset dx="7" dy="7"/><feGaussianBlur result="blur-6" stdDeviation="15"/><feFlood flood-color="#000" flood-opacity=".35"/><feComposite in2="blur-6" operator="in"/><feComposite in="SourceGraphic"/></filter><filter id="drop-shadow-7" filterUnits="userSpaceOnUse"><feOffset dx="1" dy="-1"/><feGaussianBlur result="blur-7" stdDeviation="3"/><feFlood flood-color="#000" flood-opacity=".35"/><feComposite in2="blur-7" operator="in"/><feComposite in="SourceGraphic"/></filter></defs><path class="cls-97" d="M221.21,153.1c-22.17,13.1-47.82,19.02-73.52,17.37-67.18-4.32-109.09,42.73-116.54,66.25-8.64,27.33-3.19,57.88,10.75,82.92,13.94,25.04,35.72,45,59.66,60.75,18.72,12.3,39.47,22.45,61.74,24.85,21.75,2.34,43.55-2.82,64.72-8.37,27.23-7.13,54.72-15.15,78.45-30.29,19.35-12.34,37.08-33.18,33.08-55.78-3.41-19.27-21.64-33.45-24.72-52.78-4.31-27.06,22.13-49.65,25.67-76.83,4.13-31.69-18.62-57.84-40.36-58.02-22.66-.19-54.37,15.4-78.94,29.92Z"/><g class="cls-73"><g class="cls-94"><g class="cls-79"><rect class="cls-9" x="87.5" y="60.44" width="193" height="553.4"/><g><g><text class="cls-76" transform="translate(104.4 72.08)"><tspan x="0" y="0">9:30</tspan></text><g><rect x="233.72" y="70.26" width="1.25" height="2.05"/><rect x="235.52" y="69.44" width="1.25" height="2.87"/><rect x="237.31" y="68.64" width="1.25" height="3.67"/><rect x="239.1" y="67.73" width="1.25" height="4.58"/></g><g><path d="M244.13,69.22l.6,.6c.77-.69,1.75-1.07,2.78-1.07s2.01,.38,2.78,1.07l.6-.6c-.93-.85-2.12-1.32-3.38-1.32s-2.45,.47-3.38,1.32Z"/><path d="M245.25,70.34l.6,.6c.47-.39,1.05-.61,1.65-.61s1.19,.21,1.65,.61l.6-.6c-.63-.55-1.42-.86-2.26-.86s-1.63,.3-2.26,.86Z"/><path d="M246.38,71.47l.61,.61c.16-.1,.33-.16,.52-.16s.36,.05,.52,.16l.61-.61c-.65-.51-1.61-.51-2.26,0Z"/></g><g><rect x="254.82" y="68.28" width="7.96" height="3.47" rx=".16" ry=".16"/><path d="M263.12,69.27h.32c.09,0,.16,.07,.16,.16v1.17c0,.09-.07,.16-.16,.16h-.32c-.09,0-.16-.07-.16-.16v-1.17c0-.09,.07-.16,.16-.16Z"/></g></g><g><g><path class="cls-59" d="M270.62,78.13c.16,.04,.32,.06,.48,.11,1.31,.36,2.22,1.59,2.16,2.92-.06,1.41-1.06,2.56-2.43,2.8-1.7,.3-3.29-.93-3.43-2.65-.13-1.56,.97-2.94,2.52-3.15,.03,0,.06,0,.07-.03h.63Z"/><path class="cls-84" d="M263.27,89.9c-.8,0-1.61,0-2.41,0-.14,0-.28-.01-.42-.06-.74-.26-.94-1.21-.36-1.73,.67-.59,1.12-1.3,1.32-2.17,.07-.3,.1-.6,.1-.9,0-.52,0-1.05,0-1.57,0-2,1.34-3.65,3.3-4.07,.55-.12,1.09-.11,1.64,0,.1,.02,.1,.05,.07,.13-.55,1.45-.37,2.81,.56,4.05,.62,.82,1.46,1.32,2.47,1.52,.14,.03,.19,.07,.2,.23,.08,1.04,.49,1.92,1.26,2.63,.22,.2,.42,.41,.47,.72,.1,.66-.36,1.21-1.04,1.21-.77,0-1.53,0-2.3,0-.05,0-.11,0-.16,0h-4.7Z"/><path class="cls-93" d="M263.27,89.9h4.7c-.04,1.17-.79,2.07-1.91,2.3-1.29,.27-2.6-.68-2.76-1.98-.01-.1-.02-.21-.02-.31Z"/></g><g><g><path class="cls-108" d="M184.59,84.13h.41c.77,0,1.57,.31,2.41,.93,.37,.31,.55,.59,.55,.82v.18c0,.44-.27,.74-.82,.88l-.14,.02c-.29,0-.6-.17-.95-.5-.38-.27-.77-.41-1.17-.41h-.2c-.74,0-1.34,.38-1.79,1.13-.16,.3-.25,.62-.25,.96v.1c0,.96,.53,1.64,1.59,2.04l.45,.05h.2c.55,0,1.09-.27,1.62-.8,.23-.07,.39-.11,.49-.11,.47,0,.79,.27,.96,.81v.28c0,.44-.54,.93-1.63,1.47-.55,.19-.99,.28-1.33,.28h-.41c-1.05,0-2.03-.49-2.95-1.46-.62-.82-.93-1.63-.93-2.42v-.39c0-1.06,.49-2.04,1.46-2.95,.83-.62,1.63-.93,2.42-.93Z"/><path class="cls-108" d="M191.88,84.13h.27c.36,0,.64,.25,.84,.76v.32c0,.3-.2,.57-.61,.79-.49,.07-.77,.14-.85,.22-.29,.2-.43,.42-.43,.68l-.02,1.56h1.08c.36,0,.64,.25,.84,.76v.31c0,.36-.25,.64-.76,.85l-.5,.02h-.65v1.06c0,.36-.25,.64-.76,.84h-.32c-.36,0-.64-.25-.84-.76v-4.66c0-.86,.43-1.62,1.29-2.29,.52-.3,1-.45,1.44-.45Z"/><path class="cls-108" d="M195.27,84.13c.36,0,.64,.25,.84,.76v.32c0,.36-.25,.64-.76,.84h-.32c-.36,0-.64-.25-.84-.76v-.32c0-.36,.25-.64,.76-.84h.32Zm0,2.4c.36,0,.64,.26,.84,.77v4.15c0,.36-.25,.64-.76,.84h-.32c-.36,0-.64-.25-.84-.76v-4.15c0-.36,.25-.64,.76-.85h.32Z"/><path class="cls-108" d="M200.03,86.52h.29c.85,0,1.61,.43,2.27,1.3,.31,.52,.47,1,.47,1.44v2.19c0,.36-.26,.64-.77,.84h-.31c-.36,0-.64-.25-.85-.76l-.02-.52v-1.72c0-.36-.25-.63-.74-.82h-.32c-.35,0-.62,.25-.81,.75l-.02,.5v1.73c0,.36-.25,.64-.76,.84h-.32c-.36,0-.64-.25-.84-.76v-2.26c0-.86,.43-1.62,1.29-2.29,.52-.3,1-.45,1.44-.45Z"/></g><path class="cls-106" d="M178.91,83c0,.39-.02,.79-.02,1.18v.04c0,.37-.01,.74-.02,1.11,0,.26,0,.51-.01,.77,0,.01,0,.02,0,.04h-2.57c-1.1,0-2.19,0-3.29,0h-3.05s-1.12,.04-1.58,.58c-.11,.13-.21,.28-.3,.45-.24,.46-.31,.96-.24,1.49,.07,.46,.24,.86,.53,1.21,.63,.74,1.63,.95,2.47,.51,.07-.04,.14-.09,.21-.13,.02-.01,.05-.02,.08-.03,.01,0,.03,0,.04,0h3.69s0,.03-.01,.05c-.16,.44-.37,.85-.63,1.23-.17,.25-.37,.49-.58,.71-.28,.29-.59,.54-.93,.75-.44,.27-.91,.47-1.4,.59-.15,.03-.29,.05-.44,.08-.13,.02-.26,.04-.39,.06-.11,.01-.22,.02-.33,.03-.15,0-.31,0-.46,0-.12,0-.24-.02-.36-.04-.19-.02-.38-.06-.56-.11-.66-.17-1.26-.49-1.81-.93-.23-.19-.45-.4-.65-.64-.34-.4-.62-.84-.83-1.33-.18-.41-.31-.83-.39-1.27-.03-.18-.05-.36-.07-.55-.04-.29-.03-.57-.02-.86,0-.3,.05-.6,.11-.89,.15-.71,.42-1.37,.82-1.97,.21-.31,.44-.6,.7-.85,.64-.63,1.39-1.05,2.23-1.25,.19-.05,.38-.08,.58-.1,.18-.02,.37-.02,.55-.02h1.36v-.77s0-.06,0-.09v-.03h0c.01-.97,.27-1.89,.81-2.76,.67-1.09,1.62-1.84,2.82-2.27,1.02-.36,2.05-.39,3.1-.14v3.48s-.04-.01-.06-.03c-.27-.17-.57-.29-.89-.32-.66-.07-1.24,.11-1.72,.56-.65,.6-.86,1.53-.53,2.35,.03,.08,.02,.07,.11,.07,1.29,0,2.59,0,3.88-.01,.03,0,.06,0,.1,0,0,.03,0,.04,0,.06Zm-7.79,3.6v3.24h3.73v-3.24h-3.73Z"/></g></g></g><g><g><rect class="cls-20" x="94.54" y="102.65" width="178.93" height="123.46" rx="10" ry="10"/><g><g><g><g><rect class="cls-59" x="110.05" y="198.12" width="18.88" height="9.63" rx="4.8" ry="4.8"/><text class="cls-13" transform="translate(115.35 204.31)"><tspan x="0" y="0">SUN</tspan></text></g><g><path class="cls-58" d="M147.85,207.87h-12.62c-1.8,0-3.26-1.46-3.26-3.26v-3.37c0-1.8,1.46-3.26,3.26-3.26h12.62c1.8,0,3.26,1.46,3.26,3.26v3.37c0,1.8-1.46,3.26-3.26,3.26Zm-12.62-9.63c-1.66,0-3,1.35-3,3v3.37c0,1.66,1.35,3,3,3h12.62c1.66,0,3-1.35,3-3v-3.37c0-1.66-1.35-3-3-3h-12.62Z"/><text class="cls-26" transform="translate(136.62 204.31)"><tspan x="0" y="0">M</tspan><tspan class="cls-96" x="3.63" y="0">O</tspan><tspan class="cls-91" x="6.83" y="0">N</tspan></text></g><g><path class="cls-58" d="M169.91,207.87h-12.62c-1.8,0-3.26-1.46-3.26-3.26v-3.37c0-1.8,1.46-3.26,3.26-3.26h12.62c1.8,0,3.26,1.46,3.26,3.26v3.37c0,1.8-1.46,3.26-3.26,3.26Zm-12.62-9.63c-1.66,0-3,1.35-3,3v3.37c0,1.66,1.35,3,3,3h12.62c1.66,0,3-1.35,3-3v-3.37c0-1.66-1.35-3-3-3h-12.62Z"/><text class="cls-26" transform="translate(160 204.31)"><tspan x="0" y="0">TUE</tspan></text></g><g><path class="cls-58" d="M191.97,207.87h-12.62c-1.8,0-3.26-1.46-3.26-3.26v-3.37c0-1.8,1.46-3.26,3.26-3.26h12.62c1.8,0,3.26,1.46,3.26,3.26v3.37c0,1.8-1.46,3.26-3.26,3.26Zm-12.62-9.63c-1.66,0-3,1.35-3,3v3.37c0,1.66,1.35,3,3,3h12.62c1.66,0,3-1.35,3-3v-3.37c0-1.66-1.35-3-3-3h-12.62Z"/><text class="cls-26" transform="translate(181.05 204.31)"><tspan x="0" y="0">WED</tspan></text></g><g><path class="cls-58" d="M214.03,207.87h-12.62c-1.8,0-3.26-1.46-3.26-3.26v-3.37c0-1.8,1.46-3.26,3.26-3.26h12.62c1.8,0,3.26,1.46,3.26,3.26v3.37c0,1.8-1.46,3.26-3.26,3.26Zm-12.62-9.63c-1.66,0-3,1.35-3,3v3.37c0,1.66,1.35,3,3,3h12.62c1.66,0,3-1.35,3-3v-3.37c0-1.66-1.35-3-3-3h-12.62Z"/><text class="cls-26" transform="translate(203.82 204.31)"><tspan x="0" y="0">THU</tspan></text></g><g><path class="cls-58" d="M236.09,207.87h-12.62c-1.8,0-3.26-1.46-3.26-3.26v-3.37c0-1.8,1.46-3.26,3.26-3.26h12.62c1.8,0,3.26,1.46,3.26,3.26v3.37c0,1.8-1.46,3.26-3.26,3.26Zm-12.62-9.63c-1.66,0-3,1.35-3,3v3.37c0,1.66,1.35,3,3,3h12.62c1.66,0,3-1.35,3-3v-3.37c0-1.66-1.35-3-3-3h-12.62Z"/><text class="cls-26" transform="translate(226.9 204.31)"><tspan x="0" y="0">F</tspan><tspan class="cls-96" x="2.15" y="0">R</tspan><tspan x="4.68" y="0">I</tspan></text></g><g><path class="cls-58" d="M258.14,207.87h-12.62c-1.8,0-3.26-1.46-3.26-3.26v-3.37c0-1.8,1.46-3.26,3.26-3.26h12.62c1.8,0,3.26,1.46,3.26,3.26v3.37c0,1.8-1.46,3.26-3.26,3.26Zm-12.62-9.63c-1.66,0-3,1.35-3,3v3.37c0,1.66,1.35,3,3,3h12.62c1.66,0,3-1.35,3-3v-3.37c0-1.66-1.35-3-3-3h-12.62Z"/><text class="cls-26" transform="translate(248.2 204.31)"><tspan class="cls-85" x="0" y="0">S</tspan><tspan class="cls-37" x="2.49" y="0">A</tspan><tspan x="4.98" y="0">T</tspan></text></g></g><g><g class="cls-60"><g><line class="cls-70" x1="110.11" y1="194.19" x2="110.11" y2="183.69"/><line class="cls-69" x1="110.11" y1="166.55" x2="110.11" y2="140.83"/><line class="cls-70" x1="110.11" y1="132.26" x2="110.11" y2="121.76"/></g><g><line class="cls-70" x1="131.69" y1="194.19" x2="131.69" y2="183.69"/><line class="cls-69" x1="131.69" y1="166.55" x2="131.69" y2="140.83"/><line class="cls-70" x1="131.69" y1="132.26" x2="131.69" y2="121.76"/></g><g><line class="cls-70" x1="153.26" y1="194.19" x2="153.26" y2="183.69"/><line class="cls-69" x1="153.26" y1="166.55" x2="153.26" y2="140.83"/><line class="cls-70" x1="153.26" y1="132.26" x2="153.26" y2="121.76"/></g><g><line class="cls-70" x1="174.84" y1="194.19" x2="174.84" y2="183.69"/><line class="cls-69" x1="174.84" y1="166.55" x2="174.84" y2="140.83"/><line class="cls-70" x1="174.84" y1="132.26" x2="174.84" y2="121.76"/></g><g><line class="cls-70" x1="196.42" y1="194.19" x2="196.42" y2="183.69"/><line class="cls-69" x1="196.42" y1="166.55" x2="196.42" y2="140.83"/><line class="cls-70" x1="196.42" y1="132.26" x2="196.42" y2="121.76"/></g><g><line class="cls-70" x1="217.99" y1="194.19" x2="217.99" y2="183.69"/><line class="cls-69" x1="217.99" y1="166.55" x2="217.99" y2="140.83"/><line class="cls-70" x1="217.99" y1="132.26" x2="217.99" y2="121.76"/></g><g><line class="cls-70" x1="239.57" y1="194.19" x2="239.57" y2="183.69"/><line class="cls-69" x1="239.57" y1="166.55" x2="239.57" y2="140.83"/><line class="cls-70" x1="239.57" y1="132.26" x2="239.57" y2="121.76"/></g><g><line class="cls-70" x1="261.14" y1="194.19" x2="261.14" y2="183.69"/><line class="cls-69" x1="261.14" y1="166.55" x2="261.14" y2="140.83"/><line class="cls-70" x1="261.14" y1="132.26" x2="261.14" y2="121.76"/></g></g><path class="cls-84" d="M116.09,169.39c-.24,0-.46-.17-.5-.41-.06-.28,.13-.55,.4-.6,3.25-.65,6.36-1.71,9.25-3.17,1.77-.89,2.97-1.68,4.03-2.38,1.55-1.02,2.78-1.83,4.93-2.41,1.73-.47,4.17-.76,10.24,.25,4.53,.75,7.39,1.62,9.91,2.39,1.15,.35,2.24,.68,3.37,.96,9.04,2.25,17.05,.43,22.9-.9,3.57-.81,5.3-1.54,7.5-2.46,2.24-.94,5.02-2.11,10.73-3.7,4.63-1.29,9.62-2.4,14.45-3.23,5.87-1,9.58-1.25,13.16-1.48,2.64-.17,5.37-.35,8.97-.84,6.78-.91,13.67-2.5,20.47-4.73,.27-.09,.56,.06,.65,.33,.09,.27-.06,.56-.33,.65-6.86,2.25-13.81,3.86-20.66,4.78-3.63,.49-6.38,.67-9.04,.84-3.55,.23-7.23,.48-13.05,1.47-4.79,.82-9.75,1.92-14.34,3.2-5.65,1.57-8.29,2.68-10.61,3.66-2.15,.9-4.01,1.68-7.67,2.52-5.95,1.35-14.09,3.21-23.38,.9-1.16-.29-2.26-.62-3.42-.98-2.49-.76-5.32-1.62-9.78-2.36-5.88-.98-8.19-.71-9.81-.27-2,.54-3.16,1.31-4.63,2.28-1.08,.71-2.31,1.52-4.14,2.44-2.98,1.5-6.18,2.6-9.51,3.26-.03,0-.07,0-.1,0Z"/><g><g><path class="cls-59" d="M159.65,171.49c-2.51,0-4.93-.54-6.83-.96-1.22-.27-1.68-.46-2.9-.98-1.21-.51-3.24-1.37-7.65-2.99-4.39-1.62-6.35-2.23-8.74-2.73-4.59-.96-6.85-.7-8.31-.37-1.46,.33-2.93,.91-4.25,1.68-1.74,1.01-3.25,2.34-4.48,3.95-.19,.24-.53,.29-.77,.1-.24-.19-.29-.53-.1-.77,1.32-1.72,2.94-3.14,4.8-4.23,1.42-.83,3-1.45,4.56-1.81,1.57-.36,3.98-.64,8.78,.37,2.45,.51,4.44,1.13,8.9,2.78,4.43,1.63,6.47,2.5,7.69,3.01,1.22,.51,1.58,.67,2.71,.92,3.59,.8,8.5,1.9,12.54-.58,2.51-1.54,3.82-3.96,6.42-8.79,1.31-2.44,2.85-5.86,3.29-6.85,.22-.5,.42-.96,.61-1.38,.88-2.01,1.45-3.34,2.66-5.05,1.45-2.06,2.6-3.68,4.64-4.17,2.91-.69,5.51,1.35,6,1.77,1.32,1.12,1.67,2.18,2.3,4.09,.4,1.2,.89,2.7,1.8,4.84,1.57,3.68,2.64,5.14,3.4,6.01,1.31,1.51,2.67,3.06,4.47,3.12,1.97,.06,3.6-1.75,5.18-3.49,.82-.91,1.17-1.49,1.88-2.65,.42-.69,.94-1.55,1.74-2.79,1.7-2.62,2.55-3.93,3.62-5.2,1.12-1.33,3.45-4.09,7.43-6.11,1.38-.7,3.95-2,7.39-2.17,3.31-.16,5.71,.81,9.7,2.43,1.5,.61,3.22,1.38,9.06,4.62,2.66,1.48,5.32,2.99,7.91,4.51,.26,.15,.35,.49,.2,.75-.15,.26-.49,.35-.75,.2-2.58-1.51-5.24-3.02-7.89-4.49-5.78-3.21-7.47-3.97-8.94-4.56-4.27-1.73-6.29-2.49-9.23-2.35-3.2,.16-5.54,1.34-6.94,2.05-3.78,1.92-6.01,4.56-7.08,5.83-1.03,1.22-1.87,2.51-3.54,5.09-.79,1.22-1.31,2.08-1.73,2.76-.72,1.18-1.11,1.84-2,2.82-1.71,1.9-3.48,3.86-5.89,3.86-.05,0-.09,0-.14,0-2.28-.07-3.86-1.89-5.27-3.5-.81-.93-1.95-2.48-3.58-6.3-.93-2.18-1.46-3.77-1.84-4.93-.6-1.84-.88-2.68-1.96-3.6-.26-.22-2.58-2.12-5.03-1.54-1.56,.37-2.49,1.6-3.99,3.73-1.14,1.62-1.67,2.84-2.55,4.85-.19,.43-.39,.89-.61,1.39-.44,1-2,4.46-3.33,6.93-2.69,5.01-4.04,7.52-6.81,9.21-2.06,1.26-4.33,1.67-6.53,1.67Z"/><g><circle class="cls-10" cx="119.55" cy="165.27" r="7.53"/><circle class="cls-59" cx="119.55" cy="165.27" r="2.3"/></g></g><g><rect class="cls-59" x="104.53" y="140.78" width="31.41" height="14.24" rx="7.09" ry="7.09"/><text class="cls-14" transform="translate(111.55 149.35)"><tspan class="cls-24" x="0" y="0">-</tspan><tspan class="cls-99" x="1.94" y="0">₹</tspan><tspan class="cls-24" x="4.53" y="0">6784</tspan></text></g></g><g><rect class="cls-84" x="169.15" y="172.85" width="31.41" height="14.24" rx="7.09" ry="7.09"/><text class="cls-22" transform="translate(176.17 181.41)"><tspan class="cls-24" x="0" y="0">-</tspan><tspan class="cls-99" x="1.94" y="0">₹</tspan><tspan class="cls-27" x="4.53" y="0">5985</tspan></text></g><g><circle class="cls-10" cx="184.08" cy="162.61" r="7.53"/><circle class="cls-84" cx="184.08" cy="162.61" r="2.3"/></g></g></g><g><text class="cls-44" transform="translate(172.71 113.13)"><tspan x="0" y="0">E</tspan><tspan class="cls-95" x="3.09" y="0">x</tspan><tspan x="6.22" y="0">p</tspan><tspan class="cls-61" x="9.89" y="0">e</tspan><tspan x="13.08" y="0">n</tspan><tspan class="cls-95" x="16.45" y="0">s</tspan><tspan x="19.3" y="0">e</tspan></text><g><text class="cls-47" transform="translate(236.16 112.95)"><tspan class="cls-88" x="0" y="0">W</tspan><tspan x="4.72" y="0">eek</tspan><tspan class="cls-57" x="13.3" y="0">l</tspan><tspan x="14.54" y="0">y</tspan></text><polygon class="cls-59" points="261.8 112.74 259.01 109.94 261.8 109.94 264.59 109.94 261.8 112.74"/></g></g><text class="cls-47" transform="translate(164.53 217.7)"><tspan x="0" y="0">O</tspan><tspan class="cls-62" x="4.12" y="0">ve</tspan><tspan class="cls-78" x="9.44" y="0">r</tspan><tspan class="cls-57" x="11.41" y="0">al</tspan><tspan class="cls-101" x="15.87" y="0">l E</tspan><tspan class="cls-57" x="21.62" y="0">x</tspan><tspan class="cls-33" x="24.4" y="0">p</tspan><tspan class="cls-115" x="27.66" y="0">e</tspan><tspan x="30.49" y="0">n</tspan><tspan class="cls-57" x="33.5" y="0">s</tspan><tspan class="cls-101" x="36.03" y="0">e</tspan></text></g></g><g><g><rect class="cls-11" x="94.74" y="238.39" width="55.99" height="15.61" rx="7.78" ry="7.78"/><g><text class="cls-52" transform="translate(112.36 248.16)"><tspan class="cls-34" x="0" y="0">Ad</tspan><tspan x="8.05" y="0">d B</tspan><tspan class="cls-18" x="17.75" y="0">a</tspan><tspan x="21.62" y="0">nk</tspan></text><path class="cls-93" d="M108.99,246.44h-1.82v1.82h-.77v-1.82h-1.82v-.77h1.82v-1.82h.77v1.82h1.82v.77Z"/></g></g><g><rect class="cls-35" x="156" y="238.39" width="55.99" height="15.61" rx="7.78" ry="7.78"/><g><text class="cls-17" transform="translate(170.5 248.16)"><tspan class="cls-23" x="0" y="0">Ad</tspan><tspan x="8.05" y="0">d In</tspan><tspan class="cls-110" x="19.2" y="0">co</tspan><tspan x="25.91" y="0">me</tspan></text><path class="cls-9" d="M167.13,246.44h-1.82v1.82h-.77v-1.82h-1.82v-.77h1.82v-1.82h.77v1.82h1.82v.77Z"/></g></g><g><rect class="cls-81" x="217.27" y="238.39" width="55.99" height="15.61" rx="7.78" ry="7.78"/><g><text class="cls-17" transform="translate(230.06 248.16)"><tspan class="cls-23" x="0" y="0">Ad</tspan><tspan x="8.05" y="0">d E</tspan><tspan class="cls-34" x="17.34" y="0">x</tspan><tspan x="20.69" y="0">p</tspan><tspan class="cls-105" x="24.62" y="0">e</tspan><tspan class="cls-107" x="28.02" y="0">n</tspan><tspan class="cls-34" x="31.64" y="0">s</tspan><tspan class="cls-80" x="34.68" y="0">e</tspan></text><path class="cls-9" d="M226.69,246.44h-1.82v1.82h-.77v-1.82h-1.82v-.77h1.82v-1.82h.77v1.82h1.82v.77Z"/></g></g></g><g><rect class="cls-12" x="92.55" y="269.2" width="180.67" height="122.83" rx="10" ry="10"/><g><g><g><text class="cls-53" transform="translate(108.59 295.19)"><tspan x="0" y="0">A</tspan><tspan class="cls-86" x="3.08" y="0">l</tspan><tspan x="4.17" y="0">l E</tspan><tspan class="cls-92" x="9.19" y="0">x</tspan><tspan x="11.63" y="0">p</tspan><tspan class="cls-32" x="14.49" y="0">e</tspan><tspan x="16.96" y="0">n</tspan><tspan class="cls-86" x="19.59" y="0">s</tspan><tspan x="21.8" y="0">es</tspan></text><text class="cls-53" transform="translate(243.29 296.53)"><tspan x="0" y="0">Am</tspan><tspan class="cls-38" x="6.98" y="0">o</tspan><tspan class="cls-92" x="9.61" y="0">un</tspan><tspan class="cls-103" x="14.79" y="0">t</tspan></text></g><g><text class="cls-28" transform="translate(108.59 284.6)"><tspan x="0" y="0">EX</tspan><tspan class="cls-100" x="6.05" y="0">P</tspan><tspan x="8.92" y="0">ENSE SUM</tspan><tspan class="cls-31" x="32.82" y="0">M</tspan><tspan x="37.16" y="0">A</tspan><tspan class="cls-67" x="40.51" y="0">R</tspan><tspan x="43.38" y="0">Y</tspan></text><text class="cls-54" transform="translate(243.48 284.59)"><tspan class="cls-30" x="0" y="0">V</tspan><tspan class="cls-38" x="2.89" y="0">ie</tspan><tspan x="6.42" y="0">w A</tspan><tspan class="cls-92" x="14.52" y="0">l</tspan><tspan x="15.61" y="0">l</tspan></text></g></g><g><g><g><text class="cls-6" transform="translate(144.38 312.6)"><tspan x="0" y="0">P</tspan><tspan class="cls-89" x="3.97" y="0">e</tspan><tspan class="cls-77" x="7.61" y="0">t</tspan><tspan class="cls-68" x="10.08" y="0">ro</tspan><tspan class="cls-29" x="16.73" y="0">l</tspan></text><text class="cls-49" transform="translate(144.38 317.96)"><tspan x="0" y="0">May 06, 2022 / 08.00 PM</tspan></text></g><text class="cls-3" transform="translate(238.38 314.98)"><tspan class="cls-99" x="0" y="0">₹</tspan><tspan class="cls-24" x="3.44" y="0">38.70</tspan></text><g><circle class="cls-113" cx="112.87" cy="313.2" r="6.43"/><g><path class="cls-63" d="M109.15,317.08c-.13-.06-.17-.16-.17-.31,0-.44,0-.88,0-1.31,0-.33,.11-.61,.35-.84,.07-.07,.15-.14,.23-.22-.09-.09-.17-.17-.25-.25-.12-.12-.12-.25,0-.37,.4-.4,.79-.79,1.19-1.19,.04-.04,.05-.07,.02-.12-.07-.1-.12-.2-.18-.3-.07-.11-.05-.21,.04-.3,.31-.32,.63-.63,.94-.94,.11-.1,.24-.1,.34,0,.08,.08,.17,.16,.25,.24h.02c.11-.1,.22-.21,.33-.32,.15-.15,.26-.15,.41,0,.33,.33,.66,.66,.99,.99,.06,.06,.09,.12,.11,.2,.07,.4,.13,.8,.2,1.2,.02,.12-.01,.2-.09,.29-.59,.59-1.18,1.18-1.77,1.76-.47,.47-1.17,.47-1.65,0-.17-.17-.34-.34-.51-.51-.02-.02-.04-.04-.07-.07-.11,.12-.22,.23-.32,.36-.09,.11-.11,.25-.11,.39,0,.44,0,.88,0,1.32,0,.14-.04,.25-.17,.31h-.12Zm2.32-3.08l-.84,.84s.09,.08,.13,.12c.3,.3,.71,.3,1.01,0,.26-.26,.51-.51,.77-.77,.02-.02,.03-.04,.06-.06l-.67-.34c0,.17,0,.32,0,.47,0,.15-.1,.25-.23,.25-.13,0-.23-.11-.23-.25,0-.09,0-.17,0-.26Z"/><path class="cls-114" d="M116.75,313.15s-.02,.09-.04,.14c-.12,.39-.52,.65-.9,.58-.43-.07-.74-.41-.73-.83,0-.18,.07-.34,.15-.49,.16-.28,.32-.57,.5-.84,.09-.14,.28-.15,.37-.01,.23,.33,.44,.67,.59,1.05,.03,.07,.04,.14,.07,.21v.2Z"/><path class="cls-114" d="M113.89,311.42l-.81-.81h0c.27-.26,.52-.54,.8-.77,.43-.35,.93-.51,1.49-.52,.14,0,.28,0,.42,0,.14,0,.24,.1,.24,.24,0,.22,0,.44,0,.66,0,.15-.1,.24-.24,.24-.21,0-.43,0-.63,.03-.28,.04-.52,.18-.72,.37-.17,.17-.33,.33-.5,.5-.02,.02-.03,.04-.05,.07Z"/></g></g></g><g><g><text class="cls-6" transform="translate(144.38 332.6)"><tspan x="0" y="0">G</tspan><tspan class="cls-89" x="5.04" y="0">r</tspan><tspan x="7.83" y="0">o</tspan><tspan class="cls-89" x="11.79" y="0">ce</tspan><tspan class="cls-1" x="18.76" y="0">r</tspan><tspan class="cls-68" x="21.6" y="0">i</tspan><tspan class="cls-29" x="23.21" y="0">es</tspan></text><text class="cls-49" transform="translate(144.38 337.96)"><tspan x="0" y="0">May 05, 2022 / 09.00 PM</tspan></text></g><text class="cls-3" transform="translate(239.77 334.97)"><tspan class="cls-99" x="0" y="0">₹</tspan><tspan class="cls-24" x="3.44" y="0">17.29</tspan></text><g><circle class="cls-113" cx="112.87" cy="333.19" r="6.43"/><g><path class="cls-63" d="M112.87,332.6c1.12,0,2.24,0,3.35,0,.07,0,.13,0,.19,.02,.16,.05,.27,.21,.27,.37,0,.17-.12,.32-.29,.36-.06,.01-.07,.04-.08,.09-.15,.84-.3,1.68-.46,2.51-.05,.28-.24,.43-.52,.44-.9,0-1.79,0-2.69,0-.73,0-1.46,0-2.2,0-.32,0-.5-.14-.56-.46-.15-.83-.3-1.66-.45-2.49,0-.05-.03-.08-.08-.09-.18-.04-.31-.21-.29-.39,.01-.19,.15-.34,.34-.36,.04,0,.09,0,.13,0,1.11,0,2.23,0,3.34,0Zm-2.62,1.61s0,.03,0,.05c.08,.44,.16,.88,.24,1.31,.02,.11,.1,.17,.19,.16,.1-.02,.15-.11,.13-.23-.05-.29-.1-.58-.16-.87-.03-.16-.05-.31-.09-.47-.02-.09-.09-.14-.18-.13-.08,0-.14,.08-.14,.17Zm5.24,.02c0-.11-.05-.18-.12-.19-.08-.02-.16,.02-.19,.1,0,.02-.01,.04-.02,.06-.08,.44-.16,.87-.24,1.31-.02,.11,.03,.2,.13,.22,.09,.02,.17-.04,.19-.16,.05-.26,.1-.53,.15-.79,.03-.19,.07-.38,.1-.55Zm-1.31,1.31c0,.1,.05,.16,.13,.18,.1,.02,.19-.05,.2-.18,.02-.17,.04-.34,.06-.51,.03-.27,.07-.54,.1-.81,0-.07-.02-.14-.09-.17-.06-.03-.13-.03-.17,.02-.04,.04-.06,.1-.07,.16-.02,.12-.03,.24-.05,.37-.04,.32-.08,.64-.11,.95Zm-2.61,0c-.05-.45-.11-.91-.17-1.37-.01-.1-.09-.15-.19-.14-.09,.01-.15,.09-.13,.2,.03,.25,.06,.51,.09,.76,.02,.2,.05,.4,.08,.59,.01,.09,.09,.15,.17,.14,.09,0,.15-.08,.15-.19Zm2.25-.67c.01-.21,.03-.42,.04-.63,0-.12-.05-.2-.15-.21-.1,0-.17,.06-.18,.18-.01,.2-.03,.39-.04,.59-.01,.25-.03,.49-.04,.74,0,.1,.04,.16,.13,.18,.1,.02,.19-.05,.2-.18,.01-.22,.03-.45,.04-.67Zm-1.89,0c.01,.23,.03,.45,.04,.68,0,.11,.08,.18,.18,.18,.1,0,.16-.08,.15-.19-.02-.44-.05-.89-.08-1.33,0-.12-.08-.19-.18-.18-.1,0-.16,.09-.15,.21,.01,.21,.03,.42,.04,.63Zm1.11,.01c0-.22,0-.44,0-.66,0-.04,0-.09-.03-.12-.04-.07-.11-.08-.18-.06-.07,.02-.12,.08-.12,.18,0,.44,0,.88,0,1.31,0,.12,.07,.2,.17,.2,.1,0,.16-.08,.16-.2,0-.22,0-.43,0-.65Z"/><path class="cls-114" d="M111.48,332.27h-.11c-.5,0-1,0-1.5,0-.07,0-.1-.01-.09-.08,0-.07-.01-.13-.01-.2,0-.25,.06-.47,.29-.61-.1-.05-.19-.09-.28-.15-.25-.17-.41-.41-.51-.69-.03-.06,0-.1,.07-.09,.19,.02,.37,.05,.56,.08,.03,0,.05,.01,.07,.02,.04-.13,.06-.25,.1-.37,.06-.18,.09-.19,.22-.05,.09,.1,.16,.2,.24,.29,.12-.08,.24-.17,.37-.25,.06-.04,.12-.06,.19-.09,.07-.03,.1,0,.1,.06,0,.39-.08,.76-.37,1.04,0,0-.02,.02-.03,.04,.27,.04,.42,.21,.51,.44,.07,.19,.12,.39,.19,.61Z"/><path class="cls-114" d="M113.88,332.27h-2.04c.02-.19,.03-.37,.05-.55,0-.06,0-.12,.02-.18,.05-.23,.26-.37,.49-.35,.36,.03,.72,.06,1.08,.09,.27,.02,.45,.22,.44,.49,0,.17-.03,.33-.04,.5Z"/><path class="cls-114" d="M114.27,332.26c.08-.06,.17-.12,.24-.2,.12-.12,.16-.28,.17-.44,.02-.17,.04-.34,.07-.51l.76,.1c-.02,.15-.03,.3-.06,.44-.04,.21-.05,.41,.08,.61h-1.27Z"/><path class="cls-114" d="M114.92,329.98c.24,.03,.5,.06,.76,.1,.09,.01,.14,.09,.13,.18-.02,.16-.04,.32-.06,.48-.01,.09-.09,.15-.18,.14-.26-.03-.52-.06-.77-.1-.09-.01-.14-.09-.13-.18,.02-.16,.04-.33,.06-.49,.01-.09,.08-.13,.19-.13Z"/><path class="cls-114" d="M113.56,330.95l-1.11-.09c.01-.13,.02-.26,.03-.38,0-.02,0-.04,0-.06,.02-.21,.09-.28,.3-.26,.2,.01,.4,.03,.61,.05,.13,.01,.21,.1,.21,.24-.01,.16-.03,.33-.04,.5Z"/></g></g></g><g><g><text class="cls-6" transform="translate(144.38 352.59)"><tspan x="0" y="0">E</tspan><tspan class="cls-56" x="3.54" y="0">d</tspan><tspan class="cls-89" x="7.67" y="0">uc</tspan><tspan x="14.74" y="0">at</tspan><tspan class="cls-68" x="21.39" y="0">io</tspan><tspan class="cls-90" x="26.86" y="0">n</tspan></text><text class="cls-49" transform="translate(144.38 357.95)"><tspan x="0" y="0">May 04, 2022 / 08.00 PM</tspan></text></g><text class="cls-3" transform="translate(229 354.97)"><tspan class="cls-99" x="0" y="0">₹</tspan><tspan class="cls-24" x="3.44" y="0">5,000.00</tspan></text><g><circle class="cls-113" cx="112.87" cy="353.18" r="6.43"/><g><path class="cls-63" d="M108.94,353.52s.02-.08,.03-.13c.11-.6,.61-1.08,1.22-1.17,.04,0,.07-.01,.12-.02-.29-.04-.51-.15-.68-.36-.17-.21-.25-.45-.23-.72,.04-.49,.44-.88,.93-.92,.49-.03,.93,.3,1.05,.77,.1,.41-.11,1.09-.83,1.23,.31-.02,.59,.09,.86,.23,.4,.2,.8,.4,1.19,.59,.02,0,.04,.02,.06,.03,.02-.04,.04-.07,.05-.1,.14-.29,.28-.57,.43-.86,.05-.1,.14-.15,.24-.14,.09,.01,.18,.08,.19,.17,0,.06,0,.14-.03,.2-.17,.35-.35,.7-.52,1.04-.02,.04-.02,.09-.02,.13,.03,.23-.03,.42-.2,.57-.18,.16-.39,.21-.61,.12-.22-.08-.42-.2-.63-.3-.06-.03-.12-.06-.19-.09,0,.04,0,.07,0,.1,0,.81,0,1.61,0,2.42,0,.06,0,.11-.03,.16-.04,.09-.12,.13-.21,.13-.49,0-.98,0-1.47,0-.15,0-.24-.1-.24-.25,0-.4,0-.8,0-1.2,0-.04,0-.07-.05-.09-.23-.1-.37-.27-.43-.51,0-.02-.01-.04-.02-.07v-.98Z"/><path class="cls-114" d="M114.91,353.9s.02,.07,.03,.09c.28,.76,.56,1.51,.83,2.27,.02,.05,.03,.12,.02,.17-.01,.1-.09,.17-.19,.18-.09,.01-.18-.03-.22-.12-.02-.04-.04-.09-.06-.14-.29-.79-.58-1.59-.87-2.38-.02-.07-.06-.07-.12-.07-.06,0-.08,.03-.1,.08-.29,.81-.59,1.63-.89,2.44-.02,.06-.06,.12-.11,.16-.07,.06-.18,.05-.25,0-.08-.06-.12-.15-.09-.25,.08-.24,.17-.48,.26-.71,.2-.54,.39-1.08,.59-1.62,0-.03,.02-.05,.03-.09h-.31c0-.14,.01-.26,.02-.39,0-.02,.02-.04,.03-.06,.15-.31,.31-.61,.46-.92,.13-.26,.12-.52-.06-.76-.27-.37-.87-.35-1.11,.04-.11,.18-.2,.37-.29,.56l-.04,.08c-.18-.09-.35-.17-.52-.26-.02,0-.04-.04-.04-.06,0-.55,0-1.11,0-1.66,0-.42,.32-.72,.76-.72,1.13,0,2.25,0,3.38,0,.07,0,.15,0,.22,.03,.33,.09,.54,.35,.54,.7,0,.9,0,1.81,0,2.71,0,.42-.32,.72-.74,.73-.35,0-.7,0-1.04,0-.03,0-.05,0-.09,0Zm-.58-2.71c.07,0,.14,0,.21,0,.34,0,.69,0,1.03,0,.13,0,.22-.09,.23-.22,0-.12-.08-.22-.2-.24-.03,0-.06,0-.09,0-.71,0-1.42,0-2.13,0-.09,0-.17,0-.26,0-.1,0-.18,.05-.22,.15-.06,.16,.05,.31,.23,.31,.4,0,.81,0,1.21,0Zm.72,1.73c.16,0,.32,0,.47,0,.04,0,.07,0,.11-.01,.11-.03,.18-.13,.17-.24-.01-.11-.1-.2-.21-.21-.36,0-.71,0-1.07,0-.1,0-.19,.08-.2,.19-.02,.15,.08,.27,.24,.27,.17,0,.33,0,.5,0Zm0-1.32h0c-.17,0-.33,0-.5,0-.15,0-.25,.1-.25,.23,0,.13,.1,.23,.24,.23,.1,0,.2,0,.3,0,.23,0,.46,0,.68,0,.06,0,.14-.02,.19-.06,.08-.06,.09-.14,.06-.24-.03-.09-.1-.15-.2-.15-.18,0-.36,0-.54,0Z"/></g></g></g><g><g><text class="cls-6" transform="translate(144.38 372.58)"><tspan class="cls-66" x="0" y="0">R</tspan><tspan class="cls-89" x="3.86" y="0">e</tspan><tspan class="cls-56" x="7.51" y="0">n</tspan><tspan class="cls-77" x="11.31" y="0">t</tspan></text><text class="cls-49" transform="translate(144.38 377.94)"><tspan x="0" y="0">May 03, 2022 / 09.00 PM</tspan></text></g><text class="cls-3" transform="translate(235.75 374.96)"><tspan class="cls-99" x="0" y="0">₹</tspan><tspan class="cls-24" x="3.44" y="0">250.00</tspan></text><g><ellipse class="cls-113" cx="112.85" cy="373.18" rx="6.42" ry="6.43"/><g><path class="cls-63" d="M110.67,371.61c0,.1-.09,.19-.2,.18-.11,0-.19-.1-.19-.2,0-.1,.09-.18,.2-.18,.1,0,.19,.09,.19,.2Zm5.99,1.89c-.05-.05-.1-.11-.15-.16-.67-.67-1.35-1.34-2.02-2-.1-.1-.21-.17-.35-.19-.39-.04-.79-.07-1.18-.11-.07,0-.1-.03-.13-.09-.17-.46-.62-.77-1.1-.79-.48-.01-.94,.27-1.14,.7l.24,.08-.08,.24c.11,.04,.2,.11,.25,.22,.08,.16,.08,.32-.04,.47-.12,.15-.27,.2-.46,.16-.18-.04-.3-.16-.34-.35-.04-.21,.06-.41,.26-.48,.05-.02,.06-.04,.07-.09,.02-.08,.05-.17,.07-.25-.09,0-.19-.01-.28,0-.5,.09-.84,.37-.99,.85-.15,.48-.03,.91,.35,1.25,.04,.04,.05,.07,.04,.12-.08,.28-.15,.56-.22,.84-.01,.05,0,.1,.01,.15,.03,.09,.07,.17,.11,.25,.02,.05,.01,.09-.03,.11-.06,.04-.12,.08-.18,.12-.06,.04-.08,.08-.04,.14,.03,.06,.06,.13,.09,.19,.02,.05,.01,.08-.03,.11-.06,.04-.12,.08-.19,.12-.05,.03-.06,.07-.03,.12,.03,.07,.06,.13,.1,.2,.02,.05,.01,.09-.04,.11-.06,.03-.11,.06-.16,.09-.05,.03-.06,.06-.03,.12,.07,.12,.13,.24,.2,.36,.04,.08,.07,.08,.14,.04,.12-.07,.24-.15,.37-.21,.07-.04,.1-.09,.12-.16,.23-.8,.46-1.6,.69-2.4,.01-.04,.03-.08,.08-.09,.41-.07,.68-.32,.88-.67,.01-.02,.02-.04,.03-.07h-.05c-.21-.04-.4-.12-.56-.24-.05-.04-.07-.09-.05-.15,.02-.06,.08-.09,.14-.08,.04,0,.07,.02,.11,.04,.16,.11,.33,.17,.52,.17,.06-.15,.05-.44-.03-.65-.14-.38-.4-.62-.78-.75,.13-.31,.52-.52,.92-.5,.35,.02,.72,.3,.81,.61-.01,0-.03,.01-.04,.02-.23,.07-.39,.26-.4,.5,0,.19,.02,.39,.04,.58,0,.05,0,.08-.05,.09-.13,.04-.25,.07-.38,.1-.02,0-.06,0-.07,.02-.04,.07-.07,.15-.1,.23,.23,.02,.43-.02,.63-.1,.02,.18,.04,.34,.04,.51,0,.16,.08,.28,.19,.39,.7,.69,1.4,1.39,2.1,2.08,.1,.1,.16,.1,.26,0,.27-.27,.54-.54,.82-.81,.35-.34,.69-.69,1.04-1.03v-.09Zm-2.34,.43s-.02-.1,.02-.14c.08-.08,.17-.17,.25-.25,.11-.11,.23-.23,.34-.34,.07-.07,.14-.08,.2-.02,.06,.06,.05,.13-.02,.2-.19,.19-.38,.38-.58,.57-.03,.03-.07,.04-.11,.07-.04-.03-.08-.06-.11-.09Zm.12-1.42s.02,.1-.02,.14c-.07,.08-.15,.15-.23,.23-.12,.12-.24,.24-.36,.36-.07,.07-.15,.08-.2,.02-.05-.05-.04-.13,.02-.2,.19-.19,.38-.38,.57-.57,.03-.03,.07-.05,.11-.08,.04,.03,.08,.06,.11,.09Z"/><path class="cls-114" d="M116.51,373.34c-.67-.67-1.35-1.34-2.02-2-.1-.1-.21-.17-.35-.19-.39-.04-.79-.07-1.18-.11-.02,0-.03,0-.05,0-.05,0-.1,0-.15,0-.07,0-.13,0-.2,0h-.02c-.23,.08-.39,.27-.4,.51,0,.19,.02,.39,.04,.58,0,.02,0,.04,0,.05,0,.02,.01,.04,.01,.07,0,.04,0,.08,0,.12v.03h0s.01,.04,.01,.04c.01,.03,.01,.06,0,.09,.01,.15,.03,.3,.04,.45,0,.16,.08,.28,.19,.39,.7,.69,1.4,1.39,2.1,2.08,.1,.1,.16,.1,.26,0,.27-.27,.54-.54,.82-.81,.35-.34,.69-.69,1.04-1.03v-.09c-.05-.05-.1-.11-.15-.16Zm-2.69-.1c-.07,.07-.15,.08-.2,.02-.05-.05-.04-.13,.02-.2,.19-.19,.38-.38,.57-.57,.03-.03,.07-.05,.11-.08,.04,.03,.08,.06,.11,.09,.03,.05,.02,.1-.02,.14-.07,.08-.15,.15-.23,.23-.12,.12-.24,.24-.36,.36Zm1.29,.14c-.19,.19-.38,.38-.58,.57-.03,.03-.07,.04-.11,.07-.04-.03-.08-.06-.11-.09-.03-.05-.02-.1,.02-.14,.08-.08,.17-.17,.25-.25,.11-.11,.23-.23,.34-.34,.07-.07,.14-.08,.2-.02,.06,.06,.05,.13-.02,.2Z"/></g></g></g></g></g></g><g><rect class="cls-16" x="92.55" y="458.45" width="180.67" height="83.02" rx="10" ry="10"/><g><g><g><text class="cls-53" transform="translate(108.59 484.44)"><tspan x="0" y="0">A</tspan><tspan class="cls-86" x="3.08" y="0">l</tspan><tspan x="4.17" y="0">l C</tspan><tspan class="cls-87" x="9.79" y="0">r</tspan><tspan x="11.52" y="0">e</tspan><tspan class="cls-86" x="14.07" y="0">d</tspan><tspan x="16.89" y="0">its</tspan></text><text class="cls-53" transform="translate(243.29 485.78)"><tspan x="0" y="0">Am</tspan><tspan class="cls-38" x="6.98" y="0">o</tspan><tspan class="cls-92" x="9.61" y="0">un</tspan><tspan class="cls-103" x="14.79" y="0">t</tspan></text></g><g><text class="cls-28" transform="translate(108.59 473.85)"><tspan class="cls-39" x="0" y="0">CR</tspan><tspan x="6.13" y="0">E</tspan><tspan class="cls-39" x="8.76" y="0">D</tspan><tspan x="12.07" y="0">I</tspan><tspan class="cls-111" x="13.34" y="0">T</tspan><tspan class="cls-109" x="15.89" y="0">O</tspan><tspan x="19.68" y="0">R SUM</tspan><tspan class="cls-19" x="34.73" y="0">M</tspan><tspan class="cls-102" x="39.07" y="0">A</tspan><tspan class="cls-67" x="42.42" y="0">R</tspan><tspan x="45.29" y="0">Y</tspan></text><text class="cls-54" transform="translate(243.48 473.84)"><tspan class="cls-30" x="0" y="0">V</tspan><tspan class="cls-38" x="2.89" y="0">ie</tspan><tspan x="6.42" y="0">w A</tspan><tspan class="cls-92" x="14.52" y="0">l</tspan><tspan x="15.61" y="0">l</tspan></text></g></g><g><g><g><text transform="translate(144.38 501.45)"><tspan><tspan class="cls-6" x="0" y="0">P</tspan><tspan class="cls-2" x="3.97" y="0">i</tspan><tspan class="cls-4" x="5.63" y="0">nky </tspan><tspan class="cls-45" x="18.82" y="0">(D</tspan><tspan class="cls-51" x="23.06" y="0">e</tspan><tspan class="cls-41" x="25.4" y="0">b</tspan><tspan class="cls-48" x="28.05" y="0">it)</tspan></tspan></text><text class="cls-49" transform="translate(144.38 506.81)"><tspan x="0" y="0">May 06, 2022 / 08.00 PM</tspan></text></g><text class="cls-7" transform="translate(235.1 503.83)"><tspan class="cls-99" x="0" y="0">₹</tspan><tspan class="cls-24" x="3.44" y="0">10,000</tspan></text><g><g><path class="cls-84" d="M117.96,499.02v1.5c-.31,0-.63,0-.94,0-.64,0-1.28,0-1.92,0-1.12,0-1.86,1.1-1.45,2.12,.24,.59,.8,.96,1.47,.96,.95,0,1.89,0,2.84,0v1.5s-.01,.02-.02,.04c-.07,.66-.66,1.34-1.58,1.34-2.5,0-5.01,0-7.51,0-.18,0-.37-.03-.54-.08-.64-.21-1.05-.79-1.05-1.48,0-1.16,0-2.33,0-3.49,0-.74,0-1.49,0-2.23,0-.83,.61-1.49,1.43-1.54,.46-.03,.92-.01,1.38-.01,2.09,0,4.18,0,6.28,0,.68,0,1.17,.3,1.47,.92,.07,.14,.09,.3,.14,.46Z"/><path class="cls-59" d="M117.96,501.15v1.84c-.99,0-1.98,0-2.96,0h-.02c-.62-.06-1.01-.78-.72-1.33,.19-.35,.48-.51,.88-.51,.73,0,1.47,0,2.2,0,.21,0,.42,0,.63,0Zm-2.67,1.23c.07,0,.14,0,.21,0,.18-.01,.3-.14,.3-.31,0-.17-.13-.3-.31-.31-.14,0-.28,0-.42,0-.18,0-.3,.14-.3,.31,0,.17,.13,.3,.31,.31,.07,0,.14,0,.21,0Z"/></g><path class="cls-82" d="M110.75,500.28l1.63,1.63c.07,.07,.07,.18,0,.25h0c-.07,.07-.18,.07-.25,0l-1.03-1.03c-.11-.11-.3-.03-.3,.12v2.49c0,.1-.08,.17-.17,.17h0c-.1,0-.17-.08-.17-.17v-2.49c0-.16-.19-.23-.3-.12l-1.03,1.03c-.07,.07-.18,.07-.25,0h0c-.07-.07-.07-.18,0-.25l1.63-1.63c.07-.07,.18-.07,.25,0Z"/></g></g><g><g><text transform="translate(145.07 521.63)"><tspan><tspan class="cls-6" x="0" y="0">J</tspan><tspan class="cls-8" x="3.11" y="0">aco</tspan><tspan class="cls-6" x="14.37" y="0">b </tspan><tspan class="cls-48" x="20.59" y="0">(C</tspan><tspan class="cls-50" x="24.76" y="0">r</tspan><tspan class="cls-43" x="26.39" y="0">e</tspan><tspan class="cls-42" x="28.79" y="0">d</tspan><tspan class="cls-48" x="31.45" y="0">it)</tspan></tspan></text><text class="cls-49" transform="translate(145.07 526.99)"><tspan x="0" y="0">May 05, 2022 / 09.00 PM</tspan></text></g><text class="cls-5" transform="translate(238.59 524.01)"><tspan class="cls-99" x="0" y="0">₹</tspan><tspan class="cls-24" x="3.44" y="0">3,000</tspan></text><g><g><path class="cls-84" d="M117.82,519.25v1.49c-.31,0-.62,0-.93,0-.64,0-1.27,0-1.91,0-1.11,0-1.84,1.09-1.44,2.11,.23,.59,.8,.96,1.46,.96,.94,0,1.88,0,2.82,0v1.49s-.01,.02-.02,.04c-.07,.66-.66,1.33-1.57,1.33-2.48,0-4.97,0-7.45,0-.18,0-.37-.03-.54-.08-.64-.21-1.04-.79-1.04-1.47,0-1.15,0-2.31,0-3.46,0-.74,0-1.48,0-2.22,0-.82,.61-1.48,1.42-1.53,.45-.03,.91-.01,1.37-.01,2.08,0,4.15,0,6.23,0,.67,0,1.17,.3,1.46,.91,.07,.14,.09,.3,.14,.45Z"/><path class="cls-59" d="M117.82,521.36v1.82c-.98,0-1.96,0-2.94,0h-.02c-.62-.06-1.01-.77-.71-1.32,.19-.35,.48-.51,.87-.51,.73,0,1.46,0,2.19,0,.21,0,.41,0,.62,0Zm-2.65,1.22c.07,0,.14,0,.21,0,.18-.01,.3-.14,.3-.31,0-.17-.13-.3-.3-.3-.14,0-.28,0-.41,0-.18,0-.3,.14-.3,.31,0,.17,.13,.29,.3,.31,.07,0,.14,0,.21,0Z"/></g><path class="cls-36" d="M110.43,523.87l-1.45-1.45c-.06-.06-.06-.16,0-.22h0c.06-.06,.16-.06,.22,0l.92,.92c.1,.1,.26,.03,.26-.11v-2.21c0-.09,.07-.15,.15-.15h0c.09,0,.15,.07,.15,.15v2.21c0,.14,.17,.21,.26,.11l.92-.92c.06-.06,.16-.06,.22,0h0c.06,.06,.06,.16,0,.22l-1.45,1.45c-.06,.06-.16,.06-.22,0Z"/></g></g></g></g></g><g><g><g><text class="cls-25" transform="translate(111.86 422.9)"><tspan x="0" y="0">Outst</tspan><tspan class="cls-86" x="12.16" y="0">a</tspan><tspan x="15.05" y="0">n</tspan><tspan class="cls-86" x="17.75" y="0">di</tspan><tspan x="21.8" y="0">ng B</tspan><tspan class="cls-86" x="31.79" y="0">ala</tspan><tspan x="38.73" y="0">n</tspan><tspan class="cls-38" x="41.43" y="0">c</tspan><tspan x="43.76" y="0">e</tspan></text><text class="cls-75" transform="translate(239.36 422.9)"><tspan class="cls-99" x="0" y="0">₹</tspan><tspan class="cls-40" x="2.41" y="0">10,000</tspan></text></g><g><text class="cls-25" transform="translate(111.86 433.96)"><tspan x="0" y="0">O</tspan><tspan class="cls-38" x="3.6" y="0">ver</tspan><tspan class="cls-86" x="10.43" y="0">al</tspan><tspan x="14.49" y="0">l C</tspan><tspan class="cls-32" x="20.11" y="0">r</tspan><tspan class="cls-21" x="22.07" y="0">e</tspan><tspan class="cls-86" x="24.69" y="0">d</tspan><tspan class="cls-83" x="27.58" y="0">i</tspan><tspan class="cls-86" x="28.78" y="0">t</tspan><tspan class="cls-32" x="30.47" y="0">o</tspan><tspan x="33.17" y="0">rs</tspan></text><text class="cls-46" transform="translate(253.29 433.96)"><tspan x="0" y="0">9</tspan></text></g><g><text class="cls-25" transform="translate(111.86 445.02)"><tspan class="cls-74" x="0" y="0">T</tspan><tspan x="2.18" y="0">o</tspan><tspan class="cls-86" x="4.95" y="0">d</tspan><tspan x="7.84" y="0">ay’s C</tspan><tspan class="cls-32" x="21.28" y="0">o</tspan><tspan class="cls-30" x="23.98" y="0">l</tspan><tspan class="cls-38" x="25.14" y="0">l</tspan><tspan x="26.27" y="0">ect</tspan><tspan class="cls-38" x="33.02" y="0">io</tspan><tspan x="36.85" y="0">n</tspan></text><text class="cls-46" transform="translate(253.36 445.02)"><tspan x="0" y="0">5</tspan></text></g></g><g><text class="cls-55" transform="translate(108.32 409.09)"><tspan x="0" y="0">C</tspan><tspan class="cls-104" x="3.43" y="0">r</tspan><tspan x="5.4" y="0">e</tspan><tspan class="cls-64" x="8.32" y="0">d</tspan><tspan x="11.54" y="0">i</tspan><tspan class="cls-57" x="12.82" y="0">t</tspan><tspan class="cls-62" x="14.67" y="0">o</tspan><tspan x="17.67" y="0">r C</tspan><tspan class="cls-65" x="24.96" y="0">o</tspan><tspan class="cls-57" x="27.96" y="0">n</tspan><tspan x="30.92" y="0">t</tspan><tspan class="cls-112" x="32.81" y="0">r</tspan><tspan class="cls-62" x="34.78" y="0">o</tspan><tspan x="37.78" y="0">l</tspan></text><g><path class="cls-59" d="M258.71,407.96h-.96v.97h-.58v-.97h-.96v-.58h.96v-.97h.58v.97h.96v.58Z"/><path class="cls-98" d="M257.47,409.88c-1.22,0-2.21-.99-2.21-2.21s.99-2.21,2.21-2.21,2.21,.99,2.21,2.21-.99,2.21-2.21,2.21Zm0-4.02c-1,0-1.81,.81-1.81,1.81s.81,1.81,1.81,1.81,1.81-.81,1.81-1.81-.81-1.81-1.81-1.81Z"/></g><line class="cls-71" x1="108.54" y1="413.34" x2="259.46" y2="413.34"/></g></g></g><g><path class="cls-15" d="M280.5,467.85v-13.04c0-5.87-4.76-10.64-10.64-10.64H98.14c-5.87,0-10.64,4.76-10.64,10.64v13.04"/><g><g><path class="cls-114" d="M132.73,459.27c0,.63,0,1.27,0,1.9,0,.29-.1,.38-.38,.38-.82,0-1.63,0-2.45,0-.29,0-.38-.09-.38-.38,0-.67,0-1.35,0-2.02,0-.28-.1-.38-.38-.38-.47,0-.94,0-1.41,0-.29,0-.39,.1-.39,.4,0,.67,0,1.35,0,2.02,0,.27-.1,.36-.36,.36-.83,0-1.66,0-2.48,0-.26,0-.36-.1-.36-.36,0-1.29,0-2.57,0-3.86,0-.09,.03-.15,.09-.21,1.31-1.33,2.63-2.67,3.94-4,.18-.18,.32-.18,.5,0,1.33,1.34,2.65,2.68,3.98,4.02,.06,.07,.08,.13,.08,.22,0,.64,0,1.28,0,1.92Z"/><path class="cls-114" d="M133.8,457.14c-.14,0-.28-.1-.41-.23-1.49-1.52-2.98-3.03-4.47-4.55-.18-.18-.37-.3-.64-.23-.15,.04-.24,.13-.34,.23-1.49,1.51-2.97,3.02-4.46,4.53-.16,.16-.34,.27-.58,.23-.22-.04-.37-.17-.44-.39-.07-.23-.01-.43,.16-.6,.61-.62,1.22-1.24,1.83-1.86,1.18-1.2,2.35-2.39,3.53-3.59,.16-.17,.34-.26,.58-.22,.15,.02,.26,.12,.37,.22,1.58,1.61,3.16,3.21,4.74,4.82,.21,.22,.43,.43,.64,.66,.17,.19,.2,.41,.1,.64-.11,.22-.29,.33-.6,.33Z"/></g><g><path d="M190.35,456.02c0,3.04-2.45,5.52-5.53,5.53-3.06,0-5.55-2.47-5.55-5.54,0-3.06,2.48-5.55,5.54-5.55,3.06,0,5.54,2.48,5.54,5.55Zm-2.77-.01c0-1.53-1.24-2.77-2.77-2.77-1.53,0-2.77,1.24-2.77,2.77,0,1.53,1.24,2.78,2.78,2.77,1.53,0,2.77-1.25,2.76-2.77Zm-6.33-.1c.02-.43,.1-.83,.25-1.21,.69-1.71,2.55-2.61,4.33-2.1,.05,.02,.13,0,.18-.02,.16-.08,.31-.19,.47-.27,.06-.03,.08-.07,.06-.14-.03-.17-.06-.34-.09-.51,0-.08-.04-.11-.12-.13-1.08-.35-2.15-.35-3.21,.06-1.58,.62-2.56,1.77-2.96,3.42-.08,.34-.11,.69-.11,1.02,.09-.08,.2-.17,.29-.26,.16-.16,.33-.18,.53-.07,.12,.07,.23,.14,.37,.22Zm-.52,.61c-.15,.16-.29,.32-.44,.46-.08,.07-.09,.14-.07,.25,.75,2.84,3.91,4.33,6.58,3.1,.15-.07,.3-.15,.47-.24-.15-.05-.27-.09-.38-.13-.2-.07-.29-.2-.29-.41,0-.14,0-.29,0-.45l-.13,.07c-.77,.4-1.58,.52-2.42,.32-1.35-.33-2.23-1.17-2.65-2.49-.01-.04-.03-.1-.07-.12-.19-.12-.39-.24-.59-.36Zm6.05-3.48c.05,.04,.09,.07,.13,.09,.94,.71,1.44,1.66,1.46,2.85,.02,.92-.31,1.73-.92,2.43-.03,.04-.06,.09-.06,.14,0,.22,0,.45,0,.67,0,.07,.03,.09,.09,.11,.16,.05,.31,.1,.47,.16,.07,.03,.11,.01,.16-.04,.9-.88,1.4-1.94,1.45-3.19,.07-1.47-.45-2.71-1.52-3.72-.22-.2-.46-.37-.7-.56,0,.14,.01,.25,.03,.37,.04,.22-.02,.36-.21,.47-.12,.08-.25,.15-.38,.23Z"/><path d="M183.62,456.4c-.21,0-.39-.18-.39-.4,0-.22,.18-.4,.4-.4,.21,0,.39,.19,.39,.4,0,.21-.18,.39-.4,.39Z"/><path d="M184.8,455.61c.22,0,.4,.17,.4,.39,0,.22-.18,.4-.4,.4-.21,0-.39-.18-.39-.39,0-.22,.17-.39,.39-.4Z"/><path d="M186,455.61c.21,0,.39,.18,.39,.4,0,.22-.18,.4-.4,.4-.21,0-.39-.19-.39-.4,0-.22,.18-.39,.4-.39Z"/></g><g><path d="M237.8,461.6s-.05-.04-.08-.04c-.57-.12-.95-.59-.95-1.17,.02-1.28,.49-2.37,1.44-3.23,.89-.82,1.96-1.2,3.17-1.15,1.2,.06,2.21,.53,3.02,1.41,.76,.83,1.15,1.81,1.17,2.93,0,.61-.36,1.07-.96,1.2-.02,0-.04,.03-.07,.04h-6.75Z"/><path d="M241.39,450.42c.23,.06,.47,.09,.69,.18,.87,.36,1.41,1,1.55,1.93,.17,1.14-.38,2.15-1.42,2.65-1.01,.49-2.32,.17-3-.73-.76-1.01-.71-2.32,.15-3.25,.4-.43,.9-.68,1.49-.76,.04,0,.07-.01,.11-.02,.15,0,.29,0,.44,0Z"/></g></g></g></g></g></g></svg>