<?xml version="1.0" encoding="UTF-8"?><svg id="Layer_1" xmlns="http://www.w3.org/2000/svg" width="100" height="100" viewBox="0 0 100 100"><defs><style>.cls-1{fill:#a0a0a0;}.cls-2{fill:#b3b3b3;}.cls-3{fill:#f2f2f2;}.cls-4{fill:#188fea;}</style></defs><polygon class="cls-3" points="16.8 30.31 33.75 10.53 40.82 7.71 73.42 5.7 90.27 21.83 86.03 88.24 80.38 89.66 76.99 91.85 70.49 95.31 30.61 95.31 16.8 87.9 16.8 30.31"/><g><path class="cls-4" d="M46.7,46.43c0-2.54,.02-5.09,0-7.63-.02-1.79-.99-2.63-2.72-2.41-8.85,1.15-15.93,8.62-16.93,17.84-1.19,11.03,7.17,20.93,18.23,21.59,10.18,.61,19.17-6.28,21.4-16.22,.42-1.85-.93-3.28-2.65-3.24-4.88,.1-9.77,.04-14.65,.03-1.71,0-2.65-.92-2.66-2.61-.01-2.45,0-4.91,0-7.36Z"/><path class="cls-4" d="M63.92,48.59c2.55,0,5.1,.01,7.64,0,1.54,0,2.16-.87,1.73-2.3-.14-.46-.24-.93-.32-1.41-1.35-7.98-8.15-14.68-16.15-15.89-1.93-.29-3.04,.63-3.05,2.57,0,4.78,0,9.57,0,14.35,0,1.77,.92,2.69,2.68,2.69,2.49,0,4.97,0,7.46,0Z"/></g><g><path class="cls-2" d="M21.31,79.99c-.02-9.78,0-19.56,0-29.35,0-6.57,0-13.14,0-19.72,0-2.19,.47-4.24,1.55-6.17,.65-1.16,1.61-2.01,2.57-2.91,3.44-3.24,6.85-6.52,10.27-9.78,1.37-1.3,2.73-2.62,4.09-3.92-.77,0-1.54,0-2.3,0-2.87,0-5.35,1.02-7.44,2.88-2.42,2.16-4.72,4.45-7.06,6.69-3.42,3.26-6.83,6.54-10.27,9.78-.95,.89-1.91,1.74-2.57,2.91-1.08,1.93-1.56,3.97-1.55,6.17,.01,6.57,0,13.14,0,19.72,0,9.78-.02,19.56,0,29.35,.02,6.81,5.11,11.85,11.92,11.85,15.41,0,30.83,0,46.24,0,1.16,0,2.3-.12,3.41-.43,2.99-.85,5.34-2.73,6.81-5.22-14.58,0-29.17,0-43.75,0-6.81,0-11.91-5.05-11.92-11.85Z"/><path class="cls-1" d="M91.4,14.39c-.01-6.87-5.1-11.89-11.98-11.89-9.74,0-19.48,.01-29.22,0-2.87,0-5.35,1.02-7.44,2.88-1.01,.9-1.99,1.83-2.97,2.77,8.97,.01,17.94,0,26.91,0,6.88,0,11.97,5.02,11.98,11.89,.02,10.93,0,21.87,0,32.8,0,10.9,0,21.81,0,32.71,0,2.35-.63,4.48-1.7,6.3,.83,0,1.66,0,2.49,0,1.16,0,2.3-.12,3.41-.43,5.17-1.47,8.5-5.95,8.51-11.51,.01-10.9,0-21.81,0-32.71,0-10.93,.02-21.87,0-32.8Z"/></g></svg>