<?xml version="1.0" encoding="UTF-8"?><svg id="Layer_1" xmlns="http://www.w3.org/2000/svg" width="500" height="500" viewBox="0 0 500 500"><path d="M411.68,215.54c-90.28-51.78-180.32-103.98-270.47-155.99-9.5-5.48-18.6-11.81-29.51-14.43h-10.38c-.48,.22-.93,.54-1.43,.65-19.58,4.27-31.29,18.59-31.29,38.58-.03,110.04-.04,220.08,0,330.12,.01,31.22,30.53,49.24,57.49,33.72,95.61-55.04,191.11-110.28,286.66-165.44,6.47-3.74,11.7-8.67,15.31-15.3,9.38-17.25,3.98-40.24-16.38-51.92ZM131.29,81.47c61.08,35.27,122.16,70.53,183.54,105.97-13.99,14.59-27.68,28.87-41.74,43.53-47.61-49.66-95.03-99.13-142.46-148.59l.66-.91Zm-6.07,339.61c-.2-.18-.41-.37-.61-.55,49.39-51.52,98.79-103.05,148.47-154.87,14.52,15.13,28.76,29.97,43.24,45.08-63.89,36.89-127.5,73.62-191.11,110.35Zm274.94-158.75c-20.69,11.99-41.41,23.92-62.44,36.07-15.94-16.62-31.84-33.21-48.01-50.06,15.52-16.2,30.94-32.29,46.49-48.52,7.32,4.21,14.45,8.3,21.57,12.41,14.16,8.17,28.33,16.32,42.46,24.54,11.37,6.61,11.34,18.96-.07,25.57Z"/></svg>