<?xml version="1.0" encoding="UTF-8"?><svg id="Layer_1" xmlns="http://www.w3.org/2000/svg" width="100" height="100" viewBox="0 0 100 100"><defs><style>.cls-1{fill:#e2e2e2;}.cls-2{fill:#a0a0a0;}.cls-3{fill:#839090;}.cls-4{fill:#828e8f;}.cls-5{fill:#7f8c8d;}.cls-6{fill:#b3b3b3;}.cls-7{fill:#828f90;}.cls-8{fill:#f2f2f2;}.cls-9{fill:#849091;}.cls-10{fill:#188fea;}</style></defs><path class="cls-10" d="M73.01,45.19c5.7,.42,10.83,2.28,15.22,6,5.19,4.39,8.22,9.98,9.09,16.73,.02,.17-.03,.38,.19,.48v5.38c-.4,.68-.34,1.47-.49,2.21-2.22,10.83-10.74,18.9-21.63,20.47-10.26,1.48-20.43-3.35-25.73-12.23-.13-.21-.27-.42-.4-.62-.48-.98-.96-1.97-1.44-2.95-1.59-4.36-2.17-8.81-1.55-13.46,1.28-9.56,8.79-18.28,18.08-20.9,1.79-.5,3.61-.75,5.42-1.08l3.26-.02Zm-9.34,38.63c.61,.06,1.03-.31,1.45-.68,7.35-6.29,14.69-12.59,22.03-18.88,.34-.29,.63-.6,.7-1.06,.12-.75-.11-1.36-.79-1.73-.75-.41-1.41-.19-2.03,.35-6.8,5.84-13.62,11.65-20.39,17.52-.73,.63-1.08,.55-1.68-.09-1.42-1.51-2.91-2.95-4.38-4.4-.84-.83-1.75-.87-2.45-.15-.65,.67-.62,1.62,.14,2.39,2.04,2.07,4.1,4.11,6.16,6.17,.34,.34,.72,.58,1.24,.56Z"/><path class="cls-2" d="M73.01,45.19c-1.09,0-2.17,.02-3.26,.02-.66-4.11-1.96-7.98-4.16-11.53-.15-.27-.28-.55-.44-.81-7.34-11.59-20.97-17.22-34.36-14.23-14.12,3.16-25.06,15.75-25.08,31.44,0,7.03,2.12,13.44,6.32,19.1,2.82,3.8,6.27,6.88,10.49,9.08,8.09,4.37,16.52,5.08,25.27,2.39,.48,.98,.96,1.97,1.44,2.95-13.62,4.12-25.73,1.44-36.09-8.31-5.81-5.47-9.19-12.34-10.28-20.26-1.36-9.92,1.08-18.86,7.14-26.82,.06-.07,.09-.16,.14-.24,1.74-2.08,3.66-3.99,5.74-5.73,2.58-1.93,5.3-3.62,8.28-4.87,3.38-1.42,6.9-2.28,10.55-2.64,2.14-.19,4.28-.2,6.42,0,15.62,1.56,28.05,12.58,31.45,27.9,.19,.84,.29,1.7,.43,2.55Z"/><path class="cls-10" d="M34.71,9.8c-.52-.01-1.05-.02-1.57-.03-1.83-.04-3.18-1.33-3.27-3.1-.08-1.69,1.26-3.28,3.05-3.32,3.33-.08,6.67-.09,10,0,1.86,.05,3.1,1.58,3.03,3.41-.07,1.7-1.44,2.97-3.24,3.01-.52,.01-1.05,.02-1.57,.03-2.14,0-4.27,0-6.41,0Z"/><path class="cls-6" d="M15.88,22.24c-2.08,1.74-4,3.65-5.74,5.73-1.06-1.08-2.12-2.15-3.17-3.23-1.66-1.69-1.7-4.08-.1-5.7,1.61-1.63,4.09-1.62,5.78,.03,1.08,1.06,2.16,2.11,3.24,3.17Z"/><path class="cls-6" d="M34.71,9.8c2.14,0,4.27,0,6.41,0,0,1.64,0,3.29,0,4.93-2.14-.2-4.28-.19-6.42,0,0-1.64,0-3.29,0-4.93Z"/><path class="cls-1" d="M47.8,80.65c-8.75,2.69-17.19,1.97-25.27-2.39-.09-.32-.17-.66-.28-.97-.99-2.7-1.71-5.48-1.88-8.34-.14-2.36-.15-4.74,.1-7.12,.39-3.56,1.33-6.94,2.83-10.17,2.1-4.54,4.97-8.5,8.85-11.69,1.3-1.07,2.59-2.17,4.11-2.93l.05,8.36c-.29,.17-.59,.33-.88,.5-2.09,1.24-2.92,3.94-1.89,6.14,1.06,2.27,3.63,3.37,5.98,2.55,2.31-.8,3.64-3.25,3.11-5.62-.4-1.76-1.57-2.8-3.09-3.57l.05-10.39c.24-.06,.49-.08,.71-.17,4.83-2.11,9.86-3.07,15.15-2.83,3.22,.15,6.33,.73,9.4,1.67,.22,.07,.49,.36,.75,.01,2.2,3.55,3.5,7.43,4.16,11.53-1.81,.34-3.64,.58-5.42,1.08-9.3,2.62-16.8,11.34-18.08,20.9-.62,4.64-.04,9.09,1.55,13.46Zm-9.84-3.22c.8-.02,1.6-.83,1.6-1.63,0-.88-.79-1.65-1.67-1.63-.84,.02-1.6,.79-1.59,1.61,0,.86,.82,1.67,1.66,1.65Zm20.93-40.26c.02,.92,.68,1.56,1.59,1.55,.91,0,1.57-.67,1.58-1.57,0-.94-.7-1.63-1.65-1.6-.91,.03-1.54,.7-1.53,1.62ZM26.62,72.59c0-.91-.64-1.59-1.55-1.6-.92-.02-1.6,.62-1.63,1.52-.03,.96,.64,1.66,1.59,1.65,.91,0,1.57-.66,1.58-1.57Z"/><path class="cls-8" d="M65.6,33.68c-.25,.34-.52,.06-.75-.01-3.07-.94-6.18-1.52-9.4-1.67-5.29-.24-10.32,.72-15.15,2.83-.22,.1-.47,.12-.71,.17-.01-.77-.03-1.54-.04-2.31-.02-1.24-.6-1.95-1.59-1.98-1.04-.02-1.66,.7-1.67,1.98-.02,1.45-.03,2.89-.04,4.34-1.52,.77-2.81,1.86-4.11,2.93-3.87,3.19-6.75,7.16-8.85,11.69-1.5,3.23-2.45,6.61-2.83,10.17-.26,2.38-.25,4.76-.1,7.12,.18,2.85,.89,5.64,1.88,8.34,.12,.32,.19,.65,.28,.97-4.22-2.19-7.67-5.28-10.49-9.08-4.2-5.66-6.33-12.07-6.32-19.1,.02-15.69,10.95-28.28,25.08-31.44,13.38-2.99,27.02,2.64,34.36,14.23,.16,.26,.3,.54,.44,.81ZM13.78,50.03c0-.88-.79-1.66-1.67-1.63-.85,.03-1.58,.78-1.58,1.62,0,.84,.73,1.6,1.58,1.63,.87,.03,1.67-.75,1.68-1.62Zm24.1-24.15c.88,.02,1.66-.75,1.66-1.63,0-.81-.77-1.6-1.59-1.62-.86-.02-1.66,.77-1.66,1.64,0,.83,.75,1.59,1.59,1.61Zm-12.85,.01c-.91,0-1.58,.66-1.59,1.57-.01,.91,.64,1.59,1.54,1.61,.94,.02,1.65-.67,1.64-1.61-.01-.9-.68-1.57-1.59-1.57Zm27.37,1.57c-.01-.89-.69-1.56-1.6-1.57-.94,0-1.62,.7-1.58,1.66,.03,.91,.72,1.54,1.63,1.52,.9-.02,1.56-.72,1.55-1.61ZM15.41,35.55c-.91-.02-1.59,.63-1.62,1.54-.03,.92,.6,1.61,1.51,1.64,.95,.04,1.67-.64,1.67-1.58,0-.9-.66-1.59-1.56-1.6Zm0,25.78c-.92-.02-1.59,.62-1.62,1.53-.03,.95,.66,1.66,1.6,1.65,.89,0,1.58-.69,1.58-1.58,0-.9-.66-1.58-1.56-1.6Z"/><path class="cls-5" d="M39.54,45.39c1.51,.77,2.69,1.82,3.09,3.57,.53,2.37-.8,4.82-3.11,5.62-2.35,.82-4.91-.28-5.98-2.55-1.03-2.2-.2-4.9,1.89-6.14,.29-.17,.58-.34,.88-.5,1.08-.23,2.16-.24,3.23,0Z"/><path class="cls-10" d="M39.54,45.39c-1.08-.24-2.16-.23-3.23,0-.02-2.79-.04-5.57-.05-8.36,.01-1.45,.02-2.89,.04-4.34,.01-1.28,.63-2,1.67-1.98,.99,.02,1.57,.74,1.59,1.98,.01,.77,.03,1.54,.04,2.31-.02,3.46-.04,6.93-.05,10.39Z"/><path class="cls-4" d="M37.96,77.43c-.84,.02-1.66-.79-1.66-1.65,0-.82,.75-1.59,1.59-1.61,.88-.02,1.67,.75,1.67,1.63,0,.8-.8,1.61-1.6,1.63Z"/><path class="cls-4" d="M58.88,37.17c-.02-.92,.62-1.6,1.53-1.62,.95-.03,1.65,.66,1.65,1.6,0,.91-.67,1.57-1.58,1.57-.92,0-1.58-.64-1.59-1.55Z"/><path class="cls-7" d="M26.62,72.59c0,.91-.67,1.57-1.58,1.57-.95,0-1.62-.7-1.59-1.65,.03-.91,.71-1.54,1.63-1.52,.91,.02,1.56,.69,1.55,1.6Z"/><path class="cls-9" d="M13.78,50.03c0,.88-.8,1.65-1.68,1.62-.85-.03-1.58-.79-1.58-1.63,0-.85,.74-1.6,1.58-1.62,.88-.03,1.67,.75,1.67,1.63Z"/><path class="cls-7" d="M37.88,25.88c-.84-.02-1.59-.78-1.59-1.61,0-.87,.8-1.66,1.66-1.64,.82,.02,1.59,.81,1.59,1.62,0,.88-.79,1.65-1.66,1.63Z"/><path class="cls-3" d="M25.04,25.89c.91,0,1.58,.67,1.59,1.57,.01,.94-.7,1.64-1.64,1.61-.9-.02-1.55-.71-1.54-1.61,.01-.9,.68-1.57,1.59-1.57Z"/><path class="cls-4" d="M52.41,27.46c.01,.89-.66,1.59-1.55,1.61-.91,.02-1.6-.62-1.63-1.52-.03-.95,.64-1.66,1.58-1.66,.9,0,1.59,.67,1.6,1.57Z"/><path class="cls-7" d="M15.41,35.55c.9,.02,1.57,.7,1.56,1.6,0,.94-.73,1.61-1.67,1.58-.9-.04-1.53-.72-1.51-1.64,.03-.9,.71-1.55,1.62-1.54Z"/><path class="cls-7" d="M15.41,61.33c.9,.02,1.57,.7,1.56,1.6,0,.89-.69,1.58-1.58,1.58-.94,0-1.62-.7-1.6-1.65,.03-.91,.7-1.55,1.62-1.53Z"/></svg>