<?xml version="1.0" encoding="UTF-8"?><svg id="Layer_1" xmlns="http://www.w3.org/2000/svg" width="100" height="100" viewBox="0 0 100 100"><defs><style>.cls-1{fill:#b3b3b3;}.cls-2{fill:#188fea;}</style></defs><path class="cls-2" d="M96.32,9.56c-1.71-2.74-4.2-4.07-7.4-4.08-7.23-.02-14.46,0-21.69,0-5.06,0-8.69,3.61-8.69,8.65,0,2.69,0,5.38,0,8.06l-.03,6.47v6.12c0,1.86,0,3.71,0,5.57,0,2.04,0,4.08,0,6.12l.06,4.27c-.02,.5-.04,.99-.06,1.49l.06,5.38-.06,.56c.02,2.04,.05,4.08,.07,6.12h0l-.06,.37c.29,2.08,1.16,3.87,2.63,5.37,1.92,1.63,4.14,2.27,6.67,2.25,6.18-.06,12.36-.02,18.54-.02,1.54-.07,3.07,.11,4.61-.18,3.18-.61,6.12-3.75,6.35-6.87,.06,0,.12,0,.18,0V12.53c-.41-.98-.61-2.04-1.18-2.97Zm-17.85,51.54c-1.39,.25-2.81-.68-3.14-2.12-.1-.44-.05-.92-.07-1.38,.87-1.77,2.32-2.45,3.83-1.83,.86,.35,1.3,1.05,1.64,1.86,.21,1.84-.67,3.19-2.26,3.47Zm-.4-44.49c1.51,.03,2.75,1.3,2.73,2.81-.01,1.5-1.28,2.76-2.78,2.76-1.54,0-2.82-1.31-2.78-2.85,.04-1.51,1.32-2.74,2.83-2.71Z"/><path class="cls-1" d="M47.24,88.92c2.66,.01,5.31,.02,7.97,.04,1.9,0,3.14,1.09,3.15,2.77,0,1.68-1.23,2.8-3.12,2.8-7.2,0-14.39,0-21.59,0-1.88,0-3.12-1.12-3.11-2.8,0-1.67,1.25-2.76,3.15-2.77,2.66-.01,5.31-.02,7.97-.04h5.59Z"/><path class="cls-2" d="M47.24,88.92h-5.59c0-1.83,0-3.66,0-5.49,1.86,0,3.72,0,5.59,0v5.49Z"/><path class="cls-1" d="M80.8,19.42c-.01,1.5-1.28,2.76-2.78,2.76-1.54,0-2.82-1.31-2.78-2.85,.04-1.51,1.32-2.74,2.83-2.71,1.51,.03,2.75,1.3,2.73,2.81Z"/><path class="cls-1" d="M80.73,57.63c.21,1.84-.67,3.19-2.26,3.47-1.39,.25-2.81-.68-3.14-2.12-.1-.44-.05-.92-.07-1.38,.87-1.77,2.32-2.45,3.83-1.83,.86,.35,1.3,1.05,1.64,1.86Z"/><g><path class="cls-1" d="M86.36,72.26c-6.18,0-12.36-.05-18.54,.02-2.52,.02-4.74-.62-6.67-2.25-1.47-1.5-2.34-3.3-2.63-5.37-9.35,0-18.7,0-28.05-.01-1.12,2.38-3.19,2.75-5.06,.9-.5-.49-1.01-.97-1.52-1.46-.2,.12-.4,.17-.62,.19,.21-.02,.42-.07,.62-.19-.65-.7-1.3-1.4-1.95-2.11-.62-.59-1.26-1.17-1.84-1.79-.63-.67-.76-1.51-.71-2.4,.57-1.58,1.45-2.23,3.11-2.23,7.17,0,14.33,0,21.5,0,1.92,0,2.79,.7,3.25,2.6,3.75,0,7.5,0,11.25,0l.06-.56-.06-5.38c.02-.5,.04-.99,.06-1.49l-.06-4.27c0-2.04,0-4.08,0-6.12,0-1.86,0-3.71,0-5.57v-6.12l.03-6.47c-15.98,0-31.97-.03-47.95,0-3.77,0-6.96,2.73-7.82,6.45-.45,2.03-.19,4.09-.21,6.14,0,1.86,0,3.71,0,5.57v6.12c0,1.92,0,3.83,0,5.75,0,1.85,0,3.71,0,5.57,0,2.16,0,4.33,0,6.49,0,1.98,0,3.96,0,5.94-.01,.58-.05,1.16-.03,1.74,.07,1.52-.2,3.06,.19,4.57,.02,.18,.02,.37,.06,.55,.97,3.78,4.23,6.31,8.23,6.31,8.09,.01,16.17,0,24.26,0,2.13,0,4.26,.02,6.39,.03h5.59c1.6-.01,3.21-.03,4.81-.03,8.64,0,17.28,.01,25.93,0,4.15-.01,7.74-3.05,8.19-6.86,.38-1.41,.13-2.84,.19-4.26ZM22.69,44.42c4.63,.04,9.27,.02,13.9,.02h1.11c-1.32-1.21-2.03-2.43-1.32-4.05h0c1.31-1.88,3.09-2.04,4.75-.44,.15,.15,.32,.28,.48,.42,1.32,1.34,2.63,2.69,3.96,4.01,.64,.63,1.25,1.26,1.61,2.1h0c.17,2.35-.91,3.51-3.3,3.51-7.02,0-14.04,0-21.05,0-2.45,0-3.46-1.05-3.41-3.52,.63-1.42,1.68-2.07,3.27-2.06Z"/><path class="cls-1" d="M44.01,61.13c-4.68,0-9.36,0-14.04,.01-.31,0-.68-.18-.93,.19,1.13,.82,1.65,1.91,1.44,3.31,9.35,0,18.7,0,28.05,.01,.02-.12,.04-.25,.06-.37-.02-2.04-.05-4.08-.07-6.12-3.75,0-7.5,0-11.25,0-.18,2.01-1.22,2.97-3.25,2.97Z"/></g><path class="cls-2" d="M41.61,40.37c1.32,1.34,2.63,2.69,3.96,4.01,.64,.63,1.25,1.26,1.61,2.1,.17,2.35-.91,3.51-3.3,3.51-7.02,0-14.04,0-21.05,0-2.45,0-3.46-1.05-3.41-3.52,.63-1.42,1.68-2.07,3.27-2.06,4.63,.04,9.27,.02,13.9,.02,.3,0,.59,0,1.11,0-1.32-1.21-2.03-2.43-1.32-4.05,1.31-1.88,3.09-2.04,4.75-.44,.15,.15,.32,.28,.48,.42Z"/><path class="cls-2" d="M44.01,55.56c-7.17,0-14.33,0-21.5,0-1.66,0-2.54,.64-3.11,2.23-.06,.89,.08,1.73,.71,2.4,.59,.62,1.23,1.19,1.84,1.79,.65,.7,1.3,1.4,1.95,2.11,.51,.49,1.02,.97,1.52,1.46,1.87,1.85,3.94,1.48,5.06-.9,.21-1.4-.31-2.49-1.44-3.31,.25-.37,.62-.19,.93-.19,4.68-.01,9.36,0,14.04-.01,2.02,0,3.07-.96,3.25-2.97-.46-1.9-1.33-2.6-3.25-2.6Z"/></svg>