<?xml version="1.0" encoding="UTF-8"?><svg id="Layer_1" xmlns="http://www.w3.org/2000/svg" width="326" height="150" viewBox="0 0 326 150"><defs><style>.cls-1{fill:#fff;}.cls-2{letter-spacing:0em;}.cls-3{letter-spacing:0em;}.cls-4{fill:#1a1a1a;}.cls-4,.cls-5{font-family:NoirPro-Regular, 'Noir Pro';font-size:8.19px;}.cls-6{fill:#ed1c24;}.cls-6,.cls-7{font-size:10.53px;}.cls-6,.cls-7,.cls-8{font-family:NoirPro-Medium, 'Noir Pro';}.cls-9{letter-spacing:-.02em;}.cls-10{letter-spacing:-.02em;}.cls-11{letter-spacing:0em;}.cls-12{letter-spacing:0em;}.cls-13{letter-spacing:0em;}.cls-14{letter-spacing:0em;}.cls-5{fill:#999;}.cls-15{letter-spacing:0em;}.cls-16{letter-spacing:-.02em;}.cls-7{fill:#39b54a;}.cls-8{font-size:11.7px;}.cls-17{letter-spacing:-.02em;}.cls-18{letter-spacing:0em;}</style></defs><rect class="cls-1" x="5.3" y="8.41" width="315.4" height="133.19" rx="18.54" ry="18.54"/><g><g><text class="cls-4" transform="translate(238.57 43.33)"><tspan x="0" y="0">In</tspan><tspan class="cls-13" x="6.55" y="0">v</tspan><tspan class="cls-12" x="10.42" y="0">it</tspan><tspan class="cls-13" x="15.26" y="0">a</tspan><tspan class="cls-10" x="20.18" y="0">io</tspan><tspan x="26.6" y="0">n Stat</tspan><tspan class="cls-13" x="49.4" y="0">u</tspan><tspan x="53.92" y="0">s</tspan></text><text class="cls-4" transform="translate(29.58 39.95)"><tspan x="0" y="0">A</tspan><tspan class="cls-15" x="5.37" y="0">l</tspan><tspan class="cls-11" x="7.27" y="0">l M</tspan><tspan class="cls-14" x="18.67" y="0">a</tspan><tspan x="23.58" y="0">n</tspan><tspan class="cls-9" x="28.17" y="0">ager</tspan><tspan x="45.33" y="0">s</tspan></text></g><g><g><g><text class="cls-8" transform="translate(29.58 69.81)"><tspan x="0" y="0">P</tspan><tspan class="cls-3" x="6.93" y="0">i</tspan><tspan x="9.83" y="0">nky</tspan></text><text class="cls-5" transform="translate(29.58 79.17)"><tspan x="0" y="0">May 06, 2022 / 08.00 PM</tspan></text></g><text class="cls-7" transform="translate(262.19 73.65)"><tspan x="0" y="0">In</tspan><tspan class="cls-2" x="8.76" y="0">v</tspan><tspan x="14.07" y="0">i</tspan><tspan class="cls-2" x="16.76" y="0">t</tspan><tspan x="20.55" y="0">ed</tspan></text></g><g><g><text class="cls-8" transform="translate(29.58 105.05)"><tspan x="0" y="0">J</tspan><tspan class="cls-17" x="5.43" y="0">aco</tspan><tspan class="cls-18" x="25.08" y="0">b</tspan></text><text class="cls-5" transform="translate(29.58 114.4)"><tspan x="0" y="0">May 05, 2022 / 09.00 PM</tspan></text></g><text class="cls-6" transform="translate(255.45 108.88)"><tspan x="0" y="0">P</tspan><tspan class="cls-16" x="6.23" y="0">e</tspan><tspan x="11.96" y="0">n</tspan><tspan class="cls-2" x="18.03" y="0">di</tspan><tspan x="27.12" y="0">ng</tspan></text></g></g></g></svg>