<?xml version="1.0" encoding="UTF-8"?><svg id="Layer_1" xmlns="http://www.w3.org/2000/svg" width="326" height="156" xmlns:xlink="http://www.w3.org/1999/xlink" viewBox="0 0 326 156"><defs><style>.cls-1{fill:#096;}.cls-2{fill:#59cda6;}.cls-3{fill:#bcebdb;}.cls-4,.cls-5{fill:#fff;}.cls-6{fill:#c8e0ed;}.cls-7{fill:#39b54a;}.cls-7,.cls-8,.cls-9{font-size:11.7px;}.cls-10{fill:#1a1a1a;}.cls-10,.cls-11,.cls-12,.cls-13,.cls-14,.cls-15,.cls-16{font-family:NoirPro-Regular, 'Noir Pro';}.cls-10,.cls-12,.cls-15{font-size:8.19px;}.cls-17{letter-spacing:0em;}.cls-11{letter-spacing:-.02em;}.cls-11,.cls-18,.cls-13,.cls-19,.cls-14{fill:#b3b3b3;}.cls-11,.cls-13,.cls-14{font-size:7.72px;}.cls-20,.cls-8,.cls-18,.cls-9{font-family:NoirPro-Medium, 'Noir Pro';}.cls-21{letter-spacing:0em;}.cls-22{letter-spacing:0em;}.cls-23{fill:#fefdfd;}.cls-24{letter-spacing:-.02em;}.cls-25{fill:#4caf8d;}.cls-26{fill:#01b278;}.cls-27{letter-spacing:0em;}.cls-28{letter-spacing:0em;}.cls-29{fill:#e6e6e6;}.cls-30{fill:#00b278;}.cls-31{fill:#338dbe;}.cls-32{letter-spacing:0em;}.cls-12{fill:#999;}.cls-18{font-size:8.69px;}.cls-33{fill:#a0c8bb;}.cls-5{filter:url(#drop-shadow-1);}.cls-34{letter-spacing:0em;}.cls-35,.cls-15{fill:#0265e7;}.cls-36{fill:#48c89e;}.cls-37{letter-spacing:-.02em;}.cls-38{letter-spacing:0em;}.cls-39{letter-spacing:0em;}.cls-40{fill:#57cda5;}.cls-13{letter-spacing:0em;}.cls-41{font-family:MyriadPro-Regular, 'Myriad Pro';}.cls-42{fill:#f7a9a9;}.cls-43{letter-spacing:0em;}.cls-9{letter-spacing:0em;}.cls-44{letter-spacing:0em;}.cls-45{letter-spacing:-.03em;}.cls-16{font-size:7.02px;}</style><filter id="drop-shadow-1" filterUnits="userSpaceOnUse"><feOffset dx="4" dy="4"/><feGaussianBlur result="blur" stdDeviation="5"/><feFlood flood-color="#000" flood-opacity=".35"/><feComposite in2="blur" operator="in"/><feComposite in="SourceGraphic"/></filter></defs><rect class="cls-4" x="5.3" y="5.53" width="315.4" height="144.94" rx="18.54" ry="18.54"/><g><g><g><text class="cls-10" transform="translate(26.8 50.9)"><tspan x="0" y="0">A</tspan><tspan class="cls-38" x="5.37" y="0">l</tspan><tspan class="cls-27" x="7.27" y="0">l Am</tspan><tspan class="cls-24" x="24.04" y="0">o</tspan><tspan class="cls-28" x="28.63" y="0">un</tspan><tspan x="37.67" y="0">t</tspan></text><text class="cls-10" transform="translate(250.25 53.24)"><tspan x="0" y="0">Am</tspan><tspan class="cls-24" x="12.19" y="0">o</tspan><tspan class="cls-28" x="16.77" y="0">un</tspan><tspan x="25.81" y="0">t</tspan></text></g><g><text class="cls-18" transform="translate(26.8 32.41)"><tspan x="0" y="0">I</tspan><tspan class="cls-17" x="2.23" y="0">NC</tspan><tspan x="13.91" y="0">OME SUM</tspan><tspan class="cls-21" x="53.68" y="0">M</tspan><tspan x="61.26" y="0">A</tspan><tspan class="cls-45" x="67.1" y="0">R</tspan><tspan class="cls-43" x="72.11" y="0">Y</tspan></text><text class="cls-15" transform="translate(262.28 32.4)"><tspan class="cls-28" x="0" y="0">V</tspan><tspan class="cls-24" x="5.04" y="0">ie</tspan><tspan x="11.2" y="0">w A</tspan><tspan class="cls-32" x="25.35" y="0">l</tspan><tspan x="27.25" y="0">l</tspan></text></g></g><g><g><g><text transform="translate(89.27 116.4)"><tspan><tspan class="cls-8" x="0" y="0">J</tspan><tspan class="cls-9" x="5.43" y="0">a</tspan><tspan class="cls-8" x="12.63" y="0">mes </tspan><tspan class="cls-14" x="38.65" y="0">(C</tspan><tspan class="cls-13" x="45.94" y="0">as</tspan><tspan class="cls-14" x="54.22" y="0">h-</tspan><tspan class="cls-11" x="61.51" y="0">o</tspan><tspan class="cls-14" x="65.83" y="0">ut)</tspan></tspan></text><text class="cls-12" transform="translate(89.27 125.76)"><tspan x="0" y="0">A</tspan><tspan class="cls-28" x="5.37" y="0">pri</tspan><tspan class="cls-27" x="15.4" y="0">l 26, 2022 / 08.00 PM</tspan></text></g><text class="cls-7" transform="translate(240.82 120.55)"><tspan class="cls-41" x="0" y="0">₹</tspan><tspan class="cls-20" x="6" y="0">3,000</tspan></text><g><path class="cls-35" d="M34.82,109.28c.14,.06,.29,.06,.43,.09,1.97,.41,3.32,2.29,3.1,4.3-.24,2.15-2.12,3.69-4.27,3.51-1.82-.15-3.34-1.62-3.56-3.44-.26-2.17,1.19-4.07,3.37-4.42,.03,0,.08,.01,.09-.03h.84Zm-1.83,5.1c0,.51,.35,.98,.84,1.14,.1,.03,.14,.07,.14,.18,.01,.24,.18,.4,.4,.43,.21,.03,.45-.08,.48-.28,.03-.26,.18-.36,.39-.42,.03,0,.05-.03,.08-.05,.74-.49,.74-1.52,.01-2.06-.42-.31-.84-.62-1.26-.94-.12-.09-.18-.2-.13-.35,.05-.15,.16-.21,.31-.21,.12,0,.24,0,.36,0,.21,0,.31,.11,.33,.32,.04,.29,.25,.48,.51,.45,.27-.03,.45-.27,.42-.57-.07-.54-.36-.9-.86-1.07-.06-.02-.1-.04-.11-.12-.02-.3-.2-.48-.46-.48-.26,0-.44,.18-.47,.48,0,.07-.02,.1-.09,.12-.5,.16-.81,.51-.88,1.03-.07,.5,.14,.89,.54,1.19,.41,.3,.82,.61,1.23,.91,.16,.12,.21,.24,.16,.38-.06,.16-.19,.21-.34,.21-.09,0-.19,0-.28,0-.25,0-.35-.09-.38-.33-.03-.26-.24-.44-.49-.43-.26,.01-.45,.22-.45,.49Z"/><path class="cls-29" d="M27.56,125.27c-.17-.11-.27-.28-.37-.45-.68-1.19-1.37-2.38-2.06-3.57-.2-.34-.14-.55,.19-.75,.68-.39,1.35-.78,2.03-1.17,.31-.18,.53-.12,.71,.19,.72,1.25,1.44,2.51,2.17,3.76,.17,.3,.11,.53-.18,.69-.69,.4-1.39,.8-2.08,1.21-.06,.03-.11,.06-.17,.09h-.25Z"/><path class="cls-29" d="M33.05,122.84c-.62,0-1.24,0-1.85,0-.1,0-.15-.03-.19-.11-.59-1.03-1.18-2.06-1.78-3.09-.05-.09-.05-.15,0-.24,.54-.9,1.34-1.43,2.37-1.59,.98-.15,1.82,.16,2.53,.84,.06,.06,.12,.06,.2,.06,.56,0,1.12,0,1.68,0,.31,0,.56,.19,.63,.48,.07,.27-.06,.55-.31,.69-.11,.06-.23,.08-.36,.08-.75,0-1.51,0-2.26,0-.32,0-.53,.18-.54,.46,0,.28,.21,.48,.54,.48,.7,0,1.4,0,2.1,0,.43,0,.81-.13,1.15-.39,.89-.66,1.8-1.3,2.7-1.95,.34-.25,.74-.2,.96,.11,.23,.31,.15,.71-.2,.96-.82,.6-1.64,1.2-2.47,1.8-.46,.33-.91,.69-1.42,.95-.56,.29-1.15,.45-1.77,.46-.57,0-1.14,0-1.71,0h0Z"/></g><g><circle cx="297.31" cy="111.6" r="1.05"/><circle cx="297.31" cy="115.58" r="1.05"/><circle cx="297.31" cy="119.55" r="1.05"/></g></g><g><g><g><text class="cls-8" transform="translate(89.27 80.61)"><tspan x="0" y="0">S</tspan><tspan class="cls-39" x="7.11" y="0">ala</tspan><tspan class="cls-44" x="24.43" y="0">ry</tspan></text><text class="cls-12" transform="translate(89.27 89.96)"><tspan x="0" y="0">May 06, 2022 / 08.00 PM</tspan></text></g><text class="cls-7" transform="translate(235.95 84.75)"><tspan class="cls-41" x="0" y="0">₹</tspan><tspan class="cls-20" x="6" y="0">10,000</tspan></text><g><path class="cls-35" d="M34.82,73.48c.14,.06,.29,.06,.43,.09,1.97,.41,3.32,2.29,3.1,4.3-.24,2.15-2.12,3.69-4.27,3.51-1.82-.15-3.34-1.62-3.56-3.44-.26-2.17,1.19-4.07,3.37-4.42,.03,0,.08,.01,.09-.03h.84Zm-1.83,5.1c0,.51,.35,.98,.84,1.14,.1,.03,.14,.07,.14,.18,.01,.24,.18,.4,.4,.43,.21,.03,.45-.08,.48-.28,.03-.26,.18-.36,.39-.42,.03,0,.05-.03,.08-.05,.74-.49,.74-1.52,.01-2.06-.42-.31-.84-.62-1.26-.94-.12-.09-.18-.2-.13-.35,.05-.15,.16-.21,.31-.21,.12,0,.24,0,.36,0,.21,0,.31,.11,.33,.32,.04,.29,.25,.48,.51,.45,.27-.03,.45-.27,.42-.57-.07-.54-.36-.9-.86-1.07-.06-.02-.1-.04-.11-.12-.02-.3-.2-.48-.46-.48-.26,0-.44,.18-.47,.48,0,.07-.02,.1-.09,.12-.5,.16-.81,.51-.88,1.03-.07,.5,.14,.89,.54,1.19,.41,.3,.82,.61,1.23,.91,.16,.12,.21,.24,.16,.38-.06,.16-.19,.21-.34,.21-.09,0-.19,0-.28,0-.25,0-.35-.09-.38-.33-.03-.26-.24-.44-.49-.43-.26,.01-.45,.22-.45,.49Z"/><path class="cls-29" d="M27.56,89.47c-.17-.11-.27-.28-.37-.45-.68-1.19-1.37-2.38-2.06-3.57-.2-.34-.14-.55,.19-.75,.68-.39,1.35-.78,2.03-1.17,.31-.18,.53-.12,.71,.19,.72,1.25,1.44,2.51,2.17,3.76,.17,.3,.11,.53-.18,.69-.69,.4-1.39,.8-2.08,1.21-.06,.03-.11,.06-.17,.09h-.25Z"/><path class="cls-29" d="M33.05,87.04c-.62,0-1.24,0-1.85,0-.1,0-.15-.03-.19-.11-.59-1.03-1.18-2.06-1.78-3.09-.05-.09-.05-.15,0-.24,.54-.9,1.34-1.43,2.37-1.59,.98-.15,1.82,.16,2.53,.84,.06,.06,.12,.06,.2,.06,.56,0,1.12,0,1.68,0,.31,0,.56,.19,.63,.48,.07,.27-.06,.55-.31,.69-.11,.06-.23,.08-.36,.08-.75,0-1.51,0-2.26,0-.32,0-.53,.18-.54,.46,0,.28,.21,.48,.54,.48,.7,0,1.4,0,2.1,0,.43,0,.81-.13,1.15-.39,.89-.66,1.8-1.3,2.7-1.95,.34-.25,.74-.2,.96,.11,.23,.31,.15,.71-.2,.96-.82,.6-1.64,1.2-2.47,1.8-.46,.33-.91,.69-1.42,.95-.56,.29-1.15,.45-1.77,.46-.57,0-1.14,0-1.71,0h0Z"/></g><g><circle cx="297.31" cy="75.8" r="1.05"/><circle cx="297.31" cy="79.78" r="1.05"/><circle cx="297.31" cy="83.75" r="1.05"/></g></g><g><rect class="cls-5" x="248.29" y="73.01" width="52.68" height="28.66" rx="8.08" ry="8.08"/><g><g><g><path class="cls-42" d="M261.57,97.98h-4.37s-.02-.02-.04-.02c-.47-.16-.67-.44-.67-.93,0-1.81,0-3.63,0-5.44,.03,0,.06,0,.09,0,1.87,0,3.75,0,5.62,0,.03,0,.06,0,.09,0v1.7c0,1.27,0,2.54,0,3.8,0,.43-.26,.77-.68,.87-.02,0-.04,0-.05,.02Zm-3.06-4.67c-.12,0-.21,.06-.26,.18-.05,.12-.03,.23,.06,.32,.23,.23,.45,.46,.68,.68,.06,.06,.05,.09,0,.15-.22,.22-.44,.44-.66,.65-.14,.14-.15,.31-.02,.43,.12,.12,.3,.11,.43-.02,.22-.22,.45-.44,.67-.67,.05-.05,.07-.05,.12,0,.22,.23,.45,.45,.67,.68,.07,.07,.15,.11,.25,.1,.12-.01,.2-.08,.24-.19,.04-.12,.02-.22-.07-.31-.22-.22-.44-.44-.66-.66q-.09-.09,0-.17c.22-.22,.43-.43,.65-.65,.07-.07,.11-.15,.1-.25-.01-.12-.07-.21-.19-.25-.11-.04-.22-.02-.31,.07-.23,.23-.46,.46-.69,.69-.04,.05-.07,.04-.11,0-.22-.23-.45-.45-.68-.68-.06-.06-.14-.1-.23-.1Z"/><path class="cls-19" d="M260.56,88.68v1.16h-.58c0-.17,0-.34,0-.52,0-.05-.02-.07-.07-.07-.34,0-.69,0-1.03,0-.05,0-.07,.01-.07,.07,0,.17,0,.34,0,.52h-.58v-1.16h2.32Z"/><path class="cls-19" d="M259.97,89.84h.58c.57,0,1.13,0,1.7,0,.38,0,.62,.24,.63,.62,0,.34,0,.68,0,1.02,0,.09-.03,.11-.11,.11-.16,0-.31,0-.47,0-.03,0-.06,0-.09,0-1.87,0-3.75,0-5.62,0-.03,0-.06,0-.09,0-.16,0-.33,0-.49,0-.07,0-.09-.01-.09-.09,0-.35,0-.71,0-1.06,0-.34,.25-.59,.6-.59,.57,0,1.15,0,1.72,0h1.74Z"/><path class="cls-23" d="M258.51,93.32c.09,0,.16,.04,.23,.1,.23,.23,.45,.45,.68,.68,.04,.05,.07,.05,.11,0,.23-.23,.46-.46,.69-.69,.09-.09,.19-.11,.31-.07,.11,.04,.17,.13,.19,.25,0,.1-.03,.18-.1,.25-.22,.22-.43,.43-.65,.65q-.08,.08,0,.17c.22,.22,.44,.44,.66,.66,.09,.09,.11,.19,.07,.31-.04,.11-.13,.18-.24,.19-.1,.01-.18-.03-.25-.1-.22-.23-.45-.45-.67-.68-.05-.05-.07-.05-.12,0-.22,.23-.44,.45-.67,.67-.14,.14-.31,.15-.43,.02-.12-.12-.11-.3,.02-.43,.22-.22,.43-.44,.66-.65,.06-.06,.07-.09,0-.15-.23-.22-.46-.45-.68-.68-.09-.09-.11-.2-.06-.32,.05-.11,.14-.17,.26-.18Z"/></g><text class="cls-16" transform="translate(270.11 95.98)"><tspan x="0" y="0">D</tspan><tspan class="cls-37" x="4.6" y="0">ele</tspan><tspan class="cls-22" x="13.59" y="0">t</tspan><tspan x="16" y="0">e</tspan></text></g><g><g><path class="cls-29" d="M262.37,79.6c.08,0,.17,0,.25,0,.26,0,.46,.18,.5,.44-.03,0-.03,.03-.03,.06,0,.06,0,.12-.02,.18-.06,.35-.16,.7-.3,1.03-.21,.48-.49,.91-.86,1.28-.1,.1-.2,.2-.3,.3h-2.97c-.15,0-.3,0-.46,0-.13,0-.24,.12-.24,.25,0,.13,.09,.23,.22,.24,.12,.03,.23,0,.35,.01h2.32c-.12,.08-.24,.13-.37,.19-.32,.13-.65,.23-.99,.27-.11,.02-.23,.03-.34,.05-.1,0-.19,0-.29,0-.76,0-1.52,0-2.29,0-.03,0-.06,0-.09,0,0-.03,.03-.03,.05-.04,.21-.1,.3-.27,.3-.49,0-1.08,0-2.15,0-3.23,0-.26,.13-.43,.38-.51,.05-.02,.11-.02,.16-.02,.73,0,1.46,0,2.19,0h2.83Zm-1.43,1.45h.02c0,.05,.01,.1,.02,.14,.04,.75-.72,1.28-1.41,.99-.05-.02-.1-.08-.14-.06-.04,.02-.06,.09-.09,.13-.04,.05-.03,.08,.03,.1,.25,.13,.52,.18,.81,.15,.51-.06,.99-.54,1.06-1.05,.02-.13,.02-.27,0-.41,.07,.04,.12,.07,.18,.11,.15,.09,.15,.09,.24-.06,.03-.05,.03-.07-.03-.11-.2-.12-.41-.24-.61-.37-.05-.03-.08-.03-.11,.03-.1,.18-.21,.35-.31,.52-.09,.16-.09,.15,.06,.25,.05,.03,.07,.02,.1-.03,.06-.11,.13-.22,.2-.33Zm-1.95,.4h-.02c0-.05-.02-.1-.02-.15-.03-.75,.71-1.26,1.4-.98,.05,.02,.1,.08,.15,.06,.04-.02,.06-.09,.1-.13,.04-.05,.03-.07-.03-.1-.24-.13-.5-.18-.78-.14-.67,.1-1.13,.67-1.1,1.34,0,.04,.02,.07,0,.12-.06-.04-.11-.07-.17-.1-.16-.09-.15-.09-.25,.06-.03,.05-.03,.07,.02,.1,.2,.12,.41,.24,.61,.37,.07,.04,.09,.02,.13-.03,.1-.17,.2-.33,.3-.5,.1-.16,.1-.16-.07-.26-.05-.03-.07-.02-.09,.02-.06,.11-.13,.22-.2,.34Z"/><path class="cls-3" d="M259.54,79.6c-.73,0-1.46,0-2.19,0-.06,0-.11,0-.16,.02v-1.15c0-.54,0-1.07,0-1.61,0-.19,.1-.29,.29-.29,1.27,0,2.54,0,3.81,0,.03,0,.05,0,.08,0,0,.2,0,.41,0,.61,0,.17,.1,.27,.27,.27,.2,0,.4,0,.6,0,0,.02,0,.04,0,.06-.07,.2-.16,.39-.26,.58-.05,.08-.11,.15-.14,.24h-.03s-.07,0-.1,0c-1.32,0-2.64,0-3.96,0q-.15,0-.15,.15t.1,.1c1.27,0,2.55,0,3.82,0,.03,0,.07,0,.1,0-.02,.02-.03,.04-.05,.06-.1,.12-.23,.21-.34,.32h-.03s-.07,0-.1,0c-1.1,0-2.21,0-3.31,0-.19,0-.19,0-.19,.19,0,.05,.02,.06,.07,.06,.19,0,.39,0,.58,0,.86,0,1.72,0,2.57,0-.26,.16-.54,.25-.84,.31-.13,.03-.27,.04-.41,.06Zm-.14-1.64h1.68q.15,0,.15-.15,0-.1-.1-.1c-1.13,0-2.27,0-3.4,0-.16,0-.16,0-.16,.16,0,.08,.02,.09,.1,.09,.58,0,1.16,0,1.74,0Zm-.13-.88c-.52,0-1.04,0-1.55,0-.15,0-.15,0-.15,.15,0,.08,.02,.1,.1,.1,1.05,0,2.1,0,3.15,0,.17,0,.16,0,.17-.17,0-.07-.03-.08-.09-.08-.54,0-1.08,0-1.62,0Z"/><path class="cls-19" d="M257.19,78.47v1.15c-.25,.08-.38,.25-.38,.51,0,1.08,0,2.15,0,3.23,0,.23-.09,.39-.3,.49-.02,0-.05,.01-.05,.04h-.03s-.01,0-.02,0c-.3,.02-.51-.1-.59-.34-.02-.06-.03-.12-.03-.18,0-1.46,0-2.92,0-4.39,0-.3,.22-.52,.52-.52,.29,0,.58,0,.87,0Z"/><path class="cls-19" d="M259.13,83.9c.11-.02,.23-.03,.34-.05,.34-.05,.67-.14,.99-.27,.13-.05,.26-.11,.37-.18h.03c.29,0,.58,0,.87,0,.15,0,.26-.11,.25-.26,0-.14-.11-.24-.25-.24-.04,0-.08,0-.13,0,.1-.1,.21-.19,.3-.3,.37-.37,.65-.8,.86-1.28,.14-.33,.24-.68,.3-1.03,.01-.06,.01-.12,.02-.18,0-.02,0-.05,.03-.06,0,.03,0,.05,0,.08,0,1.09,0,2.18,0,3.27,0,.28-.22,.5-.49,.5-1.16,0-2.31,0-3.47,0-.01,0-.02,0-.03,0Z"/><path class="cls-33" d="M261.2,78.97c.12-.1,.24-.2,.34-.32,.02-.02,.03-.04,.05-.06h.02c.11,0,.21,0,.32,0,.02,0,.05,0,.05-.03,0-.07,.02-.15,0-.21-.02-.04-.09,0-.14-.02h-.02c.03-.09,.1-.16,.14-.24,.1-.19,.19-.38,.26-.58,0-.02,0-.04,0-.06h.11s.03,.08,.03,.13c0,.67,0,1.35,0,2.02h-2.83c.14-.02,.27-.03,.41-.06,.3-.06,.58-.16,.84-.31h.03c.33,0,.66,0,.99,0,.18,0,.17,0,.18-.18,0-.06-.02-.08-.08-.08-.24,0-.48,0-.72,0Z"/><path class="cls-36" d="M262.34,77.46h-.11c-.2,0-.4,0-.6,0-.17,0-.27-.1-.27-.27,0-.2,0-.41,0-.61,.08,0,.15,.02,.21,.08,.24,.24,.48,.48,.72,.72,.02,.02,.05,.05,.05,.08Z"/><path class="cls-31" d="M256.42,83.9s.01,0,.02,0h-.02Z"/><path class="cls-6" d="M260.95,81.05c-.07,.11-.13,.22-.2,.33-.03,.05-.05,.06-.1,.03-.15-.1-.16-.09-.06-.25,.1-.17,.21-.35,.31-.52,.03-.06,.06-.06,.11-.03,.2,.12,.4,.25,.61,.37,.05,.03,.05,.06,.03,.11-.09,.15-.09,.15-.24,.06-.06-.03-.11-.07-.18-.11,.02,.15,.02,.28,0,.41-.06,.51-.54,.99-1.06,1.05-.29,.04-.55-.01-.81-.15-.05-.03-.07-.05-.03-.1,.04-.04,.05-.11,.09-.13,.05-.02,.1,.04,.14,.06,.7,.29,1.45-.23,1.41-.99,0-.04-.01-.09-.02-.13h-.02Z"/><path class="cls-6" d="M258.99,81.45c.07-.11,.14-.22,.2-.34,.03-.04,.05-.05,.09-.02,.16,.1,.16,.1,.07,.26-.1,.17-.2,.33-.3,.5-.03,.06-.06,.08-.13,.03-.2-.13-.4-.25-.61-.37-.05-.03-.05-.05-.02-.1,.09-.16,.09-.16,.25-.06,.05,.03,.11,.06,.17,.1,.02-.04,0-.08,0-.12-.04-.68,.43-1.25,1.1-1.34,.28-.04,.53,.01,.78,.14,.05,.03,.07,.05,.03,.1-.03,.04-.05,.11-.1,.13-.05,.02-.1-.04-.15-.06-.7-.28-1.43,.23-1.4,.98,0,.05,.01,.09,.02,.14h.02Z"/><path class="cls-1" d="M261.61,82.89s.08,0,.13,0c.14,0,.25,.11,.25,.24,0,.15-.11,.26-.25,.26-.29,0-.58,0-.87,0,.11-.07,.21-.13,.32-.2,.14-.09,.28-.18,.39-.3h.03Z"/><path class="cls-26" d="M258.17,83.38c-.13,0-.22-.11-.22-.24,0-.14,.1-.25,.24-.25,.15,0,.3,0,.46,0-.02,.03-.04,.05-.07,.08-.14,.14-.27,.28-.41,.42Z"/><path class="cls-30" d="M259.01,82.89h.4s-.04,.05-.07,.07c-.14,.14-.28,.29-.42,.43-.13,0-.26,0-.4,0,.02-.02,.04-.05,.07-.07,.14-.14,.28-.29,.42-.43Z"/><path class="cls-30" d="M259.76,82.89h.4s-.04,.05-.07,.07c-.14,.14-.28,.29-.42,.43-.13,0-.26,0-.4,0,.02-.02,.04-.05,.07-.07,.14-.14,.28-.29,.42-.43Z"/><path class="cls-30" d="M260.52,82.89h.4s-.04,.05-.07,.07c-.14,.14-.28,.29-.42,.43-.13,0-.26,0-.4,0,.02-.02,.04-.05,.07-.07,.14-.14,.28-.29,.42-.43Z"/><path class="cls-40" d="M259.76,82.89c-.14,.14-.28,.29-.42,.43-.02,.02-.05,.05-.07,.07h-.36c.14-.14,.28-.29,.42-.43,.02-.02,.05-.05,.07-.07h.36Z"/><path class="cls-40" d="M260.52,82.89c-.14,.14-.28,.29-.42,.43-.02,.02-.05,.05-.07,.07h-.36c.14-.14,.28-.29,.42-.43,.02-.02,.05-.05,.07-.07h.36Z"/><path class="cls-40" d="M260.43,83.4c.14-.14,.28-.29,.42-.43,.02-.02,.05-.05,.07-.07,.12,0,.24,0,.36,0-.02,.02-.04,.05-.07,.07-.14,.14-.28,.29-.42,.43h-.36Z"/><path class="cls-40" d="M259.01,82.89c-.14,.14-.28,.29-.42,.43-.02,.02-.05,.05-.07,.07-.12,0-.23,.02-.35-.01,.14-.14,.27-.28,.41-.42,.02-.02,.05-.05,.07-.08h.36Z"/><path class="cls-30" d="M260.79,83.4c.14-.14,.28-.29,.42-.43,.02-.02,.05-.05,.07-.07h.3c-.11,.13-.26,.21-.39,.3-.1,.07-.21,.13-.32,.2h-.08Z"/><path class="cls-2" d="M261.61,78.59h-.02s-.07,0-.1,0c-1.27,0-2.55,0-3.82,0q-.1,0-.1-.1t.15-.15c1.32,0,2.64,0,3.96,0,.03,0,.07,0,.1,0-.04,.1-.13,.16-.17,.25Z"/><path class="cls-2" d="M259.4,77.96c-.58,0-1.16,0-1.74,0-.07,0-.1-.01-.1-.09,0-.16,0-.16,.16-.16,1.13,0,2.27,0,3.4,0q.1,0,.1,.1t-.15,.15h-1.68Z"/><path class="cls-2" d="M260.82,79.23h-.03c-.86,0-1.72,0-2.57,0-.19,0-.39,0-.58,0-.05,0-.06-.01-.07-.06,0-.19,0-.19,.19-.19,1.1,0,2.21,0,3.31,0,.03,0,.07,0,.1,0,0,.03-.03,.04-.05,.05-.1,.07-.2,.13-.29,.19Z"/><path class="cls-2" d="M259.28,77.08c.54,0,1.08,0,1.62,0,.06,0,.09,0,.09,.08,0,.17,0,.17-.17,.17-1.05,0-2.1,0-3.15,0-.08,0-.1-.02-.1-.1,0-.15,0-.15,.15-.15,.52,0,1.04,0,1.55,0Z"/><path class="cls-25" d="M260.82,79.23c.1-.06,.2-.13,.29-.19,.02-.01,.05-.02,.05-.05h.03c.24,0,.48,0,.72,0,.06,0,.08,.02,.08,.08,0,.18,0,.18-.18,.18-.33,0-.66,0-.99,0Z"/><path class="cls-25" d="M261.61,78.59c.05-.09,.14-.15,.17-.25h.05s.12-.03,.14,.01c.03,.06,.01,.14,0,.21,0,.03-.03,.03-.05,.03-.11,0-.21,0-.32,0Z"/></g><text class="cls-16" transform="translate(270.11 83.44)"><tspan x="0" y="0">Up</tspan><tspan class="cls-34" x="8.65" y="0">d</tspan><tspan x="12.86" y="0">a</tspan><tspan class="cls-34" x="17.13" y="0">t</tspan><tspan x="19.54" y="0">e</tspan></text></g></g></g></g></g></g></svg>