<?xml version="1.0" encoding="UTF-8"?><svg id="Layer_1" xmlns="http://www.w3.org/2000/svg" width="326" height="185" viewBox="0 0 326 185"><defs><style>.cls-1{letter-spacing:-.09em;}.cls-1,.cls-2,.cls-3,.cls-4,.cls-5,.cls-6,.cls-7,.cls-8,.cls-9,.cls-10,.cls-11,.cls-12,.cls-13,.cls-14,.cls-15,.cls-16,.cls-17,.cls-18,.cls-19{font-family:NoirPro-Regular, 'Noir Pro';}.cls-1,.cls-20,.cls-21,.cls-22,.cls-23,.cls-24,.cls-15,.cls-17,.cls-18{font-size:8.24px;}.cls-25{letter-spacing:0em;}.cls-26,.cls-10{fill:#fff;}.cls-27{fill:#f1f9fe;}.cls-2,.cls-6,.cls-9,.cls-13,.cls-28,.cls-19{fill:#999;font-size:5.89px;}.cls-2,.cls-12{letter-spacing:0em;}.cls-3,.cls-29{letter-spacing:0em;}.cls-4,.cls-20,.cls-21,.cls-22,.cls-23,.cls-24{fill:#1a1a1a;}.cls-4,.cls-7{font-size:8.25px;}.cls-30{font-size:9.42px;}.cls-30,.cls-31,.cls-32,.cls-15,.cls-18{fill:#0265e7;}.cls-6,.cls-8{letter-spacing:0em;}.cls-33,.cls-20,.cls-21,.cls-22,.cls-23,.cls-24{font-family:NoirPro-Medium, 'Noir Pro';}.cls-7{fill:#fbae17;}.cls-21{letter-spacing:-.02em;}.cls-9,.cls-11{letter-spacing:-.02em;}.cls-10{font-size:6.6px;}.cls-34{letter-spacing:0em;}.cls-35{stroke:#f2f2f2;stroke-linecap:round;stroke-linejoin:round;}.cls-35,.cls-36{fill:none;}.cls-37{letter-spacing:0em;}.cls-38{letter-spacing:0em;}.cls-22{letter-spacing:-.03em;}.cls-31{font-size:11.79px;}.cls-23,.cls-39{letter-spacing:0em;}.cls-24{letter-spacing:0em;}.cls-40{letter-spacing:0em;}.cls-41,.cls-15{letter-spacing:0em;}.cls-14{fill:gray;font-size:6.6px;}.cls-42{letter-spacing:0em;}.cls-43{letter-spacing:-.02em;}.cls-44,.cls-29{font-family:MyriadPro-Regular, 'Myriad Pro';}.cls-36{stroke:#ccc;stroke-miterlimit:10;}.cls-16{letter-spacing:-.03em;}.cls-45{letter-spacing:0em;}.cls-19{letter-spacing:-.02em;}.cls-46{letter-spacing:-.02em;}</style></defs><rect class="cls-26" x="5.3" y="4.96" width="315.4" height="175.08" rx="18.54" ry="18.54"/><g><g><g><g><g><rect class="cls-27" x="28.75" y="34.46" width="44.69" height="9.66" rx="4.83" ry="4.83"/><text class="cls-14" transform="translate(37.55 41.04)"><tspan x="0" y="0">M</tspan><tspan class="cls-38" x="5.49" y="0">a</tspan><tspan x="9.45" y="0">n</tspan><tspan class="cls-46" x="13.15" y="0">age</tspan><tspan class="cls-25" x="24.45" y="0">r</tspan></text></g><text class="cls-4" transform="translate(28.75 27.59)"><tspan x="0" y="0">Jo</tspan><tspan class="cls-37" x="8.58" y="0">s</tspan><tspan class="cls-43" x="12.47" y="0">e</tspan><tspan class="cls-34" x="16.83" y="0">p</tspan><tspan x="21.78" y="0">h</tspan></text></g><g><text class="cls-31" transform="translate(253.96 41.57)"><tspan class="cls-44" x="0" y="0">₹</tspan><tspan class="cls-33" x="6.05" y="0">13,000</tspan></text><text class="cls-7" transform="translate(250.45 26.55)"><tspan x="0" y="0">Outst</tspan><tspan class="cls-34" x="20.72" y="0">a</tspan><tspan x="25.67" y="0">n</tspan><tspan class="cls-34" x="30.29" y="0">di</tspan><tspan class="cls-45" x="37.16" y="0">ng</tspan></text></g></g><polygon class="cls-32" points="63.39 22.02 67.09 25.72 63.39 25.72 59.69 25.72 63.39 22.02"/></g><g><rect class="cls-36" x="33.45" y="54.51" width="259.11" height="107.06"/><g><line class="cls-35" x1="54.53" y1="82.71" x2="271.47" y2="82.71"/><g><g><text transform="translate(60.83 73.78)"><tspan><tspan class="cls-22" x="0" y="0">R</tspan><tspan class="cls-21" x="4.75" y="0">e</tspan><tspan class="cls-20" x="9.23" y="0">p</tspan><tspan class="cls-21" x="14.38" y="0">o</tspan><tspan class="cls-24" x="19.13" y="0">r</tspan><tspan class="cls-23" x="22.75" y="0">t</tspan><tspan class="cls-20" x="25.72" y="0">ee :</tspan><tspan class="cls-17" x="39.57" y="0"> </tspan><tspan class="cls-1" x="42.21" y="0">	</tspan><tspan class="cls-18" x="44.1" y="0">S</tspan><tspan class="cls-15" x="48.99" y="0">a</tspan><tspan class="cls-18" x="53.93" y="0">m </tspan><tspan class="cls-13" x="63.43" y="0">(C</tspan><tspan class="cls-9" x="68.99" y="0">o</tspan><tspan class="cls-6" x="72.29" y="0">l</tspan><tspan class="cls-9" x="73.65" y="0">l</tspan><tspan class="cls-13" x="74.97" y="0">ect</tspan><tspan class="cls-9" x="83.17" y="0">io</tspan><tspan class="cls-13" x="87.78" y="0">n M</tspan><tspan class="cls-2" x="97.87" y="0">a</tspan><tspan class="cls-13" x="101.4" y="0">n</tspan><tspan class="cls-19" x="104.7" y="0">age</tspan><tspan class="cls-13" x="114.78" y="0">r)</tspan></tspan></text><g><rect class="cls-32" x="222.7" y="66.63" width="49.04" height="9.66" rx="4.83" ry="4.83"/><text class="cls-10" transform="translate(228.51 73.21)"><tspan x="0" y="0">Outst</tspan><tspan class="cls-42" x="16.57" y="0">a</tspan><tspan x="20.52" y="0">n</tspan><tspan class="cls-42" x="24.22" y="0">di</tspan><tspan x="29.71" y="0">ng</tspan></text></g></g><g><g><g><g><text class="cls-17" transform="translate(67.88 94.18)"><tspan x="0" y="0">R</tspan><tspan class="cls-41" x="4.88" y="0">a</tspan><tspan x="9.83" y="0">me</tspan><tspan class="cls-39" x="21.17" y="0">s</tspan><tspan class="cls-40" x="25.06" y="0">h</tspan></text><g><text class="cls-28" transform="translate(67.88 103.84)"><tspan class="cls-5" x="0" y="0">C</tspan><tspan class="cls-16" x="3.77" y="0">r</tspan><tspan class="cls-3" x="5.94" y="0">e</tspan><tspan class="cls-12" x="9.14" y="0">d</tspan><tspan class="cls-5" x="12.67" y="0">i</tspan><tspan class="cls-8" x="14.09" y="0">t</tspan><tspan class="cls-5" x="16.11" y="0">ed Am</tspan><tspan class="cls-11" x="33.54" y="0">o</tspan><tspan class="cls-8" x="36.84" y="0">un</tspan><tspan class="cls-5" x="43.34" y="0">t : </tspan><tspan class="cls-29" x="50.69" y="0">₹</tspan><tspan class="cls-5" x="53.71" y="0">50,000</tspan></text><text class="cls-28" transform="translate(67.88 111.38)"><tspan class="cls-5" x="0" y="0">C</tspan><tspan class="cls-11" x="3.77" y="0">o</tspan><tspan class="cls-12" x="7.07" y="0">l</tspan><tspan class="cls-11" x="8.43" y="0">l</tspan><tspan class="cls-5" x="9.75" y="0">ec</tspan><tspan class="cls-8" x="15.88" y="0">t</tspan><tspan class="cls-3" x="17.9" y="0">ed Am</tspan><tspan class="cls-11" x="35.33" y="0">o</tspan><tspan class="cls-12" x="38.63" y="0">un</tspan><tspan class="cls-5" x="45.13" y="0">t : </tspan><tspan class="cls-44" x="52.48" y="0">₹</tspan><tspan class="cls-5" x="55.5" y="0">10,000</tspan></text></g></g><text class="cls-30" transform="translate(227.04 104.07)"><tspan class="cls-44" x="0" y="0">₹</tspan><tspan class="cls-33" x="4.83" y="0">3,000</tspan></text></g><g><g><text class="cls-17" transform="translate(68.12 130.46)"><tspan x="0" y="0">R</tspan><tspan class="cls-41" x="4.88" y="0">a</tspan><tspan x="9.83" y="0">me</tspan><tspan class="cls-39" x="21.17" y="0">s</tspan><tspan class="cls-40" x="25.06" y="0">h</tspan></text><g><text class="cls-28" transform="translate(68.12 140.11)"><tspan class="cls-5" x="0" y="0">C</tspan><tspan class="cls-16" x="3.77" y="0">r</tspan><tspan class="cls-3" x="5.94" y="0">e</tspan><tspan class="cls-12" x="9.14" y="0">d</tspan><tspan class="cls-5" x="12.67" y="0">i</tspan><tspan class="cls-8" x="14.09" y="0">t</tspan><tspan class="cls-3" x="16.11" y="0">ed Am</tspan><tspan class="cls-11" x="33.54" y="0">o</tspan><tspan class="cls-8" x="36.84" y="0">un</tspan><tspan class="cls-5" x="43.34" y="0">t : </tspan><tspan class="cls-44" x="50.69" y="0">₹</tspan><tspan class="cls-5" x="53.71" y="0">50,000</tspan></text><text class="cls-28" transform="translate(68.12 147.65)"><tspan class="cls-5" x="0" y="0">C</tspan><tspan class="cls-11" x="3.77" y="0">o</tspan><tspan class="cls-12" x="7.07" y="0">l</tspan><tspan class="cls-11" x="8.43" y="0">l</tspan><tspan class="cls-5" x="9.75" y="0">ec</tspan><tspan class="cls-8" x="15.88" y="0">t</tspan><tspan class="cls-3" x="17.9" y="0">ed Am</tspan><tspan class="cls-11" x="35.33" y="0">o</tspan><tspan class="cls-12" x="38.63" y="0">un</tspan><tspan class="cls-5" x="45.13" y="0">t : </tspan><tspan class="cls-44" x="52.48" y="0">₹</tspan><tspan class="cls-5" x="55.5" y="0">10,000</tspan></text></g></g><text class="cls-30" transform="translate(227.27 140.35)"><tspan class="cls-44" x="0" y="0">₹</tspan><tspan class="cls-33" x="4.83" y="0">3,000</tspan></text></g></g><line class="cls-35" x1="68.38" y1="118.78" x2="257.22" y2="118.78"/></g></g></g></g></g></svg>