<?xml version="1.0" encoding="UTF-8"?><svg id="Layer_1" xmlns="http://www.w3.org/2000/svg" width="326" height="150" viewBox="0 0 326 150"><defs><style>.cls-1{letter-spacing:-.02em;}.cls-1,.cls-2,.cls-3,.cls-4,.cls-5,.cls-6,.cls-7,.cls-8,.cls-9{font-family:NoirPro-Regular, 'Noir Pro';}.cls-1,.cls-3,.cls-4,.cls-10,.cls-6,.cls-7,.cls-8{fill:#b3b3b3;}.cls-1,.cls-3,.cls-4,.cls-6,.cls-7,.cls-8{font-size:7.72px;}.cls-11{fill:#fff;}.cls-2{fill:#1a1a1a;}.cls-2,.cls-5,.cls-9{font-size:8.19px;}.cls-12{letter-spacing:0em;}.cls-13{letter-spacing:0em;}.cls-13,.cls-14,.cls-15,.cls-10,.cls-16,.cls-17,.cls-18{font-family:NoirPro-Medium, 'Noir Pro';}.cls-13,.cls-19,.cls-15,.cls-17,.cls-20,.cls-18{font-size:11.7px;}.cls-3{letter-spacing:0em;}.cls-21{letter-spacing:-.02em;}.cls-4{letter-spacing:-.03em;}.cls-19,.cls-22{fill:#ed1c24;}.cls-23{letter-spacing:0em;}.cls-24{letter-spacing:0em;}.cls-25{fill:#e6e6e6;}.cls-26,.cls-20{fill:#39b54a;}.cls-15,.cls-16{letter-spacing:0em;}.cls-27{letter-spacing:0em;}.cls-5{fill:#999;}.cls-28{letter-spacing:0em;}.cls-10{font-size:8.69px;}.cls-29{letter-spacing:0em;}.cls-30,.cls-9{fill:#0265e7;}.cls-6{letter-spacing:0em;}.cls-31{font-family:MyriadPro-Regular, 'Myriad Pro';}.cls-32{letter-spacing:0em;}.cls-7{letter-spacing:0em;}.cls-33{letter-spacing:-.03em;}.cls-34{letter-spacing:-.03em;}.cls-35{letter-spacing:-.02em;}.cls-18{letter-spacing:-.02em;}</style></defs><rect class="cls-11" x="5.3" y="2.53" width="315.4" height="144.94" rx="18.54" ry="18.54"/><g><g><g><text class="cls-2" transform="translate(33.31 47.9)"><tspan x="0" y="0">A</tspan><tspan class="cls-24" x="5.37" y="0">l</tspan><tspan class="cls-23" x="7.27" y="0">l C</tspan><tspan class="cls-33" x="17.1" y="0">r</tspan><tspan x="20.11" y="0">e</tspan><tspan class="cls-24" x="24.57" y="0">d</tspan><tspan class="cls-23" x="29.48" y="0">its</tspan></text><text class="cls-2" transform="translate(268.46 50.24)"><tspan x="0" y="0">Am</tspan><tspan class="cls-21" x="12.19" y="0">o</tspan><tspan class="cls-24" x="16.77" y="0">un</tspan><tspan x="25.81" y="0">t</tspan></text></g><g><text class="cls-10" transform="translate(33.31 29.41)"><tspan class="cls-12" x="0" y="0">CR</tspan><tspan class="cls-32" x="10.71" y="0">E</tspan><tspan class="cls-12" x="15.3" y="0">D</tspan><tspan x="21.07" y="0">I</tspan><tspan class="cls-34" x="23.29" y="0">T</tspan><tspan class="cls-29" x="27.75" y="0">O</tspan><tspan x="34.35" y="0">R SUM</tspan><tspan class="cls-28" x="60.64" y="0">M</tspan><tspan x="68.21" y="0">A</tspan><tspan class="cls-34" x="74.06" y="0">R</tspan><tspan x="79.06" y="0">Y</tspan></text><text class="cls-9" transform="translate(268.79 29.4)"><tspan class="cls-24" x="0" y="0">V</tspan><tspan class="cls-35" x="5.04" y="0">ie</tspan><tspan x="11.2" y="0">w A</tspan><tspan class="cls-27" x="25.35" y="0">l</tspan><tspan x="27.25" y="0">l</tspan></text></g></g><g><g><g><text transform="translate(95.78 77.61)"><tspan><tspan class="cls-17" x="0" y="0">P</tspan><tspan class="cls-13" x="6.93" y="0">i</tspan><tspan class="cls-17" x="9.83" y="0">nky </tspan><tspan class="cls-8" x="32.85" y="0">(D</tspan><tspan class="cls-1" x="40.26" y="0">e</tspan><tspan class="cls-3" x="44.34" y="0">b</tspan><tspan class="cls-7" x="48.97" y="0">it)</tspan></tspan></text><text class="cls-5" transform="translate(95.78 86.96)"><tspan x="0" y="0">May 06, 2022 / 08.00 PM</tspan></text></g><text class="cls-19" transform="translate(254.16 81.75)"><tspan class="cls-31" x="0" y="0">₹</tspan><tspan class="cls-14" x="6" y="0">10,000</tspan></text><g><g><path class="cls-25" d="M49.66,73.36v2.63c-.55,0-1.09,0-1.64,0-1.12,0-2.24,0-3.35,0-1.95,.02-3.24,1.92-2.53,3.7,.41,1.03,1.4,1.68,2.56,1.68,1.65,0,3.3,0,4.96,0v2.63s-.03,.04-.03,.07c-.13,1.16-1.16,2.34-2.75,2.33-4.37,0-8.74,0-13.11,0-.32,0-.65-.05-.95-.15-1.12-.38-1.83-1.38-1.83-2.58,0-2.03,0-4.06,0-6.09,0-1.3,0-2.6,0-3.9,0-1.45,1.07-2.61,2.5-2.7,.8-.05,1.6-.02,2.41-.02,3.65,0,7.3,0,10.96,0,1.18,0,2.05,.53,2.56,1.6,.12,.25,.16,.53,.24,.8Z"/><path class="cls-30" d="M49.66,77.08v3.21c-1.72,0-3.45,0-5.17,0-.01,0-.02,0-.04,0-1.09-.1-1.77-1.35-1.26-2.32,.33-.61,.84-.89,1.53-.89,1.28,0,2.56,0,3.84,0,.36,0,.73,0,1.09,0Zm-4.66,2.14c.12,0,.24,0,.36,0,.31-.02,.53-.25,.53-.54,0-.29-.22-.52-.53-.54-.24-.01-.49-.01-.73,0-.31,.02-.53,.25-.53,.54,0,.29,.22,.52,.53,.54,.12,0,.24,0,.36,0Z"/></g><path class="cls-22" d="M37.07,75.56l2.85,2.85c.12,.12,.12,.31,0,.43h0c-.12,.12-.31,.12-.43,0l-1.81-1.81c-.19-.19-.52-.06-.52,.22v4.35c0,.17-.14,.3-.3,.3h0c-.17,0-.3-.14-.3-.3v-4.35c0-.27-.33-.41-.52-.22l-1.81,1.81c-.12,.12-.31,.12-.43,0h0c-.12-.12-.12-.31,0-.43l2.85-2.85c.12-.12,.31-.12,.43,0Z"/></g></g><g><g><text transform="translate(96.99 112.84)"><tspan><tspan class="cls-17" x="0" y="0">J</tspan><tspan class="cls-18" x="5.43" y="0">aco</tspan><tspan class="cls-15" x="25.08" y="0">b </tspan><tspan class="cls-7" x="35.94" y="0">(C</tspan><tspan class="cls-4" x="43.23" y="0">r</tspan><tspan class="cls-8" x="46.07" y="0">e</tspan><tspan class="cls-6" x="50.27" y="0">d</tspan><tspan class="cls-8" x="54.9" y="0">it)</tspan></tspan></text><text class="cls-5" transform="translate(96.99 122.19)"><tspan x="0" y="0">May 05, 2022 / 09.00 PM</tspan></text></g><text class="cls-20" transform="translate(260.24 116.98)"><tspan class="cls-31" x="0" y="0">₹</tspan><tspan class="cls-16" x="6" y="0">3,000</tspan></text><g><g><path class="cls-25" d="M49.42,108.68v2.61c-.54,0-1.09,0-1.63,0-1.11,0-2.22,0-3.33,0-1.94,.02-3.22,1.9-2.51,3.68,.41,1.02,1.39,1.67,2.54,1.67,1.64,0,3.28,0,4.92,0v2.61s-.03,.04-.03,.07c-.13,1.15-1.15,2.32-2.74,2.32-4.34,0-8.68,0-13.01,0-.31,0-.64-.05-.94-.15-1.12-.37-1.81-1.37-1.82-2.56,0-2.01,0-4.03,0-6.04,0-1.29,0-2.58,0-3.87,0-1.44,1.06-2.59,2.49-2.68,.79-.05,1.59-.02,2.39-.02,3.63,0,7.25,0,10.88,0,1.17,0,2.04,.53,2.54,1.59,.12,.25,.16,.53,.24,.79Z"/><path class="cls-30" d="M49.42,112.37v3.19c-1.71,0-3.42,0-5.14,0-.01,0-.02,0-.04,0-1.08-.1-1.76-1.34-1.25-2.3,.32-.61,.84-.89,1.52-.89,1.27,0,2.54,0,3.82,0,.36,0,.72,0,1.08,0Zm-4.63,2.13c.12,0,.24,0,.36,0,.31-.02,.53-.25,.53-.54,0-.29-.22-.52-.53-.53-.24-.01-.48-.01-.72,0-.31,.02-.53,.25-.53,.54,0,.29,.22,.51,.53,.53,.12,0,.24,0,.36,0Z"/></g><path class="cls-26" d="M36.51,116.74l-2.53-2.53c-.11-.11-.11-.28,0-.38h0c.11-.11,.28-.11,.38,0l1.61,1.61c.17,.17,.46,.05,.46-.19v-3.87c0-.15,.12-.27,.27-.27h0c.15,0,.27,.12,.27,.27v3.87c0,.24,.29,.36,.46,.19l1.61-1.61c.11-.11,.28-.11,.38,0h0c.11,.11,.11,.28,0,.38l-2.53,2.53c-.11,.11-.28,.11-.38,0Z"/></g></g></g></g></svg>