<?xml version="1.0" encoding="UTF-8"?><svg id="Layer_1" xmlns="http://www.w3.org/2000/svg" width="326" height="226" viewBox="0 0 326 226"><defs><style>.cls-1{fill:#fff;}.cls-2{letter-spacing:-.02em;}.cls-3{fill:#1a1a1a;}.cls-3,.cls-4,.cls-5{font-family:NoirPro-Regular, 'Noir Pro';font-size:8.19px;}.cls-6{letter-spacing:-.03em;}.cls-7,.cls-8,.cls-9,.cls-10{font-family:NoirPro-Medium, 'Noir Pro';}.cls-11{letter-spacing:-.02em;}.cls-12{letter-spacing:-.02em;}.cls-13{letter-spacing:0em;}.cls-14{letter-spacing:0em;}.cls-15{letter-spacing:-.03em;}.cls-16{letter-spacing:0em;}.cls-17{letter-spacing:0em;}.cls-4{fill:#999;}.cls-18{letter-spacing:0em;}.cls-8{font-size:8.69px;}.cls-8,.cls-19{fill:#b3b3b3;}.cls-9,.cls-20{letter-spacing:0em;}.cls-21{letter-spacing:0em;}.cls-22{letter-spacing:0em;}.cls-23{letter-spacing:0em;}.cls-24{font-family:MyriadPro-Regular, 'Myriad Pro';}.cls-25,.cls-10{font-size:11.7px;}.cls-26{letter-spacing:-.02em;}.cls-5{fill:#0265e7;}.cls-27{letter-spacing:-.02em;}.cls-28{fill:#f2f2f2;}.cls-29{fill:#188fea;}</style></defs><rect class="cls-1" x="5.3" y="5.79" width="315.4" height="214.43" rx="18.54" ry="18.54"/><g><g><g><text class="cls-3" transform="translate(33.31 51.15)"><tspan x="0" y="0">A</tspan><tspan class="cls-22" x="5.37" y="0">l</tspan><tspan class="cls-13" x="7.27" y="0">l E</tspan><tspan class="cls-22" x="16.05" y="0">x</tspan><tspan class="cls-13" x="20.31" y="0">p</tspan><tspan class="cls-11" x="25.29" y="0">e</tspan><tspan x="29.61" y="0">n</tspan><tspan class="cls-16" x="34.2" y="0">s</tspan><tspan x="38.06" y="0">es</tspan></text><text class="cls-3" transform="translate(268.46 53.49)"><tspan x="0" y="0">Am</tspan><tspan class="cls-11" x="12.19" y="0">o</tspan><tspan class="cls-16" x="16.77" y="0">un</tspan><tspan x="25.81" y="0">t</tspan></text></g><g><text class="cls-8" transform="translate(33.31 32.67)"><tspan x="0" y="0">EX</tspan><tspan class="cls-12" x="10.57" y="0">P</tspan><tspan x="15.58" y="0">ENSE SUM</tspan><tspan class="cls-18" x="57.3" y="0">M</tspan><tspan class="cls-23" x="64.88" y="0">A</tspan><tspan class="cls-15" x="70.72" y="0">R</tspan><tspan x="75.72" y="0">Y</tspan></text><text class="cls-5" transform="translate(268.79 32.65)"><tspan class="cls-16" x="0" y="0">V</tspan><tspan class="cls-27" x="5.04" y="0">ie</tspan><tspan x="11.2" y="0">w A</tspan><tspan class="cls-17" x="25.35" y="0">l</tspan><tspan x="27.25" y="0">l</tspan></text></g></g><g><g><g><text class="cls-10" transform="translate(95.78 81.56)"><tspan x="0" y="0">P</tspan><tspan class="cls-2" x="6.93" y="0">e</tspan><tspan x="13.29" y="0">t</tspan><tspan class="cls-26" x="17.59" y="0">ro</tspan><tspan x="29.2" y="0">l</tspan></text><text class="cls-4" transform="translate(95.78 90.92)"><tspan x="0" y="0">May 06, 2022 / 08.00 PM</tspan></text></g><text class="cls-25" transform="translate(259.88 85.7)"><tspan class="cls-24" x="0" y="0">₹</tspan><tspan class="cls-9" x="6" y="0">38.70</tspan></text><g><circle class="cls-28" cx="40.77" cy="82.59" r="11.23"/><g><path class="cls-19" d="M34.28,89.38c-.23-.11-.3-.29-.3-.53,.01-.76,0-1.53,0-2.29,0-.58,.2-1.07,.61-1.47,.13-.13,.26-.25,.41-.39-.16-.16-.3-.29-.44-.43-.21-.22-.21-.43,0-.65,.69-.69,1.38-1.39,2.08-2.08,.07-.07,.08-.12,.03-.21-.11-.17-.22-.35-.32-.53-.11-.2-.09-.37,.06-.53,.55-.55,1.1-1.1,1.65-1.65,.18-.18,.41-.18,.6,0,.15,.14,.29,.28,.43,.43h.03c.19-.18,.38-.37,.57-.56,.26-.26,.45-.26,.71,0,.58,.58,1.15,1.16,1.73,1.73,.1,.1,.16,.21,.19,.35,.11,.7,.23,1.39,.35,2.09,.04,.2-.02,.36-.16,.5-1.03,1.02-2.06,2.05-3.08,3.08-.83,.83-2.05,.83-2.88,0-.3-.3-.59-.59-.89-.89-.03-.03-.07-.07-.12-.11-.19,.21-.39,.4-.56,.62-.15,.19-.2,.43-.2,.67,0,.77,0,1.54,0,2.3,0,.25-.07,.43-.3,.53h-.21Zm4.06-5.38l-1.46,1.46c.07,.07,.15,.14,.23,.21,.53,.52,1.24,.52,1.77,0,.45-.45,.89-.89,1.34-1.34,.03-.03,.06-.06,.1-.11l-1.18-.59c0,.29,0,.56,0,.82,0,.26-.17,.44-.4,.43-.23,0-.39-.19-.4-.44,0-.15,0-.31,0-.45Z"/><path class="cls-29" d="M47.55,82.51c-.02,.08-.04,.16-.06,.24-.21,.67-.9,1.13-1.57,1.02-.75-.12-1.28-.72-1.27-1.46,0-.31,.12-.59,.26-.85,.28-.5,.57-.99,.86-1.47,.15-.25,.49-.25,.65-.02,.4,.58,.77,1.17,1.03,1.83,.05,.12,.08,.24,.11,.36v.34Z"/><path class="cls-29" d="M42.56,79.49l-1.41-1.42s0,0,0-.01c.46-.45,.9-.92,1.4-1.33,.75-.61,1.63-.89,2.6-.91,.25,0,.49,0,.74,0,.25,0,.42,.17,.42,.41,0,.38,0,.77,0,1.15,0,.26-.17,.41-.43,.42-.37,.01-.74,0-1.11,.05-.49,.07-.91,.31-1.26,.65-.29,.29-.58,.58-.87,.87-.03,.03-.06,.08-.08,.11Z"/></g></g></g><g><g><text class="cls-10" transform="translate(95.78 116.46)"><tspan x="0" y="0">G</tspan><tspan class="cls-2" x="8.8" y="0">r</tspan><tspan x="13.66" y="0">o</tspan><tspan class="cls-2" x="20.59" y="0">ce</tspan><tspan class="cls-21" x="32.76" y="0">r</tspan><tspan class="cls-2" x="37.72" y="0">i</tspan><tspan class="cls-14" x="40.53" y="0">es</tspan></text><text class="cls-4" transform="translate(95.78 125.82)"><tspan x="0" y="0">May 05, 2022 / 09.00 PM</tspan></text></g><text class="cls-25" transform="translate(262.32 120.61)"><tspan class="cls-24" x="0" y="0">₹</tspan><tspan class="cls-7" x="6" y="0">17.29</tspan></text><g><circle class="cls-28" cx="40.77" cy="117.49" r="11.23"/><g><path class="cls-19" d="M40.77,116.47c1.95,0,3.9,0,5.86,0,.11,0,.23,0,.34,.04,.29,.09,.47,.36,.46,.65,0,.3-.21,.56-.51,.63-.1,.02-.13,.07-.14,.16-.27,1.46-.53,2.92-.8,4.39-.09,.49-.41,.76-.91,.76-1.56,0-3.13,0-4.69,0-1.28,0-2.56,0-3.83,0-.57,0-.87-.25-.97-.8-.27-1.45-.53-2.9-.79-4.34-.02-.09-.04-.13-.14-.16-.32-.07-.54-.37-.51-.69,.02-.33,.27-.59,.6-.63,.08,0,.15,0,.23,0,1.94,0,3.89,0,5.83,0Zm-4.57,2.81s0,.06,0,.09c.14,.77,.28,1.53,.42,2.3,.04,.19,.17,.3,.34,.27,.18-.03,.27-.19,.23-.39-.09-.51-.18-1.01-.28-1.52-.05-.27-.1-.55-.15-.82-.03-.16-.16-.24-.32-.22-.14,.02-.25,.13-.25,.3Zm9.14,.04c0-.19-.08-.31-.22-.33-.15-.03-.28,.04-.33,.18-.01,.04-.02,.07-.03,.11-.14,.76-.28,1.52-.42,2.28-.04,.19,.06,.35,.23,.38,.16,.03,.3-.08,.34-.27,.09-.46,.17-.92,.25-1.38,.06-.33,.12-.67,.18-.96Zm-2.29,2.29c0,.17,.08,.29,.23,.32,.18,.04,.33-.09,.36-.31,.04-.3,.07-.6,.11-.9,.06-.47,.11-.94,.17-1.41,.02-.13-.03-.24-.15-.3-.11-.06-.23-.06-.31,.03-.06,.07-.11,.18-.12,.28-.04,.21-.05,.43-.08,.64-.07,.56-.13,1.11-.2,1.65Zm-4.56,0c-.1-.78-.19-1.58-.29-2.38-.02-.18-.16-.27-.33-.24-.16,.02-.26,.16-.23,.35,.05,.44,.1,.88,.16,1.33,.04,.35,.08,.69,.13,1.04,.02,.16,.16,.26,.31,.24,.16-.02,.27-.15,.26-.33Zm3.93-1.17c.02-.37,.05-.74,.07-1.1,.01-.21-.09-.35-.26-.36-.18-.01-.3,.1-.31,.31-.03,.34-.05,.69-.07,1.03-.03,.43-.05,.86-.07,1.29,0,.17,.08,.29,.22,.32,.18,.04,.34-.1,.35-.31,.02-.39,.05-.78,.07-1.18Zm-3.29,0c.02,.4,.04,.79,.07,1.19,.01,.19,.14,.32,.31,.31,.17-.01,.28-.14,.27-.33-.04-.77-.09-1.55-.14-2.32-.01-.21-.13-.32-.31-.31-.17,.01-.28,.15-.26,.36,.02,.37,.05,.74,.07,1.1Zm1.94,.02c0-.38,0-.76,0-1.15,0-.07-.02-.15-.05-.22-.07-.12-.19-.14-.31-.11-.13,.03-.21,.15-.21,.31,0,.76,0,1.53,0,2.29,0,.21,.12,.35,.29,.35,.17,0,.28-.14,.28-.34,0-.38,0-.76,0-1.13Z"/><path class="cls-29" d="M38.34,115.89h-.19c-.88,0-1.75,0-2.63,0-.11,0-.17-.03-.16-.15,0-.11-.02-.23-.02-.34,0-.44,.1-.83,.51-1.07-.17-.09-.33-.16-.48-.26-.43-.3-.71-.72-.9-1.2-.04-.11,0-.18,.13-.17,.33,.04,.65,.09,.98,.13,.05,0,.09,.03,.13,.04,.06-.22,.11-.44,.18-.65,.11-.32,.16-.33,.38-.08,.15,.17,.28,.35,.42,.51,.21-.14,.42-.29,.64-.43,.1-.06,.21-.11,.32-.15,.12-.05,.18-.01,.18,.11,0,.69-.13,1.32-.65,1.82-.02,.02-.03,.03-.05,.06,.47,.07,.73,.37,.88,.76,.13,.34,.22,.69,.33,1.06Z"/><path class="cls-29" d="M42.54,115.88h-3.56c.03-.33,.05-.64,.08-.96,0-.1,.02-.21,.04-.31,.09-.39,.45-.64,.85-.61,.63,.06,1.26,.11,1.89,.16,.46,.04,.79,.38,.77,.85-.01,.29-.05,.58-.07,.87Z"/><path class="cls-29" d="M43.23,115.88c.14-.11,.3-.22,.43-.35,.21-.21,.27-.48,.3-.77,.03-.29,.08-.59,.12-.9l1.33,.17c-.03,.27-.06,.52-.1,.77-.06,.36-.09,.72,.14,1.06h-2.21Z"/><path class="cls-29" d="M44.35,111.89c.42,.06,.88,.11,1.33,.18,.15,.02,.24,.16,.22,.32-.03,.28-.07,.56-.11,.84-.02,.16-.15,.26-.31,.24-.45-.05-.9-.11-1.35-.18-.15-.02-.25-.16-.23-.31,.03-.29,.07-.57,.11-.85,.02-.15,.14-.23,.33-.23Z"/><path class="cls-29" d="M41.97,113.59l-1.93-.17c.02-.23,.03-.45,.05-.66,0-.03,0-.07,.01-.1,.03-.37,.15-.48,.52-.45,.35,.03,.71,.06,1.06,.09,.23,.02,.37,.18,.36,.41-.02,.29-.04,.57-.07,.88Z"/></g></g></g><g><g><text class="cls-10" transform="translate(95.78 151.36)"><tspan x="0" y="0">E</tspan><tspan class="cls-21" x="6.18" y="0">d</tspan><tspan class="cls-2" x="13.38" y="0">uc</tspan><tspan class="cls-20" x="25.74" y="0">at</tspan><tspan class="cls-2" x="37.34" y="0">io</tspan><tspan x="46.89" y="0">n</tspan></text><text class="cls-4" transform="translate(95.78 160.72)"><tspan x="0" y="0">May 04, 2022 / 08.00 PM</tspan></text></g><text class="cls-25" transform="translate(243.5 155.51)"><tspan class="cls-24" x="0" y="0">₹</tspan><tspan class="cls-7" x="6" y="0">5,000.00</tspan></text><g><circle class="cls-28" cx="40.77" cy="152.4" r="11.23"/><g><path class="cls-19" d="M33.91,152.99c.02-.07,.04-.15,.05-.22,.19-1.05,1.07-1.89,2.13-2.04,.06,0,.12-.02,.22-.04-.5-.07-.89-.27-1.19-.63-.3-.36-.43-.79-.4-1.26,.07-.86,.76-1.54,1.62-1.6,.86-.06,1.63,.52,1.84,1.35,.18,.72-.2,1.91-1.44,2.15,.55-.03,1.03,.16,1.5,.4,.69,.35,1.39,.69,2.08,1.04,.03,.02,.06,.03,.1,.05,.03-.06,.06-.12,.09-.18,.25-.5,.5-1,.75-1.5,.09-.18,.24-.26,.42-.24,.16,.02,.31,.13,.33,.29,.01,.11,0,.24-.06,.34-.29,.61-.6,1.21-.9,1.82-.03,.07-.04,.15-.03,.23,.06,.4-.06,.73-.35,.99-.31,.28-.68,.37-1.07,.22-.38-.15-.73-.35-1.1-.52-.1-.05-.21-.1-.33-.16,0,.07,0,.13,0,.18,0,1.41,0,2.81,0,4.22,0,.1-.01,.2-.05,.29-.06,.15-.2,.22-.37,.22-.85,0-1.71,0-2.56,0-.26,0-.41-.18-.41-.44,0-.7,0-1.39,0-2.09,0-.07,0-.12-.09-.16-.4-.17-.64-.47-.74-.89,0-.04-.02-.08-.03-.11v-1.72Z"/><path class="cls-29" d="M44.34,153.66c.02,.07,.04,.12,.06,.16,.48,1.32,.97,2.64,1.45,3.96,.03,.09,.05,.2,.04,.3-.02,.17-.16,.29-.34,.31-.15,.02-.31-.06-.39-.2-.04-.08-.07-.16-.1-.25-.51-1.38-1.02-2.77-1.52-4.16-.04-.12-.1-.12-.21-.13-.11,0-.14,.04-.18,.13-.51,1.42-1.03,2.84-1.55,4.26-.04,.1-.11,.21-.19,.28-.12,.1-.31,.09-.44,0-.14-.1-.21-.27-.15-.44,.14-.42,.3-.83,.45-1.25,.34-.94,.69-1.89,1.03-2.83,.02-.05,.03-.09,.05-.15h-.54c.01-.24,.02-.46,.04-.69,0-.04,.03-.07,.04-.11,.27-.53,.54-1.07,.8-1.6,.23-.46,.2-.9-.11-1.32-.47-.64-1.52-.61-1.94,.06-.19,.31-.34,.65-.51,.98-.02,.04-.04,.09-.07,.14-.31-.15-.61-.3-.91-.46-.03-.02-.06-.07-.06-.11,0-.96-.01-1.93,0-2.89,.01-.74,.56-1.25,1.32-1.25,1.97,0,3.93,0,5.9,0,.13,0,.26,.01,.38,.05,.58,.16,.94,.61,.94,1.22,0,1.58,.01,3.15,0,4.73,0,.73-.56,1.26-1.3,1.27-.61,0-1.21,0-1.82,0-.05,0-.1,0-.16,0Zm-1-4.74c.12,0,.25,0,.37,0,.6,0,1.2,0,1.79,0,.22,0,.38-.16,.4-.38,.01-.21-.14-.39-.35-.42-.05,0-.11,0-.16,0-1.24,0-2.48,0-3.72,0-.15,0-.3,0-.46,0-.18,0-.32,.09-.39,.26-.11,.27,.09,.54,.4,.54,.71,0,1.41,0,2.12,0Zm1.25,3.02c.28,0,.55,0,.83,0,.06,0,.13,0,.19-.02,.19-.05,.32-.23,.3-.42-.02-.2-.17-.36-.37-.36-.62,0-1.25,0-1.87,0-.18,0-.33,.15-.36,.32-.04,.26,.13,.47,.41,.47,.29,0,.58,0,.87,0Zm0-2.31h0c-.29,0-.58,0-.87,0-.26,0-.43,.17-.43,.4,0,.23,.17,.39,.43,.4,.17,0,.35,0,.52,0,.4,0,.8,0,1.19,0,.11,0,.24-.04,.33-.11,.13-.1,.16-.25,.11-.41-.05-.16-.17-.27-.35-.27-.31,0-.62,0-.94,0Z"/></g></g></g><g><g><text class="cls-10" transform="translate(95.78 186.27)"><tspan class="cls-6" x="0" y="0">R</tspan><tspan class="cls-2" x="6.74" y="0">e</tspan><tspan class="cls-21" x="13.1" y="0">n</tspan><tspan x="19.75" y="0">t</tspan></text><text class="cls-4" transform="translate(95.78 195.62)"><tspan x="0" y="0">May 03, 2022 / 09.00 PM</tspan></text></g><text class="cls-25" transform="translate(255.3 190.41)"><tspan class="cls-24" x="0" y="0">₹</tspan><tspan class="cls-9" x="6" y="0">250.00</tspan></text><g><ellipse class="cls-28" cx="40.74" cy="187.3" rx="11.2" ry="11.23"/><g><path class="cls-19" d="M36.93,184.57c0,.18-.16,.33-.34,.32-.18,0-.33-.17-.33-.35,0-.18,.15-.32,.34-.32,.18,0,.33,.16,.33,.35Zm10.46,3.3c-.09-.1-.17-.19-.26-.29-1.18-1.17-2.35-2.33-3.53-3.5-.17-.17-.37-.3-.62-.33-.69-.07-1.37-.13-2.06-.19-.12,0-.18-.05-.22-.16-.3-.8-1.08-1.35-1.93-1.37-.83-.02-1.64,.48-1.98,1.23l.43,.14-.13,.43c.2,.08,.35,.19,.44,.38,.14,.28,.13,.57-.06,.82-.2,.26-.48,.35-.8,.28-.32-.07-.52-.28-.59-.6-.08-.37,.11-.71,.46-.85,.08-.03,.11-.07,.13-.15,.04-.15,.09-.29,.13-.43-.16,0-.33-.03-.49,0-.86,.15-1.46,.64-1.72,1.49-.26,.84-.06,1.59,.6,2.19,.07,.06,.09,.12,.06,.22-.13,.49-.26,.98-.38,1.47-.02,.08,0,.18,.02,.26,.05,.15,.13,.29,.19,.44,.04,.09,.02,.15-.06,.2-.11,.07-.21,.14-.32,.21-.11,.06-.14,.13-.07,.25,.06,.11,.1,.22,.16,.33,.04,.08,.02,.15-.06,.2-.11,.07-.22,.14-.33,.21-.09,.05-.11,.12-.06,.21,.06,.12,.11,.23,.17,.35,.04,.09,.02,.15-.06,.19-.1,.05-.19,.1-.29,.16-.09,.05-.11,.11-.06,.2,.12,.21,.23,.42,.35,.63,.07,.13,.11,.14,.25,.07,.21-.12,.42-.26,.64-.37,.12-.06,.18-.15,.22-.28,.4-1.4,.81-2.79,1.21-4.19,.02-.08,.05-.13,.14-.15,.71-.13,1.2-.56,1.54-1.17,.02-.04,.03-.07,.06-.12-.04,0-.07-.01-.09-.01-.36-.05-.69-.19-.99-.41-.09-.07-.13-.16-.09-.26,.04-.11,.13-.15,.24-.14,.06,0,.13,.04,.19,.08,.28,.19,.58,.29,.91,.3,.11-.26,.09-.76-.05-1.14-.24-.66-.71-1.09-1.36-1.31,.22-.53,.91-.9,1.6-.87,.61,.03,1.27,.52,1.42,1.07-.02,0-.05,.02-.07,.03-.4,.13-.68,.46-.69,.88,0,.34,.04,.68,.07,1.01,0,.09-.01,.14-.09,.16-.22,.06-.44,.12-.66,.18-.04,.01-.1,.01-.12,.04-.07,.12-.12,.25-.18,.39,.39,.04,.75-.03,1.09-.18,.03,.31,.06,.6,.08,.89,.01,.27,.14,.49,.33,.67,1.22,1.21,2.45,2.43,3.67,3.64,.18,.18,.27,.17,.45,0,.48-.47,.95-.94,1.43-1.41,.61-.6,1.21-1.2,1.82-1.81v-.16Zm-4.09,.76c-.05-.08-.03-.18,.04-.25,.14-.15,.29-.29,.43-.43,.2-.2,.4-.4,.6-.6,.13-.12,.25-.13,.35-.03,.1,.1,.09,.22-.03,.34-.33,.33-.67,.67-1.01,1-.05,.05-.12,.08-.2,.13-.07-.06-.15-.1-.19-.16Zm.21-2.49c.06,.08,.03,.18-.04,.25-.13,.13-.26,.26-.4,.4-.21,.21-.42,.42-.64,.63-.12,.12-.26,.13-.35,.03-.09-.1-.08-.22,.04-.34,.33-.33,.66-.66,1-.99,.05-.05,.12-.08,.2-.13,.07,.06,.15,.1,.19,.16Z"/><path class="cls-29" d="M47.14,187.58c-1.18-1.17-2.35-2.33-3.53-3.5-.17-.17-.37-.3-.62-.33-.69-.07-1.37-.13-2.06-.19-.03,0-.06,0-.09-.02-.09,0-.17,0-.26,0-.12,0-.23,0-.35,0h-.03c-.4,.14-.68,.47-.69,.89,0,.34,.04,.68,.07,1.01,0,.03,0,.06,0,.09,.01,.04,.02,.08,.02,.12,0,.07,0,.14,0,.21,0,.02,0,.04,0,.05h0s.02,.07,.02,.07c.02,.05,.02,.1,.01,.15,.03,.27,.05,.52,.07,.78,.01,.27,.14,.49,.33,.67,1.22,1.21,2.45,2.43,3.67,3.64,.18,.18,.27,.17,.45,0,.48-.47,.95-.94,1.43-1.41,.61-.6,1.21-1.2,1.82-1.81v-.16c-.09-.1-.17-.19-.26-.29Zm-4.69-.17c-.12,.12-.26,.13-.35,.03-.09-.1-.08-.22,.04-.34,.33-.33,.66-.66,1-.99,.05-.05,.12-.08,.2-.13,.07,.06,.15,.1,.19,.16,.06,.08,.03,.18-.04,.25-.13,.13-.26,.26-.4,.4-.21,.21-.42,.42-.64,.63Zm2.25,.25c-.33,.33-.67,.67-1.01,1-.05,.05-.12,.08-.2,.13-.07-.06-.15-.1-.19-.16-.05-.08-.03-.18,.04-.25,.14-.15,.29-.29,.43-.43,.2-.2,.4-.4,.6-.6,.13-.12,.25-.13,.35-.03,.1,.1,.09,.22-.03,.34Z"/></g></g></g></g></g></svg>