<?xml version="1.0" encoding="UTF-8"?><svg id="Layer_1" xmlns="http://www.w3.org/2000/svg" width="326" height="230" xmlns:xlink="http://www.w3.org/1999/xlink" viewBox="0 0 326 230"><defs><style>.cls-1{letter-spacing:-.08em;}.cls-2{letter-spacing:0em;}.cls-3{letter-spacing:-.08em;}.cls-4{fill:#f1f9fe;}.cls-5{fill:#ffa41b;stroke:#f1f9fe;stroke-width:.5px;}.cls-5,.cls-6,.cls-7{stroke-miterlimit:10;}.cls-8{letter-spacing:-.03em;}.cls-9{letter-spacing:-.02em;}.cls-10{letter-spacing:-.02em;}.cls-11,.cls-12,.cls-13{fill:#0265e7;}.cls-11,.cls-14{opacity:.25;}.cls-15{letter-spacing:0em;}.cls-16{fill:#fff;}.cls-16,.cls-17{font-family:NoirPro-Medium, 'Noir Pro';font-size:7.41px;}.cls-18{letter-spacing:0em;}.cls-19{letter-spacing:-.02em;}.cls-20{letter-spacing:-.03em;}.cls-21{fill:#666;}.cls-21,.cls-13{font-size:9.45px;}.cls-21,.cls-13,.cls-22{font-family:NoirPro-Regular, 'Noir Pro';}.cls-6,.cls-7{fill:none;stroke:#0265e7;stroke-width:.25px;}.cls-23{letter-spacing:-.02em;}.cls-17{fill:#1a1a1a;}.cls-24{letter-spacing:0em;}.cls-25{letter-spacing:0em;}.cls-7{stroke-dasharray:0 0 5.79 5.79;}.cls-26{fill:url(#linear-gradient);}.cls-27{letter-spacing:-.02em;}.cls-28{letter-spacing:0em;}.cls-29{letter-spacing:0em;}.cls-22{fill:#4d4d4d;font-size:10.63px;}.cls-30{letter-spacing:0em;}</style><linearGradient id="linear-gradient" x1="32.19" y1="103.7" x2="299.11" y2="103.7" gradientTransform="matrix(1, 0, 0, 1, 0, 0)" gradientUnits="userSpaceOnUse"><stop offset="0" stop-color="#fbd838"/><stop offset=".25" stop-color="#c4c761"/><stop offset=".5" stop-color="#74b1a1"/><stop offset=".75" stop-color="#309dd5"/><stop offset="1" stop-color="#0892f9"/></linearGradient></defs><rect class="cls-4" x="5.3" y="6.19" width="315.4" height="217.62" rx="18.54" ry="18.54"/><g><g><g><g><rect class="cls-12" x="32.64" y="174.48" width="33.28" height="16.97" rx="8.48" ry="8.48"/><text class="cls-16" transform="translate(41.99 185.39)"><tspan x="0" y="0">SUN</tspan></text></g><g><path class="cls-11" d="M99.28,191.68h-22.24c-3.17,0-5.75-2.58-5.75-5.75v-5.93c0-3.17,2.58-5.75,5.75-5.75h22.24c3.17,0,5.75,2.58,5.75,5.75v5.93c0,3.17-2.58,5.75-5.75,5.75Zm-22.24-16.97c-2.92,0-5.29,2.37-5.29,5.29v5.93c0,2.92,2.37,5.29,5.29,5.29h22.24c2.92,0,5.29-2.37,5.29-5.29v-5.93c0-2.92-2.37-5.29-5.29-5.29h-22.24Z"/><text class="cls-17" transform="translate(79.47 185.39)"><tspan x="0" y="0">M</tspan><tspan class="cls-18" x="6.41" y="0">O</tspan><tspan x="12.04" y="0">N</tspan></text></g><g><path class="cls-11" d="M138.17,191.68h-22.24c-3.17,0-5.75-2.58-5.75-5.75v-5.93c0-3.17,2.58-5.75,5.75-5.75h22.24c3.17,0,5.75,2.58,5.75,5.75v5.93c0,3.17-2.58,5.75-5.75,5.75Zm-22.24-16.97c-2.92,0-5.29,2.37-5.29,5.29v5.93c0,2.92,2.37,5.29,5.29,5.29h22.24c2.92,0,5.29-2.37,5.29-5.29v-5.93c0-2.92-2.37-5.29-5.29-5.29h-22.24Z"/><text class="cls-17" transform="translate(120.7 185.39)"><tspan x="0" y="0">TUE</tspan></text></g><g><path class="cls-11" d="M177.05,191.68h-22.24c-3.17,0-5.75-2.58-5.75-5.75v-5.93c0-3.17,2.58-5.75,5.75-5.75h22.24c3.17,0,5.75,2.58,5.75,5.75v5.93c0,3.17-2.58,5.75-5.75,5.75Zm-22.24-16.97c-2.92,0-5.29,2.37-5.29,5.29v5.93c0,2.92,2.37,5.29,5.29,5.29h22.24c2.92,0,5.29-2.37,5.29-5.29v-5.93c0-2.92-2.37-5.29-5.29-5.29h-22.24Z"/><text class="cls-17" transform="translate(157.8 185.39)"><tspan x="0" y="0">WED</tspan></text></g><g><path class="cls-11" d="M215.93,191.68h-22.24c-3.17,0-5.75-2.58-5.75-5.75v-5.93c0-3.17,2.58-5.75,5.75-5.75h22.24c3.17,0,5.75,2.58,5.75,5.75v5.93c0,3.17-2.58,5.75-5.75,5.75Zm-22.24-16.97c-2.92,0-5.29,2.37-5.29,5.29v5.93c0,2.92,2.37,5.29,5.29,5.29h22.24c2.92,0,5.29-2.37,5.29-5.29v-5.93c0-2.92-2.37-5.29-5.29-5.29h-22.24Z"/><text class="cls-17" transform="translate(197.93 185.39)"><tspan x="0" y="0">THU</tspan></text></g><g><path class="cls-11" d="M254.81,191.68h-22.24c-3.17,0-5.75-2.58-5.75-5.75v-5.93c0-3.17,2.58-5.75,5.75-5.75h22.24c3.17,0,5.75,2.58,5.75,5.75v5.93c0,3.17-2.58,5.75-5.75,5.75Zm-22.24-16.97c-2.92,0-5.29,2.37-5.29,5.29v5.93c0,2.92,2.37,5.29,5.29,5.29h22.24c2.92,0,5.29-2.37,5.29-5.29v-5.93c0-2.92-2.37-5.29-5.29-5.29h-22.24Z"/><text class="cls-17" transform="translate(238.62 185.39)"><tspan x="0" y="0">F</tspan><tspan class="cls-2" x="3.8" y="0">R</tspan><tspan class="cls-15" x="8.24" y="0">I</tspan></text></g><g><path class="cls-11" d="M293.69,191.68h-22.24c-3.17,0-5.75-2.58-5.75-5.75v-5.93c0-3.17,2.58-5.75,5.75-5.75h22.24c3.17,0,5.75,2.58,5.75,5.75v5.93c0,3.17-2.58,5.75-5.75,5.75Zm-22.24-16.97c-2.92,0-5.29,2.37-5.29,5.29v5.93c0,2.92,2.37,5.29,5.29,5.29h22.24c2.92,0,5.29-2.37,5.29-5.29v-5.93c0-2.92-2.37-5.29-5.29-5.29h-22.24Z"/><text class="cls-17" transform="translate(276.17 185.39)"><tspan class="cls-19" x="0" y="0">S</tspan><tspan class="cls-1" x="4.39" y="0">A</tspan><tspan x="8.78" y="0">T</tspan></text></g></g><g><g class="cls-14"><g><line class="cls-6" x1="32.75" y1="167.56" x2="32.75" y2="164.56"/><line class="cls-7" x1="32.75" y1="158.77" x2="32.75" y2="45.78"/><line class="cls-6" x1="32.75" y1="42.88" x2="32.75" y2="39.88"/></g><g><line class="cls-6" x1="70.79" y1="167.56" x2="70.79" y2="164.56"/><line class="cls-7" x1="70.79" y1="158.77" x2="70.79" y2="45.78"/><line class="cls-6" x1="70.79" y1="42.88" x2="70.79" y2="39.88"/></g><g><line class="cls-6" x1="108.82" y1="167.56" x2="108.82" y2="164.56"/><line class="cls-7" x1="108.82" y1="158.77" x2="108.82" y2="45.78"/><line class="cls-6" x1="108.82" y1="42.88" x2="108.82" y2="39.88"/></g><g><line class="cls-6" x1="146.85" y1="167.56" x2="146.85" y2="164.56"/><line class="cls-7" x1="146.85" y1="158.77" x2="146.85" y2="45.78"/><line class="cls-6" x1="146.85" y1="42.88" x2="146.85" y2="39.88"/></g><g><line class="cls-6" x1="184.89" y1="167.56" x2="184.89" y2="164.56"/><line class="cls-7" x1="184.89" y1="158.77" x2="184.89" y2="45.78"/><line class="cls-6" x1="184.89" y1="42.88" x2="184.89" y2="39.88"/></g><g><line class="cls-6" x1="222.92" y1="167.56" x2="222.92" y2="164.56"/><line class="cls-7" x1="222.92" y1="158.77" x2="222.92" y2="45.78"/><line class="cls-6" x1="222.92" y1="42.88" x2="222.92" y2="39.88"/></g><g><line class="cls-6" x1="260.95" y1="167.56" x2="260.95" y2="164.56"/><line class="cls-7" x1="260.95" y1="158.77" x2="260.95" y2="45.78"/><line class="cls-6" x1="260.95" y1="42.88" x2="260.95" y2="39.88"/></g><g><line class="cls-6" x1="298.99" y1="167.56" x2="298.99" y2="164.56"/><line class="cls-7" x1="298.99" y1="158.77" x2="298.99" y2="45.78"/><line class="cls-6" x1="298.99" y1="42.88" x2="298.99" y2="39.88"/></g></g><g><path class="cls-26" d="M266.44,146.45c-.1,0-.2,0-.3-.01-2.75-.23-3.86-3.52-5.92-10.33-3.33-11.01-5.81-20.9-5.83-21-2.53-10.12-3.83-13.66-4.48-14.83-1.35,1.96-4.48,9.07-5.58,11.58l-1.07,2.45c-3.08,7.08-4.13,9.47-6.96,10.02-2.86,.56-5.17-1.41-9.36-4.97-2.24-1.9-3.7-3.51-4.77-4.69-1.33-1.47-1.82-1.95-2.34-1.95-1.12,.07-2.4,2.73-4.33,6.75l-.27,.57c-8.26,17.19-8.92,17.18-10.67,17.1-3.38-.12-4.83-5.86-8.33-19.71-.19-.73-.37-1.49-.56-2.3-.67-2.81-1.43-5.99-2.9-10.39-1.32-3.94-3.08-9.22-4.24-10.44-.87,1.58-2.59,7.44-3.45,10.39-.39,1.32-.74,2.55-1.07,3.7-1.22,4.23-2.19,7.57-3.6,11.5-2.66,7.38-3.99,11.09-7.03,11.42-2.86,.31-4.94-2.52-9.47-8.73-1.26-1.72-2.2-3.15-2.96-4.3-1.58-2.4-2.16-3.23-2.89-3.25-.43-.04-.74,.22-1.9,1.2-.93,.79-2.21,1.88-4.24,3.21-6.76,4.45-8.44,5.48-10.53,4.83-1.88-.58-2.9-2.07-5.6-10.24-1.83-5.51-2.75-8.28-3.53-11.77-.44-1.98-.73-3.56-.98-4.95-.58-3.17-.89-4.92-2.35-7.44-1.03-1.8-2.21-3.83-3.5-3.93-.55-.05-1.01,.34-2.26,1.54-1.09,1.04-2.59,2.48-4.97,4.04-2.51,1.65-5.64,3.69-8.38,2.43-1.52-.7-2.13-2.1-3.05-4.23l-.12-.27c-2.27-5.21-3.21-7.37-3.41-7.98-1.38-4.05-1.97-6.03-2.37-7.34-.4-1.31-.54-1.81-1.07-3-.78-1.76-3.16-7.13-4.38-7.28-.2,.16-1.34,1.47-3.34,10.5-1.54,6.98-2.14,11.59-3.21,19.96l-.26,2.01c-.44,3.42-1.16,6.83-1.86,10.13-.59,2.79-1.2,5.67-1.63,8.51l-.11,.71c-.69,4.66-1.29,8.68-4.34,9.75-1.4,.49-2.09,.2-7.48-2.12l-.55-.24c-5.08-2.18-6.15-2.58-7.13-2.28-.34,.11-.96,.31-2.72,2.92-1.73,2.56-2.47,4.33-3.32,6.37-.64,1.53-1.3,3.1-2.42,5.14-2.37,4.3-3.68,6.67-6.63,7.66-1.73,.58-3.24,.39-8.97-1.14-2.74-.73-5.5-1.52-8.19-2.34-.77-.24-1.2-1.05-.96-1.82,.24-.77,1.05-1.2,1.82-.96,2.66,.82,5.38,1.59,8.09,2.31,5.48,1.46,6.44,1.48,7.31,1.19,1.88-.63,2.86-2.4,5-6.3,1.05-1.91,1.68-3.41,2.29-4.87,.88-2.1,1.71-4.08,3.6-6.88,1.95-2.88,3.04-3.67,4.25-4.06,2.09-.67,3.73,.04,9.16,2.38l.55,.24c3.46,1.49,5.05,2.16,5.37,2.05,1.39-.49,1.92-4.02,2.43-7.44l.11-.71c.44-2.93,1.06-5.85,1.66-8.68,.69-3.24,1.4-6.59,1.82-9.9l.26-2.01c1.08-8.45,1.68-13.11,3.25-20.22,2.34-10.57,3.84-12.59,5.95-12.77,2.93-.23,4.94,3.76,7.26,9,.6,1.36,.79,1.98,1.2,3.34,.39,1.29,.98,3.25,2.34,7.24,.17,.5,1.36,3.23,3.33,7.76l.12,.27c.78,1.79,1.14,2.54,1.6,2.75,1.28,.59,3.76-1.04,5.57-2.22,2.16-1.42,3.49-2.69,4.56-3.71,1.45-1.39,2.6-2.48,4.49-2.34,2.83,.21,4.48,3.07,5.8,5.38,1.7,2.96,2.1,5.11,2.69,8.37,.25,1.36,.53,2.91,.96,4.83,.75,3.35,1.65,6.07,3.45,11.49,1.87,5.65,2.98,8.15,3.7,8.37,.74,.23,2.58-.86,8.08-4.48,1.88-1.24,3.08-2.25,3.95-3,1.33-1.13,2.28-1.92,3.87-1.89,2.27,.07,3.39,1.76,5.23,4.55,.74,1.12,1.66,2.52,2.88,4.18,3.08,4.21,5.52,7.56,6.74,7.56,.02,0,.05,0,.07,0,1.23-.13,2.87-4.69,4.6-9.51,1.38-3.85,2.34-7.15,3.55-11.33,.33-1.15,.69-2.38,1.08-3.71,3.27-11.15,3.94-12.57,5.97-12.67,2.95-.15,4.61,4.65,7.26,12.61,1.51,4.53,2.32,7.92,2.97,10.64,.19,.79,.37,1.54,.55,2.26,2.1,8.31,4.09,16.17,5.49,17.4,1.54-1.77,6.41-11.9,8.07-15.34l.27-.57c2.63-5.46,3.94-8.21,6.76-8.39,1.93-.14,3.09,1.14,4.68,2.89,1.07,1.18,2.4,2.65,4.5,4.43,3.39,2.88,5.43,4.62,6.92,4.33,1.27-.25,2.18-2.2,4.85-8.33l1.07-2.46c5.77-13.15,6.53-13.74,8.36-13.66,1.88,.06,3.05,.87,7.17,17.38,.02,.1,2.49,9.93,5.8,20.87,.81,2.66,2.48,8.2,3.38,8.28,.64-.25,3.08-3.78,5.66-7.52l.68-.98c4.34-6.28,5.12-7.42,7.26-7.77,2.11-.35,3.58,.69,5.27,1.88,1.19,.84,2.67,1.88,4.87,2.88,2.42,1.1,5.02,1.84,7.73,2.21,.8,.11,1.35,.84,1.25,1.63-.11,.8-.84,1.36-1.63,1.25-3-.4-5.87-1.22-8.55-2.44-2.44-1.11-4.12-2.29-5.34-3.15-1.56-1.1-2.23-1.54-3.13-1.39-.89,.15-1.69,1.27-5.34,6.55l-.68,.98c-4.87,7.04-6.07,8.78-7.99,8.78Z"/><circle class="cls-5" cx="33.65" cy="138.01" r="1.74"/><circle class="cls-5" cx="49.93" cy="141.5" r="1.74"/><circle class="cls-5" cx="65.05" cy="119.4" r="1.74"/><circle class="cls-5" cx="80.17" cy="124.05" r="1.74"/><circle class="cls-5" cx="95.29" cy="62.41" r="1.74"/><circle class="cls-5" cx="111.57" cy="92.65" r="1.74"/><circle class="cls-5" cx="125.53" cy="84.51" r="1.74"/><circle class="cls-5" cx="141.81" cy="122.89" r="1.74"/><circle class="cls-5" cx="159.26" cy="113.59" r="1.74"/><circle class="cls-5" cx="173.21" cy="129.87" r="1.74"/><circle class="cls-5" cx="188.33" cy="92.65" r="1.74"/><circle class="cls-5" cx="204.61" cy="135.68" r="1.74"/><circle class="cls-5" cx="219.73" cy="111.26" r="1.74"/><circle class="cls-5" cx="236.02" cy="122.89" r="1.74"/><circle class="cls-5" cx="249.97" cy="98.47" r="1.74"/><circle class="cls-5" cx="266.26" cy="144.99" r="1.74"/><circle class="cls-5" cx="280.21" cy="128.71" r="1.74"/><circle class="cls-5" cx="297.66" cy="135.68" r="1.74"/></g></g></g><g><text class="cls-22" transform="translate(141.41 24.67)"><tspan x="0" y="0">M</tspan><tspan class="cls-28" x="8.85" y="0">a</tspan><tspan class="cls-24" x="15.22" y="0">n</tspan><tspan class="cls-27" x="21.18" y="0">age</tspan><tspan x="39.38" y="0">r</tspan></text><text class="cls-13" transform="translate(269.35 24.35)"><tspan class="cls-25" x="0" y="0">V</tspan><tspan class="cls-10" x="5.82" y="0">ie</tspan><tspan x="12.93" y="0">w A</tspan><tspan class="cls-25" x="29.26" y="0">l</tspan><tspan class="cls-30" x="31.45" y="0">l</tspan></text><g><text class="cls-21" transform="translate(22.93 24.28)"><tspan class="cls-3" x="0" y="0">W</tspan><tspan x="8.32" y="0">eek</tspan><tspan class="cls-25" x="23.44" y="0">l</tspan><tspan x="25.63" y="0">y</tspan></text><polygon class="cls-12" points="68.12 23.9 63.2 18.98 68.12 18.98 73.05 18.98 68.12 23.9"/></g></g><text class="cls-21" transform="translate(98.93 208.99)"><tspan x="0" y="0">O</tspan><tspan class="cls-23" x="7.26" y="0">ve</tspan><tspan class="cls-8" x="16.63" y="0">r</tspan><tspan class="cls-29" x="20.11" y="0">al</tspan><tspan x="27.97" y="0">l M</tspan><tspan class="cls-29" x="41.13" y="0">a</tspan><tspan class="cls-30" x="46.8" y="0">n</tspan><tspan class="cls-9" x="52.09" y="0">age</tspan><tspan x="68.27" y="0">r I</tspan><tspan class="cls-29" x="77.34" y="0">n</tspan><tspan class="cls-20" x="82.56" y="0">f</tspan><tspan x="85.73" y="0">o</tspan><tspan class="cls-29" x="91.18" y="0">g</tspan><tspan class="cls-8" x="96.85" y="0">r</tspan><tspan class="cls-29" x="100.32" y="0">aph</tspan><tspan class="cls-10" x="116.88" y="0">i</tspan><tspan class="cls-29" x="119" y="0">c</tspan><tspan x="123.61" y="0">s</tspan></text></g></svg>