<?xml version="1.0" encoding="UTF-8"?><svg id="Layer_1" xmlns="http://www.w3.org/2000/svg" width="100" height="100" viewBox="0 0 100 100"><defs><style>.cls-1{fill:#a0a0a0;}.cls-2{fill:#515a66;}.cls-3{fill:#636a75;}.cls-4{fill:#1a8dd3;}.cls-5{fill:#1877b2;}.cls-6{fill:#b3b3b3;}.cls-7{fill:#188fea;}.cls-8{fill:#fefefe;}</style></defs><path class="cls-6" d="M48.87,97.5c-.45-.82-1.36-1.01-2.09-1.38-5.08-2.55-9.89-5.51-14.3-9.08-3.37-2.73-6.51-5.71-9.34-9.02-3.97-4.63-7.29-9.66-9.92-15.16-2.38-4.99-4.09-10.2-5.09-15.64-.52-2.84-.81-5.69-.96-8.58-.31-5.82-.06-11.65-.14-17.47-.02-1.65,.96-2.51,2.83-2.75,6.64-.83,12.89-5.62,14.46-12.57,.09-.39,.13-.78,.22-1.17,.19-.82,.58-1.49,1.41-1.8,.2-.07,.32-.17,.33-.39h43.7v.2c.08,2.16,.46,4.26,1.27,6.28,2.56,6.4,6.96,10.62,13.98,11.68,1.36,.21,2.17,1.11,2.15,2.46-.1,6.38,.19,12.76-.16,19.13-.17,3.01-.59,5.98-1.23,8.91-1.39,6.38-3.75,12.39-6.96,18.09-2.99,5.31-6.7,10.07-10.92,14.44-1.66,1.72-3.48,3.29-5.33,4.82-3.36,2.8-6.98,5.22-10.75,7.43-.82,.48-1.85,.67-2.42,1.55h-.74Zm1.3-8.01c.47-.01,.9-.18,1.31-.39,11.37-6.03,20.55-14.38,26.97-25.61,5.17-9.05,7.76-18.8,7.64-29.25-.03-2.5-.02-5,0-7.49,.01-1.47-.66-2.48-1.98-3.03-6.24-2.6-10.99-6.81-14-12.92-.43-.87-1.13-1.49-2.12-1.62-1.75-.22-3.5-.19-5.26-.06l-12.76,.04c-5.62,0-11.23,.02-16.85-.04-1.7-.02-2.78,.66-3.5,2.17-1.13,2.36-2.67,4.43-4.5,6.3-2.58,2.63-5.59,4.64-9.01,6.03-1.33,.54-2.22,1.44-2.22,2.88,0,5.73-.24,11.47,.68,17.17,1.91,11.92,7.14,22.22,15.22,31.1,4.77,5.24,10.3,9.56,16.46,13.05,1.16,.66,2.24,1.59,3.69,1.6l.23,.07Z"/><path class="cls-1" d="M73.87,2.5c0,.06,0,.16,.02,.18,1.45,.72,1.52,2.15,1.85,3.48,.92,3.73,3.03,6.68,6.12,8.96,2.7,1.98,5.75,3,9.03,3.49,1.22,.18,2.04,1.13,2.04,2.35,.01,5.61,.16,11.24-.04,16.84-.35,10.09-3,19.59-7.87,28.45-2.66,4.85-5.9,9.28-9.63,13.38-4.79,5.26-10.29,9.62-16.35,13.28-2.45,1.48-5.03,2.74-7.55,4.11-.27,.14-.52,.32-.78,.48h-1.11c.57-.88,1.6-1.07,2.42-1.55,3.77-2.21,7.39-4.63,10.75-7.43,1.84-1.54,3.66-3.1,5.33-4.82,4.22-4.37,7.93-9.13,10.92-14.44,3.21-5.69,5.56-11.71,6.96-18.09,.64-2.93,1.07-5.9,1.23-8.91,.35-6.38,.06-12.76,.16-19.13,.02-1.35-.79-2.25-2.15-2.46-7.03-1.07-11.42-5.28-13.98-11.68-.81-2.02-1.19-4.12-1.27-6.28,.34,0,.68,.01,1.01-.02,.83-.09,1.7,.22,2.51-.18h.37Z"/><path class="cls-8" d="M73.49,2.5c-.81,.4-1.67,.09-2.51,.18-.33,.04-.67,.02-1.01,.02v-.2h3.52Z"/><path class="cls-7" d="M49.94,89.43c-1.45-.02-2.53-.95-3.69-1.6-6.16-3.49-11.69-7.81-16.46-13.05-8.08-8.88-13.3-19.18-15.22-31.1-.92-5.7-.67-11.44-.68-17.17,0-1.45,.89-2.35,2.22-2.88,3.42-1.39,6.43-3.39,9.01-6.03,1.82-1.86,3.37-3.94,4.5-6.3,.72-1.51,1.8-2.19,3.5-2.17,5.62,.06,11.23,.03,16.85,.04,0,2.7,0,5.4,0,8.1-.58,.04-1.18,.02-1.74,.13-6.74,1.27-10.83,6.22-10.83,13.1,0,2.28,0,4.55,0,6.83-.92,0-1.85,0-2.77,0-2.25,0-3.51,1.24-3.52,3.47,0,6.32,0,12.63,0,18.95,0,2.23,1.36,3.57,3.53,3.54,5.11-.08,10.23,0,15.34,0,0,4.46,0,8.93,0,13.39,0,4.25-.02,8.5-.03,12.75Z"/><path class="cls-4" d="M49.97,17.26c0-2.7,0-5.4,0-8.1,4.25-.01,8.51-.03,12.76-.04,.05,.14,.06,.31,.15,.43,1.02,1.4,1.84,2.9,2.66,4.42,.88,1.63,1.99,3.11,3.25,4.46,2.8,3.03,6.11,5.32,9.96,6.84,1.26,.5,1.94,1.51,1.94,2.78,.02,5.99,.19,11.99-.86,17.94-.88,4.93-2.3,9.68-4.37,14.22-2.9,6.38-6.83,12.11-11.54,17.27-3.53,3.87-7.33,7.46-11.7,10.41-.71,.48-1.63,.74-2.05,1.6-.08-.02-.15-.04-.23-.07,.01-4.25,.03-8.5,.03-12.75,0-4.46,0-8.93,0-13.39,3.77-.01,7.53-.03,11.3-.04,1.57,0,3.15,.03,4.72,0,1.73-.02,2.89-1.18,2.89-2.93,.01-6.69,.01-13.38,0-20.07,0-1.66-1.27-2.89-2.94-2.93-.8-.02-1.61-.06-2.4,.01-.8,.07-.97-.25-.96-1,.04-2.34,.04-4.69,0-7.03-.05-3.06-1.21-5.69-3.26-7.93-2.51-2.73-5.64-4.09-9.35-4.12Z"/><path class="cls-5" d="M50.17,89.49c.43-.86,1.35-1.12,2.05-1.6,4.37-2.95,8.17-6.55,11.7-10.41,4.71-5.16,8.64-10.89,11.54-17.27,2.06-4.55,3.49-9.29,4.37-14.22,1.06-5.95,.89-11.95,.86-17.94,0-1.27-.68-2.28-1.94-2.78-3.84-1.52-7.16-3.81-9.96-6.84-1.25-1.36-2.37-2.83-3.25-4.46-.82-1.52-1.64-3.03-2.66-4.42-.09-.12-.1-.28-.15-.43,1.75-.13,3.51-.16,5.26,.06,.99,.12,1.69,.74,2.12,1.62,3,6.11,7.76,10.32,14,12.92,1.32,.55,1.99,1.56,1.98,3.03-.02,2.5-.03,5,0,7.49,.12,10.45-2.47,20.2-7.64,29.25-6.41,11.23-15.6,19.58-26.97,25.61-.41,.22-.84,.38-1.31,.39Z"/><path class="cls-3" d="M61.27,63.25c-3.77,.01-7.53,.03-11.3,.04-5.11-.01-10.23-.08-15.34,0-2.17,.03-3.54-1.31-3.53-3.54,.02-6.32,0-12.63,0-18.95,0-2.23,1.26-3.47,3.52-3.47,.92,0,1.85,0,2.77,0,.93,0,1.86,0,2.79,0,3.26,0,6.53,0,9.79,0h9.83c2.15-.26,3.72,1.49,3.7,3.7-.06,6.13-.04,12.27,0,18.4,0,1.76-.55,3.11-2.24,3.84Zm-11.16-17.69c-1.43,.06-2.47,.65-3.02,1.89-.54,1.22-.53,2.58,.51,3.42,1.07,.86,1.13,1.83,1.06,2.98-.03,.55-.01,1.11,0,1.67,.02,.94,.53,1.55,1.32,1.59,.81,.04,1.43-.6,1.45-1.57,.02-.92,.04-1.85,0-2.78-.03-.63,.11-1.06,.67-1.47,1.1-.8,1.46-2.3,1-3.58-.46-1.27-1.72-2.16-2.98-2.15Z"/><path class="cls-2" d="M40.18,37.31h-2.79c0-2.27,0-4.55,0-6.83,0-6.88,4.09-11.83,10.83-13.1,.57-.11,1.16-.09,1.74-.13,3.71,.03,6.84,1.38,9.35,4.12,2.05,2.23,3.21,4.87,3.26,7.93,.04,2.34,.04,4.69,0,7.03-.01,.74,.16,1.07,.96,1,.8-.07,1.6-.03,2.4-.01,1.67,.04,2.94,1.28,2.94,2.93,.02,6.69,.02,13.38,0,20.07,0,1.75-1.16,2.9-2.89,2.93-1.57,.02-3.15,0-4.72,0,1.69-.73,2.25-2.08,2.24-3.84-.03-6.13-.05-12.27,0-18.4,.02-2.21-1.56-3.97-3.7-3.69,0-2.59,.02-5.18,0-7.77-.05-5.26-4.55-9.57-9.82-9.44-5.17-.13-9.71,4.27-9.79,9.53-.04,2.56,0,5.12,0,7.68Z"/><path class="cls-4" d="M49.98,20.1c5.28-.13,9.78,4.18,9.82,9.44,.02,2.59,0,5.18,0,7.77-3.28,0-6.56,0-9.83-.01,0-5.74,0-11.47,0-17.21Z"/><path class="cls-7" d="M49.98,20.1c0,5.74,0,11.47,0,17.21-3.27,0-6.53,0-9.79,0,0-2.56-.04-5.12,0-7.68,.08-5.26,4.62-9.66,9.79-9.53Z"/></svg>