<?xml version="1.0" encoding="UTF-8"?><svg id="Layer_1" xmlns="http://www.w3.org/2000/svg" width="100" height="100" viewBox="0 0 100 100"><defs><style>.cls-1{fill:#a0a0a0;}.cls-2{fill:#d4985c;}.cls-3{fill:#b3b3b3;}.cls-4{fill:#f2f2f2;}.cls-5{fill:#188fea;}</style></defs><path class="cls-1" d="M28.69,97.5c-1.08-.58-1.97-1.37-2.67-2.38,.36-.14,.58-.45,.84-.71,12.08-12.07,24.15-24.15,36.23-36.23,.24-.24,.44-.51,.66-.76h.19c-.31,1.4-.72,2.75-.58,4.24,.32,3.29,4.11,6.14,7.34,5.51,.95-.19,1.76-.74,2.72-.83-.09,.23-.16,.47-.26,.69-1.46,3.07-.52,6.49,2.33,8.35,1.93,1.26,3.98,1.29,6.1,.51,.23-.08,.44-.42,.73-.09-3.57,3.59-7.14,7.17-10.71,10.76-2.14,2.14-4.32,4.24-6.4,6.43-2.03,2.13-4.21,3.94-7.19,4.53H28.69Z"/><path class="cls-4" d="M21.64,90.8c-.62-.38-1.05-.95-1.55-1.45-3-2.99-5.99-5.98-8.99-8.98-1.59-1.59-1.58-3.14,.01-4.74,2.18-2.19,4.35-4.39,6.57-6.54,.61-.59,.82-1.18,.82-2.02-.03-12.02,0-24.04-.05-36.07,0-1.56,.63-2.54,1.93-3.28,5.68-3.24,12.72-.22,14.23,6.15,.95,4.01,1.86,8.02,2.79,12.04,.07,.32,.09,.67,.36,.92,.42,1.05,1.39,1.62,2.12,2.4,4.18,4.41,5.62,9.57,4.26,15.49-.69,3.02-2.28,5.58-4.45,7.75-5.77,5.81-11.58,11.59-17.37,17.39-.27,.27-.67,.48-.69,.94Z"/><path class="cls-3" d="M21.64,90.8c.02-.47,.42-.67,.69-.94,5.79-5.8,11.6-11.58,17.37-17.39,2.16-2.18,3.75-4.73,4.45-7.75,1.36-5.91-.08-11.08-4.26-15.49-.73-.77-1.7-1.34-2.12-2.4,.12-.14,.23-.29,.37-.42,11.27-11.27,22.54-22.55,33.82-33.82,2.33-2.32,5.59-2.71,8.21-1.02,3.49,2.25,4.06,7.07,1.14,10.03-4.69,4.74-9.43,9.45-14.15,14.17-.22,.22-.41,.46-.61,.68-.23,.51-.79,.67-1.15,1.04-3.15,3.18-6.32,6.33-9.48,9.51-1.78,1.79-2.32,4.78-1.33,7.12,.99,2.32,3.36,3.82,5.91,3.89,1.15,.03,2.16-.41,3.25-.58-.22,.26-.43,.53-.66,.76-12.07,12.08-24.15,24.15-36.23,36.23-.26,.26-.48,.57-.84,.71-1.56-1.33-2.97-2.83-4.37-4.32Z"/><path class="cls-4" d="M63.75,57.42c-1.09,.17-2.1,.62-3.25,.58-2.55-.07-4.92-1.57-5.91-3.89-1-2.34-.45-5.33,1.33-7.12,3.15-3.17,6.33-6.33,9.48-9.51,.37-.37,.92-.52,1.15-1.04,1.16-.12,2.22-.67,3.43-.59,2.69,.18,4.66,1.4,5.71,3.87,1.06,2.51,.69,4.88-1.11,6.99-.35,.41-.95,.62-.99,1.27-.01,.06,0,.15-.05,.18-3.41,2.62-6.22,5.85-9.24,8.88-.23,.02-.37,.14-.38,.38h-.18Z"/><path class="cls-3" d="M64.31,57.03c3.02-3.02,5.83-6.26,9.24-8.88,.04-.03,.03-.12,.05-.18,1.03-.28,2.03-.66,3.14-.63,2.7,.07,4.7,1.3,5.78,3.74,1.11,2.51,.73,4.94-1.04,7.09-.37,.45-.8,.85-1.19,1.27-.32,.59-.97,.83-1.41,1.3-1.67,1.77-3.39,3.48-5.09,5.21l-.18,.19h0l-.19,.19h0c-.96,.09-1.76,.65-2.72,.83-3.22,.63-7.01-2.22-7.34-5.51-.15-1.49,.27-2.84,.58-4.24h0c.26,0,.37-.13,.38-.38Z"/><path class="cls-4" d="M73.77,65.96c1.7-1.73,3.42-3.44,5.09-5.21,.45-.47,1.09-.71,1.41-1.3,.35,.07,.66-.07,.98-.19,2.88-1.08,6.04-.06,7.73,2.5,1.7,2.58,1.4,5.85-.76,8.06-1.96,2-3.94,3.98-5.91,5.97-.28-.33-.5,0-.73,.09-2.12,.79-4.17,.75-6.1-.51-2.85-1.86-3.79-5.28-2.33-8.35,.1-.22,.17-.46,.26-.69h0l.19-.19h0l.18-.19Z"/><path class="cls-5" d="M42.39,11.28c0,1.88,.01,3.77,0,5.65-.01,1.8-1.15,3.04-2.79,3.04-1.64,0-2.77-1.21-2.78-3.02,0-3.8,0-7.59,0-11.39,0-1.81,1.13-3.05,2.76-3.05,1.61,0,2.79,1.26,2.8,3.04,.02,1.91,0,3.83,0,5.74Z"/><path class="cls-5" d="M27.63,19.97c-.79,0-1.44-.32-1.99-.86-.97-.96-1.94-1.91-2.88-2.89-1.14-1.19-1.13-2.91,0-3.99,1.1-1.07,2.75-1.07,3.92,.05,1.03,.98,2.04,1.98,3.01,3.02,.81,.87,.98,1.92,.51,3.01-.48,1.1-1.37,1.63-2.56,1.65Z"/><path class="cls-5" d="M51.55,19.97c-1.14-.03-2.02-.51-2.52-1.56-.52-1.08-.39-2.14,.4-3.01,1.04-1.14,2.13-2.23,3.27-3.27,1.1-1,2.74-.9,3.77,.12,1.02,1.02,1.12,2.68,.13,3.77-1.04,1.14-2.15,2.21-3.26,3.27-.48,.46-1.1,.68-1.78,.66Z"/><path class="cls-2" d="M64.31,57.03c0,.25-.12,.38-.38,.38,0-.25,.14-.36,.38-.38Z"/><path class="cls-2" d="M73.77,65.96l-.18,.19,.18-.19Z"/><path class="cls-2" d="M73.59,66.14l-.19,.19,.19-.19Z"/></svg>