<?xml version="1.0" encoding="UTF-8"?><svg id="Layer_1" xmlns="http://www.w3.org/2000/svg" width="100" height="100" viewBox="0 0 100 100"><defs><style>.cls-1{fill:#e2e2e2;}.cls-2{fill:#a0a0a0;}.cls-3{fill:#1a8dd3;}.cls-4{fill:#b3b3b3;}.cls-5{fill:#f2f2f2;}.cls-6{fill:#188fea;}</style></defs><path class="cls-4" d="M50,13.79c-4.6,.09-9.07,.87-13.36,2.6-6.52,2.64-11.84,6.81-15.98,12.49-3.41,4.68-5.56,9.89-6.43,15.6-1.06,6.96-.17,13.7,2.7,20.16,2.02,4.56,4.85,8.53,8.51,11.89,5.21,4.8,11.31,7.87,18.31,9.1,2.07,.36,4.15,.55,6.25,.59,0,3.76,0,7.53,0,11.29h-3.71c-1.07-.41-2.22-.36-3.34-.53-8.66-1.34-16.34-4.81-23.1-10.38-7.14-5.89-12.15-13.25-15.05-22.03-1.18-3.58-1.87-7.26-2.16-11.04-.69-9.11,1.15-17.68,5.41-25.72,3.51-6.63,8.36-12.12,14.48-16.48,5.64-4.02,11.85-6.7,18.65-8,2.91-.56,5.85-.92,8.82-.8,0,3.75,0,7.51,0,11.26Z"/><path class="cls-2" d="M50,97.5c0-3.76,0-7.53,0-11.29,4.66-.15,9.21-.86,13.52-2.71,11.47-4.93,18.73-13.46,21.74-25.58,.57-2.31,.82-4.67,.88-7.05,.02-.77,.29-.9,.97-.9,3.46,.03,6.92,.01,10.39,.01v3.71c-.38,.64-.25,1.38-.33,2.06-.59,4.91-1.95,9.6-4.03,14.07-3.36,7.23-8.24,13.25-14.58,18.06-6.34,4.8-13.44,7.84-21.32,9.07-1.24,.19-2.5,.17-3.71,.53h-3.53Z"/><path class="cls-3" d="M50,24.98c6.09-.08,11.45,1.95,16.08,5.82,4.86,4.06,7.77,9.29,8.73,15.55,1.93,12.54-6.27,24.84-18.59,27.93-2.04,.51-4.1,.87-6.22,.73-.01-5.14-.02-10.27-.03-15.41,0-.05,.02-.1,.03-.14,4.25-4.23,8.5-8.46,12.76-12.67,.4-.39,.2-.62-.1-.9-.9-.89-1.85-1.74-2.67-2.7-.63-.73-1-.66-1.65,0-2.75,2.8-5.56,5.54-8.34,8.3,0-8.84,0-17.68,0-26.52Z"/><path class="cls-6" d="M50,24.98c0,8.84,0,17.68,0,26.52v.18c-.67,.64-1.38,1.24-1.99,1.94-.57,.66-.93,.72-1.58,.03-1.65-1.76-3.4-3.42-5.09-5.13-.33-.33-.57-.5-.97-.08-1,1.05-2.03,2.07-3.08,3.08-.36,.35-.29,.58,.03,.91,3.15,3.14,6.3,6.28,9.44,9.44,.34,.34,.55,.37,.89,0,.75-.78,1.54-1.51,2.31-2.27,.01,5.14,.02,10.27,.03,15.41-6.85-.02-12.73-2.44-17.59-7.24-5.32-5.26-7.77-11.72-7.44-19.17,.52-11.58,9.46-21.47,20.97-23.31,1.34-.21,2.69-.4,4.05-.32Z"/><path class="cls-2" d="M50,13.79c0-3.75,0-7.51,0-11.26,5.59-.12,10.97,.96,16.19,2.9,4.58,1.69,8.79,4.05,12.64,7.05,.62,.48,.99,.47,1.52-.12,.85-.97,1.79-1.86,2.83-2.94,.38,1.91,.71,3.59,1.04,5.28,.91,4.62,1.82,9.24,2.76,13.85,.12,.61,.05,.67-.55,.55-6.12-1.23-12.26-2.42-18.38-3.62-.17-.03-.33-.12-.62-.24,1.26-1.26,2.45-2.46,3.67-3.63,.41-.39,.45-.6-.05-.96-4.47-3.25-9.44-5.29-14.87-6.26-2.04-.36-4.1-.46-6.16-.58Z"/><path class="cls-1" d="M50,51.68v-.18c2.79-2.76,5.6-5.5,8.35-8.3,.65-.66,1.02-.73,1.65,0,.83,.96,1.77,1.81,2.67,2.7,.29,.29,.49,.51,.1,.9-4.26,4.22-8.51,8.45-12.76,12.67,0-2.6,0-5.19,0-7.79Z"/><path class="cls-5" d="M50,51.68c0,2.6,0,5.19,0,7.79-.01,.05-.02,.09-.03,.14-.77,.75-1.57,1.49-2.31,2.27-.34,.36-.55,.33-.89,0-3.13-3.16-6.28-6.3-9.44-9.44-.32-.32-.4-.55-.03-.91,1.04-1.01,2.08-2.03,3.08-3.08,.41-.43,.65-.25,.97,.08,1.69,1.71,3.44,3.38,5.09,5.13,.64,.68,1.01,.62,1.58-.03,.6-.7,1.32-1.3,1.98-1.94Z"/></svg>