<?xml version="1.0" encoding="UTF-8"?><svg id="Layer_1" xmlns="http://www.w3.org/2000/svg" width="100" height="100" viewBox="0 0 100 100"><defs><style>.cls-1{fill:#6a7c86;}.cls-2{fill:#a0a0a0;}.cls-3{fill:#6c7e88;}.cls-4{fill:#3d4c53;}.cls-5{fill:#1a8dd3;}.cls-6{fill:#697c86;}.cls-7{fill:#3c4c53;}.cls-8{fill:#3e4d54;}.cls-9{fill:#3d4b52;}.cls-10{fill:#b3b3b3;}.cls-11{fill:#f2f2f2;}.cls-12{fill:#188fea;}.cls-13{fill:#6a7d86;}</style></defs><path class="cls-10" d="M28.34,97.5c-1.81-1.07-2.08-1.64-1.76-3.76,.14-.95,.3-1.9,.48-2.84,.08-.43,.03-.69-.42-.88-6.12-2.69-10.53-7.13-13.41-13.13-.19-.41-.42-.54-.86-.53-1.43,.03-2.85,.02-4.28,0-1.73-.01-2.82-1.1-2.82-2.85,0-5.15,0-10.3,0-15.46,0-1.74,1.09-2.82,2.84-2.83,1.4,0,2.79-.02,4.19,0,.46,0,.73-.1,.94-.56,1.55-3.38,3.73-6.29,6.55-8.72,.32-.27,.36-.53,.24-.91-.69-2.31-1.63-4.46-3.29-6.27-1.53-1.67-.87-3.87,1.33-4.48,5.51-1.53,11.96-.31,15.5,5.03,.24,.37,.53,.37,.89,.34,5.18-.33,10.36-.11,15.53-.13,0,3.47,0,6.95,0,10.42-3.43,0-6.85,.02-10.28,.03-.96,0-1.77,.31-2.32,1.12-.59,.86-.69,1.76-.18,2.71,.52,.98,1.35,1.4,2.42,1.41,3.46,.02,6.91,.02,10.37,.03,0,12.33,0,24.65,0,36.98-2.11,0-4.22,.06-6.33,0-.8-.02-1.15,.13-1.25,1.03-.19,1.66-.26,3.45-2.2,4.23h-11.88Zm.77-42.28c-1.43-.04-2.65,1.1-2.69,2.52-.05,1.43,1.09,2.65,2.5,2.71,1.46,.06,2.71-1.11,2.74-2.57,.03-1.43-1.12-2.63-2.55-2.67Z"/><path class="cls-2" d="M50.01,92.23c0-12.33,0-24.65,0-36.98v-.06c3.54,0,7.09,.04,10.63,.02,1.42,0,2.47-1.17,2.47-2.61,0-1.44-1.05-2.6-2.47-2.61-3.54-.02-7.09,.01-10.63,.02v-.06c0-3.47,0-6.95,0-10.42,3.83,.02,7.68-.31,11.48,.2,5.43,.73,10.16,3.04,14.2,6.75,.34,.31,.69,.6,1.04,.9,1.1,1.39,2.2,2.78,3.31,4.17,.06,.16,.11,.33,.2,.47,3.33,5.57,4.58,11.56,3.47,17.96-1.48,8.57-6.06,14.98-13.69,19.19-.77,.43-1.99,.5-2.26,1.26-.26,.74,.2,1.74,.37,2.62,.49,2.69,.22,3.4-1.7,4.43h-11.88c-1.37-.55-1.93-1.64-2.08-3.03-.08-.69-.03-1.53-.41-2.01-.44-.54-1.35-.09-2.05-.23Z"/><path class="cls-5" d="M94.72,49.98c-.56,1.39-1.1,2.79-2.28,3.81-.4,.34-.79,.69-1.22,.97-1.26,.81-2.8,.51-3.63-.67-.81-1.15-.53-2.74,.66-3.63,.37-.28,.75-.55,.99-.96,.42-.74,.3-1.26-.45-1.67-1.17-.63-2.4-.58-3.63-.18-2.17,.7-3.68,2.25-5.12,3.9-1.1-1.39-2.2-2.78-3.31-4.17,2.39-2.7,5.21-4.73,8.88-5.17,3.19-.38,5.97,.45,8.03,3.1,.52,.67,.66,1.51,1.07,2.22v2.45Z"/><path class="cls-12" d="M50,55.25c-3.46,0-6.91-.01-10.37-.03-1.06,0-1.9-.43-2.42-1.41-.51-.95-.41-1.85,.18-2.71,.55-.81,1.36-1.12,2.32-1.12,3.43,0,6.85-.02,10.28-.03v.06c0,1.73,0,3.45,0,5.18v.06Z"/><path class="cls-12" d="M29.11,55.22c1.42,.04,2.57,1.24,2.55,2.67-.03,1.46-1.27,2.63-2.74,2.57-1.42-.06-2.55-1.29-2.5-2.71,.05-1.42,1.26-2.56,2.69-2.52Z"/><path class="cls-5" d="M50,55.19c0-1.73,0-3.45,0-5.18,3.54,0,7.09-.04,10.63-.02,1.42,0,2.47,1.17,2.47,2.61,0,1.44-1.05,2.6-2.47,2.61-3.54,.02-7.09-.01-10.63-.02Z"/><path class="cls-5" d="M50.56,2.5c1.93-.03,3.79,.34,5.55,1.12,4.43,1.99,7.2,5.36,8.31,10.09,.13,.56,.22,1.14,.25,1.72,0,.06-.02,.13,.05,.17v2.16c-.06,.03-.05,.09-.05,.15-.02,.47-.09,.93-.19,1.39-.7,3.48-2.43,6.33-5.21,8.52-1.94,1.53-4.14,2.47-6.58,2.84-.34,.05-.69,.04-1.02,.15h-1.11c0-.88,0-1.77,0-2.65,.13-.02,.27,.03,.4-.04h.06c.54,0,1.08-.08,1.61-.18,1.14-.21,2.24-.56,3.25-1.14,.29-.11,.55-.28,.8-.46,1.46-.91,2.64-2.1,3.56-3.56,.18-.25,.34-.51,.46-.8,.82-1.52,1.24-3.14,1.31-4.87,.06-.31,.06-.62,0-.93,0-.53-.07-1.06-.17-1.58-.21-1.15-.56-2.25-1.14-3.28-.11-.29-.28-.55-.46-.8-.92-1.46-2.1-2.64-3.56-3.56-.26-.17-.51-.34-.8-.46-1.52-.82-3.14-1.25-4.87-1.31h-.06c-.13-.08-.27-.04-.4-.06V2.5Z"/><path class="cls-12" d="M50.56,2.5c0,.88,0,1.76,0,2.65-.15,.06-.3,.04-.46,.06-1.2,.01-2.36,.27-3.49,.67-.48,.17-.97,.34-1.39,.64-.29,.1-.54,.26-.78,.45-.07,.04-.15,.06-.22,.11-.96,.63-1.81,1.39-2.53,2.28-.31,.37-.63,.75-.83,1.2-.18,.24-.35,.49-.45,.78-.03,.03-.07,.06-.09,.1-.76,1.5-1.2,3.08-1.23,4.77-.03,.3-.03,.6,0,.9,.01,1.19,.26,2.34,.66,3.46,.18,.49,.35,.98,.66,1.41,.1,.29,.26,.54,.45,.78,.04,.07,.06,.15,.11,.22,.63,.96,1.39,1.81,2.28,2.53,.37,.31,.75,.63,1.2,.83,.24,.18,.49,.35,.78,.45,.26,.22,.58,.32,.88,.44,1.28,.53,2.61,.85,4,.88,.15,.01,.31,0,.46,.06v2.65h-1.11c-.31-.13-.64-.11-.97-.16-2.49-.37-4.73-1.34-6.71-2.9-1.6-1.27-2.88-2.81-3.82-4.63-.7-1.36-1.16-2.8-1.39-4.31-.12-.82-.19-1.64-.16-2.47,.05-1.85,.43-3.63,1.16-5.33,.7-1.63,1.69-3.09,2.95-4.34,1.79-1.79,3.91-3.04,6.38-3.69,1.21-.32,2.43-.49,3.68-.48Z"/><path class="cls-11" d="M50.1,28.11c-1.39-.03-2.72-.34-4-.88-.3-.13-.62-.23-.88-.44,.21-.36,.42-.71,.62-1.07,.13-.24,.05-.49-.17-.62-.22-.13-.47-.07-.62,.17-.21,.35-.41,.72-.61,1.08-.45-.2-.82-.52-1.2-.83-.89-.73-1.65-1.57-2.28-2.53-.04-.07-.07-.15-.11-.22,.34-.19,.67-.37,1.01-.57,.29-.17,.38-.42,.24-.66-.14-.25-.4-.3-.69-.13-.34,.19-.67,.39-1,.58-.31-.43-.48-.93-.66-1.41-.4-1.12-.65-2.27-.66-3.46,.4,0,.81,0,1.21,0,.3,0,.49-.18,.5-.44,0-.27-.19-.46-.5-.46-.4,0-.81,0-1.21,0,.03-1.69,.47-3.27,1.23-4.77,.02-.04,.06-.07,.09-.1,.35,.2,.69,.41,1.05,.61,.26,.14,.51,.07,.65-.16,.13-.23,.06-.48-.19-.63-.35-.21-.7-.4-1.05-.6,.2-.45,.52-.82,.83-1.2,.73-.89,1.57-1.65,2.53-2.28,.07-.04,.15-.07,.22-.11,.19,.34,.38,.69,.58,1.03,.16,.27,.42,.35,.65,.22,.23-.14,.29-.4,.14-.67-.19-.34-.39-.68-.59-1.02,.42-.3,.91-.47,1.39-.64,1.13-.41,2.28-.66,3.49-.67,0,.4,0,.8,0,1.2,0,.32,.12,.44,.45,.5,.32-.04,.45-.17,.46-.5,0-.4,0-.8,0-1.21,1.72,.06,3.35,.48,4.87,1.31-.2,.34-.4,.68-.59,1.02-.16,.29-.1,.56,.14,.69,.24,.14,.49,.05,.66-.24,.2-.34,.4-.68,.59-1.02,1.46,.92,2.64,2.1,3.56,3.56-.34,.2-.68,.39-1.02,.59-.29,.17-.38,.42-.24,.66,.14,.24,.41,.3,.69,.14,.34-.19,.68-.4,1.02-.59,.57,1.03,.93,2.13,1.14,3.28,.1,.52,.17,1.05,.17,1.58-.39,0-.79,0-1.18,0-.34,0-.53,.18-.53,.46,0,.28,.2,.46,.53,.46,.39,0,.79,0,1.18,0-.06,1.72-.49,3.35-1.31,4.87-.34-.2-.68-.4-1.02-.59-.29-.16-.55-.1-.69,.14-.14,.25-.06,.49,.24,.66,.34,.2,.68,.4,1.02,.59-.92,1.46-2.1,2.64-3.56,3.56-.2-.34-.39-.68-.59-1.02-.17-.29-.42-.38-.66-.24-.24,.14-.3,.41-.14,.69,.19,.34,.4,.68,.59,1.02-1.02,.57-2.11,.92-3.25,1.14-.53,.1-1.07,.18-1.61,.17,0-.4,0-.81,0-1.21,0-.32-.14-.45-.46-.5-.33,.05-.45,.18-.45,.5,0,.4,0,.8,0,1.21Zm.46-19.62c-.36,.07-.46,.19-.46,.56,0,1.95,0,3.9,0,5.85,0,.21-.05,.32-.25,.42-.63,.31-.95,1.02-.78,1.69,.17,.68,.76,1.14,1.47,1.14,.31,.05,.59-.05,.82-.23,.18-.14,.31-.1,.48,0,1.13,.66,2.26,1.31,3.39,1.96,.39,.23,.67,.21,.82-.06,.15-.27,.03-.51-.37-.73-1.15-.67-2.31-1.33-3.46-2-.1-.06-.19-.1-.17-.27,.08-.67-.24-1.25-.83-1.54-.18-.09-.21-.19-.21-.36,0-.94,0-1.88,0-2.82,0-1.02,0-2.04,0-3.07,0-.38-.1-.5-.46-.56Z"/><path class="cls-7" d="M62.01,17.12c-.39,0-.79,0-1.18,0-.34,0-.53-.18-.53-.46,0-.28,.2-.46,.53-.46,.39,0,.79,0,1.18,0,.06,.31,.06,.62,0,.93Z"/><path class="cls-8" d="M56.69,6.96c-.2,.34-.39,.68-.59,1.02-.17,.29-.42,.38-.66,.24-.24-.14-.3-.41-.14-.69,.19-.34,.4-.68,.59-1.02,.29,.11,.55,.28,.8,.46Z"/><path class="cls-8" d="M60.24,22.79c-.34-.2-.68-.39-1.02-.59-.29-.17-.38-.42-.24-.66,.14-.24,.41-.3,.69-.14,.34,.19,.68,.4,1.02,.59-.11,.29-.28,.55-.46,.8Z"/><path class="cls-8" d="M60.7,11.33c-.34,.2-.68,.4-1.02,.59-.29,.16-.55,.1-.69-.14-.14-.25-.06-.49,.24-.66,.34-.2,.68-.4,1.02-.59,.18,.25,.34,.51,.46,.8Z"/><path class="cls-8" d="M55.88,26.8c-.2-.34-.4-.68-.59-1.02-.16-.29-.1-.56,.14-.69,.25-.14,.49-.06,.66,.24,.2,.34,.4,.68,.59,1.02-.25,.18-.51,.34-.8,.46Z"/><path class="cls-4" d="M51.02,5.2c0,.4,0,.8,0,1.21,0,.32-.14,.45-.46,.5,0-.48,0-.97,0-1.45,0-.19,.04-.28,.24-.25,.05,0,.11,0,.16-.01h.06Z"/><path class="cls-4" d="M50.56,26.4c.32,.04,.45,.17,.46,.5,0,.4,0,.8,0,1.21h-.06q-.4-.02-.4-.44c0-.42,0-.84,0-1.26Z"/><path class="cls-13" d="M50.96,5.19c-.05,0-.11,.02-.16,.01-.2-.03-.25,.06-.24,.25,.01,.48,0,.97,0,1.45-.33-.05-.45-.18-.45-.5,0-.4,0-.8,0-1.2,.15-.01,.31,0,.46-.06,.13,.02,.27-.03,.4,.04Z"/><path class="cls-13" d="M50.56,26.4c0,.42,0,.84,0,1.26q0,.42,.4,.45c-.13,.07-.27,.02-.4,.04-.15-.06-.3-.04-.46-.06,0-.4,0-.8,0-1.21,0-.32,.12-.45,.45-.5Z"/><path class="cls-3" d="M44.45,26.34c.2-.36,.4-.72,.61-1.08,.14-.24,.4-.3,.62-.17,.22,.13,.3,.38,.17,.62-.2,.36-.41,.72-.62,1.07-.29-.1-.54-.26-.78-.45Z"/><path class="cls-3" d="M40.87,10.55c.35,.2,.71,.39,1.05,.6,.26,.15,.32,.41,.19,.63-.13,.23-.39,.3-.65,.16-.35-.19-.7-.4-1.05-.61,.1-.29,.27-.54,.45-.78Z"/><path class="cls-3" d="M40.42,21.98c.33-.19,.66-.39,1-.58,.3-.17,.55-.12,.69,.13,.14,.24,.05,.49-.24,.66-.33,.2-.67,.38-1.01,.57-.18-.24-.35-.49-.45-.78Z"/><path class="cls-3" d="M45.23,6.52c.2,.34,.4,.68,.59,1.02,.15,.27,.09,.53-.14,.67-.23,.13-.49,.06-.65-.22-.2-.34-.39-.69-.58-1.03,.24-.18,.49-.35,.78-.45Z"/><path class="cls-1" d="M39.1,16.21c.4,0,.81,0,1.21,0,.31,0,.51,.2,.5,.46,0,.26-.2,.43-.5,.44-.4,0-.81,0-1.21,0-.03-.3-.03-.6,0-.9Z"/><path class="cls-9" d="M50.56,8.49c.35,.06,.45,.18,.46,.56,0,1.02,0,2.04,0,3.07,0,.94,0,1.88,0,2.82,0,.17,.03,.27,.21,.36,.6,.28,.91,.87,.83,1.54-.02,.16,.07,.21,.17,.27,1.16,.67,2.31,1.33,3.46,2,.4,.23,.52,.47,.37,.73-.15,.27-.42,.29-.82,.06-1.13-.65-2.26-1.3-3.39-1.96-.18-.1-.3-.14-.48,0-.23,.18-.51,.27-.82,.23,0-.9,0-1.8,0-2.71,0-2.32,0-4.64,0-6.96Z"/><path class="cls-6" d="M50.56,8.49c0,2.32,0,4.64,0,6.96,0,.9,0,1.8,0,2.71-.71,0-1.3-.46-1.47-1.14-.17-.67,.15-1.39,.78-1.69,.2-.1,.25-.21,.25-.42,0-1.95,0-3.9,0-5.85,0-.38,.09-.49,.46-.56Z"/></svg>