<?xml version="1.0" encoding="UTF-8"?><svg id="Layer_1" xmlns="http://www.w3.org/2000/svg" width="100" height="100" viewBox="0 0 100 100"><defs><style>.cls-1{fill:#ececee;}.cls-2{fill:#646464;}</style></defs><rect class="cls-1" x="3" y="3" width="94" height="94" rx="7.18" ry="7.18"/><path class="cls-2" d="M76.78,33.11c-1.71,.78-3.61,1.25-5.46,1.56,.88-.15,2.17-1.74,2.69-2.38,.79-.98,1.44-2.1,1.81-3.31,.05-.09,.08-.21-.01-.28-.12-.05-.2-.02-.29,.02-2.07,1.11-4.2,1.91-6.48,2.48-.19,.05-.33,0-.45-.12-.19-.21-.37-.41-.57-.58-.96-.81-1.98-1.45-3.14-1.92-1.52-.62-3.18-.88-4.81-.77-1.59,.1-3.15,.55-4.56,1.29-1.41,.74-2.68,1.77-3.68,3.01-1.04,1.28-1.81,2.8-2.2,4.4-.38,1.55-.35,3.08-.12,4.65,.03,.26,.01,.3-.22,.26-8.89-1.32-16.26-4.51-22.25-11.32-.26-.3-.4-.3-.61,.02-2.62,3.93-1.35,10.23,1.92,13.33,.44,.41,.88,.83,1.37,1.2-.18,.04-2.35-.2-4.29-1.2-.26-.16-.39-.07-.41,.22-.02,.42,.01,.81,.07,1.27,.5,3.98,3.26,7.66,7.03,9.09,.45,.19,.94,.35,1.43,.44-.86,.19-1.75,.32-4.21,.13-.31-.06-.42,.09-.31,.39,1.85,5.05,5.85,6.55,8.85,7.41,.4,.07,.8,.07,1.2,.16-.02,.04-.05,.04-.07,.07-.99,1.51-4.44,2.64-6.04,3.2-2.92,1.02-6.09,1.48-9.18,1.17-.49-.07-.6-.07-.73,0-.14,.08-.02,.2,.14,.33,.63,.41,1.26,.78,1.91,1.13,1.96,1.04,4,1.86,6.13,2.45,11.02,3.04,23.44,.81,31.72-7.42,6.5-6.46,8.78-15.36,8.78-24.28,0-.35,.41-.54,.66-.73,1.69-1.27,3.06-2.79,4.32-4.49,.28-.38,.29-.72,.29-.86v-.05c0-.14,0-.1-.22,0Z"/></svg>