<?xml version="1.0" encoding="UTF-8"?><svg id="Layer_1" xmlns="http://www.w3.org/2000/svg" width="100" height="100" viewBox="0 0 100 100"><defs><style>.cls-1{fill:#5b6d80;}.cls-2{fill:#f2f2f2;}.cls-3{fill:#188fea;}</style></defs><path class="cls-2" d="M45.62,78.88c-1.33-1.63-.62-3.44-.38-5.18,.66-4.85,1.4-9.69,2.09-14.53,.24-1.68,.71-3.34,.57-5.05-.26-3.28-.56-6.56-.86-10.07-.9,1.16-1.69,2.17-2.47,3.2-2.06,2.71-4.1,5.43-6.16,8.13-1.08,1.42-2.9,1.75-4.26,.78-1.39-.99-1.69-2.85-.62-4.33,3.25-4.47,6.5-8.95,9.79-13.38,1.13-1.52,2.72-2.31,4.63-2.42,.9-.05,1.78-.25,2.85-.18-4.04-2.18-5.43-4.55-4.66-7.77,.64-2.68,3.09-4.73,5.75-4.82,3.03-.1,5.54,1.64,6.38,4.5,.72,2.43,.12,5.57-3.32,7.52,1.71,.36,3.95-.18,5.22-1.2,3.77-3.04,7.54-6.08,11.32-9.1,1.53-1.22,3.45-1.02,4.62,.44,1.13,1.41,.82,3.36-.74,4.59-4.56,3.57-9.11,7.14-13.69,10.68-.52,.4-.67,.8-.58,1.41,.34,2.42,.65,4.85,.96,7.28,.1,.77,.32,1.36,1.14,1.74,1.95,.92,3.82,2,5.75,2.97,.76,.38,1.21,.91,1.45,1.73,.88,3.08,1.8,6.14,2.71,9.21-1.73,1.48-3.51,2.88-5.48,4.04-.22-.44-.48-.86-.64-1.32-.79-2.18-1.6-4.36-2.32-6.56-.31-.94-.84-1.55-1.75-1.96-2.05-.94-4.08-1.93-6.09-2.96-.73-.38-.95-.28-1.09,.56-.71,4.35-1.52,8.68-2.23,13.02-.38,2.32-.96,4.6-1.1,6.95-2.22,.85-4.48,1.54-6.8,2.05Z"/><path class="cls-2" d="M45.62,78.88c2.32-.51,4.59-1.2,6.8-2.05,3.45-1.15,6.73-2.67,9.9-4.42,1.82-1.01,3.67-1.99,5.31-3.3,1.97-1.15,3.75-2.55,5.48-4.04,4.65-3.73,8.68-8.04,12.23-12.82,.41-.55,.31-.74-.34-.89-1.56-.35-3.11-.77-4.66-1.15-.19-.05-.39-.07-.55-.33,2.06-1.15,4.11-2.3,6.16-3.44,2.29-1.27,4.58-2.55,6.87-3.81,.42-.23,.85-.61,1.08,.24,1.17,4.35,2.36,8.69,3.6,13.25-1.59-.72-3.01-1.32-4.39-2.01-.66-.33-.99-.24-1.38,.39-3.01,4.84-6.29,9.49-10.06,13.78-10.73,12.24-23.84,20.57-39.76,24.35-4.58,1.09-9.2,1.65-13.91,1.36,.96-.98,1.89-1.98,2.88-2.92,.54-.51,.67-.88,.03-1.4-.51-.41-.93-.92-1.4-1.37-.29-.28-.4-.55-.22-.95,.39-.86,.52-1.97,1.15-2.54,.66-.6,1.81-.14,2.74-.21,.03,0,.07,0,.1,0,.51,.07,.68-.16,.67-.67-.02-1.17,.02-2.35,.03-3.52,3.95,.09,7.84-.35,11.63-1.52Z"/><path class="cls-1" d="M33.99,80.4c-.01,1.17-.05,2.35-.03,3.52,0,.51-.16,.73-.67,.67-.03,0-.07,0-.1,0-.93,.08-2.08-.39-2.74,.21-.63,.58-.76,1.68-1.15,2.54-.18,.4-.07,.67,.22,.95,.47,.45,.89,.96,1.4,1.37,.64,.52,.51,.89-.03,1.4-.99,.94-1.93,1.95-2.88,2.92q-.97,.81-1.89-.15-1.38-1.45-3.25-.72-1.49,.58-1.49,2.25t-1.77,1.8c-1.28,0-2.55-.03-3.83,.01-.57,.02-.73-.18-.71-.72,.03-.91,.29-2.02-.13-2.69-.38-.61-1.55-.68-2.32-1.1-.6-.33-.97-.28-1.42,.23-.56,.63-1.18,1.6-1.84,1.65-.76,.06-1.28-1.06-1.92-1.65-.72-.67-1.38-1.4-2.09-2.07-.36-.34-.41-.59-.02-.94,.56-.5,1.06-1.07,1.61-1.58,.34-.31,.43-.6,.16-1.02-.21-.33-.35-.7-.5-1.06q-.67-1.62-2.45-1.62-1.65,0-1.65-1.63c0-1.31,.02-2.62,0-3.93-.01-.51,.08-.78,.68-.75,.91,.04,2.04,.31,2.69-.11,.63-.41,.73-1.59,1.16-2.38,.31-.57,.25-.93-.23-1.34-.52-.44-.96-.98-1.47-1.44-.4-.35-.33-.6,.02-.95,1.2-1.16,2.38-2.34,3.54-3.54,.33-.34,.54-.33,.88,0,.7,.68,1.25,1.8,2.14,1.9,.83,.09,1.73-.65,2.62-.96,.4-.14,.57-.33,.56-.77-.03-.78,.01-1.57-.02-2.36-.02-.46,.14-.62,.61-.62,1.7,.02,3.4,.02,5.11,0,.5,0,.58,.19,.6,.63,.03,.97-.4,2.15,.18,2.85,.54,.64,1.69,.76,2.54,1.16,.4,.19,.65,.14,.94-.17,.54-.57,1.12-1.1,1.65-1.68,.32-.35,.55-.32,.88,.01,1.17,1.19,2.34,2.38,3.54,3.54,.36,.35,.38,.58,.02,.95-.67,.7-1.8,1.24-1.88,2.14-.07,.84,.77,1.69,.98,2.62,.1,.45,.38,.54,.79,.52,.69-.02,1.38,.05,2.06-.02,.79-.09,.97,.24,.89,.94-.04,.39,.01,.78,.03,1.17Zm-9.47,1.08c.01-3.48-2.81-6.32-6.28-6.32-3.43,0-6.26,2.78-6.3,6.2-.03,3.48,2.76,6.35,6.23,6.37,3.48,.03,6.33-2.79,6.35-6.25Z"/><path class="cls-3" d="M87.4,2.82c.94,2.01,1.77,3.74,2.56,5.5,.24,.54,.53,.78,1.15,.85,1.62,.19,3.23,.49,4.84,.75,.21,.03,.51-.07,.61,.19,.1,.26-.19,.39-.33,.54-1.2,1.25-2.4,2.51-3.62,3.74-.35,.36-.48,.67-.37,1.2,.34,1.7,.58,3.41,.84,5.12,.04,.23,.18,.56-.1,.72-.22,.13-.43-.1-.62-.2-1.41-.76-2.83-1.51-4.21-2.33-.56-.33-.98-.3-1.52,.02-1.32,.78-2.68,1.5-4.04,2.23-.25,.14-.54,.45-.79,.28-.29-.2-.11-.61-.07-.91,.25-1.65,.5-3.29,.83-4.92,.11-.54-.04-.85-.39-1.2-1.2-1.21-2.37-2.44-3.55-3.67-.17-.17-.5-.31-.38-.61,.1-.25,.4-.15,.62-.18,1.61-.26,3.22-.55,4.84-.74,.62-.07,.9-.34,1.14-.87,.78-1.75,1.62-3.48,2.55-5.48Z"/><path class="cls-3" d="M13.3,27.38c0-.85-.1-1.71,.02-2.54,.18-1.23,1.19-.48,1.8-.57,.43-.06,1.28-.48,1.31,.56,.03,.85,0,1.69,0,2.54h.01c-1.05-.01-2.1-.01-3.16-.01h.01Z"/><path class="cls-3" d="M13.3,30.51c-.85,0-1.71,.1-2.54-.02-1.23-.18-.48-1.19-.57-1.8-.06-.43-.48-1.28,.56-1.31,.85-.03,1.69,0,2.54,0h-.01c0,1.04,0,2.09,0,3.15h.01Z"/><path class="cls-3" d="M16.43,27.38c.85,0,1.71-.1,2.54,.02,1.23,.18,.48,1.19,.57,1.8,.06,.43,.48,1.28-.56,1.31-.85,.03-1.69,0-2.54,0h.01v-3.15h-.01Z"/><path class="cls-3" d="M25.88,32.1c0-.85-.1-1.71,.02-2.54,.18-1.23,1.19-.48,1.8-.57,.43-.06,1.28-.48,1.31,.56,.03,.85,0,1.69,0,2.54h.01c-1.05-.01-2.1-.01-3.16-.01h.01Z"/><path class="cls-3" d="M16.43,30.51c0,.85,.1,1.71-.02,2.54-.18,1.23-1.19,.48-1.8,.57-.43,.06-1.28,.48-1.31-.56-.03-.85,0-1.69,0-2.54h-.01c1.05,.01,2.1,.01,3.16,.01h-.01Z"/><path class="cls-3" d="M25.88,35.23c-.85,0-1.71,.1-2.54-.02-1.23-.18-.48-1.19-.57-1.8-.06-.43-.48-1.28,.56-1.31,.85-.03,1.69,0,2.54,0h-.01c0,1.04,0,2.09,0,3.15h.01Z"/><path class="cls-3" d="M29.01,32.1c.85,0,1.71-.1,2.54,.02,1.23,.18,.48,1.19,.57,1.8,.06,.43,.48,1.28-.56,1.31-.85,.03-1.69,0-2.54,0h.01v-3.15h-.01Z"/><path class="cls-3" d="M29.01,35.23c0,.85,.1,1.71-.02,2.54-.18,1.23-1.19,.48-1.8,.57-.43,.06-1.28,.48-1.31-.56-.03-.85,0-1.69,0-2.54h-.01c1.05,.01,2.1,.01,3.16,.01h-.01Z"/><path class="cls-3" d="M84.44,81.71c0-.85-.1-1.71,.02-2.54,.18-1.23,1.19-.48,1.8-.57,.43-.06,1.28-.48,1.31,.56,.03,.85,0,1.69,0,2.54h.01c-1.05-.01-2.1-.01-3.16-.01h.01Z"/><path class="cls-3" d="M84.44,84.85c-.85,0-1.71,.1-2.54-.02-1.23-.18-.48-1.19-.57-1.8-.06-.43-.48-1.28,.56-1.31,.85-.03,1.69,0,2.54,0h-.01c0,1.04,0,2.09,0,3.15h.01Z"/><path class="cls-3" d="M87.58,81.71c.85,0,1.71-.1,2.54,.02,1.23,.18,.48,1.19,.57,1.8,.06,.43,.48,1.28-.56,1.31-.85,.03-1.69,0-2.54,0h.01v-3.14h-.01Z"/><path class="cls-3" d="M87.58,84.85c0,.85,.1,1.71-.02,2.54-.18,1.23-1.19,.48-1.8,.57-.43,.06-1.28,.48-1.31-.56-.03-.85,0-1.69,0-2.54h-.01c1.05,.01,2.1,.01,3.16,.01h-.01Z"/><path class="cls-2" d="M16.45,30.53c-1.05,0-2.1,0-3.16,0,0-1.05,0-2.1,0-3.16,1.05,0,2.1,0,3.16,0,0,1.05,0,2.1,0,3.16Z"/><path class="cls-2" d="M29.02,35.24c-1.05,0-2.1,0-3.16,0,0-1.05,0-2.1,0-3.16,1.05,0,2.1,0,3.16,0,0,1.05,0,2.1,0,3.16Z"/><path class="cls-2" d="M87.59,84.86c-1.05,0-2.1,0-3.16,0,0-1.05,0-2.1,0-3.16,1.05,0,2.1,0,3.16,0,0,1.05,0,2.1,0,3.16Z"/></svg>