<?xml version="1.0" encoding="UTF-8"?><svg id="Layer_1" xmlns="http://www.w3.org/2000/svg" width="100" height="100" viewBox="0 0 100 100"><defs><style>.cls-1{fill:#ececee;}.cls-2,.cls-3{fill:#646464;}.cls-3{fill-rule:evenodd;}</style></defs><rect class="cls-1" x="3" y="3" width="94" height="94" rx="7.18" ry="7.18"/><g><path class="cls-2" d="M23.07,77l3.87-14.44c-2.19-3.95-3.35-8.39-3.35-12.88,0-14.71,11.96-26.67,26.67-26.67s26.67,11.96,26.67,26.67-11.96,26.67-26.67,26.67c-4.41,0-8.77-1.11-12.68-3.23l-14.52,3.89Zm15.24-9.3l.91,.55c3.36,2,7.18,3.06,11.04,3.06,11.93,0,21.63-9.7,21.63-21.63s-9.7-21.63-21.63-21.63-21.63,9.7-21.63,21.63c0,3.94,1.09,7.82,3.16,11.21l.56,.92-2.16,8.06,8.11-2.17Z"/><path class="cls-3" d="M60.18,53.38c-1.1-.66-2.53-1.39-3.82-.86-.99,.41-1.63,1.96-2.27,2.75-.33,.41-.72,.47-1.23,.27-3.72-1.48-6.58-3.97-8.63-7.4-.35-.53-.29-.95,.13-1.45,.62-.73,1.4-1.56,1.57-2.55,.17-.98-.29-2.14-.7-3.01-.52-1.12-1.1-2.72-2.22-3.35-1.03-.58-2.39-.26-3.31,.49-1.59,1.29-2.35,3.32-2.33,5.33,0,.57,.08,1.14,.21,1.69,.32,1.32,.93,2.56,1.62,3.74,.52,.89,1.08,1.75,1.69,2.57,1.99,2.71,4.47,5.06,7.34,6.82,1.43,.88,2.98,1.65,4.58,2.18,1.79,.59,3.39,1.21,5.33,.84,2.03-.38,4.03-1.64,4.83-3.59,.24-.58,.36-1.22,.22-1.83-.28-1.26-1.99-2.01-3.01-2.63Z"/></g></svg>